<svg width="32" height="33" viewBox="0 0 32 33" fill="none" xmlns="http://www.w3.org/2000/svg">
<path d="M14.5 30.5L16.5 28.5V4L15.5 2.5L14 2L11.5 3L11 4.5L9.5 4L8 4.5L7 6L6.5 7.5L5.5 8L5 10L5.5 11.5L4 13V15L3 16.5V18L4.5 20L3 22L3.5 24L6 25L5.5 28L7 29L10 28L10.5 29.5L12.5 31L14.5 30.5Z" fill="#B8C7F7"/>
<path fill-rule="evenodd" clip-rule="evenodd" d="M12.3984 15.0856C12.3984 15.3575 12.6224 15.579 12.8984 15.579C13.1744 15.579 13.3984 15.3575 13.3984 15.0856C13.3984 14.8138 13.1744 14.5923 12.8984 14.5923C12.6224 14.5923 12.3984 14.8138 12.3984 15.0856ZM13.3984 23.9656C13.3984 23.6938 13.1744 23.4723 12.8984 23.4723C12.6224 23.4723 12.3984 23.6938 12.3984 23.9656C12.3984 24.2375 12.6224 24.459 12.8984 24.459C13.1744 24.459 13.3984 24.2375 13.3984 23.9656ZM9.39844 15.0856C9.39844 14.8138 9.17444 14.5923 8.89844 14.5923C8.62244 14.5923 8.39844 14.8138 8.39844 15.0856C8.39844 15.3575 8.62244 15.579 8.89844 15.579C9.17444 15.579 9.39844 15.3575 9.39844 15.0856ZM9.39844 21.0056C9.39844 20.7338 9.17444 20.5123 8.89844 20.5123C8.62244 20.5123 8.39844 20.7338 8.39844 21.0056C8.39844 21.2775 8.62244 21.499 8.89844 21.499C9.17444 21.499 9.39844 21.2775 9.39844 21.0056ZM12.3984 10.1523C12.3984 10.4241 12.6224 10.6456 12.8984 10.6456C13.1744 10.6456 13.3984 10.4241 13.3984 10.1523C13.3984 9.88047 13.1744 9.65896 12.8984 9.65896C12.6224 9.65896 12.3984 9.88047 12.3984 10.1523ZM9.39844 10.6456V13.6964C9.82244 13.8454 10.1554 14.1744 10.3059 14.5923H11.4909C11.6979 14.019 12.2474 13.6056 12.8984 13.6056C13.7254 13.6056 14.3984 14.2697 14.3984 15.0856C14.3984 15.7279 13.9789 16.2701 13.3984 16.4749V22.5764C13.9789 22.7811 14.3984 23.3233 14.3984 23.9656C14.3984 24.6079 13.9789 25.1501 13.3984 25.3549V26.9256C13.3984 27.1979 13.1749 27.419 12.8984 27.419C12.6219 27.419 12.3984 27.1979 12.3984 26.9256V25.3544C11.8879 25.1753 11.5074 24.7342 11.4219 24.1926L9.54494 22.3411C9.54344 22.3401 9.54344 22.3381 9.54194 22.3366C9.34644 22.4294 9.12994 22.4856 8.89844 22.4856C8.07144 22.4856 7.39844 21.8216 7.39844 21.0056C7.39844 20.1897 8.07144 19.5256 8.89844 19.5256C9.72544 19.5256 10.3984 20.1897 10.3984 21.0056C10.3984 21.2335 10.3414 21.4477 10.2474 21.6405C10.2489 21.642 10.2504 21.6425 10.2519 21.6435L11.7054 23.0781C11.8809 22.8492 12.1199 22.6746 12.3984 22.5764V16.4744C11.9744 16.3259 11.6414 15.9968 11.4909 15.579H10.3059C10.0989 16.1522 9.54944 16.5656 8.89844 16.5656C8.07144 16.5656 7.39844 15.9016 7.39844 15.0856C7.39844 14.4433 7.81794 13.9011 8.39844 13.6964V10.1523C8.39844 9.87997 8.62194 9.65896 8.89844 9.65896H11.4909C11.6414 9.24111 11.9744 8.91205 12.3984 8.76306V7.19229C12.3984 6.91997 12.6219 6.69896 12.8984 6.69896C13.1749 6.69896 13.3984 6.91997 13.3984 7.19229V8.76306C13.9789 8.9678 14.3984 9.50997 14.3984 10.1523C14.3984 10.9683 13.7254 11.6323 12.8984 11.6323C12.2474 11.6323 11.6979 11.2189 11.4909 10.6456H9.39844ZM29.2149 20.1398C29.9594 19.4941 30.3984 18.5597 30.3984 17.5523C30.3984 16.4966 29.9229 15.5267 29.1059 14.8755C29.2984 14.4793 29.3984 14.0477 29.3984 13.6056C29.3984 12.5874 28.8569 11.6496 28.0024 11.1143C28.2604 10.6708 28.3984 10.1705 28.3984 9.65896C28.3984 8.38616 27.5789 7.27961 26.3929 6.87113C26.3964 6.81341 26.3984 6.75619 26.3984 6.69896C26.3984 5.06652 25.0529 3.73896 23.3984 3.73896C22.9949 3.73896 22.6019 3.81986 22.2349 3.97576C21.8049 2.69112 20.5684 1.76562 19.1484 1.76562C17.0444 1.76562 16.1089 3.63832 15.9084 4.62893C15.9049 4.64521 15.9094 4.661 15.9084 4.67777C15.9069 4.69455 15.8984 4.70836 15.8984 4.72563V27.8827C15.7854 29.2833 14.5799 30.379 13.1484 30.379C11.7219 30.379 10.5199 29.2793 10.4114 27.8748C10.3914 27.6178 10.1594 27.419 9.89844 27.419C9.74244 27.419 9.59544 27.491 9.50044 27.6133C9.11244 28.117 8.52844 28.4056 7.89844 28.4056C6.79544 28.4056 5.89844 27.5206 5.89844 26.4323C5.89844 25.9843 6.05644 25.5561 6.35644 25.1935C6.49144 25.0302 6.50644 24.7999 6.39294 24.6208C6.27994 24.4417 6.06594 24.3529 5.85494 24.4017C5.68744 24.4402 5.53794 24.459 5.39844 24.459C4.29544 24.459 3.39844 23.5739 3.39844 22.4856C3.39844 21.6721 3.92194 20.9321 4.70044 20.644C4.88594 20.5754 5.01294 20.4057 5.02444 20.2114C5.03594 20.0165 4.92994 19.833 4.75494 19.7437C3.91794 19.3179 3.39844 18.4778 3.39844 17.5523C3.39844 16.6821 3.85194 15.8927 4.61194 15.4408C4.73044 15.3703 4.81394 15.2543 4.84294 15.1207C4.87144 14.9865 4.84244 14.8473 4.76294 14.7354C4.52444 14.3994 4.39844 14.0092 4.39844 13.6056C4.39844 12.7862 4.92744 12.0447 5.71394 11.7601C5.86944 11.7038 5.98694 11.5751 6.02744 11.4167C6.06744 11.2579 6.02494 11.0896 5.91444 10.9678C5.58144 10.6012 5.39844 10.1365 5.39844 9.65896C5.39844 8.70288 6.09294 7.88838 7.04894 7.72164C7.18294 7.69796 7.30244 7.62149 7.37794 7.5095C7.45344 7.39752 7.47944 7.25988 7.45044 7.12865C7.41544 6.97473 7.39844 6.83413 7.39844 6.69896C7.39844 5.61067 8.29544 4.72563 9.39844 4.72563C9.83144 4.72563 10.2489 4.8682 10.6064 5.13805C10.7519 5.24757 10.9464 5.27026 11.1129 5.19725C11.2804 5.12374 11.3934 4.96637 11.4089 4.7868C11.5039 3.64621 12.4879 2.75229 13.6484 2.75229C14.2054 2.75229 14.6659 2.92891 15.0559 3.292C15.2574 3.47897 15.5739 3.4696 15.7629 3.27128C15.9524 3.07296 15.9434 2.76117 15.7424 2.5742C15.1659 2.03745 14.4614 1.76562 13.6484 1.76562C12.2284 1.76562 10.9919 2.69112 10.5619 3.97576C10.1949 3.81986 9.80194 3.73896 9.39844 3.73896C7.74394 3.73896 6.39844 5.06652 6.39844 6.69896C6.39844 6.75619 6.40044 6.81341 6.40394 6.87113C5.21794 7.27961 4.39844 8.38616 4.39844 9.65896C4.39844 10.1705 4.53644 10.6708 4.79444 11.1143C3.93994 11.6496 3.39844 12.5874 3.39844 13.6056C3.39844 14.0477 3.49844 14.4793 3.69094 14.8755C2.87394 15.5267 2.39844 16.4966 2.39844 17.5523C2.39844 18.5597 2.83744 19.4941 3.58194 20.1398C2.85144 20.6909 2.39844 21.5562 2.39844 22.4856C2.39844 24.0115 3.57494 25.2715 5.07994 25.4289C4.95994 25.7485 4.89844 26.086 4.89844 26.4323C4.89844 28.0647 6.24394 29.3923 7.89844 29.3923C8.51944 29.3923 9.11044 29.2063 9.60644 28.8654C10.1164 30.3227 11.5259 31.3656 13.1484 31.3656C15.1024 31.3656 16.7489 29.8649 16.8969 27.9498C16.8974 27.9434 16.8944 27.9375 16.8944 27.931C16.8949 27.9241 16.8984 27.9192 16.8984 27.9123V4.77989C16.9724 4.47698 17.4659 2.75229 19.1484 2.75229C20.3089 2.75229 21.2929 3.64621 21.3879 4.7868C21.4034 4.96637 21.5164 5.12374 21.6839 5.19725C21.8504 5.27026 22.0449 5.24757 22.1904 5.13805C22.5479 4.8682 22.9654 4.72563 23.3984 4.72563C24.5014 4.72563 25.3984 5.61067 25.3984 6.69896C25.3984 6.83413 25.3814 6.97473 25.3464 7.12865C25.3174 7.25988 25.3434 7.39752 25.4189 7.5095C25.4944 7.62149 25.6139 7.69796 25.7479 7.72164C26.7039 7.88838 27.3984 8.70288 27.3984 9.65896C27.3984 10.1365 27.2154 10.6012 26.8824 10.9678C26.7719 11.0896 26.7294 11.2579 26.7694 11.4167C26.8099 11.5751 26.9274 11.7038 27.0829 11.7601C27.8694 12.0447 28.3984 12.7862 28.3984 13.6056C28.3984 14.0092 28.2724 14.3994 28.0339 14.7354C27.9544 14.8473 27.9254 14.9865 27.9539 15.1207C27.9829 15.2543 28.0664 15.3703 28.1849 15.4408C28.9449 15.8927 29.3984 16.6821 29.3984 17.5523C29.3984 18.4778 28.8789 19.3179 28.0419 19.7437C27.8669 19.833 27.7609 20.0165 27.7724 20.2114C27.7839 20.4057 27.9109 20.5754 28.0964 20.644C28.8749 20.9321 29.3984 21.6721 29.3984 22.4856C29.3984 23.5739 28.5014 24.459 27.3984 24.459C27.2589 24.459 27.1094 24.4402 26.9419 24.4017C26.7319 24.3529 26.5174 24.4417 26.4039 24.6208C26.2904 24.7999 26.3054 25.0302 26.4404 25.1935C26.7404 25.5561 26.8984 25.9843 26.8984 26.4323C26.8984 27.5206 26.0014 28.4056 24.8984 28.4056C24.2664 28.4056 23.6834 28.1136 23.2994 27.604C23.1704 27.4338 22.9459 27.3642 22.7414 27.4303C22.6674 27.4545 22.6024 27.4944 22.5499 27.5453C22.4569 27.6271 22.3954 27.7436 22.3854 27.8748C22.2769 29.2793 21.0749 30.379 19.6484 30.379C19.0199 30.379 18.4269 30.1752 17.9334 29.7899C17.7159 29.6207 17.4024 29.6572 17.2309 29.8703C17.0594 30.0839 17.0964 30.3943 17.3124 30.5635C17.9749 31.0805 18.8049 31.3656 19.6484 31.3656C21.2719 31.3656 22.6824 30.3207 23.1914 28.862C23.6859 29.2053 24.2759 29.3923 24.8984 29.3923C26.5529 29.3923 27.8984 28.0647 27.8984 26.4323C27.8984 26.086 27.8369 25.7485 27.7169 25.4289C29.2219 25.2715 30.3984 24.0115 30.3984 22.4856C30.3984 21.5562 29.9454 20.6909 29.2149 20.1398ZM20.3984 23.9656C20.3984 24.2379 20.6219 24.459 20.8984 24.459C21.6274 24.459 22.3984 25.2197 22.3984 25.939C22.3984 26.2113 22.6219 26.4323 22.8984 26.4323C23.1749 26.4323 23.3984 26.2113 23.3984 25.939C23.3984 24.6711 22.1834 23.4723 20.8984 23.4723C20.6219 23.4723 20.3984 23.6933 20.3984 23.9656ZM24.8984 10.6456C24.1694 10.6456 23.3984 9.8849 23.3984 9.16563C23.3984 8.89331 23.1749 8.67229 22.8984 8.67229C22.6219 8.67229 22.3984 8.89331 22.3984 9.16563C22.3984 10.4335 23.6134 11.6323 24.8984 11.6323C25.1749 11.6323 25.3984 11.4113 25.3984 11.139C25.3984 10.8666 25.1749 10.6456 24.8984 10.6456ZM18.8984 21.499C19.1749 21.499 19.3984 21.2779 19.3984 21.0056C19.3984 20.2863 20.1694 19.5256 20.8984 19.5256C21.1749 19.5256 21.3984 19.3046 21.3984 19.0323C21.3984 18.76 21.1749 18.539 20.8984 18.539C19.6134 18.539 18.3984 19.7378 18.3984 21.0056C18.3984 21.2779 18.6219 21.499 18.8984 21.499ZM20.8984 15.579C21.1749 15.579 21.3984 15.3579 21.3984 15.0856C21.3984 14.8133 21.1749 14.5923 20.8984 14.5923C20.1694 14.5923 19.3984 13.8316 19.3984 13.1123C19.3984 12.84 19.1749 12.619 18.8984 12.619C18.6219 12.619 18.3984 12.84 18.3984 13.1123C18.3984 14.3802 19.6134 15.579 20.8984 15.579ZM25.8984 13.6056C25.6219 13.6056 25.3984 13.8266 25.3984 14.099C25.3984 14.8182 24.6274 15.579 23.8984 15.579C23.6219 15.579 23.3984 15.8 23.3984 16.0723C23.3984 16.3446 23.6219 16.5656 23.8984 16.5656C25.1834 16.5656 26.3984 15.3668 26.3984 14.099C26.3984 13.8266 26.1749 13.6056 25.8984 13.6056ZM23.8984 19.5256C23.6219 19.5256 23.3984 19.7466 23.3984 20.019C23.3984 20.2913 23.6219 20.5123 23.8984 20.5123C24.6274 20.5123 25.3984 21.273 25.3984 21.9923C25.3984 22.2646 25.6219 22.4856 25.8984 22.4856C26.1749 22.4856 26.3984 22.2646 26.3984 21.9923C26.3984 20.7244 25.1834 19.5256 23.8984 19.5256ZM18.3984 8.67229C18.3984 7.40443 19.6134 6.20563 20.8984 6.20563C21.1749 6.20563 21.3984 6.42664 21.3984 6.69896C21.3984 6.97128 21.1749 7.19229 20.8984 7.19229C20.1694 7.19229 19.3984 7.95301 19.3984 8.67229C19.3984 8.94461 19.1749 9.16563 18.8984 9.16563C18.6219 9.16563 18.3984 8.94461 18.3984 8.67229Z" fill="#5072EB" stroke="#5072EB" stroke-width="0.3"/>
</svg>
