<svg width="32" height="33" viewBox="0 0 32 33" fill="none" xmlns="http://www.w3.org/2000/svg">
<g clip-path="url(#clip0_9802_26762)">
<path d="M1.25938 18.6362V18.636C1.25882 11.6471 6.68014 5.92404 13.5464 5.44431C13.5498 5.44407 13.5513 5.4443 13.5515 5.44433L13.5521 5.44449C13.5525 5.44466 13.556 5.44609 13.5612 5.45116C13.5722 5.46194 13.5838 5.4821 13.5838 5.51164V17.6355C13.5838 18.6848 14.4344 19.5355 15.4837 19.5355L27.6082 19.536C27.6377 19.5361 27.6579 19.5476 27.6687 19.5586C27.6715 19.5614 27.6731 19.5637 27.6741 19.5654C27.6749 19.5667 27.6753 19.5675 27.6754 19.5677L27.6755 19.5683C27.6755 19.5684 27.6756 19.5686 27.6756 19.569C27.6756 19.5698 27.6757 19.5712 27.6755 19.5734C27.1958 26.4397 21.4728 31.861 14.4838 31.8605H14.4837C7.17954 31.8611 1.25879 25.9403 1.25938 18.6362Z" fill="#B8C7F7" stroke="#5072EB" stroke-width="1.8"/>
<path d="M18.4234 2.57406C18.4234 2.54452 18.4349 2.52436 18.446 2.51358C18.4512 2.50851 18.4547 2.50708 18.4551 2.50691L18.4557 2.50675C18.4559 2.50673 18.4574 2.50649 18.4608 2.50673C25.0178 2.9643 30.2572 8.20455 30.7152 14.7619C30.7155 14.7652 30.7152 14.7668 30.7152 14.7669L30.715 14.7675C30.7149 14.768 30.7134 14.7715 30.7084 14.7767C30.6976 14.7877 30.6774 14.7992 30.6479 14.7992H18.5234C18.4682 14.7992 18.4234 14.7544 18.4234 14.6992V2.57406Z" stroke="#5072EB" stroke-width="1.8"/>
</g>
<defs>
<clipPath id="clip0_9802_26762">
<rect width="32" height="32" fill="white" transform="translate(0 0.832031)"/>
</clipPath>
</defs>
</svg>
