<svg width="34" height="34" viewBox="0 0 34 34" fill="none" xmlns="http://www.w3.org/2000/svg">
<path d="M1.89062 7.44531C1.89062 6.34074 2.78606 5.44531 3.89063 5.44531H8.97404C9.28453 5.44531 9.59076 5.37302 9.86847 5.23417L11.3719 4.48246C11.8463 4.24525 12.3955 4.20621 12.8988 4.37395L13.4845 4.5692C14.2656 4.82955 15.1263 4.58467 15.6534 3.9522L16.5838 2.83577C16.8554 2.50985 17.2236 2.27875 17.6351 2.17585L19.5251 1.70336C20.1704 1.54203 20.8537 1.71208 21.3481 2.15705L24.4313 4.9319C24.7985 5.26242 25.2751 5.44531 25.7692 5.44531H30.1128C31.2174 5.44531 32.1128 6.34074 32.1128 7.44531V25.6675C32.1128 26.7721 31.2174 27.6675 30.1128 27.6675H3.89062C2.78606 27.6675 1.89062 26.7721 1.89062 25.6675V7.44531Z" fill="#B9C8F7"/>
<path d="M9.5 5L8.5 8.5L7.5 9.5L6.5 11.5L7 14L8.5 15L10.5 16L12.5 16.5L15 15L16 16.5H19L20.5 15.5L21.5 16H25.5L27 14.5L28 12.5L27 10L24.5 8.5L25 7.5L24 4.5L23 2.5L20 2L17.5 2.5L15 5.5L12 4L9.5 5Z" fill="#FCFCFD"/>
<path d="M31 5H25.1943C24.5079 2.72871 22.3362 1.01947 19.8685 1C19.8535 1 19.8389 1 19.8239 1C17.5859 1 15.5804 2.33464 14.6989 4.30208C13.8682 3.71615 12.8402 3.43294 11.7959 3.53711C10.7013 3.64154 9.70885 4.18509 9.00156 5H3C1.89714 5 1 5.89714 1 7V26.3333C1 27.4362 1.89714 28.3333 3 28.3333H11V31.6667H8.33333V33H25.6667V31.6667H23V28.3333H31C32.1029 28.3333 33 27.4362 33 26.3333V7C33 5.89714 32.1029 5 31 5ZM9.5599 9.0957L9.39225 8.49805C9.22819 7.91276 9.24837 7.35547 9.45443 6.79297C9.8444 5.72721 10.8135 4.97005 11.9229 4.86393C12.0195 4.85482 12.1162 4.85026 12.2122 4.85026C13.0944 4.85026 13.9307 5.23503 14.4928 5.91146L15.3617 6.95573L15.6563 5.62956C16.082 3.71484 17.8314 2.33333 19.8239 2.33333C19.8353 2.33333 19.8467 2.33333 19.8581 2.33333C22.0573 2.35091 23.9528 4.11914 24.0833 6.27604C24.1234 6.94401 24.0065 7.59245 23.7354 8.20313L23.3594 9.05013L24.2822 9.13672C25.8317 9.2832 27 10.5482 27 12.0794C27 12.9505 26.3864 14.2663 25.249 14.9896C24.0658 15.7428 22.5592 15.7285 20.8939 14.9486L20.4108 14.7227L20.0843 15.1445C20.0072 15.2441 19.2881 16.1165 17.7949 16.1165C16.3265 16.1165 15.7148 15.2129 15.694 15.181L15.2601 14.4837L14.667 15.0514C13.6471 16.028 13.2061 16.1204 12.2936 16.1204C11.8825 16.1204 11.001 15.8678 10.7279 15.2598L10.5511 14.8665H10.0436C8.22298 14.8665 7 13.7467 7 12.0794C7 10.8457 7.79427 9.73112 8.97624 9.30599L9.5599 9.0957ZM21.6667 31.6667H12.3333V28.3333H21.6667V31.6667ZM31.6667 26.3333C31.6667 26.7012 31.3675 27 31 27H3C2.63249 27 2.33333 26.7012 2.33333 26.3333V24.3333H31.6667V26.3333ZM31.6667 23H2.33333V7C2.33333 6.63216 2.63249 6.33333 3 6.33333H8.20306L8.20247 6.33464C7.96875 6.97266 7.89714 7.6263 7.98861 8.28581C6.57943 9.02018 5.66667 10.4798 5.66667 12.0794C5.66667 14.3672 7.3571 16.054 9.72982 16.1908C10.3708 17.1094 11.5664 17.4538 12.2936 17.4538C13.4723 17.4538 14.1829 17.222 15.0824 16.4714C15.583 16.9154 16.4622 17.4499 17.7949 17.4499C19.3001 17.4499 20.2744 16.8034 20.7721 16.3503C23.1917 17.332 24.9212 16.7793 25.9648 16.1146C27.5921 15.0794 28.3333 13.2969 28.3333 12.0794C28.3333 10.1387 27.0475 8.49349 25.2321 7.96615C25.3772 7.43724 25.4311 6.89036 25.4113 6.33333H31C31.3675 6.33333 31.6667 6.63216 31.6667 7V23Z" fill="#5072EB" stroke="#5072EB" stroke-width="0.3"/>
</svg>
