<svg width="40" height="41" viewBox="0 0 40 41" fill="none" xmlns="http://www.w3.org/2000/svg">
<path d="M22.5 31.5H18L17.5 29.5L16.5 28.5L14 30.5L10.5 26.5L12 23.5L8.5 23L9 17.5H12L12.5 16.5L10.5 14.5L14 11L16 12.5H17.5V9.5H22.5V12.5H24L26 11L30 14.5L28 16V17.5L31.5 18V23H28V24.5L30 26.5L26 30L23.5 28.5L22.5 31.5Z" fill="#B8C7F7"/>
<path d="M36.7117 7.98031C36.7049 7.19137 35.4766 7.18892 35.4822 7.99014L35.4926 9.30689C31.9522 4.37847 26.3018 1.45312 20.2195 1.45312C14.3553 1.45312 8.92855 4.12225 5.33162 8.77601C5.12394 9.04391 5.1731 9.43039 5.44222 9.63746C5.71135 9.84514 6.09783 9.79475 6.30428 9.52686C9.66711 5.17663 14.7387 2.682 20.2195 2.682C25.9289 2.682 31.2309 5.44084 34.5372 10.0835H33.2253C32.4345 10.0835 32.4327 11.3124 33.2253 11.3124H36.1181C36.4517 11.3124 36.735 11.0273 36.7325 10.6931L36.7117 7.98031Z" fill="#5072EB" stroke="#5072EB" stroke-width="0.3"/>
<path d="M39.0432 20.3329C39.0432 17.9993 38.6236 15.7209 37.7953 13.5624C37.6743 13.2448 37.3173 13.0881 37.0021 13.2085C36.6844 13.3295 36.5259 13.6847 36.6482 14.0017C37.4217 16.0202 37.8144 18.1504 37.8144 20.3335C37.8144 27.8328 33.1852 34.3888 26.2217 36.916L26.8902 35.8764C27.3179 35.2116 26.2844 34.5443 25.8568 35.2116L24.3913 37.4918C24.1922 37.8002 24.3207 38.234 24.6568 38.3845L27.1268 39.4918C27.8475 39.815 28.3526 38.6948 27.63 38.371L26.8184 38.0073C34.1689 35.257 39.0432 28.2905 39.0432 20.3329Z" fill="#5072EB" stroke="#5072EB" stroke-width="0.3"/>
<path d="M20.95 37.9668C20.7079 37.9766 20.4658 37.9815 20.2213 37.9815C10.5181 37.9815 2.62435 30.0632 2.62435 20.3299C2.62435 18.6058 3.33587 16.4565 4.01421 14.6378L4.55369 15.8519C4.8732 16.5689 6.00131 16.0841 5.6775 15.353L4.53157 12.7754C4.42343 12.4516 3.97182 12.3354 3.6904 12.478L1.27873 13.7069C0.573968 14.0651 1.13065 15.1613 1.83664 14.8012L2.8308 14.2949C2.12666 16.1892 1.39486 18.4338 1.39486 20.3305C1.39486 30.7416 9.84033 39.2104 20.2213 39.2104C20.4824 39.2104 20.7417 39.2049 21.0004 39.1944C21.3396 39.1809 21.6032 38.8946 21.589 38.5554C21.5755 38.2162 21.2806 37.9416 20.95 37.9668C21.2806 37.9416 20.7079 37.9766 20.95 37.9668Z" fill="#5072EB"/>
<path d="M20.95 37.9668C20.7079 37.9766 20.4658 37.9815 20.2213 37.9815C10.5181 37.9815 2.62435 30.0632 2.62435 20.3299C2.62435 18.6058 3.33587 16.4565 4.01421 14.6378L4.55369 15.8519C4.8732 16.5689 6.00131 16.0841 5.6775 15.353L4.53157 12.7754C4.42343 12.4516 3.97182 12.3354 3.6904 12.478L1.27873 13.7069C0.573968 14.0651 1.13065 15.1613 1.83664 14.8012L2.8308 14.2949C2.12666 16.1892 1.39486 18.4338 1.39486 20.3305C1.39486 30.7416 9.84033 39.2104 20.2213 39.2104C20.4824 39.2104 20.7417 39.2049 21.0004 39.1944C21.3396 39.1809 21.6032 38.8946 21.589 38.5554C21.5755 38.2162 21.2806 37.9416 20.95 37.9668ZM20.95 37.9668C20.7079 37.9766 21.2806 37.9416 20.95 37.9668Z" stroke="#5072EB" stroke-width="0.3"/>
<path d="M22.2479 32.4459H18.0764C17.325 32.4459 16.737 31.8548 16.737 31.1009V29.2152C16.748 29.2195 16.4672 29.1175 16.4322 29.0825L15.0878 30.4373C14.5944 30.9743 13.709 30.9436 13.2076 30.4373L10.2657 27.4733C9.73604 26.9786 9.76676 26.0951 10.2663 25.5925L11.5726 24.2432C11.5277 24.1369 11.4878 24.0287 11.4528 23.9194H9.57444C8.83711 23.9194 8.23988 23.2754 8.2749 22.5442L8.27429 18.3722C8.27429 17.6183 8.86292 17.0272 9.61438 17.0272H11.4804C11.5173 16.932 11.5665 16.8084 11.615 16.712L10.2663 15.3528C9.73604 14.8601 9.76799 13.9734 10.2669 13.4727L13.2082 10.5086C13.6961 9.97711 14.5889 10.0054 15.0878 10.508L16.4353 11.8659C16.5403 11.8229 16.6294 11.7793 16.7376 11.7436V9.84501C16.7376 9.09109 17.3256 8.5 18.0771 8.5H22.2288C22.9803 8.5 23.5683 9.09109 23.5683 9.84501V11.7307C23.5572 11.7264 23.838 11.8284 23.8731 11.8634L25.2175 10.5086C25.7041 9.97896 26.5999 10.006 27.0976 10.5086L30.0205 13.4745C30.5508 13.9667 30.517 14.8533 30.0187 15.3535L28.6681 16.7144C28.7124 16.8232 28.7572 16.9147 28.7923 17.0272H30.6706C31.3575 17.0272 31.9357 17.5544 32.0445 18.2819C32.0488 18.312 32.0512 18.3421 32.0512 18.3722V22.5743C32.0512 23.3283 31.4626 23.9194 30.7112 23.9194H28.8451C28.8187 23.9863 28.7124 24.2309 28.7105 24.2346L30.0592 25.5937C30.5889 26.0871 30.5582 26.9719 30.0592 27.4739L27.1179 30.4379C26.6294 30.9694 25.7367 30.9418 25.2377 30.4379L23.897 29.0874C23.7956 29.1298 23.6924 29.1679 23.5886 29.2029V31.1015C23.588 31.8548 22.9993 32.4459 22.2479 32.4459ZM16.3038 27.7252C16.6417 27.7252 17.0092 28.0103 17.3287 28.1215C17.6537 28.2352 17.9665 28.3568 17.9665 28.7661V31.1003C17.9665 31.1777 18.0039 31.2164 18.0771 31.2164H22.2485C22.3222 31.2164 22.3597 31.1777 22.3597 31.1003V28.7661C22.3597 28.524 22.5016 28.3052 22.7222 28.2057C23.0405 28.0631 23.3963 28.0066 23.6949 27.8192C23.9382 27.6656 24.2552 27.7018 24.4586 27.9071L26.1108 29.5722C26.1496 29.6109 26.2092 29.6091 26.246 29.5722L29.1873 26.6081C29.2267 26.5682 29.2273 26.4982 29.1873 26.4582L27.5351 24.7931C27.3348 24.5916 27.2992 24.2782 27.4491 24.0367C27.6039 23.7866 27.7281 23.4395 27.7981 23.1575C27.8657 22.8834 28.1121 22.6905 28.3947 22.6905H30.7118C30.7855 22.6905 30.823 22.6518 30.823 22.5743V18.4293C30.8009 18.3402 30.7449 18.2561 30.6718 18.2561H28.3548C28.1108 18.2561 27.8903 18.1123 27.792 17.8886C27.6525 17.5704 27.5953 17.2072 27.4098 16.9092C27.2598 16.6671 27.2949 16.3544 27.4958 16.1528L29.148 14.4877C29.1892 14.4465 29.1867 14.3771 29.1468 14.3372L26.2251 11.3725C26.1877 11.3338 26.1274 11.3375 26.0912 11.3737L24.439 13.0389C24.2356 13.2435 23.9173 13.2791 23.6752 13.1261C23.4288 12.9719 23.0829 12.8465 22.8045 12.7759C22.5317 12.7071 22.3406 12.4613 22.3406 12.1799V9.84562C22.3406 9.7682 22.3032 9.72949 22.23 9.72949H18.0764C18.0033 9.72949 17.9658 9.7682 17.9658 9.84562V12.1799C17.9658 12.422 17.8233 12.6413 17.6027 12.7402C17.2875 12.8822 16.9268 12.9399 16.6313 13.1261C16.388 13.2791 16.0703 13.2435 15.8675 13.0389L14.2153 11.3737C14.1766 11.335 14.1176 11.3369 14.0801 11.3737L11.1382 14.3384C11.0983 14.3783 11.0983 14.4478 11.1382 14.4877L12.7904 16.1528C12.9907 16.3544 13.0264 16.6677 12.8764 16.9092C12.7216 17.1593 12.5981 17.5065 12.5274 17.7885C12.4598 18.0625 12.2135 18.2555 11.9308 18.2555H9.61377C9.54003 18.2555 9.50255 18.2942 9.50255 18.3716V22.5737C9.50132 22.6131 9.5001 22.6413 9.52406 22.6671L11.8909 22.6899C12.1348 22.6899 12.3554 22.8336 12.4537 23.0573C12.5932 23.378 12.6497 23.7356 12.8359 24.0367C12.9846 24.2763 12.9514 24.5854 12.7554 24.7882L11.1431 26.4533C11.1013 26.4957 11.0946 26.5657 11.1376 26.6088L14.0795 29.5728C14.1182 29.6115 14.1778 29.6097 14.2147 29.5728L15.8669 27.9077C15.9861 27.7873 16.144 27.7252 16.3038 27.7252Z" fill="#5072EB" stroke="#5072EB" stroke-width="0.3"/>
<path d="M15.1547 20.4204C15.1547 23.1279 17.4299 25.4484 20.1508 25.4484C22.8723 25.4484 25.1475 23.1279 25.1475 20.4204C25.1475 17.8918 23.2271 15.393 20.1508 15.393C17.4299 15.393 15.1547 17.7129 15.1547 20.4204ZM16.6842 20.4204C16.6842 18.5443 18.2688 16.9218 20.1508 16.9218C22.0274 16.9218 23.618 18.5474 23.618 20.4204C23.618 22.2965 22.0334 23.9195 20.1508 23.9195C18.2682 23.9195 16.6842 22.296 16.6842 20.4204Z" fill="#5072EB" stroke="#5072EB" stroke-width="0.3"/>
</svg>
