<svg width="32" height="33" viewBox="0 0 32 33" fill="none" xmlns="http://www.w3.org/2000/svg">
<rect x="2.48438" y="7.42188" width="21.3333" height="21.3333" rx="4" fill="#B8C7F7"/>
<path d="M30.5816 22.0017C30.5816 25.9291 27.3978 29.1128 23.4705 29.1128C22.197 29.1128 21.0016 28.7781 19.9676 28.1917C18.1473 27.1594 16.8272 25.3472 16.4615 23.2094C16.3944 22.8169 16.3594 22.4134 16.3594 22.0017C16.3594 20.1758 17.0476 18.5106 18.1788 17.2514C19.4806 15.8021 21.3691 14.8906 23.4705 14.8906C27.3978 14.8906 30.5816 18.0744 30.5816 22.0017Z" fill="#FCFCFD" stroke="#5072EB" stroke-width="1.5" stroke-linecap="round" stroke-linejoin="round"/>
<path d="M23.4661 8.48828V14.1772V14.8883C21.3647 14.8883 19.4762 15.7998 18.1744 17.249C17.0432 18.5083 16.355 20.1735 16.355 21.9994C16.355 22.4111 16.39 22.8145 16.4572 23.2071C16.8229 25.3449 18.143 27.157 19.9633 28.1893C18.07 28.7618 15.5569 29.1105 12.7995 29.1105C6.90842 29.1105 2.13281 27.5186 2.13281 25.5549V19.8661V14.1772V8.48828" stroke="#5072EB" stroke-width="1.5" stroke-linecap="round" stroke-linejoin="round"/>
<path d="M23.4661 8.48915C23.4661 10.4528 18.6905 12.0447 12.7995 12.0447C6.90842 12.0447 2.13281 10.4528 2.13281 8.48915C2.13281 6.52547 6.90842 4.93359 12.7995 4.93359C18.6905 4.93359 23.4661 6.52547 23.4661 8.48915Z" fill="#B8C7F7" stroke="#5072EB" stroke-width="1.5" stroke-linecap="round" stroke-linejoin="round"/>
<path d="M2.13281 19.8672C2.13281 21.8308 6.90842 23.4227 12.7995 23.4227C14.0845 23.4227 15.3163 23.347 16.4572 23.2082" stroke="#5072EB" stroke-width="1.5" stroke-linecap="round" stroke-linejoin="round"/>
<path d="M2.13281 14.1797C2.13281 16.1433 6.90842 17.7352 12.7995 17.7352C14.7595 17.7352 16.5961 17.559 18.1744 17.2515" stroke="#5072EB" stroke-width="1.5" stroke-linecap="round" stroke-linejoin="round"/>
<path d="M26.3132 22.0007H23.4688V19.1562" stroke="#5072EB" stroke-width="1.5" stroke-linecap="round" stroke-linejoin="round"/>
</svg>
