<svg width="40" height="41" viewBox="0 0 40 41" fill="none" xmlns="http://www.w3.org/2000/svg">
<rect x="23" y="6.33594" width="11" height="10" fill="#FCFCFD"/>
<path d="M16.6667 21.1026H6.66667C6.46333 21.1026 6.26833 21.0218 6.12455 20.8781C5.98077 20.7343 5.9 20.5393 5.9 20.3359V7.0026C5.9 6.79927 5.98077 6.60427 6.12455 6.46049C6.26833 6.31671 6.46333 6.23594 6.66667 6.23594H16.6667C16.87 6.23594 17.065 6.31671 17.2088 6.46049C17.3526 6.60427 17.4333 6.79927 17.4333 7.0026V20.3359C17.4333 20.5393 17.3526 20.7343 17.2088 20.8781C17.065 21.0218 16.87 21.1026 16.6667 21.1026ZM6.12455 34.2114C5.98077 34.0676 5.9 33.8726 5.9 33.6693V27.0026C5.9 26.7993 5.98077 26.6043 6.12455 26.4605C6.26833 26.3167 6.46333 26.2359 6.66667 26.2359H16.6667C16.87 26.2359 17.065 26.3167 17.2088 26.4605C17.3526 26.6043 17.4333 26.7993 17.4333 27.0026V33.6693C17.4333 33.8726 17.3526 34.0676 17.2088 34.2114C17.065 34.3552 16.87 34.4359 16.6667 34.4359H6.66667C6.46333 34.4359 6.26833 34.3552 6.12455 34.2114ZM22.7912 34.2114C22.6474 34.0676 22.5667 33.8726 22.5667 33.6693V22.0026C22.5667 21.7993 22.6474 21.6043 22.7912 21.4605C22.935 21.3167 23.13 21.2359 23.3333 21.2359H33.3333C33.5367 21.2359 33.7317 21.3167 33.8754 21.4605C34.0192 21.6043 34.1 21.7993 34.1 22.0026V33.6693C34.1 33.8726 34.0192 34.0676 33.8754 34.2114C33.7317 34.3552 33.5367 34.4359 33.3333 34.4359H23.3333C23.13 34.4359 22.935 34.3552 22.7912 34.2114ZM33.3333 16.1026H23.3333C23.13 16.1026 22.935 16.0218 22.7912 15.8781C22.6474 15.7343 22.5667 15.5393 22.5667 15.3359V7.0026C22.5667 6.79927 22.6474 6.60427 22.7912 6.46049C22.935 6.31671 23.13 6.23594 23.3333 6.23594H33.3333C33.5367 6.23594 33.7317 6.31671 33.8754 6.46049C34.0192 6.60427 34.1 6.79927 34.1 7.0026V15.3359C34.1 15.5393 34.0192 15.7343 33.8754 15.8781C33.7317 16.0218 33.5367 16.1026 33.3333 16.1026Z" fill="#B9C8F7" stroke="#5072EB" stroke-width="1.8"/>
</svg>
