<svg width="44" height="44" viewBox="0 0 44 44" fill="none" xmlns="http://www.w3.org/2000/svg">
<rect x="3.42188" y="9.28906" width="29.3333" height="29.3333" rx="6" fill="#A4B6F4"/>
<path d="M32.263 10.7578V18.58V19.5578C29.3736 19.5578 26.7769 20.8111 24.9869 22.8038C23.4315 24.5353 22.4852 26.825 22.4852 29.3356C22.4852 29.9016 22.5334 30.4564 22.6257 30.9962C23.1285 33.9356 24.9437 36.4273 27.4466 37.8468C24.8433 38.6339 21.3878 39.1134 17.5964 39.1134C9.49615 39.1134 2.92969 36.9245 2.92969 34.2245V26.4023V18.58V10.7578" stroke="#5072EB" stroke-width="1.5" stroke-linecap="round" stroke-linejoin="round"/>
<path d="M32.263 10.7561C32.263 13.4561 25.6966 15.645 17.5964 15.645C9.49615 15.645 2.92969 13.4561 2.92969 10.7561C2.92969 8.05602 9.49615 5.86719 17.5964 5.86719C25.6966 5.86719 32.263 8.05602 32.263 10.7561Z" fill="#A4B6F4" stroke="#5072EB" stroke-width="1.5" stroke-linecap="round" stroke-linejoin="round"/>
<path d="M2.92969 26.4023C2.92969 29.1024 9.49615 31.2912 17.5964 31.2912C19.3632 31.2912 21.057 31.1871 22.6257 30.9962" stroke="#5072EB" stroke-width="1.5" stroke-linecap="round" stroke-linejoin="round"/>
<path d="M2.92969 18.5781C2.92969 21.2782 9.49615 23.467 17.5964 23.467C20.2914 23.467 22.8167 23.2247 24.9869 22.8019" stroke="#5072EB" stroke-width="1.5" stroke-linecap="round" stroke-linejoin="round"/>
<path d="M42.625 29.5625C42.625 36.397 37.0845 41.9375 30.25 41.9375C28.0338 41.9375 25.9535 41.3549 24.1542 40.3344C20.9864 38.538 18.6892 35.3844 18.0527 31.6641C17.9359 30.981 17.875 30.2789 17.875 29.5625C17.875 26.385 19.0727 23.4871 21.0411 21.2958C23.3066 18.7737 26.5931 17.1875 30.25 17.1875C37.0845 17.1875 42.625 22.728 42.625 29.5625Z" fill="#F5F7FF" stroke="#5072EB" stroke-width="1.5" stroke-linecap="round" stroke-linejoin="round"/>
<g clip-path="url(#clip0_9802_26788)">
<path d="M30.4995 30.1292C30.3167 30.1292 30.1413 30.1956 30.0121 30.3137C29.8828 30.4319 29.8101 30.5921 29.8101 30.7592V32.6492C29.8101 32.8163 29.8828 32.9766 30.0121 33.0947C30.1413 33.2128 30.3167 33.2792 30.4995 33.2792C30.6824 33.2792 30.8577 33.2128 30.987 33.0947C31.1163 32.9766 31.1889 32.8163 31.1889 32.6492V30.7592C31.1889 30.5921 31.1163 30.4319 30.987 30.3137C30.8577 30.1956 30.6824 30.1292 30.4995 30.1292ZM33.9465 27.6092V26.3492C33.9465 25.5138 33.5833 24.7126 32.9369 24.1218C32.2905 23.5311 31.4137 23.1992 30.4995 23.1992C29.5853 23.1992 28.7086 23.5311 28.0622 24.1218C27.4157 24.7126 27.0526 25.5138 27.0526 26.3492V27.6092C26.504 27.6092 25.978 27.8083 25.5901 28.1628C25.2023 28.5172 24.9844 28.998 24.9844 29.4992V33.9092C24.9844 34.4105 25.2023 34.8912 25.5901 35.2457C25.978 35.6001 26.504 35.7992 27.0526 35.7992H33.9465C34.495 35.7992 35.0211 35.6001 35.4089 35.2457C35.7968 34.8912 36.0147 34.4105 36.0147 33.9092V29.4992C36.0147 28.998 35.7968 28.5172 35.4089 28.1628C35.0211 27.8083 34.495 27.6092 33.9465 27.6092ZM28.4313 26.3492C28.4313 25.848 28.6492 25.3672 29.0371 25.0128C29.425 24.6583 29.951 24.4592 30.4995 24.4592C31.048 24.4592 31.5741 24.6583 31.962 25.0128C32.3498 25.3672 32.5677 25.848 32.5677 26.3492V27.6092H28.4313V26.3492ZM34.6359 33.9092C34.6359 34.0763 34.5633 34.2366 34.434 34.3547C34.3047 34.4728 34.1293 34.5392 33.9465 34.5392H27.0526C26.8697 34.5392 26.6944 34.4728 26.5651 34.3547C26.4358 34.2366 26.3632 34.0763 26.3632 33.9092V29.4992C26.3632 29.3321 26.4358 29.1719 26.5651 29.0537C26.6944 28.9356 26.8697 28.8692 27.0526 28.8692H33.9465C34.1293 28.8692 34.3047 28.9356 34.434 29.0537C34.5633 29.1719 34.6359 29.3321 34.6359 29.4992V33.9092Z" fill="#5072EB" stroke="#5072EB" stroke-width="0.2"/>
</g>
<defs>
<clipPath id="clip0_9802_26788">
<rect width="12" height="14" fill="white" transform="translate(24.5 22.5)"/>
</clipPath>
</defs>
</svg>
