<svg width="54" height="44" viewBox="0 0 54 44" fill="none" xmlns="http://www.w3.org/2000/svg">
<path d="M6.0881 22.4213C6.00835 16.7355 8.24772 11.0749 12.8411 6.939C18.8807 1.50094 27.2402 0.278947 34.3119 3.07509C35.1294 3.3984 35.53 4.32325 35.2068 5.14073C34.8836 5.9582 33.9587 6.35898 33.1412 6.03565C27.1501 3.66671 20.0786 4.70626 14.9713 9.30486C10.583 13.2561 8.72864 18.8618 9.404 24.3135L12.6779 21.3657C13.3312 20.7774 14.3377 20.8302 14.926 21.4835C15.5142 22.1368 15.4615 23.1433 14.8082 23.7315L9.48498 28.5246C9.39179 28.6121 9.28732 28.689 9.173 28.7528C8.99352 28.8534 8.79937 28.9162 8.60173 28.9418C8.39283 28.9693 8.18561 28.9543 7.99016 28.9026C7.74818 28.8391 7.51887 28.718 7.32433 28.5405C7.2781 28.4985 7.23421 28.4536 7.19295 28.4061L1.53233 22.1194C0.944091 21.4661 0.99684 20.4596 1.65015 19.8713C2.30347 19.2831 3.30995 19.3358 3.89819 19.9891L6.0881 22.4213Z" fill="#5072EB" stroke="#F5F7FF" stroke-width="1.5"/>
<path d="M20.3417 38.5009C19.5241 38.1775 18.5994 38.5783 18.2761 39.3958C17.9528 40.2133 18.3535 41.1382 19.171 41.4614C26.2427 44.2576 34.6021 43.0356 40.6419 37.5973C45.235 33.4617 47.4745 27.8013 47.3948 22.1155L49.5845 24.5474C50.1727 25.2007 51.1793 25.2535 51.8326 24.6652C52.4859 24.077 52.5386 23.0705 51.9504 22.4172L46.2952 16.1365C46.2374 16.0694 46.1745 16.0075 46.107 15.9512C46.097 15.943 46.0869 15.9347 46.0768 15.9266C45.9251 15.806 45.7557 15.7166 45.578 15.659C45.355 15.5865 45.1141 15.5626 44.8713 15.5961C44.7433 15.6134 44.617 15.6464 44.4952 15.6951C44.4222 15.7244 44.3508 15.7592 44.2815 15.7999C44.1796 15.8597 44.0859 15.9298 44.0014 16.0087L38.6746 20.805C38.0213 21.3932 37.9685 22.3998 38.5567 23.0531C39.145 23.7064 40.1515 23.7591 40.8048 23.1709L44.0788 20.2229C44.7542 25.6746 42.8999 31.2803 38.5117 35.2315C33.4042 39.8302 26.3328 40.8699 20.3417 38.5009Z" fill="#5072EB" stroke="#F5F7FF" stroke-width="1.5"/>
<g clip-path="url(#clip0_9802_26798)">
<path fill-rule="evenodd" clip-rule="evenodd" d="M34.5262 23.4206C34.5262 23.1013 34.6327 22.7819 34.6327 22.3561C34.6327 21.9303 34.6327 21.6109 34.5262 21.2916L36.7617 19.4819C36.9746 19.269 36.9746 19.0561 36.8682 18.8432L34.7391 15.1174C34.6327 15.0109 34.4198 14.9045 34.1004 15.0109L31.4391 16.0755C30.9069 15.6496 30.2682 15.3303 29.6295 15.0109L29.2037 12.2432C29.3101 11.9238 28.9908 11.7109 28.7779 11.7109H24.5198C24.3069 11.7109 23.9875 11.9238 23.9875 12.1367L23.5617 15.0109C22.923 15.2238 22.3908 15.6496 21.752 16.0755L19.1972 15.0109C18.8779 14.9045 18.6649 15.0109 18.452 15.2238L16.323 18.9496C16.2166 19.0561 16.323 19.3755 16.5359 19.5884L18.7714 21.2916C18.7714 21.6109 18.6649 21.9303 18.6649 22.3561C18.6649 22.7819 18.6649 23.1013 18.7714 23.4206L16.5359 25.2303C16.323 25.4432 16.323 25.6561 16.4295 25.869L18.5585 29.5948C18.6649 29.7013 18.8779 29.8077 19.1972 29.7013L21.8585 28.6367C22.3908 29.0626 23.0295 29.3819 23.6682 29.7013L24.094 32.469C24.094 32.6819 24.3069 32.8948 24.6262 32.8948H28.8843C29.0972 32.8948 29.4166 32.6819 29.4166 32.469L29.8424 29.7013C30.4811 29.3819 31.1198 29.0626 31.652 28.6367L34.3133 29.7013C34.5262 29.8077 34.8456 29.7013 34.952 29.4884L37.0811 25.7626C37.1875 25.5496 37.1875 25.2303 36.9746 25.1238L34.5262 23.4206ZM26.6488 26.0819C24.6262 26.0819 22.923 24.3787 22.923 22.3561C22.923 20.3335 24.6262 18.6303 26.6488 18.6303C28.6714 18.6303 30.3746 20.3335 30.3746 22.3561C30.3746 24.3787 28.6714 26.0819 26.6488 26.0819Z" fill="#A4B6F4" stroke="#5072EB" stroke-width="1.8"/>
</g>
<defs>
<clipPath id="clip0_9802_26798">
<rect width="23.4194" height="23.4194" fill="white" transform="translate(14.9375 10.6445)"/>
</clipPath>
</defs>
</svg>
