<svg width="114" height="52" viewBox="0 0 114 52" fill="none" xmlns="http://www.w3.org/2000/svg">
<path d="M0 0.343655H15.314L12.654 4.94284H5.244V21.057H0V0.343655ZM6.498 10.7003C6.498 10.1815 6.66961 9.67434 6.99112 9.24295C7.31263 8.81156 7.76961 8.47533 8.30427 8.27679C8.83893 8.07824 9.42725 8.02629 9.99483 8.12751C10.5624 8.22873 11.0838 8.47857 11.493 8.84544C11.9022 9.2123 12.1809 9.67972 12.2938 10.1886C12.4067 10.6974 12.3487 11.2249 12.1273 11.7042C11.9058 12.1835 11.5308 12.5932 11.0496 12.8815C10.5684 13.1697 10.0027 13.3236 9.424 13.3236C8.64798 13.3236 7.90374 13.0472 7.35501 12.5553C6.80627 12.0633 6.498 11.3961 6.498 10.7003ZM22.04 0.343655H27.284V16.4238H37.544L34.96 21.057H22.078L22.04 0.343655ZM49.514 17.5821L47.5 21.057H42.066L54.036 0.002974L65.968 21.057H60.534L58.52 17.5821H49.514ZM54.036 9.50796L51.756 13.5621H56.278L54.036 9.50796ZM70.3 17.7184L74.252 14.6863C74.7883 15.3875 75.5012 15.9657 76.333 16.3741C77.1648 16.7825 78.0921 17.0096 79.04 17.037C80.75 17.037 81.814 16.3216 81.814 15.3336C81.814 14.3116 80.94 13.5621 78.622 12.8466L76.988 12.3697C73.264 11.2114 71.174 9.20135 71.174 6.3737C71.174 2.38774 74.48 0.002974 79.154 0.002974C80.5466 -0.0298314 81.9306 0.209098 83.2101 0.70322C84.4895 1.19734 85.6339 1.93485 86.564 2.86469L83.182 6.06709C82.7006 5.53452 82.0924 5.10517 81.4021 4.81045C80.7117 4.51572 79.9566 4.36308 79.192 4.36369C77.786 4.36369 76.38 4.84064 76.38 5.93082C76.38 7.021 77.52 7.53202 79.952 8.31558L81.586 8.86067C84.93 9.91678 87.134 11.9268 87.096 14.9929C87.058 18.7404 83.676 21.3977 78.812 21.3977C75.202 21.3977 72.048 20.035 70.3 17.6843V17.7184ZM94.354 0.343655H99.56V8.45185H108.794V0.343655H114V21.057H108.794V12.9488H99.56V21.057H94.354V0.343655ZM11.172 31.039H18.772C20.8532 31.039 22.8491 31.7802 24.3207 33.0995C25.7923 34.4188 26.619 36.2082 26.619 38.074C26.619 39.9398 25.7923 41.7292 24.3207 43.0486C22.8491 44.3679 20.8532 45.1091 18.772 45.1091H16.34V51.7524H11.172V31.039ZM18.696 40.7484C19.4821 40.7484 20.236 40.4684 20.7919 39.9701C21.3477 39.4717 21.66 38.7958 21.66 38.0911C21.66 37.3863 21.3477 36.7104 20.7919 36.2121C20.236 35.7137 19.4821 35.4338 18.696 35.4338H16.378V40.7484H18.696ZM36.328 48.2774L34.352 51.7524H28.918L40.85 30.6642L52.782 51.7183H47.348L45.372 48.2434L36.328 48.2774ZM40.888 40.2033L38.608 44.2574H43.092L40.888 40.2033ZM56.392 41.3957C56.3831 39.258 57.098 37.1683 58.4421 35.4027C59.7862 33.6371 61.6964 32.2787 63.92 31.5071C66.1436 30.7356 68.576 30.5871 70.8958 31.0814C73.2155 31.5757 75.3134 32.6894 76.912 34.2754L73.872 38.1933C73.276 37.315 72.4395 36.5879 71.4419 36.0811C70.4442 35.5743 69.3186 35.3045 68.172 35.2975C64.448 35.2975 61.636 38.057 61.636 41.3957C61.636 44.7343 64.448 47.4939 68.21 47.4939C69.3566 47.4868 70.4822 47.217 71.4799 46.7102C72.4775 46.2034 73.314 45.4763 73.91 44.5981L76.95 48.4818C75.3565 50.0782 73.2591 51.2024 70.9362 51.7051C68.6133 52.2078 66.1749 52.0653 63.9445 51.2965C61.7141 50.5277 59.7972 49.169 58.4483 47.4006C57.0994 45.6323 56.3822 43.538 56.392 41.3957ZM91.428 41.7023L99.75 31.0049H105.716L97.66 41.3957L106.78 51.6842H100.32L91.428 41.7023ZM84.93 31.039H90.136V51.7864H84.93V31.039Z" fill="white"/>
</svg>
