<svg width="120" height="48" viewBox="0 0 120 48" fill="none" xmlns="http://www.w3.org/2000/svg">
<path d="M5.81789 33.8502C8.93968 36.6371 13.0548 38.559 16.6969 38.559C20.8593 38.559 22.8932 36.8773 22.8932 34.1865C22.8932 31.3516 20.3863 30.4387 16.5077 28.805L10.7844 26.3065C6.14899 24.4326 1.79739 20.5405 1.79739 14.0058C1.79739 6.51016 8.41938 0.600098 17.5956 0.600098C22.704 0.600098 28.0962 2.66621 31.8801 6.55821L26.8191 12.9968C23.8865 10.6905 21.0958 9.39313 17.5483 9.39313C14.1427 9.39313 11.8723 10.9307 11.8723 13.4773C11.8723 16.2642 14.8049 17.2251 18.6835 18.8108L24.3595 21.1652C29.7517 23.3755 33.1572 27.0272 33.1572 33.4178C33.1572 40.9135 27.0083 47.4001 16.4604 47.4001C10.6898 47.4001 4.54079 45.1898 0 40.9134L5.81789 33.8502Z" fill="white"/>
<path d="M40.6328 1.41699H50.7077V18.7628H66.0329V1.41699H76.0605V46.5353H66.0329V27.6999H50.7077V46.5353H40.6328V1.41699Z" fill="white"/>
<path d="M86.4219 1.41675H102.646C112.295 1.41675 120.005 5.02044 120.005 15.9276C120.005 26.4985 112.058 31.2073 102.646 31.2073H96.4968V46.487H86.4219V1.41675ZM102.031 23.135C107.565 23.135 110.214 20.6365 110.214 15.9276C110.214 11.2188 107.376 9.48902 102.031 9.48902H96.4968V23.135H102.031Z" fill="white"/>
</svg>
