<svg width="536" height="373" viewBox="0 0 536 373" fill="none" xmlns="http://www.w3.org/2000/svg">
<g clip-path="url(#clip0_9988_30730)">
<path d="M1 40H472V293C472 306.255 461.255 317 448 317H25C11.7452 317 1 306.255 1 293V40Z" fill="#5072EB" fill-opacity="0.05"/>
<path d="M1.5 40.5H471.5V293C471.5 305.979 460.979 316.5 448 316.5H25C12.0213 316.5 1.5 305.979 1.5 293V40.5Z" stroke="#5072EB" stroke-opacity="0.07"/>
<rect x="21" y="60" width="431" height="237" rx="16" fill="#5072EB" fill-opacity="0.1"/>
<rect x="149" y="143" width="60" height="81" rx="12" fill="#A4B6F4"/>
<rect x="221" y="101" width="59" height="123" rx="12" fill="#A4B6F4"/>
<rect x="293" y="125" width="59" height="99" rx="12" fill="#A4B6F4"/>
<rect x="364" y="159" width="60" height="65" rx="12" fill="#A4B6F4"/>
<path d="M400.679 135.804C400.587 135.708 400.477 135.631 400.355 135.579C400.234 135.527 400.104 135.5 399.972 135.5C399.841 135.5 399.71 135.527 399.589 135.579C399.468 135.631 399.357 135.708 399.265 135.804L391.843 143.467L388.725 140.242C388.629 140.146 388.516 140.07 388.391 140.02C388.267 139.969 388.134 139.945 388 139.947C387.867 139.949 387.735 139.979 387.612 140.034C387.49 140.089 387.379 140.168 387.286 140.267C387.193 140.366 387.12 140.483 387.071 140.612C387.022 140.74 386.998 140.877 387 141.015C387.002 141.153 387.031 141.289 387.084 141.415C387.138 141.541 387.215 141.656 387.311 141.752L391.136 145.696C391.229 145.792 391.339 145.869 391.46 145.921C391.582 145.973 391.712 146 391.843 146C391.975 146 392.105 145.973 392.226 145.921C392.348 145.869 392.458 145.792 392.551 145.696L400.679 137.314C400.78 137.218 400.861 137.101 400.916 136.971C400.972 136.841 401 136.701 401 136.559C401 136.417 400.972 136.277 400.916 136.147C400.861 136.017 400.78 135.9 400.679 135.804Z" fill="#6ED5D6"/>
<path d="M329.679 111.804C329.587 111.708 329.477 111.631 329.355 111.579C329.234 111.527 329.104 111.5 328.972 111.5C328.841 111.5 328.71 111.527 328.589 111.579C328.468 111.631 328.357 111.708 328.265 111.804L320.843 119.467L317.725 116.242C317.629 116.146 317.516 116.07 317.391 116.02C317.267 115.969 317.134 115.945 317 115.947C316.867 115.949 316.735 115.979 316.612 116.034C316.49 116.089 316.379 116.168 316.286 116.267C316.193 116.366 316.12 116.483 316.071 116.612C316.022 116.74 315.998 116.877 316 117.015C316.002 117.153 316.031 117.289 316.084 117.415C316.138 117.541 316.215 117.656 316.311 117.752L320.136 121.696C320.229 121.792 320.339 121.869 320.46 121.921C320.582 121.973 320.712 122 320.843 122C320.975 122 321.105 121.973 321.226 121.921C321.348 121.869 321.458 121.792 321.551 121.696L329.679 113.314C329.78 113.218 329.861 113.101 329.916 112.971C329.972 112.841 330 112.701 330 112.559C330 112.417 329.972 112.277 329.916 112.147C329.861 112.017 329.78 111.9 329.679 111.804Z" fill="#6ED5D6"/>
<path d="M257.679 77.8039C257.587 77.7076 257.477 77.6312 257.355 77.579C257.234 77.5268 257.104 77.5 256.972 77.5C256.841 77.5 256.71 77.5268 256.589 77.579C256.468 77.6312 256.357 77.7076 256.265 77.8039L248.843 85.467L245.725 82.2415C245.629 82.1457 245.516 82.0704 245.391 82.0199C245.267 81.9693 245.134 81.9446 245 81.9469C244.867 81.9493 244.735 81.9788 244.612 82.0338C244.49 82.0887 244.379 82.168 244.286 82.2672C244.193 82.3663 244.12 82.4834 244.071 82.6116C244.022 82.7399 243.998 82.8769 244 83.0147C244.002 83.1525 244.031 83.2885 244.084 83.415C244.138 83.5414 244.215 83.6558 244.311 83.7516L248.136 87.6961C248.229 87.7924 248.339 87.8688 248.46 87.921C248.582 87.9732 248.712 88 248.843 88C248.975 88 249.105 87.9732 249.226 87.921C249.348 87.8688 249.458 87.7924 249.551 87.6961L257.679 79.3139C257.78 79.2177 257.861 79.101 257.916 78.971C257.972 78.8411 258 78.7007 258 78.5589C258 78.417 257.972 78.2767 257.916 78.1467C257.861 78.0168 257.78 77.9 257.679 77.8039Z" fill="#6ED5D6"/>
<path d="M185.679 119.804C185.587 119.708 185.477 119.631 185.355 119.579C185.234 119.527 185.104 119.5 184.972 119.5C184.841 119.5 184.71 119.527 184.589 119.579C184.468 119.631 184.357 119.708 184.265 119.804L176.843 127.467L173.725 124.242C173.629 124.146 173.516 124.07 173.391 124.02C173.267 123.969 173.134 123.945 173 123.947C172.867 123.949 172.735 123.979 172.612 124.034C172.49 124.089 172.379 124.168 172.286 124.267C172.193 124.366 172.12 124.483 172.071 124.612C172.022 124.74 171.998 124.877 172 125.015C172.002 125.153 172.031 125.289 172.084 125.415C172.138 125.541 172.215 125.656 172.311 125.752L176.136 129.696C176.229 129.792 176.339 129.869 176.46 129.921C176.582 129.973 176.712 130 176.843 130C176.975 130 177.105 129.973 177.226 129.921C177.348 129.869 177.458 129.792 177.551 129.696L185.679 121.314C185.78 121.218 185.861 121.101 185.916 120.971C185.972 120.841 186 120.701 186 120.559C186 120.417 185.972 120.277 185.916 120.147C185.861 120.017 185.78 119.9 185.679 119.804Z" fill="#6ED5D6"/>
<rect x="41" y="80" width="88" height="197" rx="8" fill="#F4F6FD"/>
<rect x="55" y="131" width="60" height="19" rx="9.5" fill="#E4E9FB"/>
<rect x="55" y="94" width="60" height="19" rx="9.5" fill="#E4E9FB"/>
<rect x="55" y="168" width="60" height="19" rx="9.5" fill="#E4E9FB"/>
<rect x="55" y="205" width="60" height="19" rx="9.5" fill="#E4E9FB"/>
<rect x="55" y="242" width="60" height="19" rx="9.5" fill="#E4E9FB"/>
<rect x="149" y="242" width="275" height="35" rx="8" fill="#F4F6FD"/>
<rect x="163" y="250" width="60" height="19" rx="9.5" fill="#5072EB"/>
<rect x="245" y="250" width="60" height="19" rx="9.5" fill="#E4E9FB"/>
<rect x="327" y="250" width="60" height="19" rx="9.5" fill="#E4E9FB"/>
<path d="M0 40H471V24C471 10.7452 460.255 0 447 0H24C10.7452 0 0 10.7452 0 24V40Z" fill="#5072EB" fill-opacity="0.7"/>
<circle cx="38" cy="20" r="6" fill="white"/>
<circle cx="62" cy="20" r="6" fill="white"/>
<circle cx="86" cy="20" r="6" fill="white"/>
<g filter="url(#filter0_d_9988_30730)">
<path d="M294 284C294 272.954 302.954 264 314 264H516C527.046 264 536 272.954 536 284V353C536 364.046 527.046 373 516 373H314C302.954 373 294 364.046 294 353V284Z" fill="#F4F6FD"/>
<circle cx="341.5" cy="311.5" r="23.5" fill="#A4B6F4" fill-opacity="0.5"/>
<rect x="375" y="288" width="128" height="11" rx="5.5" fill="#A4B6F4" fill-opacity="0.15"/>
<rect x="375" y="313" width="102" height="11" rx="5.5" fill="#A4B6F4" fill-opacity="0.15"/>
<rect x="375" y="338" width="66" height="11" rx="5.5" fill="#A4B6F4" fill-opacity="0.15"/>
</g>
</g>
<defs>
<filter id="filter0_d_9988_30730" x="282" y="254" width="270" height="137" filterUnits="userSpaceOnUse" color-interpolation-filters="sRGB">
<feFlood flood-opacity="0" result="BackgroundImageFix"/>
<feColorMatrix in="SourceAlpha" type="matrix" values="0 0 0 0 0 0 0 0 0 0 0 0 0 0 0 0 0 0 127 0" result="hardAlpha"/>
<feOffset dx="2" dy="4"/>
<feGaussianBlur stdDeviation="7"/>
<feComposite in2="hardAlpha" operator="out"/>
<feColorMatrix type="matrix" values="0 0 0 0 0 0 0 0 0 0 0 0 0 0 0 0 0 0 0.05 0"/>
<feBlend mode="normal" in2="BackgroundImageFix" result="effect1_dropShadow_9988_30730"/>
<feBlend mode="normal" in="SourceGraphic" in2="effect1_dropShadow_9988_30730" result="shape"/>
</filter>
<clipPath id="clip0_9988_30730">
<rect width="536" height="373" fill="white"/>
</clipPath>
</defs>
</svg>
