<svg width="233" height="232" viewBox="0 0 233 232" fill="none" xmlns="http://www.w3.org/2000/svg">
	<path d="M231.167 116.481C231.167 179.45 179.905 230.5 116.667 230.5C53.4281 230.5 2.16663 179.45 2.16663 116.481C2.16663 53.5122 53.4281 2.46228 116.667 2.46228C179.905 2.46228 231.167 53.5122 231.167 116.481Z" stroke="#5072EB" />
	<path d="M77.5298 15.4352C81.5327 15.4352 84.7777 12.2037 84.7777 8.21758C84.7777 4.23142 81.5327 1 77.5298 1C73.5269 1 70.2819 4.23142 70.2819 8.21758C70.2819 12.2037 73.5269 15.4352 77.5298 15.4352Z" fill="#5072EB" />
	<path d="M160.64 228.113C164.643 228.113 167.888 224.882 167.888 220.896C167.888 216.909 164.643 213.678 160.64 213.678C156.637 213.678 153.392 216.909 153.392 220.896C153.392 224.882 156.637 228.113 160.64 228.113Z" fill="#5072EB" />
	<path d="M185.529 109.646C185.652 111.014 185.735 112.394 185.777 113.785L185.277 113.8C185.298 114.486 185.308 115.174 185.308 115.864C185.308 116.555 185.298 117.243 185.277 117.929L185.777 117.944C185.735 119.334 185.652 120.714 185.529 122.083L185.031 122.038C184.906 123.412 184.741 124.775 184.536 126.124L185.031 126.199C184.822 127.574 184.572 128.935 184.283 130.281L183.794 130.176C183.504 131.524 183.174 132.857 182.805 134.175L183.287 134.309C182.912 135.646 182.499 136.966 182.046 138.268L181.574 138.104C181.123 139.404 180.633 140.687 180.105 141.95L180.567 142.143C180.033 143.422 179.461 144.682 178.853 145.921L178.404 145.7C177.798 146.935 177.155 148.149 176.478 149.341L176.912 149.588C176.228 150.792 175.507 151.973 174.753 153.13L174.334 152.857C173.584 154.008 172.799 155.135 171.982 156.237L172.384 156.535C171.559 157.646 170.702 158.732 169.813 159.791L169.43 159.47C168.547 160.521 167.632 161.546 166.688 162.543L167.051 162.887C166.1 163.891 165.118 164.866 164.108 165.811L163.767 165.446C162.765 166.384 161.734 167.292 160.676 168.169L160.995 168.554C159.932 169.436 158.841 170.286 157.724 171.104L157.428 170.701C156.322 171.511 155.19 172.289 154.034 173.033L154.305 173.454C153.144 174.201 151.959 174.915 150.751 175.593L150.506 175.157C149.311 175.829 148.094 176.465 146.855 177.065L147.073 177.515C145.832 178.117 144.57 178.683 143.288 179.211L143.097 178.749C141.832 179.27 140.547 179.755 139.245 180.201L139.407 180.674C138.103 181.121 136.782 181.53 135.444 181.9L135.311 181.418C133.992 181.783 132.658 182.109 131.309 182.395L131.413 182.885C130.066 183.171 128.704 183.417 127.329 183.624L127.255 183.129C125.905 183.332 124.542 183.495 123.168 183.617L123.212 184.115C121.843 184.237 120.463 184.32 119.072 184.361L119.058 183.861C118.372 183.881 117.684 183.891 116.993 183.891C116.303 183.891 115.614 183.881 114.929 183.861L114.914 184.361C113.523 184.32 112.143 184.237 110.774 184.115L110.819 183.617C109.444 183.495 108.081 183.332 106.731 183.129L106.657 183.624C105.282 183.417 103.921 183.171 102.574 182.885L102.678 182.395C101.328 182.109 99.9941 181.783 98.6758 181.418L98.5425 181.9C97.2047 181.53 95.8832 181.121 94.5794 180.674L94.7416 180.201C93.4392 179.755 92.1546 179.27 90.8891 178.749L90.6986 179.211C89.4167 178.683 88.1544 178.117 86.9129 177.515L87.131 177.065C85.8927 176.465 84.6754 175.829 83.4804 175.157L83.2355 175.593C82.0277 174.915 80.8424 174.201 79.6813 173.454L79.9519 173.033C78.7961 172.289 77.6644 171.511 76.558 170.701L76.2625 171.104C75.1458 170.286 74.0548 169.436 72.9909 168.554L73.31 168.169C72.2523 167.292 71.2217 166.384 70.2195 165.446L69.8779 165.811C68.8679 164.866 67.8865 163.891 66.9353 162.887L67.2982 162.543C66.3539 161.546 65.4395 160.521 64.5564 159.47L64.1734 159.791C63.2846 158.732 62.4272 157.646 61.6028 156.535L62.0044 156.237C61.1873 155.135 60.4027 154.008 59.6522 152.857L59.2334 153.13C58.479 151.973 57.7587 150.792 57.074 149.588L57.5086 149.341C56.8309 148.149 56.1882 146.935 55.582 145.7L55.1332 145.921C54.5251 144.682 53.9534 143.422 53.4195 142.143L53.8809 141.95C53.3538 140.687 52.8638 139.404 52.4122 138.104L51.9399 138.268C51.4877 136.966 51.0739 135.646 50.6997 134.309L51.1812 134.175C50.8124 132.857 50.4825 131.524 50.1926 130.176L49.7038 130.281C49.4143 128.935 49.1645 127.574 48.9557 126.199L49.45 126.124C49.245 124.775 49.0799 123.412 48.9557 122.038L48.4578 122.083C48.3341 120.714 48.2509 119.334 48.2093 117.943L48.7091 117.929C48.6886 117.243 48.6782 116.555 48.6782 115.864C48.6782 115.174 48.6886 114.486 48.7091 113.8L48.2093 113.785C48.2509 112.394 48.3341 111.014 48.4578 109.646L48.9557 109.691C49.0799 108.316 49.245 106.954 49.45 105.605L48.9557 105.529C49.1645 104.155 49.4143 102.794 49.7038 101.447L50.1926 101.552C50.4825 100.204 50.8124 98.8712 51.1812 97.554L50.6997 97.4192C51.0739 96.0828 51.4878 94.7628 51.9399 93.4607L52.4122 93.6247C52.8638 92.3243 53.3538 91.0419 53.8809 89.7786L53.4195 89.5861C53.9534 88.3067 54.5251 87.0469 55.1332 85.8081L55.582 86.0284C56.1882 84.7936 56.8309 83.5796 57.5086 82.3881L57.074 82.1409C57.7587 80.937 58.479 79.7558 59.2334 78.5987L59.6522 78.8718C60.4027 77.7206 61.1873 76.5934 62.0044 75.4916L61.6028 75.1938C62.4272 74.0822 63.2846 72.9964 64.1734 71.9376L64.5564 72.2591C65.4395 71.2072 66.3539 70.1823 67.2982 69.1858L66.9352 68.8419C67.8865 67.8381 68.8679 66.8628 69.8779 65.9176L70.2195 66.2827C71.2217 65.3449 72.2523 64.4368 73.31 63.56L72.9908 63.1751C74.0547 62.293 75.1458 61.4423 76.2625 60.6244L76.558 61.0278C77.6643 60.2175 78.7961 59.4395 79.9519 58.6954L79.6813 58.275C80.8424 57.5274 82.0277 56.8138 83.2355 56.1353L83.4804 56.5713C84.6754 55.9001 85.8927 55.2637 87.131 54.6634L86.9129 54.2135C88.1544 53.6117 89.4167 53.046 90.6986 52.5178L90.8891 52.9801C92.1546 52.4586 93.4392 51.9739 94.7416 51.5273L94.5795 51.0543C95.8832 50.6073 97.2047 50.1982 98.5425 49.8283L98.6758 50.3102C99.9941 49.9458 101.328 49.6197 102.678 49.3332L102.574 48.8441C103.921 48.5581 105.282 48.3114 106.657 48.1051L106.731 48.5996C108.081 48.3971 109.444 48.234 110.819 48.1114L110.774 47.6133C112.143 47.4912 113.523 47.4091 114.914 47.368L114.929 47.8677C115.614 47.8475 116.303 47.8373 116.993 47.8373C117.684 47.8373 118.372 47.8475 119.058 47.8677L119.072 47.368C120.463 47.4091 121.843 47.4912 123.212 47.6133L123.168 48.1114C124.542 48.234 125.905 48.3971 127.255 48.5996L127.329 48.1051C128.704 48.3114 130.066 48.5581 131.413 48.8441L131.309 49.3332C132.658 49.6197 133.992 49.9458 135.311 50.3102L135.444 49.8283C136.782 50.1982 138.103 50.6073 139.407 51.0543L139.245 51.5273C140.547 51.9739 141.832 52.4586 143.097 52.9801L143.288 52.5178C144.57 53.046 145.832 53.6117 147.073 54.2135L146.855 54.6634C148.094 55.2637 149.311 55.9001 150.506 56.5713L150.751 56.1353C151.959 56.8138 153.144 57.5274 154.305 58.275L154.034 58.6954C155.19 59.4395 156.322 60.2175 157.428 61.0278L157.724 60.6244C158.841 61.4423 159.932 62.293 160.995 63.1751L160.676 63.56C161.734 64.4368 162.765 65.3449 163.767 66.2827L164.108 65.9176C165.118 66.8628 166.1 67.8381 167.051 68.8419L166.688 69.1858C167.632 70.1823 168.547 71.2072 169.43 72.2591L169.813 71.9376C170.702 72.9964 171.559 74.0822 172.384 75.1938L171.982 75.4916C172.799 76.5934 173.584 77.7206 174.334 78.8718L174.753 78.5987C175.507 79.7558 176.228 80.937 176.912 82.1409L176.478 82.3881C177.155 83.5796 177.798 84.7936 178.404 86.0285L178.853 85.8081C179.461 87.0469 180.033 88.3067 180.567 89.5861L180.105 89.7786C180.633 91.0419 181.123 92.3244 181.574 93.6247L182.046 93.4607C182.499 94.7629 182.912 96.0828 183.287 97.4193L182.805 97.5541C183.174 98.8712 183.504 100.204 183.794 101.552L184.283 101.447C184.572 102.794 184.822 104.155 185.031 105.529L184.536 105.605C184.741 106.954 184.906 108.316 185.031 109.691L185.529 109.646Z" fill="currentColor" stroke="#5072EB" stroke-dasharray="4 4" />
	<path d="M163.927 115.986C163.927 143.338 142.767 165.472 116.714 165.472C90.66 165.472 69.5 143.338 69.5 115.986C69.5 88.6334 90.66 66.5 116.714 66.5C142.767 66.5 163.927 88.6334 163.927 115.986Z" fill="white" stroke="#B8C7F7" />
</svg>
