<svg width="231" height="230" viewBox="0 0 231 230" fill="none" xmlns="http://www.w3.org/2000/svg">
	<path d="M230.167 115.481C230.167 178.45 178.905 229.5 115.667 229.5C52.4281 229.5 1.16663 178.45 1.16663 115.481C1.16663 52.5122 52.4281 1.46222 115.667 1.46222C178.905 1.46222 230.167 52.5122 230.167 115.481Z" stroke="#5072EB" />
	<path d="M76.5298 14.4352C80.5327 14.4352 83.7777 11.2037 83.7777 7.21758C83.7777 3.23142 80.5327 0 76.5298 0C72.5269 0 69.2819 3.23142 69.2819 7.21758C69.2819 11.2037 72.5269 14.4352 76.5298 14.4352Z" fill="#5072EB" />
	<path d="M159.64 227.113C163.643 227.113 166.888 223.882 166.888 219.896C166.888 215.909 163.643 212.678 159.64 212.678C155.637 212.678 152.392 215.909 152.392 219.896C152.392 223.882 155.637 227.113 159.64 227.113Z" fill="#5072EB" />
	<path d="M184.529 108.646C184.652 110.014 184.735 111.395 184.777 112.785L184.277 112.8C184.298 113.486 184.308 114.174 184.308 114.864C184.308 115.555 184.298 116.243 184.277 116.929L184.777 116.944C184.735 118.334 184.652 119.715 184.529 121.083L184.031 121.038C183.906 122.412 183.741 123.775 183.536 125.124L184.031 125.199C183.822 126.574 183.572 127.935 183.283 129.281L182.794 129.176C182.504 130.524 182.174 131.858 181.805 133.175L182.287 133.309C181.912 134.646 181.499 135.966 181.046 137.268L180.574 137.104C180.123 138.404 179.633 139.687 179.105 140.95L179.567 141.143C179.033 142.422 178.461 143.682 177.853 144.921L177.404 144.7C176.798 145.935 176.155 147.149 175.478 148.341L175.912 148.588C175.228 149.792 174.507 150.973 173.753 152.13L173.334 151.857C172.584 153.008 171.799 154.135 170.982 155.237L171.384 155.535C170.559 156.646 169.702 157.732 168.813 158.791L168.43 158.47C167.547 159.521 166.632 160.546 165.688 161.543L166.051 161.887C165.1 162.891 164.118 163.866 163.108 164.811L162.767 164.446C161.765 165.384 160.734 166.292 159.676 167.169L159.995 167.554C158.932 168.436 157.841 169.286 156.724 170.104L156.428 169.701C155.322 170.511 154.19 171.289 153.034 172.033L153.305 172.454C152.144 173.201 150.959 173.915 149.751 174.593L149.506 174.157C148.311 174.829 147.094 175.465 145.855 176.065L146.073 176.515C144.832 177.117 143.57 177.683 142.288 178.211L142.097 177.749C140.832 178.27 139.547 178.755 138.245 179.201L138.407 179.674C137.103 180.121 135.782 180.531 134.444 180.9L134.311 180.418C132.992 180.783 131.658 181.109 130.309 181.396L130.413 181.885C129.066 182.171 127.704 182.417 126.329 182.624L126.255 182.129C124.905 182.332 123.542 182.495 122.168 182.617L122.212 183.115C120.843 183.237 119.463 183.32 118.072 183.361L118.058 182.861C117.372 182.881 116.684 182.891 115.993 182.891C115.303 182.891 114.614 182.881 113.929 182.861L113.914 183.361C112.523 183.32 111.143 183.237 109.774 183.115L109.819 182.617C108.444 182.495 107.081 182.332 105.731 182.129L105.657 182.624C104.282 182.417 102.921 182.171 101.574 181.885L101.678 181.395C100.328 181.109 98.9941 180.783 97.6758 180.418L97.5425 180.9C96.2047 180.531 94.8832 180.121 93.5794 179.674L93.7416 179.201C92.4392 178.755 91.1546 178.27 89.8891 177.749L89.6986 178.211C88.4167 177.683 87.1544 177.117 85.9129 176.515L86.131 176.065C84.8927 175.465 83.6754 174.829 82.4804 174.157L82.2355 174.593C81.0277 173.915 79.8424 173.201 78.6813 172.454L78.9519 172.033C77.7961 171.289 76.6644 170.511 75.558 169.701L75.2625 170.104C74.1458 169.286 73.0548 168.436 71.9909 167.554L72.31 167.169C71.2523 166.292 70.2217 165.384 69.2195 164.446L68.8779 164.811C67.8679 163.866 66.8865 162.891 65.9353 161.887L66.2982 161.543C65.3539 160.546 64.4395 159.521 63.5564 158.47L63.1734 158.791C62.2846 157.732 61.4272 156.646 60.6028 155.535L61.0044 155.237C60.1873 154.135 59.4027 153.008 58.6522 151.857L58.2334 152.13C57.479 150.973 56.7587 149.792 56.074 148.588L56.5086 148.341C55.8309 147.149 55.1882 145.935 54.582 144.7L54.1332 144.921C53.5251 143.682 52.9534 142.422 52.4195 141.143L52.8809 140.95C52.3538 139.687 51.8638 138.404 51.4122 137.104L50.9399 137.268C50.4877 135.966 50.0739 134.646 49.6997 133.309L50.1812 133.175C49.8124 131.858 49.4825 130.524 49.1926 129.176L48.7038 129.281C48.4143 127.935 48.1645 126.574 47.9557 125.199L48.45 125.124C48.245 123.775 48.0799 122.412 47.9557 121.038L47.4578 121.083C47.3341 119.714 47.2509 118.334 47.2093 116.944L47.7091 116.929C47.6886 116.243 47.6782 115.555 47.6782 114.864C47.6782 114.174 47.6886 113.486 47.7091 112.8L47.2093 112.785C47.2509 111.395 47.3341 110.014 47.4578 108.646L47.9557 108.691C48.0799 107.316 48.245 105.954 48.45 104.605L47.9557 104.529C48.1645 103.155 48.4143 101.794 48.7038 100.447L49.1926 100.553C49.4825 99.2044 49.8124 97.8712 50.1812 96.5541L49.6997 96.4193C50.0739 95.0829 50.4878 93.7629 50.9399 92.4607L51.4122 92.6248C51.8638 91.3244 52.3538 90.0419 52.8809 88.7787L52.4195 88.5861C52.9534 87.3068 53.5251 86.047 54.1332 84.8082L54.582 85.0285C55.1882 83.7936 55.8309 82.5797 56.5086 81.3881L56.074 81.1409C56.7587 79.9371 57.479 78.7559 58.2334 77.5988L58.6522 77.8718C59.4027 76.7206 60.1873 75.5935 61.0044 74.4917L60.6028 74.1938C61.4272 73.0823 62.2846 71.9964 63.1734 70.9377L63.5564 71.2592C64.4395 70.2073 65.3539 69.1824 66.2982 68.1859L65.9352 67.842C66.8865 66.8381 67.8679 65.8629 68.8779 64.9177L69.2195 65.2828C70.2217 64.3449 71.2523 63.4369 72.31 62.5601L71.9908 62.1751C73.0547 61.2931 74.1458 60.4424 75.2625 59.6245L75.558 60.0279C76.6643 59.2175 77.7961 58.4396 78.9519 57.6955L78.6813 57.2751C79.8424 56.5275 81.0277 55.8138 82.2355 55.1354L82.4804 55.5713C83.6754 54.9001 84.8927 54.2637 86.131 53.6635L85.9129 53.2136C87.1544 52.6118 88.4167 52.0461 89.6986 51.5178L89.8891 51.9801C91.1546 51.4586 92.4392 50.974 93.7416 50.5274L93.5795 50.0544C94.8832 49.6074 96.2047 49.1983 97.5425 48.8284L97.6758 49.3103C98.9941 48.9458 100.328 48.6197 101.678 48.3333L101.574 47.8442C102.921 47.5582 104.282 47.3114 105.657 47.1052L105.731 47.5997C107.081 47.3972 108.444 47.234 109.819 47.1114L109.774 46.6134C111.143 46.4913 112.523 46.4091 113.914 46.368L113.929 46.8678C114.614 46.8475 115.303 46.8373 115.993 46.8373C116.684 46.8373 117.372 46.8475 118.058 46.8678L118.072 46.368C119.463 46.4091 120.843 46.4913 122.212 46.6134L122.168 47.1114C123.542 47.234 124.905 47.3972 126.255 47.5997L126.329 47.1052C127.704 47.3114 129.066 47.5582 130.413 47.8442L130.309 48.3333C131.658 48.6197 132.992 48.9458 134.311 49.3103L134.444 48.8284C135.782 49.1983 137.103 49.6074 138.407 50.0544L138.245 50.5274C139.547 50.974 140.832 51.4587 142.097 51.9801L142.288 51.5178C143.57 52.0461 144.832 52.6118 146.073 53.2136L145.855 53.6635C147.094 54.2637 148.311 54.9001 149.506 55.5713L149.751 55.1354C150.959 55.8138 152.144 56.5275 153.305 57.2751L153.034 57.6955C154.19 58.4396 155.322 59.2175 156.428 60.0279L156.724 59.6245C157.841 60.4424 158.932 61.2931 159.995 62.1751L159.676 62.56C160.734 63.4369 161.765 64.3449 162.767 65.2828L163.108 64.9177C164.118 65.8629 165.1 66.8381 166.051 67.842L165.688 68.1859C166.632 69.1824 167.547 70.2073 168.43 71.2592L168.813 70.9377C169.702 71.9964 170.559 73.0823 171.384 74.1938L170.982 74.4917C171.799 75.5935 172.584 76.7206 173.334 77.8718L173.753 77.5988C174.507 78.7559 175.228 79.9371 175.912 81.141L175.478 81.3882C176.155 82.5797 176.798 83.7936 177.404 85.0285L177.853 84.8082C178.461 86.047 179.033 87.3068 179.567 88.5861L179.105 88.7787C179.633 90.0419 180.123 91.3244 180.574 92.6248L181.046 92.4608C181.499 93.7629 181.912 95.0829 182.287 96.4193L181.805 96.5541C182.174 97.8712 182.504 99.2045 182.794 100.553L183.283 100.447C183.572 101.794 183.822 103.155 184.031 104.53L183.536 104.605C183.741 105.954 183.906 107.316 184.031 108.691L184.529 108.646Z" fill="currentColor" stroke="#5072EB" stroke-dasharray="4 4" />
	<path d="M162.895 114.673C162.895 142.026 141.735 164.159 115.681 164.159C89.6277 164.159 68.4678 142.026 68.4678 114.673C68.4678 87.3209 89.6277 65.1875 115.681 65.1875C141.735 65.1875 162.895 87.3209 162.895 114.673Z" fill="white" stroke="#1E3E66" />
</svg>
