<svg width="52" height="41" viewBox="0 0 52 41" fill="none" xmlns="http://www.w3.org/2000/svg">
<path d="M51.2757 5.43859C51.2757 2.84915 49.0633 0.75 46.3342 0.75H5.62896C2.89986 0.75 0.6875 2.84915 0.6875 5.43859V35.9995C0.6875 38.5889 2.89986 40.688 5.62896 40.688H46.3342C49.0633 40.688 51.2757 38.5889 51.2757 35.9995V5.43859ZM5.65543 4.49685H46.373C46.918 4.49685 47.3567 4.90923 47.3567 5.42636V5.46703L26.712 25.0573C26.4602 25.2963 26.1673 25.332 26.0144 25.332C25.8616 25.332 25.5677 25.2963 25.3158 25.0573L4.66635 5.46436V5.42636C4.66635 4.90923 5.11048 4.49685 5.65543 4.49685ZM46.373 36.9412H5.65543C5.11048 36.9412 4.66635 36.513 4.66635 35.9959V10.7689L22.5211 27.7097C23.4544 28.5952 24.6955 29.0828 26.0154 29.0828C27.3354 29.0827 28.574 28.595 29.5073 27.7095L47.3567 10.7715V35.9959C47.3567 36.513 46.918 36.9412 46.373 36.9412Z" fill="#5072EB"/>
</svg>
