<svg width="52" height="45" viewBox="0 0 52 45" fill="none" xmlns="http://www.w3.org/2000/svg">
<path d="M35.5231 22.4109C35.5231 22.1844 35.4331 21.9672 35.273 21.807C35.1128 21.6469 34.8956 21.5569 34.6691 21.5569H26.9833V9.88596C26.9833 9.65948 26.8934 9.44223 26.7332 9.28208C26.5731 9.12193 26.3558 9.03198 26.1294 9.03198C25.9029 9.03198 25.6856 9.12193 25.5255 9.28208C25.3653 9.44223 25.2754 9.65948 25.2754 9.88596V22.4109C25.2754 22.6374 25.3653 22.8546 25.5255 23.0148C25.6856 23.1749 25.9029 23.2649 26.1294 23.2649H34.6691C34.8956 23.2649 35.1128 23.1749 35.273 23.0148C35.4331 22.8546 35.5231 22.6374 35.5231 22.4109Z" fill="#5072EB" stroke="#5072EB" stroke-width="1.5"/>
<path d="M6.07287 18.8879C6.20102 18.8874 6.32746 18.8583 6.44292 18.8025L13.6277 15.2955C13.8143 15.1872 13.9529 15.0123 14.0157 14.806C14.0786 14.5996 14.0611 14.3771 13.9666 14.1831C13.8722 13.9892 13.7078 13.8382 13.5066 13.7605C13.3054 13.6827 13.0822 13.684 12.8819 13.7641L7.42214 16.4342C8.69645 12.4574 11.2047 8.99018 14.583 6.53546C17.9613 4.08074 22.0338 2.76625 26.2097 2.78276C30.3856 2.79921 34.4477 4.14587 37.8064 6.62718C41.1652 9.10854 43.646 12.5955 44.8889 16.5822C45.1056 17.2813 45.2824 17.9922 45.4183 18.7114C45.4575 18.9049 45.5621 19.079 45.7145 19.2044C45.8669 19.3298 46.0578 19.399 46.2552 19.4003H46.4203C46.6417 19.3549 46.8366 19.2246 46.9632 19.0373C47.0898 18.8501 47.1381 18.6207 47.0978 18.3983C46.9519 17.6289 46.7618 16.8686 46.5285 16.121C45.1983 11.7521 42.4958 7.92801 38.8215 5.21562C35.1473 2.50328 30.6968 1.04697 26.1299 1.06262C21.6504 1.07879 17.2883 2.49599 13.6548 5.11576C10.0213 7.73547 7.29843 11.4264 5.86791 15.6713L3.33445 10.4791C3.2909 10.3701 3.22532 10.2713 3.14185 10.1888C3.05834 10.1062 2.95874 10.0418 2.84924 9.99947C2.73973 9.95717 2.62269 9.93792 2.5054 9.94288C2.38812 9.94783 2.27312 9.97692 2.16758 10.0283C2.06204 10.0797 1.96823 10.1523 1.89201 10.2416C1.81579 10.3309 1.75879 10.4349 1.72458 10.5472C1.69036 10.6595 1.67967 10.7776 1.69316 10.8942C1.70665 11.0109 1.74404 11.1234 1.80299 11.2249L5.30429 18.4097C5.37471 18.5534 5.48414 18.6745 5.61997 18.759C5.75587 18.8436 5.91283 18.8883 6.07287 18.8879Z" fill="#5072EB" stroke="#5072EB" stroke-width="1.5"/>
<path d="M50.5499 34.0826L47.0429 26.875C46.9436 26.6724 46.768 26.5173 46.5546 26.4437C46.3413 26.3701 46.1075 26.384 45.9043 26.4822L38.7195 29.9835C38.6185 30.0329 38.5283 30.1016 38.454 30.1858C38.3796 30.27 38.3226 30.3681 38.2861 30.4743C38.2496 30.5806 38.2344 30.693 38.2414 30.8051C38.2483 30.9172 38.2773 31.0269 38.3267 31.1278C38.376 31.2288 38.4447 31.319 38.5289 31.3934C38.6132 31.4677 38.7112 31.5248 38.8175 31.5613C38.9238 31.5978 39.0361 31.613 39.1482 31.6059C39.2604 31.599 39.37 31.57 39.471 31.5207L44.6347 28.9986C43.1918 33.0635 40.4509 36.5403 36.8353 38.8923C33.2197 41.2444 28.9303 42.3408 24.6295 42.0124C20.3287 41.684 16.2556 39.9491 13.0389 37.0753C9.82236 34.2016 7.64114 30.349 6.83209 26.1122C6.81114 26 6.76832 25.8931 6.7061 25.7975C6.64381 25.7019 6.56337 25.6195 6.46926 25.555C6.37515 25.4905 6.26926 25.4452 6.15762 25.4216C6.04603 25.398 5.93086 25.3966 5.8187 25.4176C5.70655 25.4385 5.59963 25.4814 5.50404 25.5436C5.40845 25.6059 5.32602 25.6864 5.26157 25.7804C5.19707 25.8745 5.15169 25.9804 5.12812 26.0921C5.10455 26.2036 5.10319 26.3188 5.12414 26.431C5.99656 31.0724 8.38302 35.2938 11.91 38.4345C15.4371 41.5752 19.9058 43.4581 24.617 43.7887C29.3281 44.1193 34.0159 42.8788 37.947 40.2614C41.8781 37.6439 44.8306 33.7972 46.3426 29.3231L49.0184 34.8056C49.0875 34.9509 49.1964 35.0734 49.3325 35.1591C49.4686 35.2448 49.6262 35.2901 49.787 35.2895C49.916 35.2898 50.043 35.2585 50.1571 35.1984C50.3539 35.0992 50.5047 34.9276 50.578 34.7195C50.6512 34.5116 50.6411 34.2833 50.5499 34.0826Z" fill="#5072EB" stroke="#5072EB" stroke-width="1.5"/>
<path d="M25.2754 34.9382V38.9234C25.2754 39.1499 25.3653 39.3671 25.5255 39.5273C25.6856 39.6874 25.9029 39.7774 26.1294 39.7774C26.3558 39.7774 26.5731 39.6874 26.7332 39.5273C26.8934 39.3671 26.9833 39.1499 26.9833 38.9234V34.9382C26.9833 34.7117 26.8934 34.4945 26.7332 34.3343C26.5731 34.1742 26.3558 34.0842 26.1294 34.0842C25.9029 34.0842 25.6856 34.1742 25.5255 34.3343C25.3653 34.4945 25.2754 34.7117 25.2754 34.9382Z" fill="#5072EB" stroke="#5072EB" stroke-width="1.5"/>
<path d="M16.6843 30.3588L13.8661 33.2054C13.7238 33.3697 13.649 33.5818 13.6568 33.799C13.6645 34.0162 13.7543 34.2224 13.908 34.3761C14.0617 34.5299 14.268 34.6196 14.4852 34.6274C14.7024 34.6351 14.9145 34.5604 15.0788 34.418L17.8969 31.5715C18.0392 31.4072 18.114 31.195 18.1062 30.9778C18.0984 30.7606 18.0087 30.5544 17.855 30.4007C17.7013 30.247 17.4951 30.1572 17.2779 30.1495C17.0606 30.1417 16.8486 30.2165 16.6843 30.3588Z" fill="#5072EB" stroke="#5072EB" stroke-width="1.5"/>
</svg>
