<svg width="18" height="20" viewBox="0 0 18 20" fill="none" xmlns="http://www.w3.org/2000/svg">
	<path fill-rule="evenodd" clip-rule="evenodd" d="M2.83142 3.38253C2.29065 3.38253 1.85226 3.82092 1.85226 4.36169V16.8237C1.85226 17.3645 2.29065 17.8029 2.83142 17.8029H15.2935C15.8342 17.8029 16.2726 17.3645 16.2726 16.8237V4.36169C16.2726 3.82092 15.8342 3.38253 15.2935 3.38253H2.83142ZM0.25 4.36169C0.25 2.93601 1.40574 1.78027 2.83142 1.78027H15.2935C16.7191 1.78027 17.8749 2.93601 17.8749 4.36169V16.8237C17.8749 18.2494 16.7191 19.4052 15.2935 19.4052H2.83142C1.40574 19.4052 0.25 18.2494 0.25 16.8237V4.36169Z" fill="currentColor" />
	<path fill-rule="evenodd" clip-rule="evenodd" d="M12.6214 0C13.0639 0 13.4226 0.358678 13.4226 0.801131V4.36171C13.4226 4.80416 13.0639 5.16284 12.6214 5.16284C12.179 5.16284 11.8203 4.80416 11.8203 4.36171V0.801131C11.8203 0.358678 12.179 0 12.6214 0Z" fill="currentColor" />
	<path fill-rule="evenodd" clip-rule="evenodd" d="M5.50426 0C5.94671 0 6.30539 0.358678 6.30539 0.801131V4.36171C6.30539 4.80416 5.94671 5.16284 5.50426 5.16284C5.0618 5.16284 4.70312 4.80416 4.70312 4.36171V0.801131C4.70312 0.358678 5.0618 0 5.50426 0Z" fill="currentColor" />
	<path fill-rule="evenodd" clip-rule="evenodd" d="M0.25 7.92271C0.25 7.48026 0.608678 7.12158 1.05113 7.12158H17.0737C17.5162 7.12158 17.8749 7.48026 17.8749 7.92271C17.8749 8.36517 17.5162 8.72384 17.0737 8.72384H1.05113C0.608678 8.72384 0.25 8.36517 0.25 7.92271Z" fill="currentColor" />
</svg>
