<svg width="21" height="20" viewBox="0 0 21 20" fill="none" xmlns="http://www.w3.org/2000/svg">
	<g clip-path="url(#clip0_6262_1188)">
		<path d="M10.2436 19.8574C10.0541 19.8574 9.87246 19.7821 9.73851 19.6481C9.60455 19.5142 9.5293 19.3325 9.5293 19.1431C9.5293 18.9536 9.60455 18.7719 9.73851 18.638C9.87246 18.504 10.0541 18.4288 10.2436 18.4288C12.479 18.4288 14.6228 17.5408 16.2035 15.9601C17.7841 14.3794 18.6722 12.2356 18.6722 10.0002C18.6722 7.76481 17.7841 5.62097 16.2035 4.04031C14.6228 2.45965 12.479 1.57164 10.2436 1.57164C10.0541 1.57164 9.87246 1.49638 9.73851 1.36243C9.60455 1.22847 9.5293 1.04679 9.5293 0.857352C9.5293 0.667912 9.60455 0.48623 9.73851 0.352276C9.87246 0.218321 10.0541 0.143066 10.2436 0.143066C12.8579 0.143066 15.3651 1.18158 17.2136 3.03016C19.0622 4.87873 20.1007 7.38593 20.1007 10.0002C20.1007 12.6145 19.0622 15.1217 17.2136 16.9703C15.3651 18.8188 12.8579 19.8574 10.2436 19.8574Z" fill="currentColor" />
		<path d="M11.715 10.7142H1.61272C1.42328 10.7142 1.2416 10.639 1.10765 10.505C0.973692 10.3711 0.898438 10.1894 0.898438 9.99993C0.898438 9.81049 0.973692 9.62881 1.10765 9.49485C1.2416 9.3609 1.42328 9.28564 1.61272 9.28564H11.715C11.9044 9.28564 12.0861 9.3609 12.2201 9.49485C12.354 9.62881 12.4293 9.81049 12.4293 9.99993C12.4293 10.1894 12.354 10.3711 12.2201 10.505C12.0861 10.639 11.9044 10.7142 11.715 10.7142Z" fill="currentColor" />
		<path d="M8.06319 15.1076C7.92143 15.1081 7.78273 15.0663 7.66475 14.9878C7.54677 14.9092 7.45484 14.7972 7.40067 14.6662C7.34651 14.5352 7.33255 14.391 7.36057 14.2521C7.3886 14.1131 7.45734 13.9856 7.55805 13.8859L11.2061 10.2373C11.2375 10.2058 11.2625 10.1685 11.2796 10.1273C11.2966 10.0862 11.3054 10.0421 11.3054 9.99758C11.3054 9.95305 11.2966 9.90896 11.2796 9.86783C11.2625 9.8267 11.2375 9.78933 11.2061 9.75786L7.55805 6.11443C7.48981 6.04856 7.43537 5.96976 7.39791 5.88262C7.36045 5.79549 7.34072 5.70177 7.33987 5.60692C7.33902 5.51208 7.35707 5.41802 7.39296 5.33023C7.42885 5.24243 7.48186 5.16267 7.54891 5.09558C7.61596 5.0285 7.69569 4.97544 7.78347 4.9395C7.87124 4.90356 7.96529 4.88546 8.06013 4.88626C8.15498 4.88705 8.24871 4.90673 8.33587 4.94414C8.42302 4.98155 8.50186 5.03594 8.56777 5.10415L12.2152 8.75043C12.5456 9.0824 12.7312 9.53174 12.7312 10.0001C12.7312 10.4686 12.5456 10.9179 12.2152 11.2499L8.56662 14.8984C8.50056 14.9647 8.4221 15.0172 8.33572 15.0531C8.24934 15.089 8.15673 15.1075 8.06319 15.1076Z" fill="currentColor" />
	</g>
	<defs>
		<clipPath id="clip0_6262_1188">
			<rect width="20" height="20" fill="white" transform="translate(0.5)" />
		</clipPath>
	</defs>
</svg>
