<svg width="120" height="120" viewBox="0 0 120 120" fill="none" xmlns="http://www.w3.org/2000/svg">
<path d="M67.502 63.7479C67.502 67.8896 64.1437 71.2471 60.001 71.2471C55.8583 71.2471 52.5 67.8896 52.5 63.7479C52.5 59.6062 55.8583 56.2487 60.001 56.2487C64.1437 56.2487 67.502 59.6062 67.502 63.7479Z" fill="#C6D1F8"/>
<path d="M80.625 84.375H110.625C112.702 84.375 114.375 86.0475 114.375 88.125V95.625C114.375 97.7025 112.702 99.375 110.625 99.375H80.625C78.5475 99.375 76.875 97.7025 76.875 95.625V88.125C76.875 86.0475 78.5475 84.375 80.625 84.375Z" fill="#C6D1F8"/>
<path d="M80.625 99.375H110.625C112.702 99.375 114.375 101.048 114.375 103.125V110.625C114.375 112.702 112.702 114.375 110.625 114.375H80.625C78.5475 114.375 76.875 112.702 76.875 110.625V103.125C76.875 101.048 78.5475 99.375 80.625 99.375Z" fill="#C6D1F8"/>
<path d="M9.37499 84.375H39.375C41.4525 84.375 43.125 86.0475 43.125 88.125V95.625C43.125 97.7025 41.4525 99.375 39.375 99.375H9.37499C7.29749 99.375 5.625 97.7025 5.625 95.625V88.125C5.625 86.0475 7.29749 84.375 9.37499 84.375Z" fill="#C6D1F8"/>
<path d="M9.37502 99.375H39.375C41.4525 99.375 43.125 101.048 43.125 103.125V110.625C43.125 112.702 41.4525 114.375 39.375 114.375H9.37502C7.29751 114.375 5.625 112.702 5.625 110.625V103.125C5.625 101.048 7.29751 99.375 9.37502 99.375Z" fill="#C6D1F8"/>
<path d="M45 5.625H75C77.0775 5.625 78.75 7.29749 78.75 9.37499V16.875C78.75 18.9525 77.0775 20.625 75 20.625H45C42.9225 20.625 41.25 18.9525 41.25 16.875V9.37499C41.25 7.29749 42.9225 5.625 45 5.625Z" fill="#C6D1F8"/>
<path d="M45 20.625H75C77.0775 20.625 78.75 22.2975 78.75 24.375V31.875C78.75 33.9525 77.0775 35.625 75 35.625H45C42.9225 35.625 41.25 33.9525 41.25 31.875V24.375C41.25 22.2975 42.9225 20.625 45 20.625Z" fill="#C6D1F8"/>
<path d="M44.9964 3.75031C41.9125 3.75031 39.3787 6.28788 39.3787 9.37169V16.8717C39.3787 18.3125 39.9463 19.6233 40.8508 20.6253C39.9457 21.6243 39.3787 22.9337 39.3787 24.3753V31.8753C39.3787 34.9592 41.9125 37.4967 44.9964 37.4967H75.0036C78.0875 37.4967 80.625 34.9592 80.625 31.8753V24.3753C80.625 22.9337 80.0546 21.6243 79.1492 20.6253C80.0536 19.6233 80.625 18.3125 80.625 16.8717V9.37169C80.625 6.28788 78.0874 3.75031 75.0036 3.75031H44.9964ZM44.9964 7.50401H54.3823V18.754H44.9964C43.9251 18.754 43.1287 17.9429 43.1287 16.8717V9.37169C43.1287 8.30048 43.9251 7.50401 44.9964 7.50401ZM58.1176 7.50401H75.0036C76.0748 7.50401 76.8713 8.30048 76.8713 9.37169V16.8717C76.8713 17.9429 76.0748 18.754 75.0036 18.754H58.1176V7.50401ZM48.75 11.2504C47.7144 11.2504 46.875 12.0898 46.875 13.1253C46.875 14.1609 47.7144 15.0003 48.75 15.0003C49.7856 15.0003 50.625 14.1609 50.625 13.1253C50.625 12.0898 49.7856 11.2504 48.75 11.2504ZM63.7536 11.254C62.7167 11.248 61.8717 12.0847 61.8677 13.1216C61.8635 14.1644 62.711 15.0101 63.7536 15.004H71.3379C72.3792 15.0081 73.2243 14.163 73.2202 13.1216C73.2161 12.0861 72.3734 11.2499 71.3379 11.254L63.7536 11.254ZM32.677 19.2521C18.6563 28.2522 9.37131 43.9856 9.37131 61.8681C9.37131 67.3359 10.2397 72.6151 11.847 77.5529C12.1666 78.5417 13.2291 79.0821 14.2163 78.7577C15.2036 78.4367 15.7421 77.3745 15.4175 76.3884C13.9303 71.8192 13.1213 66.9392 13.1213 61.8681C13.1213 45.2834 21.73 30.7429 34.7131 22.4089C35.5794 21.8455 35.8266 20.6877 35.2659 19.8198C34.9314 19.2918 34.3562 18.9648 33.7316 18.9482C33.3575 18.9419 32.9904 19.048 32.677 19.2521ZM84.7194 19.8192C84.1617 20.691 84.4154 21.8499 85.287 22.4083C98.2701 30.7424 106.882 45.283 106.882 61.8676C106.882 66.9386 106.07 71.8187 104.583 76.3878C104.258 77.375 104.799 78.4377 105.787 78.7572C106.774 79.0789 107.834 78.5389 108.153 77.5524C109.76 72.6146 110.632 67.3354 110.632 61.8676C110.632 43.9853 101.329 28.2517 87.3085 19.2516C86.9967 19.051 86.6317 18.9483 86.2044 18.9585C85.5637 19.0119 85.0355 19.3265 84.7194 19.8192ZM44.9964 22.5074H54.3823V33.7428H44.9964C43.9251 33.7428 43.1287 32.9463 43.1287 31.8751V24.3751C43.1287 23.3039 43.9251 22.5074 44.9964 22.5074ZM58.1176 22.5074H75.0036C76.0748 22.5074 76.8713 23.3039 76.8713 24.3751V31.8751C76.8713 32.9463 76.0748 33.7428 75.0036 33.7428H58.1176V22.5074ZM48.75 26.2501C47.7144 26.2501 46.875 27.0896 46.875 28.1251C46.875 29.1606 47.7144 30.0001 48.75 30.0001C49.7856 30.0001 50.625 29.1606 50.625 28.1251C50.625 27.0896 49.7856 26.2501 48.75 26.2501ZM63.7536 26.2573C62.7167 26.2512 61.8717 27.0879 61.8677 28.1249C61.8718 29.1619 62.7167 29.9987 63.7536 29.9926H71.3379C72.3734 29.9967 73.2162 29.1605 73.2202 28.1249C73.2161 27.0894 72.3734 26.2532 71.3379 26.2572L63.7536 26.2573ZM33.0399 35.653L25.247 37.2461C24.235 37.4502 23.5786 38.4342 23.7785 39.447C23.984 40.4644 24.9773 41.121 25.994 40.9119L29.3558 40.2309L28.7478 41.1501C21.5468 52.0159 20.5018 65.8557 25.994 77.6759C26.4298 78.6154 27.5447 79.0238 28.4842 78.5878C29.4252 78.1533 29.8352 77.038 29.3997 76.0975C24.4548 65.4548 25.3914 53.0064 31.8753 43.2227L32.472 42.3181L33.1495 45.6616C33.355 46.679 34.3484 47.3356 35.3651 47.1265C36.3807 46.921 37.0367 45.93 36.8299 44.9145L35.2625 37.1765C35.1215 36.4307 34.6999 36.1399 34.4969 35.9607C34.1943 35.7467 33.835 35.6269 33.4643 35.6169C33.3141 35.6034 33.1767 35.646 33.0399 35.653ZM85.0122 36.456C84.2441 37.1582 84.1948 38.3515 84.9024 39.1146C92.3002 47.2114 95.3039 58.3925 92.9553 69.1073L92.7172 70.184L90.8679 67.2946C90.5327 66.7652 89.9558 66.4384 89.3298 66.423C88.957 66.4175 88.5911 66.5236 88.2788 66.727C87.4074 67.2854 87.1534 68.4443 87.7111 69.3161L91.9262 75.8969C92.2954 76.5666 92.7998 76.7125 93.0724 76.8051C93.6047 76.9815 94.2342 76.8103 94.5886 76.5819L101.29 72.2899C102.159 71.7315 102.413 70.5754 101.858 69.7044C101.299 68.833 100.14 68.579 99.2687 69.1368L96.372 70.9898L96.6101 69.9095C99.2186 58.0083 95.8882 45.5742 87.6709 36.5806C87.3215 36.1993 86.8296 35.979 86.3122 35.9726C85.8332 35.9584 85.3678 36.1349 85.0122 36.456ZM57.0117 41.246C56.0804 41.2454 55.2897 41.9285 55.155 42.85L54.6384 46.1899C53.5607 46.5208 52.3414 47.0221 51.3425 47.5448L48.6509 45.5381C47.9061 44.9888 46.8718 45.0647 46.2155 45.7173L41.9785 49.9507C41.3173 50.6091 41.2412 51.6531 41.7992 52.4007L43.7987 55.107C43.212 56.1583 42.7634 57.3228 42.4291 58.3956L39.1002 58.8938C38.18 59.0284 37.4975 59.8168 37.4962 60.7468V66.7416C37.4975 67.6716 38.18 68.4602 39.1002 68.5946L42.4327 69.0964C42.7644 70.1747 43.257 71.4002 43.7804 72.3996L41.7846 75.1023C41.2361 75.8479 41.314 76.8822 41.9674 77.5375L46.2008 81.7709C46.8584 82.4328 47.9023 82.511 48.6508 81.9538L51.3608 79.9543C52.3616 80.4822 53.5685 80.9809 54.6493 81.3166L55.144 84.6528C55.285 85.5672 56.0718 86.242 56.9971 86.2421H62.9919C63.917 86.242 64.7039 85.5667 64.8449 84.6528L65.3537 81.3056C66.4463 80.9959 67.6471 80.4733 68.646 79.9506L71.3486 81.9538C72.095 82.5044 73.1317 82.4264 73.7876 81.7709L78.021 77.5375C78.6737 76.8813 78.7498 75.8471 78.2003 75.1023L76.2008 72.3703C76.7677 71.3716 77.231 70.1712 77.5667 69.0928L80.8993 68.5946C81.8209 68.4613 82.5055 67.6727 82.5069 66.7415V60.7466C82.5055 59.8154 81.8209 59.0265 80.8993 58.8936L77.552 58.3954C77.2211 57.3232 76.7606 56.1208 76.2081 55.1069L78.2003 52.4005C78.758 51.6529 78.6814 50.6089 78.021 49.9506L73.7876 45.7172C73.1306 45.0624 72.0942 44.9863 71.3486 45.5379L68.6313 47.552C67.6338 47.0248 66.4993 46.5074 65.3464 46.1897L64.8447 42.8499C64.7101 41.9297 63.9217 41.2471 62.9917 41.2459L57.0117 41.246ZM58.6304 44.9961H61.3696L61.8125 47.944C61.9266 48.7088 62.4978 49.3254 63.2518 49.4968C64.8513 49.8639 66.3779 50.5054 67.7671 51.3791C68.4227 51.7901 69.2632 51.7568 69.8838 51.2948L72.2788 49.5224L74.2308 51.4596L72.4583 53.8546C72.0012 54.4726 71.9679 55.3075 72.3739 55.9603C73.2447 57.3538 73.8793 58.8841 74.2416 60.4867C74.4131 61.2406 75.0295 61.8122 75.7944 61.9259L78.757 62.3688V65.1227L75.8053 65.5656C75.0363 65.6754 74.4145 66.2473 74.2416 67.0048C73.8745 68.6051 73.2481 70.1266 72.3739 71.5165C71.9629 72.172 71.9962 73.0126 72.4583 73.6332L74.2308 76.0283L72.2788 77.9801L69.8984 76.2077C69.2769 75.7442 68.4343 75.7102 67.7781 76.1234C66.3852 76.993 64.8535 77.6327 63.2518 77.9948C62.4989 78.1655 61.9276 78.7804 61.8125 79.5438L61.3696 82.5064H58.6157L58.187 79.5438C58.0722 78.7804 57.5003 78.1656 56.7477 77.9948C55.1489 77.6277 53.6249 76.9962 52.236 76.1234C51.5805 75.7124 50.74 75.7457 50.1193 76.2077L47.7097 77.9801L45.7724 76.0283L47.5303 73.6479C47.9923 73.0271 48.0256 72.1866 47.6146 71.5312C46.7439 70.1377 46.1202 68.6074 45.7579 67.0048C45.5871 66.2519 44.9722 65.6808 44.2088 65.5656L41.2462 65.1227V62.3688L44.1942 61.9259C44.9545 61.8125 45.5685 61.2463 45.7433 60.4977C46.1111 58.8973 46.7507 57.3611 47.6256 55.9713C48.0309 55.3201 47.9997 54.4875 47.5448 53.8693L45.7723 51.4596L47.7243 49.5224L50.1046 51.2802C50.7254 51.7422 51.5659 51.7755 52.2213 51.3645C53.6143 50.4949 55.1312 49.8699 56.7331 49.5078C57.4916 49.342 58.0697 48.7263 58.1869 47.9588L58.6304 44.9961ZM60 54.3674C54.8442 54.3674 50.6177 58.5981 50.6177 63.7533C50.6177 68.9086 54.8442 73.1211 60 73.1211C65.1558 73.1211 69.3713 68.9086 69.3713 63.7533C69.3713 58.5981 65.1558 54.3674 60 54.3674ZM60 58.1174C63.1296 58.1174 65.6213 60.6252 65.6213 63.7533C65.6213 66.8815 63.1296 69.371 60 69.371C56.8704 69.371 54.3677 66.8815 54.3677 63.7533C54.3677 60.6252 56.8704 58.1174 60 58.1174ZM9.37131 82.507C6.2875 82.507 3.75 85.0409 3.75 88.1247V95.6283C3.75 97.0692 4.32118 98.3759 5.22586 99.3747C4.32146 100.377 3.75 101.687 3.75 103.128V110.632C3.75 113.716 6.2875 116.25 9.37131 116.25H39.3787C42.4625 116.25 44.9964 113.716 44.9964 110.632V103.128C44.9964 101.688 44.4287 100.377 43.5242 99.3747C44.4285 98.3759 44.9964 97.0693 44.9964 95.6284V88.1248C44.9964 85.0409 42.4625 82.5071 39.3787 82.5071L9.37131 82.507ZM80.625 82.507C77.5412 82.507 75.0036 85.0409 75.0036 88.1247V95.6283C75.0036 97.0692 75.5748 98.3759 76.4795 99.3747C75.5751 100.377 75.0036 101.687 75.0036 103.128V110.632C75.0036 113.716 77.5411 116.25 80.625 116.25H110.632C113.716 116.25 116.25 113.716 116.25 110.632V103.128C116.25 101.688 115.682 100.377 114.778 99.3747C115.682 98.3759 116.25 97.0693 116.25 95.6284V88.1248C116.25 85.0409 113.716 82.5071 110.632 82.5071L80.625 82.507ZM9.37131 86.2423H18.7536V97.496H9.37131C8.30017 97.496 7.50364 96.6996 7.50364 95.6283V88.1247C7.50364 87.0535 8.30017 86.2423 9.37131 86.2423ZM22.5073 86.2423H39.3787C40.4499 86.2423 41.2463 87.0535 41.2463 88.1247V95.6283C41.2463 96.6996 40.4498 97.496 39.3787 97.496H22.5073V86.2423ZM80.625 86.2423H89.9927V97.496H80.625C79.5538 97.496 78.7573 96.6995 78.7573 95.6283V88.1247C78.7573 87.0535 79.5538 86.2423 80.625 86.2423ZM93.7463 86.2423H110.632C111.704 86.2423 112.5 87.0535 112.5 88.1247V95.6283C112.5 96.6996 111.704 97.496 110.632 97.496H93.7463V86.2423ZM28.125 89.9924C27.0881 89.9965 26.2513 90.8414 26.2573 91.8783C26.2612 92.9081 27.0951 93.742 28.125 93.746H35.7092C36.7448 93.7501 37.5875 92.9139 37.5916 91.8783C37.5977 90.8357 36.7519 89.9882 35.7092 89.9924H28.125ZM99.3787 89.9924C98.336 89.9882 97.4902 90.8357 97.4963 91.8783C97.5005 92.9139 98.3431 93.7501 99.3787 93.746H106.963C107.998 93.7501 108.841 92.9139 108.845 91.8783C108.851 90.8357 108.006 89.9882 106.963 89.9924H99.3787ZM13.125 89.9994C12.0895 89.9994 11.25 90.8389 11.25 91.8744C11.25 92.91 12.0895 93.7495 13.125 93.7495C14.1605 93.7495 15 92.91 15 91.8744C15 90.8389 14.1605 89.9994 13.125 89.9994ZM82.5 91.8744C82.5 92.91 83.3395 93.7494 84.375 93.7494C85.4105 93.7494 86.25 92.91 86.25 91.8744C86.25 90.8389 85.4105 89.9994 84.375 89.9994C83.3395 89.9994 82.5 90.8389 82.5 91.8744ZM18.7536 101.246V112.5H9.37131C8.30017 112.5 7.50364 111.703 7.50364 110.632V103.128C7.50364 102.057 8.30017 101.246 9.37131 101.246L18.7536 101.246ZM22.5073 101.246H39.3787C40.4499 101.246 41.2463 102.057 41.2463 103.128V110.632C41.2463 111.703 40.4499 112.499 39.3787 112.499H22.5073L22.5073 101.246ZM89.9927 101.246V112.5H80.625C79.5538 112.5 78.7573 111.703 78.7573 110.632V103.128C78.7573 102.057 79.5538 101.246 80.625 101.246L89.9927 101.246ZM93.7463 101.246H110.632C111.704 101.246 112.5 102.057 112.5 103.128V110.632C112.5 111.703 111.704 112.499 110.632 112.499H93.7463V101.246ZM28.125 104.996C27.0881 105 26.2513 105.845 26.2573 106.882C26.2614 107.912 27.0951 108.745 28.125 108.749H35.7092C36.7448 108.754 37.5875 107.917 37.5916 106.882C37.5977 105.839 36.7519 104.992 35.7092 104.996H28.125ZM99.3787 104.996C98.336 104.992 97.4902 105.839 97.4963 106.882C97.5005 107.917 98.3431 108.754 99.3787 108.749H106.963C107.998 108.754 108.841 107.917 108.845 106.882C108.851 105.839 108.006 104.992 106.963 104.996H99.3787ZM13.125 105C12.0895 105 11.25 105.839 11.25 106.875C11.25 107.91 12.0895 108.749 13.125 108.749C14.1605 108.749 15 107.91 15 106.875C15 105.839 14.1605 105 13.125 105ZM82.5 106.874C82.5 107.91 83.3395 108.749 84.375 108.749C85.4105 108.749 86.25 107.91 86.25 106.874C86.25 105.839 85.4105 104.999 84.375 104.999C83.3395 104.999 82.5 105.839 82.5 106.874ZM48.7757 109.357C48.5765 110.374 49.2384 111.359 50.2551 111.558C53.4104 112.173 56.6679 112.485 60 112.485C63.3321 112.485 66.5897 112.174 69.7449 111.558C70.7612 111.359 71.4237 110.374 71.2243 109.357C71.0252 108.343 70.0422 107.681 69.0271 107.878C66.1067 108.448 63.0905 108.735 60 108.735C56.9095 108.735 53.897 108.448 50.9765 107.878C50.8766 107.857 50.7746 107.842 50.6726 107.835C49.7519 107.806 48.9479 108.453 48.7757 109.357Z" fill="#5072EB"/>
</svg>
