<svg width="120" height="120" viewBox="0 0 120 120" fill="none" xmlns="http://www.w3.org/2000/svg">
<path d="M93.3204 24.6187C92.8024 22.4407 91.8021 20.4068 90.3931 18.6671C88.9842 16.9274 87.2026 15.5262 85.1798 14.567C83.157 13.6078 80.9447 13.1151 78.706 13.1251C76.4673 13.1351 74.2595 13.6476 72.2454 14.6249C69.1552 11.0742 65.1654 8.42153 60.6956 6.94588C56.2258 5.47023 51.4409 5.22607 46.8441 6.23906C42.2472 7.25205 38.0082 9.48478 34.5726 12.7025C31.1371 15.9203 28.6319 20.0042 27.3204 24.5249C21.2875 25.1892 15.7199 28.0815 11.7077 32.6354C7.69544 37.1893 5.5275 43.0768 5.62837 49.1453C5.72924 55.2137 8.09164 61.026 12.253 65.444C16.4144 69.8621 22.075 72.5677 28.1266 73.0312V73.1249H30.0016V61.8749H82.8766L69.3766 67.4999V84.3749H37.5016V91.8749H71.0641C71.9916 93.9205 73.281 95.7816 74.8704 97.3687L90.0016 112.5L91.8766 114.375L108.883 97.3687C110.625 95.6285 112.007 93.562 112.949 91.2874C113.892 89.0128 114.377 86.5746 114.377 84.1124V67.4999L108.227 64.9312C111.158 61.6316 113.139 57.5974 113.955 53.2598C114.772 48.9221 114.395 44.444 112.864 40.3041C111.334 36.1641 108.707 32.518 105.264 29.7552C101.822 26.9925 97.6935 25.2171 93.3204 24.6187ZM82.5016 54.3749H30.0016V31.8749H90.0016V54.3749H82.5016ZM108.752 71.2499V84.1124C108.756 85.8367 108.418 87.5447 107.759 89.1378C107.099 90.7308 106.13 92.1773 104.908 93.3937L91.8766 106.425L78.8454 93.3937C77.6232 92.1773 76.6542 90.7308 75.9945 89.1378C75.3347 87.5447 74.9973 85.8367 75.0016 84.1124V71.2499L91.8766 64.2187L108.752 71.2499Z" fill="transparent"/>
<path d="M56.25 46.875C58.3211 46.875 60 45.1961 60 43.125C60 41.0539 58.3211 39.375 56.25 39.375C54.1789 39.375 52.5 41.0539 52.5 43.125C52.5 45.1961 54.1789 46.875 56.25 46.875Z" fill="transparent"/>
<path d="M56.25 76.875C58.3211 76.875 60 75.1961 60 73.125C60 71.0539 58.3211 69.375 56.25 69.375C54.1789 69.375 52.5 71.0539 52.5 73.125C52.5 75.1961 54.1789 76.875 56.25 76.875Z" fill="transparent"/>
<path d="M56.25 106.875C58.3211 106.875 60 105.196 60 103.125C60 101.054 58.3211 99.375 56.25 99.375C54.1789 99.375 52.5 101.054 52.5 103.125C52.5 105.196 54.1789 106.875 56.25 106.875Z" fill="transparent"/>
<path d="M41.25 46.875C43.3211 46.875 45 45.1961 45 43.125C45 41.0539 43.3211 39.375 41.25 39.375C39.1789 39.375 37.5 41.0539 37.5 43.125C37.5 45.1961 39.1789 46.875 41.25 46.875Z" fill="transparent"/>
<path d="M41.25 76.875C43.3211 76.875 45 75.1961 45 73.125C45 71.0539 43.3211 69.375 41.25 69.375C39.1789 69.375 37.5 71.0539 37.5 73.125C37.5 75.1961 39.1789 76.875 41.25 76.875Z" fill="transparent"/>
<path d="M41.25 106.875C43.3211 106.875 45 105.196 45 103.125C45 101.054 43.3211 99.375 41.25 99.375C39.1789 99.375 37.5 101.054 37.5 103.125C37.5 105.196 39.1789 106.875 41.25 106.875Z" fill="transparent"/>
<path d="M87.9013 81.4966L85.25 84.1478L90.5525 89.4503C90.9041 89.8018 91.3809 89.9993 91.8781 89.9993C92.3753 89.9993 92.8521 89.8018 93.2038 89.4503L103.811 78.8434L101.159 76.1922L91.8781 85.4734L87.9013 81.4966Z" fill="currentColor"/>
<path d="M115.089 65.775L111.245 64.1625C113.848 60.5793 115.5 56.3953 116.049 52.0008C116.598 47.6062 116.024 43.1443 114.382 39.0313C112.741 34.9183 110.084 31.2881 106.66 28.4793C103.236 25.6705 99.1562 23.7747 94.8015 22.9687C93.7216 19.5616 91.5828 16.5879 88.6961 14.4803C85.8095 12.3726 82.3257 11.241 78.7515 11.25C76.6925 11.2441 74.6507 11.6257 72.7328 12.375C69.3924 8.89756 65.2126 6.33911 60.5963 4.94618C55.98 3.55324 51.0827 3.37279 46.3764 4.4222C41.67 5.47161 37.3133 7.7155 33.7261 10.9377C30.1388 14.1598 27.4419 18.2516 25.8953 22.8187C19.6062 23.83 13.8995 27.0934 9.83861 32.001C5.77774 36.9085 3.63985 43.1251 3.82341 49.4923C4.00697 55.8594 6.49945 61.9426 10.8363 66.608C15.1731 71.2734 21.0584 74.2028 27.3953 74.85C27.6266 74.9482 27.8752 74.9992 28.1265 75V84.375C28.1265 84.8723 28.3241 85.3492 28.6757 85.7008C29.0273 86.0524 29.5042 86.25 30.0015 86.25H35.6265V90H30.0015C29.5042 90 29.0273 90.1975 28.6757 90.5492C28.3241 90.9008 28.1265 91.3777 28.1265 91.875V114.375C28.1265 114.872 28.3241 115.349 28.6757 115.701C29.0273 116.052 29.5042 116.25 30.0015 116.25H90.0015C90.3327 116.237 90.6553 116.14 90.939 115.969C91.2211 116.144 91.5446 116.241 91.8765 116.25C92.3739 116.248 92.8512 116.053 93.2078 115.706L110.214 98.7C112.136 96.7889 113.659 94.5155 114.695 92.0114C115.731 89.5074 116.26 86.8225 116.252 84.1125V67.5C116.253 67.1291 116.143 66.7663 115.936 66.4587C115.728 66.1511 115.433 65.9129 115.089 65.775ZM28.1265 61.875V71.1375C22.5547 70.6776 17.3541 68.1583 13.5394 64.0712C9.72473 59.984 7.56968 54.6222 7.49474 49.0319C7.41979 43.4417 9.43034 38.024 13.1341 33.8361C16.8378 29.6481 21.969 26.9903 27.5265 26.3812C27.895 26.3447 28.244 26.1982 28.5282 25.9608C28.8124 25.7234 29.0187 25.4061 29.1203 25.05C30.338 20.8516 32.6645 17.059 35.8551 14.0708C39.0458 11.0827 42.9827 9.00957 47.2518 8.06941C51.5209 7.12925 55.9644 7.35682 60.1151 8.72819C64.2658 10.0996 67.9703 12.564 70.839 15.8625C71.1086 16.174 71.474 16.3872 71.8778 16.4686C72.2816 16.5501 72.701 16.4952 73.0703 16.3125C74.8395 15.4484 76.7826 14.9995 78.7515 15C81.698 14.9945 84.5601 15.9839 86.8741 17.8079C89.1881 19.6319 90.8186 22.1837 91.5015 25.05C91.588 25.4163 91.7826 25.748 92.0602 26.0022C92.3377 26.2563 92.6853 26.4211 93.0578 26.475C98.4354 27.2297 103.361 29.8969 106.932 33.9879C110.503 38.0789 112.48 43.3197 112.502 48.75C112.503 53.8033 110.791 58.7077 107.645 62.6625L92.589 56.4C92.3653 56.298 92.1224 56.2452 91.8765 56.2452C91.6307 56.2452 91.3877 56.298 91.164 56.4L84.3765 59.2125V56.25H90.0015C90.4988 56.25 90.9757 56.0524 91.3273 55.7008C91.679 55.3492 91.8765 54.8723 91.8765 54.375V31.875C91.8765 31.3777 91.679 30.9008 91.3273 30.5492C90.9757 30.1975 90.4988 30 90.0015 30H30.0015C29.5042 30 29.0273 30.1975 28.6757 30.5492C28.3241 30.9008 28.1265 31.3777 28.1265 31.875V54.375C28.1265 54.8723 28.3241 55.3492 28.6757 55.7008C29.0273 56.0524 29.5042 56.25 30.0015 56.25H35.6265V60H30.0015C29.5042 60 29.0273 60.1975 28.6757 60.5492C28.3241 60.9008 28.1265 61.3777 28.1265 61.875ZM31.8765 52.5V33.75H88.1265V52.5H31.8765ZM80.6265 56.25V60H39.3765V56.25H80.6265ZM31.8765 82.5V63.75H73.5015L68.664 65.775C68.3197 65.9129 68.0248 66.1511 67.8175 66.4587C67.6102 66.7663 67.5001 67.1291 67.5015 67.5V82.5H31.8765ZM68.364 90H39.3765V86.25H67.614C67.7408 87.5215 67.992 88.7775 68.364 90ZM31.8765 112.5V93.75H69.8828C70.8487 95.5725 72.081 97.2409 73.539 98.7L87.3578 112.5H31.8765ZM112.502 84.1125C112.506 86.3287 112.07 88.5237 111.22 90.5706C110.371 92.6175 109.124 94.4756 107.552 96.0375L91.8765 111.731L76.2015 96.0375C74.6292 94.4756 73.3822 92.6175 72.5326 90.5706C71.6829 88.5237 71.2475 86.3287 71.2515 84.1125V68.7562L91.8765 60.15L112.502 68.7562V84.1125Z" fill="currentColor"/>
<path d="M109.463 69.525L92.5875 62.4938C92.3639 62.3918 92.1209 62.339 91.875 62.339C91.6292 62.339 91.3862 62.3918 91.1625 62.4938L74.2875 69.525C73.9432 69.6629 73.6483 69.9011 73.441 70.2087C73.2337 70.5163 73.1236 70.8791 73.125 71.25V84.1125C73.1201 86.0806 73.5053 88.0302 74.2584 89.8485C75.0115 91.6669 76.1175 93.3179 77.5125 94.7062L90.5438 107.738C90.7168 107.916 90.9238 108.057 91.1524 108.154C91.3811 108.25 91.6268 108.3 91.875 108.3C92.1233 108.3 92.369 108.25 92.5977 108.154C92.8263 108.057 93.0333 107.916 93.2063 107.738L106.238 94.7062C107.633 93.3179 108.739 91.6669 109.492 89.8485C110.245 88.0302 110.63 86.0806 110.625 84.1125V71.25C110.626 70.8791 110.516 70.5163 110.309 70.2087C110.102 69.9011 109.807 69.6629 109.463 69.525ZM106.875 84.1125C106.881 85.5905 106.592 87.0549 106.026 88.4199C105.459 89.785 104.626 91.0233 103.575 92.0625L91.875 103.763L80.175 92.0625C79.124 91.0233 78.2909 89.785 77.7242 88.4199C77.1576 87.0549 76.8689 85.5905 76.875 84.1125V72.5062L91.875 66.2438L106.875 72.5062V84.1125Z" fill="currentColor"/>
<path d="M41.25 37.5C40.1375 37.5 39.0499 37.8299 38.1249 38.448C37.1999 39.0661 36.4789 39.9446 36.0532 40.9724C35.6274 42.0002 35.516 43.1312 35.7331 44.2224C35.9501 45.3135 36.4859 46.3158 37.2725 47.1025C38.0592 47.8891 39.0615 48.4249 40.1526 48.6419C41.2438 48.859 42.3748 48.7476 43.4026 48.3218C44.4304 47.8961 45.3089 47.1751 45.927 46.2501C46.5451 45.3251 46.875 44.2375 46.875 43.125C46.875 41.6332 46.2824 40.2024 45.2275 39.1475C44.1726 38.0926 42.7418 37.5 41.25 37.5ZM41.25 45C40.8792 45 40.5167 44.89 40.2083 44.684C39.9 44.478 39.6596 44.1851 39.5177 43.8425C39.3758 43.4999 39.3387 43.1229 39.411 42.7592C39.4834 42.3955 39.662 42.0614 39.9242 41.7992C40.1864 41.5369 40.5205 41.3584 40.8842 41.286C41.2479 41.2137 41.6249 41.2508 41.9675 41.3927C42.3101 41.5346 42.603 41.775 42.809 42.0833C43.015 42.3916 43.125 42.7542 43.125 43.125C43.125 43.6223 42.9275 44.0992 42.5758 44.4508C42.2242 44.8025 41.7473 45 41.25 45Z" fill="currentColor"/>
<path d="M56.25 37.5C55.1375 37.5 54.0499 37.8299 53.1249 38.448C52.1999 39.0661 51.4789 39.9446 51.0532 40.9724C50.6274 42.0002 50.516 43.1312 50.7331 44.2224C50.9501 45.3135 51.4859 46.3158 52.2725 47.1025C53.0592 47.8891 54.0615 48.4249 55.1526 48.6419C56.2438 48.859 57.3748 48.7476 58.4026 48.3218C59.4304 47.8961 60.3089 47.1751 60.927 46.2501C61.5451 45.3251 61.875 44.2375 61.875 43.125C61.875 41.6332 61.2824 40.2024 60.2275 39.1475C59.1726 38.0926 57.7418 37.5 56.25 37.5ZM56.25 45C55.8792 45 55.5167 44.89 55.2083 44.684C54.9 44.478 54.6596 44.1851 54.5177 43.8425C54.3758 43.4999 54.3387 43.1229 54.411 42.7592C54.4834 42.3955 54.662 42.0614 54.9242 41.7992C55.1864 41.5369 55.5205 41.3584 55.8842 41.286C56.2479 41.2137 56.6249 41.2508 56.9675 41.3927C57.3101 41.5346 57.603 41.775 57.809 42.0833C58.015 42.3916 58.125 42.7542 58.125 43.125C58.125 43.6223 57.9275 44.0992 57.5758 44.4508C57.2242 44.8025 56.7473 45 56.25 45Z" fill="currentColor"/>
<path d="M67.5 37.5H71.25V41.25H67.5V37.5Z" fill="currentColor"/>
<path d="M67.5 45H71.25V48.75H67.5V45Z" fill="currentColor"/>
<path d="M78.75 37.5H82.5V41.25H78.75V37.5Z" fill="currentColor"/>
<path d="M78.75 45H82.5V48.75H78.75V45Z" fill="currentColor"/>
<path d="M41.25 67.5C40.1375 67.5 39.0499 67.8299 38.1249 68.448C37.1999 69.0661 36.4789 69.9446 36.0532 70.9724C35.6274 72.0002 35.516 73.1312 35.7331 74.2224C35.9501 75.3135 36.4859 76.3158 37.2725 77.1025C38.0592 77.8891 39.0615 78.4249 40.1526 78.6419C41.2438 78.859 42.3748 78.7476 43.4026 78.3218C44.4304 77.8961 45.3089 77.1751 45.927 76.2501C46.5451 75.3251 46.875 74.2375 46.875 73.125C46.875 71.6332 46.2824 70.2024 45.2275 69.1475C44.1726 68.0926 42.7418 67.5 41.25 67.5ZM41.25 75C40.8792 75 40.5167 74.89 40.2083 74.684C39.9 74.478 39.6596 74.1851 39.5177 73.8425C39.3758 73.4999 39.3387 73.1229 39.411 72.7592C39.4834 72.3955 39.662 72.0614 39.9242 71.7992C40.1864 71.537 40.5205 71.3584 40.8842 71.286C41.2479 71.2137 41.6249 71.2508 41.9675 71.3927C42.3101 71.5346 42.603 71.775 42.809 72.0833C43.015 72.3917 43.125 72.7542 43.125 73.125C43.125 73.6223 42.9275 74.0992 42.5758 74.4508C42.2242 74.8025 41.7473 75 41.25 75Z" fill="currentColor"/>
<path d="M56.25 67.5C55.1375 67.5 54.0499 67.8299 53.1249 68.448C52.1999 69.0661 51.4789 69.9446 51.0532 70.9724C50.6274 72.0002 50.516 73.1312 50.7331 74.2224C50.9501 75.3135 51.4859 76.3158 52.2725 77.1025C53.0592 77.8891 54.0615 78.4249 55.1526 78.6419C56.2438 78.859 57.3748 78.7476 58.4026 78.3218C59.4304 77.8961 60.3089 77.1751 60.927 76.2501C61.5451 75.3251 61.875 74.2375 61.875 73.125C61.875 71.6332 61.2824 70.2024 60.2275 69.1475C59.1726 68.0926 57.7418 67.5 56.25 67.5ZM56.25 75C55.8792 75 55.5167 74.89 55.2083 74.684C54.9 74.478 54.6596 74.1851 54.5177 73.8425C54.3758 73.4999 54.3387 73.1229 54.411 72.7592C54.4834 72.3955 54.662 72.0614 54.9242 71.7992C55.1864 71.537 55.5205 71.3584 55.8842 71.286C56.2479 71.2137 56.6249 71.2508 56.9675 71.3927C57.3101 71.5346 57.603 71.775 57.809 72.0833C58.015 72.3917 58.125 72.7542 58.125 73.125C58.125 73.6223 57.9275 74.0992 57.5758 74.4508C57.2242 74.8025 56.7473 75 56.25 75Z" fill="currentColor"/>
<path d="M41.25 97.5C40.1375 97.5 39.0499 97.8299 38.1249 98.448C37.1999 99.0661 36.4789 99.9446 36.0532 100.972C35.6274 102 35.516 103.131 35.7331 104.222C35.9501 105.314 36.4859 106.316 37.2725 107.102C38.0592 107.889 39.0615 108.425 40.1526 108.642C41.2438 108.859 42.3748 108.748 43.4026 108.322C44.4304 107.896 45.3089 107.175 45.927 106.25C46.5451 105.325 46.875 104.238 46.875 103.125C46.875 101.633 46.2824 100.202 45.2275 99.1475C44.1726 98.0926 42.7418 97.5 41.25 97.5ZM41.25 105C40.8792 105 40.5167 104.89 40.2083 104.684C39.9 104.478 39.6596 104.185 39.5177 103.843C39.3758 103.5 39.3387 103.123 39.411 102.759C39.4834 102.395 39.662 102.061 39.9242 101.799C40.1864 101.537 40.5205 101.358 40.8842 101.286C41.2479 101.214 41.6249 101.251 41.9675 101.393C42.3101 101.535 42.603 101.775 42.809 102.083C43.015 102.392 43.125 102.754 43.125 103.125C43.125 103.622 42.9275 104.099 42.5758 104.451C42.2242 104.802 41.7473 105 41.25 105Z" fill="currentColor"/>
<path d="M56.25 97.5C55.1375 97.5 54.0499 97.8299 53.1249 98.448C52.1999 99.0661 51.4789 99.9446 51.0532 100.972C50.6274 102 50.516 103.131 50.7331 104.222C50.9501 105.314 51.4859 106.316 52.2725 107.102C53.0592 107.889 54.0615 108.425 55.1526 108.642C56.2438 108.859 57.3748 108.748 58.4026 108.322C59.4304 107.896 60.3089 107.175 60.927 106.25C61.5451 105.325 61.875 104.238 61.875 103.125C61.875 101.633 61.2824 100.202 60.2275 99.1475C59.1726 98.0926 57.7418 97.5 56.25 97.5ZM56.25 105C55.8792 105 55.5167 104.89 55.2083 104.684C54.9 104.478 54.6596 104.185 54.5177 103.843C54.3758 103.5 54.3387 103.123 54.411 102.759C54.4834 102.395 54.662 102.061 54.9242 101.799C55.1864 101.537 55.5205 101.358 55.8842 101.286C56.2479 101.214 56.6249 101.251 56.9675 101.393C57.3101 101.535 57.603 101.775 57.809 102.083C58.015 102.392 58.125 102.754 58.125 103.125C58.125 103.622 57.9275 104.099 57.5758 104.451C57.2242 104.802 56.7473 105 56.25 105Z" fill="currentColor"/>
<path d="M67.5 97.5H71.25V101.25H67.5V97.5Z" fill="currentColor"/>
<path d="M67.5 105H71.25V108.75H67.5V105Z" fill="currentColor"/>
<path d="M3.75 90H7.5V93.75H3.75V90Z" fill="currentColor"/>
<path d="M11.25 90H22.5V93.75H11.25V90Z" fill="currentColor"/>
<path d="M3.75 101.25H7.5V105H3.75V101.25Z" fill="currentColor"/>
<path d="M11.25 101.25H22.5V105H11.25V101.25Z" fill="currentColor"/>
<path d="M3.75 112.5H7.5V116.25H3.75V112.5Z" fill="currentColor"/>
<path d="M11.25 112.5H22.5V116.25H11.25V112.5Z" fill="currentColor"/>
</svg>
