<svg width="40" height="40" viewBox="0 0 40 40" fill="none" xmlns="http://www.w3.org/2000/svg">
<path d="M35.3633 27.6198C33.7463 27.6198 32.3729 28.6809 31.9016 30.1432H27.4169V24.6806H30.9764C35.4006 24.6806 38.9999 21.0813 38.9999 16.6572C38.9999 12.4257 35.7075 8.94896 31.5499 8.65394C30.9307 6.62087 29.7095 4.79153 28.0504 3.43452C26.1309 1.86465 23.7061 1 21.2223 1C18.9915 1 16.8503 1.67517 15.0301 2.95254C13.4804 4.04014 12.2579 5.49305 11.4595 7.18746C8.75874 7.22984 6.54628 9.31991 6.3096 11.97C3.2981 12.4899 1 15.121 1 18.2787C1 21.8087 3.87189 24.6806 7.40195 24.6806H12.5832V30.1433H8.09842C7.62698 28.681 6.25371 27.6198 4.63671 27.6198C2.6314 27.6198 1 29.2512 1 31.2565C1 33.2619 2.6314 34.8933 4.63671 34.8933C6.25371 34.8933 7.62705 33.8321 8.09842 32.3698H14.8097V24.6806H18.8867V31.9015C17.4244 32.3729 16.3633 33.7462 16.3633 35.3632C16.3633 37.3685 17.9946 38.9999 20 38.9999C22.0053 38.9999 23.6367 37.3685 23.6367 35.3632C23.6367 33.7462 22.5755 32.3729 21.1132 31.9015V24.6806H25.1903V32.3698H31.9016C32.373 33.8321 33.7463 34.8933 35.3633 34.8933C37.3686 34.8933 39 33.2619 39 31.2565C39 29.2512 37.3686 27.6198 35.3633 27.6198ZM4.63671 32.6666C3.85912 32.6666 3.22656 32.0341 3.22656 31.2565C3.22656 30.4789 3.85912 29.8463 4.63671 29.8463C5.4143 29.8463 6.04686 30.4789 6.04686 31.2565C6.04686 32.0341 5.4143 32.6666 4.63671 32.6666ZM20 36.7734C19.2224 36.7734 18.5898 36.1408 18.5898 35.3632C18.5898 34.5856 19.2224 33.9531 20 33.9531C20.7775 33.9531 21.4101 34.5856 21.4101 35.3632C21.4101 36.1408 20.7775 36.7734 20 36.7734ZM3.22656 18.2787C3.22656 15.9806 5.09256 14.1102 7.38911 14.1033C7.40366 14.1038 7.41835 14.1042 7.43297 14.1043L8.71139 14.1117C8.71139 14.1117 8.51523 12.5701 8.51523 12.4412C8.51523 10.7717 9.87358 9.41335 11.5431 9.41335C11.6984 9.41335 12.8951 9.58449 12.8951 9.58449L13.2152 8.74434C14.4723 5.44399 17.6902 3.22656 21.2223 3.22656C25.2353 3.22656 28.7576 6.07002 29.5974 9.98758L29.7941 10.9054C29.7941 10.9054 30.897 10.8602 30.9764 10.8602C34.1729 10.8602 36.7734 13.4607 36.7734 16.6572C36.7734 19.8535 34.1729 22.454 30.9764 22.454H7.40195C5.09961 22.4541 3.22656 20.581 3.22656 18.2787ZM35.3633 32.6666C34.5857 32.6666 33.9531 32.0341 33.9531 31.2565C33.9531 30.4789 34.5857 29.8463 35.3633 29.8463C36.1409 29.8463 36.7734 30.4789 36.7734 31.2565C36.7734 32.0341 36.1409 32.6666 35.3633 32.6666Z" fill="#B8C7F7" stroke="#B8C7F7" stroke-width="0.7"/>
</svg>
