<svg width="34" height="34" viewBox="0 0 34 34" fill="none" xmlns="http://www.w3.org/2000/svg">
<path d="M30.0625 9.875H21.75V3.9375C21.75 2.99267 21.3747 2.08653 20.7066 1.41843C20.0385 0.750334 19.1323 0.375 18.1875 0.375H3.9375C2.99267 0.375 2.08653 0.750334 1.41843 1.41843C0.750334 2.08653 0.375 2.99267 0.375 3.9375V31.25C0.375 31.8799 0.625222 32.484 1.07062 32.9294C1.51602 33.3748 2.12011 33.625 2.75 33.625H31.25C31.8799 33.625 32.484 33.3748 32.9294 32.9294C33.3748 32.484 33.625 31.8799 33.625 31.25V13.4375C33.625 12.4927 33.2497 11.5865 32.5816 10.9184C31.9135 10.2503 31.0073 9.875 30.0625 9.875ZM2.75 3.9375C2.75 3.62256 2.87511 3.32051 3.09781 3.09781C3.32051 2.87511 3.62256 2.75 3.9375 2.75H18.1875C18.5024 2.75 18.8045 2.87511 19.0272 3.09781C19.2499 3.32051 19.375 3.62256 19.375 3.9375V31.25H17V24.125C17 23.4951 16.7498 22.891 16.3044 22.4456C15.859 22.0002 15.2549 21.75 14.625 21.75H7.5C6.87011 21.75 6.26602 22.0002 5.82062 22.4456C5.37522 22.891 5.125 23.4951 5.125 24.125V31.25H2.75V3.9375ZM7.5 24.125H9.875V31.25H7.5V24.125ZM12.25 31.25V24.125H14.625V31.25H12.25ZM21.75 31.25V12.25H30.0625C30.3774 12.25 30.6795 12.3751 30.9022 12.5978C31.1249 12.8205 31.25 13.1226 31.25 13.4375V31.25H21.75Z" fill="#B8C7F7" stroke="#B8C7F7" stroke-width="0.6"/>
<path d="M6.3125 13.4375H8.6875C9.00244 13.4375 9.30449 13.3124 9.52719 13.0897C9.74989 12.867 9.875 12.5649 9.875 12.25C9.875 11.9351 9.74989 11.633 9.52719 11.4103C9.30449 11.1876 9.00244 11.0625 8.6875 11.0625H6.3125C5.99756 11.0625 5.69551 11.1876 5.47281 11.4103C5.25011 11.633 5.125 11.9351 5.125 12.25C5.125 12.5649 5.25011 12.867 5.47281 13.0897C5.69551 13.3124 5.99756 13.4375 6.3125 13.4375Z" fill="#B8C7F7"/>
<path d="M13.4375 13.4375H15.8125C16.1274 13.4375 16.4295 13.3124 16.6522 13.0897C16.8749 12.867 17 12.5649 17 12.25C17 11.9351 16.8749 11.633 16.6522 11.4103C16.4295 11.1876 16.1274 11.0625 15.8125 11.0625H13.4375C13.1226 11.0625 12.8205 11.1876 12.5978 11.4103C12.3751 11.633 12.25 11.9351 12.25 12.25C12.25 12.5649 12.3751 12.867 12.5978 13.0897C12.8205 13.3124 13.1226 13.4375 13.4375 13.4375Z" fill="#B8C7F7"/>
<path d="M6.3125 18.1875H8.6875C9.00244 18.1875 9.30449 18.0624 9.52719 17.8397C9.74989 17.617 9.875 17.3149 9.875 17C9.875 16.6851 9.74989 16.383 9.52719 16.1603C9.30449 15.9376 9.00244 15.8125 8.6875 15.8125H6.3125C5.99756 15.8125 5.69551 15.9376 5.47281 16.1603C5.25011 16.383 5.125 16.6851 5.125 17C5.125 17.3149 5.25011 17.617 5.47281 17.8397C5.69551 18.0624 5.99756 18.1875 6.3125 18.1875Z" fill="#B8C7F7"/>
<path d="M13.4375 18.1875H15.8125C16.1274 18.1875 16.4295 18.0624 16.6522 17.8397C16.8749 17.617 17 17.3149 17 17C17 16.6851 16.8749 16.383 16.6522 16.1603C16.4295 15.9376 16.1274 15.8125 15.8125 15.8125H13.4375C13.1226 15.8125 12.8205 15.9376 12.5978 16.1603C12.3751 16.383 12.25 16.6851 12.25 17C12.25 17.3149 12.3751 17.617 12.5978 17.8397C12.8205 18.0624 13.1226 18.1875 13.4375 18.1875Z" fill="#B8C7F7"/>
<path d="M6.3125 8.6875H8.6875C9.00244 8.6875 9.30449 8.56239 9.52719 8.33969C9.74989 8.11699 9.875 7.81494 9.875 7.5C9.875 7.18506 9.74989 6.88301 9.52719 6.66031C9.30449 6.43761 9.00244 6.3125 8.6875 6.3125H6.3125C5.99756 6.3125 5.69551 6.43761 5.47281 6.66031C5.25011 6.88301 5.125 7.18506 5.125 7.5C5.125 7.81494 5.25011 8.11699 5.47281 8.33969C5.69551 8.56239 5.99756 8.6875 6.3125 8.6875Z" fill="#B8C7F7"/>
<path d="M13.4375 8.6875H15.8125C16.1274 8.6875 16.4295 8.56239 16.6522 8.33969C16.8749 8.11699 17 7.81494 17 7.5C17 7.18506 16.8749 6.88301 16.6522 6.66031C16.4295 6.43761 16.1274 6.3125 15.8125 6.3125H13.4375C13.1226 6.3125 12.8205 6.43761 12.5978 6.66031C12.3751 6.88301 12.25 7.18506 12.25 7.5C12.25 7.81494 12.3751 8.11699 12.5978 8.33969C12.8205 8.56239 13.1226 8.6875 13.4375 8.6875Z" fill="#B8C7F7"/>
<path d="M27.6875 15.8125H25.3125C24.9976 15.8125 24.6955 15.9376 24.4728 16.1603C24.2501 16.383 24.125 16.6851 24.125 17C24.125 17.3149 24.2501 17.617 24.4728 17.8397C24.6955 18.0624 24.9976 18.1875 25.3125 18.1875H27.6875C28.0024 18.1875 28.3045 18.0624 28.5272 17.8397C28.7499 17.617 28.875 17.3149 28.875 17C28.875 16.6851 28.7499 16.383 28.5272 16.1603C28.3045 15.9376 28.0024 15.8125 27.6875 15.8125Z" fill="#B8C7F7"/>
<path d="M27.6875 20.5625H25.3125C24.9976 20.5625 24.6955 20.6876 24.4728 20.9103C24.2501 21.133 24.125 21.4351 24.125 21.75C24.125 22.0649 24.2501 22.367 24.4728 22.5897C24.6955 22.8124 24.9976 22.9375 25.3125 22.9375H27.6875C28.0024 22.9375 28.3045 22.8124 28.5272 22.5897C28.7499 22.367 28.875 22.0649 28.875 21.75C28.875 21.4351 28.7499 21.133 28.5272 20.9103C28.3045 20.6876 28.0024 20.5625 27.6875 20.5625Z" fill="#B8C7F7"/>
<path d="M27.6875 25.3125H25.3125C24.9976 25.3125 24.6955 25.4376 24.4728 25.6603C24.2501 25.883 24.125 26.1851 24.125 26.5C24.125 26.8149 24.2501 27.117 24.4728 27.3397C24.6955 27.5624 24.9976 27.6875 25.3125 27.6875H27.6875C28.0024 27.6875 28.3045 27.5624 28.5272 27.3397C28.7499 27.117 28.875 26.8149 28.875 26.5C28.875 26.1851 28.7499 25.883 28.5272 25.6603C28.3045 25.4376 28.0024 25.3125 27.6875 25.3125Z" fill="#B8C7F7"/>
</svg>
