<svg width="38" height="37" viewBox="0 0 38 37" fill="none" xmlns="http://www.w3.org/2000/svg">
<path d="M0.962499 18.5L0.962501 18.5006C0.979436 28.3576 8.9703 36.3416 18.8272 36.35L18.8278 36.35C28.6861 36.3415 36.6709 28.3429 36.6625 18.4847C36.654 8.62637 28.6554 0.641503 18.7971 0.650007C8.94484 0.658511 0.9625 8.6477 0.962499 18.5ZM18.7978 34.1426C10.1644 34.1345 3.16998 27.1336 3.1698 18.5003C3.18621 9.86198 10.1893 2.86564 18.8275 2.8573C27.4666 2.86564 34.4633 9.87561 34.4551 18.5147C34.447 27.1539 27.4369 34.1508 18.7978 34.1426Z" fill="#B8C7F7" stroke="#B8C7F7" stroke-width="0.7"/>
<path d="M23.4136 26.1009L23.4139 26.1022C23.4288 26.175 23.4363 26.2492 23.4362 26.3235C23.4362 26.3236 23.4362 26.3238 23.4362 26.3239L23.0862 26.3234C23.0862 26.7397 22.7486 27.077 22.3324 27.077L23.4136 26.1009ZM23.4136 26.1009L21.6505 17.667C23.5444 16.1747 23.9539 13.4425 22.5426 11.4543C21.0862 9.40278 18.2425 8.9203 16.191 10.3766C14.1394 11.833 13.657 14.6767 15.1133 16.7282L15.1133 16.7282C15.3647 17.0823 15.6652 17.3984 16.0055 17.667L14.2422 26.1161L14.2422 26.1161L14.2415 26.1194C14.178 26.4388 14.2587 26.77 14.4622 27.0243L14.4622 27.0244L14.4665 27.0296C14.6786 27.2843 14.9939 27.4301 15.3252 27.427H22.3324M23.4136 26.1009L22.3324 27.427M22.3324 27.427C22.3324 27.427 22.3324 27.427 22.3324 27.427H22.3324ZM20.9668 25.2346H16.673L18.3039 17.3806L18.3039 17.3806L18.3047 17.3769C18.399 16.8963 18.1654 16.4109 17.7307 16.185L17.7306 16.1849C16.5798 15.5872 16.1313 14.1697 16.729 13.0188C17.3267 11.868 18.7442 11.4195 19.8951 12.0172C21.0459 12.6149 21.4944 14.0324 20.8967 15.1833L20.8967 15.1833C20.674 15.6121 20.3243 15.9619 19.8955 16.1847C19.4526 16.413 19.2175 16.9099 19.3221 17.3973C19.3222 17.3976 19.3222 17.398 19.3223 17.3983L20.9668 25.2346Z" fill="#B8C7F7" stroke="#B8C7F7" stroke-width="0.7"/>
</svg>
