<svg width="30" height="30" viewBox="0 0 30 30" fill="none" xmlns="http://www.w3.org/2000/svg">
<path d="M25.2639 25.7635C24.5424 25.7635 23.9271 26.2262 23.6987 26.8704H17.3215L15.6727 23.1599C15.5486 22.8806 15.2214 22.7548 14.9421 22.8788C14.6628 23.003 14.537 23.33 14.6611 23.6094L16.456 27.6486C16.5448 27.8485 16.7431 27.9773 16.9618 27.9773H23.6987C23.9272 28.6215 24.5424 29.0843 25.2639 29.0843C26.1795 29.0843 26.9244 28.3394 26.9244 27.4239C26.9244 26.5083 26.1794 25.7635 25.2639 25.7635ZM25.2639 27.9774C24.9587 27.9774 24.7104 27.7291 24.7104 27.4239C24.7104 27.1187 24.9587 26.8704 25.2639 26.8704C25.5691 26.8704 25.8174 27.1187 25.8174 27.4239C25.8174 27.7291 25.5691 27.9774 25.2639 27.9774Z" fill="white" stroke="white" stroke-width="0.5"/>
<path d="M14.5442 18.8904C14.2637 18.7691 13.9379 18.8984 13.8166 19.179C13.6954 19.4595 13.8246 19.7853 14.1052 19.9066C15.2013 20.3801 15.8556 21.0178 15.8556 21.6124C15.8556 22.2012 15.2381 22.6831 14.8696 22.9183C13.7094 23.6601 11.8021 24.103 9.76743 24.103C6.17959 24.103 3.67921 22.7904 3.67921 21.6124C3.67921 21.0178 4.33359 20.3801 5.42963 19.9066C5.71024 19.7854 5.83942 19.4596 5.71821 19.179C5.59706 18.8984 5.27128 18.7692 4.99062 18.8904C3.43115 19.5642 2.57227 20.5309 2.57227 21.6124C2.57227 24.2543 7.07743 25.2066 9.76743 25.21C11.8958 25.2127 14.0323 24.7675 15.4654 23.8511C16.7028 23.0616 16.9626 22.1979 16.9626 21.6124C16.9626 20.5309 16.1037 19.5642 14.5442 18.8904Z" fill="white" stroke="white" stroke-width="0.5"/>
<path d="M25.2646 8.60583C24.5431 8.60583 23.9278 9.06859 23.6993 9.71278H18.6229C18.4648 9.71278 18.3143 9.78042 18.2092 9.89853L15.9953 12.3892C15.7922 12.6176 15.8128 12.9674 16.0412 13.1705C16.2708 13.3746 16.6206 13.3518 16.8226 13.1246L18.8714 10.8197H23.6993C23.9278 11.4639 24.543 11.9267 25.2646 11.9267C26.1801 11.9267 26.925 11.1818 26.925 10.2663C26.925 9.3507 26.1801 8.60583 25.2646 8.60583ZM25.2646 10.8197C24.9594 10.8197 24.7111 10.5714 24.7111 10.2663C24.7111 9.96107 24.9594 9.71278 25.2646 9.71278C25.5697 9.71278 25.818 9.96107 25.818 10.2663C25.818 10.5714 25.5697 10.8197 25.2646 10.8197Z" fill="white" stroke="white" stroke-width="0.5"/>
<path d="M25.2647 18.0149C24.5432 18.0149 23.9279 18.4776 23.6995 19.1218H18.8715L16.9496 16.9597C16.8386 15.9695 15.9947 15.0894 14.5442 14.4627C14.2636 14.3414 13.9379 14.4707 13.8166 14.7513C13.6954 15.0319 13.8246 15.3576 14.1052 15.4789C15.2013 15.9524 15.8556 16.5901 15.8556 17.1846C15.8556 17.7792 15.2013 18.4169 14.1048 18.8906C11.6859 19.9379 7.8466 19.9368 5.42963 18.8905C4.33359 18.4169 3.67921 17.7792 3.67921 17.1846C3.67921 16.5901 4.33359 15.9524 5.42963 15.4788C5.71024 15.3576 5.83942 15.0319 5.71821 14.7512C5.59706 14.4706 5.27128 14.3414 4.99061 14.4627C3.43115 15.1365 2.57227 16.1032 2.57227 17.1846C2.57227 18.2661 3.43115 19.2328 4.99023 19.9065C7.68941 21.0751 11.8498 21.0733 14.5442 19.9066C15.5509 19.4717 16.2651 18.9146 16.6453 18.2835L18.2094 20.043C18.3144 20.1612 18.4649 20.2288 18.6231 20.2288H23.6995C23.928 20.8729 24.5432 21.3357 25.2648 21.3357C26.1803 21.3357 26.9252 20.5908 26.9252 19.6753C26.9252 18.7597 26.1803 18.0149 25.2647 18.0149ZM25.2647 20.2288C24.9595 20.2288 24.7112 19.9805 24.7112 19.6753C24.7112 19.3701 24.9595 19.1218 25.2647 19.1218C25.5699 19.1218 25.8182 19.3701 25.8182 19.6753C25.8182 19.9805 25.5699 20.2288 25.2647 20.2288Z" fill="white" stroke="white" stroke-width="0.5"/>
<path d="M4.99023 15.4786C7.68941 16.6473 11.8498 16.6454 14.5442 15.4788C16.1037 14.805 16.9626 13.8383 16.9626 12.7568C16.9626 11.6753 16.1037 10.7086 14.5442 10.0348C14.2637 9.91354 13.9379 10.0428 13.8166 10.3234C13.6954 10.6039 13.8246 10.9297 14.1052 11.051C15.2013 11.5245 15.8556 12.1622 15.8556 12.7568C15.8556 13.3513 15.2013 13.989 14.1048 14.4628C11.6859 15.51 7.8466 15.509 5.42963 14.4626C4.33359 13.989 3.67921 13.3513 3.67921 12.7568C3.67921 12.1622 4.33359 11.5245 5.42963 11.051C5.71024 10.9298 5.83942 10.604 5.71821 10.3234C5.59706 10.0428 5.27128 9.91359 4.99062 10.0348C3.43115 10.7086 2.57227 11.6753 2.57227 12.7568C2.57227 13.8383 3.43115 14.805 4.99023 15.4786Z" fill="white" stroke="white" stroke-width="0.5"/>
<path d="M4.99023 11.0509C7.68941 12.2196 11.8498 12.2177 14.5442 11.0511C16.1037 10.3773 16.9626 9.41057 16.9626 8.32908C16.9626 7.81152 16.7591 7.07668 15.8574 6.36773L17.3223 3.07107H23.6995C23.928 3.71526 24.5431 4.17802 25.2647 4.17802C26.1803 4.17802 26.9251 3.43316 26.9251 2.5176C26.9251 1.60204 26.1803 0.857178 25.2647 0.857178C24.5432 0.857178 23.928 1.31994 23.6995 1.96413H16.9626C16.7439 1.96413 16.5457 2.09297 16.4568 2.29283L14.9091 5.77573C13.577 5.10769 11.7458 4.7315 9.76743 4.7315C7.08944 4.7315 2.57227 5.68557 2.57227 8.32908C2.57227 9.41057 3.43115 10.3773 4.99023 11.0509ZM25.2647 1.96413C25.5699 1.96413 25.8182 2.21241 25.8182 2.5176C25.8182 2.82279 25.5699 3.07107 25.2647 3.07107C24.9595 3.07107 24.7112 2.82279 24.7112 2.5176C24.7112 2.21241 24.9595 1.96413 25.2647 1.96413ZM9.76743 5.83844C11.8021 5.83844 13.7094 6.28133 14.8696 7.02315C14.8697 7.02327 14.8698 7.02338 14.87 7.02343C15.2381 7.25833 15.8556 7.74029 15.8556 8.32908C15.8556 8.92362 15.2013 9.56133 14.1048 10.035C11.6859 11.0823 7.8466 11.0813 5.42963 10.0349C4.33359 9.56133 3.67921 8.92362 3.67921 8.32908C3.67921 7.15106 6.17959 5.83844 9.76743 5.83844Z" fill="white" stroke="white" stroke-width="0.5"/>
</svg>
