<svg width="30" height="30" viewBox="0 0 30 30" fill="none" xmlns="http://www.w3.org/2000/svg">
<path d="M25.7751 24.1574H4.18791C2.91249 24.1574 1.875 23.1199 1.875 21.8445V5.39714C1.875 4.12172 2.91249 3.08423 4.18791 3.08423H8.56176C8.9874 3.08423 9.33274 3.42931 9.33274 3.8552C9.33274 4.28109 8.9874 4.62617 8.56176 4.62617H4.18791C3.76277 4.62617 3.41694 4.972 3.41694 5.39714V21.8445C3.41694 22.2696 3.76277 22.6155 4.18791 22.6155H25.7751C26.2002 22.6155 26.5461 22.2696 26.5461 21.8445V5.39714C26.5461 4.972 26.2002 4.62617 25.7751 4.62617H24.7471C24.3215 4.62617 23.9762 4.28109 23.9762 3.8552C23.9762 3.42931 24.3215 3.08423 24.7471 3.08423H25.7751C27.0505 3.08423 28.088 4.12172 28.088 5.39714V21.8445C28.088 23.1199 27.0505 24.1574 25.7751 24.1574Z" fill="white"/>
<path d="M19.0942 29.297H10.8705C10.6396 29.297 10.4208 29.1933 10.2742 29.0149C10.1276 28.8362 10.0694 28.6013 10.1146 28.3749L11.1425 23.2351C11.2143 22.8747 11.531 22.6152 11.8984 22.6152H18.0662C18.4336 22.6152 18.7503 22.8747 18.8221 23.2351L19.8501 28.3749C19.8953 28.6013 19.837 28.8362 19.6905 29.0149C19.5439 29.1933 19.3251 29.297 19.0942 29.297ZM11.8111 27.755H18.1536L17.4343 24.1572H12.5304L11.8111 27.755Z" fill="white"/>
<path d="M22.178 29.2968H7.7866C7.36096 29.2968 7.01562 28.9517 7.01562 28.5259C7.01562 28.1 7.36096 27.7549 7.7866 27.7549H22.178C22.6037 27.7549 22.949 28.1 22.949 28.5259C22.949 28.9517 22.6037 29.2968 22.178 29.2968Z" fill="white"/>
<path d="M27.317 19.0173H2.64597C2.22033 19.0173 1.875 18.6722 1.875 18.2463C1.875 17.8204 2.22033 17.4753 2.64597 17.4753H27.317C27.7427 17.4753 28.088 17.8204 28.088 18.2463C28.088 18.6722 27.7427 19.0173 27.317 19.0173Z" fill="white"/>
<path d="M15.2381 21.5872H14.7241C14.2985 21.5872 13.9531 21.2421 13.9531 20.8163C13.9531 20.3904 14.2985 20.0453 14.7241 20.0453H15.2381C15.6637 20.0453 16.009 20.3904 16.009 20.8163C16.009 21.2421 15.6637 21.5872 15.2381 21.5872Z" fill="white"/>
<path d="M19.6592 14.3914H10.3142C8.92288 14.3914 7.79102 13.2596 7.79102 11.8682V2.52322C7.79102 1.13186 8.92288 0 10.3142 0H19.6592C21.0506 0 22.1825 1.13186 22.1825 2.52322V11.8682C22.1825 13.2596 21.0506 14.3914 19.6592 14.3914ZM10.3142 1.54194C9.77315 1.54194 9.33296 1.98214 9.33296 2.52322V11.8682C9.33296 12.4093 9.77315 12.8495 10.3142 12.8495H19.6592C20.2003 12.8495 20.6405 12.4093 20.6405 11.8682V2.52322C20.6405 1.98214 20.2003 1.54194 19.6592 1.54194H10.3142Z" fill="white"/>
<path d="M14.98 11.8219C14.5543 11.8219 14.209 11.4768 14.209 11.0509V3.8552C14.209 3.42931 14.5543 3.08423 14.98 3.08423C15.4056 3.08423 15.7509 3.42931 15.7509 3.8552V11.0509C15.7509 11.4768 15.4056 11.8219 14.98 11.8219Z" fill="white"/>
<path d="M15.6223 6.16816H14.3374C13.9117 6.16816 13.5664 5.82308 13.5664 5.39719C13.5664 4.9713 13.9117 4.62622 14.3374 4.62622H15.6223C16.048 4.62622 16.3933 4.9713 16.3933 5.39719C16.3933 5.82308 16.048 6.16816 15.6223 6.16816Z" fill="white"/>
<path d="M11.5757 11.8219C11.15 11.8219 10.8047 11.4768 10.8047 11.0509V3.8552C10.8047 3.42931 11.15 3.08423 11.5757 3.08423C12.0013 3.08423 12.3466 3.42931 12.3466 3.8552V11.0509C12.3466 11.4768 12.0013 11.8219 11.5757 11.8219Z" fill="white"/>
<path d="M18.3862 11.8219C17.9606 11.8219 17.6152 11.4768 17.6152 11.0509V3.8552C17.6152 3.42931 17.9606 3.08423 18.3862 3.08423C18.8118 3.08423 19.1572 3.42931 19.1572 3.8552V11.0509C19.1572 11.4768 18.8118 11.8219 18.3862 11.8219Z" fill="white"/>
<path d="M12.218 10.7939H10.9331C10.5074 10.7939 10.1621 10.4488 10.1621 10.0229C10.1621 9.59703 10.5074 9.25195 10.9331 9.25195H12.218C12.6437 9.25195 12.989 9.59703 12.989 10.0229C12.989 10.4488 12.6437 10.7939 12.218 10.7939Z" fill="white"/>
<path d="M19.0286 8.73799H17.7436C17.318 8.73799 16.9727 8.3929 16.9727 7.96702C16.9727 7.54113 17.318 7.19604 17.7436 7.19604H19.0286C19.4542 7.19604 19.7995 7.54113 19.7995 7.96702C19.7995 8.3929 19.4542 8.73799 19.0286 8.73799Z" fill="white"/>
</svg>
