<svg width="30" height="30" viewBox="0 0 30 30" fill="none" xmlns="http://www.w3.org/2000/svg">
<g clip-path="url(#clip0_5961_1002)">
<path d="M11.4323 14.5323C11.1722 14.2669 10.7463 14.2629 10.4809 14.5231L7.51208 17.4362C7.38333 17.5628 7.31055 17.7357 7.31055 17.9165C7.31055 18.097 7.38333 18.2702 7.51208 18.3966L10.4809 21.3097C10.7463 21.5701 11.1722 21.5659 11.4323 21.3008C11.6925 21.0356 11.6885 20.6097 11.4234 20.3496L8.94381 17.9165L11.4234 15.4834C11.6885 15.2233 11.6925 14.7974 11.4323 14.5323Z" fill="white"/>
<path d="M19.0813 14.5229C18.8162 14.2627 18.3903 14.2667 18.1299 14.5318C17.8698 14.7972 17.874 15.2231 18.1391 15.4832L20.6184 17.9163L18.1391 20.3494C17.874 20.6095 17.8698 21.0354 18.1299 21.3005C18.3903 21.5657 18.8162 21.5699 19.0813 21.3095L22.0502 18.3963C22.1792 18.27 22.2517 18.0968 22.2517 17.9163C22.2517 17.7355 22.1792 17.5626 22.0502 17.436L19.0813 14.5229Z" fill="white"/>
<path d="M16.0877 12.239C15.7278 12.1476 15.3615 12.3651 15.27 12.7251L12.6966 22.8484C12.6052 23.2086 12.8228 23.5747 13.183 23.6661C13.543 23.7578 13.909 23.54 14.0007 23.18L16.5738 13.0567C16.6655 12.6967 16.4477 12.3304 16.0877 12.239Z" fill="white"/>
<path d="M26.6368 0.87439H3.36323C1.50662 0.876492 0.00210202 2.38101 0 4.23762V25.7145C0.00210202 27.5711 1.50662 29.0756 3.36323 29.0777H26.6368C28.4934 29.0756 29.9979 27.5711 30 25.7145V4.23762C29.9979 2.38101 28.4934 0.876492 26.6368 0.87439ZM3.36323 2.21968H26.6368C27.7508 2.22099 28.6534 3.12355 28.6547 4.23762V7.67862H1.34529V4.23762C1.34661 3.12355 2.24916 2.22099 3.36323 2.21968ZM26.6368 27.7324H3.36323C2.24916 27.7311 1.34661 26.8285 1.34529 25.7145V9.02391H28.6547V25.7145C28.6534 26.8285 27.7508 27.7311 26.6368 27.7324Z" fill="white"/>
</g>
<defs>
<clipPath id="clip0_5961_1002">
<rect width="30" height="30" fill="white"/>
</clipPath>
</defs>
</svg>
