<svg width="30" height="30" viewBox="0 0 30 30" fill="none" xmlns="http://www.w3.org/2000/svg">
<g clip-path="url(#clip0_5961_864)">
<g clip-path="url(#clip1_5961_864)">
<path d="M12.5291 6.78239C12.2064 6.48788 12.2064 6.01082 12.5291 5.71725C12.8518 5.42274 13.3745 5.42274 13.6961 5.71725L14.0806 6.06822V2.25368C14.0806 1.83779 14.4497 1.5 14.9064 1.5C15.3631 1.5 15.7321 1.83685 15.7321 2.25368V6.06822L16.1166 5.71725C16.4393 5.42274 16.962 5.42274 17.2836 5.71725C17.6063 6.01176 17.6063 6.48882 17.2836 6.78239L15.4899 8.41961C15.4703 8.43749 15.4507 8.45348 15.4301 8.46948C15.4259 8.4723 15.4208 8.47513 15.4167 8.47889C15.4002 8.49112 15.3826 8.50336 15.3651 8.51371C15.361 8.51653 15.3569 8.51841 15.3528 8.52029C15.3342 8.53158 15.3156 8.54193 15.2961 8.55134C15.293 8.55228 15.2899 8.55417 15.2878 8.55511C15.2672 8.56546 15.2455 8.57487 15.2229 8.58333C15.2208 8.58428 15.2187 8.58428 15.2167 8.58522C15.194 8.59369 15.1703 8.60121 15.1466 8.6078C15.1445 8.60874 15.1424 8.60874 15.1404 8.60968C15.1167 8.61627 15.093 8.62191 15.0693 8.62568C15.0631 8.62662 15.0569 8.62756 15.0507 8.6285C15.0301 8.63132 15.0095 8.63509 14.9888 8.63697C14.962 8.63979 14.9342 8.64073 14.9064 8.64073C14.8785 8.64073 14.8517 8.63979 14.8239 8.63697C14.8033 8.63509 14.7827 8.63226 14.762 8.6285C14.7559 8.62756 14.7497 8.62662 14.7435 8.62568C14.7187 8.62097 14.695 8.61533 14.6724 8.60968C14.6703 8.60874 14.6682 8.60874 14.6662 8.6078C14.6425 8.60121 14.6187 8.59369 14.5961 8.58522C14.594 8.58428 14.5919 8.58428 14.5899 8.58333C14.5682 8.57487 14.5466 8.56546 14.5249 8.55511C14.5218 8.55417 14.5188 8.55228 14.5167 8.55134C14.4971 8.54193 14.4785 8.53064 14.46 8.52029C14.4559 8.51747 14.4517 8.51559 14.4476 8.51371C14.4301 8.50241 14.4126 8.49112 14.3961 8.47889C14.3919 8.47607 14.3868 8.47324 14.3827 8.46948C14.3621 8.45348 14.3414 8.43749 14.3229 8.41961L12.5291 6.78239Z" fill="white"/>
</g>
<g clip-path="url(#clip2_5961_864)">
<path d="M20.6971 6.78239C20.3744 6.48788 20.3744 6.01082 20.6971 5.71725C21.0198 5.42274 21.5424 5.42274 21.8641 5.71725L22.2486 6.06822V2.25368C22.2486 1.83779 22.6176 1.5 23.0743 1.5C23.531 1.5 23.9001 1.83685 23.9001 2.25368V6.06822L24.2846 5.71725C24.6073 5.42274 25.13 5.42274 25.4516 5.71725C25.7743 6.01176 25.7743 6.48882 25.4516 6.78239L23.6578 8.41961C23.6382 8.43749 23.6187 8.45348 23.598 8.46948C23.5939 8.4723 23.5888 8.47513 23.5846 8.47889C23.5681 8.49112 23.5506 8.50336 23.5331 8.51371C23.529 8.51653 23.5248 8.51841 23.5207 8.52029C23.5022 8.53158 23.4836 8.54193 23.464 8.55134C23.4609 8.55228 23.4578 8.55417 23.4558 8.55511C23.4352 8.56546 23.4135 8.57487 23.3908 8.58333C23.3888 8.58428 23.3867 8.58428 23.3846 8.58522C23.362 8.59369 23.3382 8.60121 23.3145 8.6078C23.3125 8.60874 23.3104 8.60874 23.3084 8.60968C23.2846 8.61627 23.2609 8.62191 23.2372 8.62568C23.231 8.62662 23.2248 8.62756 23.2187 8.6285C23.198 8.63132 23.1774 8.63509 23.1568 8.63697C23.13 8.63979 23.1022 8.64073 23.0743 8.64073C23.0465 8.64073 23.0197 8.63979 22.9919 8.63697C22.9712 8.63509 22.9506 8.63226 22.93 8.6285C22.9238 8.62756 22.9176 8.62662 22.9115 8.62568C22.8867 8.62097 22.863 8.61533 22.8403 8.60968C22.8383 8.60874 22.8362 8.60874 22.8341 8.6078C22.8104 8.60121 22.7867 8.59369 22.764 8.58522C22.762 8.58428 22.7599 8.58428 22.7579 8.58333C22.7362 8.57487 22.7146 8.56546 22.6929 8.55511C22.6898 8.55417 22.6867 8.55228 22.6847 8.55134C22.6651 8.54193 22.6465 8.53064 22.628 8.52029C22.6238 8.51747 22.6197 8.51559 22.6156 8.51371C22.5981 8.50241 22.5805 8.49112 22.564 8.47889C22.5599 8.47607 22.5548 8.47324 22.5506 8.46948C22.53 8.45348 22.5094 8.43749 22.4908 8.41961L20.6971 6.78239Z" fill="white"/>
</g>
<g clip-path="url(#clip3_5961_864)">
<path d="M4.24982 6.78239C3.92714 6.48788 3.92714 6.01082 4.24982 5.71725C4.57249 5.42274 5.09516 5.42274 5.4168 5.71725L5.80132 6.06822V2.25368C5.80132 1.83779 6.17038 1.5 6.62707 1.5C7.08376 1.5 7.45282 1.83685 7.45282 2.25368V6.06822L7.83735 5.71725C8.16002 5.42274 8.68269 5.42274 9.00433 5.71725C9.327 6.01176 9.327 6.48882 9.00433 6.78239L7.21056 8.41961C7.19098 8.43749 7.17139 8.45348 7.15077 8.46948C7.14665 8.4723 7.14149 8.47513 7.13737 8.47889C7.12087 8.49112 7.10335 8.50336 7.08582 8.51371C7.0817 8.51653 7.07758 8.51841 7.07345 8.52029C7.0549 8.53158 7.03634 8.54193 7.01675 8.55134C7.01366 8.55228 7.01057 8.55417 7.00851 8.55511C6.98789 8.56546 6.96624 8.57487 6.94356 8.58333C6.9415 8.58428 6.93944 8.58428 6.93737 8.58522C6.91469 8.59369 6.89098 8.60121 6.86727 8.6078C6.86521 8.60874 6.86315 8.60874 6.86109 8.60968C6.83737 8.61627 6.81367 8.62191 6.78996 8.62568C6.78377 8.62662 6.77758 8.62756 6.7714 8.6285C6.75078 8.63132 6.73016 8.63509 6.70954 8.63697C6.68274 8.63979 6.65491 8.64073 6.62707 8.64073C6.59924 8.64073 6.57244 8.63979 6.5446 8.63697C6.52398 8.63509 6.50336 8.63226 6.48275 8.6285C6.47656 8.62756 6.47038 8.62662 6.46419 8.62568C6.43945 8.62097 6.41574 8.61533 6.39306 8.60968C6.391 8.60874 6.38893 8.60874 6.38687 8.6078C6.36316 8.60121 6.33945 8.59369 6.31677 8.58522C6.31471 8.58428 6.31265 8.58428 6.31059 8.58333C6.28894 8.57487 6.26729 8.56546 6.24564 8.55511C6.24255 8.55417 6.23946 8.55228 6.23739 8.55134C6.21781 8.54193 6.19925 8.53064 6.18069 8.52029C6.17657 8.51747 6.17245 8.51559 6.16832 8.51371C6.1508 8.50241 6.13327 8.49112 6.11678 8.47889C6.11265 8.47607 6.1075 8.47324 6.10337 8.46948C6.08276 8.45348 6.06214 8.43749 6.04358 8.41961L4.24982 6.78239Z" fill="white"/>
</g>
</g>
<path d="M5.89726 27.8466H23.3757C24.48 27.8466 25.3784 27.081 25.3784 26.1215V21.0686C25.3784 21.0301 25.3697 20.992 25.3526 20.9563L21.9591 13.8662C21.6659 13.194 20.9142 12.7502 20.0864 12.7502H9.18638C8.35837 12.7502 7.60663 13.194 7.31344 13.8664L3.92031 20.9601C3.90324 20.9945 3.89453 21.0314 3.89453 21.0686V26.1215C3.89453 27.081 4.79295 27.8466 5.89726 27.8466ZM7.99228 14.087C7.9937 14.0837 7.9953 14.084 7.99654 14.0809C8.18448 13.6459 8.66258 13.3571 9.18638 13.3571H20.0864C20.6102 13.3571 21.0883 13.6416 21.276 14.0768C21.2775 14.08 21.2789 14.0876 21.2807 14.0907L24.4999 20.8295H21.6005V17.7839C21.6005 17.6163 21.4193 17.4916 21.2182 17.4916H19.9619V15.3274C19.9619 15.1599 19.7807 15.0261 19.5796 15.0261H9.69328C9.49219 15.0261 9.31102 15.1599 9.31102 15.3274V17.4916H8.32778C8.12669 17.4916 7.94552 17.6163 7.94552 17.7839V20.8295H4.77304L7.99228 14.087ZM19.2337 17.4916H10.0393V15.633H19.2337V17.4916ZM20.8722 18.0985V20.8295H8.67378V18.0985H20.8722ZM4.6228 21.4363H24.6501V26.1215C24.6501 26.7466 24.0783 27.2397 23.3757 27.2397H5.89726C5.1946 27.2397 4.6228 26.7466 4.6228 26.1215V21.4363Z" fill="white" stroke="white"/>
<path d="M10.4032 25.6845H18.8693C19.0704 25.6845 19.2334 25.5487 19.2334 25.3811V23.1811C19.2334 23.0136 19.0704 22.8777 18.8693 22.8777H10.4032C10.2021 22.8777 10.0391 23.0136 10.0391 23.1811V25.3811C10.0391 25.5487 10.2021 25.6845 10.4032 25.6845ZM10.7673 23.4846H18.5052V25.0777H10.7673V23.4846Z" fill="white" stroke="white"/>
<defs>
<clipPath id="clip0_5961_864">
<rect width="23.2742" height="8.05645" fill="white" transform="translate(3 1.5)"/>
</clipPath>
<clipPath id="clip1_5961_864">
<rect width="5.79316" height="7.63761" fill="white" transform="translate(11.9512 1.5)"/>
</clipPath>
<clipPath id="clip2_5961_864">
<rect width="5.79316" height="7.63761" fill="white" transform="translate(20.1191 1.5)"/>
</clipPath>
<clipPath id="clip3_5961_864">
<rect width="5.79316" height="7.63761" fill="white" transform="translate(3.67188 1.5)"/>
</clipPath>
</defs>
</svg>
