<svg width="30" height="30" viewBox="0 0 30 30" fill="none" xmlns="http://www.w3.org/2000/svg">
<g clip-path="url(#clip0_5961_1314)">
<path d="M15 0C12.0333 0 9.13319 0.879735 6.66645 2.52796C4.19972 4.17618 2.27713 6.51886 1.14181 9.25975C0.00649929 12.0006 -0.290551 15.0166 0.288228 17.9264C0.867006 20.8361 2.29562 23.5088 4.3934 25.6066C6.49119 27.7044 9.16394 29.133 12.0737 29.7118C14.9834 30.2906 17.9994 29.9935 20.7403 28.8582C23.4811 27.7229 25.8238 25.8003 27.472 23.3336C29.1203 20.8668 30 17.9667 30 15C29.9957 11.0231 28.414 7.21026 25.6019 4.39815C22.7897 1.58604 18.9769 0.00430135 15 0ZM15 27.5C12.5277 27.5 10.111 26.7669 8.05538 25.3934C5.99976 24.0199 4.39761 22.0676 3.45151 19.7835C2.50542 17.4995 2.25788 14.9861 2.74019 12.5614C3.22251 10.1366 4.41302 7.90932 6.16117 6.16117C7.90933 4.41301 10.1366 3.2225 12.5614 2.74018C14.9861 2.25787 17.4995 2.50541 19.7836 3.45151C22.0676 4.3976 24.0199 5.99976 25.3934 8.05537C26.7669 10.111 27.5 12.5277 27.5 15C27.4964 18.3141 26.1782 21.4914 23.8348 23.8348C21.4914 26.1782 18.3141 27.4964 15 27.5Z" fill="white"/>
<path d="M16.252 14.4826V7.50012C16.252 7.1686 16.1203 6.85066 15.8858 6.61624C15.6514 6.38182 15.3335 6.25012 15.002 6.25012C14.6704 6.25012 14.3525 6.38182 14.1181 6.61624C13.8836 6.85066 13.752 7.1686 13.752 7.50012V15.0001C13.752 15.3316 13.8838 15.6495 14.1182 15.8839L17.8682 19.6339C18.104 19.8616 18.4197 19.9876 18.7475 19.9847C19.0752 19.9819 19.3887 19.8504 19.6205 19.6186C19.8522 19.3869 19.9837 19.0734 19.9865 18.7456C19.9894 18.4179 19.8634 18.1021 19.6357 17.8664L16.252 14.4826Z" fill="white"/>
</g>
<defs>
<clipPath id="clip0_5961_1314">
<rect width="30" height="30" fill="white"/>
</clipPath>
</defs>
</svg>
