<svg width="288" height="16" viewBox="0 0 288 16" fill="none" xmlns="http://www.w3.org/2000/svg">
<path d="M288 8L1.00001 8" stroke="#5072EB" stroke-dasharray="2 2"/>
<path d="M274 8L-1.04904e-05 8" stroke="#5072EB" stroke-opacity="0.15" stroke-width="15"/>
<path d="M142.136 11.9728C142.021 11.9457 141.935 11.8914 141.863 11.8099C141.791 11.742 141.719 11.6742 141.648 11.6063C141.461 11.4162 141.446 11.1718 141.633 10.9818C141.662 10.9546 141.676 10.9274 141.705 10.9138C142.697 9.97706 143.689 9.04031 144.681 8.10353C144.811 7.98134 144.811 8.00849 144.681 7.8863C143.689 6.94951 142.697 6.01272 141.705 5.07593C141.576 4.95375 141.504 4.83156 141.518 4.65506C141.533 4.54645 141.576 4.4514 141.662 4.38352C141.748 4.30206 141.82 4.2342 141.906 4.15274C142.122 3.94909 142.395 3.94909 142.611 4.15274C143.114 4.62792 143.603 5.08953 144.106 5.56471C144.839 6.25712 145.573 6.94952 146.306 7.64193C146.565 7.88631 146.565 8.13066 146.306 8.37503C145.098 9.51547 143.876 10.6695 142.668 11.8099C142.582 11.8914 142.496 11.9593 142.366 12C142.28 11.9728 142.208 11.9728 142.136 11.9728Z" fill="#5072EB"/>
</svg>
