<svg width="1266" height="378" viewBox="0 0 1266 378" fill="none" xmlns="http://www.w3.org/2000/svg">
	<path d="M2331.29 47.7877C2328.97 41.9773 2326.57 36.104 2324.08 30.1622C2330.42 42.0344 2336.37 53.6153 2342.08 65.0305C2338.56 59.3344 2334.96 53.5867 2331.29 47.7877ZM2294.06 -26.3538C2290.66 -35.8665 2287.06 -45.5334 2283.26 -55.3603C2293.18 -35.438 2302.24 -16.1727 2310.6 2.55548C2305.3 -6.9286 2299.75 -16.5841 2294.06 -26.3538ZM2306.07 8.99438C2303.1 -0.255463 2299.94 -9.65956 2296.58 -19.2236C2303.82 -6.68864 2310.68 5.57782 2317.26 17.6443C2320.71 25.6315 2324.03 33.5273 2327.17 41.286C2320.41 30.7107 2313.33 19.9182 2306.07 8.99438ZM2261.06 -101.381C2259.07 -107.643 2256.94 -114.025 2254.8 -120.423C2260.39 -107.763 2265.69 -95.3477 2270.7 -83.1555C2267.57 -89.1545 2264.31 -95.2734 2261.06 -101.381ZM2272.79 -61.9592C2269.81 -72.5859 2266.63 -83.3784 2263.2 -94.3936C2267.83 -85.6237 2272.32 -76.9623 2276.67 -68.4095C2281.5 -56.2858 2286.05 -44.385 2290.31 -32.7242C2284.66 -42.3282 2278.81 -52.0751 2272.79 -61.9592ZM2282.08 -26.3424C2279.67 -36.375 2277.07 -46.5732 2274.19 -57C2280.61 -46.419 2286.86 -35.9522 2292.84 -25.6854C2296.55 -15.3272 2300.03 -5.15176 2303.29 4.84082C2296.45 -5.39743 2289.38 -15.7956 2282.08 -26.3424ZM2229.57 -178.185C2226.92 -187.812 2224.11 -197.576 2221.15 -207.483C2229.3 -187.223 2236.83 -167.484 2243.69 -148.333C2239.15 -158.148 2234.44 -168.101 2229.57 -178.185ZM2239.08 -141.603C2236.73 -151.212 2234.24 -160.965 2231.57 -170.872C2237.5 -158.468 2243.18 -146.27 2248.6 -134.278C2251.6 -125.605 2254.46 -117.058 2257.22 -108.597C2251.38 -119.441 2245.35 -130.433 2239.08 -141.603ZM2248.05 -101.672C2245.71 -113.093 2243.13 -124.743 2240.29 -136.621C2247.06 -124.497 2253.49 -112.625 2259.74 -100.895C2263.47 -89.1545 2266.87 -77.6993 2270.06 -66.4155C2262.96 -77.9964 2255.67 -89.7201 2248.05 -101.672ZM2254.83 -65.0729C2253.07 -75.7854 2251.07 -86.7092 2248.83 -97.8559C2256.66 -85.5208 2264.2 -73.3972 2271.47 -61.4621C2274.49 -50.6411 2277.3 -39.9915 2279.86 -29.559C2271.77 -41.2199 2263.48 -53.0235 2254.83 -65.0729ZM2210.96 -215.761C2208.73 -226.759 2206.34 -237.923 2203.74 -249.281C2207.78 -239.889 2211.68 -230.61 2215.46 -221.435C2219.28 -209.111 2222.86 -197.005 2226.21 -185.109C2221.29 -195.193 2216.21 -205.409 2210.96 -215.761ZM2217.87 -178.516C2216.1 -189.052 2214.15 -199.753 2212 -210.654C2217.62 -199.518 2223.04 -188.543 2228.27 -177.716C2231.23 -166.964 2234 -156.394 2236.57 -145.99C2230.55 -156.68 2224.3 -167.53 2217.87 -178.516ZM2223.85 -138.917C2222.32 -150.607 2220.5 -162.588 2218.5 -174.751C2225.12 -163.382 2231.59 -152.138 2237.79 -141.094C2240.77 -128.816 2243.5 -116.778 2245.96 -104.986C2238.84 -116.116 2231.42 -127.462 2223.85 -138.917ZM2227.88 -101.964C2226.89 -113.053 2225.67 -124.36 2224.21 -135.912C2231.97 -124.143 2239.47 -112.568 2246.75 -101.147C2249.08 -89.743 2251.17 -78.5563 2253.01 -67.6039C2244.9 -78.8705 2236.48 -90.36 2227.88 -101.964ZM2194.64 -217.464C2193.56 -228.639 2192.3 -240.003 2190.83 -251.584C2197.32 -239.317 2203.59 -227.234 2209.63 -215.327C2211.92 -203.981 2214.03 -192.794 2215.92 -181.836C2209.05 -193.542 2201.97 -205.415 2194.64 -217.464ZM2197.69 -177.751C2197.02 -189.68 2196.13 -201.844 2194.96 -214.282C2202.39 -202.032 2209.59 -189.96 2216.54 -178.071C2218.63 -165.667 2220.5 -153.475 2222.09 -141.557C2214.21 -153.435 2206.06 -165.513 2197.69 -177.751ZM2199.06 -140.226C2198.89 -151.607 2198.49 -163.233 2197.85 -175.105C2206.31 -162.725 2214.55 -150.493 2222.5 -138.477C2224.01 -126.777 2225.25 -115.339 2226.27 -104.123C2217.46 -115.973 2208.38 -128.022 2199.06 -140.226ZM2171.1 -216.064C2171.28 -228.205 2171.21 -240.62 2170.93 -253.281C2178.64 -241.014 2186.05 -228.959 2193.31 -217.03C2194.51 -204.415 2195.47 -192.063 2196.18 -179.962C2188.05 -191.834 2179.7 -203.855 2171.1 -216.064ZM2169.72 -178.156C2170.38 -189.766 2170.84 -201.621 2171.05 -213.745C2179.72 -201.427 2188.14 -189.286 2196.33 -177.311C2197.01 -165.313 2197.45 -153.566 2197.65 -142.071C2188.58 -153.938 2179.28 -165.958 2169.72 -178.156ZM2139.67 -216.058C2141.2 -227.856 2142.5 -239.929 2143.59 -252.258C2152.55 -239.877 2161.22 -227.702 2169.72 -215.653C2169.52 -203.443 2169.08 -191.514 2168.41 -179.825C2159.06 -191.754 2149.5 -203.809 2139.67 -216.058ZM2013.2 -256.617C1881.12 39.6292 1621.45 132.505 1305.84 104.881C990.05 77.2398 618.25 -71.0148 262.199 -256.943L261.548 -255.754C617.742 -69.7521 989.713 78.5596 1305.72 106.218C1621.92 133.893 1882.1 40.8061 2014.46 -256.08L2013.2 -256.617ZM1953.1 -256.68C1816.56 -23.3201 1600.68 68.6813 1345.14 68.6813C1030.86 68.6813 656.584 -70.4434 296.071 -256.949L295.426 -255.754C656.11 -69.1636 1030.6 70.0297 1345.14 70.0297C1601.17 70.0297 1817.46 -22.166 1954.29 -256.023L1953.1 -256.68ZM1884.55 -256.743C1734.27 -53.1892 1523.42 28.1454 1282.42 28.1454C990.644 28.1454 654.647 -91.057 328.384 -256.949L327.744 -255.754C654.185 -89.7772 990.393 29.4937 1282.42 29.4937C1523.85 29.4937 1735.08 -52.0009 1885.66 -255.96L1884.55 -256.743ZM1806.76 -256.794C1648.16 -82.8127 1445.08 -12.282 1220.04 -12.282C951.928 -12.282 652.631 -112.385 360.217 -256.949L359.594 -255.749C652.186 -111.099 951.689 -10.9393 1220.04 -10.9393C1445.46 -10.9393 1648.9 -81.6015 1807.79 -255.903L1806.76 -256.794ZM1718.54 -256.846C1543.47 -99.9298 1331.92 -43.2081 1104.24 -54.0805C876.479 -64.9529 632.565 -143.454 392.866 -256.96L392.267 -255.749C632.12 -142.174 876.21 -63.6217 1104.18 -52.7379C1332.22 -41.8483 1544.11 -98.6729 1719.48 -255.857L1718.54 -256.846ZM1618.04 -256.891C1448.34 -133.016 1255.58 -86.4864 1052.85 -94.1879C850.072 -101.895 637.289 -163.856 427.59 -256.96L427.019 -255.732C636.86 -162.565 849.821 -100.553 1052.81 -92.8396C1255.84 -85.1266 1448.9 -131.73 1618.87 -255.8L1618.04 -256.891ZM1502.31 -256.926C1354.76 -170.906 1195.84 -134.038 1031.84 -134.038C846.953 -134.038 655.596 -180.887 466.774 -256.971L466.248 -255.726C655.23 -179.579 846.765 -132.69 1031.84 -132.69C1196.08 -132.69 1355.24 -169.615 1503.02 -255.772L1502.31 -256.926ZM1366.4 -256.966C1238.04 -199.993 1104.52 -174.928 968.967 -174.928C819.661 -174.928 667.865 -205.329 517.736 -256.983L517.28 -255.715C667.551 -204.009 819.502 -173.58 968.967 -173.58C1104.71 -173.58 1238.42 -198.679 1366.97 -255.737L1366.4 -256.966ZM1198.3 -256.994C1098.73 -227.405 997.699 -214.504 896.334 -215.453C794.968 -216.396 693.266 -231.199 592.352 -257L592.004 -255.697C693.021 -229.868 794.831 -215.053 896.322 -214.104C997.819 -213.156 1098.98 -226.074 1198.7 -255.703L1198.3 -256.994ZM2165.34 -141.363C2155.06 -153.252 2144.49 -165.336 2133.72 -177.545C2135.87 -189.463 2137.76 -201.678 2139.41 -214.19C2149.3 -201.867 2158.91 -189.737 2168.31 -177.739C2167.58 -165.319 2166.59 -153.201 2165.34 -141.363ZM2197.4 -103.798C2187.37 -115.687 2177.15 -127.691 2166.59 -139.912C2167.85 -151.681 2168.86 -163.719 2169.61 -176.065C2179.21 -163.793 2188.56 -151.704 2197.67 -139.774C2197.86 -127.502 2197.77 -115.504 2197.4 -103.798ZM2228.86 -66.027C2219.08 -77.9164 2209.07 -89.9601 2198.74 -102.198C2199.13 -113.825 2199.24 -125.743 2199.09 -137.929C2208.48 -125.611 2217.65 -113.447 2226.52 -101.49C2227.57 -89.4002 2228.35 -77.585 2228.86 -66.027ZM2258.56 -29.4333C2249.43 -40.8485 2240.02 -52.4465 2230.36 -64.2045C2229.88 -75.6539 2229.15 -87.3434 2228.13 -99.3299C2236.84 -87.5605 2245.32 -75.9453 2253.53 -64.5244C2255.49 -52.5608 2257.17 -40.8656 2258.56 -29.4333ZM2288.29 8.24594C2279.24 -3.43204 2269.82 -15.35 2260.19 -27.3994C2258.86 -38.666 2257.24 -50.184 2255.34 -61.9649C2264.12 -49.7098 2272.54 -37.7062 2280.74 -25.8454C2283.54 -14.2359 2286.07 -2.855 2288.29 8.24594ZM2314.96 43.2914C2306.96 32.6189 2298.79 21.8265 2290.28 10.8226C2288.14 -0.066925 2285.65 -11.265 2282.95 -22.6345C2290.48 -11.7049 2297.79 -0.929626 2304.84 9.66855C2308.51 21.1123 2311.89 32.3218 2314.96 43.2914ZM2342.17 80.3764C2334.15 69.2298 2325.85 57.9003 2317.24 46.3651C2314.3 35.7269 2311.09 24.866 2307.59 13.7764C2315.35 25.4944 2322.77 36.9896 2329.94 48.3019C2334.28 59.1915 2338.39 69.9097 2342.17 80.3764ZM2364.18 111.525C2358.1 102.738 2351.81 93.8141 2345.34 84.7757C2341.89 75.0688 2338.13 65.1334 2334.16 55.0322C2339.38 63.3508 2344.43 71.5494 2349.34 79.6566C2354.58 90.4947 2359.5 101.099 2364.18 111.525ZM2386.36 144.268C2380.65 135.63 2374.77 126.877 2368.67 117.981C2364.93 109.514 2360.99 100.893 2356.86 92.1458C2367.51 110.08 2377.31 127.431 2386.36 144.268ZM2108.69 -205.74C2105.56 -209.242 2102.48 -212.716 2099.45 -216.156C2102.47 -228.194 2105.27 -240.523 2107.83 -253.166C2118.23 -240.489 2128.32 -228.022 2138.23 -215.676C2136.59 -203.101 2134.7 -190.828 2132.56 -178.848C2124.7 -187.755 2116.81 -196.673 2108.69 -205.74ZM2063.04 -255.914L2063.86 -254.966C1957.69 76.5999 1691.11 176.988 1354.97 144.2C1018.07 111.337 611.333 -55.246 226.156 -256.943L225.499 -255.754C610.813 -53.9891 1017.73 112.651 1354.84 145.537C1691.36 178.36 1958.32 77.9254 2064.91 -253.761C2068.46 -249.681 2072.39 -245.151 2076.3 -240.637C2083.41 -232.433 2090.52 -224.228 2097.93 -215.807C2013.02 121.404 1747.52 220.147 1403.16 183.136C1045.04 144.645 601.686 -40.54 187.451 -256.943L186.806 -255.754C601.172 -39.283 1044.69 145.959 1403.01 184.467C1747.79 221.524 2013.69 122.735 2099.04 -214.562C2101.86 -211.362 2104.72 -208.134 2107.65 -204.86C2116.02 -195.519 2124.16 -186.321 2132.24 -177.157C2070.14 166.836 1805.14 263.934 1451.33 222.364C1071.39 177.725 589.114 -26.6966 145.68 -256.943L145.029 -255.749C588.588 -25.4397 1071.03 179.04 1451.17 223.706C1805.42 265.328 2070.83 168.201 2133.41 -175.842C2144.22 -163.576 2154.85 -151.435 2165.16 -139.494C2127.27 211.874 1862.21 307.212 1497.9 260.848C1095.71 209.657 572.6 -14.1388 100.458 -256.949L99.8125 -255.754C572.069 -12.8876 1095.33 210.965 1497.72 262.185C1862.47 308.612 2127.95 213.268 2166.39 -138.043C2176.99 -125.765 2187.25 -113.699 2197.32 -101.758C2185.13 257.306 1919.59 350.742 1543.74 299.247C1118.4 240.977 551.923 -2.70647 51.4832 -256.949L50.8491 -255.754C551.392 -1.46097 1118.02 242.274 1543.56 300.573C1919.84 352.124 2185.83 258.729 2198.67 -100.17C2209.05 -87.8461 2219.13 -75.7168 2228.97 -63.7531C2244.04 303.058 1977.79 394.397 1589.75 337.698C1140.62 272.092 528.55 8.42307 0.629395 -255.869L0.000976562 -254.669C528.035 9.67426 1140.25 273.401 1589.55 339.046C1978.03 395.802 2244.75 304.572 2230.46 -61.9135C2240.19 -50.0583 2249.68 -38.3575 2258.87 -26.8452C2265.56 29.7794 2265.16 79.8965 2258.26 123.952C2238.29 251.621 2163.83 328.471 2049.76 365.773C1935.55 403.121 1781.64 400.882 1602.97 370.344C1147.38 292.477 530.908 30.6992 0.623535 -227.754L0.0065918 -226.548C530.389 31.9505 1146.99 293.774 1602.73 371.664C1781.62 402.236 1935.75 404.469 2050.2 367.042C2164.77 329.568 2239.57 252.381 2259.63 124.14C2266.45 80.5364 2266.93 31.0249 2260.5 -24.8284C2270.25 -12.6076 2279.77 -0.529694 2288.91 11.2968C2361.02 380.296 2114.46 474.412 1725.49 420.627C1254.93 355.564 576.182 74.3146 0.612061 -198.816L0.0124512 -197.604C575.679 75.5716 1254.56 356.872 1725.3 421.964C2114.58 475.789 2361.63 381.908 2290.83 13.8279C2299.51 25.0831 2307.86 36.1269 2316 47.0336C2333.49 110.434 2341.1 165.802 2339.76 213.765C2336.43 332.71 2277.98 406.115 2178.5 443.657C2078.88 481.256 1938.13 482.936 1770.4 458.397C1290.71 388.209 590.604 103.561 0.600586 -168.889L0.0124512 -167.672C590.108 104.824 1290.34 389.523 1770.2 459.729C1938.15 484.301 2079.13 482.605 2179 444.914C2279.01 407.166 2337.79 333.373 2341.14 213.799C2342.46 166.573 2335.12 112.188 2318.25 50.0674C2327.12 61.991 2335.71 73.7262 2343.94 85.2328C2476 456.935 2250.74 554.141 1861.6 503.378C1372.19 439.538 623.94 142.046 0.594971 -138.135L0.0180664 -136.912C623.46 143.303 1371.85 440.835 1861.43 504.704C2250.51 555.455 2476.3 458.82 2346.9 89.3235C2353.94 99.2075 2360.75 108.943 2367.32 118.518C2532.77 494.008 2318.79 593.523 1928.99 544.228C1431.33 481.291 647.633 176.337 0.594971 -106.643L0.0351562 -105.415C647.159 177.605 1430.98 482.605 1928.82 545.56C2317.75 594.74 2532.38 496.459 2371.91 125.317C2379.46 136.424 2386.68 147.314 2393.59 158.009C2589.26 533.413 2386.69 633.927 1997.56 585.998C1491.76 523.7 671.538 211.268 0.589111 -74.3399L0.0407715 -73.1058C671.075 212.537 1491.43 525.014 1997.38 587.329C2383.56 634.893 2586.83 536.972 2401.93 171.012C2656.17 572.863 2456.95 677.583 2049.11 625.22C1534.33 559.129 687.937 243.417 0.589111 -41.3284L0.0466309 -40.0886C687.486 244.691 1533.99 560.443 2048.93 626.557C2462.98 679.714 2662.98 571.766 2395 157.552C2382.01 132.642 2367.24 106.515 2350.7 79.1652C2341.02 59.2486 2330.29 38.5665 2318.64 17.2273C2306.77 -10.2423 2293.17 -39.0488 2277.85 -69.1522C2269.42 -90.2857 2260.13 -112.122 2249.93 -134.678C2240.26 -162.559 2229.23 -191.6 2216.77 -221.863C2213.24 -233.244 2209.52 -244.808 2205.58 -256.554L2204.27 -256.137C2206.52 -249.413 2208.71 -242.745 2210.82 -236.141C2207.96 -242.922 2205.11 -249.704 2202.1 -256.606L2201.51 -256.36L2200.77 -256.194C2203.62 -244.031 2206.19 -232.136 2208.59 -220.406C2202.73 -231.901 2196.65 -243.562 2190.37 -255.389C2190.33 -255.737 2190.29 -256.08 2190.24 -256.434L2189.84 -256.383L2189.7 -256.657L2188.94 -256.274L2188.88 -256.269V-256.252L2188.47 -256.046L2189.03 -254.989C2190.57 -243.174 2191.86 -231.61 2192.98 -220.223C2185.81 -231.987 2178.49 -243.859 2170.89 -255.949L2170.88 -256.372L2170.63 -256.366L2170.42 -256.709L2169.81 -256.349L2169.5 -256.343V-256.166L2169.24 -256.006L2169.51 -255.566C2169.82 -242.78 2169.88 -230.279 2169.72 -218.024C2161.28 -229.982 2152.67 -242.06 2143.78 -254.343C2143.84 -254.995 2143.91 -255.646 2143.96 -256.309L2142.58 -256.417L2142.55 -256.057L2142.05 -256.754L2140.93 -255.983C2141.41 -255.309 2141.87 -254.663 2142.36 -253.995C2141.28 -241.586 2140 -229.439 2138.48 -217.572C2128.77 -229.656 2118.88 -241.865 2108.71 -254.263C2108.52 -254.492 2108.35 -254.709 2108.17 -254.92C2108.27 -255.36 2108.36 -255.8 2108.45 -256.246L2107.09 -256.497L2107.06 -256.326L2106.68 -256.789L2105.61 -255.954C2105.91 -255.589 2106.26 -255.149 2106.6 -254.709L2106.7 -254.589C2104.15 -241.894 2101.35 -229.519 2098.34 -217.441C2091.19 -225.56 2084.27 -233.547 2077.35 -241.534C2073.54 -245.922 2069.75 -250.298 2065.4 -255.292C2065.5 -255.589 2065.6 -255.88 2065.69 -256.177L2064.37 -256.572L2064.35 -256.497L2064.08 -256.811L2063.04 -255.914Z" fill="#F9FAFC" fill-opacity="0.1" />
</svg>
