<svg width="1536" height="613" viewBox="0 0 1536 613" fill="none" xmlns="http://www.w3.org/2000/svg">
	<path d="M1692.99 208.492C1690.99 204.518 1688.92 200.5 1686.78 196.436C1692.24 204.557 1697.37 212.479 1702.3 220.287C1699.26 216.391 1696.16 212.459 1692.99 208.492ZM1660.89 157.775C1657.96 151.268 1654.86 144.655 1651.59 137.933C1660.13 151.561 1667.95 164.74 1675.15 177.551C1670.58 171.063 1665.8 164.458 1660.89 157.775ZM1671.25 181.956C1668.69 175.628 1665.97 169.195 1663.07 162.653C1669.31 171.227 1675.22 179.618 1680.9 187.873C1683.87 193.336 1686.73 198.738 1689.44 204.045C1683.61 196.811 1677.51 189.428 1671.25 181.956ZM1632.44 106.452C1630.72 102.169 1628.89 97.8035 1627.05 93.4263C1631.86 102.087 1636.43 110.58 1640.75 118.92C1638.06 114.816 1635.25 110.63 1632.44 106.452ZM1642.55 133.419C1639.98 126.15 1637.24 118.767 1634.28 111.232C1638.28 117.231 1642.15 123.156 1645.9 129.007C1650.06 137.3 1653.98 145.441 1657.66 153.418C1652.79 146.848 1647.75 140.18 1642.55 133.419ZM1650.57 157.783C1648.48 150.92 1646.24 143.944 1643.76 136.812C1649.3 144.05 1654.69 151.209 1659.84 158.233C1663.04 165.318 1666.04 172.279 1668.85 179.114C1662.95 172.111 1656.85 164.998 1650.57 157.783ZM1605.29 53.9141C1603 47.3287 1600.58 40.6495 1598.03 33.8726C1605.06 47.7312 1611.55 61.2342 1617.47 74.3346C1613.55 67.6202 1609.49 60.8121 1605.29 53.9141ZM1613.49 78.9385C1611.47 72.3648 1609.32 65.6935 1607.01 58.9166C1612.13 67.4014 1617.02 75.7454 1621.7 83.9488C1624.29 89.8815 1626.75 95.7282 1629.13 101.516C1624.1 94.0985 1618.9 86.5791 1613.49 78.9385ZM1621.22 106.253C1619.21 98.4405 1616.98 90.4717 1614.53 82.3464C1620.37 90.6397 1625.92 98.761 1631.31 106.785C1634.52 114.816 1637.45 122.652 1640.2 130.371C1634.08 122.449 1627.79 114.429 1621.22 106.253ZM1627.07 131.289C1625.55 123.961 1623.82 116.489 1621.89 108.864C1628.65 117.302 1635.15 125.595 1641.42 133.759C1644.02 141.161 1646.44 148.446 1648.65 155.583C1641.68 147.606 1634.53 139.532 1627.07 131.289ZM1589.24 28.2096C1587.33 20.6863 1585.26 13.0496 1583.02 5.28002C1586.5 11.7052 1589.87 18.0521 1593.12 24.3287C1596.42 32.7588 1599.51 41.0403 1602.4 49.1773C1598.16 42.2793 1593.77 35.2913 1589.24 28.2096ZM1595.21 53.6874C1593.68 46.4806 1592 39.1605 1590.14 31.7036C1594.99 39.3207 1599.66 46.8284 1604.17 54.2345C1606.72 61.5898 1609.11 68.8201 1611.33 75.9369C1606.13 68.6246 1600.75 61.2029 1595.21 53.6874ZM1600.36 80.7753C1599.04 72.7791 1597.47 64.5835 1595.74 56.2629C1601.46 64.0403 1607.03 71.7317 1612.37 79.2863C1614.95 87.6851 1617.3 95.9197 1619.42 103.986C1613.28 96.3731 1606.89 88.6113 1600.36 80.7753ZM1603.83 106.054C1602.98 98.4679 1601.93 90.7335 1600.67 82.8311C1607.36 90.882 1613.83 98.8001 1620.1 106.613C1622.12 114.413 1623.91 122.066 1625.5 129.558C1618.51 121.851 1611.25 113.991 1603.83 106.054ZM1575.18 27.045C1574.25 19.4005 1573.15 11.627 1571.89 3.705C1577.49 12.096 1582.89 20.3619 1588.1 28.5066C1590.07 36.2684 1591.9 43.9207 1593.52 51.4167C1587.6 43.4087 1581.5 35.2874 1575.18 27.045ZM1577.81 54.2111C1577.23 46.0507 1576.46 37.7301 1575.45 29.2218C1581.86 37.6011 1588.06 45.8592 1594.06 53.9922C1595.86 62.477 1597.47 70.8172 1598.84 78.9697C1592.05 70.8445 1585.02 62.5825 1577.81 54.2111ZM1578.99 79.8803C1578.84 72.0952 1578.5 64.1419 1577.95 56.0206C1585.23 64.4897 1592.35 72.8573 1599.2 81.0763C1600.5 89.0803 1601.57 96.9046 1602.45 104.576C1594.85 96.4708 1587.02 88.2283 1578.99 79.8803ZM1554.88 28.0025C1555.04 19.6975 1554.98 11.2049 1554.73 2.54426C1561.38 10.9352 1567.77 19.1816 1574.03 27.342C1575.06 35.9714 1575.89 44.421 1576.51 52.6986C1569.49 44.5773 1562.29 36.3544 1554.88 28.0025ZM1553.69 53.9336C1554.26 45.9921 1554.65 37.8825 1554.83 29.5892C1562.31 38.0154 1569.57 46.3204 1576.64 54.512C1577.22 62.7193 1577.6 70.7546 1577.77 78.618C1569.95 70.5006 1561.93 62.2777 1553.69 53.9336ZM1527.78 28.0064C1529.1 19.9359 1530.22 11.6778 1531.16 3.24383C1538.88 11.713 1546.36 20.0414 1553.69 28.2839C1553.52 36.6358 1553.13 44.7962 1552.56 52.7924C1544.5 44.632 1536.26 36.3856 1527.78 28.0064ZM1418.74 0.261852C1304.87 202.911 1080.98 266.444 808.873 247.547C536.601 228.639 216.043 127.225 -90.9382 0.0390823L-91.4995 0.851995C215.605 128.088 536.311 229.542 808.769 248.462C1081.39 267.393 1305.71 203.717 1419.83 0.629225L1418.74 0.261852ZM1366.92 0.218861C1249.2 159.851 1063.07 222.785 842.755 222.785C571.784 222.785 249.093 127.615 -61.7341 0.0351741L-62.2905 0.851995C248.684 128.491 571.562 223.707 842.75 223.707C1063.49 223.707 1249.98 160.64 1367.95 0.668308L1366.92 0.218861ZM1307.82 0.17587C1178.25 139.418 996.462 195.056 788.681 195.056C537.114 195.056 247.423 113.515 -33.8748 0.0351741L-34.4264 0.851995C247.025 114.39 536.897 195.978 788.681 195.978C996.836 195.978 1178.95 140.231 1308.78 0.711298L1307.82 0.17587ZM1240.76 0.140696C1104.01 119.154 928.919 167.401 734.897 167.401C503.733 167.401 245.685 98.9252 -6.42896 0.0351741L-6.9657 0.855903C245.301 99.8045 503.527 168.32 734.897 168.32C929.249 168.32 1104.64 119.983 1241.64 0.750381L1240.76 0.140696ZM1164.69 0.105522C1013.75 107.445 831.359 146.246 635.053 138.809C438.682 131.371 228.384 77.6722 21.7211 0.0273576L21.2041 0.855903C228 78.5476 438.451 132.282 634.999 139.727C831.61 147.176 1014.3 108.305 1165.5 0.781646L1164.69 0.105522ZM1078.05 0.0742564C931.731 84.8125 765.539 116.641 590.749 111.373C415.915 106.101 232.457 63.7159 51.6588 0.0273576L51.1664 0.867628C232.088 64.5992 415.698 107.019 590.71 112.295C765.761 117.571 932.209 85.6919 1078.76 0.820729L1078.05 0.0742564ZM978.26 0.050807C851.048 58.8931 714.031 84.113 572.631 84.113C413.226 84.113 248.241 52.0655 85.4429 0.0195412L84.9895 0.871536C247.926 52.9604 413.063 85.0353 572.631 85.0353C714.233 85.0353 851.457 59.7764 978.871 0.84027L978.26 0.050807ZM861.08 0.0234494C750.411 38.9963 635.299 56.1417 518.424 56.1417C389.695 56.1417 258.819 35.3461 129.382 0.0117247L128.988 0.879352C258.549 36.2489 389.557 57.0641 518.424 57.0641C635.461 57.0641 750.74 39.8952 861.573 0.863719L861.08 0.0234494ZM716.154 0.00390823C630.3 20.2446 543.196 29.0694 455.801 28.4207C368.406 27.7758 280.72 17.6496 193.714 0L193.413 0.891077C280.508 18.5602 368.287 28.6942 455.791 29.343C543.299 29.9918 630.522 21.1553 716.499 0.887169L716.154 0.00390823ZM1549.91 79.1026C1541.05 70.9696 1531.94 62.7037 1522.65 54.3518C1524.5 46.1992 1526.14 37.8434 1527.56 29.2844C1536.08 37.7144 1544.37 46.0116 1552.47 54.2189C1551.84 62.7154 1550.99 71.0048 1549.91 79.1026ZM1577.56 104.799C1568.9 96.6662 1560.09 88.455 1550.99 80.0953C1552.08 72.0443 1552.95 63.8097 1553.59 55.364C1561.88 63.7589 1569.93 72.0287 1577.79 80.1891C1577.95 88.584 1577.88 96.7913 1577.56 104.799ZM1604.68 130.637C1596.25 122.504 1587.62 114.265 1578.71 105.894C1579.04 97.9403 1579.14 89.7877 1579.01 81.4515C1587.11 89.8776 1595.01 98.1982 1602.66 106.378C1603.57 114.648 1604.24 122.73 1604.68 130.637ZM1630.29 155.669C1622.41 147.86 1614.3 139.926 1605.97 131.883C1605.56 124.051 1604.93 116.055 1604.05 107.855C1611.56 115.906 1618.87 123.852 1625.95 131.664C1627.64 139.848 1629.09 147.848 1630.29 155.669ZM1655.91 181.444C1648.11 173.455 1639.99 165.303 1631.69 157.06C1630.54 149.353 1629.15 141.474 1627.51 133.415C1635.08 141.798 1642.34 150.01 1649.41 158.123C1651.82 166.065 1654 173.85 1655.91 181.444ZM1678.91 205.417C1672.02 198.116 1664.97 190.733 1657.63 183.206C1655.79 175.757 1653.64 168.097 1651.31 160.32C1657.81 167.796 1664.11 175.167 1670.19 182.417C1673.35 190.245 1676.26 197.913 1678.91 205.417ZM1702.37 230.785C1695.46 223.16 1688.3 215.41 1680.88 207.519C1678.34 200.242 1675.57 192.813 1672.56 185.227C1679.25 193.243 1685.65 201.106 1691.83 208.844C1695.57 216.293 1699.11 223.625 1702.37 230.785ZM1721.35 252.093C1716.1 246.082 1710.69 239.977 1705.11 233.794C1702.13 227.154 1698.89 220.358 1695.47 213.448C1699.97 219.138 1704.32 224.747 1708.55 230.293C1713.08 237.706 1717.31 244.96 1721.35 252.093ZM1740.47 274.491C1735.55 268.582 1730.48 262.594 1725.22 256.509C1722 250.717 1718.6 244.819 1715.04 238.836C1724.22 251.104 1732.67 262.973 1740.47 274.491ZM1501.07 35.0647C1498.37 32.6689 1495.72 30.2927 1493.1 27.9399C1495.71 19.7053 1498.12 11.2713 1500.33 2.62242C1509.29 11.2948 1518 19.8226 1526.54 28.2682C1525.12 36.8703 1523.49 45.2651 1521.65 53.4607C1514.88 47.3678 1508.07 41.267 1501.07 35.0647ZM1461.71 0.742564L1462.42 1.39133C1370.88 228.202 1141.04 296.873 851.231 274.444C560.762 251.964 210.079 138.011 -122.013 0.0390823L-122.58 0.851995C209.631 138.871 560.467 252.863 851.112 275.358C1141.26 297.811 1371.42 229.108 1463.33 2.21597C1466.38 5.00644 1469.77 8.10567 1473.14 11.1932C1479.27 16.8054 1485.4 22.4176 1491.8 28.1784C1418.59 258.85 1189.68 326.396 892.776 301.078C584.012 274.749 201.761 148.071 -155.384 0.0390823L-155.94 0.851995C201.318 148.931 583.712 275.648 892.648 301.989C1189.91 327.338 1419.16 259.761 1492.75 29.0303C1495.18 31.219 1497.65 33.4271 1500.18 35.6665C1507.39 42.0565 1514.41 48.3487 1521.38 54.6175C1467.84 289.928 1239.36 356.349 934.312 327.912C606.73 297.377 190.922 157.541 -191.398 0.0390823L-191.96 0.855903C190.469 158.401 606.42 298.276 934.174 328.831C1239.59 357.302 1468.43 290.862 1522.38 55.5164C1531.71 63.9074 1540.87 72.2124 1549.76 80.3806C1517.09 320.737 1288.56 385.954 974.463 354.238C627.695 319.22 176.684 166.131 -230.388 0.0351741L-230.944 0.851995C176.226 166.987 627.37 320.115 974.306 355.153C1288.78 386.911 1517.68 321.69 1550.82 81.3733C1559.96 89.7721 1568.8 98.0263 1577.49 106.194C1566.97 351.815 1338.03 415.73 1013.98 380.505C647.261 340.645 158.856 173.951 -272.613 0.0351741L-273.16 0.851995C158.398 174.803 646.931 341.533 1013.83 381.412C1338.25 416.676 1567.58 352.788 1578.65 107.281C1587.6 115.711 1596.29 124.008 1604.77 132.192C1617.77 383.112 1388.21 445.593 1053.65 406.808C666.423 361.93 138.704 181.565 -316.458 0.77383L-317 1.59456C138.261 182.421 666.099 362.825 1053.48 407.73C1388.42 446.555 1618.38 384.148 1606.06 133.45C1614.45 141.56 1622.63 149.564 1630.55 157.439C1636.32 196.174 1635.97 230.457 1630.03 260.593C1612.81 347.926 1548.61 400.496 1450.26 426.013C1351.79 451.561 1219.1 450.029 1065.04 429.139C672.25 375.874 140.738 196.803 -316.463 20.0062L-316.995 20.8309C140.29 197.659 671.91 376.761 1064.84 430.042C1219.08 450.955 1351.97 452.483 1450.64 426.881C1549.43 401.246 1613.92 348.446 1631.21 260.722C1637.09 230.894 1637.51 197.026 1631.96 158.819C1640.36 167.179 1648.57 175.441 1656.46 183.531C1718.63 435.948 1506.04 500.328 1170.69 463.536C764.973 419.029 179.772 226.638 -316.473 39.8014L-316.99 40.63C179.339 227.498 764.658 419.924 1170.52 464.45C1506.15 501.27 1719.15 437.05 1658.11 185.262C1665.59 192.961 1672.79 200.516 1679.81 207.977C1694.89 251.346 1701.45 289.221 1700.3 322.03C1697.43 403.396 1647.03 453.609 1561.26 479.29C1475.37 505.01 1354.02 506.159 1209.4 489.373C795.822 441.361 192.207 246.645 -316.483 60.2728L-316.99 61.1052C191.779 247.508 795.507 442.259 1209.23 490.284C1354.03 507.093 1475.59 505.932 1561.69 480.15C1647.92 454.328 1698.6 403.849 1701.48 322.054C1702.62 289.748 1696.29 252.546 1681.75 210.052C1689.4 218.208 1696.8 226.236 1703.9 234.107C1817.76 488.373 1623.54 554.867 1288.03 520.143C866.074 476.472 220.948 272.97 -316.488 81.3108L-316.985 82.1471C220.534 273.83 865.778 477.359 1287.89 521.049C1623.34 555.766 1818.01 489.662 1706.45 236.905C1712.52 243.667 1718.39 250.326 1724.05 256.876C1866.7 513.733 1682.22 581.807 1346.14 548.087C917.06 505.033 241.376 296.428 -316.488 102.853L-316.97 103.693C240.967 297.295 916.765 505.932 1345.99 548.997C1681.32 582.639 1866.36 515.41 1728.02 261.527C1734.52 269.125 1740.75 276.574 1746.71 283.89C1915.41 540.688 1740.76 609.446 1405.25 576.66C969.169 534.044 261.986 320.323 -316.493 124.95L-316.966 125.794C261.587 321.19 968.879 534.943 1405.11 577.57C1738.05 610.106 1913.31 543.123 1753.9 292.785C1973.1 567.675 1801.34 639.309 1449.7 603.49C1005.87 558.279 276.125 342.314 -316.493 147.532L-316.96 148.38C275.736 343.186 1005.58 559.178 1449.55 604.404C1806.53 640.766 1978.96 566.924 1747.92 283.577C1736.72 266.538 1723.99 248.665 1709.73 229.956C1701.38 216.332 1692.13 202.185 1682.08 187.587C1671.86 168.797 1660.13 149.091 1646.92 128.499C1639.65 114.042 1631.64 99.1049 1622.84 83.6752C1614.51 64.6031 1605 44.7375 1594.26 24.0356C1591.21 16.2504 1588 8.34017 1584.61 0.304842L1583.48 0.590143C1585.42 5.19013 1587.3 9.75104 1589.12 14.269C1586.66 9.62988 1584.2 4.99081 1581.61 0.269668L1581.1 0.437722L1580.46 0.551061C1582.91 8.87169 1585.14 17.0086 1587.2 25.0322C1582.15 17.1689 1576.91 9.19216 1571.49 1.10212C1571.46 0.863719 1571.42 0.629225 1571.39 0.386915L1571.04 0.422089L1570.92 0.234494L1570.26 0.496345L1570.21 0.500254V0.511978L1569.86 0.652675L1570.34 1.3757C1571.67 9.45792 1572.78 17.3682 1573.74 25.1573C1567.56 17.1102 1561.26 8.98893 1554.7 0.719115L1554.69 0.429906L1554.47 0.433814L1554.29 0.19932L1553.77 0.445538L1553.5 0.449447V0.570602L1553.27 0.680032L1553.51 0.980966C1553.78 9.72759 1553.83 18.2788 1553.69 26.662C1546.42 18.482 1538.99 10.22 1531.32 1.81733C1531.38 1.37179 1531.44 0.926251 1531.48 0.472896L1530.29 0.39864L1530.26 0.644858L1529.84 0.168054L1528.86 0.695665C1529.28 1.15684 1529.68 1.59847 1530.1 2.05573C1529.17 10.5444 1528.06 18.8533 1526.75 26.9707C1518.38 18.7048 1509.86 10.3529 1501.08 1.87204C1500.92 1.71571 1500.77 1.5672 1500.63 1.4226C1500.71 1.12166 1500.79 0.820729 1500.86 0.515887L1499.7 0.343924L1499.67 0.461171L1499.34 0.144605L1498.42 0.715206C1498.68 0.965333 1498.97 1.26627 1499.27 1.5672L1499.36 1.64927C1497.15 10.3334 1494.75 18.7986 1492.15 27.0606C1485.98 21.507 1480.02 16.0433 1474.05 10.5796C1470.77 7.57806 1467.5 4.58436 1463.75 1.16856C1463.83 0.965333 1463.92 0.766013 1464 0.562785L1462.86 0.293117L1462.84 0.343924L1462.61 0.128972L1461.71 0.742564Z" fill="#5072EB" fill-opacity="0.07" />
</svg>
