<svg width="748" height="155" viewBox="0 0 748 155" fill="none" xmlns="http://www.w3.org/2000/svg">
	<path d="M997.586 79.5403C996.592 76.4993 995.565 73.4255 994.502 70.3157C997.215 76.5293 999.759 82.5903 1002.2 88.5646C1000.7 85.5834 999.158 82.5753 997.586 79.5403ZM981.655 40.7372C980.198 35.7586 978.658 30.6992 977.035 25.5562C981.278 35.9828 985.155 46.0656 988.731 55.8673C986.463 50.9037 984.092 45.8503 981.655 40.7372ZM986.793 59.2372C985.524 54.3962 984.172 49.4744 982.735 44.4689C985.832 51.0293 988.765 57.4491 991.583 63.7643C993.057 67.9445 994.477 72.0769 995.822 76.1376C992.93 70.6028 989.902 64.9544 986.793 59.2372ZM967.532 1.47056C966.682 -1.80665 965.772 -5.14664 964.856 -8.49561C967.246 -1.86944 969.514 4.62815 971.658 11.0091C970.321 7.86947 968.925 4.66702 967.532 1.47056ZM972.553 22.1026C971.277 16.5409 969.918 10.8925 968.449 5.1275C970.431 9.71738 972.352 14.2505 974.212 18.7267C976.28 25.0718 978.226 31.3003 980.049 37.4032C977.632 32.3767 975.131 27.2755 972.553 22.1026ZM976.529 40.7432C975.495 35.4925 974.383 30.155 973.154 24.698C975.901 30.2358 978.575 35.7137 981.134 41.087C982.721 46.5082 984.212 51.8336 985.605 57.0634C982.677 51.705 979.651 46.263 976.529 40.7432ZM954.059 -38.726C952.923 -43.7644 951.723 -48.8746 950.454 -54.0595C953.942 -43.4564 957.166 -33.1255 960.102 -23.1025C958.158 -28.2396 956.144 -33.4484 954.059 -38.726ZM958.127 -19.5801C957.125 -24.6095 956.056 -29.7137 954.913 -34.8986C957.452 -28.407 959.882 -22.023 962.201 -15.7467C963.487 -11.2077 964.709 -6.73441 965.89 -2.306C963.392 -7.9813 960.813 -13.7344 958.127 -19.5801ZM961.967 1.31805C960.964 -4.65925 959.86 -10.7562 958.645 -16.9727C961.541 -10.6276 964.296 -4.41405 966.97 1.72472C968.566 7.86948 970.018 13.8647 971.387 19.7703C968.348 13.7092 965.227 7.57345 961.967 1.31805ZM964.868 20.4729C964.113 14.8664 963.257 9.14925 962.299 3.31548C965.652 9.7712 968.876 16.1163 971.988 22.3627C973.278 28.0261 974.483 33.5997 975.578 39.0597C972.117 32.9568 968.568 26.7792 964.868 20.4729ZM946.094 -58.3922C945.143 -64.1482 944.116 -69.991 943.004 -75.9354C944.735 -71.0196 946.404 -66.1636 948.02 -61.3614C949.655 -54.9117 951.188 -48.5756 952.622 -42.3501C950.518 -47.6277 948.342 -52.9741 946.094 -58.3922ZM949.054 -38.8994C948.296 -44.4133 947.463 -50.0138 946.541 -55.719C948.946 -49.8912 951.266 -44.1471 953.502 -38.4808C954.768 -32.8534 955.954 -27.3216 957.056 -21.8765C954.477 -27.4711 951.803 -33.1494 949.054 -38.8994ZM951.61 -18.1747C950.958 -24.2926 950.178 -30.5629 949.32 -36.9289C952.155 -30.9785 954.922 -25.0939 957.574 -19.314C958.853 -12.8881 960.019 -6.58789 961.072 -0.416229C958.024 -6.24104 954.851 -12.1795 951.61 -18.1747ZM953.334 1.16556C952.913 -4.63832 952.39 -10.5558 951.764 -16.6019C955.086 -10.4422 958.295 -4.38416 961.409 1.59315C962.409 7.56149 963.301 13.4162 964.091 19.1483C960.62 13.2517 957.015 7.23855 953.334 1.16556ZM939.113 -59.2833C938.651 -65.132 938.108 -71.0794 937.48 -77.1404C940.259 -70.7206 942.941 -64.3964 945.527 -58.165C946.504 -52.2265 947.411 -46.3718 948.218 -40.6367C945.28 -46.7635 942.249 -52.9771 939.113 -59.2833ZM940.418 -38.4988C940.13 -44.7422 939.749 -51.1082 939.25 -57.6178C942.43 -51.2069 945.507 -44.8887 948.484 -38.6662C949.379 -32.1746 950.178 -25.7936 950.858 -19.5562C947.487 -25.7727 943.999 -32.0939 940.418 -38.4988ZM941.005 -18.8595C940.932 -24.8158 940.76 -30.9008 940.487 -37.1143C944.104 -30.6347 947.634 -24.2328 951.034 -17.9445C951.681 -11.8207 952.212 -5.83438 952.647 0.0352783C948.878 -6.16629 944.991 -12.4725 941.005 -18.8595ZM929.038 -58.5507C929.116 -64.9048 929.087 -71.4023 928.967 -78.0285C932.264 -71.6087 935.437 -65.2995 938.541 -59.056C939.057 -52.4538 939.465 -45.9891 939.773 -39.6559C936.29 -45.8695 932.719 -52.1607 929.038 -58.5507ZM928.446 -38.7111C928.732 -44.787 928.925 -50.9916 929.016 -57.3367C932.726 -50.8899 936.331 -44.5359 939.837 -38.2685C940.127 -31.9892 940.313 -25.8415 940.399 -19.8253C936.52 -26.0358 932.538 -32.3271 928.446 -38.7111ZM915.59 -58.5477C916.245 -64.7224 916.802 -71.0405 917.266 -77.4933C921.099 -71.0136 924.812 -64.6416 928.446 -58.3354C928.363 -51.9454 928.173 -45.702 927.889 -39.5842C923.885 -45.8276 919.796 -52.1368 915.59 -58.5477ZM861.472 -79.7748C804.954 75.2704 693.837 123.878 558.786 109.421C423.654 94.9545 264.556 17.3632 112.198 -79.9452L111.919 -79.3232C264.339 18.024 423.51 95.6453 558.734 110.121C694.04 124.605 805.372 75.8864 862.012 -79.4937L861.472 -79.7748ZM835.754 -79.8076C777.327 42.325 684.95 90.4753 575.602 90.4753C441.115 90.4753 280.96 17.6622 126.692 -79.9482L126.416 -79.3232C280.757 18.332 441.005 91.181 575.599 91.181C685.157 91.181 777.713 42.929 836.265 -79.4638L835.754 -79.8076ZM806.421 -79.8405C742.113 26.6925 651.889 69.2602 548.764 69.2602C423.908 69.2602 280.131 6.87375 140.519 -79.9482L140.245 -79.3232C279.933 7.54355 423.8 69.9659 548.764 69.9659C652.075 69.9659 742.462 27.3144 806.897 -79.4309L806.421 -79.8405ZM773.135 -79.8675C705.266 11.1885 618.366 48.1019 522.071 48.1019C407.341 48.1019 279.268 -4.28847 154.141 -79.9482L153.874 -79.3203C279.078 -3.61569 407.238 48.8046 522.071 48.8046C618.53 48.8046 705.581 11.8224 773.575 -79.401L773.135 -79.8675ZM735.384 -79.8944C660.471 2.23005 569.946 31.9162 472.516 26.226C375.055 20.5357 270.682 -20.5489 168.112 -79.9542L167.855 -79.3203C270.491 -19.8791 374.94 21.2324 472.49 26.9287C570.071 32.6279 660.742 2.88789 735.785 -79.3771L735.384 -79.8944ZM692.38 -79.9183C619.762 -15.0859 537.279 9.26587 450.528 5.23515C363.755 1.20144 272.703 -31.2267 182.97 -79.9542L182.726 -79.3113C272.52 -30.5509 363.648 1.90412 450.509 5.94083C537.389 9.97752 619.999 -14.4131 692.734 -79.3472L692.38 -79.9183ZM642.855 -79.9362C579.718 -34.9166 511.715 -15.6211 441.536 -15.6211C362.421 -15.6211 280.537 -40.1403 199.738 -79.9601L199.513 -79.3083C280.38 -39.4556 362.34 -14.9155 441.536 -14.9155C511.815 -14.9155 579.921 -34.2408 643.158 -79.3322L642.855 -79.9362ZM584.697 -79.9572C529.77 -50.1394 472.639 -37.0216 414.632 -37.0216C350.742 -37.0216 285.787 -52.9322 221.545 -79.9661L221.35 -79.3023C285.652 -52.2415 350.674 -36.3159 414.632 -36.3159C472.719 -36.3159 529.934 -49.4517 584.941 -79.3143L584.697 -79.9572ZM512.768 -79.9721C470.158 -64.4861 426.927 -57.7344 383.551 -58.2307C340.176 -58.7241 296.656 -66.4716 253.474 -79.9751L253.325 -79.2933C296.551 -65.7749 340.117 -58.0214 383.546 -57.5251C426.978 -57.0287 470.268 -63.7894 512.939 -79.2963L512.768 -79.9721ZM926.574 -19.4545C922.177 -25.677 917.653 -32.0012 913.045 -38.3911C913.962 -44.6286 914.773 -51.0215 915.48 -57.5699C919.711 -51.1202 923.822 -44.7721 927.845 -38.4928C927.532 -31.9922 927.107 -25.6501 926.574 -19.4545ZM940.294 0.205719C935.999 -6.01678 931.626 -12.2991 927.109 -18.695C927.647 -24.8547 928.082 -31.1549 928.4 -37.6167C932.511 -31.1938 936.51 -24.8667 940.408 -18.6232C940.489 -12.2004 940.452 -5.92109 940.294 0.205719ZM953.756 19.9736C949.572 13.7511 945.287 7.44787 940.868 1.04297C941.032 -5.04198 941.081 -11.2794 941.017 -17.6574C945.035 -11.2107 948.958 -4.84464 952.752 1.41374C953.204 7.7409 953.539 13.9245 953.756 19.9736ZM966.464 39.1255C962.556 33.1512 958.53 27.0812 954.397 20.9275C954.191 14.9352 953.881 8.81735 953.444 2.54402C957.171 8.70373 960.798 14.7827 964.311 20.76C965.151 27.0214 965.87 33.1422 966.464 39.1255ZM979.184 58.8455C975.312 52.7337 971.282 46.4962 967.163 40.19C966.591 34.2934 965.899 28.2653 965.085 22.0996C968.842 28.5135 972.445 34.7958 975.955 41.0033C977.153 47.0793 978.235 53.0357 979.184 58.8455ZM990.598 77.1871C987.176 71.6015 983.679 65.9531 980.037 60.1941C979.123 54.4948 978.057 48.6342 976.901 42.6838C980.125 48.4039 983.251 54.0433 986.267 59.5901C987.839 65.5793 989.283 71.446 990.598 77.1871ZM1002.24 96.5961C998.811 90.7624 995.259 84.8329 991.574 78.7958C990.315 73.2281 988.941 67.5439 987.443 61.74C990.765 67.8728 993.942 73.8889 997.01 79.8094C998.867 85.5087 1000.62 91.1182 1002.24 96.5961ZM1011.66 112.898C1009.06 108.3 1006.37 103.629 1003.6 98.8986C1002.12 93.8183 1000.51 88.6184 998.813 83.3318C1001.05 87.6855 1003.21 91.9764 1005.31 96.2194C1007.55 101.892 1009.66 107.441 1011.66 112.898ZM1021.15 130.035C1018.71 125.514 1016.19 120.933 1013.58 116.277C1011.98 111.846 1010.29 107.334 1008.53 102.756C1013.09 112.142 1017.28 121.223 1021.15 130.035ZM902.335 -53.1475C900.993 -54.9804 899.675 -56.7985 898.377 -58.5985C899.67 -64.8988 900.868 -71.3515 901.963 -77.9687C906.414 -71.3336 910.733 -64.8091 914.974 -58.3474C914.27 -51.766 913.461 -45.3432 912.547 -39.0729C909.186 -43.7345 905.808 -48.4021 902.335 -53.1475ZM882.798 -79.407L883.15 -78.9106C837.719 94.6197 723.644 147.16 579.808 129.999C435.645 112.8 261.596 25.616 96.7745 -79.9452L96.4933 -79.3232C261.374 26.2738 435.499 113.487 579.75 130.699C723.752 147.877 837.988 95.3134 883.6 -78.2797C885.117 -76.1447 886.799 -73.7735 888.471 -71.4113C891.514 -67.1175 894.557 -62.8236 897.73 -58.4161C861.396 118.068 747.786 169.747 600.428 150.377C447.184 130.232 257.468 33.3126 80.2123 -79.9452L79.9362 -79.3232C257.248 33.9705 447.035 130.92 600.364 151.074C747.898 170.468 861.68 118.765 898.201 -57.7643C899.409 -56.0898 900.636 -54.4004 901.89 -52.687C905.468 -47.7981 908.954 -42.984 912.412 -38.1878C885.839 141.846 772.441 192.664 621.043 170.907C458.46 147.545 252.088 40.5578 62.3377 -79.9452L62.0591 -79.3203C251.863 41.2156 458.306 148.233 620.974 171.61C772.558 193.393 886.132 142.561 912.911 -37.5C917.538 -31.0802 922.084 -24.7261 926.498 -18.4767C910.283 165.417 796.861 215.314 640.97 191.049C468.865 164.257 245.022 47.1301 42.9868 -79.9482L42.7106 -79.3232C244.795 47.785 468.703 164.942 640.892 191.749C796.971 216.047 910.574 166.147 927.024 -17.7172C931.558 -11.2914 935.95 -4.9762 940.259 1.27321C935.041 189.195 821.413 238.096 660.585 211.146C478.576 180.649 236.174 53.1134 22.0299 -79.9482L21.7585 -79.3232C235.947 53.7653 478.412 181.328 660.507 211.839C821.523 238.82 935.342 189.94 940.836 2.10447C945.28 8.55421 949.591 14.9023 953.8 21.1637C960.251 213.14 846.32 260.944 680.274 231.269C488.086 196.934 226.172 58.9382 0.268921 -79.383L0 -78.7551C225.952 59.593 487.925 197.618 680.188 231.975C846.42 261.679 960.556 213.933 954.441 22.1265C958.603 28.3311 962.663 34.4549 966.596 40.48C969.458 70.1154 969.287 96.345 966.337 119.402C957.792 186.22 925.926 226.44 877.115 245.963C828.245 265.51 762.385 264.337 685.927 248.355C490.978 207.602 227.182 70.5968 0.266357 -64.6685L0.00244141 -64.0376C226.959 71.2516 490.809 208.281 685.825 249.046C762.375 265.046 828.331 266.215 877.303 246.627C926.332 227.014 958.339 186.618 966.923 119.501C969.842 96.6799 970.047 70.7672 967.295 41.5355C971.465 47.9315 975.539 54.2527 979.453 60.4423C1010.31 253.564 904.801 302.821 738.358 274.671C536.998 240.62 246.555 93.4236 0.261475 -49.5234L0.00488281 -48.8895C246.34 94.0814 536.841 241.304 738.275 275.371C904.855 303.541 1010.57 254.407 980.274 61.7669C983.987 67.6575 987.56 73.4374 991.043 79.1456C998.527 112.327 1001.79 141.305 1001.21 166.407C999.786 228.659 974.772 267.076 932.206 286.725C889.576 306.403 829.347 307.282 757.573 294.439C552.308 257.705 252.726 108.73 0.256592 -33.861L0.00488281 -33.2241C252.514 109.391 552.152 258.393 757.487 295.136C829.355 307.997 889.686 307.109 932.418 287.383C975.217 267.627 1000.37 229.006 1001.8 166.425C1002.36 141.708 999.224 113.245 992.006 80.7334C995.802 86.9738 999.476 93.1156 1003 99.1378C1059.51 293.674 963.118 344.548 796.6 317.981C587.175 284.569 266.991 128.872 0.254272 -17.7651L0.00732422 -17.1252C266.785 129.53 587.029 285.248 796.526 318.674C963.018 345.236 1059.64 294.661 1004.27 101.279C1007.28 106.452 1010.19 111.547 1013 116.558C1083.8 313.077 992.238 365.159 825.439 339.36C612.48 306.421 277.13 146.819 0.254272 -1.28336L0.0147705 -0.640488C276.927 147.482 612.334 307.109 825.366 340.057C991.791 365.796 1083.63 314.36 1014.97 120.117C1018.2 125.929 1021.29 131.629 1024.25 137.226C1107.98 333.7 1021.29 386.306 854.777 361.221C638.343 328.617 287.359 165.1 0.251709 15.6229L0.0170898 16.2688C287.161 165.764 638.199 329.304 854.704 361.918C1019.95 386.811 1106.93 335.563 1027.81 144.032C1136.61 354.347 1051.36 409.153 876.836 381.749C656.557 347.159 294.376 181.926 0.251709 32.9L0.0196533 33.5489C294.183 182.593 656.413 347.846 876.761 382.448C1053.94 410.269 1139.52 353.773 1024.85 136.987C1019.29 123.95 1012.97 110.276 1005.89 95.9622C1001.75 85.5386 997.156 74.7142 992.172 63.546C987.096 49.1694 981.274 34.0931 974.718 18.338C971.113 7.27743 967.134 -4.15092 962.771 -15.956C958.633 -30.5479 953.915 -45.7469 948.582 -61.5857C947.071 -67.5421 945.478 -73.5941 943.794 -79.7419L943.232 -79.5236C944.195 -76.0042 945.131 -72.5147 946.035 -69.0581C944.813 -72.6074 943.591 -76.1567 942.305 -79.7688L942.051 -79.6402L941.733 -79.5535C942.953 -73.1875 944.055 -66.962 945.082 -60.8232C942.572 -66.8394 939.971 -72.9423 937.285 -79.1319C937.268 -79.3143 937.251 -79.4937 937.231 -79.6791L937.06 -79.6522L936.999 -79.7957L936.671 -79.5953L936.647 -79.5924V-79.5834L936.473 -79.4757L936.713 -78.9226C937.37 -72.7389 937.923 -66.6869 938.402 -60.7275C935.334 -66.8842 932.203 -73.0978 928.947 -79.4249L928.945 -79.6462L928.837 -79.6432L928.747 -79.8226L928.488 -79.6342L928.356 -79.6312V-79.5385L928.241 -79.4548L928.358 -79.2246C928.493 -72.5326 928.517 -65.9902 928.449 -59.5763C924.839 -65.8347 921.153 -72.1559 917.347 -78.5847C917.374 -78.9256 917.403 -79.2664 917.425 -79.6133L916.836 -79.6701L916.822 -79.4817L916.609 -79.8465L916.127 -79.4429C916.335 -79.09 916.531 -78.7521 916.739 -78.4023C916.279 -71.9077 915.729 -65.5506 915.079 -59.3401C910.924 -65.6642 906.693 -72.0542 902.34 -78.5428C902.259 -78.6624 902.186 -78.776 902.112 -78.8867C902.151 -79.1169 902.193 -79.3472 902.23 -79.5804L901.65 -79.712L901.636 -79.6223L901.474 -79.8645L901.015 -79.4279C901.144 -79.2365 901.291 -79.0063 901.44 -78.776L901.482 -78.7133C900.389 -72.0691 899.194 -65.5925 897.903 -59.2713C894.846 -63.5203 891.883 -67.7005 888.921 -71.8808C887.293 -74.1772 885.67 -76.4677 883.81 -79.081C883.851 -79.2365 883.893 -79.389 883.934 -79.5445L883.37 -79.7508L883.36 -79.712L883.243 -79.8764L882.798 -79.407Z" fill="#F9FAFC" fill-opacity="0.1" />
</svg>
