<svg width="54" height="52" viewBox="0 0 54 52" fill="none" xmlns="http://www.w3.org/2000/svg">
<path d="M53.4198 12.7524C53.0526 12.452 52.5696 12.3322 52.1048 12.4261C48.8268 13.0882 45.2918 12.4542 42.1511 10.6408C41.0824 10.0237 40.1001 9.28895 39.2239 8.45543C39.2052 6.73892 38.0794 4.32369 32.882 2.47282C29.304 1.19875 24.5914 0.49707 19.6122 0.49707C14.6331 0.49707 9.9205 1.19875 6.34236 2.47282C1.10036 4.33951 0 6.78048 0 8.49951C0 8.61816 0.0100195 43.5004 0.0100195 43.5004C0.0100195 48.7541 9.8762 51.5029 19.6222 51.5029C29.0947 51.5029 38.6796 48.906 39.2101 43.9364C39.5554 43.6997 39.899 43.4647 40.2388 43.2329C43.8747 40.7519 47.309 38.4082 49.8194 35.3157C52.6716 31.8022 54 27.7651 54 22.6108V13.9768C54 13.5023 53.7871 13.0529 53.4198 12.7524ZM7.4038 5.45347C10.6498 4.29764 14.9855 3.66103 19.6121 3.66103C24.2387 3.66103 28.5745 4.29753 31.8204 5.45347C32.6869 5.76196 33.5416 6.12668 34.331 6.60171C35.2595 7.16037 35.8879 7.68793 36.0871 8.78386C35.3036 9.48248 34.4427 10.1059 33.5163 10.6407C30.3755 12.4541 26.8405 13.088 23.5626 12.426C23.0977 12.332 22.6148 12.4518 22.2476 12.7523C22.068 12.8994 21.9258 13.0823 21.8269 13.2862C21.0938 13.3194 20.3531 13.338 19.6121 13.338C14.9854 13.338 10.6497 12.7014 7.4038 11.5456C4.47504 10.5026 3.16406 9.26416 3.16406 8.49951C3.16406 7.73486 4.47504 6.49645 7.4038 5.45347ZM6.34236 14.5263C9.92039 15.8004 14.633 16.5021 19.6121 16.5021C20.2988 16.5021 20.9855 16.487 21.6674 16.4601V22.6108C21.6674 23.4116 21.6996 24.1852 21.7644 24.9344C21.0554 24.9653 20.3398 24.9825 19.6222 24.9825C14.9824 24.9825 10.6431 24.3472 7.4037 23.1936C4.48189 22.1533 3.17408 20.9122 3.17408 20.144V13.0597C4.00876 13.5704 5.04942 14.0658 6.34236 14.5263ZM3.17408 31.8467V24.7078C6.86275 26.9775 13.2675 28.1465 19.6222 28.1465C20.508 28.1465 21.3914 28.1219 22.2646 28.0777C22.9102 30.7822 24.089 33.1488 25.848 35.3158C26.085 35.6077 26.3327 35.891 26.5855 36.1704C24.4093 36.5088 22.0478 36.6852 19.6222 36.6852C14.9824 36.6852 10.6431 36.05 7.4037 34.8963C4.48189 33.8558 3.17408 32.6149 3.17408 31.8467ZM31.8407 46.55C28.6012 47.7036 24.262 48.3389 19.6222 48.3389C14.9824 48.3389 10.6431 47.7036 7.4037 46.55C4.48189 45.5097 3.17408 44.2686 3.17408 43.5004V36.4105C6.86275 38.6802 13.2675 39.8491 19.6222 39.8491C23.0989 39.8491 26.4704 39.5072 29.4212 38.8584C31.2605 40.3866 33.3096 41.787 35.4289 43.2331C35.6355 43.3741 35.8439 43.5164 36.0526 43.6591C35.8896 44.4322 34.5691 45.5785 31.8407 46.55ZM50.8359 22.6108C50.8359 32.171 45.6429 35.7147 38.4553 40.6194C38.2492 40.7601 38.0419 40.9015 37.8336 41.0438C37.6255 40.9014 37.4183 40.7602 37.2122 40.6195C35.3485 39.3469 33.4715 38.083 31.7173 36.6602C30.1635 35.3999 28.7053 33.9976 27.5632 32.3464C26.263 30.4666 25.419 28.2037 25.0718 25.9478C24.9138 24.9209 24.8315 23.8136 24.8315 22.6108V15.7933C28.2979 16.071 31.8806 15.2388 35.0984 13.3809C36.072 12.8189 36.9878 12.1753 37.834 11.4595C38.6801 12.1755 39.5957 12.819 40.5691 13.3809C43.7871 15.2388 47.3691 16.0712 50.836 15.7933V22.6108H50.8359Z" fill="#5072EB"/>
</svg>
