<svg width="48" height="49" viewBox="0 0 48 49" fill="none" xmlns="http://www.w3.org/2000/svg">
<path d="M33.2813 48.125C30.4443 48.125 27.6711 47.2838 25.3123 45.7076C22.9535 44.1315 21.115 41.8913 20.0294 39.2704C18.9437 36.6494 18.6597 33.7653 19.2131 30.9829C19.7666 28.2005 21.1327 25.6447 23.1387 23.6387C25.1447 21.6327 27.7005 20.2666 30.4829 19.7131C33.2653 19.1597 36.1494 19.4437 38.7704 20.5294C41.3913 21.615 43.6315 23.4535 45.2076 25.8123C46.7838 28.1711 47.625 30.9443 47.625 33.7813C47.6205 37.5841 46.1079 41.2299 43.4189 43.9189C40.7299 46.6079 37.0841 48.1205 33.2813 48.125ZM33.2813 22.8125C31.1118 22.8125 28.9911 23.4558 27.1873 24.6611C25.3835 25.8663 23.9777 27.5794 23.1475 29.5837C22.3173 31.588 22.1 33.7934 22.5233 35.9212C22.9465 38.0489 23.9912 40.0033 25.5252 41.5373C27.0592 43.0713 29.0136 44.116 31.1414 44.5392C33.2691 44.9625 35.4745 44.7453 37.4788 43.9151C39.4831 43.0849 41.1962 41.679 42.4014 39.8752C43.6067 38.0714 44.25 35.9507 44.25 33.7813C44.2464 30.8733 43.0897 28.0854 41.0334 26.0291C38.9771 23.9729 36.1893 22.8161 33.2813 22.8125Z" fill="#5072EB"/>
<path d="M34.125 40.5312H29.9062C29.4587 40.5312 29.0295 40.3535 28.713 40.037C28.3965 39.7205 28.2188 39.2913 28.2188 38.8438C28.2188 38.3962 28.3965 37.967 28.713 37.6505C29.0295 37.334 29.4587 37.1562 29.9062 37.1562H34.125C34.3488 37.1562 34.5634 37.0674 34.7216 36.9091C34.8799 36.7509 34.9688 36.5363 34.9688 36.3125C34.9688 36.0887 34.8799 35.8741 34.7216 35.7159C34.5634 35.5576 34.3488 35.4688 34.125 35.4688H32.4375C31.3186 35.4688 30.2456 35.0243 29.4544 34.2331C28.6632 33.4419 28.2188 32.3689 28.2188 31.25C28.2188 30.1311 28.6632 29.0581 29.4544 28.2669C30.2456 27.4757 31.3186 27.0313 32.4375 27.0312H36.6562C37.1038 27.0312 37.533 27.209 37.8495 27.5255C38.166 27.842 38.3438 28.2712 38.3438 28.7188C38.3438 29.1663 38.166 29.5955 37.8495 29.912C37.533 30.2285 37.1038 30.4062 36.6562 30.4062H32.4375C32.2137 30.4062 31.9991 30.4951 31.8409 30.6534C31.6826 30.8116 31.5938 31.0262 31.5938 31.25C31.5938 31.4738 31.6826 31.6884 31.8409 31.8466C31.9991 32.0049 32.2137 32.0938 32.4375 32.0938H34.125C35.2439 32.0938 36.3169 32.5382 37.1081 33.3294C37.8993 34.1206 38.3438 35.1936 38.3438 36.3125C38.3438 37.4314 37.8993 38.5044 37.1081 39.2956C36.3169 40.0868 35.2439 40.5312 34.125 40.5312Z" fill="#5072EB"/>
<path d="M33.2812 30.4062C32.8337 30.4062 32.4045 30.2285 32.088 29.912C31.7715 29.5955 31.5938 29.1663 31.5938 28.7188V26.1875C31.5938 25.7399 31.7715 25.3107 32.088 24.9943C32.4045 24.6778 32.8337 24.5 33.2812 24.5C33.7288 24.5 34.158 24.6778 34.4745 24.9943C34.791 25.3107 34.9688 25.7399 34.9688 26.1875V28.7188C34.9688 29.1663 34.791 29.5955 34.4745 29.912C34.158 30.2285 33.7288 30.4062 33.2812 30.4062Z" fill="#5072EB"/>
<path d="M33.2812 43.0625C32.8337 43.0625 32.4045 42.8847 32.088 42.5682C31.7715 42.2518 31.5938 41.8226 31.5938 41.375V38.8438C31.5938 38.3962 31.7715 37.967 32.088 37.6505C32.4045 37.334 32.8337 37.1562 33.2812 37.1562C33.7288 37.1562 34.158 37.334 34.4745 37.6505C34.791 37.967 34.9688 38.3962 34.9688 38.8438V41.375C34.9688 41.8226 34.791 42.2518 34.4745 42.5682C34.158 42.8847 33.7288 43.0625 33.2812 43.0625Z" fill="#5072EB"/>
<path d="M16.3961 48.1351C16.1042 48.1351 15.8106 48.1351 15.5203 48.125C10.5841 47.9813 5.73718 46.7725 1.31158 44.5812C1.02914 44.4409 0.791689 44.2242 0.626149 43.9558C0.460609 43.6873 0.373609 43.3779 0.375017 43.0625V7.625C0.375017 7.17745 0.552806 6.74823 0.869274 6.43176C1.18574 6.11529 1.61496 5.9375 2.06252 5.9375C2.51007 5.9375 2.93929 6.11529 3.25576 6.43176C3.57223 6.74823 3.75002 7.17745 3.75002 7.625V41.9977C7.48053 43.694 11.5118 44.6297 15.6081 44.75C19.2481 44.8449 22.8753 44.2818 26.3153 43.0878C26.57 43.0074 26.8399 42.9871 27.1037 43.0285C27.3676 43.0698 27.6183 43.1717 27.8362 43.3262C28.0541 43.4807 28.2333 43.6835 28.3597 43.9188C28.4861 44.1541 28.5562 44.4155 28.5647 44.6825C28.5653 45.0562 28.4418 45.4194 28.2137 45.7154C27.9855 46.0113 27.6656 46.2232 27.3041 46.3177C23.7938 47.523 20.1077 48.1372 16.3961 48.1351Z" fill="#5072EB"/>
<path d="M30.75 23.0656C30.3024 23.0656 29.8732 22.8878 29.5568 22.5714C29.2403 22.2549 29.0625 21.8257 29.0625 21.3781V7.625C29.0625 7.17745 29.2403 6.74823 29.5568 6.43176C29.8732 6.11529 30.3024 5.9375 30.75 5.9375C31.1976 5.9375 31.6268 6.11529 31.9432 6.43176C32.2597 6.74823 32.4375 7.17745 32.4375 7.625V21.3781C32.4375 21.8257 32.2597 22.2549 31.9432 22.5714C31.6268 22.8878 31.1976 23.0656 30.75 23.0656Z" fill="#5072EB"/>
<path d="M16.4062 14.375C8.68594 14.375 0.375 12.2622 0.375 7.625C0.375 2.98775 8.68594 0.875 16.4062 0.875C24.1266 0.875 32.4375 2.98775 32.4375 7.625C32.4375 12.2622 24.1266 14.375 16.4062 14.375ZM16.4062 4.25C8.18475 4.25 3.75 6.64456 3.75 7.625C3.75 8.60544 8.18475 11 16.4062 11C24.6278 11 29.0625 8.60544 29.0625 7.625C29.0625 6.64456 24.6278 4.25 16.4062 4.25Z" fill="#5072EB"/>
<path d="M16.407 26.1874C11.1656 26.1776 5.9972 24.9586 1.3039 22.6251C1.10382 22.5273 0.925081 22.3909 0.777979 22.2237C0.630876 22.0565 0.518322 21.8618 0.446806 21.6509C0.375289 21.44 0.346224 21.2171 0.361286 20.9949C0.376348 20.7727 0.43524 20.5557 0.534565 20.3564C0.633891 20.1571 0.771686 19.9794 0.940007 19.8336C1.10833 19.6877 1.30385 19.5767 1.51529 19.5068C1.72673 19.4369 1.94992 19.4095 2.17198 19.4263C2.39405 19.4431 2.6106 19.5036 2.80915 19.6045C7.27622 21.8284 12.2182 22.9296 17.2069 22.8124C21.6521 22.6864 26.0166 21.5953 29.9982 19.6146C30.1972 19.5076 30.4157 19.4416 30.6407 19.4206C30.8657 19.3996 31.0927 19.4241 31.3081 19.4924C31.5235 19.5608 31.7229 19.6718 31.8946 19.8187C32.0663 19.9657 32.2068 20.1456 32.3076 20.3478C32.4084 20.5501 32.4676 20.7705 32.4817 20.9961C32.4957 21.2216 32.4643 21.4477 32.3893 21.6609C32.3143 21.8741 32.1972 22.07 32.045 22.2371C31.8928 22.4042 31.7087 22.539 31.5034 22.6336C27.0805 24.8322 22.232 26.0415 17.2946 26.1773C16.9993 26.1874 16.704 26.1874 16.407 26.1874Z" fill="#5072EB"/>
<path d="M16.4272 38.0102C11.1829 38.0014 6.01103 36.7854 1.31227 34.4563C0.911266 34.2572 0.605799 33.9068 0.463072 33.4825C0.320345 33.0581 0.35205 32.5944 0.551211 32.1934C0.750372 31.7924 1.10068 31.4869 1.52506 31.3442C1.94944 31.2014 2.41314 31.2332 2.81415 31.4323C7.28371 33.6426 12.2219 34.738 17.2068 34.6251C18.3283 34.6008 19.4468 34.5011 20.5548 34.3264C20.9966 34.2539 21.449 34.3598 21.8126 34.6209C22.1763 34.882 22.4213 35.2768 22.4938 35.7186C22.5663 36.1603 22.4603 36.6127 22.1992 36.9764C21.9382 37.34 21.5433 37.585 21.1016 37.6575C19.8422 37.8553 18.5709 37.9681 17.2963 37.995C17.0043 38.0001 16.7141 38.0102 16.4272 38.0102Z" fill="#5072EB"/>
</svg>
