<svg width="54" height="40" viewBox="0 0 54 40" fill="none" xmlns="http://www.w3.org/2000/svg">
<path d="M17.3598 9.92209L8.20166 19.0803C7.58382 19.6981 7.58382 20.6997 8.20166 21.3176L16.4704 29.5863C17.0881 30.2041 18.0899 30.2043 18.7077 29.5863C19.3256 28.9685 19.3256 27.9668 18.7077 27.349L11.5577 20.1989L19.5971 12.1593C20.215 11.5415 20.215 10.5398 19.5971 9.92198C18.9793 9.30415 17.9776 9.30415 17.3598 9.92209Z" fill="#5072EB"/>
<path d="M37.5296 9.92212C36.9118 9.30428 35.9101 9.30428 35.2922 9.92212C34.6744 10.54 34.6744 11.5416 35.2922 12.1594L42.4423 19.3096L34.4028 27.3491C33.785 27.967 33.785 28.9686 34.4028 29.5864C35.0206 30.2043 36.0223 30.2044 36.6401 29.5864L45.7983 20.4283C46.4161 19.8104 46.4161 18.8088 45.7983 18.191L37.5296 9.92212Z" fill="#5072EB"/>
<path d="M31.6819 6.41853C30.8577 6.12744 29.9543 6.55965 29.6633 7.38346L21.2977 31.0714C21.0068 31.8954 21.4387 32.799 22.2627 33.09C23.0863 33.3809 23.9902 32.9491 24.2812 32.1251L32.6468 8.4371C32.9377 7.61318 32.5057 6.70941 31.6819 6.41853Z" fill="#5072EB"/>
<path d="M46.3573 0H7.64269C3.42847 0 0 3.42847 0 7.64269V31.8657C0 36.0799 3.42847 39.5084 7.64269 39.5084H46.3573C50.5715 39.5084 54 36.0799 54 31.8657V7.64269C54 3.42847 50.5715 0 46.3573 0ZM50.8359 31.8657C50.8359 34.3352 48.8269 36.3443 46.3573 36.3443H7.64269C5.17314 36.3443 3.16406 34.3352 3.16406 31.8657V7.64269C3.16406 5.17314 5.17314 3.16406 7.64269 3.16406H46.3573C48.8269 3.16406 50.8359 5.17314 50.8359 7.64269V31.8657Z" fill="#5072EB"/>
</svg>
