<svg width="20" height="20" viewBox="0 0 20 20" fill="none" xmlns="http://www.w3.org/2000/svg">
<path d="M14.4174 11.1249C14.1988 11.124 13.9893 11.0372 13.8341 10.8833C13.6789 10.7271 13.5918 10.5159 13.5918 10.2958C13.5918 10.0756 13.6789 9.8644 13.8341 9.70826L15.6008 7.9416C15.7557 7.78681 15.8787 7.60299 15.9625 7.40066C16.0464 7.19833 16.0896 6.98146 16.0896 6.76243C16.0896 6.54341 16.0464 6.32653 15.9625 6.1242C15.8787 5.92187 15.7557 5.73805 15.6008 5.58326L14.4174 4.39993C14.0987 4.0987 13.6768 3.93087 13.2383 3.93087C12.7997 3.93087 12.3778 4.0987 12.0591 4.39993L10.2924 6.1666C10.1327 6.29441 9.93152 6.35899 9.72723 6.34804C9.52295 6.3371 9.32983 6.2514 9.18466 6.10725C9.03948 5.96311 8.95241 5.77061 8.94001 5.5664C8.92761 5.3622 8.99076 5.16058 9.11743 4.99993L10.8841 3.23326C11.5196 2.62704 12.3641 2.28882 13.2424 2.28882C14.1207 2.28882 14.9653 2.62704 15.6008 3.23326L16.7758 4.40826C17.0857 4.71784 17.3315 5.08547 17.4993 5.49013C17.667 5.89479 17.7534 6.32855 17.7534 6.7666C17.7534 7.20465 17.667 7.6384 17.4993 8.04307C17.3315 8.44773 17.0857 8.81535 16.7758 9.12493L15.0008 10.8833C14.8455 11.0372 14.636 11.124 14.4174 11.1249Z" fill="#47506D"/>
<path d="M6.75705 17.7503C6.31918 17.7506 5.88553 17.6647 5.48088 17.4974C5.07623 17.3301 4.70851 17.0847 4.39872 16.7753L3.22372 15.6003C2.91379 15.2907 2.66793 14.9231 2.50018 14.5184C2.33244 14.1137 2.24609 13.68 2.24609 13.2419C2.24609 12.8039 2.33244 12.3701 2.50018 11.9655C2.66793 11.5608 2.91379 11.1932 3.22372 10.8836L4.99872 9.11694C5.15936 8.99027 5.36099 8.92712 5.56519 8.93952C5.76939 8.95192 5.9619 9.039 6.10604 9.18417C6.25018 9.32934 6.33589 9.52246 6.34683 9.72674C6.35777 9.93103 6.29319 10.1322 6.16538 10.2919L4.39872 12.0586C4.24376 12.2134 4.12082 12.3972 4.03695 12.5995C3.95308 12.8019 3.9099 13.0187 3.9099 13.2378C3.9099 13.4568 3.95308 13.6737 4.03695 13.876C4.12082 14.0783 4.24376 14.2622 4.39872 14.4169L5.58205 15.6003C5.90076 15.9015 6.32268 16.0693 6.76122 16.0693C7.19976 16.0693 7.62167 15.9015 7.94038 15.6003L9.70705 13.8336C9.77977 13.7414 9.87116 13.6656 9.97523 13.6111C10.0793 13.5567 10.1937 13.5249 10.3109 13.5178C10.4282 13.5107 10.5456 13.5284 10.6555 13.5698C10.7654 13.6113 10.8652 13.6755 10.9486 13.7582C11.0319 13.841 11.0968 13.9404 11.1391 14.05C11.1813 14.1596 11.1999 14.2769 11.1936 14.3942C11.1873 14.5114 11.1563 14.6261 11.1026 14.7305C11.0489 14.835 10.9738 14.9269 10.882 15.0003L9.11538 16.7669C8.80627 17.0779 8.43886 17.3248 8.03418 17.4935C7.62949 17.6623 7.1955 17.7495 6.75705 17.7503Z" fill="#47506D"/>
<path d="M7.34891 13.4834C7.23923 13.4841 7.13052 13.4631 7.02899 13.4216C6.92745 13.3801 6.83511 13.319 6.75724 13.2418C6.67913 13.1643 6.61714 13.0721 6.57483 12.9706C6.53252 12.869 6.51074 12.7601 6.51074 12.6501C6.51074 12.5401 6.53252 12.4312 6.57483 12.3296C6.61714 12.2281 6.67913 12.1359 6.75724 12.0584L12.0656 6.75844C12.2217 6.60323 12.4329 6.51611 12.6531 6.51611C12.8732 6.51611 13.0844 6.60323 13.2406 6.75844C13.3187 6.83591 13.3807 6.92808 13.423 7.02963C13.4653 7.13118 13.4871 7.2401 13.4871 7.35011C13.4871 7.46012 13.4653 7.56904 13.423 7.67059C13.3807 7.77214 13.3187 7.8643 13.2406 7.94177L7.93224 13.2418C7.77702 13.3957 7.56752 13.4825 7.34891 13.4834Z" fill="#47506D"/>
</svg>
