<svg width="20" height="20" viewBox="0 0 32 32" fill="none" xmlns="http://www.w3.org/2000/svg">
	<path d="M8.13231 10.5928H2V29.4966H8.13231V10.5928Z" stroke="#47506D" stroke-width="2" stroke-miterlimit="10" stroke-linecap="round" stroke-linejoin="round" />
	<path d="M24.8355 10.8145C24.7703 10.7941 24.7086 10.7717 24.6403 10.7525C24.5578 10.7338 24.4756 10.718 24.3916 10.7046C24.0661 10.6391 23.7092 10.5928 23.2913 10.5928C19.7163 10.5928 17.4484 13.2 16.7016 14.2068V10.5928H10.5693V29.4966H16.7015V19.1855C16.7015 19.1855 21.3356 12.7134 23.2913 17.4668V29.4966H29.4219V16.7399C29.4219 13.8836 27.4696 11.5035 24.8355 10.8145Z" stroke="#47506D" stroke-width="2" stroke-miterlimit="10" stroke-linecap="round" stroke-linejoin="round" />
	<path d="M4.9995 8.01481C6.65569 8.01481 7.99875 6.66856 7.99875 5.00731C7.99875 3.3465 6.65569 2 4.9995 2C3.34306 2 2 3.3465 2 5.00731C2 6.6685 3.34306 8.01481 4.9995 8.01481Z" stroke="#47506D" stroke-width="2" stroke-miterlimit="10" stroke-linecap="round" stroke-linejoin="round" />
</svg>
