<svg width="45" height="44" viewBox="0 0 45 44" fill="none" xmlns="http://www.w3.org/2000/svg">
<path d="M22.2706 43.1856C21.9865 43.1856 21.714 43.0728 21.513 42.8718C21.3121 42.6709 21.1992 42.3984 21.1992 42.1142C21.1992 41.83 21.3121 41.5575 21.513 41.3566C21.714 41.1557 21.9865 41.0428 22.2706 41.0428C27.3211 41.0428 32.1648 39.0365 35.736 35.4653C39.3072 31.894 41.3135 27.0504 41.3135 21.9999C41.3135 16.9494 39.3072 12.1058 35.736 8.53459C32.1648 4.96336 27.3211 2.95707 22.2706 2.95707C21.9865 2.95707 21.714 2.84418 21.513 2.64325L21.1595 2.99681L21.513 2.64325C21.3121 2.44232 21.1992 2.1698 21.1992 1.88564C21.1992 1.60148 21.3121 1.32895 21.513 1.12802C21.714 0.927092 21.9865 0.814209 22.2706 0.814209C27.8894 0.814209 33.2781 3.04627 37.2512 7.01936C41.2243 10.9925 43.4564 16.3811 43.4564 21.9999C43.4564 27.6187 41.2243 33.0074 37.2512 36.9805C33.2781 40.9536 27.8894 43.1856 22.2706 43.1856Z" fill="#5072EB" stroke="#5072EB"/>
<path d="M25.5074 23.5713H3.28237C2.8656 23.5713 2.4659 23.4058 2.1712 23.1111C1.8765 22.8164 1.71094 22.4167 1.71094 21.9999C1.71094 21.5831 1.8765 21.1834 2.1712 20.8887C2.4659 20.594 2.8656 20.4285 3.28237 20.4285H25.5074C25.9242 20.4285 26.3239 20.594 26.6186 20.8887C26.9133 21.1834 27.0788 21.5831 27.0788 21.9999C27.0788 22.4167 26.9133 22.8164 26.6186 23.1111C26.3239 23.4058 25.9242 23.5713 25.5074 23.5713Z" fill="#5072EB"/>
<path d="M17.4703 33.2362C17.1584 33.2373 16.8533 33.1455 16.5937 32.9726C16.3341 32.7997 16.1319 32.5535 16.0127 32.2652C15.8936 31.977 15.8629 31.6599 15.9245 31.3541C15.9862 31.0484 16.1374 30.768 16.359 30.5485L24.3846 22.5216C24.4539 22.4524 24.5088 22.3702 24.5463 22.2797C24.5838 22.1892 24.6031 22.0922 24.6031 21.9942C24.6031 21.8963 24.5838 21.7993 24.5463 21.7088C24.5088 21.6183 24.4539 21.5361 24.3846 21.4669L16.359 13.4513C16.2088 13.3064 16.0891 13.133 16.0067 12.9413C15.9242 12.7496 15.8808 12.5434 15.879 12.3348C15.8771 12.1261 15.9168 11.9192 15.9958 11.7261C16.0747 11.5329 16.1914 11.3574 16.3389 11.2098C16.4864 11.0623 16.6618 10.9455 16.8549 10.8665C17.048 10.7874 17.2549 10.7476 17.4635 10.7493C17.6722 10.7511 17.8784 10.7944 18.0702 10.8767C18.2619 10.959 18.4353 11.0786 18.5803 11.2287L26.6047 19.2505C27.3317 19.9808 27.7398 20.9694 27.7398 21.9999C27.7398 23.0304 27.3317 24.0189 26.6047 24.7493L18.5778 32.7761C18.4325 32.9218 18.2599 33.0374 18.0698 33.1164C17.8798 33.1953 17.6761 33.236 17.4703 33.2362Z" fill="#5072EB"/>
</svg>
