<svg width="45" height="44" viewBox="0 0 45 44" fill="none" xmlns="http://www.w3.org/2000/svg">
<path fill-rule="evenodd" clip-rule="evenodd" d="M21.459 17.875C21.459 17.1457 21.1693 16.4462 20.6535 15.9305C20.1378 15.4147 19.4383 15.125 18.709 15.125H10.459C9.72964 15.125 9.03016 15.4147 8.51444 15.9305C7.99871 16.4462 7.70898 17.1457 7.70898 17.875C7.70898 18.6043 7.99871 19.3038 8.51444 19.8195C9.03016 20.3353 9.72964 20.625 10.459 20.625H21.459V17.875ZM22.5981 13.9859C23.6295 15.0174 24.209 16.4163 24.209 17.875V22C24.209 22.7594 23.5934 23.375 22.834 23.375H10.459C9.00029 23.375 7.60135 22.7955 6.5699 21.7641C5.53845 20.7326 4.95898 19.3337 4.95898 17.875C4.95898 16.4163 5.53845 15.0174 6.5699 13.9859C7.60135 12.9545 9.00029 12.375 10.459 12.375H18.709C20.1677 12.375 21.5666 12.9545 22.5981 13.9859Z" fill="#5072EB"/>
<path fill-rule="evenodd" clip-rule="evenodd" d="M18.7033 6.87502C18.3425 6.87351 17.9849 6.94346 17.6513 7.08084C17.3177 7.21821 17.0145 7.42029 16.7594 7.67542C16.5043 7.93055 16.3022 8.23368 16.1648 8.56731C16.0274 8.90094 15.9575 9.25847 15.959 9.61927V9.6308C15.9575 9.9916 16.0274 10.3491 16.1648 10.6828C16.3022 11.0164 16.5043 11.3195 16.7594 11.5746C17.0145 11.8298 17.3177 12.0319 17.6513 12.1692C17.9849 12.3066 18.3425 12.3766 18.7033 12.375L18.709 12.375H21.459V9.62504L21.459 9.61927C21.4605 9.25847 21.3906 8.90094 21.2532 8.56731C21.1158 8.23368 20.9138 7.93055 20.6586 7.67542C20.4035 7.42029 20.1004 7.21821 19.7668 7.08084C19.4331 6.94346 19.0756 6.87351 18.7148 6.87502H18.7033ZM18.709 4.12503C17.9871 4.12276 17.2718 4.26308 16.6042 4.53797C15.9349 4.81358 15.3267 5.21902 14.8149 5.73088C14.303 6.24274 13.8976 6.8509 13.622 7.52026C13.3471 8.18784 13.2067 8.90312 13.209 9.62504C13.2067 10.347 13.3471 11.0622 13.622 11.7298C13.8976 12.3992 14.303 13.0073 14.8149 13.5192C15.3267 14.0311 15.9349 14.4365 16.6042 14.7121C17.2727 14.9873 17.9889 15.1277 18.7118 15.125H22.834C23.5934 15.125 24.209 14.5094 24.209 13.75V9.62779C24.2117 8.90494 24.0713 8.18869 23.7961 7.52026C23.5205 6.8509 23.115 6.24274 22.6032 5.73088C22.0913 5.21902 21.4832 4.81358 20.8138 4.53797C20.1462 4.26308 19.4309 4.12276 18.709 4.12503Z" fill="#5072EB"/>
<path fill-rule="evenodd" clip-rule="evenodd" d="M26.959 20.625C27.6883 20.625 28.3878 20.3353 28.9035 19.8195C29.4193 19.3038 29.709 18.6043 29.709 17.875V9.625C29.709 8.89565 29.4193 8.19618 28.9035 7.68046C28.3878 7.16473 27.6883 6.875 26.959 6.875C26.2296 6.875 25.5302 7.16473 25.0144 7.68046C24.4987 8.19618 24.209 8.89565 24.209 9.625V20.625H26.959ZM30.8481 21.7641C29.8166 22.7955 28.4177 23.375 26.959 23.375H22.834C22.0746 23.375 21.459 22.7594 21.459 22V9.625C21.459 8.16631 22.0384 6.76736 23.0699 5.73591C24.1013 4.70446 25.5003 4.125 26.959 4.125C28.4177 4.125 29.8166 4.70446 30.8481 5.73591C31.8795 6.76736 32.459 8.16631 32.459 9.625V17.875C32.459 19.3337 31.8795 20.7326 30.8481 21.7641Z" fill="#5072EB"/>
<path fill-rule="evenodd" clip-rule="evenodd" d="M35.2033 15.125C34.8425 15.1235 34.4849 15.1935 34.1513 15.3308C33.8177 15.4682 33.5145 15.6703 33.2594 15.9254C33.0043 16.1806 32.8022 16.4837 32.6648 16.8173C32.5274 17.1509 32.4575 17.5085 32.459 17.8693L32.459 17.875V20.625H35.209L35.2148 20.625C35.5756 20.6266 35.9331 20.5566 36.2667 20.4192C36.6004 20.2819 36.9035 20.0798 37.1586 19.8246C37.4138 19.5695 37.6158 19.2664 37.7532 18.9328C37.8906 18.5991 37.9605 18.2416 37.959 17.8808V17.8693C37.9605 17.5085 37.8906 17.1509 37.7532 16.8173C37.6158 16.4837 37.4138 16.1806 37.1586 15.9254C36.9035 15.6703 36.6004 15.4682 36.2667 15.3308C35.9331 15.1935 35.5756 15.1235 35.2148 15.125H35.2033ZM35.209 12.375C34.4871 12.3728 33.7718 12.5131 33.1042 12.788C32.4349 13.0636 31.8267 13.469 31.3149 13.9809C30.803 14.4927 30.3976 15.1009 30.122 15.7703C29.8467 16.4387 29.7064 17.1549 29.709 17.8777V22C29.709 22.7594 30.3246 23.375 31.084 23.375H35.2063C35.9291 23.3777 36.6454 23.2373 37.3138 22.9621C37.9832 22.6865 38.5913 22.2811 39.1032 21.7692C39.615 21.2573 40.0205 20.6492 40.2961 19.9798C40.571 19.3122 40.7113 18.597 40.709 17.875C40.7113 17.1531 40.571 16.4378 40.2961 15.7703C40.0205 15.1009 39.615 14.4927 39.1032 13.9809C38.5913 13.469 37.9832 13.0636 37.3138 12.788C36.6462 12.5131 35.9309 12.3728 35.209 12.375Z" fill="#5072EB"/>
<path fill-rule="evenodd" clip-rule="evenodd" d="M24.209 26.125C24.209 26.8543 24.4987 27.5538 25.0144 28.0695C25.5302 28.5853 26.2296 28.875 26.959 28.875H35.209C35.9383 28.875 36.6378 28.5853 37.1535 28.0695C37.6693 27.5538 37.959 26.8543 37.959 26.125C37.959 25.3957 37.6693 24.6962 37.1535 24.1805C36.6378 23.6647 35.9383 23.375 35.209 23.375H24.209V26.125ZM23.0699 30.0141C22.0384 28.9826 21.459 27.5837 21.459 26.125V22C21.459 21.2406 22.0746 20.625 22.834 20.625H35.209C36.6677 20.625 38.0666 21.2045 39.0981 22.2359C40.1295 23.2674 40.709 24.6663 40.709 26.125C40.709 27.5837 40.1295 28.9826 39.0981 30.0141C38.0666 31.0455 36.6677 31.625 35.209 31.625H26.959C25.5003 31.625 24.1013 31.0455 23.0699 30.0141Z" fill="#5072EB"/>
<path fill-rule="evenodd" clip-rule="evenodd" d="M28.0168 31.8308C27.6831 31.6935 27.3256 31.6235 26.9648 31.625L26.959 31.625H24.209V34.375L24.209 34.3808C24.2075 34.7416 24.2774 35.0991 24.4148 35.4328C24.5522 35.7664 24.7543 36.0695 25.0094 36.3246C25.2645 36.5798 25.5677 36.7819 25.9013 36.9192C26.2349 37.0566 26.5925 37.1266 26.9533 37.125H26.9648C27.3256 37.1266 27.6831 37.0566 28.0168 36.9192C28.3504 36.7819 28.6535 36.5798 28.9086 36.3246C29.1638 36.0695 29.3658 35.7664 29.5032 35.4328C29.6406 35.0991 29.7105 34.7416 29.709 34.3808V34.3693C29.7105 34.0085 29.6406 33.6509 29.5032 33.3173C29.3658 32.9837 29.1638 32.6806 28.9086 32.4254C28.6535 32.1703 28.3504 31.9682 28.0168 31.8308ZM26.9563 28.875C27.6792 28.8724 28.3954 29.0127 29.0638 29.288C29.7332 29.5636 30.3413 29.969 30.8532 30.4809C31.365 30.9927 31.7705 31.6009 32.0461 32.2703C32.321 32.9378 32.4613 33.6531 32.459 34.375C32.4613 35.097 32.321 35.8122 32.0461 36.4798C31.7705 37.1492 31.365 37.7573 30.8532 38.2692C30.3413 38.7811 29.7332 39.1865 29.0638 39.4621C28.3962 39.737 27.6809 39.8773 26.959 39.875C26.2371 39.8773 25.5218 39.737 24.8542 39.4621C24.1849 39.1865 23.5767 38.7811 23.0649 38.2692C22.553 37.7573 22.1476 37.1492 21.872 36.4798C21.5967 35.8114 21.4564 35.0952 21.459 34.3723V30.25C21.459 29.4906 22.0746 28.875 22.834 28.875H26.9563Z" fill="#5072EB"/>
<path fill-rule="evenodd" clip-rule="evenodd" d="M18.709 23.375C17.9796 23.375 17.2802 23.6647 16.7644 24.1805C16.2487 24.6962 15.959 25.3957 15.959 26.125V34.375C15.959 35.1043 16.2487 35.8038 16.7644 36.3195C17.2802 36.8353 17.9796 37.125 18.709 37.125C19.4383 37.125 20.1378 36.8353 20.6535 36.3195C21.1693 35.8038 21.459 35.1043 21.459 34.375V23.375H18.709ZM14.8199 22.2359C15.8513 21.2045 17.2503 20.625 18.709 20.625H22.834C23.5934 20.625 24.209 21.2406 24.209 22V34.375C24.209 35.8337 23.6295 37.2326 22.5981 38.2641C21.5666 39.2955 20.1677 39.875 18.709 39.875C17.2503 39.875 15.8513 39.2955 14.8199 38.2641C13.7884 37.2326 13.209 35.8337 13.209 34.375V26.125C13.209 24.6663 13.7884 23.2674 14.8199 22.2359Z" fill="#5072EB"/>
<path fill-rule="evenodd" clip-rule="evenodd" d="M10.4533 23.375C10.0925 23.3735 9.73492 23.4435 9.40129 23.5808C9.06766 23.7182 8.76454 23.9203 8.50941 24.1754C8.25428 24.4306 8.0522 24.7337 7.91482 25.0673C7.77744 25.4009 7.7075 25.7585 7.70901 26.1193V26.1308C7.7075 26.4916 7.77744 26.8491 7.91482 27.1828C8.0522 27.5164 8.25428 27.8195 8.50941 28.0746C8.76454 28.3298 9.06766 28.5319 9.40129 28.6692C9.73492 28.8066 10.0925 28.8766 10.4533 28.875H10.4648C10.8256 28.8766 11.1831 28.8066 11.5168 28.6692C11.8504 28.5319 12.1535 28.3298 12.4086 28.0746C12.6638 27.8195 12.8658 27.5164 13.0032 27.1828C13.1406 26.8491 13.2105 26.4916 13.209 26.1308L13.209 26.125V23.375H10.459L10.4533 23.375ZM10.4617 20.625C9.73888 20.6224 9.02265 20.7627 8.35424 21.038C7.68488 21.3136 7.07672 21.719 6.56486 22.2309C6.053 22.7427 5.64757 23.3509 5.37195 24.0203C5.09707 24.6878 4.95674 25.4031 4.95901 26.125C4.95674 26.847 5.09707 27.5622 5.37195 28.2298C5.64757 28.8992 6.053 29.5073 6.56486 30.0192C7.07672 30.5311 7.68488 30.9365 8.35424 31.2121C9.02182 31.487 9.7371 31.6273 10.459 31.625C11.1809 31.6273 11.8962 31.487 12.5638 31.2121C13.2332 30.9365 13.8413 30.5311 14.3532 30.0192C14.865 29.5073 15.2705 28.8992 15.5461 28.2298C15.8213 27.5614 15.9617 26.8451 15.959 26.1223V22C15.959 21.2406 15.3434 20.625 14.584 20.625H10.4617Z" fill="#5072EB"/>
</svg>
