<svg width="21" height="20" viewBox="0 0 21 20" fill="none" xmlns="http://www.w3.org/2000/svg">
<path d="M18.5215 0.322266H2.19336C1.70661 0.322814 1.23995 0.516418 0.895761 0.860604C0.551574 1.20479 0.35797 1.67145 0.357422 2.1582L0.357422 13.5999C0.35797 14.0867 0.551574 14.5533 0.895761 14.8975C1.23995 15.2417 1.70661 15.4353 2.19336 15.4359H8.31227L8.24512 16.5062H7.25777C6.93672 16.5065 6.62893 16.6342 6.40191 16.8612C6.17489 17.0883 6.0472 17.3961 6.04684 17.7171V19.053C6.04684 19.2188 6.11268 19.3778 6.22989 19.495C6.3471 19.6122 6.50608 19.678 6.67184 19.678H14.0429C14.2087 19.678 14.3677 19.6122 14.4849 19.495C14.6021 19.3778 14.6679 19.2188 14.6679 19.053V17.7171C14.6676 17.3961 14.5399 17.0883 14.3129 16.8612C14.0858 16.6342 13.778 16.5065 13.457 16.5062H12.4697L12.4026 15.4359H18.5215C19.0082 15.4353 19.4749 15.2417 19.8191 14.8975C20.1633 14.5533 20.3569 14.0867 20.3574 13.5999V2.15816C20.3569 1.67142 20.1633 1.20477 19.8191 0.860591C19.4749 0.516413 19.0082 0.322814 18.5215 0.322266ZM13.418 18.4281H7.29691V17.7562H13.418V18.4281ZM11.2172 16.5062H9.49762L9.56476 15.4359H11.1501L11.2172 16.5062ZM19.1074 13.5999C19.1072 13.7553 19.0455 13.9042 18.9356 14.014C18.8258 14.1239 18.6768 14.1857 18.5215 14.1859H2.19336C2.03801 14.1857 1.88908 14.1239 1.77923 14.014C1.66939 13.9042 1.6076 13.7553 1.60742 13.5999V2.15816C1.60759 2.00281 1.66937 1.85388 1.77922 1.74403C1.88907 1.63418 2.03801 1.57239 2.19336 1.57223H18.5215C18.6768 1.57239 18.8258 1.63418 18.9356 1.74403C19.0455 1.85388 19.1073 2.00281 19.1074 2.15816V13.5999ZM16.4283 11.5811C16.4283 11.7469 16.3625 11.9058 16.2453 12.023C16.1281 12.1402 15.9691 12.2061 15.8033 12.2061H4.91152C4.74576 12.2061 4.58679 12.1402 4.46958 12.023C4.35237 11.9058 4.28652 11.7469 4.28652 11.5811C4.28652 11.4153 4.35237 11.2564 4.46958 11.1392C4.58679 11.0219 4.74576 10.9561 4.91152 10.9561H6.4877V8.46523C6.4877 8.29947 6.55354 8.1405 6.67075 8.02329C6.78796 7.90608 6.94693 7.84023 7.1127 7.84023C7.27846 7.84023 7.43743 7.90608 7.55464 8.02329C7.67185 8.1405 7.7377 8.29947 7.7377 8.46523V10.9561H9.73242V6.90562C9.73242 6.82355 9.74859 6.74228 9.78 6.66645C9.81141 6.59062 9.85744 6.52172 9.91548 6.46368C9.97352 6.40565 10.0424 6.35961 10.1182 6.3282C10.1941 6.29679 10.2753 6.28062 10.3574 6.28062C10.4395 6.28062 10.5208 6.29679 10.5966 6.3282C10.6724 6.35961 10.7413 6.40565 10.7994 6.46368C10.8574 6.52172 10.9034 6.59062 10.9348 6.66645C10.9663 6.74228 10.9824 6.82355 10.9824 6.90562V10.9561H12.9771V5.2182L12.4417 5.76945C12.3262 5.88837 12.1682 5.95654 12.0025 5.95897C11.8367 5.9614 11.6768 5.89788 11.5579 5.7824C11.439 5.66692 11.3708 5.50893 11.3684 5.34318C11.3659 5.17743 11.4294 5.01751 11.5449 4.89859L13.1539 3.24234C13.2121 3.18238 13.2818 3.13471 13.3588 3.10216C13.4358 3.06961 13.5186 3.05283 13.6022 3.05283C13.6858 3.05283 13.7685 3.06961 13.8455 3.10216C13.9225 3.13471 13.9922 3.18238 14.0505 3.24234L15.6593 4.89859C15.7748 5.0175 15.8383 5.17741 15.8359 5.34317C15.8335 5.50893 15.7654 5.66695 15.6465 5.78246C15.5276 5.89797 15.3677 5.96152 15.2019 5.95913C15.0361 5.95673 14.8781 5.88859 14.7626 5.76969L14.2271 5.21844V10.9563H15.8033C15.969 10.9563 16.128 11.0221 16.2452 11.1393C16.3624 11.2565 16.4283 11.4154 16.4283 11.5811Z" fill="#5072EB"/>
</svg>
