<svg width="21" height="20" viewBox="0 0 21 20" fill="none" xmlns="http://www.w3.org/2000/svg">
<g clip-path="url(#clip0_6020_966)">
<path d="M15.9824 6.25H2.23242C1.19848 6.25 0.357422 5.40894 0.357422 4.375V1.875C0.357422 0.841063 1.19848 0 2.23242 0H15.9824C17.0164 0 17.8574 0.841063 17.8574 1.875V4.375C17.8574 5.40894 17.0164 6.25 15.9824 6.25ZM2.23242 1.25C1.88755 1.25 1.60742 1.53044 1.60742 1.875V4.375C1.60742 4.71956 1.88755 5 2.23242 5H15.9824C16.3273 5 16.6074 4.71956 16.6074 4.375V1.875C16.6074 1.53044 16.3273 1.25 15.9824 1.25H2.23242Z" fill="#5072EB"/>
<path d="M15.9824 11.25H2.23242C1.19848 11.25 0.357422 10.4089 0.357422 9.375V6.875C0.357422 5.84106 1.19848 5 2.23242 5H15.9824C17.0164 5 17.8574 5.84106 17.8574 6.875V9.375C17.8574 10.4089 17.0164 11.25 15.9824 11.25ZM2.23242 6.25C1.88755 6.25 1.60742 6.53044 1.60742 6.875V9.375C1.60742 9.71956 1.88755 10 2.23242 10H15.9824C16.3273 10 16.6074 9.71956 16.6074 9.375V6.875C16.6074 6.53044 16.3273 6.25 15.9824 6.25H2.23242Z" fill="#5072EB"/>
<path d="M12.2324 16.25H2.23242C1.19848 16.25 0.357422 15.4089 0.357422 14.375V11.875C0.357422 10.8411 1.19848 10 2.23242 10H15.9824C17.0164 10 17.8574 10.8411 17.8574 11.875V12.0938C17.8574 12.4389 17.5779 12.7188 17.2324 12.7188C16.887 12.7188 16.6074 12.4389 16.6074 12.0938V11.875C16.6074 11.5304 16.3273 11.25 15.9824 11.25H2.23242C1.88755 11.25 1.60742 11.5304 1.60742 11.875V14.375C1.60742 14.7196 1.88755 15 2.23242 15H12.2324C12.5779 15 12.8574 15.2799 12.8574 15.625C12.8574 15.9701 12.5779 16.25 12.2324 16.25Z" fill="#5072EB"/>
<path d="M7.23242 3.75H3.48242C3.13698 3.75 2.85742 3.47013 2.85742 3.125C2.85742 2.77987 3.13698 2.5 3.48242 2.5H7.23242C7.57786 2.5 7.85742 2.77987 7.85742 3.125C7.85742 3.47013 7.57786 3.75 7.23242 3.75Z" fill="#5072EB"/>
<path d="M9.73242 3.75C10.0776 3.75 10.3574 3.47018 10.3574 3.125C10.3574 2.77982 10.0776 2.5 9.73242 2.5C9.38724 2.5 9.10742 2.77982 9.10742 3.125C9.10742 3.47018 9.38724 3.75 9.73242 3.75Z" fill="#5072EB"/>
<path d="M12.2324 3.75C12.5776 3.75 12.8574 3.47018 12.8574 3.125C12.8574 2.77982 12.5776 2.5 12.2324 2.5C11.8872 2.5 11.6074 2.77982 11.6074 3.125C11.6074 3.47018 11.8872 3.75 12.2324 3.75Z" fill="#5072EB"/>
<path d="M14.7324 3.75C15.0776 3.75 15.3574 3.47018 15.3574 3.125C15.3574 2.77982 15.0776 2.5 14.7324 2.5C14.3872 2.5 14.1074 2.77982 14.1074 3.125C14.1074 3.47018 14.3872 3.75 14.7324 3.75Z" fill="#5072EB"/>
<path d="M7.23242 8.75H3.48242C3.13698 8.75 2.85742 8.47013 2.85742 8.125C2.85742 7.77987 3.13698 7.5 3.48242 7.5H7.23242C7.57786 7.5 7.85742 7.77987 7.85742 8.125C7.85742 8.47013 7.57786 8.75 7.23242 8.75Z" fill="#5072EB"/>
<path d="M9.73242 8.75C10.0776 8.75 10.3574 8.47018 10.3574 8.125C10.3574 7.77982 10.0776 7.5 9.73242 7.5C9.38724 7.5 9.10742 7.77982 9.10742 8.125C9.10742 8.47018 9.38724 8.75 9.73242 8.75Z" fill="#5072EB"/>
<path d="M12.2324 8.75C12.5776 8.75 12.8574 8.47018 12.8574 8.125C12.8574 7.77982 12.5776 7.5 12.2324 7.5C11.8872 7.5 11.6074 7.77982 11.6074 8.125C11.6074 8.47018 11.8872 8.75 12.2324 8.75Z" fill="#5072EB"/>
<path d="M14.7324 8.75C15.0776 8.75 15.3574 8.47018 15.3574 8.125C15.3574 7.77982 15.0776 7.5 14.7324 7.5C14.3872 7.5 14.1074 7.77982 14.1074 8.125C14.1074 8.47018 14.3872 8.75 14.7324 8.75Z" fill="#5072EB"/>
<path d="M7.23242 13.75H3.48242C3.13698 13.75 2.85742 13.4701 2.85742 13.125C2.85742 12.7799 3.13698 12.5 3.48242 12.5H7.23242C7.57786 12.5 7.85742 12.7799 7.85742 13.125C7.85742 13.4701 7.57786 13.75 7.23242 13.75Z" fill="#5072EB"/>
<path d="M9.73242 13.75C10.0776 13.75 10.3574 13.4702 10.3574 13.125C10.3574 12.7798 10.0776 12.5 9.73242 12.5C9.38724 12.5 9.10742 12.7798 9.10742 13.125C9.10742 13.4702 9.38724 13.75 9.73242 13.75Z" fill="#5072EB"/>
<path d="M12.2324 13.75C12.5776 13.75 12.8574 13.4702 12.8574 13.125C12.8574 12.7798 12.5776 12.5 12.2324 12.5C11.8872 12.5 11.6074 12.7798 11.6074 13.125C11.6074 13.4702 11.8872 13.75 12.2324 13.75Z" fill="#5072EB"/>
<path d="M15.9824 20C13.5703 20 11.6074 18.0374 11.6074 15.625C11.6074 13.2126 13.5703 11.25 15.9824 11.25C18.3945 11.25 20.3574 13.2126 20.3574 15.625C20.3574 18.0374 18.3945 20 15.9824 20ZM15.9824 12.5C14.2594 12.5 12.8574 13.902 12.8574 15.625C12.8574 17.348 14.2594 18.75 15.9824 18.75C17.7054 18.75 19.1074 17.348 19.1074 15.625C19.1074 13.902 17.7054 12.5 15.9824 12.5Z" fill="#5072EB"/>
<path d="M17.2324 16.25H15.9824C15.637 16.25 15.3574 15.9701 15.3574 15.625V14.375C15.3574 14.0299 15.637 13.75 15.9824 13.75C16.3279 13.75 16.6074 14.0299 16.6074 14.375V15H17.2324C17.5779 15 17.8574 15.2799 17.8574 15.625C17.8574 15.9701 17.5779 16.25 17.2324 16.25Z" fill="#5072EB"/>
</g>
<defs>
<clipPath id="clip0_6020_966">
<rect width="20" height="20" fill="white" transform="translate(0.357422)"/>
</clipPath>
</defs>
</svg>
