<svg width="20" height="20" viewBox="0 0 20 20" fill="none" xmlns="http://www.w3.org/2000/svg">
<path fill-rule="evenodd" clip-rule="evenodd" d="M2.85668 0.625C2.01455 0.625 1.20334 1.20108 1.06331 2.11217C0.955143 2.81598 0.955581 3.43037 1.0639 4.13575C1.20384 5.04706 2.01478 5.625 2.85851 5.625H4.41992V14.6875C4.41992 16.0682 5.5392 17.1875 6.91992 17.1875H8.51686C8.54492 17.4476 8.59014 17.714 8.65245 17.9942C8.84236 18.848 9.61867 19.375 10.4263 19.375H17.782C18.5809 19.375 19.3518 18.8591 19.5497 18.0157C19.7929 16.9792 19.7934 16.1329 19.5507 15.1047C19.352 14.2625 18.5814 13.75 17.7853 13.75H10.4242C9.61839 13.75 8.84217 14.2749 8.6518 15.128C8.58908 15.4091 8.5438 15.6763 8.51592 15.9375H6.91992C6.22958 15.9375 5.66992 15.3778 5.66992 14.6875V10.3125H8.51686C8.54492 10.5726 8.59014 10.839 8.65245 11.1192C8.84236 11.973 9.61867 12.5 10.4263 12.5H17.782C18.5809 12.5 19.3518 11.9841 19.5497 11.1407C19.7929 10.1042 19.7934 9.25791 19.5507 8.22969C19.352 7.38753 18.5814 6.875 17.7853 6.875H10.4242C9.61839 6.875 8.84217 7.39991 8.6518 8.25303C8.58908 8.53406 8.5438 8.80131 8.51592 9.0625H5.66992V5.625H7.22905C8.06517 5.625 8.87245 5.05709 9.01933 4.15338C9.13642 3.43294 9.13683 2.80868 9.0203 2.09328C8.87317 1.18995 8.06548 0.625 7.23186 0.625H2.85668ZM2.85851 4.375C2.55198 4.375 2.33406 4.17163 2.29941 3.94603C2.2103 3.36569 2.21008 2.87931 2.29881 2.30206C2.33326 2.0779 2.55025 1.875 2.85668 1.875H7.23186C7.53608 1.875 7.75077 2.07449 7.78658 2.29423C7.88123 2.87552 7.88117 3.36419 7.78552 3.95284C7.74942 4.17481 7.53336 4.375 7.22905 4.375H2.85851ZM10.4242 8.125C10.1342 8.125 9.92008 8.30887 9.8718 8.52528C9.68567 9.35931 9.68598 10.0087 9.87261 10.8477C9.92108 11.0656 10.1361 11.25 10.4263 11.25H17.782C18.0693 11.25 18.2825 11.0692 18.3327 10.8552C18.5322 10.0052 18.532 9.355 18.3341 8.51681C18.2841 8.30487 18.0723 8.125 17.7853 8.125H10.4242ZM10.4242 15C10.1342 15 9.92008 15.1839 9.8718 15.4002C9.68567 16.2343 9.68598 16.8837 9.87261 17.7227C9.92108 17.9406 10.1361 18.125 10.4263 18.125H17.782C18.0693 18.125 18.2825 17.9442 18.3327 17.7302C18.5322 16.8802 18.532 16.23 18.3341 15.3918C18.2841 15.1799 18.0723 15 17.7853 15H10.4242Z" fill="#5072EB"/>
</svg>
