<svg width="32" height="32" viewBox="0 0 32 32" fill="none" xmlns="http://www.w3.org/2000/svg">
	<path d="M1.25547 17.4682V17.4681C1.25491 10.4791 6.67624 4.75607 13.5425 4.27634C13.5459 4.2761 13.5474 4.27634 13.5476 4.27636L13.5482 4.27652C13.5486 4.27669 13.5521 4.27812 13.5573 4.28319C13.5683 4.29397 13.5798 4.31413 13.5798 4.34367V16.4675C13.5798 17.5169 14.4305 18.3675 15.4798 18.3675L27.6043 18.3681C27.6338 18.3681 27.654 18.3796 27.6648 18.3906C27.6675 18.3934 27.6692 18.3958 27.6702 18.3974C27.671 18.3987 27.6714 18.3995 27.6715 18.3997L27.6716 18.4003C27.6716 18.4004 27.6717 18.4006 27.6717 18.401C27.6717 18.4018 27.6718 18.4032 27.6716 18.4054C27.1919 25.2717 21.4689 30.6931 14.4799 30.6925H14.4798C7.17563 30.6931 1.25488 24.7723 1.25547 17.4682Z" stroke="currentColor" stroke-width="1.8" />
	<path d="M18.4195 1.40731C18.4195 1.37777 18.431 1.35761 18.4421 1.34683C18.4472 1.34177 18.4508 1.34033 18.4512 1.34016L18.4518 1.34001C18.452 1.33998 18.4535 1.33974 18.4569 1.33998C25.0139 1.79756 30.2533 7.0378 30.7113 13.5951C30.7116 13.5985 30.7113 13.6 30.7113 13.6002L30.7111 13.6008C30.711 13.6012 30.7095 13.6047 30.7045 13.6099C30.6937 13.621 30.6735 13.6325 30.644 13.6325H18.5195C18.4643 13.6325 18.4195 13.5877 18.4195 13.5325V1.40731Z" stroke="currentColor" stroke-width="1.8" />
</svg>
