<svg width="46" height="49" viewBox="0 0 46 49" fill="none" xmlns="http://www.w3.org/2000/svg">
<path fill-rule="evenodd" clip-rule="evenodd" d="M16.7617 21.7787C16.7617 22.212 17.1187 22.565 17.5586 22.565C17.9985 22.565 18.3555 22.212 18.3555 21.7787C18.3555 21.3455 17.9985 20.9925 17.5586 20.9925C17.1187 20.9925 16.7617 21.3455 16.7617 21.7787ZM18.3555 35.9312C18.3555 35.498 17.9985 35.145 17.5586 35.145C17.1187 35.145 16.7617 35.498 16.7617 35.9312C16.7617 36.3645 17.1187 36.7175 17.5586 36.7175C17.9985 36.7175 18.3555 36.3645 18.3555 35.9312ZM11.9805 21.7787C11.9805 21.3455 11.6235 20.9925 11.1836 20.9925C10.7437 20.9925 10.3867 21.3455 10.3867 21.7787C10.3867 22.212 10.7437 22.565 11.1836 22.565C11.6235 22.565 11.9805 22.212 11.9805 21.7787ZM11.9805 31.2137C11.9805 30.7805 11.6235 30.4275 11.1836 30.4275C10.7437 30.4275 10.3867 30.7805 10.3867 31.2137C10.3867 31.647 10.7437 32 11.1836 32C11.6235 32 11.9805 31.647 11.9805 31.2137ZM16.7617 13.9162C16.7617 14.3495 17.1187 14.7025 17.5586 14.7025C17.9985 14.7025 18.3555 14.3495 18.3555 13.9162C18.3555 13.483 17.9985 13.13 17.5586 13.13C17.1187 13.13 16.7617 13.483 16.7617 13.9162ZM11.9805 14.7025V19.5647C12.6562 19.8021 13.1869 20.3265 13.4268 20.9925H15.3154C15.6453 20.0789 16.5211 19.42 17.5586 19.42C18.8766 19.42 19.9492 20.4783 19.9492 21.7787C19.9492 22.8024 19.2806 23.6665 18.3555 23.9928V33.7172C19.2806 34.0434 19.9492 34.9075 19.9492 35.9312C19.9492 36.9549 19.2806 37.819 18.3555 38.1453V40.6487C18.3555 41.0827 17.9993 41.435 17.5586 41.435C17.1179 41.435 16.7617 41.0827 16.7617 40.6487V38.1445C15.9481 37.8591 15.3417 37.1562 15.2054 36.2929L12.214 33.3421C12.2116 33.3405 12.2116 33.3374 12.2092 33.335C11.8976 33.4829 11.5525 33.5725 11.1836 33.5725C9.86556 33.5725 8.79297 32.5142 8.79297 31.2137C8.79297 29.9133 9.86556 28.855 11.1836 28.855C12.5016 28.855 13.5742 29.9133 13.5742 31.2137C13.5742 31.577 13.4834 31.9182 13.3336 32.2256C13.336 32.228 13.3383 32.2288 13.3407 32.2304L15.6573 34.5168C15.937 34.152 16.3179 33.8736 16.7617 33.7172V23.992C16.086 23.7554 15.5552 23.2309 15.3154 22.565H13.4268C13.0969 23.4786 12.2211 24.1375 11.1836 24.1375C9.86556 24.1375 8.79297 23.0792 8.79297 21.7787C8.79297 20.755 9.46155 19.891 10.3867 19.5647V13.9162C10.3867 13.4822 10.7429 13.13 11.1836 13.13H15.3154C15.5552 12.464 16.086 11.9396 16.7617 11.7022V9.19874C16.7617 8.76473 17.1179 8.41249 17.5586 8.41249C17.9993 8.41249 18.3555 8.76473 18.3555 9.19874V11.7022C19.2806 12.0285 19.9492 12.8925 19.9492 13.9162C19.9492 15.2167 18.8766 16.275 17.5586 16.275C16.5211 16.275 15.6453 15.6161 15.3154 14.7025H11.9805ZM43.563 29.8339C44.7496 28.8047 45.4492 27.3155 45.4492 25.71C45.4492 24.0274 44.6914 22.4816 43.3893 21.4438C43.6961 20.8124 43.8555 20.1245 43.8555 19.42C43.8555 17.7972 42.9925 16.3025 41.6306 15.4494C42.0418 14.7426 42.2617 13.9453 42.2617 13.13C42.2617 11.1015 40.9556 9.3379 39.0655 8.68689C39.071 8.5949 39.0742 8.50369 39.0742 8.41249C39.0742 5.81079 36.9298 3.69499 34.293 3.69499C33.6499 3.69499 33.0235 3.82393 32.4386 4.07239C31.7533 2.02499 29.7827 0.549988 27.5195 0.549988C24.1663 0.549988 22.6753 3.53459 22.3558 5.11338C22.3502 5.13933 22.3574 5.16449 22.3558 5.19122C22.3534 5.21795 22.3398 5.23997 22.3398 5.26749V42.1741C22.1597 44.4062 20.2385 46.1525 17.957 46.1525C15.6835 46.1525 13.7679 44.3999 13.5949 42.1615C13.5631 41.7518 13.1933 41.435 12.7773 41.435C12.5287 41.435 12.2944 41.5498 12.143 41.7448C11.5247 42.5475 10.5939 43.0075 9.58984 43.0075C7.83194 43.0075 6.40234 41.597 6.40234 39.8625C6.40234 39.1486 6.65416 38.4661 7.13228 37.8882C7.34744 37.628 7.37134 37.2608 7.19045 36.9754C7.01036 36.69 6.6693 36.5484 6.33302 36.6263C6.06606 36.6876 5.8278 36.7175 5.60547 36.7175C3.84756 36.7175 2.41797 35.307 2.41797 33.5725C2.41797 32.276 3.2523 31.0966 4.49303 30.6374C4.78867 30.5281 4.99108 30.2577 5.00941 29.9479C5.02773 29.6373 4.8588 29.3448 4.57989 29.2025C3.24592 28.524 2.41797 27.185 2.41797 25.71C2.41797 24.323 3.14073 23.065 4.35198 22.3448C4.54084 22.2324 4.67392 22.0476 4.72014 21.8346C4.76556 21.6207 4.71934 21.399 4.59264 21.2205C4.21253 20.6851 4.01172 20.0631 4.01172 19.42C4.01172 18.114 4.85481 16.9323 6.1083 16.4786C6.35612 16.389 6.54339 16.1838 6.60794 15.9314C6.67169 15.6782 6.60395 15.4101 6.42784 15.2159C5.89712 14.6317 5.60547 13.8911 5.60547 13.13C5.60547 11.6062 6.71233 10.3081 8.23595 10.0424C8.44952 10.0046 8.63997 9.88278 8.7603 9.7043C8.88062 9.52582 8.92206 9.30645 8.87584 9.09731C8.82006 8.852 8.79297 8.62792 8.79297 8.41249C8.79297 6.67802 10.2226 5.26749 11.9805 5.26749C12.6706 5.26749 13.336 5.49471 13.9057 5.92479C14.1376 6.09934 14.4476 6.13551 14.713 6.01914C14.9799 5.90199 15.16 5.65118 15.1847 5.36498C15.3361 3.54717 16.9044 2.12249 18.7539 2.12249C19.6416 2.12249 20.3755 2.40397 20.9971 2.98265C21.3183 3.28063 21.8227 3.2657 22.1239 2.94962C22.4259 2.63355 22.4116 2.13664 22.0912 1.83865C21.1724 0.983212 20.0496 0.549988 18.7539 0.549988C16.4908 0.549988 14.5201 2.02499 13.8348 4.07239C13.2499 3.82393 12.6235 3.69499 11.9805 3.69499C9.34361 3.69499 7.19922 5.81079 7.19922 8.41249C7.19922 8.50369 7.20241 8.5949 7.20798 8.68689C5.3178 9.3379 4.01172 11.1015 4.01172 13.13C4.01172 13.9453 4.23166 14.7426 4.64284 15.4494C3.28098 16.3025 2.41797 17.7972 2.41797 19.42C2.41797 20.1245 2.57734 20.8124 2.88414 21.4438C1.58205 22.4816 0.824219 24.0274 0.824219 25.71C0.824219 27.3155 1.52388 28.8047 2.71042 29.8339C1.54619 30.7121 0.824219 32.0912 0.824219 33.5725C0.824219 36.0044 2.69927 38.0124 5.09786 38.2633C4.90661 38.7727 4.80859 39.3105 4.80859 39.8625C4.80859 42.4642 6.95298 44.58 9.58984 44.58C10.5796 44.58 11.5215 44.2836 12.312 43.7403C13.1248 46.0629 15.3712 47.725 17.957 47.725C21.0712 47.725 23.6953 45.3332 23.9312 42.281C23.932 42.2708 23.9272 42.2613 23.9272 42.2511C23.928 42.2401 23.9336 42.2322 23.9336 42.2212V5.35398C24.0515 4.87122 24.838 2.12249 27.5195 2.12249C29.3691 2.12249 30.9373 3.54717 31.0887 5.36498C31.1134 5.65118 31.2935 5.90199 31.5605 6.01914C31.8258 6.13551 32.1358 6.09934 32.3677 5.92479C32.9375 5.49471 33.6029 5.26749 34.293 5.26749C36.0509 5.26749 37.4805 6.67802 37.4805 8.41249C37.4805 8.62792 37.4534 8.852 37.3976 9.09731C37.3514 9.30645 37.3928 9.52582 37.5131 9.7043C37.6335 9.88278 37.8239 10.0046 38.0375 10.0424C39.5611 10.3081 40.668 11.6062 40.668 13.13C40.668 13.8911 40.3763 14.6317 39.8456 15.2159C39.6695 15.4101 39.6017 15.6782 39.6655 15.9314C39.73 16.1838 39.9173 16.389 40.1651 16.4786C41.4186 16.9323 42.2617 18.114 42.2617 19.42C42.2617 20.0631 42.0609 20.6851 41.6808 21.2205C41.5541 21.399 41.5079 21.6207 41.5533 21.8346C41.5995 22.0476 41.7326 22.2324 41.9215 22.3448C43.1327 23.065 43.8555 24.323 43.8555 25.71C43.8555 27.185 43.0275 28.524 41.6935 29.2025C41.4146 29.3448 41.2457 29.6373 41.264 29.9479C41.2824 30.2577 41.4848 30.5281 41.7804 30.6374C43.0211 31.0966 43.8555 32.276 43.8555 33.5725C43.8555 35.307 42.4259 36.7175 40.668 36.7175C40.4456 36.7175 40.2074 36.6876 39.9404 36.6263C39.6057 36.5484 39.2639 36.69 39.083 36.9754C38.9021 37.2608 38.926 37.628 39.1412 37.8882C39.6193 38.4661 39.8711 39.1486 39.8711 39.8625C39.8711 41.597 38.4415 43.0075 36.6836 43.0075C35.6763 43.0075 34.7472 42.542 34.1352 41.7298C33.9296 41.4586 33.5718 41.3477 33.2459 41.4531C33.1279 41.4916 33.0243 41.5553 32.9407 41.6363C32.7925 41.7668 32.6944 41.9523 32.6785 42.1615C32.5056 44.3999 30.5899 46.1525 28.3164 46.1525C27.3147 46.1525 26.3696 45.8278 25.5831 45.2137C25.2365 44.944 24.7368 45.0022 24.4635 45.3419C24.1902 45.6823 24.2492 46.1769 24.5934 46.4465C25.6493 47.2705 26.9721 47.725 28.3164 47.725C30.9039 47.725 33.1518 46.0597 33.9631 43.7348C34.7512 44.282 35.6915 44.58 36.6836 44.58C39.3205 44.58 41.4648 42.4642 41.4648 39.8625C41.4648 39.3105 41.3668 38.7727 41.1756 38.2633C43.5742 38.0124 45.4492 36.0044 45.4492 33.5725C45.4492 32.0912 44.7272 30.7121 43.563 29.8339ZM29.5117 35.9312C29.5117 36.3652 29.8679 36.7175 30.3086 36.7175C31.4704 36.7175 32.6992 37.9299 32.6992 39.0762C32.6992 39.5102 33.0554 39.8625 33.4961 39.8625C33.9368 39.8625 34.293 39.5102 34.293 39.0762C34.293 37.0556 32.3566 35.145 30.3086 35.145C29.8679 35.145 29.5117 35.4972 29.5117 35.9312ZM36.6836 14.7025C35.5218 14.7025 34.293 13.4901 34.293 12.3437C34.293 11.9097 33.9368 11.5575 33.4961 11.5575C33.0554 11.5575 32.6992 11.9097 32.6992 12.3437C32.6992 14.3644 34.6356 16.275 36.6836 16.275C37.1243 16.275 37.4805 15.9227 37.4805 15.4887C37.4805 15.0547 37.1243 14.7025 36.6836 14.7025ZM27.1211 32C27.5618 32 27.918 31.6477 27.918 31.2137C27.918 30.0674 29.1467 28.855 30.3086 28.855C30.7493 28.855 31.1055 28.5027 31.1055 28.0687C31.1055 27.6347 30.7493 27.2825 30.3086 27.2825C28.2606 27.2825 26.3242 29.1931 26.3242 31.2137C26.3242 31.6477 26.6804 32 27.1211 32ZM30.3086 22.565C30.7493 22.565 31.1055 22.2127 31.1055 21.7787C31.1055 21.3447 30.7493 20.9925 30.3086 20.9925C29.1467 20.9925 27.918 19.7801 27.918 18.6337C27.918 18.1997 27.5618 17.8475 27.1211 17.8475C26.6804 17.8475 26.3242 18.1997 26.3242 18.6337C26.3242 20.6544 28.2606 22.565 30.3086 22.565ZM38.2773 19.42C37.8367 19.42 37.4805 19.7722 37.4805 20.2062C37.4805 21.3526 36.2517 22.565 35.0898 22.565C34.6492 22.565 34.293 22.9172 34.293 23.3512C34.293 23.7852 34.6492 24.1375 35.0898 24.1375C37.1378 24.1375 39.0742 22.2269 39.0742 20.2062C39.0742 19.7722 38.718 19.42 38.2773 19.42ZM35.0898 28.855C34.6492 28.855 34.293 29.2072 34.293 29.6412C34.293 30.0752 34.6492 30.4275 35.0898 30.4275C36.2517 30.4275 37.4805 31.6399 37.4805 32.7862C37.4805 33.2202 37.8367 33.5725 38.2773 33.5725C38.718 33.5725 39.0742 33.2202 39.0742 32.7862C39.0742 30.7656 37.1378 28.855 35.0898 28.855ZM26.3242 11.5575C26.3242 9.53683 28.2606 7.62624 30.3086 7.62624C30.7493 7.62624 31.1055 7.97848 31.1055 8.41249C31.1055 8.8465 30.7493 9.19874 30.3086 9.19874C29.1467 9.19874 27.918 10.4111 27.918 11.5575C27.918 11.9915 27.5618 12.3437 27.1211 12.3437C26.6804 12.3437 26.3242 11.9915 26.3242 11.5575Z" fill="#5072EB" stroke="#5072EB" stroke-width="0.9"/>
</svg>
