<svg width="20" height="16" viewBox="0 0 20 16" fill="none" xmlns="http://www.w3.org/2000/svg">
	<path d="M12.2504 15.5C12.1517 15.5006 12.0539 15.4817 11.9625 15.4443C11.8711 15.407 11.788 15.352 11.7179 15.2825C11.6476 15.2128 11.5918 15.1298 11.5538 15.0385C11.5157 14.9471 11.4961 14.849 11.4961 14.75C11.4961 14.651 11.5157 14.553 11.5538 14.4616C11.5918 14.3702 11.6476 14.2872 11.7179 14.2175L17.9429 8.00002L11.7179 1.78252C11.5767 1.64129 11.4974 1.44974 11.4974 1.25002C11.4974 1.05029 11.5767 0.858745 11.7179 0.717517C11.8592 0.576289 12.0507 0.496948 12.2504 0.496948C12.4502 0.496948 12.6417 0.576289 12.7829 0.717517L19.5329 7.46752C19.6032 7.53724 19.659 7.62019 19.6971 7.71158C19.7352 7.80298 19.7548 7.90101 19.7548 8.00002C19.7548 8.09903 19.7352 8.19706 19.6971 8.28845C19.659 8.37984 19.6032 8.46279 19.5329 8.53252L12.7829 15.2825C12.7129 15.352 12.6298 15.407 12.5384 15.4443C12.447 15.4817 12.3491 15.5006 12.2504 15.5Z" fill="currentColor" />
	<path d="M19 8.75H1C0.801088 8.75 0.610322 8.67098 0.46967 8.53033C0.329018 8.38968 0.25 8.19891 0.25 8C0.25 7.80109 0.329018 7.61032 0.46967 7.46967C0.610322 7.32902 0.801088 7.25 1 7.25H19C19.1989 7.25 19.3897 7.32902 19.5303 7.46967C19.671 7.61032 19.75 7.80109 19.75 8C19.75 8.19891 19.671 8.38968 19.5303 8.53033C19.3897 8.67098 19.1989 8.75 19 8.75Z" fill="currentColor" />
</svg>
