<svg width="36" height="36" viewBox="0 0 36 36" fill="none" xmlns="http://www.w3.org/2000/svg">
	<path d="M33.75 4.5H27.2186C26.4464 1.9448 24.0032 0.0218994 21.2271 0C21.2102 0 21.1937 0 21.1769 0C18.6592 0 16.403 1.50146 15.4113 3.71484C14.4767 3.05566 13.3202 2.73706 12.1454 2.85425C10.914 2.97173 9.79746 3.58323 9.00176 4.5H2.25C1.00928 4.5 0 5.50928 0 6.75V28.5C0 29.7407 1.00928 30.75 2.25 30.75H11.25V34.5H8.25V36H27.75V34.5H24.75V30.75H33.75C34.9907 30.75 36 29.7407 36 28.5V6.75C36 5.50928 34.9907 4.5 33.75 4.5ZM9.62988 9.10767L9.44128 8.4353C9.25671 7.77686 9.27942 7.1499 9.51123 6.51709C9.94995 5.31812 11.0402 4.46631 12.2882 4.34692C12.397 4.33667 12.5057 4.33154 12.6138 4.33154C13.6062 4.33154 14.547 4.7644 15.1794 5.52539L16.1569 6.7002L16.4883 5.20825C16.9673 3.0542 18.9353 1.5 21.1769 1.5C21.1897 1.5 21.2025 1.5 21.2153 1.5C23.6895 1.51978 25.8219 3.50903 25.9688 5.93555C26.0138 6.68701 25.8823 7.4165 25.5773 8.10352L25.1543 9.0564L26.1925 9.15381C27.9357 9.3186 29.25 10.7417 29.25 12.4644C29.25 13.4443 28.5597 14.9246 27.2802 15.7383C25.949 16.5857 24.2542 16.5696 22.3806 15.6921L21.8372 15.438L21.4698 15.9126C21.3831 16.0247 20.5741 17.0061 18.8943 17.0061C17.2423 17.0061 16.5542 15.9895 16.5308 15.9536L16.0426 15.1692L15.3754 15.8079C14.228 16.9065 13.7318 17.0105 12.7053 17.0105C12.2428 17.0105 11.2511 16.7263 10.9438 16.0422L10.745 15.5999H10.1741C8.12585 15.5999 6.75 14.3401 6.75 12.4644C6.75 11.0764 7.64355 9.82251 8.97327 9.34424L9.62988 9.10767ZM23.25 34.5H12.75V30.75H23.25V34.5ZM34.5 28.5C34.5 28.9138 34.1635 29.25 33.75 29.25H2.25C1.83655 29.25 1.5 28.9138 1.5 28.5V26.25H34.5V28.5ZM34.5 24.75H1.5V6.75C1.5 6.33618 1.83655 6 2.25 6H8.10344C8.10322 6.00051 8.103 6.00095 8.10278 6.00146C7.83984 6.71924 7.75928 7.45459 7.86218 8.19653C6.27686 9.02271 5.25 10.6648 5.25 12.4644C5.25 15.0381 7.15173 16.9358 9.82104 17.0896C10.5421 18.123 11.8872 18.5105 12.7053 18.5105C14.0314 18.5105 14.8308 18.2498 15.8427 17.4053C16.4059 17.9048 17.395 18.5061 18.8943 18.5061C20.5876 18.5061 21.6837 17.7788 22.2437 17.269C24.9657 18.3735 26.9114 17.7517 28.0854 17.0039C29.9161 15.8394 30.75 13.834 30.75 12.4644C30.75 10.281 29.3035 8.43018 27.2611 7.83691C27.4244 7.24189 27.4849 6.62666 27.4627 6H33.75C34.1635 6 34.5 6.33618 34.5 6.75V24.75Z" fill="currentColor" />
</svg>
