<svg width="16" height="12" viewBox="0 0 16 12" fill="none" xmlns="http://www.w3.org/2000/svg">
	<path d="M2.88843 0.320312H13.1129C14.4995 0.320312 15.6322 1.453 15.6322 2.8396V9.16022C15.6322 10.5466 14.4995 11.6795 13.1129 11.6795H2.88843C1.50183 11.6795 0.369141 10.5466 0.369141 9.16022V2.8396C0.369141 1.453 1.50183 0.320312 2.88843 0.320312ZM8.95349 9.12329C8.45172 9.12329 8.45172 8.36045 8.95349 8.36045H12.4392C12.9408 8.36045 12.9408 9.12329 12.4392 9.12329H8.95349ZM4.67776 4.84757C4.17599 4.84757 4.17599 4.08473 4.67776 4.08473H11.3238C11.8253 4.08473 11.8253 4.84757 11.3238 4.84757H4.67776ZM3.05103 6.5206C2.54945 6.5206 2.54945 5.75776 3.05103 5.75776H12.9503C13.4521 5.75776 13.4521 6.5206 12.9503 6.5206H3.05103ZM1.17406 2.45818H14.8273C14.6487 1.66061 13.9336 1.08297 13.1129 1.08297H2.88843C2.06771 1.08297 1.35264 1.66061 1.17406 2.45818ZM14.8695 3.22083H1.1318V9.16022C1.1318 10.1255 1.92293 10.9167 2.88843 10.9167H13.1129C14.0784 10.9167 14.8695 10.1255 14.8695 9.16022V3.22083Z" fill="#5072EB" />
</svg>
