<svg width="25" height="25" viewBox="0 0 25 25" fill="none" xmlns="http://www.w3.org/2000/svg">
	<path d="M18.9881 12.5C18.9881 8.92233 16.0777 6.01193 12.5 6.01193C8.92232 6.01193 6.01193 8.92237 6.01193 12.5C6.01193 16.0777 8.92233 18.9881 12.5 18.9881C16.0777 18.9881 18.9881 16.0777 18.9881 12.5ZM12.5 17.2506C9.88066 17.2506 7.74943 15.1194 7.74943 12.5C7.74943 9.8807 9.88066 7.74947 12.5 7.74947C15.1193 7.74947 17.2506 9.88066 17.2506 12.5C17.2506 15.1193 15.1193 17.2506 12.5 17.2506ZM9.59531 1.71875C9.59531 1.23898 9.20634 0.85 8.72656 0.85H4.07099C2.29478 0.85 0.85 2.29478 0.85 4.07099V8.72656C0.85 9.20634 1.23898 9.59531 1.71875 9.59531C2.19852 9.59531 2.5875 9.20634 2.5875 8.72656V4.07099C2.5875 3.25315 3.25315 2.5875 4.07099 2.5875H8.72656C9.20634 2.5875 9.59531 2.19852 9.59531 1.71875ZM24.15 20.929V16.2734C24.15 15.7936 23.761 15.4047 23.2812 15.4047C22.8015 15.4047 22.4125 15.7936 22.4125 16.2734V20.929C22.4125 21.7469 21.7469 22.4125 20.929 22.4125H16.2734C15.7937 22.4125 15.4047 22.8014 15.4047 23.2812C15.4047 23.7611 15.7937 24.15 16.2734 24.15H20.929C22.7052 24.15 24.15 22.7052 24.15 20.929ZM1.71875 15.4047C1.23898 15.4047 0.85 15.7936 0.85 16.2734V20.929C0.85 22.7052 2.29478 24.15 4.07099 24.15H8.72656C9.20633 24.15 9.59531 23.7611 9.59531 23.2812C9.59531 22.8014 9.20633 22.4125 8.72656 22.4125H4.07099C3.25315 22.4125 2.5875 21.7469 2.5875 20.929V16.2734C2.5875 15.7936 2.19852 15.4047 1.71875 15.4047ZM24.15 8.72656V4.07099C24.15 2.29478 22.7052 0.85 20.929 0.85H16.2734C15.7937 0.85 15.4047 1.23898 15.4047 1.71875C15.4047 2.19852 15.7937 2.5875 16.2734 2.5875H20.929C21.7469 2.5875 22.4125 3.25315 22.4125 4.07099V8.72656C22.4125 9.20634 22.8015 9.59531 23.2812 9.59531C23.761 9.59531 24.15 9.20634 24.15 8.72656Z" fill="currentColor" stroke="currentColor" stroke-width="0.3" />
</svg>
