<svg width="32" height="32" viewBox="0 0 32 32" fill="none" xmlns="http://www.w3.org/2000/svg">
<path d="M29.3586 5.60771C29.1734 5.41515 28.953 5.26231 28.7102 5.158C28.4675 5.0537 28.2071 5 27.944 5C27.681 5 27.4206 5.0537 27.1778 5.158C26.9351 5.26231 26.7147 5.41515 26.5295 5.60771L11.6866 20.9341L5.45057 14.483C5.25827 14.2915 5.03126 14.1409 4.78251 14.0398C4.53375 13.9387 4.26813 13.8891 4.00079 13.8939C3.73346 13.8986 3.46966 13.9577 3.22444 14.0676C2.97923 14.1775 2.75741 14.3361 2.57165 14.5344C2.38588 14.7327 2.23982 14.9668 2.14179 15.2233C2.04376 15.4798 1.99568 15.7537 2.0003 16.0294C2.00493 16.3051 2.06217 16.5771 2.16874 16.83C2.27532 17.0828 2.42915 17.3116 2.62145 17.5031L10.272 25.3923C10.4572 25.5849 10.6776 25.7377 10.9204 25.842C11.1632 25.9463 11.4236 26 11.6866 26C11.9496 26 12.21 25.9463 12.4528 25.842C12.6956 25.7377 12.9159 25.5849 13.1011 25.3923L29.3586 8.62779C29.5608 8.4354 29.7222 8.20191 29.8326 7.94202C29.943 7.68213 30 7.40147 30 7.11775C30 6.83402 29.943 6.55337 29.8326 6.29348C29.7222 6.03359 29.5608 5.8001 29.3586 5.60771Z" fill="#5072EB"/>
</svg>
