<svg width="14" height="11" viewBox="0 0 14 11" fill="none" xmlns="http://www.w3.org/2000/svg">
	<path d="M13.6793 0.803855C13.5867 0.707574 13.4765 0.631153 13.3551 0.579001C13.2337 0.52685 13.1035 0.5 12.972 0.5C12.8405 0.5 12.7103 0.52685 12.5889 0.579001C12.4675 0.631153 12.3574 0.707574 12.2647 0.803855L4.84329 8.46704L1.72529 5.24152C1.62913 5.14574 1.51563 5.07043 1.39125 5.01988C1.26688 4.96934 1.13406 4.94455 1.0004 4.94694C0.86673 4.94932 0.734828 4.97883 0.612221 5.03378C0.489614 5.08873 0.378704 5.16805 0.285823 5.2672C0.192942 5.36635 0.119909 5.48339 0.0708932 5.61165C0.0218778 5.73991 -0.00216024 5.87686 0.000152332 6.0147C0.0024649 6.15253 0.0310826 6.28855 0.0843711 6.41498C0.13766 6.54141 0.214575 6.65578 0.310727 6.75156L4.13601 10.6961C4.22862 10.7924 4.3388 10.8688 4.46019 10.921C4.58158 10.9732 4.71179 11 4.84329 11C4.9748 11 5.105 10.9732 5.22639 10.921C5.34779 10.8688 5.45796 10.7924 5.55057 10.6961L13.6793 2.31389C13.7804 2.2177 13.8611 2.10095 13.9163 1.97101C13.9715 1.84106 14 1.70074 14 1.55887C14 1.41701 13.9715 1.27669 13.9163 1.14674C13.8611 1.0168 13.7804 0.900048 13.6793 0.803855Z" fill="currentColor" />
</svg>
