<svg width="31" height="31" viewBox="0 0 31 31" fill="none" xmlns="http://www.w3.org/2000/svg">
<path d="M22.5005 15.9999C23.7155 16.001 24.8893 15.5592 25.8021 14.7574C26.715 13.9556 27.3044 12.8486 27.46 11.6437C27.6157 10.4387 27.327 9.21827 26.6479 8.21077C25.9688 7.20328 24.9459 6.47775 23.7705 6.16995C23.5809 5.63023 23.2775 5.13755 22.881 4.72524C22.4844 4.31293 22.0039 3.99062 21.472 3.78013C20.9401 3.56963 20.3691 3.47586 19.7978 3.50516C19.2265 3.53446 18.6681 3.68614 18.1605 3.94995C17.5356 2.88934 16.5991 2.04698 15.4784 1.53741C14.3578 1.02784 13.1074 0.875811 11.8973 1.10199C10.6872 1.32816 9.57612 1.92157 8.71519 2.80151C7.85426 3.68144 7.28525 4.8052 7.08554 6.01995C5.80585 6.13448 4.61936 6.73723 3.77219 7.70317C2.92502 8.6691 2.48219 9.92408 2.53557 11.2078C2.58895 12.4915 3.13444 13.7054 4.05888 14.5976C4.98332 15.4899 6.21576 15.9921 7.50054 15.9999H10.0005V13.9999H20.0005V15.9999H22.5005ZM19.0005 11.9999H10.0005V7.99995H20.0005V11.9999H19.0005Z" fill="#B8C7F7"/>
<path d="M1.5 30H2.5C2.76497 29.9992 3.01887 29.8936 3.20623 29.7062C3.3936 29.5189 3.49921 29.265 3.5 29V20C3.49921 19.735 3.3936 19.4811 3.20623 19.2938C3.01887 19.1064 2.76497 19.0008 2.5 19H1.5C1.23503 19.0008 0.981133 19.1064 0.793767 19.2938C0.606402 19.4811 0.500791 19.735 0.5 20V29C0.500791 29.265 0.606402 29.5189 0.793767 29.7062C0.981133 29.8936 1.23503 29.9992 1.5 30Z" fill="#B8C7F7"/>
<path d="M29.76 17.495C29.4964 17.0428 29.0656 16.7123 28.5605 16.5748C28.0554 16.4373 27.5165 16.5038 27.06 16.76L17.99 21.605C17.99 21.57 18 21.535 18 21.5C18 20.837 17.7366 20.2011 17.2678 19.7322C16.7989 19.2634 16.163 19 15.5 19H5.5C5.42173 19.0005 5.34466 19.0193 5.275 19.055L3.97 19.705C3.90186 19.3653 3.7182 19.0596 3.45022 18.8399C3.18225 18.6203 2.8465 18.5002 2.5 18.5H1.5C1.10254 18.5012 0.721699 18.6596 0.440651 18.9407C0.159604 19.2217 0.00118705 19.6025 0 20V29C0.00118705 29.3975 0.159604 29.7783 0.440651 30.0594C0.721699 30.3404 1.10254 30.4988 1.5 30.5H2.5C2.87249 30.4991 3.23123 30.3592 3.50593 30.1076C3.78063 29.8561 3.95148 29.511 3.985 29.14L5.38 29.485C5.41923 29.4949 5.45954 29.4999 5.5 29.5H12.37C12.8103 29.4991 13.2428 29.3837 13.625 29.165L29.035 20.22C29.4913 19.9536 29.8236 19.5176 29.9594 19.007C30.0953 18.4964 30.0236 17.9529 29.76 17.495ZM3 29C3 29.1326 2.94732 29.2598 2.85355 29.3536C2.75979 29.4473 2.63261 29.5 2.5 29.5H1.5C1.36739 29.5 1.24021 29.4473 1.14645 29.3536C1.05268 29.2598 1 29.1326 1 29V20C1 19.8674 1.05268 19.7402 1.14645 19.6464C1.24021 19.5527 1.36739 19.5 1.5 19.5H2.5C2.63261 19.5 2.75979 19.5527 2.85355 19.6464C2.94732 19.7402 3 19.8674 3 20V29ZM28.535 19.355L13.125 28.295C12.8959 28.4288 12.6354 28.4995 12.37 28.5H5.56L4 28.115V20.81L5.62 20H15.5C15.8978 20 16.2794 20.158 16.5607 20.4393C16.842 20.7206 17 21.1022 17 21.5C17 21.8978 16.842 22.2794 16.5607 22.5607C16.2794 22.842 15.8978 23 15.5 23H5.5V24H15.5C15.8828 23.999 16.2602 23.9095 16.6028 23.7387C16.9454 23.5678 17.2439 23.3202 17.475 23.015L27.545 17.635C27.7727 17.5102 28.0402 17.4796 28.2902 17.5498C28.5401 17.6199 28.7527 17.7852 28.8822 18.0103C29.0117 18.2353 29.0479 18.5021 28.983 18.7535C28.9181 19.0049 28.7573 19.2208 28.535 19.355Z" fill="#5072EB"/>
<path d="M24.1448 5.755C23.8011 4.93929 23.2246 4.24295 22.4874 3.75296C21.7502 3.26298 20.885 3.00109 19.9998 3C19.4331 2.99858 18.8713 3.10549 18.3448 3.315C17.6298 2.27436 16.6269 1.46488 15.4588 0.985724C14.2907 0.506572 13.0082 0.378566 11.7684 0.61739C10.5286 0.856215 9.38547 1.4515 8.47896 2.3303C7.57245 3.2091 6.94197 4.33325 6.66478 5.565C5.29634 5.77726 4.05832 6.49793 3.198 7.58308C2.33767 8.66823 1.91835 10.038 2.02379 11.4188C2.12923 12.7996 2.75166 14.0898 3.76677 15.0317C4.78189 15.9736 6.11497 16.498 7.49978 16.5H9.49978V18C9.49978 18.1326 9.55246 18.2598 9.64623 18.3536C9.74 18.4473 9.86718 18.5 9.99978 18.5H19.9998C20.1324 18.5 20.2596 18.4473 20.3533 18.3536C20.4471 18.2598 20.4998 18.1326 20.4998 18V16.5H22.4998C23.8125 16.4976 25.081 16.0257 26.0762 15.1697C27.0713 14.3136 27.7275 13.1299 27.9262 11.8323C28.1248 10.5348 27.8528 9.20893 27.1594 8.09438C26.4659 6.97983 25.3966 6.15006 24.1448 5.755ZM19.4998 17.5H10.4998V14.5H19.4998V17.5ZM10.4998 11.5V8.5H19.4998V11.5H10.4998ZM18.4998 12.5V13.5H11.4998V12.5H18.4998ZM22.4998 15.5H20.4998V14C20.4998 13.8674 20.4471 13.7402 20.3533 13.6464C20.2596 13.5527 20.1324 13.5 19.9998 13.5H19.4998V12.5H19.9998C20.1324 12.5 20.2596 12.4473 20.3533 12.3536C20.4471 12.2598 20.4998 12.1326 20.4998 12V8C20.4998 7.86739 20.4471 7.74021 20.3533 7.64645C20.2596 7.55268 20.1324 7.5 19.9998 7.5H9.99978C9.86718 7.5 9.74 7.55268 9.64623 7.64645C9.55246 7.74021 9.49978 7.86739 9.49978 8V12C9.49978 12.1326 9.55246 12.2598 9.64623 12.3536C9.74 12.4473 9.86718 12.5 9.99978 12.5H10.4998V13.5H9.99978C9.86718 13.5 9.74 13.5527 9.64623 13.6464C9.55246 13.7402 9.49978 13.8674 9.49978 14V15.5H7.49978C6.34723 15.487 5.24361 15.0322 4.41648 14.2295C3.58936 13.4267 3.10181 12.3372 3.05436 11.1855C3.0069 10.0339 3.40318 8.90794 4.16146 8.03986C4.91974 7.17178 5.98221 6.62777 7.12979 6.52C7.24089 6.51021 7.34554 6.46356 7.42708 6.38745C7.50862 6.31135 7.56237 6.21017 7.57978 6.1C7.76286 4.98667 8.28444 3.95676 9.0736 3.15038C9.86275 2.344 10.8812 1.80029 11.9903 1.59321C13.0994 1.38614 14.2454 1.52576 15.2723 1.99308C16.2993 2.4604 17.1573 3.23273 17.7298 4.205C17.7947 4.31497 17.8993 4.39592 18.022 4.43125C18.1447 4.46658 18.2763 4.45361 18.3898 4.395C18.886 4.13341 19.4389 3.99776 19.9998 4C20.7229 4.00112 21.428 4.22621 22.018 4.64434C22.608 5.06246 23.0541 5.65308 23.2948 6.335C23.322 6.41178 23.3678 6.48068 23.4279 6.53561C23.4881 6.59055 23.5608 6.62983 23.6398 6.65C24.6952 6.92953 25.613 7.58324 26.2222 8.48933C26.8313 9.39541 27.0903 10.4921 26.9508 11.5749C26.8113 12.6578 26.2829 13.653 25.464 14.3751C24.6451 15.0973 23.5916 15.4971 22.4998 15.5Z" fill="#5072EB"/>
<path d="M11.5 9.5H12.5V10.5H11.5V9.5Z" fill="#5072EB"/>
<path d="M14.5 9.5H15.5V10.5H14.5V9.5Z" fill="#5072EB"/>
<path d="M17.5 9.5H18.5V10.5H17.5V9.5Z" fill="#5072EB"/>
<path d="M11.5 15.5H12.5V16.5H11.5V15.5Z" fill="#5072EB"/>
<path d="M14.5 15.5H15.5V16.5H14.5V15.5Z" fill="#5072EB"/>
<path d="M17.5 15.5H18.5V16.5H17.5V15.5Z" fill="#5072EB"/>
<path d="M26 11C25.9994 10.2271 25.7428 9.47615 25.2702 8.86454C24.7976 8.25293 24.1358 7.81511 23.388 7.61951L23.135 8.58751C23.7224 8.74137 24.2336 9.10399 24.5729 9.6075C24.9122 10.111 25.0565 10.7209 24.9787 11.3231C24.9008 11.9253 24.6062 12.4785 24.15 12.8792C23.6938 13.2798 23.1072 13.5006 22.5 13.5V14.5C23.4279 14.4989 24.3176 14.1299 24.9737 13.4737C25.6299 12.8176 25.9989 11.9279 26 11Z" fill="#5072EB"/>
<path d="M7.49783 14.5001V13.5001C6.86028 13.4894 6.25094 13.2354 5.79445 12.7902C5.33797 12.345 5.06885 11.7422 5.04215 11.1051C5.01545 10.4681 5.23319 9.84486 5.65082 9.36302C6.06845 8.88119 6.65442 8.57715 7.28883 8.5131L7.20733 7.5161C6.31541 7.60102 5.49003 8.02475 4.90118 8.7C4.31233 9.37526 4.00485 10.2506 4.04209 11.1458C4.07932 12.041 4.45843 12.8878 5.10133 13.5118C5.74422 14.1358 6.60194 14.4895 7.49783 14.5001Z" fill="#5072EB"/>
</svg>
