<svg width="48" height="48" viewBox="0 0 48 48" fill="none" xmlns="http://www.w3.org/2000/svg">
<path d="M35.2508 24.7499C37.0733 24.7515 38.8339 24.0889 40.2032 22.8861C41.5724 21.6834 42.4566 20.023 42.6901 18.2155C42.9236 16.408 42.4905 14.5774 41.4719 13.0662C40.4532 11.5549 38.9188 10.4666 37.1558 10.0049C36.8714 9.19535 36.4163 8.45633 35.8215 7.83787C35.2266 7.21941 34.5059 6.73595 33.708 6.4202C32.9101 6.10446 32.0537 5.9638 31.1967 6.00775C30.3397 6.05169 29.5022 6.27922 28.7408 6.67493C27.8033 5.08402 26.3986 3.82047 24.7176 3.05612C23.0367 2.29177 21.1611 2.06372 19.3459 2.40299C17.5308 2.74225 15.8642 3.63237 14.5728 4.95227C13.2814 6.27218 12.4279 7.95781 12.1283 9.77993C10.2088 9.95173 8.42903 10.8559 7.15828 12.3048C5.88752 13.7537 5.22329 15.6361 5.30336 17.5617C5.38343 19.4872 6.20166 21.3081 7.58832 22.6465C8.97498 23.9849 10.8236 24.7381 12.7508 24.7499H16.5008V21.7499H31.5008V24.7499H35.2508ZM30.0008 18.7499H16.5008V12.7499H31.5008V18.7499H30.0008Z" fill="#5072EB" fill-opacity="0.2"/>
<path d="M3.75 45.75H5.25C5.64746 45.7488 6.0283 45.5904 6.30935 45.3094C6.5904 45.0283 6.74881 44.6475 6.75 44.25V30.75C6.74881 30.3526 6.5904 29.9717 6.30935 29.6907C6.0283 29.4096 5.64746 29.2512 5.25 29.25H3.75C3.35254 29.2512 2.9717 29.4096 2.69065 29.6907C2.4096 29.9717 2.25119 30.3526 2.25 30.75V44.25C2.25119 44.6475 2.4096 45.0283 2.69065 45.3094C2.9717 45.5904 3.35254 45.7488 3.75 45.75Z" fill="#5072EB" fill-opacity="0.2"/>
<path d="M46.14 26.9925C45.7446 26.3141 45.0983 25.8184 44.3407 25.6121C43.5831 25.4059 42.7747 25.5057 42.09 25.89L28.485 33.1575C28.485 33.105 28.5 33.0525 28.5 33C28.5 32.0054 28.1049 31.0516 27.4016 30.3484C26.6984 29.6451 25.7446 29.25 24.75 29.25H9.75C9.63259 29.2507 9.51699 29.279 9.4125 29.3325L7.455 30.3075C7.35278 29.7979 7.07729 29.3394 6.67534 29.0099C6.27338 28.6804 5.76975 28.5002 5.25 28.5H3.75C3.15381 28.5018 2.58255 28.7394 2.16098 29.161C1.73941 29.5826 1.50178 30.1538 1.5 30.75V44.25C1.50178 44.8462 1.73941 45.4175 2.16098 45.839C2.58255 46.2606 3.15381 46.4982 3.75 46.5H5.25C5.80873 46.4987 6.34685 46.2888 6.7589 45.9115C7.17094 45.5341 7.42722 45.0165 7.4775 44.46L9.57 44.9775C9.62885 44.9924 9.6893 44.9999 9.75 45H20.055C20.7155 44.9987 21.3642 44.8255 21.9375 44.4975L45.0525 31.08C45.7369 30.6805 46.2354 30.0264 46.4392 29.2605C46.6429 28.4947 46.5354 27.6793 46.14 26.9925ZM6 44.25C6 44.4489 5.92098 44.6397 5.78033 44.7803C5.63968 44.921 5.44891 45 5.25 45H3.75C3.55109 45 3.36032 44.921 3.21967 44.7803C3.07902 44.6397 3 44.4489 3 44.25V30.75C3 30.5511 3.07902 30.3603 3.21967 30.2197C3.36032 30.079 3.55109 30 3.75 30H5.25C5.44891 30 5.63968 30.079 5.78033 30.2197C5.92098 30.3603 6 30.5511 6 30.75V44.25ZM44.3025 29.7825L21.1875 43.1925C20.8438 43.3932 20.453 43.4993 20.055 43.5H9.84L7.5 42.9225V31.965L9.93 30.75H24.75C25.3467 30.75 25.919 30.9871 26.341 31.409C26.7629 31.831 27 32.4033 27 33C27 33.5967 26.7629 34.169 26.341 34.591C25.919 35.0129 25.3467 35.25 24.75 35.25H9.75V36.75H24.75C25.3242 36.7485 25.8903 36.6143 26.4042 36.358C26.9181 36.1017 27.3658 35.7302 27.7125 35.2725L42.8175 27.2025C43.159 27.0153 43.5603 26.9694 43.9352 27.0747C44.3102 27.1799 44.629 27.4279 44.8233 27.7654C45.0176 28.1029 45.0718 28.5031 44.9745 28.8802C44.8771 29.2573 44.6359 29.5812 44.3025 29.7825Z" fill="#5072EB"/>
<path d="M37.7211 9.38251C37.2055 8.15894 36.3408 7.11443 35.235 6.37945C34.1292 5.64448 32.8313 5.25164 31.5036 5.25001C30.6535 5.24787 29.8109 5.40825 29.0211 5.72251C27.9487 4.16155 26.4442 2.94732 24.6921 2.22859C22.9399 1.50987 21.0162 1.31786 19.1565 1.67609C17.2969 2.03433 15.5821 2.92725 14.2223 4.24545C12.8626 5.56365 11.9169 7.24988 11.5011 9.09751C9.44841 9.4159 7.59139 10.4969 6.3009 12.1246C5.01041 13.7523 4.38143 15.807 4.53959 17.8782C4.69774 19.9494 5.63139 21.8847 7.15407 23.2976C8.67674 24.7105 10.6764 25.497 12.7536 25.5H15.7536V27.75C15.7536 27.9489 15.8326 28.1397 15.9733 28.2803C16.1139 28.421 16.3047 28.5 16.5036 28.5H31.5036C31.7025 28.5 31.8933 28.421 32.0339 28.2803C32.1746 28.1397 32.2536 27.9489 32.2536 27.75V25.5H35.2536C37.2226 25.4963 39.1254 24.7885 40.6182 23.5045C42.1109 22.2205 43.0952 20.4449 43.3932 18.4985C43.6912 16.5521 43.2832 14.5634 42.2429 12.8916C41.2027 11.2197 39.5988 9.9751 37.7211 9.38251ZM30.7536 27H17.2536V22.5H30.7536V27ZM17.2536 18V13.5H30.7536V18H17.2536ZM29.2536 19.5V21H18.7536V19.5H29.2536ZM35.2536 24H32.2536V21.75C32.2536 21.5511 32.1746 21.3603 32.0339 21.2197C31.8933 21.079 31.7025 21 31.5036 21H30.7536V19.5H31.5036C31.7025 19.5 31.8933 19.421 32.0339 19.2803C32.1746 19.1397 32.2536 18.9489 32.2536 18.75V12.75C32.2536 12.5511 32.1746 12.3603 32.0339 12.2197C31.8933 12.079 31.7025 12 31.5036 12H16.5036C16.3047 12 16.1139 12.079 15.9733 12.2197C15.8326 12.3603 15.7536 12.5511 15.7536 12.75V18.75C15.7536 18.9489 15.8326 19.1397 15.9733 19.2803C16.1139 19.421 16.3047 19.5 16.5036 19.5H17.2536V21H16.5036C16.3047 21 16.1139 21.079 15.9733 21.2197C15.8326 21.3603 15.7536 21.5511 15.7536 21.75V24H12.7536C11.0248 23.9805 9.36932 23.2984 8.12863 22.0942C6.88795 20.8901 6.15662 19.2558 6.08544 17.5283C6.01426 15.8008 6.60867 14.1119 7.74609 12.8098C8.88351 11.5077 10.4772 10.6917 12.1986 10.53C12.3652 10.5153 12.5222 10.4453 12.6445 10.3312C12.7668 10.217 12.8475 10.0653 12.8736 9.90001C13.1482 8.23001 13.9306 6.68515 15.1143 5.47558C16.298 4.266 17.8256 3.45044 19.4893 3.13983C21.153 2.82922 22.872 3.03865 24.4124 3.73963C25.9528 4.4406 27.2399 5.5991 28.0986 7.05751C28.196 7.22246 28.3528 7.34388 28.5369 7.39688C28.721 7.44987 28.9184 7.43042 29.0886 7.34251C29.8329 6.95012 30.6622 6.74665 31.5036 6.75001C32.5883 6.75169 33.6459 7.08933 34.5309 7.71651C35.416 8.34369 36.085 9.22962 36.4461 10.2525C36.4869 10.3677 36.5555 10.471 36.6458 10.5534C36.736 10.6358 36.8452 10.6948 36.9636 10.725C38.5467 11.1443 39.9234 12.1249 40.8372 13.484C41.7509 14.8431 42.1393 16.4881 41.9301 18.1124C41.7209 19.7367 40.9282 21.2295 39.6999 22.3127C38.4715 23.3959 36.8913 23.9956 35.2536 24Z" fill="#5072EB"/>
<path d="M18.75 15H20.25V16.5H18.75V15Z" fill="#37C0C1"/>
<path d="M23.25 15H24.75V16.5H23.25V15Z" fill="#37C0C1"/>
<path d="M27.75 15H29.25V16.5H27.75V15Z" fill="#37C0C1"/>
<path d="M18.75 24H20.25V25.5H18.75V24Z" fill="#37C0C1"/>
<path d="M23.25 24H24.75V25.5H23.25V24Z" fill="#37C0C1"/>
<path d="M27.75 24H29.25V25.5H27.75V24Z" fill="#37C0C1"/>
<path d="M40.5 17.25C40.4991 16.0906 40.1142 14.9642 39.4053 14.0468C38.6965 13.1294 37.7036 12.4727 36.582 12.1793L36.2025 13.6313C37.0836 13.8621 37.8503 14.406 38.3594 15.1613C38.8684 15.9165 39.0847 16.8314 38.968 17.7347C38.8512 18.6379 38.4093 19.4677 37.725 20.0687C37.0407 20.6698 36.1608 21.0008 35.25 21V22.5C36.6419 22.4984 37.9763 21.9448 38.9606 20.9606C39.9448 19.9763 40.4984 18.6419 40.5 17.25Z" fill="#37C0C1"/>
<path d="M12.7506 22.5002V21.0002C11.7943 20.984 10.8803 20.6031 10.1956 19.9353C9.51085 19.2675 9.10717 18.3633 9.06713 17.4077C9.02708 16.4521 9.35369 15.5173 9.98014 14.7945C10.6066 14.0718 11.4855 13.6157 12.4371 13.5197L12.3149 12.0242C10.977 12.1515 9.73895 12.7871 8.85567 13.8C7.9724 14.8129 7.51119 16.1259 7.56704 17.4687C7.62289 18.8115 8.19155 20.0817 9.15589 21.0177C10.1202 21.9537 11.4068 22.4843 12.7506 22.5002Z" fill="#37C0C1"/>
</svg>
