<svg width="120" height="120" viewBox="0 0 120 120" fill="none" xmlns="http://www.w3.org/2000/svg">
<path d="M88.127 61.8748C92.6832 61.8786 97.0847 60.2222 100.508 57.2153C103.931 54.2085 106.141 50.0574 106.725 45.5387C107.309 41.0201 106.226 36.4435 103.68 32.6654C101.133 28.8873 97.2971 26.1666 92.8895 25.0123C92.1784 22.9884 91.0408 21.1408 89.5537 19.5946C88.0666 18.0485 86.2647 16.8398 84.27 16.0505C82.2752 15.2611 80.1342 14.9095 77.9918 15.0193C75.8494 15.1292 73.7555 15.698 71.852 16.6873C69.5083 12.71 65.9965 9.55116 61.7941 7.64029C57.5917 5.72941 52.9027 5.15929 48.3648 6.00745C43.827 6.85561 39.6605 9.08089 36.432 12.3807C33.2035 15.6804 31.0697 19.8945 30.3208 24.4498C25.5219 24.8793 21.0726 27.1396 17.8957 30.7619C14.7188 34.3841 13.0582 39.0903 13.2584 43.9042C13.4586 48.718 15.5041 53.2701 18.9708 56.6161C22.4374 59.9621 27.0591 61.8452 31.877 61.8748H41.252V54.3748H78.752V61.8748H88.127ZM75.002 46.8748H41.252V31.8748H78.752V46.8748H75.002Z" fill="#C6D1F8"/>
<path d="M9.375 114.375H13.125C14.1186 114.372 15.0708 113.976 15.7734 113.273C16.476 112.571 16.872 111.619 16.875 110.625V76.875C16.872 75.8814 16.476 74.9292 15.7734 74.2266C15.0708 73.524 14.1186 73.128 13.125 73.125H9.375C8.38135 73.128 7.42925 73.524 6.72663 74.2266C6.02401 74.9292 5.62797 75.8814 5.625 76.875V110.625C5.62797 111.619 6.02401 112.571 6.72663 113.273C7.42925 113.976 8.38135 114.372 9.375 114.375Z" fill="#C6D1F8"/>
<path d="M115.35 67.4812C114.361 65.7853 112.746 64.5459 110.852 64.0303C108.958 63.5147 106.937 63.7642 105.225 64.725L71.2125 82.8937C71.2125 82.7625 71.25 82.6312 71.25 82.5C71.25 80.0136 70.2623 77.629 68.5041 75.8709C66.746 74.1127 64.3614 73.125 61.875 73.125H24.375C24.0815 73.1268 23.7925 73.1974 23.5312 73.3312L18.6375 75.7687C18.382 74.4948 17.6932 73.3485 16.6883 72.5248C15.6834 71.701 14.4244 71.2506 13.125 71.25H9.375C7.88453 71.2544 6.45637 71.8485 5.40244 72.9024C4.34851 73.9564 3.75445 75.3845 3.75 76.875V110.625C3.75445 112.115 4.34851 113.544 5.40244 114.598C6.45637 115.651 7.88453 116.246 9.375 116.25H13.125C14.5218 116.247 15.8671 115.722 16.8972 114.779C17.9274 113.835 18.568 112.541 18.6937 111.15L23.925 112.444C24.0721 112.481 24.2233 112.5 24.375 112.5H50.1375C51.7887 112.497 53.4106 112.064 54.8437 111.244L112.631 77.7C114.342 76.7011 115.588 75.0659 116.098 73.1513C116.607 71.2367 116.338 69.1983 115.35 67.4812ZM15 110.625C15 111.122 14.8025 111.599 14.4508 111.951C14.0992 112.302 13.6223 112.5 13.125 112.5H9.375C8.87772 112.5 8.40081 112.302 8.04917 111.951C7.69754 111.599 7.5 111.122 7.5 110.625V76.875C7.5 76.3777 7.69754 75.9008 8.04917 75.5492C8.40081 75.1975 8.87772 75 9.375 75H13.125C13.6223 75 14.0992 75.1975 14.4508 75.5492C14.8025 75.9008 15 76.3777 15 76.875V110.625ZM110.756 74.4562L52.9687 107.981C52.1094 108.483 51.1326 108.748 50.1375 108.75H24.6L18.75 107.306V79.9125L24.825 76.875H61.875C63.3668 76.875 64.7976 77.4676 65.8525 78.5225C66.9074 79.5774 67.5 81.0082 67.5 82.5C67.5 83.9918 66.9074 85.4226 65.8525 86.4775C64.7976 87.5324 63.3668 88.125 61.875 88.125H24.375V91.875H61.875C63.3106 91.8711 64.7258 91.5357 66.0105 90.895C67.2952 90.2543 68.4145 89.3256 69.2812 88.1812L107.044 68.0062C107.898 67.5383 108.901 67.4236 109.838 67.6866C110.776 67.9497 111.573 68.5696 112.058 69.4134C112.544 70.2573 112.68 71.2578 112.436 72.2005C112.193 73.1432 111.59 73.953 110.756 74.4562Z" fill="#5072EB"/>
<path d="M94.2949 23.4562C93.0059 20.3973 90.8441 17.786 88.0796 15.9486C85.3152 14.1112 82.0705 13.1291 78.7511 13.125C76.626 13.1197 74.5195 13.5206 72.5449 14.3062C69.8639 10.4039 66.1028 7.36828 61.7224 5.57146C57.342 3.77464 52.5326 3.29462 47.8835 4.19021C43.2344 5.0858 38.9475 7.31811 35.548 10.6136C32.1486 13.9091 29.7843 18.1247 28.7449 22.7437C23.6132 23.5397 18.9707 26.2422 15.7444 30.3115C12.5182 34.3808 10.9458 39.5174 11.3412 44.6954C11.7365 49.8734 14.0707 54.7116 17.8774 58.2439C21.684 61.7761 26.6831 63.7424 31.8761 63.75H39.3761V69.375C39.3761 69.8723 39.5737 70.3492 39.9253 70.7008C40.2769 71.0525 40.7539 71.25 41.2511 71.25H78.7511C79.2484 71.25 79.7253 71.0525 80.077 70.7008C80.4286 70.3492 80.6261 69.8723 80.6261 69.375V63.75H88.1261C93.0487 63.7408 97.8057 61.9713 101.538 58.7612C105.269 55.5511 107.73 51.1121 108.475 46.2462C109.22 41.3803 108.2 36.4085 105.6 32.2289C102.999 28.0493 98.9893 24.9377 94.2949 23.4562ZM76.8761 67.5H43.1261V56.25H76.8761V67.5ZM43.1261 45V33.75H76.8761V45H43.1261ZM73.1261 48.75V52.5H46.8761V48.75H73.1261ZM88.1261 60H80.6261V54.375C80.6261 53.8777 80.4286 53.4008 80.077 53.0492C79.7253 52.6975 79.2484 52.5 78.7511 52.5H76.8761V48.75H78.7511C79.2484 48.75 79.7253 48.5525 80.077 48.2008C80.4286 47.8492 80.6261 47.3723 80.6261 46.875V31.875C80.6261 31.3777 80.4286 30.9008 80.077 30.5492C79.7253 30.1975 79.2484 30 78.7511 30H41.2511C40.7539 30 40.2769 30.1975 39.9253 30.5492C39.5737 30.9008 39.3761 31.3777 39.3761 31.875V46.875C39.3761 47.3723 39.5737 47.8492 39.9253 48.2008C40.2769 48.5525 40.7539 48.75 41.2511 48.75H43.1261V52.5H41.2511C40.7539 52.5 40.2769 52.6975 39.9253 53.0492C39.5737 53.4008 39.3761 53.8777 39.3761 54.375V60H31.8761C27.5541 59.9512 23.4155 58.2459 20.3138 55.2355C17.2121 52.2252 15.3837 48.1395 15.2058 43.8208C15.0278 39.5021 16.5139 35.2798 19.3574 32.0245C22.201 28.7692 26.1852 26.7291 30.4886 26.325C30.9053 26.2883 31.2977 26.1133 31.6035 25.828C31.9093 25.5426 32.1108 25.1631 32.1761 24.75C32.8627 20.575 34.8186 16.7129 37.7779 13.6889C40.7373 10.665 44.5563 8.62607 48.7155 7.84955C52.8746 7.07303 57.1721 7.59661 61.0231 9.34905C64.8742 11.1015 68.0919 13.9977 70.2386 17.6437C70.4822 18.0561 70.8742 18.3597 71.3344 18.4922C71.7947 18.6247 72.2881 18.576 72.7136 18.3562C74.5744 17.3753 76.6477 16.8666 78.7511 16.875C81.463 16.8792 84.1069 17.7233 86.3195 19.2913C88.5321 20.8592 90.2047 23.074 91.1074 25.6312C91.2096 25.9192 91.381 26.1775 91.6067 26.3835C91.8323 26.5895 92.1051 26.7369 92.4011 26.8125C96.359 27.8607 99.8007 30.3122 102.085 33.71C104.369 37.1078 105.341 41.2202 104.817 45.281C104.294 49.3417 102.313 53.0738 99.2419 55.7818C96.1711 58.4898 92.2204 59.989 88.1261 60Z" fill="#5072EB"/>
<path d="M46.875 37.5H50.625V41.25H46.875V37.5Z" fill="#5072EB"/>
<path d="M58.125 37.5H61.875V41.25H58.125V37.5Z" fill="#5072EB"/>
<path d="M69.375 37.5H73.125V41.25H69.375V37.5Z" fill="#5072EB"/>
<path d="M46.875 60H50.625V63.75H46.875V60Z" fill="#5072EB"/>
<path d="M58.125 60H61.875V63.75H58.125V60Z" fill="#5072EB"/>
<path d="M69.375 60H73.125V63.75H69.375V60Z" fill="#5072EB"/>
<path d="M101.25 43.125C101.248 40.2266 100.285 37.4105 98.5133 35.117C96.7411 32.8235 94.2591 31.1816 91.455 30.4481L90.5063 34.0781C92.7089 34.6551 94.6258 36.0149 95.8984 37.9031C97.1709 39.7913 97.7119 42.0785 97.42 44.3366C97.1281 46.5948 96.0233 48.6693 94.3125 50.1718C92.6017 51.6744 90.402 52.5021 88.125 52.5V56.25C91.6047 56.246 94.9408 54.8619 97.4014 52.4014C99.8619 49.9408 101.246 46.6047 101.25 43.125Z" fill="#5072EB"/>
<path d="M31.8688 56.2504V52.5004C29.478 52.4601 27.193 51.5078 25.4811 49.8383C23.7693 48.1688 22.7601 45.9083 22.66 43.5193C22.5599 41.1302 23.3764 38.7932 24.9425 36.9863C26.5087 35.1795 28.706 34.0393 31.0851 33.7991L30.7794 30.0604C27.4348 30.3788 24.3396 31.9678 22.1314 34.5C19.9232 37.0322 18.7702 40.3148 18.9098 43.6717C19.0494 47.0286 20.4711 50.2042 22.8819 52.5443C25.2928 54.8843 28.5092 56.2108 31.8688 56.2504Z" fill="#5072EB"/>
</svg>
