<svg width="57" height="57" viewBox="0 0 57 57" fill="none" xmlns="http://www.w3.org/2000/svg">
<g clip-path="url(#clip0_13805_33653)">
<path d="M12.2077 35.9055C12.2077 39.1819 9.55967 41.8299 6.2833 41.8299C3.00692 41.8299 0.358887 39.1819 0.358887 35.9055C0.358887 32.6291 3.00692 29.9811 6.2833 29.9811H12.2077V35.9055ZM15.1699 35.9055C15.1699 32.6291 17.8179 29.9811 21.0943 29.9811C24.3707 29.9811 27.0187 32.6291 27.0187 35.9055V50.7165C27.0187 53.9929 24.3707 56.6409 21.0943 56.6409C17.8179 56.6409 15.1699 53.9929 15.1699 50.7165V35.9055Z" fill="#E01E5A"/>
<path d="M21.0943 12.1181C17.8179 12.1181 15.1699 9.47007 15.1699 6.1937C15.1699 2.91732 17.8179 0.269287 21.0943 0.269287C24.3707 0.269287 27.0187 2.91732 27.0187 6.1937V12.1181H21.0943ZM21.0943 15.1252C24.3707 15.1252 27.0187 17.7732 27.0187 21.0496C27.0187 24.326 24.3707 26.974 21.0943 26.974H6.23837C2.962 26.974 0.313965 24.326 0.313965 21.0496C0.313965 17.7732 2.962 15.1252 6.23837 15.1252H21.0943Z" fill="#36C5F0"/>
<path d="M44.8369 21.0496C44.8369 17.7732 47.4849 15.1252 50.7613 15.1252C54.0377 15.1252 56.6857 17.7732 56.6857 21.0496C56.6857 24.326 54.0377 26.974 50.7613 26.974H44.8369V21.0496ZM41.8747 21.0496C41.8747 24.326 39.2267 26.974 35.9503 26.974C32.6739 26.974 30.0259 24.326 30.0259 21.0496V6.1937C30.0259 2.91732 32.6739 0.269287 35.9503 0.269287C39.2267 0.269287 41.8747 2.91732 41.8747 6.1937V21.0496Z" fill="#2EB67D"/>
<path d="M35.9503 44.7921C39.2267 44.7921 41.8747 47.4402 41.8747 50.7165C41.8747 53.9929 39.2267 56.6409 35.9503 56.6409C32.6739 56.6409 30.0259 53.9929 30.0259 50.7165V44.7921H35.9503ZM35.9503 41.8299C32.6739 41.8299 30.0259 39.1819 30.0259 35.9055C30.0259 32.6291 32.6739 29.9811 35.9503 29.9811H50.8062C54.0826 29.9811 56.7306 32.6291 56.7306 35.9055C56.7306 39.1819 54.0826 41.8299 50.8062 41.8299H35.9503Z" fill="#ECB22E"/>
</g>
<defs>
<clipPath id="clip0_13805_33653">
<rect width="57" height="57" fill="white"/>
</clipPath>
</defs>
</svg>
