<svg width="30" height="36" viewBox="0 0 30 36" fill="none" xmlns="http://www.w3.org/2000/svg">
<path d="M0.752761 21.1891C0.625008 17.0868 0.891618 13.3099 2.39688 9.71488C4.20764 5.39757 7.78471 3.12035 12.0783 1.84114C17.4273 0.247653 22.9429 -0.0831737 28.4974 0.0160748C29.4194 0.0326162 29.8582 0.402056 29.8526 1.32286C29.836 3.72688 29.9249 6.13641 29.8138 8.54043C29.7138 10.7404 28.2252 11.9424 25.97 12.0637C21.5598 12.2953 17.1273 12.3284 12.8115 13.4808C8.21797 14.7104 4.10766 16.6457 1.37486 20.7425C1.30265 20.8583 1.14157 20.9189 0.752761 21.1891Z" fill="#5072EB"/>
<path d="M0.898438 35.9999C0.903992 30.4365 1.02065 24.9447 5.6142 20.8039C8.26368 18.4164 11.5408 17.5011 14.9013 16.7567C19.2504 15.7863 23.6773 15.7808 28.0987 15.654C28.843 15.6319 29.1707 15.9683 29.1707 16.6685C29.1651 19.1773 29.2707 21.6971 29.1207 24.2004C28.9985 26.2681 27.4877 27.3708 25.0382 27.5142C21.6277 27.7072 18.2006 27.663 14.8179 28.3357C10.952 29.1021 7.2972 30.3152 4.1367 32.7633C2.92583 33.7007 2.1593 35.0295 0.898438 35.9999Z" fill="#6ED5D6"/>
</svg>
