<svg width="50" height="50" viewBox="0 0 50 50" fill="none" xmlns="http://www.w3.org/2000/svg">
<path fill-rule="evenodd" clip-rule="evenodd" d="M31.6636 50H25.0036H18.3369C18.3369 50 18.3553 46.0467 18.3369 43.3333C9.21528 45.2967 6.67028 38.3333 6.67028 38.3333C5.00362 35 3.33695 33.3333 3.33695 33.3333C0.00361693 31.3533 3.33695 31.6667 3.33695 31.6667C6.67028 31.6667 8.33695 35 8.33695 35C11.262 39.9683 16.4669 39.1683 18.3369 38.3333C18.3369 36.6667 19.0669 34.1467 20.0036 33.3333C12.7236 32.5133 6.66362 28.3333 6.66362 20C6.66362 11.6667 8.33695 10 10.0036 8.33333C9.66695 7.51167 8.27195 4.475 10.0553 0C10.0553 0 13.3303 0 16.6636 5C18.3153 3.34833 23.3303 3.33333 24.9986 3.33333C26.6636 3.33333 31.6786 3.34833 33.3303 5C36.6636 0 39.9453 0 39.9453 0C41.7286 4.475 40.3336 7.51167 39.997 8.33333C41.6636 10 43.3303 11.6667 43.3303 20C43.3303 28.3333 37.277 32.5133 29.997 33.3333C30.9336 34.1467 31.6636 37.0167 31.6636 38.3333V50Z" fill="currentColor"/>
</svg>
