<svg width="29" height="29" viewBox="0 0 29 29" fill="none" xmlns="http://www.w3.org/2000/svg">
<g clip-path="url(#clip0_7400_18991)">
<path fill-rule="evenodd" clip-rule="evenodd" d="M15.7745 7.30084C17.2575 6.82037 18.32 5.52392 18.32 4C18.32 2.06701 16.6106 0.5 14.5018 0.5C12.3931 0.5 10.6836 2.06701 10.6836 4C10.6836 5.52392 11.7461 6.82037 13.229 7.30084V16.25C13.229 16.8944 13.7988 17.4167 14.5018 17.4167C15.2047 17.4167 15.7745 16.8944 15.7745 16.25V7.30084ZM14.5018 2.83333C13.7988 2.83333 13.229 3.35567 13.229 4C13.229 4.64433 13.7988 5.16667 14.5018 5.16667C15.2047 5.16667 15.7745 4.64433 15.7745 4C15.7745 3.35567 15.2047 2.83333 14.5018 2.83333Z" fill="currentColor"/>
<path fill-rule="evenodd" clip-rule="evenodd" d="M8.13636 9.83362C8.13636 11.3575 7.07388 12.654 5.59091 13.1345V17.529L9.91922 19.2647C10.3825 19.4506 10.6818 19.8701 10.6818 20.3336V27.3336C10.6818 27.978 10.112 28.5003 9.40909 28.5003C8.70619 28.5003 8.13636 27.978 8.13636 27.3336V21.0966L3.80805 19.3609C3.34479 19.175 3.04545 18.7555 3.04545 18.292V13.1345C1.56248 12.654 0.5 11.3575 0.5 9.83362C0.5 7.90063 2.20946 6.33362 4.31818 6.33362C6.4269 6.33362 8.13636 7.90063 8.13636 9.83362ZM3.04545 9.83362C3.04545 9.18929 3.61528 8.66695 4.31818 8.66695C5.02108 8.66695 5.59091 9.18929 5.59091 9.83362C5.59091 10.4779 5.02108 11.0003 4.31818 11.0003C3.61528 11.0003 3.04545 10.4779 3.04545 9.83362Z" fill="currentColor"/>
<path fill-rule="evenodd" clip-rule="evenodd" d="M25.9528 13.1345C27.4358 12.654 28.4982 11.3575 28.4982 9.83362C28.4982 7.90063 26.7888 6.33362 24.68 6.33362C22.5713 6.33362 20.8619 7.90063 20.8619 9.83362C20.8619 11.3575 21.9243 12.654 23.4073 13.1345V17.529L19.079 19.2647C18.6158 19.4506 18.3164 19.8701 18.3164 20.3336V27.3336C18.3164 27.978 18.8862 28.5003 19.5891 28.5003C20.2921 28.5003 20.8619 27.978 20.8619 27.3336V21.0966L25.1902 19.3609C25.6534 19.175 25.9528 18.7555 25.9528 18.292V13.1345ZM25.9528 9.83362C25.9528 9.18929 25.383 8.66695 24.68 8.66695C23.9771 8.66695 23.4073 9.18929 23.4073 9.83362C23.4073 10.4779 23.9771 11.0003 24.68 11.0003C25.383 11.0003 25.9528 10.4779 25.9528 9.83362Z" fill="currentColor"/>
</g>
<defs>
<clipPath id="clip0_7400_18991">
<rect width="28" height="28" fill="white" transform="translate(0.5 0.5)"/>
</clipPath>
</defs>
</svg>
