<svg width="154" height="154" viewBox="0 0 154 154" fill="none" xmlns="http://www.w3.org/2000/svg">
<path d="M144.375 115.5C144.375 112.548 143.804 109.757 142.976 107.081L152.069 101.845L145.658 90.7317L136.611 95.9484C132.729 91.7647 127.672 88.7232 121.923 87.4078V77.0064H109.09V87.4078C103.34 88.7232 98.2777 91.7583 94.402 95.9484L85.3545 90.7317L78.9443 101.845L88.0367 107.081C87.2089 109.763 86.6378 112.555 86.6378 115.5C86.6378 118.445 87.2089 121.243 88.0367 123.919L78.9443 129.155L85.3545 140.268L94.402 135.052C98.2841 139.235 103.34 142.277 109.09 143.592V153.994H121.923V143.592C127.672 142.277 132.735 139.242 136.611 135.052L145.658 140.268L152.069 129.155L142.976 123.919C143.804 121.236 144.375 118.445 144.375 115.5ZM115.5 125.125C110.193 125.125 105.875 120.807 105.875 115.5C105.875 110.193 110.193 105.875 115.5 105.875C120.807 105.875 125.125 110.193 125.125 115.5C125.125 120.807 120.807 125.125 115.5 125.125ZM0 67.8049V53.9C12.0377 64.141 31.57 70.5833 54.5417 70.5833C77.5133 70.5833 97.0457 64.141 109.083 53.9V64.6094C93.3304 66.5793 79.8298 75.6717 71.8538 88.5757C66.4574 89.3713 60.6568 89.8333 54.5417 89.8333C23.3246 89.8333 0 78.2063 0 67.8049ZM0 28.875C0 12.9296 24.4218 0 54.5417 0C84.6615 0 109.083 12.9296 109.083 28.875C109.083 44.8204 84.6615 57.75 54.5417 57.75C24.4218 57.75 0 44.8204 0 28.875ZM0 99.8818V88.7168C12.0377 97.2767 31.57 102.667 54.5417 102.667C58.4815 102.667 62.2673 102.455 65.9826 102.147C64.834 106.414 64.1667 110.874 64.1667 115.5C64.1667 117.528 64.3143 119.523 64.5452 121.487C61.3113 121.75 57.9874 121.917 54.5417 121.917C23.3246 121.917 0 110.29 0 99.8818ZM67.6894 134.076C70.224 140.596 74.0227 146.473 78.8288 151.382C71.2378 153.114 62.8833 154 54.5481 154C27.4441 154 0.00641667 144.715 0.00641667 126.96V120.8C12.0441 129.36 31.5764 134.75 54.5481 134.75C59.0911 134.75 63.448 134.48 67.6958 134.076H67.6894Z" fill="#5072EB" fill-opacity="0.7"/>
</svg>
