<svg width="30" height="31" viewBox="0 0 30 31" fill="none" xmlns="http://www.w3.org/2000/svg">
<path d="M29.58 12.505L26.475 11.99C26.2506 11.2567 25.9559 10.5467 25.595 9.87L27.43 7.305C27.4974 7.20791 27.5287 7.09034 27.5187 6.9726C27.5087 6.85485 27.4578 6.74429 27.375 6.66L23.84 3.125C23.7557 3.04217 23.6452 2.99135 23.5274 2.98131C23.4097 2.97127 23.2921 3.00264 23.195 3.07L20.63 4.905C19.9533 4.54415 19.2433 4.24945 18.51 4.025L17.995 0.920002C17.976 0.802546 17.9157 0.695729 17.8249 0.618745C17.7342 0.541762 17.619 0.499659 17.5 0.500002H12.5C12.381 0.499659 12.2658 0.541762 12.1751 0.618745C12.0843 0.695729 12.024 0.802546 12.005 0.920002L11.49 4.025C10.7567 4.24945 10.0467 4.54415 9.37 4.905L6.805 3.07C6.70791 3.00264 6.59034 2.97127 6.4726 2.98131C6.35485 2.99135 6.24429 3.04217 6.16 3.125L2.625 6.66C2.54217 6.74429 2.49135 6.85485 2.48131 6.9726C2.47127 7.09034 2.50264 7.20791 2.57 7.305L4.405 9.87C4.04415 10.5467 3.74945 11.2567 3.525 11.99L0.420002 12.505C0.302546 12.524 0.195729 12.5843 0.118745 12.6751C0.041762 12.7658 -0.000340885 12.881 2.07887e-06 13V18C-0.000340885 18.119 0.041762 18.2342 0.118745 18.3249C0.195729 18.4157 0.302546 18.476 0.420002 18.495L3.525 19.01C3.74945 19.7433 4.04415 20.4533 4.405 21.13L2.57 23.695C2.50264 23.7921 2.47127 23.9097 2.48131 24.0274C2.49135 24.1452 2.54217 24.2557 2.625 24.34L6.16 27.875C6.24429 27.9578 6.35485 28.0087 6.4726 28.0187C6.59034 28.0287 6.70791 27.9974 6.805 27.93L9.37 26.095C10.0467 26.4559 10.7567 26.7506 11.49 26.975L12.005 30.08C12.024 30.1975 12.0843 30.3043 12.1751 30.3813C12.2658 30.4582 12.381 30.5003 12.5 30.5H17.5C17.619 30.5003 17.7342 30.4582 17.8249 30.3813C17.9157 30.3043 17.976 30.1975 17.995 30.08L18.51 26.975C19.2433 26.7506 19.9533 26.4559 20.63 26.095L23.195 27.93C23.2921 27.9974 23.4097 28.0287 23.5274 28.0187C23.6452 28.0087 23.7557 27.9578 23.84 27.875L27.375 24.34C27.4578 24.2557 27.5087 24.1452 27.5187 24.0274C27.5287 23.9097 27.4974 23.7921 27.43 23.695L25.595 21.13C25.9559 20.4533 26.2506 19.7433 26.475 19.01L29.58 18.495C29.6975 18.476 29.8043 18.4157 29.8813 18.3249C29.9582 18.2342 30.0003 18.119 30 18V13C30.0003 12.881 29.9582 12.7658 29.8813 12.6751C29.8043 12.5843 29.6975 12.524 29.58 12.505ZM29 17.575L26 18.075C25.9064 18.0916 25.8192 18.1342 25.7485 18.1978C25.6778 18.2614 25.6264 18.3436 25.6 18.435C25.3614 19.303 25.0154 20.1378 24.57 20.92C24.5231 21.0027 24.501 21.097 24.5064 21.1919C24.5117 21.2868 24.5442 21.3781 24.6 21.455L26.37 23.93L23.43 26.87L20.955 25.1C20.8781 25.0441 20.7868 25.0116 20.6919 25.0063C20.597 25.0009 20.5026 25.0231 20.42 25.07C19.6378 25.5154 18.803 25.8614 17.935 26.1C17.8436 26.1264 17.7614 26.1778 17.6978 26.2485C17.6342 26.3192 17.5916 26.4064 17.575 26.5L17.075 29.5H12.925L12.425 26.5C12.4084 26.4064 12.3658 26.3192 12.3022 26.2485C12.2386 26.1778 12.1564 26.1264 12.065 26.1C11.197 25.8614 10.3623 25.5154 9.58 25.07C9.49737 25.0231 9.40297 25.0009 9.30809 25.0063C9.21321 25.0116 9.12187 25.0441 9.045 25.1L6.57 26.87L3.63 23.93L5.4 21.455C5.45582 21.3781 5.48833 21.2868 5.49365 21.1919C5.49897 21.097 5.47688 21.0027 5.43 20.92C4.98462 20.1378 4.63861 19.303 4.4 18.435C4.37363 18.3436 4.32217 18.2614 4.25147 18.1978C4.18077 18.1342 4.09365 18.0916 4 18.075L1 17.575V13.425L4 12.925C4.09365 12.9084 4.18077 12.8658 4.25147 12.8022C4.32217 12.7386 4.37363 12.6564 4.4 12.565C4.63861 11.697 4.98462 10.8623 5.43 10.08C5.47688 9.99735 5.49897 9.90296 5.49365 9.80809C5.48833 9.71323 5.45582 9.62189 5.4 9.545L3.63 7.07L6.57 4.13L9.045 5.9C9.12187 5.95588 9.21321 5.98843 9.30809 5.99375C9.40297 5.99907 9.49737 5.97694 9.58 5.93C10.3623 5.48462 11.197 5.13861 12.065 4.9C12.1564 4.87363 12.2386 4.82217 12.3022 4.75147C12.3658 4.68077 12.4084 4.59365 12.425 4.5L12.925 1.5H17.075L17.575 4.5C17.5916 4.59365 17.6342 4.68077 17.6978 4.75147C17.7614 4.82217 17.8436 4.87363 17.935 4.9C18.803 5.13861 19.6378 5.48462 20.42 5.93C20.5026 5.97694 20.597 5.99907 20.6919 5.99375C20.7868 5.98843 20.8781 5.95588 20.955 5.9L23.43 4.13L26.37 7.07L24.6 9.545C24.5442 9.62189 24.5117 9.71323 24.5064 9.80809C24.501 9.90296 24.5231 9.99735 24.57 10.08C25.0154 10.8623 25.3614 11.697 25.6 12.565C25.6264 12.6564 25.6778 12.7386 25.7485 12.8022C25.8192 12.8658 25.9064 12.9084 26 12.925L29 13.425V17.575Z" fill="#5072EB"/>
<path d="M15 5.5C15.2967 5.5 15.5867 5.41203 15.8334 5.24721C16.08 5.08238 16.2723 4.84811 16.3858 4.57403C16.4994 4.29994 16.5291 3.99834 16.4712 3.70737C16.4133 3.41639 16.2704 3.14912 16.0607 2.93934C15.8509 2.72956 15.5836 2.5867 15.2926 2.52882C15.0017 2.47094 14.7001 2.50065 14.426 2.61418C14.1519 2.72771 13.9176 2.91997 13.7528 3.16665C13.588 3.41332 13.5 3.70333 13.5 4C13.5 4.39783 13.658 4.77936 13.9393 5.06066C14.2206 5.34197 14.6022 5.5 15 5.5ZM15 3.5C15.0989 3.5 15.1956 3.52933 15.2778 3.58427C15.36 3.63921 15.4241 3.7173 15.4619 3.80866C15.4998 3.90002 15.5097 4.00056 15.4904 4.09755C15.4711 4.19454 15.4235 4.28363 15.3536 4.35355C15.2836 4.42348 15.1945 4.4711 15.0975 4.49039C15.0006 4.50969 14.9 4.49978 14.8087 4.46194C14.7173 4.4241 14.6392 4.36001 14.5843 4.27779C14.5293 4.19556 14.5 4.09889 14.5 4C14.5 3.86739 14.5527 3.74022 14.6464 3.64645C14.7402 3.55268 14.8674 3.5 15 3.5Z" fill="#5072EB"/>
<path d="M3.5 14C3.20333 14 2.91332 14.088 2.66665 14.2528C2.41997 14.4176 2.22771 14.6519 2.11418 14.926C2.00065 15.2001 1.97094 15.5017 2.02882 15.7926C2.0867 16.0836 2.22956 16.3509 2.43934 16.5607C2.64912 16.7704 2.91639 16.9133 3.20737 16.9712C3.49834 17.0291 3.79994 16.9994 4.07403 16.8858C4.34811 16.7723 4.58238 16.58 4.74721 16.3334C4.91203 16.0867 5 15.7967 5 15.5C5 15.1022 4.84197 14.7206 4.56066 14.4393C4.27936 14.158 3.89783 14 3.5 14ZM3.5 16C3.40111 16 3.30444 15.9707 3.22222 15.9157C3.13999 15.8608 3.0759 15.7827 3.03806 15.6913C3.00022 15.6 2.99032 15.4994 3.00961 15.4025C3.0289 15.3055 3.07652 15.2164 3.14645 15.1464C3.21637 15.0765 3.30547 15.0289 3.40246 15.0096C3.49945 14.9903 3.59998 15.0002 3.69134 15.0381C3.78271 15.0759 3.86079 15.14 3.91574 15.2222C3.97068 15.3044 4 15.4011 4 15.5C4 15.6326 3.94732 15.7598 3.85355 15.8536C3.75979 15.9473 3.63261 16 3.5 16Z" fill="#5072EB"/>
<path d="M15 25.5C14.7033 25.5 14.4133 25.588 14.1666 25.7528C13.92 25.9176 13.7277 26.1519 13.6142 26.426C13.5006 26.7001 13.4709 27.0017 13.5288 27.2926C13.5867 27.5836 13.7296 27.8509 13.9393 28.0607C14.1491 28.2704 14.4164 28.4133 14.7074 28.4712C14.9983 28.5291 15.2999 28.4994 15.574 28.3858C15.8481 28.2723 16.0824 28.08 16.2472 27.8334C16.412 27.5867 16.5 27.2967 16.5 27C16.5 26.6022 16.342 26.2206 16.0607 25.9393C15.7794 25.658 15.3978 25.5 15 25.5ZM15 27.5C14.9011 27.5 14.8044 27.4707 14.7222 27.4157C14.64 27.3608 14.5759 27.2827 14.5381 27.1913C14.5002 27.1 14.4903 26.9994 14.5096 26.9025C14.5289 26.8055 14.5765 26.7164 14.6464 26.6464C14.7164 26.5765 14.8055 26.5289 14.9025 26.5096C14.9994 26.4903 15.1 26.5002 15.1913 26.5381C15.2827 26.5759 15.3608 26.64 15.4157 26.7222C15.4707 26.8044 15.5 26.9011 15.5 27C15.5 27.1326 15.4473 27.2598 15.3536 27.3536C15.2598 27.4473 15.1326 27.5 15 27.5Z" fill="#5072EB"/>
<path d="M25 15.5C25 15.7967 25.088 16.0867 25.2528 16.3334C25.4176 16.58 25.6519 16.7723 25.926 16.8858C26.2001 16.9994 26.5017 17.0291 26.7926 16.9712C27.0836 16.9133 27.3509 16.7704 27.5607 16.5607C27.7704 16.3509 27.9133 16.0836 27.9712 15.7926C28.0291 15.5017 27.9994 15.2001 27.8858 14.926C27.7723 14.6519 27.58 14.4176 27.3334 14.2528C27.0867 14.088 26.7967 14 26.5 14C26.1022 14 25.7206 14.158 25.4393 14.4393C25.158 14.7206 25 15.1022 25 15.5ZM26.5 15C26.5989 15 26.6956 15.0293 26.7778 15.0843C26.86 15.1392 26.9241 15.2173 26.9619 15.3087C26.9998 15.4 27.0097 15.5006 26.9904 15.5975C26.9711 15.6945 26.9235 15.7836 26.8536 15.8536C26.7836 15.9235 26.6945 15.9711 26.5975 15.9904C26.5006 16.0097 26.4 15.9998 26.3087 15.9619C26.2173 15.9241 26.1392 15.86 26.0843 15.7778C26.0293 15.6956 26 15.5989 26 15.5C26 15.3674 26.0527 15.2402 26.1464 15.1464C26.2402 15.0527 26.3674 15 26.5 15Z" fill="#5072EB"/>
<path d="M7 9C7.29667 9 7.58668 8.91203 7.83335 8.74721C8.08003 8.58238 8.27229 8.34811 8.38582 8.07403C8.49935 7.79994 8.52906 7.49834 8.47118 7.20737C8.4133 6.91639 8.27044 6.64912 8.06066 6.43934C7.85088 6.22956 7.58361 6.0867 7.29264 6.02882C7.00166 5.97094 6.70006 6.00065 6.42597 6.11418C6.15189 6.22771 5.91762 6.41997 5.7528 6.66665C5.58797 6.91332 5.5 7.20333 5.5 7.5C5.5 7.89783 5.65804 8.27936 5.93934 8.56066C6.22064 8.84197 6.60218 9 7 9ZM7 7C7.09889 7 7.19556 7.02933 7.27779 7.08427C7.36001 7.13921 7.4241 7.2173 7.46194 7.30866C7.49978 7.40002 7.50969 7.50056 7.49039 7.59755C7.4711 7.69454 7.42348 7.78363 7.35355 7.85355C7.28363 7.92348 7.19454 7.9711 7.09755 7.99039C7.00056 8.00969 6.90002 7.99978 6.80866 7.96194C6.7173 7.9241 6.63921 7.86001 6.58427 7.77779C6.52932 7.69556 6.5 7.59889 6.5 7.5C6.5 7.36739 6.55268 7.24022 6.64645 7.14645C6.74021 7.05268 6.86739 7 7 7Z" fill="#5072EB"/>
<path d="M23 6C22.7033 6 22.4133 6.08797 22.1666 6.2528C21.92 6.41762 21.7277 6.65189 21.6142 6.92597C21.5007 7.20006 21.4709 7.50166 21.5288 7.79264C21.5867 8.08361 21.7296 8.35088 21.9393 8.56066C22.1491 8.77044 22.4164 8.9133 22.7074 8.97118C22.9983 9.02906 23.2999 8.99935 23.574 8.88582C23.8481 8.77229 24.0824 8.58003 24.2472 8.33335C24.412 8.08668 24.5 7.79667 24.5 7.5C24.5 7.10218 24.342 6.72064 24.0607 6.43934C23.7794 6.15804 23.3978 6 23 6ZM23 8C22.9011 8 22.8044 7.97068 22.7222 7.91574C22.64 7.86079 22.5759 7.7827 22.5381 7.69134C22.5002 7.59998 22.4903 7.49945 22.5096 7.40245C22.5289 7.30546 22.5765 7.21637 22.6464 7.14645C22.7164 7.07652 22.8055 7.0289 22.9025 7.00961C22.9994 6.99031 23.1 7.00022 23.1913 7.03806C23.2827 7.0759 23.3608 7.13999 23.4157 7.22221C23.4707 7.30444 23.5 7.40111 23.5 7.5C23.5 7.63261 23.4473 7.75979 23.3536 7.85355C23.2598 7.94732 23.1326 8 23 8Z" fill="#5072EB"/>
<path d="M23 22C22.7033 22 22.4133 22.088 22.1666 22.2528C21.92 22.4176 21.7277 22.6519 21.6142 22.926C21.5007 23.2001 21.4709 23.5017 21.5288 23.7926C21.5867 24.0836 21.7296 24.3509 21.9393 24.5607C22.1491 24.7704 22.4164 24.9133 22.7074 24.9712C22.9983 25.0291 23.2999 24.9994 23.574 24.8858C23.8481 24.7723 24.0824 24.58 24.2472 24.3334C24.412 24.0867 24.5 23.7967 24.5 23.5C24.5 23.1022 24.342 22.7206 24.0607 22.4393C23.7794 22.158 23.3978 22 23 22ZM23 24C22.9011 24 22.8044 23.9707 22.7222 23.9157C22.64 23.8608 22.5759 23.7827 22.5381 23.6913C22.5002 23.6 22.4903 23.4994 22.5096 23.4025C22.5289 23.3055 22.5765 23.2164 22.6464 23.1464C22.7164 23.0765 22.8055 23.0289 22.9025 23.0096C22.9994 22.9903 23.1 23.0002 23.1913 23.0381C23.2827 23.0759 23.3608 23.14 23.4157 23.2222C23.4707 23.3044 23.5 23.4011 23.5 23.5C23.5 23.6326 23.4473 23.7598 23.3536 23.8536C23.2598 23.9473 23.1326 24 23 24Z" fill="#5072EB"/>
<path d="M7 22C6.70333 22 6.41332 22.088 6.16665 22.2528C5.91997 22.4176 5.72771 22.6519 5.61418 22.926C5.50065 23.2001 5.47094 23.5017 5.52882 23.7926C5.5867 24.0836 5.72956 24.3509 5.93934 24.5607C6.14912 24.7704 6.41639 24.9133 6.70737 24.9712C6.99834 25.0291 7.29994 24.9994 7.57403 24.8858C7.84811 24.7723 8.08238 24.58 8.24721 24.3334C8.41203 24.0867 8.5 23.7967 8.5 23.5C8.5 23.1022 8.34197 22.7206 8.06066 22.4393C7.77936 22.158 7.39783 22 7 22ZM7 24C6.90111 24 6.80444 23.9707 6.72222 23.9157C6.63999 23.8608 6.5759 23.7827 6.53806 23.6913C6.50022 23.6 6.49032 23.4994 6.50961 23.4025C6.5289 23.3055 6.57652 23.2164 6.64645 23.1464C6.71637 23.0765 6.80547 23.0289 6.90246 23.0096C6.99945 22.9903 7.09998 23.0002 7.19134 23.0381C7.28271 23.0759 7.3608 23.14 7.41574 23.2222C7.47068 23.3044 7.5 23.4011 7.5 23.5C7.5 23.6326 7.44732 23.7598 7.35355 23.8536C7.25979 23.9473 7.13261 24 7 24Z" fill="#5072EB"/>
<path d="M15 6C13.1211 6 11.2844 6.55717 9.72209 7.60104C8.15982 8.64491 6.94218 10.1286 6.22315 11.8645C5.50412 13.6004 5.31598 15.5105 5.68254 17.3534C6.0491 19.1962 6.95389 20.8889 8.28249 22.2175C9.61109 23.5461 11.3038 24.4509 13.1466 24.8175C14.9895 25.184 16.8996 24.9959 18.6355 24.2769C20.3714 23.5578 21.8551 22.3402 22.899 20.7779C23.9428 19.2157 24.5 17.3789 24.5 15.5C24.4978 12.9811 23.4961 10.5661 21.715 8.78497C19.9339 7.00386 17.5189 6.00225 15 6ZM19 22.995C17.77 23.6548 16.3958 24 15 24C13.6042 24 12.23 23.6548 11 22.995V22H19V22.995ZM19 21H11V19H19V21ZM19 18H11V16H19V18ZM11.5 15C11.2374 15.0016 10.977 14.9515 10.7337 14.8525C10.4904 14.7535 10.269 14.6076 10.0821 14.4231C9.70471 14.0503 9.49082 13.5429 9.4875 13.0125C9.48586 12.7499 9.53597 12.4895 9.63496 12.2462C9.73395 12.0029 9.8799 11.7815 10.0645 11.5946C10.249 11.4077 10.4686 11.2591 10.7106 11.157C10.9526 11.055 11.2124 11.0016 11.475 11C11.4998 11.004 11.5249 11.0057 11.55 11.005C11.6653 11.005 11.777 10.9652 11.8663 10.8923C11.9556 10.8194 12.017 10.7179 12.04 10.605C12.1187 10.2104 12.3149 9.84875 12.6028 9.56763C12.8907 9.28651 13.2569 9.09903 13.6533 9.02981C14.0497 8.96058 14.4578 9.01286 14.8239 9.17976C15.1901 9.34666 15.4972 9.62039 15.705 9.965C15.7688 10.0721 15.8707 10.1511 15.9903 10.1863C16.1099 10.2215 16.2383 10.2104 16.35 10.155C16.5778 10.042 16.8308 9.9892 17.0848 10.0017C17.3388 10.0142 17.5854 10.0916 17.801 10.2265C18.0166 10.3614 18.194 10.5492 18.3164 10.7722C18.4388 10.9951 18.502 11.2457 18.5 11.5C18.5 11.6326 18.5527 11.7598 18.6465 11.8536C18.7402 11.9473 18.8674 12 19 12C19.3978 12 19.7794 12.158 20.0607 12.4393C20.342 12.7206 20.5 13.1022 20.5 13.5C20.5 13.8978 20.342 14.2794 20.0607 14.5607C19.7794 14.842 19.3978 15 19 15H11.5ZM20 22.36V15.79C20.4907 15.5764 20.8999 15.211 21.1674 14.7476C21.4349 14.2841 21.5467 13.7471 21.4862 13.2153C21.4258 12.6836 21.1963 12.1854 20.8316 11.7938C20.4669 11.4022 19.9861 11.138 19.46 11.04C19.3967 10.6971 19.2622 10.3714 19.0651 10.0837C18.8681 9.79612 18.6129 9.55304 18.316 9.37021C18.0191 9.18737 17.6872 9.06885 17.3417 9.02231C16.9961 8.97577 16.6447 9.00223 16.31 9.1C16.0319 8.75543 15.6799 8.47771 15.2801 8.28733C14.8803 8.09694 14.4428 7.99875 14 8C13.3765 8.00185 12.7689 8.19716 12.2611 8.55898C11.7533 8.92079 11.3704 9.43128 11.165 10.02C10.5374 10.0899 9.94795 10.3563 9.48072 10.7811C9.0135 11.2059 8.69239 11.7674 8.56322 12.3855C8.43406 13.0037 8.50343 13.6468 8.76145 14.2231C9.01946 14.7995 9.45293 15.2796 10 15.595V22.36C8.54871 21.3043 7.46878 19.8164 6.91493 18.1094C6.36107 16.4024 6.36171 14.5639 6.91675 12.8572C7.4718 11.1506 8.55276 9.66345 10.0048 8.6088C11.4568 7.55415 13.2054 6.98614 15 6.98614C16.7946 6.98614 18.5432 7.55415 19.9952 8.6088C21.4472 9.66345 22.5282 11.1506 23.0833 12.8572C23.6383 14.5639 23.6389 16.4024 23.0851 18.1094C22.5312 19.8164 21.4513 21.3043 20 22.36Z" fill="#5072EB"/>
</svg>
