<svg width="16" height="16" viewBox="0 0 16 16" fill="none" xmlns="http://www.w3.org/2000/svg">
<path d="M0.821429 15.1786C1.03571 15.3929 1.25 15.5 1.57143 15.5C1.89286 15.5 2.10714 15.3929 2.32143 15.1786L8 9.5L13.6786 15.1786C13.8929 15.3929 14.2143 15.5 14.4286 15.5C14.6429 15.5 14.9643 15.3929 15.1786 15.1786C15.6071 14.75 15.6071 14.1071 15.1786 13.6786L9.5 8L15.1786 2.32143C15.6071 1.89286 15.6071 1.25 15.1786 0.821429C14.75 0.392857 14.1071 0.392857 13.6786 0.821429L8 6.5L2.32143 0.821429C1.89286 0.392857 1.25 0.392857 0.821429 0.821429C0.392857 1.25 0.392857 1.89286 0.821429 2.32143L6.5 8L0.821429 13.6786C0.392857 14.1071 0.392857 14.75 0.821429 15.1786Z" fill="currentColor"/>
</svg>
