<svg width="30" height="31" viewBox="0 0 30 31" fill="none" xmlns="http://www.w3.org/2000/svg">
<path d="M28.5011 22.4999V21.9999C28.5011 21.3369 28.2377 20.701 27.7689 20.2322C27.3 19.7633 26.6641 19.4999 26.0011 19.4999C25.458 19.5015 24.9306 19.6825 24.5011 20.0149V19.3299C26.0785 18.9858 27.4882 18.1063 28.4908 16.8408C29.4934 15.5752 30.027 14.0017 30.0011 12.3874C29.9752 10.7731 29.3913 9.21748 28.3486 7.98478C27.306 6.75208 25.8688 5.91827 24.2811 5.62495C23.9931 4.71638 23.4228 3.92339 22.653 3.36135C21.8832 2.79931 20.9542 2.49754 20.0011 2.49995C19.452 2.49838 18.9075 2.60015 18.3961 2.79995C17.5053 1.87263 16.3907 1.19038 15.1597 0.818931C13.9287 0.447483 12.6227 0.399361 11.3677 0.679204C10.1127 0.959046 8.95091 1.55742 7.99431 2.41666C7.03771 3.2759 6.31854 4.36705 5.9061 5.58495C4.29488 5.83906 2.8231 6.64818 1.74521 7.87242C0.667315 9.09665 0.051078 10.659 0.00303706 12.2895C-0.0450039 13.9199 0.478171 15.5159 1.48211 16.8015C2.48605 18.087 3.90764 18.9814 5.5011 19.3299V27.9999C5.5011 29.9749 11.4711 30.4999 15.0011 30.4999C17.4214 30.5456 19.8377 30.2818 22.1911 29.7149C22.3189 29.9513 22.508 30.1489 22.7385 30.2871C22.969 30.4252 23.2324 30.4987 23.5011 30.4999H28.5011C28.8986 30.4988 29.2794 30.3403 29.5604 30.0593C29.8415 29.7782 29.9999 29.3974 30.0011 28.9999V23.9999C29.9999 23.6025 29.8415 23.2216 29.5604 22.9406C29.2794 22.6595 28.8986 22.5011 28.5011 22.4999ZM26.0011 20.4999C26.3986 20.5011 26.7794 20.6595 27.0604 20.9406C27.3415 21.2216 27.4999 21.6025 27.5011 21.9999V22.4999H24.5011V21.9999C24.5023 21.6025 24.6607 21.2216 24.9418 20.9406C25.2228 20.6595 25.6036 20.5011 26.0011 20.4999ZM5.5011 15.9999V18.3049C4.14409 17.9525 2.95335 17.136 2.13561 15.9971C1.31788 14.8582 0.924791 13.469 1.0246 12.0705C1.1244 10.672 1.7108 9.35265 2.68198 8.34146C3.65316 7.33026 4.94779 6.6911 6.3411 6.53495C6.43937 6.5252 6.53243 6.48614 6.60822 6.42284C6.68401 6.35953 6.73901 6.27491 6.7661 6.17995C7.09082 5.06038 7.71123 4.04901 8.56206 3.25217C9.4129 2.45534 10.4627 1.9025 11.6012 1.65179C12.7396 1.40108 13.9245 1.46177 15.0314 1.82747C16.1383 2.19317 17.1261 2.85036 17.8911 3.72995C17.963 3.81302 18.0604 3.86987 18.1681 3.89159C18.2758 3.91331 18.3876 3.89866 18.4861 3.84995C18.9579 3.61952 19.476 3.49981 20.0011 3.49995C20.7868 3.49849 21.55 3.76233 22.1671 4.24873C22.7842 4.73513 23.219 5.41561 23.4011 6.17995C23.4242 6.27762 23.4761 6.36609 23.5501 6.43387C23.6241 6.50164 23.7168 6.54557 23.8161 6.55995C25.193 6.74749 26.4621 7.40761 27.4061 8.4274C28.3501 9.44718 28.9105 10.7633 28.9914 12.1506C29.0723 13.5379 28.6687 14.9102 27.8497 16.0328C27.0306 17.1554 25.8469 17.9586 24.5011 18.3049V15.9999C24.5011 14.0249 18.5311 13.4999 15.0011 13.4999C11.4711 13.4999 5.5011 14.0249 5.5011 15.9999ZM23.5011 15.9949C23.3311 16.5249 20.2861 17.4999 15.0011 17.4999C9.7161 17.4999 6.6611 16.5199 6.5011 16.0049C6.6711 15.4749 9.7161 14.4999 15.0011 14.4999C20.2861 14.4999 23.3411 15.4749 23.5011 15.9949ZM22.0011 23.9999V28.7299C19.7109 29.2886 17.3579 29.5474 15.0011 29.4999C9.6961 29.4999 6.6461 28.5199 6.5011 27.9999V23.2299C8.3511 24.2049 12.3611 24.4999 15.0011 24.4999C17.3632 24.53 19.7207 24.285 22.0261 23.7699C22.0101 23.8456 22.0017 23.9226 22.0011 23.9999ZM15.0011 23.4999C9.6961 23.4999 6.6461 22.5199 6.5011 21.9999V17.2299C8.3511 18.2049 12.3611 18.4999 15.0011 18.4999C17.6411 18.4999 21.6511 18.2049 23.5011 17.2299V21.9949C23.3461 22.5199 20.2961 23.4999 15.0011 23.4999ZM29.0011 28.9999C29.0011 29.1326 28.9484 29.2597 28.8547 29.3535C28.7609 29.4473 28.6337 29.4999 28.5011 29.4999H23.5011C23.3685 29.4999 23.2413 29.4473 23.1475 29.3535C23.0538 29.2597 23.0011 29.1326 23.0011 28.9999V23.9999C23.0011 23.8673 23.0538 23.7402 23.1475 23.6464C23.2413 23.5526 23.3685 23.4999 23.5011 23.4999H28.5011C28.6337 23.4999 28.7609 23.5526 28.8547 23.6464C28.9484 23.7402 29.0011 23.8673 29.0011 23.9999V28.9999Z" fill="#5072EB"/>
</svg>
