<svg width="30" height="31" viewBox="0 0 30 31" fill="none" xmlns="http://www.w3.org/2000/svg">
<path d="M28 30.0001C28.8284 30.0001 29.5 29.3285 29.5 28.5001C29.5 27.6716 28.8284 27.0001 28 27.0001C27.1716 27.0001 26.5 27.6716 26.5 28.5001C26.5 29.3285 27.1716 30.0001 28 30.0001Z" fill="#B8C7F7"/>
<path d="M23.885 6.09507C23.7477 5.51374 23.4815 4.9707 23.106 4.5061C22.7306 4.04149 22.2556 3.66719 21.716 3.41086C21.1765 3.15453 20.5862 3.02272 19.9889 3.02518C19.3916 3.02764 18.8024 3.16431 18.265 3.42507C17.441 2.47821 16.3771 1.77084 15.1851 1.37733C13.9931 0.983826 12.7172 0.918716 11.4914 1.18885C10.2655 1.45898 9.13513 2.05437 8.21898 2.91244C7.30282 3.7705 6.63477 4.85954 6.28503 6.06507C4.76322 6.23221 3.34939 6.93164 2.29314 8.03987C1.23688 9.14811 0.60613 10.5939 0.512232 12.122C0.418334 13.65 0.867328 15.1622 1.77995 16.3914C2.69257 17.6206 4.01013 18.4879 5.50003 18.8401C5.8283 18.9213 6.16281 18.9748 6.50003 19.0001H9.54003C9.18331 18.215 8.99917 17.3624 9.00003 16.5001V13.5001H8.00003V12.5001C8.00003 10.6436 8.73753 8.86308 10.0503 7.55033C11.363 6.23757 13.1435 5.50007 15 5.50007C16.8565 5.50007 18.637 6.23757 19.9498 7.55033C21.2625 8.86308 22 10.6436 22 12.5001V13.5001H21V16.5001C21.0009 17.3624 20.8168 18.215 20.46 19.0001H23.5C23.8373 18.9748 24.1718 18.9213 24.5 18.8401C25.9754 18.4924 27.2825 17.6392 28.1945 16.4284C29.1065 15.2177 29.5658 13.7258 29.4928 12.2118C29.4197 10.6978 28.8189 9.2571 27.7946 8.1398C26.7702 7.02249 25.387 6.29907 23.885 6.09507Z" fill="#B8C7F7"/>
<path d="M16 22.5001H15H14V25.0001L15 27.0001L16 25.0001V22.5001Z" fill="#B8C7F7"/>
<path d="M2 30.0001C2.82843 30.0001 3.5 29.3285 3.5 28.5001C3.5 27.6716 2.82843 27.0001 2 27.0001C1.17157 27.0001 0.5 27.6716 0.5 28.5001C0.5 29.3285 1.17157 30.0001 2 30.0001Z" fill="#B8C7F7"/>
<path d="M15 20C14.4696 20 13.9609 19.7893 13.5858 19.4142C13.2107 19.0391 13 18.5304 13 18H12C12 18.7956 12.3161 19.5587 12.8787 20.1213C13.4413 20.6839 14.2044 21 15 21C15.7956 21 16.5587 20.6839 17.1213 20.1213C17.6839 19.5587 18 18.7956 18 18H17C17 18.5304 16.7893 19.0391 16.4142 19.4142C16.0391 19.7893 15.5304 20 15 20Z" fill="#5072EB"/>
<path d="M12 14H13V16H12V14Z" fill="#5072EB"/>
<path d="M17 14H18V16H17V14Z" fill="#5072EB"/>
<path d="M27.9987 26.5001C27.5564 26.5015 27.1271 26.6495 26.7779 26.9209C26.4286 27.1923 26.1792 27.5719 26.0687 28.0001H24.9987V19.2201C26.5038 18.7738 27.8147 17.8337 28.7201 16.5512C29.6256 15.2688 30.0727 13.7188 29.9896 12.1512C29.9064 10.5835 29.2977 9.08958 28.2616 7.91017C27.2256 6.73075 25.8225 5.93461 24.2787 5.65009C23.9907 4.74152 23.4203 3.94854 22.6506 3.3865C21.8808 2.82446 20.9518 2.52269 19.9987 2.52509C19.4496 2.52352 18.9051 2.6253 18.3937 2.82509C17.5029 1.89778 16.3883 1.21553 15.1573 0.844078C13.9263 0.47263 12.6203 0.424508 11.3653 0.70435C10.1103 0.984192 8.94849 1.58256 7.99189 2.44181C7.03529 3.30105 6.31612 4.39219 5.90368 5.61009C4.33695 5.85628 2.90053 6.62798 1.83034 7.79843C0.76016 8.96888 0.11985 10.4685 0.0145859 12.051C-0.0906786 13.6334 0.345361 15.2046 1.25109 16.5065C2.15681 17.8084 3.47836 18.7636 4.99868 19.2151V28.0001H3.92868C3.80698 27.5288 3.51756 27.118 3.11468 26.8448C2.71179 26.5716 2.22309 26.4547 1.74018 26.516C1.25727 26.5774 0.813313 26.8127 0.491518 27.178C0.169724 27.5432 -0.0078125 28.0133 -0.0078125 28.5001C-0.0078125 28.9869 0.169724 29.457 0.491518 29.8222C0.813313 30.1875 1.25727 30.4228 1.74018 30.4842C2.22309 30.5455 2.71179 30.4286 3.11468 30.1554C3.51756 29.8822 3.80698 29.4714 3.92868 29.0001H5.49868C5.63129 29.0001 5.75846 28.9474 5.85223 28.8536C5.946 28.7599 5.99868 28.6327 5.99868 28.5001V19.4401C6.16368 19.4601 6.32868 19.4851 6.49868 19.5001H9.23868C9.7743 20.5229 10.5713 21.3855 11.5487 22.0001H11.4987C10.3058 22.0019 9.16226 22.4766 8.31874 23.3202C7.47523 24.1637 7.00053 25.3072 6.99868 26.5001V30.0001C6.99868 30.1327 7.05136 30.2599 7.14513 30.3536C7.23889 30.4474 7.36607 30.5001 7.49868 30.5001H22.4987C22.6313 30.5001 22.7585 30.4474 22.8522 30.3536C22.946 30.2599 22.9987 30.1327 22.9987 30.0001V26.5001C22.9968 25.3072 22.5221 24.1637 21.6786 23.3202C20.8351 22.4766 19.6916 22.0019 18.4987 22.0001H18.4487C19.426 21.3855 20.2231 20.5229 20.7587 19.5001H23.5387C23.6937 19.4851 23.8437 19.4651 23.9987 19.4401V28.5001C23.9987 28.6327 24.0514 28.7599 24.1451 28.8536C24.2389 28.9474 24.3661 29.0001 24.4987 29.0001H26.0687C26.1627 29.3615 26.3563 29.6893 26.6273 29.9463C26.8983 30.2032 27.2359 30.379 27.6018 30.4537C27.9677 30.5284 28.3472 30.499 28.6973 30.3689C29.0473 30.2387 29.3538 30.013 29.582 29.7174C29.8103 29.4218 29.951 29.0681 29.9883 28.6966C30.0256 28.325 29.958 27.9504 29.7931 27.6153C29.6282 27.2802 29.3726 26.9981 29.0554 26.801C28.7382 26.6038 28.3721 26.4996 27.9987 26.5001ZM1.99868 29.5001C1.8009 29.5001 1.60756 29.4414 1.44311 29.3316C1.27866 29.2217 1.15049 29.0655 1.0748 28.8828C0.999112 28.7 0.979309 28.499 1.01789 28.305C1.05648 28.111 1.15172 27.9328 1.29157 27.793C1.43142 27.6531 1.60961 27.5579 1.80359 27.5193C1.99757 27.4807 2.19864 27.5005 2.38136 27.5762C2.56409 27.6519 2.72027 27.7801 2.83015 27.9445C2.94003 28.109 2.99868 28.3023 2.99868 28.5001C2.99789 28.7651 2.89228 29.019 2.70491 29.2063C2.51755 29.3937 2.26365 29.4993 1.99868 29.5001ZM18.4987 23.0001C19.4266 23.0012 20.3162 23.3702 20.9724 24.0264C21.6285 24.6825 21.9976 25.5722 21.9987 26.5001V29.5001H19.9987V27.5001H18.9987V29.5001H10.9987V27.5001H9.99868V29.5001H7.99868V26.5001C7.99974 25.5722 8.36883 24.6825 9.02497 24.0264C9.68112 23.3702 10.5707 23.0012 11.4987 23.0001H13.4987V25.0001C13.4991 25.0784 13.518 25.1554 13.5537 25.2251L14.5537 27.2251C14.5956 27.307 14.6594 27.3757 14.7379 27.4237C14.8164 27.4717 14.9067 27.4971 14.9987 27.4971C15.0907 27.4971 15.1809 27.4717 15.2595 27.4237C15.338 27.3757 15.4017 27.307 15.4437 27.2251L16.4437 25.2251C16.4794 25.1554 16.4982 25.0784 16.4987 25.0001V23.0001H18.4987ZM14.4987 24.8801V23.0001H15.4987V24.8801L14.9987 25.8801L14.4987 24.8801ZM20.4987 16.5001C20.4987 17.9588 19.9192 19.3577 18.8878 20.3892C17.8563 21.4206 16.4574 22.0001 14.9987 22.0001C13.54 22.0001 12.141 21.4206 11.1096 20.3892C10.0781 19.3577 9.49868 17.9588 9.49868 16.5001V13.8601L16.9837 11.3651C17.2481 11.2765 17.532 11.2637 17.8034 11.3282C18.0747 11.3927 18.3225 11.5319 18.5187 11.7301L20.4987 13.7051V16.5001ZM19.2287 11.0201C18.901 10.6904 18.4875 10.459 18.0351 10.352C17.5826 10.2451 17.1093 10.267 16.6687 10.4151L8.91868 13.0001H8.49868V12.5001C8.49868 10.7762 9.1835 9.12288 10.4025 7.9039C11.6215 6.68491 13.2748 6.00009 14.9987 6.00009C16.7226 6.00009 18.3759 6.68491 19.5949 7.9039C20.8139 9.12288 21.4987 10.7762 21.4987 12.5001V13.0001H21.2037L19.2287 11.0201ZM23.4987 18.5001H21.1787C21.3901 17.8545 21.4981 17.1795 21.4987 16.5001V14.0001H21.9987C22.1313 14.0001 22.2585 13.9474 22.3522 13.8536C22.446 13.7599 22.4987 13.6327 22.4987 13.5001V12.5001C22.4987 10.511 21.7085 8.60331 20.302 7.19679C18.8955 5.79027 16.9878 5.00009 14.9987 5.00009C13.0096 5.00009 11.1019 5.79027 9.69538 7.19679C8.28886 8.60331 7.49868 10.511 7.49868 12.5001V13.5001C7.49868 13.6327 7.55136 13.7599 7.64513 13.8536C7.73889 13.9474 7.86607 14.0001 7.99868 14.0001H8.49868V16.5001C8.49926 17.1795 8.60726 17.8545 8.81868 18.5001H6.53868C5.04854 18.3869 3.65435 17.7214 2.62929 16.634C1.60422 15.5465 1.02215 14.1155 0.99712 12.6212C0.972091 11.127 1.50591 9.67729 2.49398 8.55612C3.48205 7.43494 4.85316 6.72311 6.33868 6.56009C6.43694 6.55035 6.53001 6.51129 6.6058 6.44798C6.68159 6.38468 6.73659 6.30005 6.76368 6.20509C7.0884 5.08553 7.7088 4.07415 8.55964 3.27732C9.41048 2.48049 10.4603 1.92765 11.5987 1.67694C12.7372 1.42623 13.9221 1.48692 15.029 1.85261C16.1358 2.21831 17.1237 2.87551 17.8887 3.75509C17.9606 3.83816 18.058 3.89502 18.1657 3.91673C18.2734 3.93845 18.3852 3.92381 18.4837 3.87509C18.9555 3.64466 19.4736 3.52496 19.9987 3.52509C20.7851 3.52372 21.549 3.78821 22.1662 4.27562C22.7834 4.76303 23.2177 5.44474 23.3987 6.21009C23.4215 6.30876 23.4739 6.39808 23.549 6.46602C23.6241 6.53396 23.7182 6.57726 23.8187 6.59009C25.2811 6.79066 26.6181 7.52389 27.5733 8.64924C28.5285 9.77459 29.0349 11.2129 28.9952 12.6885C28.9556 14.1641 28.3727 15.5731 27.3585 16.6455C26.3442 17.718 24.9698 18.3783 23.4987 18.5001ZM27.9987 29.5001C27.8009 29.5001 27.6076 29.4414 27.4431 29.3316C27.2787 29.2217 27.1505 29.0655 27.0748 28.8828C26.9991 28.7 26.9793 28.499 27.0179 28.305C27.0565 28.111 27.1517 27.9328 27.2916 27.793C27.4314 27.6531 27.6096 27.5579 27.8036 27.5193C27.9976 27.4807 28.1986 27.5005 28.3814 27.5762C28.5641 27.6519 28.7203 27.7801 28.8302 27.9445C28.94 28.109 28.9987 28.3023 28.9987 28.5001C28.9979 28.7651 28.8923 29.019 28.7049 29.2063C28.5175 29.3937 28.2637 29.4993 27.9987 29.5001Z" fill="#5072EB"/>
</svg>
