<svg width="31" height="31" viewBox="0 0 31 31" fill="none" xmlns="http://www.w3.org/2000/svg">
<path d="M24.1354 6.06493C23.9973 5.48414 23.7306 4.94177 23.3548 4.47785C22.9791 4.01392 22.504 3.64028 21.9646 3.3845C21.4252 3.12871 20.8352 2.9973 20.2383 2.99997C19.6413 3.00264 19.0525 3.13932 18.5154 3.39993C17.6914 2.45306 16.6275 1.74569 15.4355 1.35219C14.2435 0.958679 12.9676 0.893569 11.7418 1.1637C10.5159 1.43383 9.38552 2.02923 8.46937 2.88729C7.55322 3.74536 6.88516 4.8344 6.53543 6.03993C4.92668 6.21708 3.44198 6.98835 2.37205 8.20272C1.30212 9.41709 0.724 10.9871 0.750898 12.6054C0.777796 14.2236 1.40777 15.7736 2.51747 16.9517C3.62717 18.1298 5.13668 18.8513 6.75043 18.9749V18.9999H7.25043V15.9999H21.3504L17.7504 17.4999V21.9999H9.25043V23.9999H18.2004C18.4478 24.5454 18.7916 25.0417 19.2154 25.4649L23.2504 29.4999L23.7504 29.9999L28.2854 25.4649C28.75 25.0009 29.1184 24.4498 29.3698 23.8433C29.6212 23.2367 29.7505 22.5865 29.7504 21.9299V17.4999L28.1104 16.8149C28.8922 15.9351 29.4203 14.8593 29.6381 13.7026C29.856 12.5459 29.7554 11.3517 29.3472 10.2477C28.9389 9.14372 28.2384 8.17141 27.3205 7.43468C26.4025 6.69795 25.3016 6.2245 24.1354 6.06493ZM21.2504 13.9999H7.25043V7.99993H23.2504V13.9999H21.2504ZM28.2504 18.4999V21.9299C28.2516 22.3897 28.1616 22.8452 27.9857 23.27C27.8097 23.6948 27.5513 24.0806 27.2254 24.4049L23.7504 27.8799L20.2754 24.4049C19.9495 24.0806 19.6911 23.6948 19.5152 23.27C19.3393 22.8452 19.2493 22.3897 19.2504 21.9299V18.4999L23.7504 16.6249L28.2504 18.4999Z" fill="#B8C7F7"/>
<path d="M14.25 11.9999C14.8023 11.9999 15.25 11.5522 15.25 10.9999C15.25 10.4477 14.8023 9.99994 14.25 9.99994C13.6977 9.99994 13.25 10.4477 13.25 10.9999C13.25 11.5522 13.6977 11.9999 14.25 11.9999Z" fill="#B8C7F7"/>
<path d="M14.25 19.9999C14.8023 19.9999 15.25 19.5522 15.25 18.9999C15.25 18.4477 14.8023 17.9999 14.25 17.9999C13.6977 17.9999 13.25 18.4477 13.25 18.9999C13.25 19.5522 13.6977 19.9999 14.25 19.9999Z" fill="#B8C7F7"/>
<path d="M14.25 27.9999C14.8023 27.9999 15.25 27.5522 15.25 26.9999C15.25 26.4477 14.8023 25.9999 14.25 25.9999C13.6977 25.9999 13.25 26.4477 13.25 26.9999C13.25 27.5522 13.6977 27.9999 14.25 27.9999Z" fill="#B8C7F7"/>
<path d="M10.25 11.9999C10.8023 11.9999 11.25 11.5522 11.25 10.9999C11.25 10.4477 10.8023 9.99994 10.25 9.99994C9.69772 9.99994 9.25 10.4477 9.25 10.9999C9.25 11.5522 9.69772 11.9999 10.25 11.9999Z" fill="#B8C7F7"/>
<path d="M10.25 19.9999C10.8023 19.9999 11.25 19.5522 11.25 18.9999C11.25 18.4477 10.8023 17.9999 10.25 17.9999C9.69772 17.9999 9.25 18.4477 9.25 18.9999C9.25 19.5522 9.69772 19.9999 10.25 19.9999Z" fill="#B8C7F7"/>
<path d="M10.25 27.9999C10.8023 27.9999 11.25 27.5522 11.25 26.9999C11.25 26.4477 10.8023 25.9999 10.25 25.9999C9.69772 25.9999 9.25 26.4477 9.25 26.9999C9.25 27.5522 9.69772 27.9999 10.25 27.9999Z" fill="#B8C7F7"/>
<path d="M22.6914 21.2324L21.9844 21.9394L23.3984 23.3534C23.4921 23.4471 23.6193 23.4998 23.7519 23.4998C23.8845 23.4998 24.0116 23.4471 24.1054 23.3534L26.9339 20.5249L26.2269 19.8179L23.7519 22.2929L22.6914 21.2324Z" fill="#5072EB"/>
<path d="M29.9394 17.0399L28.9144 16.6099C29.6084 15.6544 30.0491 14.5387 30.1954 13.3668C30.3417 12.1949 30.1888 11.0051 29.7509 9.9083C29.3131 8.81149 28.6046 7.84343 27.6916 7.09443C26.7785 6.34543 25.6906 5.83988 24.5294 5.62495C24.2414 4.71638 23.671 3.92339 22.9013 3.36135C22.1315 2.79931 21.2025 2.49754 20.2494 2.49995C19.7003 2.49838 19.1558 2.60015 18.6444 2.79995C17.7536 1.87263 16.639 1.19038 15.408 0.818931C14.1769 0.447483 12.871 0.399361 11.616 0.679204C10.361 0.959046 9.19918 1.55742 8.24257 2.41666C7.28597 3.2759 6.5668 4.36705 6.15436 5.58495C4.47729 5.8546 2.95549 6.72487 1.87259 8.03354C0.78969 9.34221 0.219586 11 0.268534 12.6979C0.317483 14.3958 0.982145 16.018 2.13864 17.2621C3.29513 18.5062 4.86454 19.2874 6.55436 19.4599C6.61605 19.4861 6.68235 19.4997 6.74936 19.4999V21.9999C6.74936 22.1326 6.80204 22.2597 6.89581 22.3535C6.98958 22.4473 7.11675 22.4999 7.24936 22.4999H8.74936V23.4999H7.24936C7.11675 23.4999 6.98958 23.5526 6.89581 23.6464C6.80204 23.7402 6.74936 23.8673 6.74936 23.9999V29.9999C6.74936 30.1326 6.80204 30.2597 6.89581 30.3535C6.98958 30.4473 7.11675 30.4999 7.24936 30.4999H23.2494C23.3377 30.4965 23.4237 30.4707 23.4994 30.4249C23.5746 30.4716 23.6609 30.4975 23.7494 30.4999C23.882 30.4994 24.0093 30.4474 24.1044 30.3549L28.6394 25.8199C29.1518 25.3103 29.5579 24.7041 29.8343 24.0363C30.1107 23.3686 30.2517 22.6526 30.2494 21.9299V17.4999C30.2497 17.401 30.2204 17.3043 30.1651 17.2223C30.1098 17.1402 30.0312 17.0767 29.9394 17.0399ZM6.74936 15.9999V18.4699C5.26354 18.3473 3.87671 17.6755 2.85947 16.5856C1.84222 15.4957 1.26754 14.0659 1.24755 12.5751C1.22757 11.0844 1.76372 9.63969 2.75138 8.5229C3.73904 7.40611 5.10736 6.69736 6.58936 6.53495C6.68763 6.5252 6.78069 6.48614 6.85648 6.42284C6.93227 6.35953 6.98728 6.27491 7.01436 6.17995C7.33909 5.06038 7.95949 4.04901 8.81033 3.25217C9.66117 2.45534 10.711 1.9025 11.8494 1.65179C12.9879 1.40108 14.1728 1.46177 15.2797 1.82747C16.3865 2.19317 17.3744 2.85036 18.1394 3.72995C18.2112 3.81302 18.3087 3.86987 18.4164 3.89159C18.5241 3.91331 18.6359 3.89866 18.7344 3.84995C19.2062 3.61952 19.7243 3.49981 20.2494 3.49995C21.0351 3.49849 21.7983 3.76233 22.4154 4.24873C23.0325 4.73513 23.4673 5.41561 23.6494 6.17995C23.6724 6.27762 23.7243 6.36609 23.7983 6.43387C23.8723 6.50164 23.965 6.54557 24.0644 6.55995C25.4984 6.76121 26.8119 7.47247 27.7642 8.5634C28.7164 9.65433 29.2437 11.0519 29.2494 12.4999C29.2497 13.8475 28.7932 15.1553 27.9544 16.2099L23.9394 14.5399C23.8797 14.5128 23.8149 14.4987 23.7494 14.4987C23.6838 14.4987 23.619 14.5128 23.5594 14.5399L21.7494 15.2899V14.4999H23.2494C23.382 14.4999 23.5091 14.4473 23.6029 14.3535C23.6967 14.2597 23.7494 14.1326 23.7494 13.9999V7.99995C23.7494 7.86734 23.6967 7.74016 23.6029 7.64639C23.5091 7.55262 23.382 7.49995 23.2494 7.49995H7.24936C7.11675 7.49995 6.98958 7.55262 6.89581 7.64639C6.80204 7.74016 6.74936 7.86734 6.74936 7.99995V13.9999C6.74936 14.1326 6.80204 14.2597 6.89581 14.3535C6.98958 14.4473 7.11675 14.4999 7.24936 14.4999H8.74936V15.4999H7.24936C7.11675 15.4999 6.98958 15.5526 6.89581 15.6464C6.80204 15.7402 6.74936 15.8673 6.74936 15.9999ZM7.74936 13.4999V8.49995H22.7494V13.4999H7.74936ZM20.7494 14.4999V15.4999H9.74936V14.4999H20.7494ZM7.74936 21.4999V16.4999H18.8494L17.5594 17.0399C17.4675 17.0767 17.3889 17.1402 17.3336 17.2223C17.2783 17.3043 17.249 17.401 17.2494 17.4999V21.4999H7.74936ZM17.4794 23.4999H9.74936V22.4999H17.2794C17.3132 22.839 17.3802 23.174 17.4794 23.4999ZM7.74936 29.4999V24.4999H17.8844C18.142 24.986 18.4706 25.4309 18.8594 25.8199L22.5444 29.4999H7.74936ZM29.2494 21.9299C29.2504 22.5209 29.1343 23.1063 28.9077 23.6521C28.6812 24.1979 28.3486 24.6934 27.9294 25.1099L23.7494 29.2949L19.5694 25.1099C19.1501 24.6934 18.8175 24.1979 18.591 23.6521C18.3644 23.1063 18.2483 22.5209 18.2494 21.9299V17.8349L23.7494 15.5399L29.2494 17.8349V21.9299Z" fill="#5072EB"/>
<path d="M28.44 18.04L23.94 16.165C23.8804 16.1378 23.8156 16.1237 23.75 16.1237C23.6845 16.1237 23.6197 16.1378 23.56 16.165L19.06 18.04C18.9682 18.0767 18.8895 18.1403 18.8343 18.2223C18.779 18.3043 18.7496 18.401 18.75 18.5V21.93C18.7487 22.4548 18.8514 22.9747 19.0522 23.4596C19.2531 23.9445 19.548 24.3847 19.92 24.755L23.395 28.23C23.4411 28.2774 23.4963 28.3152 23.5573 28.3409C23.6183 28.3667 23.6838 28.38 23.75 28.38C23.8162 28.38 23.8817 28.3667 23.9427 28.3409C24.0037 28.3152 24.0589 28.2774 24.105 28.23L27.58 24.755C27.952 24.3847 28.247 23.9445 28.4478 23.4596C28.6486 22.9747 28.7513 22.4548 28.75 21.93V18.5C28.7504 18.401 28.721 18.3043 28.6658 18.2223C28.6105 18.1403 28.5318 18.0767 28.44 18.04ZM27.75 21.93C27.7516 22.3241 27.6747 22.7146 27.5236 23.0786C27.3725 23.4426 27.1503 23.7728 26.87 24.05L23.75 27.17L20.63 24.05C20.3497 23.7728 20.1276 23.4426 19.9765 23.0786C19.8254 22.7146 19.7484 22.3241 19.75 21.93V18.835L23.75 17.165L27.75 18.835V21.93Z" fill="#5072EB"/>
<path d="M10.25 9.49994C9.95333 9.49994 9.66332 9.58791 9.41665 9.75273C9.16997 9.91756 8.97771 10.1518 8.86418 10.4259C8.75065 10.7 8.72094 11.0016 8.77882 11.2926C8.8367 11.5835 8.97956 11.8508 9.18934 12.0606C9.39912 12.2704 9.66639 12.4132 9.95736 12.4711C10.2483 12.529 10.5499 12.4993 10.824 12.3858C11.0981 12.2722 11.3324 12.08 11.4972 11.8333C11.662 11.5866 11.75 11.2966 11.75 10.9999C11.75 10.6021 11.592 10.2206 11.3107 9.93928C11.0294 9.65797 10.6478 9.49994 10.25 9.49994ZM10.25 11.4999C10.1511 11.4999 10.0544 11.4706 9.97222 11.4157C9.88999 11.3607 9.8259 11.2826 9.78806 11.1913C9.75022 11.0999 9.74032 10.9994 9.75961 10.9024C9.7789 10.8054 9.82652 10.7163 9.89645 10.6464C9.96637 10.5765 10.0555 10.5288 10.1525 10.5095C10.2494 10.4903 10.35 10.5002 10.4413 10.538C10.5327 10.5758 10.6108 10.6399 10.6657 10.7222C10.7207 10.8044 10.75 10.901 10.75 10.9999C10.75 11.1325 10.6973 11.2597 10.6036 11.3535C10.5098 11.4473 10.3826 11.4999 10.25 11.4999Z" fill="#5072EB"/>
<path d="M14.25 9.49994C13.9533 9.49994 13.6633 9.58791 13.4166 9.75273C13.17 9.91756 12.9777 10.1518 12.8642 10.4259C12.7506 10.7 12.7209 11.0016 12.7788 11.2926C12.8367 11.5835 12.9796 11.8508 13.1893 12.0606C13.3991 12.2704 13.6664 12.4132 13.9574 12.4711C14.2483 12.529 14.5499 12.4993 14.824 12.3858C15.0981 12.2722 15.3324 12.08 15.4972 11.8333C15.662 11.5866 15.75 11.2966 15.75 10.9999C15.75 10.6021 15.592 10.2206 15.3107 9.93928C15.0294 9.65797 14.6478 9.49994 14.25 9.49994ZM14.25 11.4999C14.1511 11.4999 14.0544 11.4706 13.9722 11.4157C13.89 11.3607 13.8259 11.2826 13.7881 11.1913C13.7502 11.0999 13.7403 10.9994 13.7596 10.9024C13.7789 10.8054 13.8265 10.7163 13.8964 10.6464C13.9664 10.5765 14.0555 10.5288 14.1525 10.5095C14.2494 10.4903 14.35 10.5002 14.4413 10.538C14.5327 10.5758 14.6108 10.6399 14.6657 10.7222C14.7207 10.8044 14.75 10.901 14.75 10.9999C14.75 11.1325 14.6973 11.2597 14.6036 11.3535C14.5098 11.4473 14.3826 11.4999 14.25 11.4999Z" fill="#5072EB"/>
<path d="M17.25 9.49994H18.25V10.4999H17.25V9.49994Z" fill="#5072EB"/>
<path d="M17.25 11.4999H18.25V12.4999H17.25V11.4999Z" fill="#5072EB"/>
<path d="M20.25 9.49994H21.25V10.4999H20.25V9.49994Z" fill="#5072EB"/>
<path d="M20.25 11.4999H21.25V12.4999H20.25V11.4999Z" fill="#5072EB"/>
<path d="M10.25 17.4999C9.95333 17.4999 9.66332 17.5879 9.41665 17.7527C9.16997 17.9176 8.97771 18.1518 8.86418 18.4259C8.75065 18.7 8.72094 19.0016 8.77882 19.2926C8.8367 19.5835 8.97956 19.8508 9.18934 20.0606C9.39912 20.2704 9.66639 20.4132 9.95736 20.4711C10.2483 20.529 10.5499 20.4993 10.824 20.3858C11.0981 20.2722 11.3324 20.08 11.4972 19.8333C11.662 19.5866 11.75 19.2966 11.75 18.9999C11.75 18.6021 11.592 18.2206 11.3107 17.9393C11.0294 17.658 10.6478 17.4999 10.25 17.4999ZM10.25 19.4999C10.1511 19.4999 10.0544 19.4706 9.97222 19.4157C9.88999 19.3607 9.8259 19.2826 9.78806 19.1913C9.75022 19.0999 9.74032 18.9994 9.75961 18.9024C9.7789 18.8054 9.82652 18.7163 9.89645 18.6464C9.96637 18.5765 10.0555 18.5288 10.1525 18.5095C10.2494 18.4903 10.35 18.5002 10.4413 18.538C10.5327 18.5758 10.6108 18.6399 10.6657 18.7222C10.7207 18.8044 10.75 18.901 10.75 18.9999C10.75 19.1325 10.6973 19.2597 10.6036 19.3535C10.5098 19.4473 10.3826 19.4999 10.25 19.4999Z" fill="#5072EB"/>
<path d="M14.25 17.4999C13.9533 17.4999 13.6633 17.5879 13.4166 17.7527C13.17 17.9176 12.9777 18.1518 12.8642 18.4259C12.7506 18.7 12.7209 19.0016 12.7788 19.2926C12.8367 19.5835 12.9796 19.8508 13.1893 20.0606C13.3991 20.2704 13.6664 20.4132 13.9574 20.4711C14.2483 20.529 14.5499 20.4993 14.824 20.3858C15.0981 20.2722 15.3324 20.08 15.4972 19.8333C15.662 19.5866 15.75 19.2966 15.75 18.9999C15.75 18.6021 15.592 18.2206 15.3107 17.9393C15.0294 17.658 14.6478 17.4999 14.25 17.4999ZM14.25 19.4999C14.1511 19.4999 14.0544 19.4706 13.9722 19.4157C13.89 19.3607 13.8259 19.2826 13.7881 19.1913C13.7502 19.0999 13.7403 18.9994 13.7596 18.9024C13.7789 18.8054 13.8265 18.7163 13.8964 18.6464C13.9664 18.5765 14.0555 18.5288 14.1525 18.5095C14.2494 18.4903 14.35 18.5002 14.4413 18.538C14.5327 18.5758 14.6108 18.6399 14.6657 18.7222C14.7207 18.8044 14.75 18.901 14.75 18.9999C14.75 19.1325 14.6973 19.2597 14.6036 19.3535C14.5098 19.4473 14.3826 19.4999 14.25 19.4999Z" fill="#5072EB"/>
<path d="M10.25 25.4999C9.95333 25.4999 9.66332 25.5879 9.41665 25.7527C9.16997 25.9176 8.97771 26.1518 8.86418 26.4259C8.75065 26.7 8.72094 27.0016 8.77882 27.2926C8.8367 27.5835 8.97956 27.8508 9.18934 28.0606C9.39912 28.2704 9.66639 28.4132 9.95736 28.4711C10.2483 28.529 10.5499 28.4993 10.824 28.3858C11.0981 28.2722 11.3324 28.08 11.4972 27.8333C11.662 27.5866 11.75 27.2966 11.75 26.9999C11.75 26.6021 11.592 26.2206 11.3107 25.9393C11.0294 25.658 10.6478 25.4999 10.25 25.4999ZM10.25 27.4999C10.1511 27.4999 10.0544 27.4706 9.97222 27.4157C9.88999 27.3607 9.8259 27.2826 9.78806 27.1913C9.75022 27.0999 9.74032 26.9994 9.75961 26.9024C9.7789 26.8054 9.82652 26.7163 9.89645 26.6464C9.96637 26.5765 10.0555 26.5288 10.1525 26.5095C10.2494 26.4903 10.35 26.5002 10.4413 26.538C10.5327 26.5758 10.6108 26.6399 10.6657 26.7222C10.7207 26.8044 10.75 26.901 10.75 26.9999C10.75 27.1325 10.6973 27.2597 10.6036 27.3535C10.5098 27.4473 10.3826 27.4999 10.25 27.4999Z" fill="#5072EB"/>
<path d="M14.25 25.4999C13.9533 25.4999 13.6633 25.5879 13.4166 25.7527C13.17 25.9176 12.9777 26.1518 12.8642 26.4259C12.7506 26.7 12.7209 27.0016 12.7788 27.2926C12.8367 27.5835 12.9796 27.8508 13.1893 28.0606C13.3991 28.2704 13.6664 28.4132 13.9574 28.4711C14.2483 28.529 14.5499 28.4993 14.824 28.3858C15.0981 28.2722 15.3324 28.08 15.4972 27.8333C15.662 27.5866 15.75 27.2966 15.75 26.9999C15.75 26.6021 15.592 26.2206 15.3107 25.9393C15.0294 25.658 14.6478 25.4999 14.25 25.4999ZM14.25 27.4999C14.1511 27.4999 14.0544 27.4706 13.9722 27.4157C13.89 27.3607 13.8259 27.2826 13.7881 27.1913C13.7502 27.0999 13.7403 26.9994 13.7596 26.9024C13.7789 26.8054 13.8265 26.7163 13.8964 26.6464C13.9664 26.5765 14.0555 26.5288 14.1525 26.5095C14.2494 26.4903 14.35 26.5002 14.4413 26.538C14.5327 26.5758 14.6108 26.6399 14.6657 26.7222C14.7207 26.8044 14.75 26.901 14.75 26.9999C14.75 27.1325 14.6973 27.2597 14.6036 27.3535C14.5098 27.4473 14.3826 27.4999 14.25 27.4999Z" fill="#5072EB"/>
<path d="M17.25 25.4999H18.25V26.4999H17.25V25.4999Z" fill="#5072EB"/>
<path d="M17.25 27.4999H18.25V28.4999H17.25V27.4999Z" fill="#5072EB"/>
<path d="M0.25 23.4999H1.25V24.4999H0.25V23.4999Z" fill="#5072EB"/>
<path d="M2.25 23.4999H5.25V24.4999H2.25V23.4999Z" fill="#5072EB"/>
<path d="M0.25 26.4999H1.25V27.4999H0.25V26.4999Z" fill="#5072EB"/>
<path d="M2.25 26.4999H5.25V27.4999H2.25V26.4999Z" fill="#5072EB"/>
<path d="M0.25 29.4999H1.25V30.4999H0.25V29.4999Z" fill="#5072EB"/>
<path d="M2.25 29.4999H5.25V30.4999H2.25V29.4999Z" fill="#5072EB"/>
</svg>
