<svg width="30" height="31" viewBox="0 0 30 31" fill="none" xmlns="http://www.w3.org/2000/svg">
<path d="M22.4414 21.2324L21.7344 21.9394L23.1484 23.3534C23.2421 23.4472 23.3693 23.4998 23.5019 23.4998C23.6345 23.4998 23.7616 23.4472 23.8554 23.3534L26.6839 20.5249L25.9769 19.8179L23.5019 22.2929L22.4414 21.2324Z" fill="#5072EB"/>
<path d="M29.6894 17.04L28.6644 16.61C29.3584 15.6545 29.7991 14.5388 29.9454 13.3669C30.0917 12.195 29.9388 11.0052 29.5009 9.90836C29.0631 8.81155 28.3546 7.84349 27.4416 7.09449C26.5285 6.34549 25.4406 5.83994 24.2794 5.62501C23.9914 4.71644 23.421 3.92345 22.6513 3.36141C21.8815 2.79937 20.9525 2.49761 19.9994 2.50001C19.4503 2.49844 18.9058 2.60021 18.3944 2.80001C17.5036 1.87269 16.389 1.19044 15.158 0.818992C13.9269 0.447544 12.621 0.399422 11.366 0.679265C10.111 0.959107 8.94918 1.55748 7.99257 2.41672C7.03597 3.27596 6.3168 4.36711 5.90436 5.58501C4.22729 5.85467 2.70549 6.72493 1.62259 8.0336C0.53969 9.34227 -0.0304143 11 0.0185344 12.698C0.067483 14.3959 0.732145 16.018 1.88864 17.2622C3.04513 18.5063 4.61454 19.2874 6.30436 19.46C6.36605 19.4862 6.43235 19.4998 6.49936 19.5V22C6.49936 22.1326 6.55204 22.2598 6.64581 22.3536C6.73958 22.4473 6.86675 22.5 6.99936 22.5H8.49936V23.5H6.99936C6.86675 23.5 6.73958 23.5527 6.64581 23.6465C6.55204 23.7402 6.49936 23.8674 6.49936 24V30C6.49936 30.1326 6.55204 30.2598 6.64581 30.3536C6.73958 30.4473 6.86675 30.5 6.99936 30.5H22.9994C23.0877 30.4965 23.1737 30.4707 23.2494 30.425C23.3246 30.4717 23.4109 30.4976 23.4994 30.5C23.632 30.4995 23.7593 30.4475 23.8544 30.355L28.3894 25.82C28.9018 25.3104 29.3079 24.7041 29.5843 24.0364C29.8607 23.3686 30.0017 22.6527 29.9994 21.93V17.5C29.9997 17.4011 29.9704 17.3044 29.9151 17.2223C29.8598 17.1403 29.7812 17.0768 29.6894 17.04ZM6.49936 16V18.47C5.01354 18.3474 3.62671 17.6756 2.60947 16.5857C1.59222 15.4957 1.01754 14.0659 0.997555 12.5752C0.97757 11.0845 1.51372 9.63975 2.50138 8.52296C3.48904 7.40617 4.85736 6.69742 6.33936 6.53501C6.43763 6.52526 6.53069 6.4862 6.60648 6.4229C6.68227 6.35959 6.73728 6.27497 6.76436 6.18001C7.08909 5.06044 7.70949 4.04907 8.56033 3.25224C9.41117 2.4554 10.461 1.90256 11.5994 1.65186C12.7379 1.40115 13.9228 1.46183 15.0297 1.82753C16.1365 2.19323 17.1244 2.85042 17.8894 3.73001C17.9612 3.81308 18.0587 3.86993 18.1664 3.89165C18.2741 3.91337 18.3859 3.89872 18.4844 3.85001C18.9562 3.61958 19.4743 3.49987 19.9994 3.50001C20.7851 3.49855 21.5483 3.76239 22.1654 4.24879C22.7825 4.73519 23.2173 5.41567 23.3994 6.18001C23.4224 6.27768 23.4743 6.36616 23.5483 6.43393C23.6223 6.5017 23.715 6.54563 23.8144 6.56001C25.2484 6.76127 26.5619 7.47253 27.5142 8.56346C28.4664 9.65439 28.9937 11.0519 28.9994 12.5C28.9997 13.8476 28.5432 15.1554 27.7044 16.21L23.6894 14.54C23.6297 14.5128 23.5649 14.4987 23.4994 14.4987C23.4338 14.4987 23.369 14.5128 23.3094 14.54L21.4994 15.29V14.5H22.9994C23.132 14.5 23.2591 14.4473 23.3529 14.3536C23.4467 14.2598 23.4994 14.1326 23.4994 14V8.00001C23.4994 7.8674 23.4467 7.74022 23.3529 7.64645C23.2591 7.55269 23.132 7.50001 22.9994 7.50001H6.99936C6.86675 7.50001 6.73958 7.55269 6.64581 7.64645C6.55204 7.74022 6.49936 7.8674 6.49936 8.00001V14C6.49936 14.1326 6.55204 14.2598 6.64581 14.3536C6.73958 14.4473 6.86675 14.5 6.99936 14.5H8.49936V15.5H6.99936C6.86675 15.5 6.73958 15.5527 6.64581 15.6465C6.55204 15.7402 6.49936 15.8674 6.49936 16ZM7.49936 13.5V8.50001H22.4994V13.5H7.49936ZM20.4994 14.5V15.5H9.49936V14.5H20.4994ZM7.49936 21.5V16.5H18.5994L17.3094 17.04C17.2175 17.0768 17.1389 17.1403 17.0836 17.2223C17.0283 17.3044 16.999 17.4011 16.9994 17.5V21.5H7.49936ZM17.2294 23.5H9.49936V22.5H17.0294C17.0632 22.8391 17.1302 23.174 17.2294 23.5ZM7.49936 29.5V24.5H17.6344C17.892 24.986 18.2206 25.4309 18.6094 25.82L22.2944 29.5H7.49936ZM28.9994 21.93C29.0004 22.521 28.8843 23.1063 28.6577 23.6522C28.4312 24.198 28.0986 24.6935 27.6794 25.11L23.4994 29.295L19.3194 25.11C18.9001 24.6935 18.5675 24.198 18.341 23.6522C18.1144 23.1063 17.9983 22.521 17.9994 21.93V17.835L23.4994 15.54L28.9994 17.835V21.93Z" fill="#5072EB"/>
<path d="M28.19 18.04L23.69 16.165C23.6304 16.1378 23.5656 16.1237 23.5 16.1237C23.4345 16.1237 23.3697 16.1378 23.31 16.165L18.81 18.04C18.7182 18.0768 18.6395 18.1403 18.5843 18.2223C18.529 18.3044 18.4996 18.4011 18.5 18.5V21.93C18.4987 22.4549 18.6014 22.9747 18.8022 23.4596C19.0031 23.9445 19.298 24.3848 19.67 24.755L23.145 28.23C23.1911 28.2775 23.2463 28.3152 23.3073 28.341C23.3683 28.3668 23.4338 28.3801 23.5 28.3801C23.5662 28.3801 23.6317 28.3668 23.6927 28.341C23.7537 28.3152 23.8089 28.2775 23.855 28.23L27.33 24.755C27.702 24.3848 27.997 23.9445 28.1978 23.4596C28.3986 22.9747 28.5013 22.4549 28.5 21.93V18.5C28.5004 18.4011 28.471 18.3044 28.4158 18.2223C28.3605 18.1403 28.2818 18.0768 28.19 18.04ZM27.5 21.93C27.5016 22.3241 27.4247 22.7146 27.2736 23.0787C27.1225 23.4427 26.9003 23.7729 26.62 24.05L23.5 27.17L20.38 24.05C20.0997 23.7729 19.8776 23.4427 19.7265 23.0787C19.5754 22.7146 19.4984 22.3241 19.5 21.93V18.835L23.5 17.165L27.5 18.835V21.93Z" fill="#5072EB"/>
<path d="M10 9.5C9.70333 9.5 9.41332 9.58797 9.16665 9.7528C8.91997 9.91762 8.72771 10.1519 8.61418 10.426C8.50065 10.7001 8.47094 11.0017 8.52882 11.2926C8.5867 11.5836 8.72956 11.8509 8.93934 12.0607C9.14912 12.2704 9.41639 12.4133 9.70736 12.4712C9.99834 12.5291 10.2999 12.4994 10.574 12.3858C10.8481 12.2723 11.0824 12.08 11.2472 11.8334C11.412 11.5867 11.5 11.2967 11.5 11C11.5 10.6022 11.342 10.2206 11.0607 9.93934C10.7794 9.65804 10.3978 9.5 10 9.5ZM10 11.5C9.90111 11.5 9.80444 11.4707 9.72222 11.4157C9.63999 11.3608 9.5759 11.2827 9.53806 11.1913C9.50022 11.1 9.49032 10.9994 9.50961 10.9025C9.5289 10.8055 9.57652 10.7164 9.64645 10.6464C9.71637 10.5765 9.80546 10.5289 9.90246 10.5096C9.99945 10.4903 10.1 10.5002 10.1913 10.5381C10.2827 10.5759 10.3608 10.64 10.4157 10.7222C10.4707 10.8044 10.5 10.9011 10.5 11C10.5 11.1326 10.4473 11.2598 10.3536 11.3536C10.2598 11.4473 10.1326 11.5 10 11.5Z" fill="#5072EB"/>
<path d="M14 9.5C13.7033 9.5 13.4133 9.58797 13.1666 9.7528C12.92 9.91762 12.7277 10.1519 12.6142 10.426C12.5006 10.7001 12.4709 11.0017 12.5288 11.2926C12.5867 11.5836 12.7296 11.8509 12.9393 12.0607C13.1491 12.2704 13.4164 12.4133 13.7074 12.4712C13.9983 12.5291 14.2999 12.4994 14.574 12.3858C14.8481 12.2723 15.0824 12.08 15.2472 11.8334C15.412 11.5867 15.5 11.2967 15.5 11C15.5 10.6022 15.342 10.2206 15.0607 9.93934C14.7794 9.65804 14.3978 9.5 14 9.5ZM14 11.5C13.9011 11.5 13.8044 11.4707 13.7222 11.4157C13.64 11.3608 13.5759 11.2827 13.5381 11.1913C13.5002 11.1 13.4903 10.9994 13.5096 10.9025C13.5289 10.8055 13.5765 10.7164 13.6464 10.6464C13.7164 10.5765 13.8055 10.5289 13.9025 10.5096C13.9994 10.4903 14.1 10.5002 14.1913 10.5381C14.2827 10.5759 14.3608 10.64 14.4157 10.7222C14.4707 10.8044 14.5 10.9011 14.5 11C14.5 11.1326 14.4473 11.2598 14.3536 11.3536C14.2598 11.4473 14.1326 11.5 14 11.5Z" fill="#5072EB"/>
<path d="M17 9.5H18V10.5H17V9.5Z" fill="#5072EB"/>
<path d="M17 11.5H18V12.5H17V11.5Z" fill="#5072EB"/>
<path d="M20 9.5H21V10.5H20V9.5Z" fill="#5072EB"/>
<path d="M20 11.5H21V12.5H20V11.5Z" fill="#5072EB"/>
<path d="M10 17.5C9.70333 17.5 9.41332 17.588 9.16665 17.7528C8.91997 17.9176 8.72771 18.1519 8.61418 18.426C8.50065 18.7001 8.47094 19.0017 8.52882 19.2926C8.5867 19.5836 8.72956 19.8509 8.93934 20.0607C9.14912 20.2704 9.41639 20.4133 9.70736 20.4712C9.99834 20.5291 10.2999 20.4993 10.574 20.3858C10.8481 20.2723 11.0824 20.08 11.2472 19.8334C11.412 19.5867 11.5 19.2967 11.5 19C11.5 18.6022 11.342 18.2206 11.0607 17.9393C10.7794 17.658 10.3978 17.5 10 17.5ZM10 19.5C9.90111 19.5 9.80444 19.4707 9.72222 19.4157C9.63999 19.3608 9.5759 19.2827 9.53806 19.1913C9.50022 19.1 9.49032 18.9994 9.50961 18.9025C9.5289 18.8055 9.57652 18.7164 9.64645 18.6464C9.71637 18.5765 9.80546 18.5289 9.90246 18.5096C9.99945 18.4903 10.1 18.5002 10.1913 18.5381C10.2827 18.5759 10.3608 18.64 10.4157 18.7222C10.4707 18.8044 10.5 18.9011 10.5 19C10.5 19.1326 10.4473 19.2598 10.3536 19.3536C10.2598 19.4473 10.1326 19.5 10 19.5Z" fill="#5072EB"/>
<path d="M14 17.5C13.7033 17.5 13.4133 17.588 13.1666 17.7528C12.92 17.9176 12.7277 18.1519 12.6142 18.426C12.5006 18.7001 12.4709 19.0017 12.5288 19.2926C12.5867 19.5836 12.7296 19.8509 12.9393 20.0607C13.1491 20.2704 13.4164 20.4133 13.7074 20.4712C13.9983 20.5291 14.2999 20.4993 14.574 20.3858C14.8481 20.2723 15.0824 20.08 15.2472 19.8334C15.412 19.5867 15.5 19.2967 15.5 19C15.5 18.6022 15.342 18.2206 15.0607 17.9393C14.7794 17.658 14.3978 17.5 14 17.5ZM14 19.5C13.9011 19.5 13.8044 19.4707 13.7222 19.4157C13.64 19.3608 13.5759 19.2827 13.5381 19.1913C13.5002 19.1 13.4903 18.9994 13.5096 18.9025C13.5289 18.8055 13.5765 18.7164 13.6464 18.6464C13.7164 18.5765 13.8055 18.5289 13.9025 18.5096C13.9994 18.4903 14.1 18.5002 14.1913 18.5381C14.2827 18.5759 14.3608 18.64 14.4157 18.7222C14.4707 18.8044 14.5 18.9011 14.5 19C14.5 19.1326 14.4473 19.2598 14.3536 19.3536C14.2598 19.4473 14.1326 19.5 14 19.5Z" fill="#5072EB"/>
<path d="M10 25.5C9.70333 25.5 9.41332 25.588 9.16665 25.7528C8.91997 25.9176 8.72771 26.1519 8.61418 26.426C8.50065 26.7001 8.47094 27.0017 8.52882 27.2926C8.5867 27.5836 8.72956 27.8509 8.93934 28.0607C9.14912 28.2704 9.41639 28.4133 9.70736 28.4712C9.99834 28.5291 10.2999 28.4993 10.574 28.3858C10.8481 28.2723 11.0824 28.08 11.2472 27.8334C11.412 27.5867 11.5 27.2967 11.5 27C11.5 26.6022 11.342 26.2206 11.0607 25.9393C10.7794 25.658 10.3978 25.5 10 25.5ZM10 27.5C9.90111 27.5 9.80444 27.4707 9.72222 27.4157C9.63999 27.3608 9.5759 27.2827 9.53806 27.1913C9.50022 27.1 9.49032 26.9994 9.50961 26.9025C9.5289 26.8055 9.57652 26.7164 9.64645 26.6464C9.71637 26.5765 9.80546 26.5289 9.90246 26.5096C9.99945 26.4903 10.1 26.5002 10.1913 26.5381C10.2827 26.5759 10.3608 26.64 10.4157 26.7222C10.4707 26.8044 10.5 26.9011 10.5 27C10.5 27.1326 10.4473 27.2598 10.3536 27.3536C10.2598 27.4473 10.1326 27.5 10 27.5Z" fill="#5072EB"/>
<path d="M14 25.5C13.7033 25.5 13.4133 25.588 13.1666 25.7528C12.92 25.9176 12.7277 26.1519 12.6142 26.426C12.5006 26.7001 12.4709 27.0017 12.5288 27.2926C12.5867 27.5836 12.7296 27.8509 12.9393 28.0607C13.1491 28.2704 13.4164 28.4133 13.7074 28.4712C13.9983 28.5291 14.2999 28.4993 14.574 28.3858C14.8481 28.2723 15.0824 28.08 15.2472 27.8334C15.412 27.5867 15.5 27.2967 15.5 27C15.5 26.6022 15.342 26.2206 15.0607 25.9393C14.7794 25.658 14.3978 25.5 14 25.5ZM14 27.5C13.9011 27.5 13.8044 27.4707 13.7222 27.4157C13.64 27.3608 13.5759 27.2827 13.5381 27.1913C13.5002 27.1 13.4903 26.9994 13.5096 26.9025C13.5289 26.8055 13.5765 26.7164 13.6464 26.6464C13.7164 26.5765 13.8055 26.5289 13.9025 26.5096C13.9994 26.4903 14.1 26.5002 14.1913 26.5381C14.2827 26.5759 14.3608 26.64 14.4157 26.7222C14.4707 26.8044 14.5 26.9011 14.5 27C14.5 27.1326 14.4473 27.2598 14.3536 27.3536C14.2598 27.4473 14.1326 27.5 14 27.5Z" fill="#5072EB"/>
<path d="M17 25.5H18V26.5H17V25.5Z" fill="#5072EB"/>
<path d="M17 27.5H18V28.5H17V27.5Z" fill="#5072EB"/>
<path d="M0 23.5H1V24.5H0V23.5Z" fill="#5072EB"/>
<path d="M2 23.5H5V24.5H2V23.5Z" fill="#5072EB"/>
<path d="M0 26.5H1V27.5H0V26.5Z" fill="#5072EB"/>
<path d="M2 26.5H5V27.5H2V26.5Z" fill="#5072EB"/>
<path d="M0 29.5H1V30.5H0V29.5Z" fill="#5072EB"/>
<path d="M2 29.5H5V30.5H2V29.5Z" fill="#5072EB"/>
</svg>
