<svg width="16" height="16" viewBox="0 0 16 16" fill="none" xmlns="http://www.w3.org/2000/svg">
	<path fill-rule="evenodd" clip-rule="evenodd" d="M2.85213 1.55428C3.1864 1.22002 3.63976 1.03223 4.11249 1.03223H9.29767C9.4266 1.03223 9.55024 1.08344 9.6414 1.17461L13.5303 5.06349C13.6215 5.15466 13.6727 5.2783 13.6727 5.40723V13.185C13.6727 13.6577 13.4849 14.1111 13.1506 14.4454C12.8163 14.7796 12.363 14.9674 11.8903 14.9674H4.11249C3.63976 14.9674 3.1864 14.7796 2.85213 14.4454C2.51787 14.1111 2.33008 13.6577 2.33008 13.185V2.81463C2.33008 2.34191 2.51787 1.88855 2.85213 1.55428ZM4.11249 2.00445C3.89761 2.00445 3.69154 2.08981 3.5396 2.24175C3.38766 2.39369 3.3023 2.59976 3.3023 2.81463V13.185C3.3023 13.3999 3.38766 13.606 3.5396 13.7579C3.69154 13.9098 3.89761 13.9952 4.11249 13.9952H11.8903C12.1051 13.9952 12.3112 13.9098 12.4632 13.7579C12.6151 13.606 12.7004 13.3999 12.7004 13.185V5.60858L9.09632 2.00445H4.11249Z" fill="#5072EB" />
	<path fill-rule="evenodd" clip-rule="evenodd" d="M9.29666 1.03223C9.56513 1.03223 9.78277 1.24987 9.78277 1.51834V4.92112H13.1855C13.454 4.92112 13.6717 5.13875 13.6717 5.40723C13.6717 5.6757 13.454 5.89334 13.1855 5.89334H9.29666C9.02819 5.89334 8.81055 5.6757 8.81055 5.40723V1.51834C8.81055 1.24987 9.02819 1.03223 9.29666 1.03223Z" fill="#5072EB" />
	<path fill-rule="evenodd" clip-rule="evenodd" d="M4.92188 8.64822C4.92188 8.37975 5.13951 8.16211 5.40799 8.16211H10.5932C10.8616 8.16211 11.0793 8.37975 11.0793 8.64822C11.0793 8.91669 10.8616 9.13433 10.5932 9.13433H5.40799C5.13951 9.13433 4.92188 8.91669 4.92188 8.64822Z" fill="#5072EB" />
	<path fill-rule="evenodd" clip-rule="evenodd" d="M4.92188 11.2405C4.92188 10.972 5.13951 10.7544 5.40799 10.7544H10.5932C10.8616 10.7544 11.0793 10.972 11.0793 11.2405C11.0793 11.509 10.8616 11.7266 10.5932 11.7266H5.40799C5.13951 11.7266 4.92188 11.509 4.92188 11.2405Z" fill="#5072EB" />
	<path fill-rule="evenodd" clip-rule="evenodd" d="M4.92188 6.05545C4.92188 5.78698 5.13951 5.56934 5.40799 5.56934H6.70428C6.97275 5.56934 7.19039 5.78698 7.19039 6.05545C7.19039 6.32392 6.97275 6.54156 6.70428 6.54156H5.40799C5.13951 6.54156 4.92188 6.32392 4.92188 6.05545Z" fill="#5072EB" />
</svg>
