<svg width="16" height="16" viewBox="0 0 16 16" fill="none" xmlns="http://www.w3.org/2000/svg">
<g clip-path="url(#clip0_10814_15999)">
<path d="M15.1343 13.0412C15.1343 13.4232 14.984 13.7895 14.7166 14.0597C14.4492 14.3298 14.0865 14.4815 13.7083 14.4815H2.30093C1.92275 14.4815 1.56006 14.3298 1.29264 14.0597C1.02523 13.7895 0.875 13.4232 0.875 13.0412V2.95888C0.875 2.57688 1.02523 2.21053 1.29264 1.94042C1.56006 1.6703 1.92275 1.51855 2.30093 1.51855H5.86574L7.29167 3.67905H13.7083C14.0865 3.67905 14.4492 3.8308 14.7166 4.10091C14.984 4.37103 15.1343 4.73738 15.1343 5.11938V13.0412Z" stroke="currentColor" stroke-linecap="round" stroke-linejoin="round"/>
</g>
<defs>
<clipPath id="clip0_10814_15999">
<rect width="15.5556" height="15.5556" fill="white" transform="translate(0.226562 0.222656)"/>
</clipPath>
</defs>
</svg>
