<svg width="14" height="24" viewBox="0 0 14 24" fill="none" xmlns="http://www.w3.org/2000/svg">
<path d="M9.33333 10.8H8.16667V6H10.5C10.8094 6 11.1062 6.12643 11.325 6.35147C11.5437 6.57652 11.6667 6.88174 11.6667 7.2C11.6667 7.51826 11.7896 7.82348 12.0084 8.04853C12.2272 8.27357 12.5239 8.4 12.8333 8.4C13.1428 8.4 13.4395 8.27357 13.6583 8.04853C13.8771 7.82348 14 7.51826 14 7.2C14 6.24522 13.6313 5.32955 12.9749 4.65442C12.3185 3.97929 11.4283 3.6 10.5 3.6H8.16667V1.2C8.16667 0.88174 8.04375 0.576515 7.82496 0.351472C7.60616 0.126428 7.30942 0 7 0C6.69058 0 6.39383 0.126428 6.17504 0.351472C5.95625 0.576515 5.83333 0.88174 5.83333 1.2V3.6H4.66667C3.42899 3.6 2.242 4.10571 1.36683 5.00589C0.491665 5.90606 0 7.12696 0 8.4C0 9.67304 0.491665 10.8939 1.36683 11.7941C2.242 12.6943 3.42899 13.2 4.66667 13.2H5.83333V18H3.5C3.19058 18 2.89383 17.8736 2.67504 17.6485C2.45625 17.4235 2.33333 17.1183 2.33333 16.8C2.33333 16.4817 2.21042 16.1765 1.99162 15.9515C1.77283 15.7264 1.47609 15.6 1.16667 15.6C0.857247 15.6 0.560501 15.7264 0.341709 15.9515C0.122917 16.1765 0 16.4817 0 16.8C0 17.7548 0.368749 18.6705 1.02513 19.3456C1.6815 20.0207 2.57174 20.4 3.5 20.4H5.83333V22.8C5.83333 23.1183 5.95625 23.4235 6.17504 23.6485C6.39383 23.8736 6.69058 24 7 24C7.30942 24 7.60616 23.8736 7.82496 23.6485C8.04375 23.4235 8.16667 23.1183 8.16667 22.8V20.4H9.33333C10.571 20.4 11.758 19.8943 12.6332 18.9941C13.5083 18.0939 14 16.873 14 15.6C14 14.327 13.5083 13.1061 12.6332 12.2059C11.758 11.3057 10.571 10.8 9.33333 10.8ZM5.83333 10.8H4.66667C4.04783 10.8 3.45434 10.5471 3.01675 10.0971C2.57917 9.64697 2.33333 9.03652 2.33333 8.4C2.33333 7.76348 2.57917 7.15303 3.01675 6.70294C3.45434 6.25286 4.04783 6 4.66667 6H5.83333V10.8ZM9.33333 18H8.16667V13.2H9.33333C9.95217 13.2 10.5457 13.4529 10.9832 13.9029C11.4208 14.353 11.6667 14.9635 11.6667 15.6C11.6667 16.2365 11.4208 16.847 10.9832 17.2971C10.5457 17.7471 9.95217 18 9.33333 18Z" fill="currentColor"/>
</svg>
