<svg width="24" height="24" viewBox="0 0 24 24" fill="none" xmlns="http://www.w3.org/2000/svg">
	<path d="M23.2336 5.08382C23.2336 3.93295 22.2504 3 21.0374 3H2.9462C1.73327 3 0.75 3.93295 0.75 5.08382V18.6664C0.75 19.8173 1.73327 20.7502 2.9462 20.7502H21.0374C22.2504 20.7502 23.2336 19.8173 23.2336 18.6664V5.08382ZM2.95797 4.66527H21.0547C21.2969 4.66527 21.4919 4.84855 21.4919 5.07838V5.09646L12.3165 13.8033C12.2045 13.9094 12.0744 13.9253 12.0064 13.9253C11.9385 13.9253 11.8079 13.9094 11.6959 13.8033L2.51838 5.09527V5.07838C2.51838 4.84855 2.71577 4.66527 2.95797 4.66527ZM21.0547 19.085H2.95797C2.71577 19.085 2.51838 18.8947 2.51838 18.6649V7.45284L10.4538 14.9821C10.8686 15.3756 11.4202 15.5924 12.0068 15.5924C12.5935 15.5923 13.144 15.3756 13.5588 14.982L21.4919 7.45401V18.6649C21.4919 18.8947 21.2969 19.085 21.0547 19.085Z" fill="#47506D" />
</svg>
