<svg width="29" height="29" viewBox="0 0 29 29" fill="none" xmlns="http://www.w3.org/2000/svg">
<g clip-path="url(#clip0_7400_18985)">
<path d="M27.4062 13.1875H26.4807C26.2605 10.7858 25.3204 8.48727 23.7777 6.62079C22.2189 4.73495 20.1144 3.36639 17.7812 2.70429V1.59375C17.7812 0.989672 17.2916 0.5 16.6875 0.5H12.3125C11.7084 0.5 11.2188 0.989672 11.2188 1.59375V2.70429C8.88556 3.36639 6.78108 4.73489 5.22232 6.62079C3.67959 8.48727 2.73951 10.7858 2.51928 13.1875H1.59375C0.989672 13.1875 0.5 13.6772 0.5 14.2812C0.5 14.8853 0.989672 15.375 1.59375 15.375H2.51895C2.6712 17.0536 3.1723 18.6741 3.99634 20.1445L2.89898 21.2418C2.69384 21.447 2.57862 21.7251 2.57862 22.0152C2.57862 22.3053 2.69384 22.5835 2.89898 22.7886L5.99259 25.8821C6.41976 26.3093 7.11227 26.3092 7.53938 25.8821L8.63969 24.7819C9.45945 25.2428 10.3222 25.6026 11.2187 25.8574V27.4062C11.2187 28.0103 11.7084 28.5 12.3124 28.5H16.6874C17.2915 28.5 17.7812 28.0103 17.7812 27.4062V25.8573C18.6814 25.6023 19.545 25.2436 20.363 24.7847L21.4605 25.8821C21.8877 26.3093 22.5802 26.3092 23.0072 25.8821L26.1009 22.7886C26.306 22.5835 26.4213 22.3053 26.4213 22.0152C26.4213 21.7251 26.306 21.4469 26.1009 21.2418L25.0001 20.141C25.8257 18.6693 26.3279 17.0501 26.4807 15.3749H27.4062C28.0103 15.3749 28.5 14.8853 28.5 14.2812C28.5 13.6771 28.0103 13.1875 27.4062 13.1875ZM11.2188 4.99788V9.90625C11.2188 10.5103 11.7084 11 12.3125 11C12.9166 11 13.4062 10.5103 13.4062 9.90625V2.6875H15.5938V9.90625C15.5938 10.5103 16.0834 11 16.6875 11C17.2916 11 17.7812 10.5103 17.7812 9.90625V4.99788C21.3134 6.24711 23.8624 9.44452 24.2825 13.1875H4.7175C5.13755 9.44452 7.68659 6.24711 11.2188 4.99788ZM19.8588 15.375C19.3507 17.8681 17.141 19.75 14.5 19.75C11.859 19.75 9.64933 17.8681 9.14123 15.375H19.8588ZM22.8451 21.0795L23.7808 22.0152L22.234 23.562L21.3015 22.6296C20.9337 22.2617 20.3575 22.2039 19.9238 22.4914C18.8674 23.1919 17.705 23.6748 16.4691 23.9266C15.9597 24.0304 15.5938 24.4784 15.5938 24.9983V26.3125H13.4062V24.999C13.4062 24.4791 13.0403 24.0311 12.5309 23.9272C11.3034 23.6771 10.1422 23.1929 9.07948 22.4882C8.64581 22.2006 8.06957 22.2584 7.70163 22.6263L6.76604 23.5619L5.2192 22.0152L6.1513 21.0831C6.51923 20.7151 6.57704 20.1389 6.28944 19.7052C5.42357 18.3994 4.88862 16.92 4.71684 15.375H6.92223C7.45461 19.0804 10.6497 21.9375 14.5 21.9375C18.3503 21.9375 21.5454 19.0804 22.0778 15.375H24.2827C24.1102 16.9158 23.5742 18.3939 22.707 19.7016C22.4194 20.1353 22.4772 20.7115 22.8451 21.0795Z" fill="currentColor"/>
</g>
<defs>
<clipPath id="clip0_7400_18985">
<rect width="28" height="28" fill="white" transform="translate(0.5 0.5)"/>
</clipPath>
</defs>
</svg>
