<svg width="14" height="13" viewBox="0 0 14 13" fill="none" xmlns="http://www.w3.org/2000/svg">
<path d="M0.789364 7.80903C0.734817 6.38756 0.848651 5.0788 1.49135 3.8331C2.26448 2.33711 3.79178 1.54803 5.62501 1.10477C7.90884 0.552611 10.2638 0.437976 12.6354 0.472367C13.0291 0.478099 13.2164 0.606113 13.2141 0.925182C13.207 1.7582 13.2449 2.59313 13.1975 3.42614C13.1548 4.18847 12.5192 4.60497 11.5563 4.64701C9.67329 4.72725 7.78078 4.73872 5.93806 5.13803C3.97676 5.56409 2.2218 6.23471 1.05498 7.65428C1.02415 7.6944 0.955374 7.71542 0.789364 7.80903Z" fill="#5072EB"/>
<path d="M5.74251 1.59077C7.96737 1.05287 10.2746 0.938185 12.6282 0.972314C12.6624 0.972814 12.6907 0.974534 12.7137 0.976856C12.7118 1.26522 12.7147 1.54423 12.7176 1.81839C12.7231 2.35218 12.7285 2.86757 12.6983 3.39772L12.6983 3.39819C12.6854 3.62825 12.5922 3.78414 12.43 3.90076C12.2506 4.02977 11.9569 4.12904 11.5345 4.14748C11.2566 4.15932 10.9765 4.16966 10.6948 4.18006C9.09569 4.23908 7.44428 4.30003 5.83217 4.64937L5.83192 4.64942C4.14169 5.0166 2.52149 5.57718 1.28938 6.68775C1.33416 5.74707 1.5111 4.88539 1.93561 4.06251C2.60984 2.75804 3.96304 2.02103 5.74251 1.59077ZM5.74251 1.59077L5.62503 1.10486L5.74251 1.59077Z" stroke="#5072EB" stroke-opacity="0.6"/>
<path d="M0.777344 12.9113C0.779726 11.0058 0.82975 9.12485 2.79958 7.70659C3.93575 6.88887 5.34106 6.57538 6.78211 6.32043C8.64714 5.98806 10.5455 5.98617 12.4415 5.94273C12.7607 5.93518 12.9012 6.05038 12.9012 6.29021C12.8988 7.14948 12.9441 8.01252 12.8798 8.8699C12.8274 9.57809 12.1795 9.95579 11.1291 10.0049C9.6666 10.071 8.19697 10.0559 6.74639 10.2863C5.08858 10.5488 3.5213 10.9642 2.166 11.8027C1.64674 12.1238 1.31804 12.5789 0.777344 12.9113Z" fill="#6ED5D6"/>
</svg>
