<svg width="36" height="37" viewBox="0 0 36 37" fill="none" xmlns="http://www.w3.org/2000/svg">
<g clip-path="url(#clip0_8928_23642)">
<path d="M29.367 0.5H6.63299C2.96969 0.5 0 3.46969 0 7.13299V29.867C0 33.5303 2.96969 36.5 6.63299 36.5H29.367C33.0303 36.5 36 33.5303 36 29.867V7.13299C36 3.46969 33.0303 0.5 29.367 0.5Z" fill="#004CBA"/>
<path d="M6.91628 16.8356L7.31222 17.8474L8.38757 17.9012C8.43354 17.9028 8.47792 17.9184 8.51471 17.946C8.5515 17.9736 8.57893 18.0119 8.59332 18.0555C8.60771 18.0992 8.60835 18.1463 8.59516 18.1904C8.58196 18.2344 8.55557 18.2734 8.51954 18.302L7.6837 18.9912L7.95743 20.0274C7.96807 20.0709 7.96554 20.1165 7.95015 20.1584C7.93475 20.2004 7.90718 20.2368 7.87098 20.2631C7.83478 20.2893 7.7916 20.3041 7.74692 20.3057C7.70224 20.3073 7.6581 20.2955 7.62015 20.2718L6.7061 19.6999L5.79695 20.2718C5.759 20.2955 5.71486 20.3073 5.67018 20.3057C5.6255 20.3041 5.58232 20.2893 5.54612 20.2631C5.50992 20.2368 5.48235 20.2004 5.46695 20.1584C5.45156 20.1165 5.44902 20.0709 5.45967 20.0274L5.7334 18.9912L4.89756 18.2971C4.86153 18.2685 4.83514 18.2295 4.82194 18.1855C4.80875 18.1414 4.80939 18.0944 4.82378 18.0507C4.83816 18.007 4.8656 17.9688 4.90239 17.9411C4.93918 17.9135 4.98356 17.8979 5.02953 17.8963L6.10489 17.8425L6.49592 16.8307C6.51261 16.7882 6.54181 16.7519 6.57965 16.7264C6.61749 16.701 6.66218 16.6876 6.70779 16.6881C6.7534 16.6887 6.79776 16.7031 6.835 16.7294C6.87224 16.7557 6.90059 16.7928 6.91628 16.8356Z" fill="#FFE600"/>
<path d="M8.43117 22.6474L8.82222 23.6641L9.89756 23.7179C9.94238 23.7206 9.98537 23.7366 10.021 23.7639C10.0566 23.7913 10.0832 23.8286 10.0974 23.8712C10.1116 23.9138 10.1127 23.9597 10.1006 24.0029C10.0885 24.0461 10.0638 24.0848 10.0295 24.1138L9.19369 24.8128L9.46742 25.8441C9.4794 25.8879 9.47788 25.9343 9.46303 25.9771C9.44818 26.02 9.4207 26.0574 9.38421 26.0844C9.34772 26.1113 9.30392 26.1266 9.25858 26.1283C9.21324 26.1299 9.16846 26.1177 9.13015 26.0934L8.22099 25.5215L7.31183 26.0934C7.27312 26.1167 7.2284 26.1281 7.18326 26.1261C7.13812 26.1242 7.09457 26.1089 7.05805 26.0823C7.02153 26.0557 6.99366 26.0189 6.97794 25.9766C6.96222 25.9342 6.95935 25.8881 6.96967 25.8441L7.24339 24.8128L6.40755 24.1138C6.37331 24.0848 6.34854 24.0461 6.33644 24.0029C6.32434 23.9597 6.32547 23.9138 6.33966 23.8712C6.35386 23.8286 6.38048 23.7913 6.4161 23.7639C6.45172 23.7366 6.49471 23.7206 6.53952 23.7179L7.61488 23.6641L8.01081 22.6474C8.02701 22.6048 8.05578 22.5681 8.09331 22.5422C8.13085 22.5163 8.17539 22.5024 8.22099 22.5024C8.26659 22.5024 8.31112 22.5163 8.34866 22.5422C8.3862 22.5681 8.41497 22.6048 8.43117 22.6474Z" fill="#FFE600"/>
<path d="M8.01644 11.0678L7.62052 12.0796L6.54515 12.1334C6.49919 12.135 6.45482 12.1507 6.41803 12.1783C6.38124 12.2059 6.35379 12.2441 6.3394 12.2878C6.32502 12.3315 6.32438 12.3785 6.33757 12.4226C6.35076 12.4667 6.37716 12.5056 6.41318 12.5342L7.24902 13.2283L6.9753 14.2597C6.96498 14.3037 6.96786 14.3497 6.98358 14.3921C6.9993 14.4344 7.02716 14.4712 7.06368 14.4978C7.1002 14.5244 7.14376 14.5397 7.18889 14.5417C7.23403 14.5436 7.27876 14.5323 7.31746 14.509L8.22662 13.9371L9.13578 14.509C9.1741 14.5333 9.21887 14.5454 9.26421 14.5438C9.30956 14.5422 9.35336 14.5269 9.38984 14.4999C9.42633 14.4729 9.45381 14.4356 9.46867 14.3927C9.48352 14.3498 9.48504 14.3034 9.47305 14.2597L9.19933 13.2283L10.0352 12.5342C10.0712 12.5056 10.0976 12.4667 10.1108 12.4226C10.124 12.3785 10.1233 12.3315 10.1089 12.2878C10.0946 12.2441 10.0671 12.2059 10.0303 12.1783C9.99354 12.1507 9.94916 12.135 9.9032 12.1334L8.82785 12.0796L8.4368 11.0678C8.4206 11.0252 8.39183 10.9885 8.3543 10.9626C8.31676 10.9367 8.27222 10.9229 8.22662 10.9229C8.18102 10.9229 8.13649 10.9367 8.09895 10.9626C8.06141 10.9885 8.03264 11.0252 8.01644 11.0678Z" fill="#FFE600"/>
<path d="M18.2111 5.54435L18.6022 6.56105L19.6775 6.61482C19.7228 6.61659 19.7664 6.63198 19.8027 6.65895C19.8391 6.68593 19.8664 6.72325 19.8812 6.76603C19.896 6.8088 19.8975 6.85505 19.8856 6.89871C19.8737 6.94238 19.8489 6.98141 19.8144 7.01074L18.9786 7.70484L19.2474 8.74109C19.2594 8.78485 19.2579 8.83122 19.243 8.87409C19.2282 8.91696 19.2007 8.95434 19.1642 8.98131C19.1277 9.00828 19.0839 9.02358 19.0386 9.0252C18.9932 9.02682 18.9484 9.01468 18.9101 8.99038L18.001 8.41359L17.0918 8.99038C17.0528 9.00888 17.0093 9.01576 16.9665 9.01021C16.9237 9.00466 16.8834 8.9869 16.8504 8.95907C16.8175 8.93124 16.7932 8.8945 16.7805 8.85325C16.7678 8.812 16.7673 8.76798 16.779 8.72643L17.0478 7.69018L16.212 6.99608C16.1775 6.96675 16.1527 6.92771 16.1408 6.88405C16.1288 6.84039 16.1304 6.79414 16.1452 6.75137C16.1599 6.70859 16.1873 6.67127 16.2236 6.64429C16.26 6.61731 16.3036 6.60193 16.3488 6.60015L17.4242 6.54639L17.8152 5.52968C17.8358 5.49461 17.8654 5.46577 17.9011 5.44621C17.9367 5.42665 17.977 5.41711 18.0176 5.41861C18.0582 5.42012 18.0976 5.4326 18.1317 5.45474C18.1658 5.47688 18.1933 5.50785 18.2111 5.54435Z" fill="#FFE600"/>
<path d="M18.2121 28.1269L18.6032 29.1387L19.6785 29.1925C19.7238 29.1943 19.7674 29.2096 19.8037 29.2366C19.8401 29.2636 19.8674 29.3009 19.8822 29.3437C19.897 29.3865 19.8985 29.4327 19.8866 29.4764C19.8747 29.52 19.8499 29.5591 19.8154 29.5884L18.9796 30.2874L19.2484 31.3188C19.2604 31.3625 19.2589 31.4089 19.244 31.4518C19.2292 31.4946 19.2017 31.532 19.1652 31.559C19.1287 31.586 19.0849 31.6013 19.0396 31.6029C18.9942 31.6045 18.9494 31.5924 18.9111 31.5681L18.002 30.9962L17.0928 31.5681C17.0545 31.5924 17.0097 31.6045 16.9644 31.6029C16.919 31.6013 16.8752 31.586 16.8387 31.559C16.8023 31.532 16.7748 31.4946 16.7599 31.4518C16.7451 31.4089 16.7435 31.3625 16.7555 31.3188L17.0244 30.2874L16.1885 29.5884C16.1541 29.5591 16.1292 29.52 16.1173 29.4764C16.1054 29.4327 16.1069 29.3865 16.1217 29.3437C16.1365 29.3009 16.1639 29.2636 16.2002 29.2366C16.2365 29.2096 16.2802 29.1943 16.3254 29.1925L17.4007 29.1387L17.7918 28.1269C17.808 28.0843 17.8368 28.0476 17.8743 28.0217C17.9118 27.9958 17.9564 27.9819 18.002 27.9819C18.0476 27.9819 18.0921 27.9958 18.1296 28.0217C18.1672 28.0476 18.1959 28.0843 18.2121 28.1269Z" fill="#FFE600"/>
<path d="M12.7075 7.0793L13.1035 8.096L14.1788 8.14977C14.2236 8.15246 14.2666 8.16849 14.3022 8.19582C14.3379 8.22315 14.3645 8.26051 14.3787 8.3031C14.3929 8.3457 14.394 8.39157 14.3819 8.43481C14.3698 8.47804 14.345 8.51666 14.3108 8.5457L13.4749 9.24468L13.7487 10.276C13.759 10.32 13.7561 10.3661 13.7404 10.4084C13.7247 10.4508 13.6968 10.4876 13.6603 10.5142C13.6238 10.5408 13.5802 10.556 13.5351 10.558C13.4899 10.56 13.4452 10.5486 13.4065 10.5253L12.4973 9.95344L11.5882 10.5253C11.5499 10.5496 11.5051 10.5618 11.4598 10.5601C11.4144 10.5585 11.3706 10.5432 11.3341 10.5163C11.2976 10.4893 11.2702 10.4519 11.2553 10.409C11.2404 10.3662 11.2389 10.3198 11.2509 10.276L11.5246 9.24468L10.6888 8.5457C10.6545 8.51666 10.6298 8.47804 10.6177 8.43481C10.6056 8.39157 10.6067 8.3457 10.6209 8.3031C10.6351 8.26051 10.6617 8.22315 10.6973 8.19582C10.733 8.16849 10.776 8.15246 10.8208 8.14977L11.8961 8.096L12.2872 7.0793C12.3034 7.03668 12.3321 6.99997 12.3697 6.97408C12.4072 6.94819 12.4517 6.93433 12.4973 6.93433C12.5429 6.93433 12.5875 6.94819 12.625 6.97408C12.6626 6.99997 12.6913 7.03668 12.7075 7.0793Z" fill="#FFE600"/>
<path d="M23.9992 26.6359L24.3902 27.6477L25.4655 27.7015C25.5115 27.7031 25.5559 27.7188 25.5927 27.7464C25.6295 27.774 25.6569 27.8122 25.6713 27.8559C25.6857 27.8996 25.6863 27.9467 25.6731 27.9907C25.6599 28.0348 25.6335 28.0737 25.5975 28.1023L24.7666 28.7964L25.0354 29.8327C25.0461 29.8761 25.0435 29.9217 25.0281 29.9637C25.0127 30.0056 24.9852 30.0421 24.949 30.0683C24.9128 30.0945 24.8696 30.1094 24.8249 30.111C24.7802 30.1125 24.7361 30.1007 24.6981 30.0771L23.789 29.5052L22.8798 30.0771C22.8418 30.1024 22.7971 30.1156 22.7515 30.1148C22.7058 30.1141 22.6615 30.0995 22.6244 30.073C22.5872 30.0464 22.5591 30.0093 22.5436 29.9663C22.5281 29.9234 22.526 29.8768 22.5377 29.8327L22.8114 28.7964L21.9755 28.1023C21.9392 28.0735 21.9127 28.0341 21.8997 27.9896C21.8867 27.945 21.8877 27.8976 21.9027 27.8537C21.9177 27.8098 21.9459 27.7716 21.9834 27.7444C22.021 27.7171 22.066 27.7022 22.1124 27.7015L23.1829 27.6477L23.5788 26.6359C23.595 26.5933 23.6238 26.5566 23.6613 26.5307C23.6988 26.5048 23.7434 26.491 23.789 26.491C23.8346 26.491 23.8791 26.5048 23.9166 26.5307C23.9542 26.5566 23.983 26.5933 23.9992 26.6359Z" fill="#FFE600"/>
<path d="M29.4846 16.8357L29.8757 17.8475L30.951 17.9012C30.997 17.9028 31.0414 17.9185 31.0782 17.9461C31.115 17.9737 31.1424 18.0119 31.1568 18.0556C31.1712 18.0993 31.1718 18.1464 31.1586 18.1904C31.1454 18.2345 31.119 18.2734 31.083 18.302L30.2618 18.9913L30.5356 20.0275C30.5462 20.0709 30.5437 20.1165 30.5283 20.1585C30.5129 20.2005 30.4853 20.2369 30.4491 20.2631C30.4129 20.2894 30.3697 20.3042 30.325 20.3058C30.2804 20.3073 30.2362 20.2955 30.1983 20.2719L29.2891 19.7L28.3751 20.2719C28.3371 20.2955 28.293 20.3073 28.2483 20.3058C28.2036 20.3042 28.1604 20.2894 28.1242 20.2631C28.088 20.2369 28.0605 20.2005 28.0451 20.1585C28.0297 20.1165 28.0271 20.0709 28.0378 20.0275L28.3115 18.9913L27.4757 18.2972C27.4397 18.2686 27.4133 18.2296 27.4001 18.1855C27.3869 18.1415 27.3875 18.0944 27.4019 18.0507C27.4163 18.0071 27.4437 17.9688 27.4805 17.9412C27.5173 17.9136 27.5617 17.898 27.6077 17.8964L28.683 17.8426L29.0789 16.8308C29.0977 16.7927 29.1268 16.7607 29.163 16.7385C29.1992 16.7163 29.2409 16.7048 29.2833 16.7053C29.3258 16.7058 29.3672 16.7184 29.4028 16.7414C29.4384 16.7645 29.4668 16.7971 29.4846 16.8357Z" fill="#FFE600"/>
<path d="M11.9959 26.6359L11.6049 27.6477L10.5295 27.7015C10.4836 27.7031 10.4392 27.7188 10.4024 27.7464C10.3656 27.774 10.3382 27.8122 10.3238 27.8559C10.3094 27.8996 10.3088 27.9467 10.3219 27.9907C10.3351 28.0348 10.3615 28.0737 10.3976 28.1023L11.2285 28.7964L10.9597 29.8327C10.949 29.8761 10.9516 29.9217 10.967 29.9637C10.9823 30.0056 11.0099 30.0421 11.0461 30.0683C11.0823 30.0945 11.1255 30.1094 11.1702 30.111C11.2149 30.1125 11.259 30.1007 11.2969 30.0771L12.2061 29.5052L13.1153 30.0771C13.1532 30.1024 13.198 30.1156 13.2436 30.1148C13.2892 30.1141 13.3336 30.0995 13.3707 30.073C13.4078 30.0464 13.436 30.0093 13.4515 29.9663C13.467 29.9234 13.4691 29.8768 13.4574 29.8327L13.1837 28.7964L14.0195 28.1023C14.0556 28.0737 14.082 28.0348 14.0952 27.9907C14.1083 27.9467 14.1077 27.8996 14.0933 27.8559C14.0789 27.8122 14.0515 27.774 14.0147 27.7464C13.9779 27.7188 13.9335 27.7031 13.8876 27.7015L12.8122 27.6477L12.4163 26.6359C12.4001 26.5933 12.3713 26.5566 12.3338 26.5307C12.2962 26.5048 12.2517 26.491 12.2061 26.491C12.1605 26.491 12.116 26.5048 12.0784 26.5307C12.0409 26.5566 12.0121 26.5933 11.9959 26.6359Z" fill="#FFE600"/>
<path d="M23.2842 7.0793L22.8883 8.096L21.813 8.14977C21.7681 8.15246 21.7252 8.16849 21.6895 8.19582C21.6539 8.22315 21.6273 8.26051 21.6131 8.3031C21.5989 8.3457 21.5978 8.39157 21.6099 8.43481C21.622 8.47804 21.6467 8.51666 21.681 8.5457L22.5168 9.24468L22.2431 10.276C22.2328 10.32 22.2357 10.3661 22.2514 10.4084C22.2671 10.4508 22.295 10.4876 22.3315 10.5142C22.368 10.5408 22.4116 10.556 22.4567 10.558C22.5018 10.56 22.5466 10.5486 22.5853 10.5253L23.4944 9.95344L24.4036 10.5253C24.4419 10.5496 24.4867 10.5618 24.532 10.5601C24.5774 10.5585 24.6212 10.5432 24.6576 10.5163C24.6941 10.4893 24.7216 10.4519 24.7365 10.409C24.7513 10.3662 24.7528 10.3198 24.7409 10.276L24.4671 9.24468L25.303 8.5457C25.3372 8.51666 25.362 8.47804 25.3741 8.43481C25.3862 8.39157 25.3851 8.3457 25.3709 8.3031C25.3567 8.26051 25.33 8.22315 25.2944 8.19582C25.2588 8.16849 25.2158 8.15246 25.171 8.14977L24.0957 8.096L23.7046 7.0793C23.6884 7.03668 23.6596 6.99997 23.6221 6.97408C23.5846 6.94819 23.54 6.93433 23.4944 6.93433C23.4488 6.93433 23.4043 6.94819 23.3668 6.97408C23.3292 6.99997 23.3004 7.03668 23.2842 7.0793Z" fill="#FFE600"/>
<path d="M27.9866 11.361L28.3825 12.3728L29.4579 12.4266C29.5039 12.4282 29.5482 12.4439 29.585 12.4715C29.6218 12.4991 29.6492 12.5373 29.6636 12.581C29.678 12.6247 29.6787 12.6717 29.6655 12.7158C29.6523 12.7599 29.6259 12.7988 29.5899 12.8274L28.754 13.5215L29.0277 14.5529C29.0381 14.5969 29.0352 14.6429 29.0195 14.6853C29.0037 14.7276 28.9759 14.7644 28.9394 14.791C28.9028 14.8177 28.8593 14.8329 28.8141 14.8349C28.769 14.8369 28.7243 14.8255 28.6856 14.8022L27.7764 14.2303L26.8673 14.8022C26.8289 14.8265 26.7842 14.8386 26.7388 14.837C26.6935 14.8354 26.6497 14.8201 26.6132 14.7931C26.5767 14.7661 26.5492 14.7288 26.5344 14.6859C26.5195 14.643 26.518 14.5967 26.53 14.5529L26.8037 13.5215L25.9679 12.8274C25.9318 12.7988 25.9054 12.7599 25.8923 12.7158C25.8791 12.6717 25.8797 12.6247 25.8941 12.581C25.9085 12.5373 25.9359 12.4991 25.9727 12.4715C26.0095 12.4439 26.0539 12.4282 26.0998 12.4266L27.1752 12.3728L27.5662 11.361C27.5824 11.3184 27.6112 11.2817 27.6487 11.2558C27.6863 11.2299 27.7308 11.2161 27.7764 11.2161C27.822 11.2161 27.8666 11.2299 27.9041 11.2558C27.9416 11.2817 27.9704 11.3184 27.9866 11.361Z" fill="#FFE600"/>
<path d="M27.5684 22.3542L27.1774 23.3709L26.102 23.4247C26.0572 23.4274 26.0142 23.4434 25.9786 23.4707C25.943 23.4981 25.9164 23.5354 25.9022 23.578C25.888 23.6206 25.8868 23.6665 25.8989 23.7097C25.911 23.7529 25.9358 23.7916 25.97 23.8206L26.8059 24.5196L26.5322 25.551C26.5202 25.5947 26.5217 25.6411 26.5366 25.6839C26.5514 25.7268 26.5789 25.7642 26.6154 25.7912C26.6519 25.8181 26.6957 25.8334 26.741 25.835C26.7863 25.8367 26.8311 25.8245 26.8694 25.8002L27.7786 25.2283L28.6878 25.8002C28.7265 25.8235 28.7712 25.8349 28.8163 25.8329C28.8615 25.8309 28.905 25.8157 28.9415 25.7891C28.9781 25.7625 29.0059 25.7257 29.0216 25.6833C29.0374 25.641 29.0402 25.5949 29.0299 25.551L28.7562 24.5196L29.592 23.8206C29.6263 23.7916 29.651 23.7529 29.6631 23.7097C29.6752 23.6665 29.6741 23.6206 29.6599 23.578C29.6457 23.5354 29.6191 23.4981 29.5835 23.4707C29.5479 23.4434 29.5049 23.4274 29.4601 23.4247L28.3847 23.3709L27.9888 22.3542C27.9726 22.3116 27.9438 22.2749 27.9063 22.249C27.8687 22.2231 27.8242 22.2092 27.7786 22.2092C27.733 22.2092 27.6885 22.2231 27.6509 22.249C27.6134 22.2749 27.5846 22.3116 27.5684 22.3542Z" fill="#FFE600"/>
</g>
<defs>
<clipPath id="clip0_8928_23642">
<rect width="36" height="36" fill="white" transform="translate(0 0.5)"/>
</clipPath>
</defs>
</svg>
