<svg width="24" height="24" viewBox="0 0 24 24" fill="none" xmlns="http://www.w3.org/2000/svg">
	<path fill-rule="evenodd" clip-rule="evenodd" d="M5.24055 5.50006C5.24055 3.92053 6.52102 2.64006 8.10055 2.64006H8.23055C8.80491 2.64006 9.27055 2.17442 9.27055 1.60006C9.27055 1.02568 8.80491 0.560059 8.23055 0.560059H8.10055C5.37226 0.560059 3.16055 2.77177 3.16055 5.50006V11.1332C1.68494 11.3808 0.560547 12.6641 0.560547 14.2101V18.5001C0.560547 21.2283 2.77226 23.4401 5.50055 23.4401H18.5005C21.2288 23.4401 23.4405 21.2283 23.4405 18.5001V14.2101C23.4405 12.6641 22.3162 11.3808 20.8405 11.1332V5.50006C20.8405 2.77177 18.6288 0.560059 15.9005 0.560059H15.7705C15.1962 0.560059 14.7305 1.02568 14.7305 1.60006C14.7305 2.17442 15.1962 2.64006 15.7705 2.64006H15.9005C17.4801 2.64006 18.7605 3.92053 18.7605 5.50006V11.0901H18.5153C17.3108 11.0901 16.2138 11.7834 15.697 12.8714L14.8488 14.6572C14.3751 15.6545 13.3696 16.2901 12.2654 16.2901H11.8109C10.7276 16.2901 9.73727 15.678 9.25282 14.7091L8.30566 12.8147C7.77713 11.7577 6.69681 11.0901 5.51503 11.0901H5.24055V5.50006ZM2.64055 14.2101C2.64055 13.6357 3.10618 13.1701 3.68055 13.1701H5.51503C5.90896 13.1701 6.26908 13.3926 6.44523 13.7449L7.39241 15.6393C8.2292 17.3129 9.93974 18.3701 11.8109 18.3701H12.2654C14.1726 18.3701 15.9094 17.2723 16.7276 15.5496L17.5759 13.7638C17.7481 13.4012 18.1138 13.1701 18.5153 13.1701H20.3205C20.8949 13.1701 21.3605 13.6357 21.3605 14.2101V18.5001C21.3605 20.0796 20.0801 21.3601 18.5005 21.3601H5.50055C3.92102 21.3601 2.64055 20.0796 2.64055 18.5001V14.2101Z" fill="#47506D" />
	<path d="M8.66398 4.93544C8.25784 4.5293 8.25784 3.87082 8.66398 3.46467L11.264 0.864667C11.4544 0.674287 11.7002 0.573147 11.9495 0.561249C11.9645 0.560532 11.9795 0.560139 11.9946 0.560069L11.9994 0.560059L12.0042 0.560069C12.1434 0.560698 12.2762 0.5887 12.3975 0.638971C12.5201 0.689723 12.635 0.764957 12.7348 0.864667L15.3348 3.46467C15.7409 3.87082 15.7409 4.5293 15.3348 4.93544C14.9286 5.34159 14.2701 5.34159 13.864 4.93544L13.0394 4.11085V9.40006C13.0394 9.97442 12.5737 10.4401 11.9994 10.4401C11.425 10.4401 10.9594 9.97442 10.9594 9.40006V4.11085L10.1348 4.93544C9.72861 5.34159 9.07013 5.34159 8.66398 4.93544Z" fill="#47506D" />
</svg>
