<svg width="24" height="24" viewBox="0 0 24 24" fill="none" xmlns="http://www.w3.org/2000/svg">
	<path fill-rule="evenodd" clip-rule="evenodd" d="M10.9341 2.93438C12.0125 1.85605 13.475 1.25024 15 1.25024H18C18.4142 1.25024 18.75 1.58603 18.75 2.00024V6.00024C18.75 6.41446 18.4142 6.75024 18 6.75024H15C14.9337 6.75024 14.8701 6.77658 14.8232 6.82347C14.7763 6.87035 14.75 6.93394 14.75 7.00024V9.25024H18C18.231 9.25024 18.449 9.35665 18.5912 9.53868C18.7333 9.72072 18.7836 9.95809 18.7276 10.1821L17.7276 14.1821C17.6441 14.516 17.3442 14.7502 17 14.7502H14.75V22.0002C14.75 22.4145 14.4142 22.7502 14 22.7502H10C9.58579 22.7502 9.25 22.4145 9.25 22.0002V14.7502H7C6.58579 14.7502 6.25 14.4145 6.25 14.0002V10.0002C6.25 9.58603 6.58579 9.25024 7 9.25024H9.25V7.00024C9.25 5.47525 9.8558 4.01271 10.9341 2.93438ZM15 2.75024C13.8728 2.75024 12.7918 3.19801 11.9948 3.99504C11.1978 4.79207 10.75 5.87307 10.75 7.00024V10.0002C10.75 10.4145 10.4142 10.7502 10 10.7502H7.75V13.2502H10C10.4142 13.2502 10.75 13.586 10.75 14.0002V21.2502H13.25V14.0002C13.25 13.586 13.5858 13.2502 14 13.2502H16.4144L17.0394 10.7502H14C13.5858 10.7502 13.25 10.4145 13.25 10.0002V7.00024C13.25 6.53611 13.4344 6.091 13.7626 5.76281C14.0908 5.43462 14.5359 5.25024 15 5.25024H17.25V2.75024H15Z" fill="#47506D" />
</svg>
