<svg width="29" height="28" viewBox="0 0 29 28" fill="none" xmlns="http://www.w3.org/2000/svg">
<path fill-rule="evenodd" clip-rule="evenodd" d="M5.22876 2.3982C5.83044 1.79652 6.64649 1.4585 7.4974 1.4585H16.8307C17.0628 1.4585 17.2854 1.55068 17.4494 1.71478L24.4494 8.71478C24.6135 8.87887 24.7057 9.10143 24.7057 9.3335V23.3335C24.7057 24.1844 24.3677 25.0005 23.766 25.6021C23.1644 26.2038 22.3483 26.5418 21.4974 26.5418H7.4974C6.64649 26.5418 5.83044 26.2038 5.22876 25.6021C4.62708 25.0005 4.28906 24.1844 4.28906 23.3335V4.66683C4.28906 3.81593 4.62708 2.99987 5.22876 2.3982ZM7.4974 3.2085C7.11062 3.2085 6.73969 3.36214 6.4662 3.63563C6.19271 3.90912 6.03906 4.28006 6.03906 4.66683V23.3335C6.03906 23.7203 6.19271 24.0912 6.4662 24.3647C6.73969 24.6382 7.11062 24.7918 7.4974 24.7918H21.4974C21.8842 24.7918 22.2551 24.6382 22.5286 24.3647C22.8021 24.0912 22.9557 23.7203 22.9557 23.3335V9.69593L16.4683 3.2085H7.4974Z" fill="currentColor"/>
<path fill-rule="evenodd" clip-rule="evenodd" d="M16.8359 1.4585C17.3192 1.4585 17.7109 1.85025 17.7109 2.3335V8.4585H23.8359C24.3192 8.4585 24.7109 8.85025 24.7109 9.3335C24.7109 9.81675 24.3192 10.2085 23.8359 10.2085H16.8359C16.3527 10.2085 15.9609 9.81675 15.9609 9.3335V2.3335C15.9609 1.85025 16.3527 1.4585 16.8359 1.4585Z" fill="currentColor"/>
<path fill-rule="evenodd" clip-rule="evenodd" d="M8.96094 15.1665C8.96094 14.6833 9.35269 14.2915 9.83594 14.2915H19.1693C19.6525 14.2915 20.0443 14.6833 20.0443 15.1665C20.0443 15.6498 19.6525 16.0415 19.1693 16.0415H9.83594C9.35269 16.0415 8.96094 15.6498 8.96094 15.1665Z" fill="currentColor"/>
<path fill-rule="evenodd" clip-rule="evenodd" d="M8.96094 19.8335C8.96094 19.3502 9.35269 18.9585 9.83594 18.9585H19.1693C19.6525 18.9585 20.0443 19.3502 20.0443 19.8335C20.0443 20.3167 19.6525 20.7085 19.1693 20.7085H9.83594C9.35269 20.7085 8.96094 20.3167 8.96094 19.8335Z" fill="currentColor"/>
<path fill-rule="evenodd" clip-rule="evenodd" d="M8.96094 10.5C8.96094 10.0168 9.35269 9.625 9.83594 9.625H12.1693C12.6525 9.625 13.0443 10.0168 13.0443 10.5C13.0443 10.9832 12.6525 11.375 12.1693 11.375H9.83594C9.35269 11.375 8.96094 10.9832 8.96094 10.5Z" fill="currentColor"/>
</svg>
