<svg width="116" height="20" viewBox="0 0 116 20" fill="none" xmlns="http://www.w3.org/2000/svg">
<path d="M18.6848 7.825C18.5379 7.385 18.1667 7.06938 17.7167 7.00063L13.1485 6.31625L11.0923 1.95125C10.8879 1.51875 10.4698 1.25 10.0004 1.25C9.53104 1.25 9.11292 1.51875 8.90854 1.95125L6.88229 6.30063L2.28417 7.00063C1.83417 7.06938 1.46354 7.385 1.31604 7.825C1.16542 8.27688 1.27667 8.76687 1.60667 9.10375L4.93229 12.5075L4.14667 17.305C4.06854 17.7844 4.26229 18.2537 4.65354 18.5294C5.02979 18.7962 5.51354 18.8225 5.91604 18.6006L9.97167 16.3356L14.0848 18.6006C14.4885 18.8225 14.971 18.795 15.3473 18.5294C15.7385 18.2537 15.9329 17.7844 15.8542 17.305L15.0673 12.5013L18.3942 9.10375C18.7242 8.76687 18.8354 8.27688 18.6848 7.825Z" fill="#4EFFF2"/>
<path d="M42.6848 7.825C42.5379 7.385 42.1667 7.06938 41.7167 7.00063L37.1485 6.31625L35.0923 1.95125C34.8879 1.51875 34.4698 1.25 34.0004 1.25C33.531 1.25 33.1129 1.51875 32.9085 1.95125L30.8823 6.30063L26.2842 7.00063C25.8342 7.06938 25.4635 7.385 25.316 7.825C25.1654 8.27688 25.2767 8.76687 25.6067 9.10375L28.9323 12.5075L28.1467 17.305C28.0685 17.7844 28.2623 18.2537 28.6535 18.5294C29.0298 18.7962 29.5135 18.8225 29.916 18.6006L33.9717 16.3356L38.0848 18.6006C38.4885 18.8225 38.971 18.795 39.3473 18.5294C39.7385 18.2537 39.9329 17.7844 39.8542 17.305L39.0673 12.5013L42.3942 9.10375C42.7242 8.76687 42.8354 8.27688 42.6848 7.825Z" fill="#4EFFF2"/>
<path d="M66.6848 7.825C66.5379 7.385 66.1667 7.06938 65.7167 7.00063L61.1485 6.31625L59.0923 1.95125C58.8879 1.51875 58.4698 1.25 58.0004 1.25C57.531 1.25 57.1129 1.51875 56.9085 1.95125L54.8823 6.30063L50.2842 7.00063C49.8342 7.06938 49.4635 7.385 49.316 7.825C49.1654 8.27688 49.2767 8.76687 49.6067 9.10375L52.9323 12.5075L52.1467 17.305C52.0685 17.7844 52.2623 18.2537 52.6535 18.5294C53.0298 18.7962 53.5135 18.8225 53.916 18.6006L57.9717 16.3356L62.0848 18.6006C62.4885 18.8225 62.971 18.795 63.3473 18.5294C63.7385 18.2537 63.9329 17.7844 63.8542 17.305L63.0673 12.5013L66.3942 9.10375C66.7242 8.76687 66.8354 8.27688 66.6848 7.825Z" fill="#4EFFF2"/>
<path d="M90.6848 7.825C90.5379 7.385 90.1667 7.06938 89.7167 7.00063L85.1485 6.31625L83.0923 1.95125C82.8879 1.51875 82.4698 1.25 82.0004 1.25C81.531 1.25 81.1129 1.51875 80.9085 1.95125L78.8823 6.30063L74.2842 7.00063C73.8342 7.06938 73.4635 7.385 73.316 7.825C73.1654 8.27688 73.2767 8.76687 73.6067 9.10375L76.9323 12.5075L76.1467 17.305C76.0685 17.7844 76.2623 18.2537 76.6535 18.5294C77.0298 18.7962 77.5135 18.8225 77.916 18.6006L81.9717 16.3356L86.0848 18.6006C86.4885 18.8225 86.971 18.795 87.3473 18.5294C87.7385 18.2537 87.9329 17.7844 87.8542 17.305L87.0673 12.5013L90.3942 9.10375C90.7242 8.76687 90.8354 8.27688 90.6848 7.825Z" fill="#4EFFF2"/>
<path d="M114.685 7.825C114.538 7.385 114.167 7.06938 113.717 7.00063L109.149 6.31625L107.092 1.95125C106.888 1.51875 106.47 1.25 106 1.25C105.531 1.25 105.113 1.51875 104.909 1.95125L102.882 6.30063L98.2842 7.00063C97.8342 7.06938 97.4635 7.385 97.316 7.825C97.1654 8.27688 97.2767 8.76688 97.6067 9.10375L100.932 12.5075L100.147 17.305C100.069 17.7844 100.262 18.2537 100.654 18.5294C101.03 18.7962 101.514 18.8225 101.916 18.6006L105.972 16.3356L110.085 18.6006C110.489 18.8225 110.971 18.795 111.347 18.5294C111.739 18.2537 111.933 17.7844 111.854 17.305L111.067 12.5013L114.394 9.10375C114.724 8.76688 114.835 8.27688 114.685 7.825Z" fill="#4EFFF2"/>
</svg>
