<svg width="31" height="31" viewBox="0 0 31 31" fill="none" xmlns="http://www.w3.org/2000/svg">
<path d="M28.75 6H22.75C22.4854 6.00196 22.2322 6.10795 22.0451 6.29506C21.858 6.48217 21.752 6.73539 21.75 7C21.7508 7.26497 21.8564 7.51887 22.0438 7.70623C22.2311 7.8936 22.485 7.99921 22.75 8H28.75C29.0146 7.99804 29.2678 7.89205 29.4549 7.70494C29.642 7.51783 29.748 7.26461 29.75 7C29.7492 6.73503 29.6436 6.48113 29.4562 6.29377C29.2689 6.1064 29.015 6.00079 28.75 6Z" fill="#B8C7F7"/>
<path d="M7.33554 20.02C6.05585 20.1345 4.86936 20.7372 4.02219 21.7032C3.17502 22.6691 2.73219 23.9241 2.78557 25.2078C2.83895 26.4915 3.38444 27.7054 4.30888 28.5976C5.23332 29.4899 6.46576 29.9921 7.75054 30H22.7505C23.9655 30.001 25.1393 29.5593 26.0521 28.7574C26.965 27.9556 27.5544 26.8487 27.71 25.6437C27.8657 24.4387 27.577 23.2183 26.8979 22.2108C26.2188 21.2033 25.1959 20.4778 24.0205 20.17C23.8309 19.6302 23.5275 19.1376 23.131 18.7253C22.7344 18.3129 22.2539 17.9906 21.722 17.7801C21.1901 17.5696 20.6191 17.4759 20.0478 17.5052C19.4765 17.5345 18.9181 17.6862 18.4105 17.95C17.7856 16.8894 16.8491 16.047 15.7284 15.5374C14.6078 15.0279 13.3574 14.8758 12.1473 15.102C10.9372 15.3282 9.82612 15.9216 8.96519 16.8015C8.10426 17.6815 7.53525 18.8052 7.33554 20.02Z" fill="#B8C7F7"/>
<path d="M11.75 1V2.5V3V7H13.25V3.5H17.75V2H14.75V1H11.75Z" fill="#B8C7F7"/>
<path d="M24.3948 19.755C24.0511 18.9393 23.4746 18.243 22.7374 17.753C22.0002 17.263 21.135 17.0011 20.2498 17C19.6831 16.9986 19.1213 17.1055 18.5948 17.315C17.8799 16.2744 16.8769 15.4649 15.7088 14.9857C14.5407 14.5066 13.2582 14.3786 12.0184 14.6174C10.7786 14.8562 9.63547 15.4515 8.72896 16.3303C7.82245 17.2091 7.19197 18.3333 6.91479 19.565C5.54634 19.7773 4.30832 20.4979 3.448 21.5831C2.58767 22.6682 2.16835 24.038 2.27379 25.4188C2.37923 26.7996 3.00166 28.0898 4.01677 29.0317C5.03189 29.9737 6.36497 30.498 7.74979 30.5H22.7498C24.0625 30.4976 25.331 30.0257 26.3262 29.1697C27.3213 28.3137 27.9775 27.1299 28.1762 25.8323C28.3748 24.5348 28.1028 23.2089 27.4094 22.0944C26.7159 20.9798 25.6466 20.1501 24.3948 19.755ZM22.7498 29.5H7.74979C6.59723 29.487 5.49361 29.0322 4.66648 28.2295C3.83936 27.4267 3.35181 26.3372 3.30436 25.1856C3.2569 24.0339 3.65318 22.908 4.41146 22.0399C5.16974 21.1718 6.23221 20.6278 7.37979 20.52C7.49089 20.5102 7.59554 20.4636 7.67708 20.3875C7.75862 20.3114 7.81237 20.2102 7.82979 20.1C8.01286 18.9867 8.53444 17.9568 9.3236 17.1504C10.1127 16.344 11.1312 15.8003 12.2403 15.5932C13.3494 15.3862 14.4954 15.5258 15.5223 15.9931C16.5493 16.4604 17.4073 17.2327 17.9798 18.205C18.0447 18.315 18.1493 18.3959 18.272 18.4313C18.3947 18.4666 18.5263 18.4536 18.6398 18.395C19.0834 18.1638 19.5716 18.0307 20.0712 18.0048C20.5708 17.9788 21.0702 18.0606 21.5354 18.2446C22.0006 18.4286 22.4208 18.7105 22.7675 19.0712C23.1142 19.4319 23.3793 19.8629 23.5448 20.335C23.572 20.4118 23.6178 20.4807 23.6779 20.5356C23.7381 20.5906 23.8108 20.6298 23.8898 20.65C24.9452 20.9295 25.863 21.5833 26.4722 22.4893C27.0813 23.3954 27.3403 24.4921 27.2008 25.5749C27.0613 26.6578 26.5329 27.653 25.714 28.3752C24.8951 29.0973 23.8416 29.4971 22.7498 29.5Z" fill="#5072EB"/>
<path d="M23.638 21.6195L23.385 22.587C23.9728 22.7405 24.4845 23.103 24.8243 23.6067C25.164 24.1103 25.3085 24.7206 25.2306 25.3231C25.1527 25.9256 24.8578 26.4791 24.4012 26.8798C23.9446 27.2805 23.3575 27.501 22.75 27.5V28.5C23.6007 28.5011 24.4226 28.192 25.0618 27.6307C25.701 27.0694 26.1137 26.2943 26.2225 25.4506C26.3314 24.6069 26.129 23.7525 25.6533 23.0473C25.1776 22.3421 24.4611 21.8345 23.638 21.6195Z" fill="#5072EB"/>
<path d="M5.24783 25.0001C5.25093 24.3745 5.48759 23.7727 5.9114 23.3125C6.33521 22.8523 6.91561 22.5671 7.53883 22.5126L7.45733 21.5161C6.56541 21.601 5.74003 22.0248 5.15118 22.7C4.56233 23.3753 4.25485 24.2506 4.29209 25.1458C4.32932 26.041 4.70843 26.8878 5.35133 27.5118C5.99422 28.1358 6.85194 28.4896 7.74783 28.5001V27.5001C7.08503 27.4993 6.4496 27.2357 5.98094 26.767C5.51227 26.2983 5.24862 25.6629 5.24783 25.0001Z" fill="#5072EB"/>
<path d="M8.75 27.5H10.75V28.5H8.75V27.5Z" fill="#5072EB"/>
<path d="M26.25 2H27.25V3H26.25V2Z" fill="#5072EB"/>
<path d="M29.2462 5.59V2C29.245 1.60254 29.0866 1.2217 28.8055 0.940651C28.5245 0.659604 28.1436 0.501187 27.7462 0.5H23.7462C23.3487 0.501187 22.9679 0.659604 22.6868 0.940651C22.4058 1.2217 22.2474 1.60254 22.2462 2V5.59C21.9155 5.70999 21.6375 5.94239 21.4608 6.24657C21.2841 6.55075 21.2199 6.90735 21.2795 7.25406C21.339 7.60076 21.5186 7.91549 21.7867 8.14324C22.0548 8.37099 22.3944 8.49727 22.7462 8.5H28.7462C29.0979 8.49727 29.4376 8.37099 29.7057 8.14324C29.9738 7.91549 30.1533 7.60076 30.2129 7.25406C30.2724 6.90735 30.2083 6.55075 30.0316 6.24657C29.8549 5.94239 29.5769 5.70999 29.2462 5.59ZM23.2462 2C23.2462 1.86739 23.2989 1.74021 23.3926 1.64645C23.4864 1.55268 23.6136 1.5 23.7462 1.5H27.7462C27.8788 1.5 28.006 1.55268 28.0997 1.64645C28.1935 1.74021 28.2462 1.86739 28.2462 2V5.5H23.2462V2ZM28.7462 7.5H22.7462C22.6136 7.5 22.4864 7.44732 22.3926 7.35355C22.2989 7.25979 22.2462 7.13261 22.2462 7C22.2462 6.86739 22.2989 6.74021 22.3926 6.64645C22.4864 6.55268 22.6136 6.5 22.7462 6.5H28.7462C28.8788 6.5 29.006 6.55268 29.0997 6.64645C29.1935 6.74021 29.2462 6.86739 29.2462 7C29.2462 7.13261 29.1935 7.25979 29.0997 7.35355C29.006 7.44732 28.8788 7.5 28.7462 7.5Z" fill="#5072EB"/>
<path d="M18.75 3H18.25V2C18.25 1.86739 18.1973 1.74021 18.1036 1.64645C18.0098 1.55268 17.8826 1.5 17.75 1.5H15.25V1C15.25 0.867392 15.1973 0.740215 15.1036 0.646447C15.0098 0.552678 14.8826 0.5 14.75 0.5H11.75C11.6174 0.5 11.4902 0.552678 11.3964 0.646447C11.3027 0.740215 11.25 0.867392 11.25 1V7C11.25 7.13261 11.3027 7.25979 11.3964 7.35355C11.4902 7.44732 11.6174 7.5 11.75 7.5H18.75C18.8826 7.5 19.0098 7.44732 19.1036 7.35355C19.1973 7.25979 19.25 7.13261 19.25 7V3.5C19.25 3.36739 19.1973 3.24021 19.1036 3.14645C19.0098 3.05268 18.8826 3 18.75 3ZM13.25 3C13.1174 3 12.9902 3.05268 12.8964 3.14645C12.8027 3.24021 12.75 3.36739 12.75 3.5V6.5H12.25V1.5H14.25V2C14.25 2.13261 14.3027 2.25979 14.3964 2.35355C14.4902 2.44732 14.6174 2.5 14.75 2.5H17.25V3H13.25ZM18.25 6.5H13.75V4H18.25V6.5Z" fill="#5072EB"/>
<path d="M2.25 2.5H3.25V3.5H2.25V2.5Z" fill="#5072EB"/>
<path d="M4.25 2.5H5.25V3.5H4.25V2.5Z" fill="#5072EB"/>
<path d="M6.25 2.5H7.25V3.5H6.25V2.5Z" fill="#5072EB"/>
<path d="M8.75 5.5C8.88261 5.5 9.00979 5.44732 9.10355 5.35355C9.19732 5.25979 9.25 5.13261 9.25 5V1C9.25 0.867392 9.19732 0.740215 9.10355 0.646447C9.00979 0.552678 8.88261 0.5 8.75 0.5H0.75C0.617392 0.5 0.490215 0.552678 0.396447 0.646447C0.302678 0.740215 0.25 0.867392 0.25 1V5C0.25 5.13261 0.302678 5.25979 0.396447 5.35355C0.490215 5.44732 0.617392 5.5 0.75 5.5H1.25V6.5H0.75C0.617392 6.5 0.490215 6.55268 0.396447 6.64645C0.302678 6.74021 0.25 6.86739 0.25 7V11C0.25 11.1326 0.302678 11.2598 0.396447 11.3536C0.490215 11.4473 0.617392 11.5 0.75 11.5H8.75C8.88261 11.5 9.00979 11.4473 9.10355 11.3536C9.19732 11.2598 9.25 11.1326 9.25 11V7C9.25 6.86739 9.19732 6.74021 9.10355 6.64645C9.00979 6.55268 8.88261 6.5 8.75 6.5H8.25V5.5H8.75ZM8.25 10.5H1.25V7.5H8.25V10.5ZM2.25 6.5V5.5H7.25V6.5H2.25ZM1.25 4.5V1.5H8.25V4.5H1.25Z" fill="#5072EB"/>
<path d="M2.25 8.5H3.25V9.5H2.25V8.5Z" fill="#5072EB"/>
<path d="M4.25 8.5H5.25V9.5H4.25V8.5Z" fill="#5072EB"/>
<path d="M6.25 8.5H7.25V9.5H6.25V8.5Z" fill="#5072EB"/>
<path d="M14.75 8.5H15.75V13.5H14.75V8.5Z" fill="#5072EB"/>
<path d="M22.2891 16.2825L25.2875 10.2855L26.1815 10.7325L23.1831 16.7295L22.2891 16.2825Z" fill="#5072EB"/>
<path d="M4.27344 12.6829L5.2019 12.3117L7.19974 17.309L6.27127 17.6801L4.27344 12.6829Z" fill="#5072EB"/>
</svg>
