<svg width="690" height="536" viewBox="0 0 690 536" fill="none" xmlns="http://www.w3.org/2000/svg">
<path d="M84 325H219" stroke="#5072EB" stroke-opacity="0.1" stroke-width="15"/>
<path d="M307.5 411L228.172 490.328C227.421 491.079 226.404 491.5 225.343 491.5H0" stroke="#5072EB" stroke-opacity="0.1" stroke-width="15"/>
<path d="M315.5 403.5L228.672 490.328C227.921 491.079 226.904 491.5 225.843 491.5H93" stroke="#5072EB" stroke-dasharray="2 2"/>
<path d="M255.088 469.723C254.987 469.785 254.888 469.808 254.779 469.801C254.68 469.804 254.582 469.807 254.483 469.81C254.216 469.807 254.033 469.645 254.031 469.378C254.032 469.339 254.023 469.309 254.034 469.279C254.073 467.915 254.112 466.552 254.151 465.188C254.156 465.01 254.175 465.029 253.998 465.034C252.634 465.073 251.27 465.112 249.906 465.151C249.728 465.156 249.591 465.121 249.476 464.986C249.409 464.899 249.373 464.801 249.386 464.692C249.389 464.574 249.392 464.475 249.395 464.356C249.404 464.06 249.597 463.866 249.894 463.858C250.585 463.838 251.257 463.819 251.949 463.799C252.957 463.77 253.965 463.741 254.974 463.712C255.329 463.702 255.502 463.875 255.492 464.231C255.444 465.891 255.396 467.571 255.349 469.232C255.345 469.35 255.332 469.459 255.27 469.58C255.189 469.621 255.139 469.672 255.088 469.723Z" fill="#5072EB"/>
<path d="M179.636 495.973C179.521 495.946 179.435 495.891 179.363 495.81C179.291 495.742 179.219 495.674 179.148 495.606C178.961 495.416 178.946 495.172 179.133 494.982C179.162 494.955 179.176 494.927 179.205 494.914C180.197 493.977 181.189 493.04 182.181 492.104C182.311 491.981 182.311 492.008 182.181 491.886C181.189 490.95 180.197 490.013 179.205 489.076C179.076 488.954 179.004 488.832 179.018 488.655C179.033 488.546 179.076 488.451 179.162 488.384C179.248 488.302 179.32 488.234 179.406 488.153C179.622 487.949 179.895 487.949 180.111 488.153C180.614 488.628 181.103 489.09 181.606 489.565C182.339 490.257 183.073 490.95 183.806 491.642C184.065 491.886 184.065 492.131 183.806 492.375C182.598 493.515 181.376 494.669 180.168 495.81C180.082 495.891 179.996 495.959 179.866 496C179.78 495.973 179.708 495.973 179.636 495.973Z" fill="#5072EB"/>
<path d="M77 171H212" stroke="#5072EB" stroke-opacity="0.1" stroke-width="15"/>
<path d="M199.636 11.9728C199.521 11.9457 199.435 11.8914 199.363 11.8099C199.291 11.742 199.219 11.6742 199.148 11.6063C198.961 11.4162 198.946 11.1718 199.133 10.9818C199.162 10.9546 199.176 10.9274 199.205 10.9138C200.197 9.97706 201.189 9.04031 202.181 8.10353C202.311 7.98134 202.311 8.00849 202.181 7.8863C201.189 6.94951 200.197 6.01272 199.205 5.07593C199.076 4.95375 199.004 4.83156 199.018 4.65506C199.033 4.54645 199.076 4.4514 199.162 4.38352C199.248 4.30206 199.32 4.2342 199.406 4.15274C199.622 3.94909 199.895 3.94909 200.111 4.15274C200.614 4.62792 201.103 5.08953 201.606 5.56471C202.339 6.25712 203.073 6.94952 203.806 7.64193C204.065 7.88631 204.065 8.13066 203.806 8.37503C202.598 9.51547 201.376 10.6695 200.168 11.8099C200.082 11.8914 199.996 11.9593 199.866 12C199.78 11.9728 199.708 11.9728 199.636 11.9728Z" fill="#5072EB"/>
<path d="M313 88L244.56 9.37377C243.8 8.50103 242.7 8 241.543 8H47" stroke="#5072EB" stroke-opacity="0.1" stroke-width="15"/>
<path d="M307.5 81.5L244.729 9.37403C243.969 8.50114 242.869 8 241.712 8H47.0002" stroke="#5072EB" stroke-dasharray="2 2"/>
<path d="M84 325H219" stroke="#5072EB" stroke-dasharray="2 2"/>
<path d="M77 171H212" stroke="#5072EB" stroke-dasharray="2 2"/>
<path d="M382 329L461.328 408.328C462.079 409.079 463.096 409.5 464.157 409.5H689.5" stroke="#5072EB" stroke-opacity="0.1" stroke-width="15"/>
<path d="M392.5 340L460.828 408.328C461.579 409.079 462.596 409.5 463.657 409.5H596.5" stroke="#5072EB" stroke-dasharray="2 2"/>
<path d="M509.636 413.973C509.521 413.946 509.435 413.891 509.363 413.81C509.291 413.742 509.219 413.674 509.148 413.606C508.961 413.416 508.946 413.172 509.133 412.982C509.162 412.955 509.176 412.927 509.205 412.914C510.197 411.977 511.189 411.04 512.181 410.104C512.311 409.981 512.311 410.008 512.181 409.886C511.189 408.95 510.197 408.013 509.205 407.076C509.076 406.954 509.004 406.832 509.018 406.655C509.033 406.546 509.076 406.451 509.162 406.384C509.248 406.302 509.32 406.234 509.406 406.153C509.622 405.949 509.895 405.949 510.111 406.153C510.614 406.628 511.103 407.09 511.606 407.565C512.339 408.257 513.073 408.95 513.806 409.642C514.065 409.886 514.065 410.131 513.806 410.375C512.598 411.515 511.376 412.669 510.168 413.81C510.082 413.891 509.996 413.959 509.866 414C509.78 413.973 509.708 413.973 509.636 413.973Z" fill="#5072EB"/>
<path d="M595 251H470" stroke="#5072EB" stroke-dasharray="2 2"/>
<path d="M604 251H469" stroke="#5072EB" stroke-opacity="0.1" stroke-width="15"/>
<path d="M536.636 254.973C536.521 254.946 536.435 254.891 536.363 254.81C536.291 254.742 536.219 254.674 536.148 254.606C535.961 254.416 535.946 254.172 536.133 253.982C536.162 253.955 536.176 253.927 536.205 253.914C537.197 252.977 538.189 252.04 539.181 251.104C539.311 250.981 539.311 251.008 539.181 250.886C538.189 249.95 537.197 249.013 536.205 248.076C536.076 247.954 536.004 247.832 536.018 247.655C536.033 247.546 536.076 247.451 536.162 247.384C536.248 247.302 536.32 247.234 536.406 247.153C536.622 246.949 536.895 246.949 537.111 247.153C537.614 247.628 538.103 248.09 538.606 248.565C539.339 249.257 540.073 249.95 540.806 250.642C541.065 250.886 541.065 251.131 540.806 251.375C539.598 252.515 538.376 253.669 537.168 254.81C537.082 254.891 536.996 254.959 536.866 255C536.78 254.973 536.708 254.973 536.636 254.973Z" fill="#5072EB"/>
<path d="M504.636 81.9728C504.521 81.9457 504.435 81.8914 504.363 81.8099C504.291 81.742 504.219 81.6742 504.148 81.6063C503.961 81.4162 503.946 81.1718 504.133 80.9818C504.162 80.9546 504.176 80.9274 504.205 80.9138C505.197 79.9771 506.189 79.0403 507.181 78.1035C507.311 77.9813 507.311 78.0085 507.181 77.8863C506.189 76.9495 505.197 76.0127 504.205 75.0759C504.076 74.9537 504.004 74.8316 504.018 74.6551C504.033 74.5465 504.076 74.4514 504.162 74.3835C504.248 74.3021 504.32 74.2342 504.406 74.1527C504.622 73.9491 504.895 73.9491 505.111 74.1527C505.614 74.6279 506.103 75.0895 506.606 75.5647C507.339 76.2571 508.073 76.9495 508.806 77.6419C509.065 77.8863 509.065 78.1307 508.806 78.375C507.598 79.5155 506.376 80.6695 505.168 81.8099C505.082 81.8914 504.996 81.9593 504.866 82C504.78 81.9728 504.708 81.9728 504.636 81.9728Z" fill="#5072EB"/>
<path d="M387 158L455.44 79.3738C456.2 78.501 457.3 78 458.457 78H653" stroke="#5072EB" stroke-opacity="0.1" stroke-width="15"/>
<path d="M392.5 151.5L455.271 79.374C456.031 78.5011 457.131 78 458.288 78H653" stroke="#5072EB" stroke-dasharray="2 2"/>
<circle cx="348.5" cy="243.5" r="180" fill="white" stroke="#A4B6F4"/>
<path d="M376.869 270.867L379.238 279.87L385.872 273.237L376.869 270.867Z" fill="#5072EB"/>
<path d="M321.274 215.273L318.905 206.271L312.271 212.904L321.274 215.273Z" fill="#5072EB"/>
<path d="M321.274 270.867L312.271 273.237L318.905 279.87L321.274 270.867Z" fill="#5072EB"/>
<path d="M376.869 215.273L385.872 212.904L379.238 206.271L376.869 215.273Z" fill="#5072EB"/>
<path d="M348.997 295.966L342.691 307.001H355.302L348.997 295.966Z" fill="#6ED5D6"/>
<path d="M348.997 190.034L355.302 179H342.691L348.997 190.034Z" fill="#6ED5D6"/>
<path d="M295.877 243L285 236.695V249.306L295.877 243Z" fill="#6ED5D6"/>
<path d="M401.961 243L412.995 249.306V236.695L401.961 243Z" fill="#6ED5D6"/>
<path d="M289.889 230.806C290.047 229.861 290.363 228.759 290.521 227.814L296.054 229.231C295.896 230.176 295.579 230.963 295.421 231.908L289.889 230.806ZM291.944 223.406C292.26 222.461 292.576 221.516 293.05 220.571L298.425 222.776C298.109 223.563 297.793 224.508 297.476 225.295L291.944 223.406ZM294.789 216.478C295.263 215.533 295.738 214.746 296.212 213.801L301.27 216.635C300.796 217.423 300.48 218.21 300.006 218.997L294.789 216.478ZM298.583 209.865C299.215 209.078 299.689 208.133 300.322 207.346L304.906 210.652C304.432 211.44 303.799 212.069 303.325 212.857L298.583 209.865ZM303.167 203.882C303.799 203.095 304.432 202.308 305.222 201.678L309.49 205.614C308.858 206.244 308.226 207.031 307.593 207.661L303.167 203.882ZM308.384 198.529C309.174 197.899 309.965 197.112 310.755 196.482L314.391 200.891C313.758 201.52 312.968 201.993 312.336 202.623L308.384 198.529ZM314.391 193.806C315.181 193.176 316.13 192.703 316.92 192.074L320.081 196.954C319.291 197.427 318.501 197.899 317.868 198.529L314.391 193.806ZM320.714 189.712C321.662 189.24 322.453 188.767 323.401 188.295L325.772 193.491C324.982 193.806 324.191 194.278 323.243 194.75L320.714 189.712ZM327.669 186.563C328.618 186.248 329.566 185.933 330.515 185.618L332.253 191.129C331.305 191.444 330.515 191.759 329.724 192.074L327.669 186.563ZM334.941 184.359C335.889 184.201 336.838 183.886 337.944 183.729L339.051 189.397C338.102 189.554 337.312 189.712 336.363 190.027L334.941 184.359ZM402.756 231.908C402.598 230.963 402.44 230.176 402.124 229.231L407.656 227.814C407.972 228.759 408.13 229.703 408.289 230.806L402.756 231.908ZM400.859 225.295C400.543 224.35 400.227 223.563 399.91 222.776L405.285 220.571C405.601 221.516 406.075 222.461 406.392 223.406L400.859 225.295ZM398.33 218.997C397.855 218.21 397.539 217.423 397.065 216.635L402.124 213.801C402.598 214.746 403.072 215.533 403.546 216.478L398.33 218.997ZM394.852 213.014C394.378 212.227 393.904 211.44 393.271 210.81L397.855 207.503C398.488 208.291 398.962 209.078 399.594 210.023L394.852 213.014ZM390.742 207.661C390.11 207.031 389.477 206.244 388.845 205.614L393.113 201.678C393.745 202.465 394.536 203.095 395.168 203.882L390.742 207.661ZM386 202.78C385.367 202.15 384.577 201.52 383.945 201.048L387.58 196.64C388.371 197.269 389.161 197.899 389.952 198.686L386 202.78ZM380.625 198.372C379.835 197.899 379.044 197.269 378.412 196.797L381.573 191.916C382.364 192.389 383.312 193.018 384.103 193.648L380.625 198.372ZM374.776 194.908C373.986 194.435 373.195 194.12 372.247 193.648L374.618 188.452C375.567 188.925 376.515 189.397 377.305 189.869L374.776 194.908ZM368.611 192.074C367.821 191.759 366.872 191.444 366.082 191.129L367.821 185.618C368.769 185.933 369.718 186.248 370.666 186.563L368.611 192.074ZM361.972 190.027C361.023 189.869 360.233 189.554 359.285 189.397L360.391 183.729C361.34 183.886 362.446 184.201 363.395 184.359L361.972 190.027ZM408.289 255.052C408.13 255.997 407.814 257.099 407.656 258.044L402.124 256.627C402.282 255.682 402.598 254.895 402.756 253.95L408.289 255.052ZM406.392 262.452C406.075 263.397 405.759 264.342 405.285 265.286L399.91 263.082C400.227 262.295 400.543 261.35 400.859 260.563L406.392 262.452ZM403.388 269.38C402.914 270.325 402.44 271.112 401.965 272.057L396.907 269.222C397.381 268.435 397.697 267.648 398.172 266.861L403.388 269.38ZM399.752 275.993C399.12 276.78 398.646 277.725 398.014 278.512L393.429 275.205C393.904 274.418 394.536 273.788 395.01 273.001L399.752 275.993ZM395.168 281.976C394.536 282.763 393.903 283.55 393.113 284.18L388.845 280.244C389.477 279.614 390.11 278.827 390.742 278.197L395.168 281.976ZM389.952 287.329C389.161 287.959 388.371 288.746 387.58 289.376L383.945 284.967C384.577 284.337 385.367 283.865 386 283.235L389.952 287.329ZM383.945 292.052C383.154 292.682 382.206 293.154 381.415 293.784L378.254 288.903C379.044 288.431 379.835 287.959 380.467 287.329L383.945 292.052ZM377.463 296.146C376.515 296.618 375.725 297.091 374.776 297.563L372.405 292.367C373.195 292.052 373.986 291.58 374.934 291.108L377.463 296.146ZM370.666 299.295C369.718 299.61 368.769 299.925 367.821 300.239L366.082 294.729C367.03 294.414 367.821 294.099 368.611 293.784L370.666 299.295ZM363.395 301.499C362.446 301.657 361.498 301.971 360.391 302.129L359.285 296.461C360.233 296.303 361.023 296.146 361.972 295.831L363.395 301.499ZM295.579 253.95C295.738 254.895 295.896 255.682 296.212 256.627L290.679 258.044C290.363 257.099 290.205 256.154 290.047 255.052L295.579 253.95ZM297.476 260.563C297.793 261.508 298.109 262.295 298.425 263.082L293.05 265.286C292.734 264.342 292.26 263.397 291.944 262.452L297.476 260.563ZM300.006 266.861C300.48 267.648 300.796 268.435 301.27 269.222L296.212 272.057C295.738 271.112 295.263 270.325 294.789 269.38L300.006 266.861ZM303.483 272.844C303.958 273.631 304.432 274.418 305.064 275.048L300.48 278.354C299.848 277.567 299.373 276.78 298.741 275.835L303.483 272.844ZM307.593 278.197C308.226 278.827 308.858 279.614 309.49 280.244L305.222 284.18C304.59 283.393 303.799 282.763 303.167 281.976L307.593 278.197ZM312.336 283.235C312.968 283.865 313.758 284.495 314.391 284.967L310.755 289.376C309.965 288.746 309.174 288.116 308.384 287.329L312.336 283.235ZM317.71 287.486C318.501 287.959 319.291 288.588 319.923 289.061L316.762 293.942C315.971 293.469 315.023 292.839 314.233 292.21L317.71 287.486ZM323.559 290.95C324.349 291.422 325.14 291.737 326.088 292.21L323.717 297.405C322.769 296.933 321.82 296.461 321.03 295.988L323.559 290.95ZM329.724 293.784C330.515 294.099 331.463 294.414 332.253 294.729L330.515 300.239C329.566 299.925 328.618 299.61 327.669 299.295L329.724 293.784ZM336.363 295.831C337.312 295.988 338.102 296.303 339.051 296.461L337.944 302.129C336.996 301.971 335.889 301.657 334.941 301.499L336.363 295.831Z" fill="#5072EB"/>
<path d="M348.493 279.571C368.972 279.571 385.573 262.97 385.573 242.492C385.573 222.013 368.972 205.412 348.493 205.412C328.015 205.412 311.414 222.013 311.414 242.492C311.414 262.97 328.015 279.571 348.493 279.571Z" stroke="#F1F4FD" stroke-miterlimit="10"/>
<path d="M394.023 178.151C397.439 180.593 402.176 180.465 405.146 177.495L442.445 140.196C445.653 136.988 445.563 131.735 442.068 128.842C387.585 83.7402 308.18 83.9068 253.524 129.242C250.033 132.138 249.943 137.389 253.151 140.597L290.255 177.701C293.226 180.672 297.966 180.8 301.38 178.351C329.005 158.54 366.471 158.46 394.023 178.151Z" fill="#E9F9F9"/>
<path d="M233.842 337.068C236.735 340.563 241.987 340.654 245.196 337.445L282.494 300.147C285.464 297.177 285.592 292.439 283.148 289.024C263.411 261.441 263.491 224.037 283.348 196.379C285.799 192.966 285.671 188.226 282.7 185.255L245.597 148.151C242.389 144.944 237.138 145.033 234.242 148.525C188.952 203.14 188.745 282.584 233.842 337.068Z" fill="#EEF1FD" fill-opacity="0.8"/>
<path d="M405.749 308.301C402.778 305.33 398.038 305.203 394.625 307.653C366.967 327.511 329.563 327.591 301.98 307.853C298.565 305.409 293.827 305.538 290.857 308.507L253.559 345.806C250.351 349.014 250.441 354.267 253.936 357.16C308.419 402.262 387.824 402.095 442.48 356.76C445.971 353.864 446.061 348.613 442.853 345.405L405.749 308.301Z" fill="#E9F9F9"/>
<path d="M462.16 148.935C459.267 145.44 454.014 145.35 450.806 148.558L413.508 185.857C410.538 188.826 410.41 193.564 412.853 196.98C432.591 224.563 432.511 261.967 412.654 289.624C410.203 293.037 410.331 297.778 413.302 300.749L450.411 337.858C453.616 341.063 458.863 340.976 461.761 337.489C507.141 282.874 507.267 203.423 462.16 148.935Z" fill="#EEF1FD" fill-opacity="0.8"/>
<path d="M469.385 132.607C526.544 194.667 527.025 290.181 471.105 353.201" stroke="#A4B6F4" stroke-width="2" stroke-miterlimit="10" stroke-linecap="round" stroke-linejoin="round"/>
<path d="M458.52 121.741C396.535 64.5078 301.021 64.0264 237.927 120.021" stroke="#6ED5D6" stroke-width="2" stroke-miterlimit="10" stroke-linecap="round" stroke-linejoin="round"/>
<path d="M225.836 354.424C168.677 292.365 168.195 196.85 224.115 133.83" stroke="#A4B6F4" stroke-width="2" stroke-miterlimit="10" stroke-linecap="round" stroke-linejoin="round"/>
<path d="M236.702 365.291C298.761 422.45 394.276 422.931 457.296 367.011" stroke="#6ED5D6" stroke-width="2" stroke-miterlimit="10" stroke-linecap="round" stroke-linejoin="round"/>
<path d="M237.369 113.547L236.959 122.274L245.708 123.578" stroke="#6ED5D6" stroke-width="2" stroke-miterlimit="10" stroke-linecap="round" stroke-linejoin="round"/>
<path d="M477.324 131.705L468.317 131.528L467.834 140.488" stroke="#A4B6F4" stroke-width="2" stroke-miterlimit="10" stroke-linecap="round" stroke-linejoin="round"/>
<path d="M218.097 355.13L227.104 355.308L227.587 346.347" stroke="#A4B6F4" stroke-width="2" stroke-miterlimit="10" stroke-linecap="round" stroke-linejoin="round"/>
<path d="M459.224 374.117L459.416 365.172L450.391 364.58" stroke="#6ED5D6" stroke-width="2" stroke-miterlimit="10" stroke-linecap="round" stroke-linejoin="round"/>
<path d="M183.527 226.618C180.156 252.321 183.592 278.177 193.17 301.714" stroke="#5072EB" stroke-width="6"/>
<path d="M376.017 406.378C401.66 402.56 425.649 392.146 445.779 376.454" stroke="#6ED5D6" stroke-width="6"/>
<path d="M448.564 113.706C428.774 97.0935 405.147 86.1261 380.123 81.57" stroke="#6ED5D6" stroke-width="6"/>
<path d="M478.912 343.56C495.27 323.385 505.934 299.505 510.17 274.379" stroke="#5072EB" stroke-width="6"/>
<path d="M336.025 246.538C335.913 242.949 336.146 239.645 337.462 236.499C339.044 232.722 342.171 230.73 345.924 229.611C350.6 228.217 355.421 227.927 360.276 228.014C361.082 228.029 361.465 228.352 361.46 229.157C361.446 231.261 361.524 233.369 361.426 235.472C361.339 237.397 360.038 238.448 358.067 238.554C354.212 238.757 350.337 238.786 346.565 239.794C342.55 240.87 338.957 242.563 336.568 246.147C336.505 246.249 336.364 246.302 336.025 246.538Z" fill="#5072EB"/>
<path d="M336 259.421C336.005 254.609 336.107 249.86 340.14 246.279C342.466 244.215 345.343 243.423 348.293 242.78C352.111 241.94 355.997 241.936 359.879 241.826C360.532 241.807 360.82 242.098 360.82 242.703C360.815 244.873 360.908 247.052 360.776 249.217C360.669 251.005 359.342 251.958 357.192 252.082C354.198 252.249 351.189 252.211 348.22 252.793C344.826 253.456 341.617 254.505 338.843 256.622C337.78 257.432 337.107 258.581 336 259.421Z" fill="#6ED5D6"/>
<circle cx="236" cy="244" r="24" fill="#5072EB"/>
<path fill-rule="evenodd" clip-rule="evenodd" d="M239.803 242.644L235.556 240.192C234.393 239.521 232.943 240.36 232.943 241.702V246.606C232.943 247.948 234.393 248.786 235.556 248.113L239.803 245.661C240.963 244.992 240.963 243.313 239.803 242.644ZM235.034 246.001L238.235 244.153L235.034 242.305V246.001Z" fill="white"/>
<path fill-rule="evenodd" clip-rule="evenodd" d="M241.066 238.985C242.393 240.303 243.208 242.13 243.208 244.153C243.208 246.175 242.393 248.004 241.066 249.32C240.655 249.725 240.652 250.387 241.059 250.798C241.465 251.208 242.127 251.211 242.536 250.804C244.246 249.11 245.299 246.757 245.299 244.153C245.299 241.548 244.246 239.196 242.536 237.501C242.127 237.096 241.465 237.098 241.059 237.508C240.652 237.918 240.655 238.58 241.066 238.985Z" fill="white"/>
<path fill-rule="evenodd" clip-rule="evenodd" d="M230.718 249.32C229.39 248.004 228.575 246.175 228.575 244.153C228.575 242.131 229.39 240.303 230.718 238.987C231.128 238.58 231.131 237.918 230.725 237.508C230.318 237.098 229.656 237.096 229.247 237.501C227.537 239.196 226.484 241.548 226.484 244.153C226.484 246.758 227.537 249.11 229.247 250.805C229.656 251.211 230.318 251.208 230.725 250.798C231.131 250.388 231.128 249.726 230.718 249.32Z" fill="white"/>
<path fill-rule="evenodd" clip-rule="evenodd" d="M245.007 235.039C247.34 237.373 248.784 240.595 248.784 244.153C248.784 247.711 247.34 250.933 245.007 253.268C244.599 253.675 244.599 254.338 245.007 254.745C245.414 255.153 246.078 255.153 246.485 254.745C249.197 252.034 250.875 248.288 250.875 244.153C250.875 240.018 249.197 236.272 246.485 233.561C246.078 233.153 245.414 233.153 245.007 233.561C244.599 233.968 244.599 234.632 245.007 235.039Z" fill="white"/>
<path fill-rule="evenodd" clip-rule="evenodd" d="M226.779 253.268C224.446 250.933 223.001 247.71 223.001 244.153C223.001 240.595 224.444 237.373 226.779 235.039C227.186 234.632 227.186 233.968 226.779 233.561C226.371 233.153 225.709 233.153 225.3 233.561C222.588 236.273 220.91 240.018 220.91 244.153C220.91 248.287 222.588 252.033 225.3 254.745C225.709 255.153 226.371 255.153 226.779 254.746C227.186 254.338 227.186 253.676 226.779 253.268Z" fill="white"/>
<circle cx="461" cy="244" r="24" fill="#5072EB"/>
<g clip-path="url(#clip0_7281_18657)">
<path fill-rule="evenodd" clip-rule="evenodd" d="M465.436 242.418L460.482 239.558C459.125 238.774 457.434 239.753 457.434 241.319V247.04C457.434 248.606 459.125 249.583 460.482 248.798L465.436 245.938C466.789 245.158 466.789 243.198 465.436 242.418ZM459.873 246.335L463.607 244.179L459.873 242.023V246.335Z" fill="white"/>
<path d="M474.208 234.326C473.971 234.214 473.707 234.174 473.448 234.211C473.189 234.249 472.946 234.361 472.747 234.536L471.505 235.6C470.254 233.86 468.62 232.446 466.737 231.473C464.854 230.5 462.774 229.996 460.665 230C458.161 229.998 455.705 230.701 453.565 232.034C451.425 233.367 449.684 235.277 448.532 237.557C447.38 239.836 446.861 242.396 447.032 244.958C447.203 247.519 448.058 249.983 449.503 252.08C450.948 254.176 452.927 255.825 455.225 256.846C457.522 257.867 460.049 258.22 462.528 257.867C465.008 257.514 467.346 256.469 469.285 254.846C471.225 253.222 472.692 251.083 473.526 248.662C473.645 248.311 473.624 247.926 473.466 247.591C473.309 247.256 473.028 247 472.686 246.877C472.344 246.754 471.968 246.776 471.642 246.938C471.315 247.099 471.065 247.387 470.945 247.738C470.277 249.674 469.102 251.384 467.55 252.682C465.997 253.979 464.127 254.814 462.143 255.095C460.159 255.376 458.138 255.092 456.301 254.274C454.463 253.456 452.881 252.136 451.726 250.458C450.571 248.78 449.889 246.809 449.753 244.759C449.617 242.71 450.033 240.663 450.956 238.84C451.879 237.017 453.273 235.489 454.985 234.424C456.697 233.359 458.662 232.797 460.665 232.8C462.382 232.8 464.074 233.223 465.599 234.031C467.123 234.84 468.437 236.012 469.43 237.448L467.969 238.736C467.757 238.922 467.605 239.17 467.535 239.447C467.465 239.724 467.479 240.017 467.576 240.285C467.672 240.554 467.847 240.785 468.076 240.949C468.305 241.112 468.577 241.2 468.856 241.2H473.635C473.997 241.2 474.344 241.053 474.6 240.79C474.856 240.527 475 240.171 475 239.8V235.6C475.001 235.332 474.926 235.07 474.786 234.844C474.646 234.618 474.445 234.438 474.208 234.326Z" fill="white"/>
</g>
<rect x="324" y="332" width="48" height="48" rx="24" fill="#6ED5D6"/>
<g clip-path="url(#clip1_7281_18657)">
<g clip-path="url(#clip2_7281_18657)">
<path d="M345.645 345.901C345.285 345.572 345.285 345.039 345.645 344.711C346.006 344.382 346.59 344.382 346.949 344.711L347.379 345.103V340.842C347.379 340.377 347.791 340 348.301 340C348.811 340 349.223 340.376 349.223 340.842V345.103L349.653 344.711C350.014 344.382 350.597 344.382 350.957 344.711C351.317 345.04 351.317 345.573 350.957 345.901L348.953 347.73C348.931 347.75 348.909 347.768 348.886 347.786C348.881 347.789 348.876 347.792 348.871 347.796C348.853 347.81 348.833 347.824 348.813 347.835C348.809 347.838 348.804 347.84 348.8 347.842C348.779 347.855 348.758 347.867 348.736 347.877C348.733 347.878 348.729 347.88 348.727 347.881C348.704 347.893 348.68 347.903 348.655 347.913C348.652 347.914 348.65 347.914 348.648 347.915C348.622 347.924 348.596 347.933 348.569 347.94C348.567 347.941 348.565 347.941 348.562 347.942C348.536 347.95 348.509 347.956 348.483 347.96C348.476 347.961 348.469 347.962 348.462 347.963C348.439 347.967 348.416 347.971 348.393 347.973C348.363 347.976 348.332 347.977 348.301 347.977C348.27 347.977 348.24 347.976 348.209 347.973C348.186 347.971 348.163 347.968 348.14 347.963C348.133 347.962 348.126 347.961 348.119 347.96C348.091 347.955 348.065 347.949 348.04 347.942C348.037 347.941 348.035 347.941 348.033 347.94C348.006 347.933 347.98 347.924 347.954 347.915C347.952 347.914 347.95 347.914 347.947 347.913C347.923 347.903 347.899 347.893 347.875 347.881C347.871 347.88 347.868 347.878 347.866 347.877C347.844 347.867 347.823 347.854 347.802 347.842C347.798 347.839 347.793 347.837 347.789 347.835C347.769 347.823 347.749 347.81 347.731 347.796C347.726 347.793 347.721 347.79 347.716 347.786C347.693 347.768 347.67 347.75 347.649 347.73L345.645 345.901Z" fill="white"/>
</g>
<g clip-path="url(#clip3_7281_18657)">
<path d="M354.77 345.901C354.41 345.572 354.41 345.039 354.77 344.711C355.131 344.382 355.715 344.382 356.074 344.711L356.504 345.103V340.842C356.504 340.377 356.916 340 357.426 340C357.936 340 358.348 340.376 358.348 340.842V345.103L358.778 344.711C359.139 344.382 359.722 344.382 360.082 344.711C360.442 345.04 360.442 345.573 360.082 345.901L358.078 347.73C358.056 347.75 358.034 347.768 358.011 347.786C358.006 347.789 358.001 347.792 357.996 347.796C357.978 347.81 357.958 347.824 357.938 347.835C357.934 347.838 357.929 347.84 357.925 347.842C357.904 347.855 357.883 347.867 357.861 347.877C357.858 347.878 357.854 347.88 357.852 347.881C357.829 347.893 357.805 347.903 357.78 347.913C357.777 347.914 357.775 347.914 357.773 347.915C357.747 347.924 357.721 347.933 357.694 347.94C357.692 347.941 357.69 347.941 357.687 347.942C357.661 347.95 357.634 347.956 357.608 347.96C357.601 347.961 357.594 347.962 357.587 347.963C357.564 347.967 357.541 347.971 357.518 347.973C357.488 347.976 357.457 347.977 357.426 347.977C357.395 347.977 357.365 347.976 357.334 347.973C357.311 347.971 357.288 347.968 357.265 347.963C357.258 347.962 357.251 347.961 357.244 347.96C357.216 347.955 357.19 347.949 357.165 347.942C357.162 347.941 357.16 347.941 357.158 347.94C357.131 347.933 357.105 347.924 357.079 347.915C357.077 347.914 357.075 347.914 357.072 347.913C357.048 347.903 357.024 347.893 357 347.881C356.996 347.88 356.993 347.878 356.991 347.877C356.969 347.867 356.948 347.854 356.927 347.842C356.923 347.839 356.918 347.837 356.914 347.835C356.894 347.823 356.874 347.81 356.856 347.796C356.851 347.793 356.846 347.79 356.841 347.786C356.818 347.768 356.795 347.75 356.774 347.73L354.77 345.901Z" fill="white"/>
</g>
<path d="M336.395 345.901C336.035 345.572 336.035 345.039 336.395 344.711C336.756 344.382 337.34 344.382 337.699 344.711L338.129 345.103V340.842C338.129 340.377 338.541 340 339.051 340C339.561 340 339.973 340.376 339.973 340.842V345.103L340.403 344.711C340.764 344.382 341.347 344.382 341.707 344.711C342.067 345.04 342.067 345.573 341.707 345.901L339.703 347.73C339.681 347.75 339.659 347.768 339.636 347.786C339.631 347.789 339.626 347.792 339.621 347.796C339.603 347.81 339.583 347.824 339.563 347.835C339.559 347.838 339.554 347.84 339.55 347.842C339.529 347.855 339.508 347.867 339.486 347.877C339.483 347.878 339.479 347.88 339.477 347.881C339.454 347.893 339.43 347.903 339.405 347.913C339.402 347.914 339.4 347.914 339.398 347.915C339.372 347.924 339.346 347.933 339.319 347.94C339.317 347.941 339.315 347.941 339.312 347.942C339.286 347.95 339.259 347.956 339.233 347.96C339.226 347.961 339.219 347.962 339.212 347.963C339.189 347.967 339.166 347.971 339.143 347.973C339.113 347.976 339.082 347.977 339.051 347.977C339.02 347.977 338.99 347.976 338.959 347.973C338.936 347.971 338.913 347.968 338.89 347.963C338.883 347.962 338.876 347.961 338.869 347.96C338.841 347.955 338.815 347.949 338.79 347.942C338.787 347.941 338.785 347.941 338.783 347.94C338.756 347.933 338.73 347.924 338.704 347.915C338.702 347.914 338.7 347.914 338.697 347.913C338.673 347.903 338.649 347.893 338.625 347.881C338.621 347.88 338.618 347.878 338.616 347.877C338.594 347.867 338.573 347.854 338.552 347.842C338.548 347.839 338.543 347.837 338.539 347.835C338.519 347.823 338.499 347.81 338.481 347.796C338.476 347.793 338.471 347.79 338.466 347.786C338.443 347.768 338.42 347.75 338.399 347.73L336.395 345.901Z" fill="white"/>
</g>
<path d="M338.237 372.119H357.763C358.996 372.119 360 371.092 360 369.806V363.032C360 362.981 359.99 362.93 359.971 362.882L356.18 353.377C355.853 352.476 355.013 351.881 354.088 351.881H341.912C340.987 351.881 340.147 352.476 339.819 353.378L336.029 362.887C336.01 362.933 336 362.983 336 363.032V369.806C336 371.092 337.004 372.119 338.237 372.119ZM340.578 353.673C340.579 353.669 340.581 353.669 340.582 353.665C340.792 353.082 341.326 352.695 341.912 352.695H354.088C354.673 352.695 355.207 353.076 355.417 353.66C355.419 353.664 355.42 353.674 355.422 353.678L359.019 362.712H355.78V358.629C355.78 358.405 355.577 358.237 355.353 358.237H353.949V355.336C353.949 355.112 353.747 354.932 353.522 354.932H342.478C342.253 354.932 342.051 355.112 342.051 355.336V358.237H340.952C340.728 358.237 340.525 358.405 340.525 358.629V362.712H336.981L340.578 353.673ZM353.136 358.237H342.864V355.746H353.136V358.237ZM354.966 359.051V362.712H341.339V359.051H354.966ZM336.814 363.525H359.186V369.806C359.186 370.644 358.548 371.305 357.763 371.305H338.237C337.452 371.305 336.814 370.644 336.814 369.806V363.525Z" fill="white" stroke="white"/>
<path d="M343.272 369.22H352.73C352.954 369.22 353.136 369.038 353.136 368.814V365.864C353.136 365.64 352.954 365.458 352.73 365.458H343.272C343.047 365.458 342.865 365.64 342.865 365.864V368.814C342.865 369.038 343.047 369.22 343.272 369.22ZM343.679 366.271H352.323V368.407H343.679V366.271Z" fill="white" stroke="white"/>
<circle cx="376" cy="131" r="24" fill="#6ED5D6"/>
<path d="M367.249 129C367.219 128.621 367.077 128.326 366.823 128.114C366.573 127.902 366.192 127.795 365.681 127.795C365.355 127.795 365.088 127.835 364.88 127.915C364.675 127.991 364.524 128.095 364.425 128.227C364.327 128.36 364.276 128.511 364.272 128.682C364.264 128.822 364.289 128.949 364.346 129.062C364.406 129.172 364.501 129.273 364.63 129.364C364.759 129.451 364.924 129.53 365.124 129.602C365.325 129.674 365.564 129.739 365.84 129.795L366.795 130C367.439 130.136 367.99 130.316 368.448 130.54C368.906 130.763 369.281 131.027 369.573 131.33C369.865 131.629 370.079 131.966 370.215 132.341C370.355 132.716 370.427 133.125 370.431 133.568C370.427 134.333 370.236 134.981 369.857 135.511C369.478 136.042 368.937 136.445 368.232 136.722C367.531 136.998 366.689 137.136 365.704 137.136C364.692 137.136 363.81 136.987 363.056 136.688C362.306 136.388 361.723 135.928 361.306 135.307C360.893 134.682 360.685 133.883 360.681 132.909H363.681C363.7 133.265 363.789 133.564 363.948 133.807C364.107 134.049 364.331 134.233 364.619 134.358C364.91 134.483 365.257 134.545 365.658 134.545C365.996 134.545 366.278 134.504 366.505 134.42C366.732 134.337 366.905 134.222 367.022 134.074C367.139 133.926 367.2 133.758 367.204 133.568C367.2 133.39 367.141 133.235 367.028 133.102C366.918 132.966 366.736 132.845 366.482 132.739C366.228 132.629 365.886 132.527 365.454 132.432L364.295 132.182C363.264 131.958 362.452 131.585 361.857 131.062C361.266 130.536 360.973 129.818 360.977 128.909C360.973 128.17 361.17 127.525 361.567 126.972C361.969 126.415 362.524 125.981 363.232 125.67C363.944 125.36 364.761 125.205 365.681 125.205C366.621 125.205 367.433 125.362 368.119 125.676C368.804 125.991 369.333 126.434 369.704 127.006C370.079 127.574 370.268 128.239 370.272 129H367.249ZM376.133 132.682H378.587L379.474 133.795L380.974 135.5L382.928 137.864H380.133L378.746 136.25L377.815 134.909L376.133 132.682ZM382.906 131.182C382.906 132.477 382.654 133.57 382.15 134.46C381.646 135.347 380.966 136.019 380.11 136.477C379.254 136.932 378.299 137.159 377.246 137.159C376.186 137.159 375.228 136.93 374.371 136.472C373.519 136.009 372.841 135.335 372.337 134.449C371.837 133.559 371.587 132.47 371.587 131.182C371.587 129.886 371.837 128.795 372.337 127.909C372.841 127.019 373.519 126.347 374.371 125.892C375.228 125.434 376.186 125.205 377.246 125.205C378.299 125.205 379.254 125.434 380.11 125.892C380.966 126.347 381.646 127.019 382.15 127.909C382.654 128.795 382.906 129.886 382.906 131.182ZM379.656 131.182C379.656 130.485 379.563 129.898 379.377 129.42C379.195 128.939 378.924 128.576 378.565 128.33C378.209 128.08 377.769 127.955 377.246 127.955C376.724 127.955 376.282 128.08 375.923 128.33C375.567 128.576 375.296 128.939 375.11 129.42C374.928 129.898 374.837 130.485 374.837 131.182C374.837 131.879 374.928 132.468 375.11 132.949C375.296 133.426 375.567 133.79 375.923 134.04C376.282 134.286 376.724 134.409 377.246 134.409C377.769 134.409 378.209 134.286 378.565 134.04C378.924 133.79 379.195 133.426 379.377 132.949C379.563 132.468 379.656 131.879 379.656 131.182ZM384.383 137V125.364H387.542V134.455H392.246V137H384.383Z" fill="white"/>
<g clip-path="url(#clip4_7281_18657)">
<rect x="297" y="107" width="48" height="48" rx="24" fill="#6ED5D6"/>
<path d="M310.612 127.909V125.364H320.725V127.909H317.225V137H314.112V127.909H310.612ZM328.187 129C328.156 128.621 328.014 128.326 327.761 128.114C327.511 127.902 327.13 127.795 326.619 127.795C326.293 127.795 326.026 127.835 325.817 127.915C325.613 127.991 325.461 128.095 325.363 128.227C325.264 128.36 325.213 128.511 325.21 128.682C325.202 128.822 325.227 128.949 325.283 129.062C325.344 129.172 325.439 129.273 325.567 129.364C325.696 129.451 325.861 129.53 326.062 129.602C326.263 129.674 326.501 129.739 326.778 129.795L327.732 130C328.376 130.136 328.927 130.316 329.386 130.54C329.844 130.763 330.219 131.027 330.511 131.33C330.802 131.629 331.016 131.966 331.153 132.341C331.293 132.716 331.365 133.125 331.369 133.568C331.365 134.333 331.174 134.981 330.795 135.511C330.416 136.042 329.874 136.445 329.17 136.722C328.469 136.998 327.626 137.136 326.641 137.136C325.63 137.136 324.747 136.987 323.994 136.688C323.244 136.388 322.66 135.928 322.244 135.307C321.831 134.682 321.622 133.883 321.619 132.909H324.619C324.638 133.265 324.727 133.564 324.886 133.807C325.045 134.049 325.268 134.233 325.556 134.358C325.848 134.483 326.194 134.545 326.596 134.545C326.933 134.545 327.215 134.504 327.442 134.42C327.67 134.337 327.842 134.222 327.96 134.074C328.077 133.926 328.138 133.758 328.141 133.568C328.138 133.39 328.079 133.235 327.965 133.102C327.855 132.966 327.674 132.845 327.42 132.739C327.166 132.629 326.823 132.527 326.391 132.432L325.232 132.182C324.202 131.958 323.389 131.585 322.795 131.062C322.204 130.536 321.91 129.818 321.914 128.909C321.91 128.17 322.107 127.525 322.505 126.972C322.906 126.415 323.461 125.981 324.17 125.67C324.882 125.36 325.698 125.205 326.619 125.205C327.558 125.205 328.371 125.362 329.056 125.676C329.742 125.991 330.27 126.434 330.641 127.006C331.016 127.574 331.206 128.239 331.21 129H328.187Z" fill="white"/>
</g>
<path d="M162.636 328.973C162.521 328.946 162.435 328.891 162.363 328.81C162.291 328.742 162.219 328.674 162.148 328.606C161.961 328.416 161.946 328.172 162.133 327.982C162.162 327.955 162.176 327.927 162.205 327.914C163.197 326.977 164.189 326.04 165.181 325.104C165.311 324.981 165.311 325.008 165.181 324.886C164.189 323.95 163.197 323.013 162.205 322.076C162.076 321.954 162.004 321.832 162.018 321.655C162.033 321.546 162.076 321.451 162.162 321.384C162.248 321.302 162.32 321.234 162.406 321.153C162.622 320.949 162.895 320.949 163.111 321.153C163.614 321.628 164.103 322.09 164.606 322.565C165.339 323.257 166.073 323.95 166.806 324.642C167.065 324.886 167.065 325.131 166.806 325.375C165.598 326.515 164.376 327.669 163.168 328.81C163.082 328.891 162.996 328.959 162.866 329C162.78 328.973 162.708 328.973 162.636 328.973Z" fill="#5072EB"/>
<path d="M162.636 174.973C162.521 174.946 162.435 174.891 162.363 174.81C162.291 174.742 162.219 174.674 162.148 174.606C161.961 174.416 161.946 174.172 162.133 173.982C162.162 173.955 162.176 173.927 162.205 173.914C163.197 172.977 164.189 172.04 165.181 171.104C165.311 170.981 165.311 171.008 165.181 170.886C164.189 169.95 163.197 169.013 162.205 168.076C162.076 167.954 162.004 167.832 162.018 167.655C162.033 167.546 162.076 167.451 162.162 167.384C162.248 167.302 162.32 167.234 162.406 167.153C162.622 166.949 162.895 166.949 163.111 167.153C163.614 167.628 164.103 168.09 164.606 168.565C165.339 169.257 166.073 169.95 166.806 170.642C167.065 170.886 167.065 171.131 166.806 171.375C165.598 172.515 164.376 173.669 163.168 174.81C163.082 174.891 162.996 174.959 162.866 175C162.78 174.973 162.708 174.973 162.636 174.973Z" fill="#5072EB"/>
<path d="M347.369 496.354C347.564 496.549 347.881 496.549 348.076 496.354L351.258 493.172C351.453 492.976 351.453 492.66 351.258 492.464C351.063 492.269 350.746 492.269 350.551 492.464L347.723 495.293L344.894 492.464C344.699 492.269 344.382 492.269 344.187 492.464C343.992 492.66 343.992 492.976 344.187 493.172L347.369 496.354ZM347.223 424L347.223 496L348.223 496L348.223 424L347.223 424Z" fill="#A4B6F4"/>
<path d="M394.233 451.101C397.471 448.777 401.934 448.919 404.712 451.697L441.816 488.8C444.828 491.813 444.728 496.72 441.477 499.417C387.005 544.599 307.868 544.764 253.571 499.816C250.317 497.123 250.216 492.214 253.229 489.201L290.527 451.902C293.304 449.126 297.765 448.983 301.006 451.301C328.764 471.164 366.402 471.083 394.233 451.101Z" fill="#F1F4FD" stroke="#A4B6F4"/>
<circle cx="348.723" cy="500" r="24" fill="#5072EB"/>
<g clip-path="url(#clip5_7281_18657)">
<path d="M348.723 500.5C346.994 500.5 345.58 502.019 345.58 503.875C345.58 505.731 346.994 507.25 348.723 507.25C350.451 507.25 351.866 505.731 351.866 503.875C351.866 502.019 350.451 500.5 348.723 500.5ZM358.991 493.808L354.871 489.384C354.473 488.954 353.869 488.688 353.245 488.688H340.866C339.13 488.688 337.723 490.198 337.723 492.063V508.938C337.723 510.802 339.13 512.313 340.866 512.313H356.58C358.316 512.313 359.723 510.802 359.723 508.938V495.643C359.723 494.973 359.472 494.325 358.991 493.808ZM344.008 491.219H351.08V495.438H344.008V491.219ZM357.366 508.938C357.366 509.403 357.014 509.781 356.58 509.781H340.866C340.432 509.781 340.08 509.403 340.08 508.938V492.063C340.08 491.596 340.432 491.219 340.866 491.219H341.651V496.703C341.651 497.402 342.179 497.969 342.83 497.969H352.258C352.911 497.969 353.437 497.404 353.437 496.703V491.423L357.28 495.55C357.336 495.606 357.366 495.691 357.366 495.77V508.938Z" fill="white"/>
</g>
<defs>
<clipPath id="clip0_7281_18657">
<rect width="28" height="28" fill="white" transform="translate(447 230)"/>
</clipPath>
<clipPath id="clip1_7281_18657">
<rect width="26" height="9" fill="white" transform="translate(335 340)"/>
</clipPath>
<clipPath id="clip2_7281_18657">
<rect width="6.47164" height="8.53211" fill="white" transform="translate(345 340)"/>
</clipPath>
<clipPath id="clip3_7281_18657">
<rect width="6.47164" height="8.53211" fill="white" transform="translate(354.125 340)"/>
</clipPath>
<clipPath id="clip4_7281_18657">
<rect x="297" y="107" width="48" height="48" rx="24" fill="white"/>
</clipPath>
<clipPath id="clip5_7281_18657">
<rect width="22" height="27" fill="white" transform="translate(337.723 487)"/>
</clipPath>
</defs>
</svg>
