<svg width="30" height="31" viewBox="0 0 30 31" fill="none" xmlns="http://www.w3.org/2000/svg">
<path d="M24.1448 19.755C23.8011 18.9393 23.2246 18.243 22.4874 17.753C21.7502 17.263 20.885 17.0011 19.9998 17C19.4331 16.9986 18.8713 17.1055 18.3448 17.315C17.6299 16.2744 16.6269 15.4649 15.4588 14.9857C14.2907 14.5066 13.0082 14.3786 11.7684 14.6174C10.5286 14.8562 9.38547 15.4515 8.47896 16.3303C7.57245 17.2091 6.94197 18.3333 6.66479 19.565C5.29634 19.7773 4.05832 20.4979 3.198 21.5831C2.33767 22.6682 1.91835 24.038 2.02379 25.4188C2.12923 26.7996 2.75166 28.0898 3.76677 29.0317C4.78189 29.9737 6.11497 30.498 7.49979 30.5H22.4998C23.8125 30.4976 25.081 30.0257 26.0762 29.1697C27.0713 28.3137 27.7275 27.1299 27.9262 25.8323C28.1248 24.5348 27.8528 23.2089 27.1594 22.0944C26.4659 20.9798 25.3966 20.1501 24.1448 19.755ZM22.4998 29.5H7.49979C6.34723 29.487 5.24361 29.0322 4.41648 28.2295C3.58936 27.4267 3.10181 26.3372 3.05436 25.1856C3.0069 24.0339 3.40318 22.908 4.16146 22.0399C4.91974 21.1718 5.98221 20.6278 7.12979 20.52C7.24089 20.5102 7.34554 20.4636 7.42708 20.3875C7.50862 20.3114 7.56237 20.2102 7.57979 20.1C7.76286 18.9867 8.28444 17.9568 9.0736 17.1504C9.86275 16.344 10.8812 15.8003 11.9903 15.5932C13.0994 15.3862 14.2454 15.5258 15.2723 15.9931C16.2993 16.4604 17.1573 17.2327 17.7298 18.205C17.7947 18.315 17.8993 18.3959 18.022 18.4313C18.1447 18.4666 18.2763 18.4536 18.3898 18.395C18.8334 18.1638 19.3216 18.0307 19.8212 18.0048C20.3208 17.9788 20.8202 18.0606 21.2854 18.2446C21.7506 18.4286 22.1708 18.7105 22.5175 19.0712C22.8642 19.4319 23.1293 19.8629 23.2948 20.335C23.322 20.4118 23.3678 20.4807 23.4279 20.5356C23.4881 20.5906 23.5608 20.6298 23.6398 20.65C24.6952 20.9295 25.613 21.5833 26.2222 22.4893C26.8313 23.3954 27.0903 24.4921 26.9508 25.5749C26.8113 26.6578 26.2829 27.653 25.464 28.3752C24.6451 29.0973 23.5916 29.4971 22.4998 29.5Z" fill="#5072EB"/>
<path d="M23.388 21.6195L23.135 22.587C23.7228 22.7405 24.2345 23.103 24.5743 23.6067C24.914 24.1103 25.0585 24.7206 24.9806 25.3231C24.9027 25.9256 24.6078 26.4791 24.1512 26.8798C23.6946 27.2805 23.1075 27.501 22.5 27.5V28.5C23.3507 28.5011 24.1726 28.192 24.8118 27.6307C25.451 27.0694 25.8637 26.2943 25.9725 25.4506C26.0814 24.6069 25.879 23.7525 25.4033 23.0473C24.9276 22.3421 24.2111 21.8345 23.388 21.6195Z" fill="#5072EB"/>
<path d="M4.99783 25.0001C5.00093 24.3745 5.23759 23.7727 5.6614 23.3125C6.08521 22.8523 6.66561 22.5671 7.28883 22.5126L7.20733 21.5161C6.31541 21.601 5.49003 22.0248 4.90118 22.7C4.31233 23.3753 4.00485 24.2506 4.04209 25.1458C4.07932 26.041 4.45843 26.8878 5.10133 27.5118C5.74422 28.1358 6.60194 28.4896 7.49783 28.5001V27.5001C6.83503 27.4993 6.1996 27.2357 5.73094 26.767C5.26227 26.2983 4.99862 25.6629 4.99783 25.0001Z" fill="#5072EB"/>
<path d="M8.5 27.5H10.5V28.5H8.5V27.5Z" fill="#5072EB"/>
<path d="M26 2H27V3H26V2Z" fill="#5072EB"/>
<path d="M28.9962 5.59V2C28.995 1.60254 28.8366 1.2217 28.5555 0.940651C28.2745 0.659604 27.8936 0.501187 27.4962 0.5H23.4962C23.0987 0.501187 22.7179 0.659604 22.4368 0.940651C22.1558 1.2217 21.9974 1.60254 21.9962 2V5.59C21.6655 5.70999 21.3875 5.94239 21.2108 6.24657C21.0341 6.55075 20.9699 6.90735 21.0295 7.25406C21.089 7.60076 21.2686 7.91549 21.5367 8.14324C21.8048 8.37099 22.1444 8.49727 22.4962 8.5H28.4962C28.8479 8.49727 29.1876 8.37099 29.4557 8.14324C29.7238 7.91549 29.9033 7.60076 29.9629 7.25406C30.0224 6.90735 29.9583 6.55075 29.7816 6.24657C29.6049 5.94239 29.3269 5.70999 28.9962 5.59ZM22.9962 2C22.9962 1.86739 23.0489 1.74021 23.1426 1.64645C23.2364 1.55268 23.3636 1.5 23.4962 1.5H27.4962C27.6288 1.5 27.756 1.55268 27.8497 1.64645C27.9435 1.74021 27.9962 1.86739 27.9962 2V5.5H22.9962V2ZM28.4962 7.5H22.4962C22.3636 7.5 22.2364 7.44732 22.1426 7.35355C22.0489 7.25979 21.9962 7.13261 21.9962 7C21.9962 6.86739 22.0489 6.74021 22.1426 6.64645C22.2364 6.55268 22.3636 6.5 22.4962 6.5H28.4962C28.6288 6.5 28.756 6.55268 28.8497 6.64645C28.9435 6.74021 28.9962 6.86739 28.9962 7C28.9962 7.13261 28.9435 7.25979 28.8497 7.35355C28.756 7.44732 28.6288 7.5 28.4962 7.5Z" fill="#5072EB"/>
<path d="M18.5 3H18V2C18 1.86739 17.9473 1.74021 17.8536 1.64645C17.7598 1.55268 17.6326 1.5 17.5 1.5H15V1C15 0.867392 14.9473 0.740215 14.8536 0.646447C14.7598 0.552678 14.6326 0.5 14.5 0.5H11.5C11.3674 0.5 11.2402 0.552678 11.1464 0.646447C11.0527 0.740215 11 0.867392 11 1V7C11 7.13261 11.0527 7.25979 11.1464 7.35355C11.2402 7.44732 11.3674 7.5 11.5 7.5H18.5C18.6326 7.5 18.7598 7.44732 18.8536 7.35355C18.9473 7.25979 19 7.13261 19 7V3.5C19 3.36739 18.9473 3.24021 18.8536 3.14645C18.7598 3.05268 18.6326 3 18.5 3ZM13 3C12.8674 3 12.7402 3.05268 12.6464 3.14645C12.5527 3.24021 12.5 3.36739 12.5 3.5V6.5H12V1.5H14V2C14 2.13261 14.0527 2.25979 14.1464 2.35355C14.2402 2.44732 14.3674 2.5 14.5 2.5H17V3H13ZM18 6.5H13.5V4H18V6.5Z" fill="#5072EB"/>
<path d="M2 2.5H3V3.5H2V2.5Z" fill="#5072EB"/>
<path d="M4 2.5H5V3.5H4V2.5Z" fill="#5072EB"/>
<path d="M6 2.5H7V3.5H6V2.5Z" fill="#5072EB"/>
<path d="M8.5 5.5C8.63261 5.5 8.75979 5.44732 8.85355 5.35355C8.94732 5.25979 9 5.13261 9 5V1C9 0.867392 8.94732 0.740215 8.85355 0.646447C8.75979 0.552678 8.63261 0.5 8.5 0.5H0.5C0.367392 0.5 0.240215 0.552678 0.146447 0.646447C0.0526784 0.740215 0 0.867392 0 1V5C0 5.13261 0.0526784 5.25979 0.146447 5.35355C0.240215 5.44732 0.367392 5.5 0.5 5.5H1V6.5H0.5C0.367392 6.5 0.240215 6.55268 0.146447 6.64645C0.0526784 6.74021 0 6.86739 0 7V11C0 11.1326 0.0526784 11.2598 0.146447 11.3536C0.240215 11.4473 0.367392 11.5 0.5 11.5H8.5C8.63261 11.5 8.75979 11.4473 8.85355 11.3536C8.94732 11.2598 9 11.1326 9 11V7C9 6.86739 8.94732 6.74021 8.85355 6.64645C8.75979 6.55268 8.63261 6.5 8.5 6.5H8V5.5H8.5ZM8 10.5H1V7.5H8V10.5ZM2 6.5V5.5H7V6.5H2ZM1 4.5V1.5H8V4.5H1Z" fill="#5072EB"/>
<path d="M2 8.5H3V9.5H2V8.5Z" fill="#5072EB"/>
<path d="M4 8.5H5V9.5H4V8.5Z" fill="#5072EB"/>
<path d="M6 8.5H7V9.5H6V8.5Z" fill="#5072EB"/>
<path d="M14.5 8.5H15.5V13.5H14.5V8.5Z" fill="#5072EB"/>
<path d="M22.0391 16.2825L25.0375 10.2855L25.9315 10.7325L22.9331 16.7295L22.0391 16.2825Z" fill="#5072EB"/>
<path d="M4.02344 12.6829L4.9519 12.3117L6.94974 17.309L6.02127 17.6801L4.02344 12.6829Z" fill="#5072EB"/>
</svg>
