<svg width="28" height="28" viewBox="0 0 28 28" fill="none" xmlns="http://www.w3.org/2000/svg">
<circle cx="14" cy="14" r="14" fill="#132B51" fill-opacity="0.2"/>
<circle cx="14" cy="14" r="13.5" stroke="#5072EB" stroke-opacity="0.5"/>
<g clip-path="url(#clip0_4907_5325)">
<mask id="path-3-inside-1_4907_5325" fill="white">
<path d="M21.7529 12.9025V12.9012L19.533 7.62914C19.4138 7.34655 19.2083 7.12423 18.9607 6.97256C18.9309 6.9408 18.8946 6.91358 18.8512 6.89543C18.8343 6.8883 18.8162 6.88895 18.798 6.88506C18.5077 6.75479 18.1758 6.71719 17.8511 6.80405L14.3252 7.74321V6.54673C14.3252 6.36784 14.18 6.22266 14.0011 6.22266C13.8222 6.22266 13.677 6.36784 13.677 6.54673V7.91627L9.96766 8.90405C9.29229 9.08358 8.7284 9.57553 8.45877 10.2191L6.24793 15.4957C6.23108 15.5359 6.22266 16.1348 6.22266 16.1348C6.22266 17.7098 7.38932 19.045 8.87942 19.174C8.96821 19.1817 9.05571 19.1856 9.14321 19.1856C9.87497 19.1856 10.5652 18.9186 11.1097 18.4189C11.7112 17.8673 12.056 17.0837 12.056 16.269C12.056 16.269 12.0463 15.5307 12.0281 15.4892L9.52043 9.8471C9.69867 9.69997 9.90738 9.59043 10.1342 9.53016L13.6764 8.58645V21.1301H9.13932C8.96043 21.1301 8.81525 21.2752 8.81525 21.4541C8.81525 21.633 8.96043 21.7782 9.13932 21.7782H18.8615C19.0404 21.7782 19.1856 21.633 19.1856 21.4541C19.1856 21.2752 19.0404 21.1301 18.8615 21.1301H14.3245V8.41469L18.0177 7.43145C18.1065 7.40747 18.1959 7.40293 18.2827 7.41071L15.9702 12.9031C15.9533 12.9427 15.9449 13.5422 15.9449 13.5422C15.9449 15.1172 17.1115 16.4524 18.6016 16.5814C18.6904 16.5891 18.7779 16.593 18.8654 16.593C19.5972 16.593 20.2875 16.326 20.8319 15.8263C21.4334 15.2747 21.7782 14.4911 21.7782 13.6764C21.7782 13.6764 21.7704 12.944 21.7529 12.9025ZM11.4078 16.269C11.4078 16.9035 11.1395 17.5127 10.6715 17.9418C10.1977 18.3767 9.58395 18.5848 8.93516 18.529C7.77756 18.4286 6.87016 17.3766 6.87016 16.1348V15.9455H11.4072V16.2696L11.4078 16.269ZM11.2335 15.2967H7.03414L9.05636 10.47L9.07192 10.4337L11.2335 15.2967ZM18.8453 7.74386C18.8765 7.78858 18.9134 7.82877 18.9348 7.88062L20.9654 12.7035H16.7564L18.8447 7.74321L18.8453 7.74386ZM21.1301 13.6764C21.1301 14.3109 20.8617 14.9202 20.3938 15.3492C19.92 15.7835 19.3055 15.9941 18.6574 15.9365C17.4998 15.836 16.5924 14.784 16.5924 13.5422V13.3529H21.1294V13.677L21.1301 13.6764Z"/>
</mask>
<path d="M21.7529 12.9025V12.9012L19.533 7.62914C19.4138 7.34655 19.2083 7.12423 18.9607 6.97256C18.9309 6.9408 18.8946 6.91358 18.8512 6.89543C18.8343 6.8883 18.8162 6.88895 18.798 6.88506C18.5077 6.75479 18.1758 6.71719 17.8511 6.80405L14.3252 7.74321V6.54673C14.3252 6.36784 14.18 6.22266 14.0011 6.22266C13.8222 6.22266 13.677 6.36784 13.677 6.54673V7.91627L9.96766 8.90405C9.29229 9.08358 8.7284 9.57553 8.45877 10.2191L6.24793 15.4957C6.23108 15.5359 6.22266 16.1348 6.22266 16.1348C6.22266 17.7098 7.38932 19.045 8.87942 19.174C8.96821 19.1817 9.05571 19.1856 9.14321 19.1856C9.87497 19.1856 10.5652 18.9186 11.1097 18.4189C11.7112 17.8673 12.056 17.0837 12.056 16.269C12.056 16.269 12.0463 15.5307 12.0281 15.4892L9.52043 9.8471C9.69867 9.69997 9.90738 9.59043 10.1342 9.53016L13.6764 8.58645V21.1301H9.13932C8.96043 21.1301 8.81525 21.2752 8.81525 21.4541C8.81525 21.633 8.96043 21.7782 9.13932 21.7782H18.8615C19.0404 21.7782 19.1856 21.633 19.1856 21.4541C19.1856 21.2752 19.0404 21.1301 18.8615 21.1301H14.3245V8.41469L18.0177 7.43145C18.1065 7.40747 18.1959 7.40293 18.2827 7.41071L15.9702 12.9031C15.9533 12.9427 15.9449 13.5422 15.9449 13.5422C15.9449 15.1172 17.1115 16.4524 18.6016 16.5814C18.6904 16.5891 18.7779 16.593 18.8654 16.593C19.5972 16.593 20.2875 16.326 20.8319 15.8263C21.4334 15.2747 21.7782 14.4911 21.7782 13.6764C21.7782 13.6764 21.7704 12.944 21.7529 12.9025ZM11.4078 16.269C11.4078 16.9035 11.1395 17.5127 10.6715 17.9418C10.1977 18.3767 9.58395 18.5848 8.93516 18.529C7.77756 18.4286 6.87016 17.3766 6.87016 16.1348V15.9455H11.4072V16.2696L11.4078 16.269ZM11.2335 15.2967H7.03414L9.05636 10.47L9.07192 10.4337L11.2335 15.2967ZM18.8453 7.74386C18.8765 7.78858 18.9134 7.82877 18.9348 7.88062L20.9654 12.7035H16.7564L18.8447 7.74321L18.8453 7.74386ZM21.1301 13.6764C21.1301 14.3109 20.8617 14.9202 20.3938 15.3492C19.92 15.7835 19.3055 15.9941 18.6574 15.9365C17.4998 15.836 16.5924 14.784 16.5924 13.5422V13.3529H21.1294V13.677L21.1301 13.6764Z" fill="#5072EB"/>
<path d="M21.7529 12.9025H0.4196V17.2183L2.09716 21.1947L21.7529 12.9025ZM21.7529 12.9012H43.0863V8.59291L41.4144 4.6223L21.7529 12.9012ZM19.533 7.62914L39.1944 -0.649739L39.1911 -0.657637L39.1878 -0.665532L19.533 7.62914ZM18.9607 6.97256L3.40715 21.5739L5.37076 23.6655L7.81719 25.1641L18.9607 6.97256ZM18.8512 6.89543L10.5389 26.5427L10.582 26.561L10.6252 26.579L18.8512 6.89543ZM18.798 6.88506L10.0653 26.3491L12.1229 27.2723L14.3281 27.7448L18.798 6.88506ZM17.8511 6.80405L23.342 27.4186L23.3526 27.4158L23.3632 27.413L17.8511 6.80405ZM14.3252 7.74321H-7.00818V35.5027L19.8161 28.3578L14.3252 7.74321ZM13.677 7.91627L19.1666 28.5312L35.0103 24.3121V7.91627H13.677ZM9.96766 8.90405L15.4484 29.5213L15.4573 29.519L9.96766 8.90405ZM8.45877 10.2191L28.1348 18.4632L28.1352 18.4622L8.45877 10.2191ZM6.24793 15.4957L25.9214 23.7459L25.924 23.7398L6.24793 15.4957ZM6.22266 16.1348L-15.1086 15.8347L-15.1107 15.9847V16.1348H6.22266ZM8.87942 19.174L10.7409 -2.07801L10.73 -2.07897L10.7191 -2.07991L8.87942 19.174ZM11.1097 18.4189L-3.30884 2.69572L-3.31593 2.70223L11.1097 18.4189ZM12.056 16.269H33.3893V16.1285L33.3875 15.988L12.056 16.269ZM12.0281 15.4892L31.5728 6.93843L31.5479 6.88151L31.5227 6.82473L12.0281 15.4892ZM9.52043 9.8471L-4.06019 -6.60519L-16.5538 3.70773L-9.97412 18.5116L9.52043 9.8471ZM10.1342 9.53016L15.6127 30.1481L15.6263 30.1444L10.1342 9.53016ZM13.6764 8.58645H35.0097V-19.1747L8.18425 -12.0278L13.6764 8.58645ZM13.6764 21.1301V42.4634H35.0097V21.1301H13.6764ZM14.3245 21.1301H-7.00883V42.4634H14.3245V21.1301ZM14.3245 8.41469L8.83604 -12.2005L-7.00883 -7.9821V8.41469H14.3245ZM18.0177 7.43145L23.5061 28.0467L23.543 28.0369L23.5799 28.0269L18.0177 7.43145ZM18.2827 7.41071L37.9443 15.6893L49.2796 -11.2322L20.1856 -13.8376L18.2827 7.41071ZM15.9702 12.9031L35.5952 21.2679L35.6135 21.2248L35.6317 21.1817L15.9702 12.9031ZM15.9449 13.5422L-5.38635 13.2424L-5.38846 13.3923V13.5422H15.9449ZM18.6016 16.5814L20.4631 -4.6706L20.4522 -4.67156L20.4414 -4.6725L18.6016 16.5814ZM20.8319 15.8263L6.41339 0.103124L6.40629 0.109635L20.8319 15.8263ZM21.7782 13.6764H43.1115V13.5631L43.1103 13.4498L21.7782 13.6764ZM11.4078 16.269H32.7412V-35.2516L-3.6807 1.1876L11.4078 16.269ZM10.6715 17.9418L-3.74589 2.21767L-3.75462 2.22569L10.6715 17.9418ZM8.93516 18.529L7.09065 39.7825L7.09985 39.7833L7.10905 39.7841L8.93516 18.529ZM6.87016 15.9455V-5.38781H-14.4632V15.9455H6.87016ZM11.4072 15.9455H32.7405V-5.38781H11.4072V15.9455ZM11.4072 16.2696H-9.92614V67.7902L26.4957 31.3509L11.4072 16.2696ZM11.2335 15.2967V36.6301H44.0617L30.7278 6.63172L11.2335 15.2967ZM7.03414 15.2967L-12.6421 7.05316L-25.0337 36.6301H7.03414V15.2967ZM9.05636 10.47L-10.5521 2.06642L-10.5863 2.14627L-10.6199 2.2264L9.05636 10.47ZM9.07192 10.4337L28.5662 1.76866L8.71536 -42.8914L-10.5365 2.03012L9.07192 10.4337ZM18.8453 7.74386L36.358 -4.43885L35.2748 -5.99593L33.9339 -7.33749L18.8453 7.74386ZM18.9348 7.88062L-0.786572 16.0157L-0.756957 16.0875L-0.72682 16.159L18.9348 7.88062ZM20.9654 12.7035V34.0368H53.0949L40.627 4.42506L20.9654 12.7035ZM16.7564 12.7035L-2.90549 4.42563L-15.3721 34.0368H16.7564V12.7035ZM18.8447 7.74321L33.9332 -7.33814L11.4974 -29.7846L-0.817152 -0.534649L18.8447 7.74321ZM21.1301 13.6764H42.4634V-37.8616L6.03793 -1.40139L21.1301 13.6764ZM20.3938 15.3492L34.8083 31.0761L34.8112 31.0734L20.3938 15.3492ZM18.6574 15.9365L20.5486 -5.31289L20.5252 -5.31497L20.5019 -5.31699L18.6574 15.9365ZM16.5924 13.3529V-7.9804H-4.74096V13.3529H16.5924ZM21.1294 13.3529H42.4627V-7.9804H21.1294V13.3529ZM21.1294 13.677H-0.203919V65.215L36.2216 28.7548L21.1294 13.677ZM43.0863 12.9025V12.9012H0.4196V12.9025H43.0863ZM41.4144 4.6223L39.1944 -0.649739L-0.128392 15.908L2.09152 21.1801L41.4144 4.6223ZM39.1878 -0.665532C37.1742 -5.4369 33.7842 -8.96478 30.1042 -11.219L7.81719 25.1641C4.6324 23.2132 1.65335 20.13 -0.121735 15.9238L39.1878 -0.665532ZM34.5143 -7.62874C32.7295 -9.52993 30.2743 -11.4521 27.0772 -12.7882L10.6252 26.579C7.51494 25.2792 5.13232 23.4115 3.40715 21.5739L34.5143 -7.62874ZM27.1635 -12.7519C24.4917 -13.8822 22.2174 -14.1791 21.7076 -14.2487C21.625 -14.2599 21.5572 -14.2687 21.5128 -14.2743C21.4705 -14.2797 21.4366 -14.2839 21.4322 -14.2844C21.3938 -14.2892 21.4985 -14.2764 21.6094 -14.2618C21.843 -14.2309 22.4727 -14.1451 23.268 -13.9747L14.3281 27.7448C15.1324 27.9172 15.7712 28.0043 16.0138 28.0364C16.1293 28.0517 16.2385 28.065 16.2046 28.0608C16.2024 28.0605 16.1708 28.0566 16.1307 28.0515C16.0885 28.0462 16.0229 28.0377 15.9426 28.0267C15.4506 27.9596 13.1938 27.666 10.5389 26.5427L27.1635 -12.7519ZM27.5308 -12.579C23.1093 -14.5627 17.7546 -15.2534 12.3389 -13.8049L23.3632 27.413C18.597 28.6878 13.906 28.0723 10.0653 26.3491L27.5308 -12.579ZM12.3602 -13.8105L8.83425 -12.8714L19.8161 28.3578L23.342 27.4186L12.3602 -13.8105ZM35.6585 7.74321V6.54673H-7.00818V7.74321H35.6585ZM35.6585 6.54673C35.6585 -5.41423 25.962 -15.1107 14.0011 -15.1107V27.556C2.3979 27.556 -7.00818 18.1499 -7.00818 6.54673H35.6585ZM14.0011 -15.1107C2.04012 -15.1107 -7.65633 -5.41423 -7.65633 6.54673H35.0103C35.0103 18.1499 25.6043 27.556 14.0011 27.556V-15.1107ZM-7.65633 6.54673V7.91627H35.0103V6.54673H-7.65633ZM8.18738 -12.6987L4.47803 -11.7109L15.4573 29.519L19.1666 28.5312L8.18738 -12.6987ZM4.48686 -11.7132C-2.58524 -9.83322 -8.39203 -4.76884 -11.2177 1.97604L28.1352 18.4622C25.8488 23.9199 21.1698 28.0004 15.4484 29.5213L4.48686 -11.7132ZM-11.2173 1.97507L-13.4281 7.25164L25.924 23.7398L28.1348 18.4632L-11.2173 1.97507ZM-13.4255 7.24554C-14.1639 9.00627 -14.4895 10.4679 -14.5857 10.9037C-14.7267 11.5425 -14.8098 12.0601 -14.8532 12.3501C-14.9407 12.9345 -14.9851 13.3991 -15.0033 13.5982C-15.0432 14.0362 -15.0618 14.39 -15.0686 14.5232C-15.0849 14.842 -15.093 15.1218 -15.0965 15.2497C-15.1008 15.4099 -15.1037 15.552 -15.1054 15.6449C-15.1063 15.694 -15.107 15.7358 -15.1076 15.7676C-15.1078 15.7836 -15.108 15.7974 -15.1082 15.8086C-15.1083 15.8143 -15.1083 15.8193 -15.1084 15.8236C-15.1084 15.8258 -15.1085 15.8278 -15.1085 15.8296C-15.1085 15.8306 -15.1085 15.8314 -15.1085 15.8323C-15.1085 15.8327 -15.1085 15.8331 -15.1086 15.8335C-15.1086 15.8337 -15.1086 15.834 -15.1086 15.8341C-15.1086 15.8344 -15.1086 15.8347 6.22266 16.1348C27.5539 16.4349 27.5539 16.4352 27.5539 16.4355C27.5539 16.4356 27.5539 16.4358 27.5539 16.436C27.5539 16.4364 27.5539 16.4367 27.5538 16.4371C27.5538 16.4378 27.5538 16.4384 27.5538 16.4391C27.5538 16.4403 27.5538 16.4415 27.5538 16.4425C27.5537 16.4446 27.5537 16.4462 27.5537 16.4475C27.5537 16.4499 27.5536 16.4508 27.5537 16.4503C27.5537 16.4492 27.5538 16.444 27.5539 16.4363C27.5543 16.4156 27.5546 16.4055 27.5544 16.4109C27.5543 16.4146 27.5537 16.4366 27.5524 16.4731C27.5513 16.5034 27.5483 16.586 27.5424 16.7019C27.5387 16.7732 27.5235 17.0737 27.4873 17.4712C27.471 17.6501 27.4285 18.0977 27.343 18.6689C27.3005 18.9523 27.2184 19.4643 27.0784 20.0985C26.9833 20.5297 26.6587 21.9877 25.9214 23.7459L-13.4255 7.24554ZM-15.1107 16.1348C-15.1107 27.8431 -6.38629 39.2657 7.03969 40.4278L10.7191 -2.07991C21.1649 -1.17573 27.556 7.57643 27.556 16.1348H-15.1107ZM7.01793 40.4259C7.70958 40.4865 8.41831 40.519 9.14321 40.519V-2.14772C9.69311 -2.14772 10.2268 -2.12304 10.7409 -2.07801L7.01793 40.4259ZM9.14321 40.519C15.2109 40.519 21.0506 38.2518 25.5353 34.1355L-3.31593 2.70223C0.0799165 -0.414676 4.53906 -2.14772 9.14321 -2.14772V40.519ZM25.5282 34.142C30.5294 29.5558 33.3893 23.0709 33.3893 16.269H-9.27734C-9.27734 11.0964 -7.10708 6.17881 -3.30884 2.69572L25.5282 34.142ZM12.056 16.269C33.3875 15.988 33.3875 15.9878 33.3875 15.9875C33.3875 15.9874 33.3875 15.9872 33.3875 15.987C33.3875 15.9866 33.3875 15.9863 33.3874 15.9859C33.3874 15.9851 33.3874 15.9843 33.3874 15.9835C33.3874 15.9817 33.3874 15.9798 33.3873 15.9777C33.3873 15.9735 33.3872 15.9685 33.3871 15.9628C33.387 15.9514 33.3868 15.937 33.3865 15.92C33.386 15.8863 33.3853 15.8412 33.3844 15.7881C33.3827 15.6866 33.3798 15.5346 33.3757 15.3665C33.3722 15.2282 33.3649 14.9511 33.3508 14.645C33.3449 14.5187 33.329 14.1833 33.2949 13.772C33.2799 13.5903 33.2408 13.1378 33.1617 12.5682C33.1231 12.2906 33.0442 11.7583 32.9048 11.0968C32.8298 10.7409 32.4752 9.00092 31.5728 6.93843L-7.51657 24.04C-8.41778 21.9801 -8.77133 20.2441 -8.84521 19.8935C-8.98348 19.2372 -9.06131 18.7114 -9.09883 18.4414C-9.17585 17.8872 -9.2128 17.4549 -9.22587 17.2972C-9.25596 16.9343 -9.26815 16.6634 -9.27052 16.6121C-9.27772 16.4561 -9.27921 16.3714 -9.27794 16.4228C-9.2774 16.4445 -9.27668 16.4796 -9.27603 16.5178C-9.27574 16.5346 -9.27554 16.5475 -9.27544 16.5543C-9.27539 16.5575 -9.27537 16.5591 -9.27538 16.5585C-9.27538 16.5582 -9.27539 16.5574 -9.27541 16.556C-9.27542 16.5552 -9.27544 16.5544 -9.27545 16.5534C-9.27546 16.5529 -9.27546 16.5523 -9.27547 16.5517C-9.27547 16.5515 -9.27548 16.5512 -9.27548 16.5508C-9.27548 16.5507 -9.27549 16.5504 -9.27549 16.5504C-9.27549 16.5501 -9.27549 16.5499 12.056 16.269ZM31.5227 6.82473L29.015 1.18261L-9.97412 18.5116L-7.46644 24.1537L31.5227 6.82473ZM23.1011 26.2994C20.9883 28.0433 18.4516 29.3937 15.6127 30.148L4.65576 -11.0877C1.36315 -10.2128 -1.59099 -8.6434 -4.06019 -6.60519L23.1011 26.2994ZM15.6263 30.1444L19.1685 29.2007L8.18425 -12.0278L4.64212 -11.0841L15.6263 30.1444ZM-7.65697 8.58645V21.1301H35.0097V8.58645H-7.65697ZM13.6764 -0.203271H9.13932V42.4634H13.6764V-0.203271ZM9.13932 -0.203271C-2.82164 -0.203271 -12.5181 9.49317 -12.5181 21.4541H30.1486C30.1486 33.0573 20.7425 42.4634 9.13932 42.4634V-0.203271ZM-12.5181 21.4541C-12.5181 33.4151 -2.82164 43.1115 9.13932 43.1115V0.444877C20.7425 0.444877 30.1486 9.85095 30.1486 21.4541H-12.5181ZM9.13932 43.1115H18.8615V0.444877H9.13932V43.1115ZM18.8615 43.1115C30.8225 43.1115 40.519 33.4151 40.519 21.4541H-2.14772C-2.14772 9.85095 7.25836 0.444877 18.8615 0.444877V43.1115ZM40.519 21.4541C40.519 9.49317 30.8225 -0.203271 18.8615 -0.203271V42.4634C7.25836 42.4634 -2.14772 33.0573 -2.14772 21.4541H40.519ZM18.8615 -0.203271H14.3245V42.4634H18.8615V-0.203271ZM35.6578 21.1301V8.41469H-7.00883V21.1301H35.6578ZM19.813 29.0299L23.5061 28.0467L12.5292 -13.1838L8.83604 -12.2005L19.813 29.0299ZM23.5799 28.0269C20.8107 28.7748 18.3176 28.8325 16.3799 28.659L20.1856 -13.8376C18.0741 -14.0267 15.4022 -13.9599 12.4554 -13.164L23.5799 28.0269ZM-1.37881 -0.867839L-3.6914 4.62457L35.6317 21.1817L37.9443 15.6893L-1.37881 -0.867839ZM-3.65487 4.53835C-4.42324 6.34105 -4.75903 7.8413 -4.85594 8.27705C-5.00013 8.9254 -5.08483 9.45057 -5.12881 9.7429C-5.21757 10.3328 -5.26242 10.8017 -5.28065 11.0013C-5.32085 11.4413 -5.33958 11.7968 -5.34638 11.9298C-5.36272 12.2491 -5.37077 12.5294 -5.37424 12.6572C-5.3786 12.8174 -5.38149 12.9597 -5.38321 13.0526C-5.38412 13.1017 -5.38483 13.1435 -5.38534 13.1754C-5.38559 13.1914 -5.3858 13.2052 -5.38597 13.2164C-5.38605 13.222 -5.38613 13.227 -5.38619 13.2314C-5.38622 13.2335 -5.38625 13.2355 -5.38628 13.2374C-5.38629 13.2383 -5.3863 13.2392 -5.38632 13.24C-5.38632 13.2404 -5.38633 13.2409 -5.38633 13.2412C-5.38634 13.2414 -5.38634 13.2417 -5.38634 13.2418C-5.38635 13.2421 -5.38635 13.2424 15.9449 13.5422C37.2761 13.842 37.2761 13.8423 37.2761 13.8425C37.2761 13.8426 37.2761 13.8429 37.2761 13.8431C37.2761 13.8434 37.2761 13.8438 37.2761 13.8441C37.2761 13.8448 37.2761 13.8455 37.276 13.8461C37.276 13.8474 37.276 13.8486 37.276 13.8496C37.276 13.8517 37.2759 13.8533 37.2759 13.8545C37.2759 13.8569 37.2759 13.8578 37.2759 13.8573C37.2759 13.8562 37.276 13.851 37.2761 13.8432C37.2765 13.8225 37.2768 13.8124 37.2766 13.8178C37.2765 13.8214 37.2759 13.8435 37.2746 13.8801C37.2736 13.9104 37.2705 13.9933 37.2646 14.1095C37.2609 14.1808 37.2456 14.4829 37.2091 14.8826C37.1927 15.0619 37.1498 15.5139 37.063 16.0907C37.02 16.3765 36.9363 16.8961 36.7931 17.5398C36.6973 17.971 36.3625 19.4677 35.5952 21.2679L-3.65487 4.53835ZM-5.38846 13.5422C-5.38846 25.2506 3.33594 36.6731 16.7619 37.8352L20.4414 -4.6725C30.8872 -3.76832 37.2782 4.98383 37.2782 13.5422H-5.38846ZM16.7402 37.8333C17.4318 37.8939 18.1405 37.9264 18.8654 37.9264V-4.74031C19.4153 -4.74031 19.9491 -4.71563 20.4631 -4.6706L16.7402 37.8333ZM18.8654 37.9264C24.9331 37.9264 30.7728 35.6593 35.2575 31.5429L6.40629 0.109635C9.80215 -3.00728 14.2613 -4.74031 18.8654 -4.74031V37.9264ZM35.2504 31.5494C40.2517 26.9632 43.1115 20.4783 43.1115 13.6764H0.444877C0.444877 8.50386 2.61513 3.58623 6.41339 0.103126L35.2504 31.5494ZM21.7782 13.6764C43.1103 13.4498 43.1103 13.4496 43.1103 13.4493C43.1103 13.4493 43.1103 13.449 43.1103 13.4488C43.1103 13.4485 43.1103 13.4481 43.1103 13.4477C43.1103 13.447 43.1103 13.4462 43.1103 13.4454C43.1103 13.4437 43.1103 13.4418 43.1102 13.4397C43.1102 13.4356 43.1101 13.4307 43.1101 13.4251C43.1099 13.4138 43.1098 13.3997 43.1096 13.3829C43.1092 13.3497 43.1086 13.3052 43.1078 13.2527C43.1064 13.1525 43.104 13.0026 43.1003 12.8369C43.0973 12.7003 43.0909 12.4283 43.0781 12.1282C43.0728 12.0042 43.0583 11.6765 43.0267 11.2748C43.0127 11.0971 42.9766 10.6561 42.9026 10.1007C42.8665 9.82983 42.7927 9.31138 42.662 8.66676C42.5915 8.31961 42.2593 6.62636 41.4087 4.61019L2.09716 21.1947C1.24769 19.1812 0.916499 17.4919 0.847127 17.1499C0.717407 16.5105 0.644683 15.9985 0.609618 15.7353C0.537659 15.1952 0.503487 14.7742 0.491397 14.6205C0.463575 14.2667 0.452586 14.0031 0.450465 13.9536C0.443995 13.8025 0.442802 13.7213 0.443936 13.773C0.444432 13.7956 0.445065 13.8314 0.44562 13.8698C0.445864 13.8867 0.446031 13.8997 0.446116 13.9067C0.446157 13.91 0.446176 13.9117 0.44617 13.9112C0.446167 13.9109 0.446158 13.9102 0.446144 13.9088C0.446136 13.9081 0.446127 13.9073 0.446116 13.9063C0.446111 13.9058 0.446105 13.9053 0.446099 13.9047C0.446096 13.9044 0.446093 13.9041 0.44609 13.9038C0.446088 13.9037 0.446086 13.9034 0.446085 13.9034C0.446083 13.9031 0.44608 13.9029 21.7782 13.6764ZM-9.92549 16.269C-9.92549 10.9144 -7.67734 5.82242 -3.74589 2.21767L25.089 33.666C29.9564 29.2031 32.7412 22.8926 32.7412 16.269H-9.92549ZM-3.75462 2.22569C0.223594 -1.426 5.52325 -3.17601 10.7613 -2.72599L7.10905 39.7841C13.6447 40.3456 20.1719 38.1795 25.0977 33.658L-3.75462 2.22569ZM10.7797 -2.7244C21.797 -1.76825 28.2035 7.50188 28.2035 16.1348H-14.4632C-14.4632 27.2514 -6.24183 38.6254 7.09065 39.7825L10.7797 -2.7244ZM28.2035 16.1348V15.9455H-14.4632V16.1348H28.2035ZM6.87016 37.2789H11.4072V-5.38781H6.87016V37.2789ZM-9.92614 15.9455V16.2696H32.7405V15.9455H-9.92614ZM26.4957 31.3509L26.4964 31.3503L-3.6807 1.1876L-3.68135 1.18825L26.4957 31.3509ZM11.2335 -6.0366H7.03414V36.6301H11.2335V-6.0366ZM26.7104 23.5403L28.7326 18.7135L-10.6199 2.2264L-12.6421 7.05316L26.7104 23.5403ZM28.6648 18.8735L28.6804 18.8372L-10.5365 2.03012L-10.5521 2.06642L28.6648 18.8735ZM-10.4224 19.0987L-8.26084 23.9617L30.7278 6.63172L28.5662 1.76866L-10.4224 19.0987ZM1.3327 19.9266C1.58988 20.2963 1.8122 20.5894 1.81996 20.5997C1.89629 20.7012 1.71537 20.4631 1.53408 20.2093C1.13683 19.6532 0.0976267 18.1592 -0.786572 16.0157L38.6561 -0.254441C37.7506 -2.4498 36.6822 -3.98982 36.2533 -4.59021C36.0563 -4.86613 35.8589 -5.12585 35.9189 -5.04609C35.9224 -5.0415 35.9763 -4.96986 36.0446 -4.877C36.1163 -4.77948 36.2266 -4.62775 36.358 -4.43885L1.3327 19.9266ZM-0.72682 16.159L1.30383 20.9819L40.627 4.42506L38.5964 -0.397811L-0.72682 16.159ZM20.9654 -8.62984H16.7564V34.0368H20.9654V-8.62984ZM36.4182 20.9813L38.5065 16.0211L-0.817152 -0.534649L-2.90549 4.42563L36.4182 20.9813ZM3.75615 22.8246L3.7568 22.8252L33.9339 -7.33749L33.9332 -7.33814L3.75615 22.8246ZM-0.203271 13.6764C-0.203271 8.32184 2.04487 3.22984 5.97634 -0.374917L34.8112 31.0734C39.6786 26.6105 42.4634 20.3 42.4634 13.6764H-0.203271ZM5.97928 -0.377618C9.90901 -3.97942 15.2073 -5.78827 20.5486 -5.31289L16.7662 37.1858C23.4038 37.7765 29.9309 35.5464 34.8083 31.0761L5.97928 -0.377618ZM20.5019 -5.31699C31.5192 -4.36084 37.9257 4.9093 37.9257 13.5422H-4.74096C-4.74096 24.6588 3.48038 36.0328 16.8129 37.1899L20.5019 -5.31699ZM37.9257 13.5422V13.3529H-4.74096V13.5422H37.9257ZM16.5924 34.6863H21.1294V-7.9804H16.5924V34.6863ZM-0.203919 13.3529V13.677H42.4627V13.3529H-0.203919ZM36.2216 28.7548L36.2222 28.7541L6.03793 -1.40139L6.03728 -1.40074L36.2216 28.7548Z" fill="#5072EB" fill-opacity="0.6" mask="url(#path-3-inside-1_4907_5325)"/>
</g>
<defs>
<clipPath id="clip0_4907_5325">
<rect width="15.5556" height="15.5556" fill="white" transform="translate(6.22266 6.22266)"/>
</clipPath>
</defs>
</svg>
