<svg width="16" height="16" viewBox="0 0 16 16" fill="none" xmlns="http://www.w3.org/2000/svg">
<mask id="path-1-inside-1_5057_7342" fill="white">
<path d="M15.7529 6.90247V6.90117L13.533 1.62914C13.4138 1.34655 13.2083 1.12423 12.9607 0.972564C12.9309 0.940804 12.8946 0.913582 12.8512 0.895434C12.8343 0.888304 12.8162 0.888952 12.798 0.885064C12.5077 0.754786 12.1758 0.717193 11.8511 0.804045L8.32516 1.74321V0.54673C8.32516 0.367841 8.17997 0.222656 8.00108 0.222656C7.82219 0.222656 7.67701 0.367841 7.67701 0.54673V1.91627L3.96766 2.90405C3.29229 3.08358 2.7284 3.57553 2.45877 4.21914L0.247934 9.49571C0.231082 9.5359 0.222656 10.1348 0.222656 10.1348C0.222656 11.7098 1.38932 13.045 2.87942 13.174C2.96821 13.1817 3.05571 13.1856 3.14321 13.1856C3.87497 13.1856 4.56525 12.9186 5.10969 12.4189C5.71117 11.8673 6.05599 11.0837 6.05599 10.269C6.05599 10.269 6.04627 9.53071 6.02812 9.48923L3.52043 3.8471C3.69867 3.69997 3.90738 3.59043 4.13423 3.53016L7.67636 2.58645V15.1301H3.13932C2.96043 15.1301 2.81525 15.2752 2.81525 15.4541C2.81525 15.633 2.96043 15.7782 3.13932 15.7782H12.8615C13.0404 15.7782 13.1856 15.633 13.1856 15.4541C13.1856 15.2752 13.0404 15.1301 12.8615 15.1301H8.32451V2.41469L12.0177 1.43145C12.1065 1.40747 12.1959 1.40293 12.2827 1.41071L9.97016 6.90312C9.9533 6.94266 9.94488 7.54219 9.94488 7.54219C9.94488 9.11719 11.1115 10.4524 12.6016 10.5814C12.6904 10.5891 12.7779 10.593 12.8654 10.593C13.5972 10.593 14.2875 10.326 14.8319 9.82627C15.4334 9.27469 15.7782 8.49108 15.7782 7.67636C15.7782 7.67636 15.7704 6.94395 15.7529 6.90247ZM5.40784 10.269C5.40784 10.9035 5.13951 11.5127 4.67155 11.9418C4.19775 12.3767 3.58395 12.5848 2.93516 12.529C1.77756 12.4286 0.870156 11.3766 0.870156 10.1348V9.94553H5.40719V10.2696L5.40784 10.269ZM5.23349 9.29673H1.03414L3.05636 4.46997L3.07192 4.43367L5.23349 9.29673ZM12.8453 1.74386C12.8765 1.78858 12.9134 1.82877 12.9348 1.88062L14.9654 6.70349H10.7564L12.8447 1.74321L12.8453 1.74386ZM15.1301 7.67636C15.1301 8.3109 14.8617 8.92016 14.3938 9.34923C13.92 9.78349 13.3055 9.99414 12.6574 9.93645C11.4998 9.83599 10.5924 8.78405 10.5924 7.54219V7.35293H15.1294V7.67701L15.1301 7.67636Z"/>
</mask>
<path d="M15.7529 6.90247V6.90117L13.533 1.62914C13.4138 1.34655 13.2083 1.12423 12.9607 0.972564C12.9309 0.940804 12.8946 0.913582 12.8512 0.895434C12.8343 0.888304 12.8162 0.888952 12.798 0.885064C12.5077 0.754786 12.1758 0.717193 11.8511 0.804045L8.32516 1.74321V0.54673C8.32516 0.367841 8.17997 0.222656 8.00108 0.222656C7.82219 0.222656 7.67701 0.367841 7.67701 0.54673V1.91627L3.96766 2.90405C3.29229 3.08358 2.7284 3.57553 2.45877 4.21914L0.247934 9.49571C0.231082 9.5359 0.222656 10.1348 0.222656 10.1348C0.222656 11.7098 1.38932 13.045 2.87942 13.174C2.96821 13.1817 3.05571 13.1856 3.14321 13.1856C3.87497 13.1856 4.56525 12.9186 5.10969 12.4189C5.71117 11.8673 6.05599 11.0837 6.05599 10.269C6.05599 10.269 6.04627 9.53071 6.02812 9.48923L3.52043 3.8471C3.69867 3.69997 3.90738 3.59043 4.13423 3.53016L7.67636 2.58645V15.1301H3.13932C2.96043 15.1301 2.81525 15.2752 2.81525 15.4541C2.81525 15.633 2.96043 15.7782 3.13932 15.7782H12.8615C13.0404 15.7782 13.1856 15.633 13.1856 15.4541C13.1856 15.2752 13.0404 15.1301 12.8615 15.1301H8.32451V2.41469L12.0177 1.43145C12.1065 1.40747 12.1959 1.40293 12.2827 1.41071L9.97016 6.90312C9.9533 6.94266 9.94488 7.54219 9.94488 7.54219C9.94488 9.11719 11.1115 10.4524 12.6016 10.5814C12.6904 10.5891 12.7779 10.593 12.8654 10.593C13.5972 10.593 14.2875 10.326 14.8319 9.82627C15.4334 9.27469 15.7782 8.49108 15.7782 7.67636C15.7782 7.67636 15.7704 6.94395 15.7529 6.90247ZM5.40784 10.269C5.40784 10.9035 5.13951 11.5127 4.67155 11.9418C4.19775 12.3767 3.58395 12.5848 2.93516 12.529C1.77756 12.4286 0.870156 11.3766 0.870156 10.1348V9.94553H5.40719V10.2696L5.40784 10.269ZM5.23349 9.29673H1.03414L3.05636 4.46997L3.07192 4.43367L5.23349 9.29673ZM12.8453 1.74386C12.8765 1.78858 12.9134 1.82877 12.9348 1.88062L14.9654 6.70349H10.7564L12.8447 1.74321L12.8453 1.74386ZM15.1301 7.67636C15.1301 8.3109 14.8617 8.92016 14.3938 9.34923C13.92 9.78349 13.3055 9.99414 12.6574 9.93645C11.4998 9.83599 10.5924 8.78405 10.5924 7.54219V7.35293H15.1294V7.67701L15.1301 7.67636Z" fill="#5072EB"/>
</svg>
