<svg width="16" height="16" viewBox="0 0 16 16" fill="none" xmlns="http://www.w3.org/2000/svg">
<mask id="path-1-inside-1_5057_7342" fill="white">
<path d="M15.7529 6.90247V6.90117L13.533 1.62914C13.4138 1.34655 13.2083 1.12423 12.9607 0.972564C12.9309 0.940804 12.8946 0.913582 12.8512 0.895434C12.8343 0.888304 12.8162 0.888952 12.798 0.885064C12.5077 0.754786 12.1758 0.717193 11.8511 0.804045L8.32516 1.74321V0.54673C8.32516 0.367841 8.17997 0.222656 8.00108 0.222656C7.82219 0.222656 7.67701 0.367841 7.67701 0.54673V1.91627L3.96766 2.90405C3.29229 3.08358 2.7284 3.57553 2.45877 4.21914L0.247934 9.49571C0.231082 9.5359 0.222656 10.1348 0.222656 10.1348C0.222656 11.7098 1.38932 13.045 2.87942 13.174C2.96821 13.1817 3.05571 13.1856 3.14321 13.1856C3.87497 13.1856 4.56525 12.9186 5.10969 12.4189C5.71117 11.8673 6.05599 11.0837 6.05599 10.269C6.05599 10.269 6.04627 9.53071 6.02812 9.48923L3.52043 3.8471C3.69867 3.69997 3.90738 3.59043 4.13423 3.53016L7.67636 2.58645V15.1301H3.13932C2.96043 15.1301 2.81525 15.2752 2.81525 15.4541C2.81525 15.633 2.96043 15.7782 3.13932 15.7782H12.8615C13.0404 15.7782 13.1856 15.633 13.1856 15.4541C13.1856 15.2752 13.0404 15.1301 12.8615 15.1301H8.32451V2.41469L12.0177 1.43145C12.1065 1.40747 12.1959 1.40293 12.2827 1.41071L9.97016 6.90312C9.9533 6.94266 9.94488 7.54219 9.94488 7.54219C9.94488 9.11719 11.1115 10.4524 12.6016 10.5814C12.6904 10.5891 12.7779 10.593 12.8654 10.593C13.5972 10.593 14.2875 10.326 14.8319 9.82627C15.4334 9.27469 15.7782 8.49108 15.7782 7.67636C15.7782 7.67636 15.7704 6.94395 15.7529 6.90247ZM5.40784 10.269C5.40784 10.9035 5.13951 11.5127 4.67155 11.9418C4.19775 12.3767 3.58395 12.5848 2.93516 12.529C1.77756 12.4286 0.870156 11.3766 0.870156 10.1348V9.94553H5.40719V10.2696L5.40784 10.269ZM5.23349 9.29673H1.03414L3.05636 4.46997L3.07192 4.43367L5.23349 9.29673ZM12.8453 1.74386C12.8765 1.78858 12.9134 1.82877 12.9348 1.88062L14.9654 6.70349H10.7564L12.8447 1.74321L12.8453 1.74386ZM15.1301 7.67636C15.1301 8.3109 14.8617 8.92016 14.3938 9.34923C13.92 9.78349 13.3055 9.99414 12.6574 9.93645C11.4998 9.83599 10.5924 8.78405 10.5924 7.54219V7.35293H15.1294V7.67701L15.1301 7.67636Z"/>
</mask>
<path d="M15.7529 6.90247V6.90117L13.533 1.62914C13.4138 1.34655 13.2083 1.12423 12.9607 0.972564C12.9309 0.940804 12.8946 0.913582 12.8512 0.895434C12.8343 0.888304 12.8162 0.888952 12.798 0.885064C12.5077 0.754786 12.1758 0.717193 11.8511 0.804045L8.32516 1.74321V0.54673C8.32516 0.367841 8.17997 0.222656 8.00108 0.222656C7.82219 0.222656 7.67701 0.367841 7.67701 0.54673V1.91627L3.96766 2.90405C3.29229 3.08358 2.7284 3.57553 2.45877 4.21914L0.247934 9.49571C0.231082 9.5359 0.222656 10.1348 0.222656 10.1348C0.222656 11.7098 1.38932 13.045 2.87942 13.174C2.96821 13.1817 3.05571 13.1856 3.14321 13.1856C3.87497 13.1856 4.56525 12.9186 5.10969 12.4189C5.71117 11.8673 6.05599 11.0837 6.05599 10.269C6.05599 10.269 6.04627 9.53071 6.02812 9.48923L3.52043 3.8471C3.69867 3.69997 3.90738 3.59043 4.13423 3.53016L7.67636 2.58645V15.1301H3.13932C2.96043 15.1301 2.81525 15.2752 2.81525 15.4541C2.81525 15.633 2.96043 15.7782 3.13932 15.7782H12.8615C13.0404 15.7782 13.1856 15.633 13.1856 15.4541C13.1856 15.2752 13.0404 15.1301 12.8615 15.1301H8.32451V2.41469L12.0177 1.43145C12.1065 1.40747 12.1959 1.40293 12.2827 1.41071L9.97016 6.90312C9.9533 6.94266 9.94488 7.54219 9.94488 7.54219C9.94488 9.11719 11.1115 10.4524 12.6016 10.5814C12.6904 10.5891 12.7779 10.593 12.8654 10.593C13.5972 10.593 14.2875 10.326 14.8319 9.82627C15.4334 9.27469 15.7782 8.49108 15.7782 7.67636C15.7782 7.67636 15.7704 6.94395 15.7529 6.90247ZM5.40784 10.269C5.40784 10.9035 5.13951 11.5127 4.67155 11.9418C4.19775 12.3767 3.58395 12.5848 2.93516 12.529C1.77756 12.4286 0.870156 11.3766 0.870156 10.1348V9.94553H5.40719V10.2696L5.40784 10.269ZM5.23349 9.29673H1.03414L3.05636 4.46997L3.07192 4.43367L5.23349 9.29673ZM12.8453 1.74386C12.8765 1.78858 12.9134 1.82877 12.9348 1.88062L14.9654 6.70349H10.7564L12.8447 1.74321L12.8453 1.74386ZM15.1301 7.67636C15.1301 8.3109 14.8617 8.92016 14.3938 9.34923C13.92 9.78349 13.3055 9.99414 12.6574 9.93645C11.4998 9.83599 10.5924 8.78405 10.5924 7.54219V7.35293H15.1294V7.67701L15.1301 7.67636Z" fill="#5072EB"/>
<path d="M15.7529 6.90247H-5.5804V11.2183L-3.90284 15.1947L15.7529 6.90247ZM15.7529 6.90117H37.0863V2.59291L35.4144 -1.3777L15.7529 6.90117ZM13.533 1.62914L33.1944 -6.64974L33.1911 -6.65764L33.1878 -6.66553L13.533 1.62914ZM12.9607 0.972564L-2.59285 15.5739L-0.629242 17.6655L1.81719 19.1641L12.9607 0.972564ZM12.8512 0.895434L4.53885 20.5427L4.58198 20.561L4.62519 20.579L12.8512 0.895434ZM12.798 0.885064L4.06526 20.3491L6.12289 21.2723L8.32807 21.7448L12.798 0.885064ZM11.8511 0.804045L17.342 21.4186L17.3526 21.4158L17.3632 21.413L11.8511 0.804045ZM8.32516 1.74321H-13.0082V29.5027L13.8161 22.3578L8.32516 1.74321ZM7.67701 1.91627L13.1666 22.5312L29.0103 18.3121V1.91627H7.67701ZM3.96766 2.90405L9.44845 23.5213L9.45728 23.519L3.96766 2.90405ZM2.45877 4.21914L22.1348 12.4632L22.1352 12.4622L2.45877 4.21914ZM0.247934 9.49571L19.9214 17.7459L19.924 17.7398L0.247934 9.49571ZM0.222656 10.1348L-21.1086 9.83467L-21.1107 9.98472V10.1348H0.222656ZM2.87942 13.174L4.7409 -8.07801L4.73002 -8.07897L4.71914 -8.07991L2.87942 13.174ZM5.10969 12.4189L-9.30884 -3.30428L-9.31593 -3.29777L5.10969 12.4189ZM6.05599 10.269H27.3893V10.1285L27.3875 9.98802L6.05599 10.269ZM6.02812 9.48923L25.5728 0.938428L25.5479 0.881508L25.5227 0.824735L6.02812 9.48923ZM3.52043 3.8471L-10.0602 -12.6052L-22.5538 -2.29227L-15.9741 12.5116L3.52043 3.8471ZM4.13423 3.53016L9.6127 24.1481L9.62634 24.1444L4.13423 3.53016ZM7.67636 2.58645H29.0097V-25.1747L2.18425 -18.0278L7.67636 2.58645ZM7.67636 15.1301V36.4634H29.0097V15.1301H7.67636ZM8.32451 15.1301H-13.0088V36.4634H8.32451V15.1301ZM8.32451 2.41469L2.83604 -18.2005L-13.0088 -13.9821V2.41469H8.32451ZM12.0177 1.43145L17.5061 22.0467L17.543 22.0369L17.5799 22.0269L12.0177 1.43145ZM12.2827 1.41071L31.9443 9.68926L43.2796 -17.2322L14.1856 -19.8376L12.2827 1.41071ZM9.97016 6.90312L29.5952 15.2679L29.6135 15.2248L29.6317 15.1817L9.97016 6.90312ZM9.94488 7.54219L-11.3863 7.24241L-11.3885 7.3923V7.54219H9.94488ZM12.6016 10.5814L14.4631 -10.6706L14.4522 -10.6716L14.4414 -10.6725L12.6016 10.5814ZM14.8319 9.82627L0.413386 -5.89688L0.406292 -5.89036L14.8319 9.82627ZM15.7782 7.67636H37.1115V7.56309L37.1103 7.44983L15.7782 7.67636ZM5.40784 10.269H26.7412V-41.2516L-9.6807 -4.8124L5.40784 10.269ZM4.67155 11.9418L-9.74589 -3.78233L-9.75462 -3.77431L4.67155 11.9418ZM2.93516 12.529L1.09065 33.7825L1.09985 33.7833L1.10905 33.7841L2.93516 12.529ZM0.870156 9.94553V-11.3878H-20.4632V9.94553H0.870156ZM5.40719 9.94553H26.7405V-11.3878H5.40719V9.94553ZM5.40719 10.2696H-15.9261V61.7902L20.4957 25.3509L5.40719 10.2696ZM5.23349 9.29673V30.6301H38.0617L24.7278 0.631719L5.23349 9.29673ZM1.03414 9.29673L-18.6421 1.05316L-31.0337 30.6301H1.03414V9.29673ZM3.05636 4.46997L-16.5521 -3.93358L-16.5863 -3.85373L-16.6199 -3.7736L3.05636 4.46997ZM3.07192 4.43367L22.5662 -4.23134L2.71536 -48.8914L-16.5365 -3.96988L3.07192 4.43367ZM12.8453 1.74386L30.358 -10.4388L29.2748 -11.9959L27.9339 -13.3375L12.8453 1.74386ZM12.9348 1.88062L-6.78657 10.0157L-6.75696 10.0875L-6.72682 10.159L12.9348 1.88062ZM14.9654 6.70349V28.0368H47.0949L34.627 -1.57494L14.9654 6.70349ZM10.7564 6.70349L-8.90549 -1.57437L-21.3721 28.0368H10.7564V6.70349ZM12.8447 1.74321L27.9332 -13.3381L5.49743 -35.7846L-6.81715 -6.53465L12.8447 1.74321ZM15.1301 7.67636H36.4634V-43.8616L0.037926 -7.40139L15.1301 7.67636ZM14.3938 9.34923L28.8083 25.0761L28.8112 25.0734L14.3938 9.34923ZM12.6574 9.93645L14.5486 -11.3129L14.5252 -11.315L14.5019 -11.317L12.6574 9.93645ZM10.5924 7.35293V-13.9804H-10.741V7.35293H10.5924ZM15.1294 7.35293H36.4627V-13.9804H15.1294V7.35293ZM15.1294 7.67701H-6.20392V59.215L30.2216 22.7548L15.1294 7.67701ZM37.0863 6.90247V6.90117H-5.5804V6.90247H37.0863ZM35.4144 -1.3777L33.1944 -6.64974L-6.12839 9.90801L-3.90848 15.1801L35.4144 -1.3777ZM33.1878 -6.66553C31.1742 -11.4369 27.7842 -14.9648 24.1042 -17.219L1.81719 19.1641C-1.3676 17.2132 -4.34665 14.13 -6.12173 9.92381L33.1878 -6.66553ZM28.5143 -13.6287C26.7295 -15.5299 24.2743 -17.4521 21.0772 -18.7882L4.62519 20.579C1.51494 19.2792 -0.867684 17.4115 -2.59285 15.5739L28.5143 -13.6287ZM21.1635 -18.7519C18.4917 -19.8822 16.2174 -20.1791 15.7076 -20.2487C15.625 -20.2599 15.5572 -20.2687 15.5128 -20.2743C15.4705 -20.2797 15.4366 -20.2839 15.4322 -20.2844C15.3938 -20.2892 15.4985 -20.2764 15.6094 -20.2618C15.843 -20.2309 16.4727 -20.1451 17.268 -19.9747L8.32807 21.7448C9.13239 21.9172 9.77118 22.0043 10.0138 22.0364C10.1293 22.0517 10.2385 22.065 10.2046 22.0608C10.2024 22.0605 10.1708 22.0566 10.1307 22.0515C10.0885 22.0462 10.0229 22.0377 9.9426 22.0267C9.4506 21.9596 7.19377 21.666 4.53885 20.5427L21.1635 -18.7519ZM21.5308 -18.579C17.1093 -20.5627 11.7546 -21.2534 6.33892 -19.8049L17.3632 21.413C12.597 22.6878 7.90598 22.0723 4.06526 20.3491L21.5308 -18.579ZM6.36017 -19.8105L2.83425 -18.8714L13.8161 22.3578L17.342 21.4186L6.36017 -19.8105ZM29.6585 1.74321V0.54673H-13.0082V1.74321H29.6585ZM29.6585 0.54673C29.6585 -11.4142 19.962 -21.1107 8.00108 -21.1107V21.556C-3.6021 21.556 -13.0082 12.1499 -13.0082 0.54673H29.6585ZM8.00108 -21.1107C-3.95988 -21.1107 -13.6563 -11.4142 -13.6563 0.54673H29.0103C29.0103 12.1499 19.6043 21.556 8.00108 21.556V-21.1107ZM-13.6563 0.54673V1.91627H29.0103V0.54673H-13.6563ZM2.18738 -18.6987L-1.52197 -17.7109L9.45728 23.519L13.1666 22.5312L2.18738 -18.6987ZM-1.51314 -17.7132C-8.58524 -15.8332 -14.392 -10.7688 -17.2177 -4.02396L22.1352 12.4622C19.8488 17.9199 15.1698 22.0004 9.44845 23.5213L-1.51314 -17.7132ZM-17.2173 -4.02493L-19.4281 1.25164L19.924 17.7398L22.1348 12.4632L-17.2173 -4.02493ZM-19.4255 1.24554C-20.1639 3.00627 -20.4895 4.46788 -20.5857 4.90366C-20.7267 5.54245 -20.8098 6.06012 -20.8532 6.35011C-20.9407 6.9345 -20.9851 7.39914 -21.0033 7.59824C-21.0432 8.03621 -21.0618 8.39004 -21.0686 8.52315C-21.0849 8.84202 -21.093 9.12183 -21.0965 9.24973C-21.1008 9.40986 -21.1037 9.55203 -21.1054 9.64488C-21.1063 9.69396 -21.107 9.73583 -21.1076 9.76763C-21.1078 9.78365 -21.108 9.79743 -21.1082 9.80865C-21.1083 9.81426 -21.1083 9.81926 -21.1084 9.82361C-21.1084 9.82578 -21.1085 9.82779 -21.1085 9.82964C-21.1085 9.83056 -21.1085 9.83144 -21.1085 9.83228C-21.1085 9.8327 -21.1085 9.83311 -21.1086 9.83351C-21.1086 9.83371 -21.1086 9.834 -21.1086 9.8341C-21.1086 9.83438 -21.1086 9.83467 0.222656 10.1348C21.5539 10.4349 21.5539 10.4352 21.5539 10.4355C21.5539 10.4356 21.5539 10.4358 21.5539 10.436C21.5539 10.4364 21.5539 10.4367 21.5538 10.4371C21.5538 10.4378 21.5538 10.4384 21.5538 10.4391C21.5538 10.4403 21.5538 10.4415 21.5538 10.4425C21.5537 10.4446 21.5537 10.4462 21.5537 10.4475C21.5537 10.4499 21.5536 10.4508 21.5537 10.4503C21.5537 10.4492 21.5538 10.444 21.5539 10.4363C21.5543 10.4156 21.5546 10.4055 21.5544 10.4109C21.5543 10.4146 21.5537 10.4366 21.5524 10.4731C21.5513 10.5034 21.5483 10.586 21.5424 10.7019C21.5387 10.7732 21.5235 11.0737 21.4873 11.4712C21.471 11.6501 21.4285 12.0977 21.343 12.6689C21.3005 12.9523 21.2184 13.4643 21.0784 14.0985C20.9833 14.5297 20.6587 15.9877 19.9214 17.7459L-19.4255 1.24554ZM-21.1107 10.1348C-21.1107 21.8431 -12.3863 33.2657 1.03969 34.4278L4.71914 -8.07991C15.1649 -7.17573 21.556 1.57643 21.556 10.1348H-21.1107ZM1.01793 34.4259C1.70958 34.4865 2.41831 34.519 3.14321 34.519V-8.14772C3.69311 -8.14772 4.22684 -8.12304 4.7409 -8.07801L1.01793 34.4259ZM3.14321 34.519C9.21089 34.519 15.0506 32.2518 19.5353 28.1355L-9.31593 -3.29777C-5.92008 -6.41468 -1.46094 -8.14772 3.14321 -8.14772V34.519ZM19.5282 28.142C24.5294 23.5558 27.3893 17.0709 27.3893 10.269H-15.2773C-15.2773 5.09644 -13.1071 0.178809 -9.30884 -3.30428L19.5282 28.142ZM6.05599 10.269C27.3875 9.98802 27.3875 9.98777 27.3875 9.98752C27.3875 9.98743 27.3875 9.98717 27.3875 9.98699C27.3875 9.98664 27.3875 9.98627 27.3874 9.98589C27.3874 9.98513 27.3874 9.98431 27.3874 9.98345C27.3874 9.98173 27.3874 9.97982 27.3873 9.97771C27.3873 9.9735 27.3872 9.96851 27.3871 9.9628C27.387 9.9514 27.3868 9.93702 27.3865 9.92005C27.386 9.8863 27.3853 9.8412 27.3844 9.78807C27.3827 9.68657 27.3798 9.53459 27.3757 9.36648C27.3722 9.22816 27.3649 8.95109 27.3508 8.64499C27.3449 8.51866 27.329 8.18335 27.2949 7.77204C27.2799 7.59026 27.2408 7.13783 27.1617 6.56825C27.1231 6.29058 27.0442 5.75826 26.9048 5.09677C26.8298 4.74093 26.4752 3.00092 25.5728 0.938428L-13.5166 18.04C-14.4178 15.9801 -14.7713 14.2441 -14.8452 13.8935C-14.9835 13.2372 -15.0613 12.7114 -15.0988 12.4414C-15.1759 11.8872 -15.2128 11.4549 -15.2259 11.2972C-15.256 10.9343 -15.2682 10.6634 -15.2705 10.6121C-15.2777 10.4561 -15.2792 10.3714 -15.2779 10.4228C-15.2774 10.4445 -15.2767 10.4796 -15.276 10.5178C-15.2757 10.5346 -15.2755 10.5475 -15.2754 10.5543C-15.2754 10.5575 -15.2754 10.5591 -15.2754 10.5585C-15.2754 10.5582 -15.2754 10.5574 -15.2754 10.556C-15.2754 10.5552 -15.2754 10.5544 -15.2754 10.5534C-15.2755 10.5529 -15.2755 10.5523 -15.2755 10.5517C-15.2755 10.5515 -15.2755 10.5512 -15.2755 10.5508C-15.2755 10.5507 -15.2755 10.5504 -15.2755 10.5504C-15.2755 10.5501 -15.2755 10.5499 6.05599 10.269ZM25.5227 0.824735L23.015 -4.81739L-15.9741 12.5116L-13.4664 18.1537L25.5227 0.824735ZM17.1011 20.2994C14.9883 22.0433 12.4516 23.3937 9.6127 24.148L-1.34424 -17.0877C-4.63685 -16.2128 -7.59099 -14.6434 -10.0602 -12.6052L17.1011 20.2994ZM9.62634 24.1444L13.1685 23.2007L2.18425 -18.0278L-1.35788 -17.0841L9.62634 24.1444ZM-13.657 2.58645V15.1301H29.0097V2.58645H-13.657ZM7.67636 -6.20327H3.13932V36.4634H7.67636V-6.20327ZM3.13932 -6.20327C-8.82164 -6.20327 -18.5181 3.49317 -18.5181 15.4541H24.1486C24.1486 27.0573 14.7425 36.4634 3.13932 36.4634V-6.20327ZM-18.5181 15.4541C-18.5181 27.4151 -8.82164 37.1115 3.13932 37.1115V-5.55512C14.7425 -5.55512 24.1486 3.85095 24.1486 15.4541H-18.5181ZM3.13932 37.1115H12.8615V-5.55512H3.13932V37.1115ZM12.8615 37.1115C24.8225 37.1115 34.519 27.4151 34.519 15.4541H-8.14772C-8.14772 3.85095 1.25836 -5.55512 12.8615 -5.55512V37.1115ZM34.519 15.4541C34.519 3.49317 24.8225 -6.20327 12.8615 -6.20327V36.4634C1.25836 36.4634 -8.14772 27.0573 -8.14772 15.4541H34.519ZM12.8615 -6.20327H8.32451V36.4634H12.8615V-6.20327ZM29.6578 15.1301V2.41469H-13.0088V15.1301H29.6578ZM13.813 23.0299L17.5061 22.0467L6.52918 -19.1838L2.83604 -18.2005L13.813 23.0299ZM17.5799 22.0269C14.8107 22.7748 12.3176 22.8325 10.3799 22.659L14.1856 -19.8376C12.0741 -20.0267 9.40221 -19.9599 6.45538 -19.164L17.5799 22.0269ZM-7.37881 -6.86784L-9.6914 -1.37543L29.6317 15.1817L31.9443 9.68926L-7.37881 -6.86784ZM-9.65487 -1.46165C-10.4232 0.341053 -10.759 1.8413 -10.8559 2.27705C-11.0001 2.9254 -11.0848 3.45057 -11.1288 3.7429C-11.2176 4.3328 -11.2624 4.80174 -11.2806 5.00126C-11.3208 5.4413 -11.3396 5.79678 -11.3464 5.92976C-11.3627 6.24913 -11.3708 6.52939 -11.3742 6.65721C-11.3786 6.81742 -11.3815 6.95967 -11.3832 7.05256C-11.3841 7.10166 -11.3848 7.14355 -11.3853 7.17536C-11.3856 7.19139 -11.3858 7.20517 -11.386 7.21639C-11.3861 7.22201 -11.3861 7.22701 -11.3862 7.23135C-11.3862 7.23352 -11.3863 7.23554 -11.3863 7.23738C-11.3863 7.2383 -11.3863 7.23918 -11.3863 7.24002C-11.3863 7.24044 -11.3863 7.24085 -11.3863 7.24125C-11.3863 7.24145 -11.3863 7.24174 -11.3863 7.24184C-11.3863 7.24213 -11.3863 7.24241 9.94488 7.54219C31.2761 7.84197 31.2761 7.84225 31.2761 7.84253C31.2761 7.84262 31.2761 7.8429 31.2761 7.84308C31.2761 7.84344 31.2761 7.8438 31.2761 7.84415C31.2761 7.84484 31.2761 7.8455 31.276 7.84614C31.276 7.8474 31.276 7.84856 31.276 7.84959C31.276 7.85166 31.2759 7.85329 31.2759 7.85451C31.2759 7.85693 31.2759 7.85779 31.2759 7.85735C31.2759 7.85622 31.276 7.85096 31.2761 7.84323C31.2765 7.82247 31.2768 7.81238 31.2766 7.81776C31.2765 7.82142 31.2759 7.84352 31.2746 7.88008C31.2736 7.91039 31.2705 7.99333 31.2646 8.10955C31.2609 8.18076 31.2456 8.48291 31.2091 8.88261C31.1927 9.06194 31.1498 9.51395 31.063 10.0907C31.02 10.3765 30.9363 10.8961 30.7931 11.5398C30.6973 11.971 30.3625 13.4677 29.5952 15.2679L-9.65487 -1.46165ZM-11.3885 7.54219C-11.3885 19.2506 -2.66406 30.6731 10.7619 31.8352L14.4414 -10.6725C24.8872 -9.76832 31.2782 -1.01617 31.2782 7.54219H-11.3885ZM10.7402 31.8333C11.4318 31.8939 12.1405 31.9264 12.8654 31.9264V-10.7403C13.4153 -10.7403 13.9491 -10.7156 14.4631 -10.6706L10.7402 31.8333ZM12.8654 31.9264C18.9331 31.9264 24.7728 29.6593 29.2575 25.5429L0.406292 -5.89036C3.80215 -9.00728 8.26129 -10.7403 12.8654 -10.7403V31.9264ZM29.2504 25.5494C34.2517 20.9632 37.1115 14.4783 37.1115 7.67636H-5.55512C-5.55512 2.50386 -3.38487 -2.41377 0.413387 -5.89687L29.2504 25.5494ZM15.7782 7.67636C37.1103 7.44983 37.1103 7.44959 37.1103 7.44934C37.1103 7.44925 37.1103 7.449 37.1103 7.44882C37.1103 7.44848 37.1103 7.44812 37.1103 7.44774C37.1103 7.447 37.1103 7.4462 37.1103 7.44536C37.1103 7.44367 37.1103 7.44179 37.1102 7.43972C37.1102 7.43559 37.1101 7.43069 37.1101 7.42507C37.1099 7.41385 37.1098 7.39967 37.1096 7.38294C37.1092 7.34967 37.1086 7.30516 37.1078 7.25272C37.1064 7.1525 37.104 7.0026 37.1003 6.83693C37.0973 6.70031 37.0909 6.42828 37.0781 6.1282C37.0728 6.00415 37.0583 5.67652 37.0267 5.27482C37.0127 5.09712 36.9766 4.65606 36.9026 4.10066C36.8665 3.82983 36.7927 3.31138 36.662 2.66676C36.5915 2.31961 36.2593 0.626363 35.4087 -1.38981L-3.90284 15.1947C-4.75231 13.1812 -5.0835 11.4919 -5.15287 11.1499C-5.28259 10.5105 -5.35532 9.99853 -5.39038 9.73533C-5.46234 9.19522 -5.49651 8.77415 -5.5086 8.62045C-5.53642 8.26674 -5.54741 8.00313 -5.54954 7.95359C-5.55601 7.80249 -5.5572 7.72134 -5.55606 7.77301C-5.55557 7.79562 -5.55494 7.83143 -5.55438 7.86982C-5.55414 7.88669 -5.55397 7.89973 -5.55388 7.90668C-5.55384 7.91005 -5.55382 7.91165 -5.55383 7.91118C-5.55383 7.91094 -5.55384 7.91015 -5.55386 7.90879C-5.55386 7.90811 -5.55387 7.90728 -5.55388 7.9063C-5.55389 7.90581 -5.55389 7.90528 -5.5539 7.90471C-5.5539 7.90443 -5.55391 7.90413 -5.55391 7.90383C-5.55391 7.90368 -5.55391 7.90344 -5.55392 7.90336C-5.55392 7.90313 -5.55392 7.90289 15.7782 7.67636ZM-15.9255 10.269C-15.9255 4.91442 -13.6773 -0.177581 -9.74589 -3.78233L19.089 27.666C23.9564 23.2031 26.7412 16.8926 26.7412 10.269H-15.9255ZM-9.75462 -3.77431C-5.77641 -7.426 -0.476752 -9.17601 4.76126 -8.72599L1.10905 33.7841C7.64466 34.3456 14.1719 32.1795 19.0977 27.658L-9.75462 -3.77431ZM4.77966 -8.7244C15.797 -7.76825 22.2035 1.50188 22.2035 10.1348H-20.4632C-20.4632 21.2514 -12.2418 32.6254 1.09065 33.7825L4.77966 -8.7244ZM22.2035 10.1348V9.94553H-20.4632V10.1348H22.2035ZM0.870156 31.2789H5.40719V-11.3878H0.870156V31.2789ZM-15.9261 9.94553V10.2696H26.7405V9.94553H-15.9261ZM20.4957 25.3509L20.4964 25.3503L-9.6807 -4.8124L-9.68135 -4.81175L20.4957 25.3509ZM5.23349 -12.0366H1.03414V30.6301H5.23349V-12.0366ZM20.7104 17.5403L22.7326 12.7135L-16.6199 -3.7736L-18.6421 1.05316L20.7104 17.5403ZM22.6648 12.8735L22.6804 12.8372L-16.5365 -3.96988L-16.5521 -3.93358L22.6648 12.8735ZM-16.4224 13.0987L-14.2608 17.9617L24.7278 0.631719L22.5662 -4.23134L-16.4224 13.0987ZM-4.6673 13.9266C-4.41012 14.2963 -4.1878 14.5894 -4.18004 14.5997C-4.10371 14.7012 -4.28463 14.4631 -4.46592 14.2093C-4.86317 13.6532 -5.90237 12.1592 -6.78657 10.0157L32.6561 -6.25444C31.7506 -8.4498 30.6822 -9.98982 30.2533 -10.5902C30.0563 -10.8661 29.8589 -11.1258 29.9189 -11.0461C29.9224 -11.0415 29.9763 -10.9699 30.0446 -10.877C30.1163 -10.7795 30.2266 -10.6277 30.358 -10.4388L-4.6673 13.9266ZM-6.72682 10.159L-4.69617 14.9819L34.627 -1.57494L32.5964 -6.39781L-6.72682 10.159ZM14.9654 -14.6298H10.7564V28.0368H14.9654V-14.6298ZM30.4182 14.9813L32.5065 10.0211L-6.81715 -6.53465L-8.90549 -1.57437L30.4182 14.9813ZM-2.24385 16.8246L-2.2432 16.8252L27.9339 -13.3375L27.9332 -13.3381L-2.24385 16.8246ZM-6.20327 7.67636C-6.20327 2.32184 -3.95513 -2.77016 -0.0236645 -6.37492L28.8112 25.0734C33.6786 20.6105 36.4634 14.3 36.4634 7.67636H-6.20327ZM-0.0207181 -6.37762C3.90901 -9.97942 9.20726 -11.7883 14.5486 -11.3129L10.7662 31.1858C17.4038 31.7765 23.9309 29.5464 28.8083 25.0761L-0.0207181 -6.37762ZM14.5019 -11.317C25.5192 -10.3608 31.9257 -1.0907 31.9257 7.54219H-10.741C-10.741 18.6588 -2.51962 30.0328 10.8129 31.1899L14.5019 -11.317ZM31.9257 7.54219V7.35293H-10.741V7.54219H31.9257ZM10.5924 28.6863H15.1294V-13.9804H10.5924V28.6863ZM-6.20392 7.35293V7.67701H36.4627V7.35293H-6.20392ZM30.2216 22.7548L30.2222 22.7541L0.037926 -7.40139L0.0372782 -7.40074L30.2216 22.7548Z" fill="#5072EB" fill-opacity="0.6" mask="url(#path-1-inside-1_5057_7342)"/>
</svg>
