<svg width="32" height="32" viewBox="0 0 32 32" fill="none" xmlns="http://www.w3.org/2000/svg">
<g clip-path="url(#clip0_11406_25779)">
<path fill-rule="evenodd" clip-rule="evenodd" d="M28.5923 30.6493H3.41757C2.26623 30.6493 1.35547 29.7214 1.35547 28.5872V3.41244C1.35547 2.2611 2.26623 1.35034 3.41757 1.35034H28.5923C29.7265 1.35034 30.6544 2.2611 30.6544 3.41244V28.5872C30.6544 29.7214 29.7265 30.6493 28.5923 30.6493ZM3.41757 2.38139C2.83331 2.38139 2.38652 2.82818 2.38652 3.41244V5.3027H29.6234V3.41244C29.6234 2.82818 29.1766 2.38139 28.5923 2.38139H3.41757ZM2.38652 6.33374V28.5872C2.38652 29.1715 2.83331 29.6183 3.41757 29.6183H28.5923C29.1766 29.6183 29.6234 29.1715 29.6234 28.5872V6.33374H2.38652ZM15.9964 27.2125C15.8761 27.2125 15.7386 27.1609 15.6355 27.0578L6.97468 18.3798C6.08111 17.3316 5.58277 15.9912 5.58277 14.5649C5.58277 9.22068 12.0096 6.86645 15.5668 10.4236L15.9964 10.8532L16.4431 10.4236C20.0003 6.84927 26.41 9.22068 26.41 14.5649C26.41 16.1459 25.8085 17.6237 24.7259 18.7063L16.3744 27.0578C16.2713 27.1609 16.1338 27.2125 15.9964 27.2125ZM11.4254 9.77057C7.21526 9.77057 5.25627 14.5649 7.67923 17.6065H13.8999L16.151 14.3244C16.4431 13.912 17.0961 14.1182 17.0961 14.6165V19.6343L18.6084 17.366C18.7115 17.2285 18.8661 17.1426 19.038 17.1426H21.4437C22.1139 17.1426 22.1139 18.1736 21.4437 18.1736H19.3129L17.0102 21.6104C16.7181 22.0229 16.0651 21.8338 16.0651 21.3183V16.2834L14.5873 18.4142C14.5013 18.5517 14.3295 18.6376 14.1748 18.6376H8.65873L15.9964 25.9752L23.987 17.9846C25.8429 16.1287 25.8429 13.0012 23.987 11.1625C22.1483 9.3066 19.0208 9.3066 17.1649 11.1625C15.8761 12.4341 16.1166 12.4513 14.8278 11.1625C13.9171 10.2345 12.6626 9.77057 11.4254 9.77057Z" fill="#5072EB" stroke="#5072EB" stroke-width="0.8"/>
</g>
<defs>
<clipPath id="clip0_11406_25779">
<rect width="32" height="32" fill="white"/>
</clipPath>
</defs>
</svg>
