<svg width="29" height="28" viewBox="0 0 29 28" fill="none" xmlns="http://www.w3.org/2000/svg">
<path d="M27.7383 25.8125H26.8633V16.4062C26.8633 14.597 25.3913 13.125 23.582 13.125C21.7728 13.125 20.3008 14.597 20.3008 16.4062V25.8125H18.1133V22.9688C18.1133 21.1595 16.6413 19.6875 14.832 19.6875C13.0227 19.6875 11.5508 21.1595 11.5508 22.9688V25.8125H9.36328V16.4062C9.36328 14.597 7.89131 13.125 6.08203 13.125C4.27275 13.125 2.80078 14.597 2.80078 16.4062V25.8125H1.92578C1.3217 25.8125 0.832031 26.3022 0.832031 26.9062C0.832031 27.5103 1.3217 28 1.92578 28H27.7383C28.3424 28 28.832 27.5103 28.832 26.9062C28.832 26.3022 28.3424 25.8125 27.7383 25.8125ZM22.4883 16.4062C22.4883 15.8032 22.9789 15.3125 23.582 15.3125C24.1851 15.3125 24.6758 15.8032 24.6758 16.4062V25.8125H22.4883V16.4062ZM13.7383 22.9688C13.7383 22.3657 14.2289 21.875 14.832 21.875C15.4351 21.875 15.9258 22.3657 15.9258 22.9688V25.8125H13.7383V22.9688ZM4.98828 16.4062C4.98828 15.8032 5.47894 15.3125 6.08203 15.3125C6.68512 15.3125 7.17578 15.8032 7.17578 16.4062V25.8125H4.98828V16.4062Z" fill="currentColor"/>
<path d="M6.08203 10.9375C6.75376 10.9375 7.37878 10.7343 7.89946 10.3865L11.7008 13.2375C11.6034 13.5475 11.5508 13.8771 11.5508 14.2188C11.5508 16.028 13.0227 17.5 14.832 17.5C16.6413 17.5 18.1133 16.028 18.1133 14.2188C18.1133 12.4095 16.6413 10.9375 14.832 10.9375C14.1603 10.9375 13.5353 11.1407 13.0146 11.4885L9.21327 8.63751C9.31062 8.32754 9.36328 7.99794 9.36328 7.65625C9.36328 5.84697 7.89131 4.375 6.08203 4.375C4.27275 4.375 2.80078 5.84697 2.80078 7.65625C2.80078 9.46553 4.27275 10.9375 6.08203 10.9375ZM15.9258 14.2188C15.9258 14.8218 15.4351 15.3125 14.832 15.3125C14.2289 15.3125 13.7383 14.8218 13.7383 14.2188C13.7383 13.6157 14.2289 13.125 14.832 13.125C15.4351 13.125 15.9258 13.6157 15.9258 14.2188ZM6.08203 6.5625C6.68512 6.5625 7.17578 7.05316 7.17578 7.65625C7.17578 8.25934 6.68512 8.75 6.08203 8.75C5.47894 8.75 4.98828 8.25934 4.98828 7.65625C4.98828 7.05316 5.47894 6.5625 6.08203 6.5625Z" fill="currentColor"/>
<path d="M23.5818 0C21.7725 0 20.3006 1.47197 20.3006 3.28125C20.3006 3.91639 20.4825 4.50953 20.7962 5.01244L18.0757 8.41307C17.6983 8.88475 17.7748 9.57305 18.2464 9.95039C18.7181 10.3278 19.4064 10.2513 19.7838 9.77955L22.5037 6.37962C22.8417 6.49759 23.2042 6.5625 23.5818 6.5625C25.3911 6.5625 26.8631 5.09053 26.8631 3.28125C26.8631 1.47197 25.3911 0 23.5818 0ZM23.5818 4.375C22.9787 4.375 22.4881 3.88434 22.4881 3.28125C22.4881 2.67816 22.9787 2.1875 23.5818 2.1875C24.1849 2.1875 24.6756 2.67816 24.6756 3.28125C24.6756 3.88434 24.1849 4.375 23.5818 4.375Z" fill="currentColor"/>
</svg>
