<svg width="29" height="28" viewBox="0 0 29 28" fill="none" xmlns="http://www.w3.org/2000/svg">
<g clip-path="url(#clip0_9208_34060)">
<path d="M20.6844 0.291626C16.426 0.291626 13.1594 2.09996 13.1594 4.49163V11.9C13.1594 14.1166 15.9594 15.8083 19.8094 16.0416V23.1C19.226 23.3333 18.701 23.8 18.4677 24.4416H9.60104C9.36771 23.8583 8.90104 23.3333 8.25938 23.1V20.3583H11.351C12.8094 20.3583 13.976 19.1916 13.976 17.7333C13.976 16.8 13.451 15.925 12.6344 15.4583C12.3427 13.3583 10.5344 11.725 8.31771 11.725C6.56771 11.725 5.05104 12.775 4.35104 14.2916C4.17604 14.2333 4.00104 14.2333 3.82604 14.2333C2.13437 14.2333 0.734375 15.6333 0.734375 17.325C0.734375 19.0166 2.13437 20.4166 3.82604 20.4166H6.45104V23.1583C5.86771 23.3916 5.34271 23.8583 5.10938 24.5H1.66771C1.20104 24.5 0.792708 24.9083 0.792708 25.375C0.792708 25.8416 1.20104 26.25 1.66771 26.25H5.16771C5.51771 27.125 6.39271 27.7666 7.38438 27.7666C8.37604 27.7666 9.25104 27.125 9.60104 26.25H18.526C18.876 27.125 19.751 27.7666 20.7427 27.7666C21.7344 27.7666 22.6094 27.125 22.9594 26.25H27.3344C27.801 26.25 28.2094 25.8416 28.2094 25.375C28.2094 24.9083 27.801 24.5 27.3344 24.5H22.901C22.6677 23.9166 22.201 23.3916 21.5594 23.1583V16.0416C25.4094 15.8083 28.2094 14.1166 28.2094 11.9V4.49163C28.2094 2.09996 25.001 0.291626 20.6844 0.291626ZM2.54271 17.2666C2.54271 16.5083 3.12604 15.925 3.88437 15.925C4.11771 15.925 4.35104 15.9833 4.52604 16.1C4.75938 16.2166 5.05104 16.275 5.34271 16.1583C5.57604 16.0416 5.75104 15.8083 5.80938 15.5166C6.04271 14.2916 7.15104 13.4166 8.37604 13.4166C9.83438 13.4166 11.001 14.5833 11.001 16.0416C11.001 16.45 11.2927 16.8 11.6427 16.8583C11.9927 16.975 12.2844 17.325 12.2844 17.675C12.2844 18.1416 11.876 18.55 11.4094 18.55H3.88437C3.12604 18.6083 2.54271 18.025 2.54271 17.2666ZM25.6427 9.39163C24.651 10.0916 22.901 10.6166 20.7427 10.6166C17.476 10.6166 14.9677 9.33329 14.9677 8.16663C14.9677 7.87496 15.0844 7.64163 15.3177 7.40829C16.6594 8.16663 18.5844 8.63329 20.7427 8.63329C22.901 8.63329 24.826 8.16663 26.1677 7.40829C26.4594 7.69996 26.5177 7.99163 26.5177 8.16663C26.5177 8.51663 26.2844 8.92496 25.8177 9.27496C25.701 9.33329 25.6427 9.33329 25.6427 9.39163ZM20.6844 2.04163C23.951 2.04163 26.4594 3.32496 26.4594 4.49163C26.4594 5.65829 24.0094 6.94163 20.6844 6.94163C18.526 6.94163 16.776 6.41663 15.7844 5.71663C15.726 5.65829 15.6677 5.65829 15.6094 5.59996C15.1427 5.24996 14.9094 4.89996 14.9094 4.49163C14.9677 3.32496 17.4177 2.04163 20.6844 2.04163ZM7.38438 25.9583C7.03438 25.9583 6.74271 25.6666 6.74271 25.3166C6.74271 24.9666 7.03438 24.675 7.38438 24.675C7.73438 24.675 8.02604 24.9666 8.02604 25.3166C8.02604 25.6666 7.73438 25.9583 7.38438 25.9583ZM20.6844 25.9583C20.3344 25.9583 20.0427 25.6666 20.0427 25.3166C20.0427 24.9666 20.3344 24.675 20.6844 24.675C21.0344 24.675 21.326 24.9666 21.326 25.3166C21.326 25.6666 21.0344 25.9583 20.6844 25.9583ZM20.6844 14.35C17.4177 14.35 14.9094 13.0666 14.9094 11.9C14.9094 11.6083 15.026 11.375 15.2594 11.1416C16.601 11.9 18.526 12.3666 20.6844 12.3666C22.8427 12.3666 24.7677 11.9 26.1094 11.1416C26.2844 11.375 26.4594 11.6083 26.4594 11.9C26.4594 13.0666 24.0094 14.35 20.6844 14.35Z" fill="currentColor"/>
</g>
<defs>
<clipPath id="clip0_9208_34060">
<rect width="28" height="28" fill="white" transform="translate(0.5)"/>
</clipPath>
</defs>
</svg>
