<svg width="30" height="30" viewBox="0 0 30 30" fill="none" xmlns="http://www.w3.org/2000/svg">
<path d="M25.4909 0.689697H16.4197C15.9019 0.689697 15.4821 1.10941 15.4821 1.62726V4.45137C15.4821 5.05161 15.717 5.61638 16.1439 6.04124C16.5685 6.4641 17.1304 6.6967 17.7392 6.6967C18.047 6.69584 18.3028 6.8203 18.4888 7.04231C18.6753 7.26518 18.7491 7.55043 18.6971 7.84597C18.6313 8.21561 18.3171 8.53605 17.9492 8.60729C17.8634 8.62388 17.7781 8.62875 17.6946 8.6256C17.5315 8.61659 17.3715 8.63261 17.2142 8.66186C17.1695 8.59856 17.136 8.52904 17.0857 8.4691C16.5439 7.82337 15.7508 7.45315 14.8859 7.45315C14.7523 7.44972 14.6627 7.4151 14.5932 7.34558C14.5426 7.29522 14.518 7.23572 14.518 7.16305V4.25882C14.518 3.74098 14.0983 3.32127 13.5804 3.32127H4.51155C2.3469 3.32127 0.585938 5.08251 0.585938 7.24716V25.3843C0.585938 27.549 2.3469 29.3102 4.51155 29.3102H22.6487C24.8134 29.3102 26.5746 27.549 26.5746 25.3843V16.3157C26.5746 15.7979 26.1552 15.3782 25.6373 15.3782H25.2542C25.2708 15.2517 25.282 15.1237 25.282 14.9934C25.2814 14.8609 25.3501 14.7725 25.3907 14.7316C25.4319 14.6904 25.52 14.6217 25.6528 14.6217H28.4766C28.9945 14.6217 29.4139 14.202 29.4139 13.6842V4.61273C29.4139 2.44951 27.6544 0.689697 25.4909 0.689697ZM16.4197 14.6217H19.311C19.4003 14.6217 19.4896 14.6598 19.5497 14.7236C19.5897 14.7656 19.6086 14.8103 19.6063 14.8566C19.5931 15.0958 19.6103 15.3373 19.6567 15.5722C19.7815 16.2143 20.1332 16.7749 20.617 17.1822C20.5871 17.3333 20.5669 17.4869 20.5682 17.6444C20.5682 17.9305 20.4417 18.2 20.2226 18.3843C19.9994 18.5714 19.7105 18.6443 19.4192 18.5931C19.0496 18.5279 18.7291 18.2132 18.6576 17.8467C18.6404 17.7594 18.6341 17.6744 18.6393 17.5898C18.6696 17.0256 18.4682 16.4843 18.0717 16.0654C17.658 15.6288 17.0749 15.3782 16.4718 15.3782H14.518V13.4241C14.518 13.3354 14.5558 13.2464 14.6193 13.1861C14.6619 13.146 14.7091 13.1291 14.7546 13.1294C14.9923 13.1429 15.2315 13.1251 15.467 13.0796C15.4722 13.0786 15.4769 13.0761 15.4822 13.0751V13.6842C15.4822 14.202 15.9019 14.6217 16.4197 14.6217ZM2.46105 7.24716C2.46105 6.11619 3.38087 5.19638 4.51155 5.19638H12.6429V7.16305C12.6429 7.7364 12.8666 8.2737 13.2726 8.67682C13.6909 9.09138 14.2765 9.32827 14.8899 9.32827C15.1852 9.32942 15.4607 9.44929 15.6489 9.67388C15.6813 9.71244 15.7057 9.75499 15.7312 9.79705C15.5751 10.1042 15.4821 10.4428 15.4821 10.7925V11.0578C15.3701 11.143 15.2465 11.2123 15.1096 11.2389C15.0241 11.2555 14.9365 11.2609 14.8553 11.2572C14.2885 11.2268 13.7492 11.4277 13.3301 11.8248C12.8935 12.2382 12.6429 12.8213 12.6429 13.4241V15.3782H10.6888C10.5998 15.3782 10.5105 15.3401 10.4505 15.2766C10.4104 15.2343 10.3912 15.1896 10.3938 15.1433C10.4067 14.9067 10.3901 14.6661 10.3437 14.4275C10.1223 13.2914 9.20735 12.393 8.06723 12.1919C7.23067 12.044 6.37837 12.2697 5.7332 12.8107C5.08805 13.352 4.71783 14.1454 4.71783 15.0103C4.71897 15.1264 4.67949 15.2331 4.61026 15.3029C4.5599 15.3536 4.50011 15.3782 4.42772 15.3782H2.46105V7.24716ZM12.6429 27.4351H4.51155C3.38087 27.4351 2.46105 26.5153 2.46105 25.3843V17.2533H4.42772C5.00079 17.2533 5.53837 17.0296 5.94121 16.6233C6.36035 16.201 6.59781 15.6076 6.59295 14.9871C6.59295 14.701 6.71883 14.4312 6.93855 14.2469C7.16114 14.0604 7.44581 13.9866 7.74165 14.0384C8.11129 14.1036 8.43172 14.418 8.50325 14.7848C8.51984 14.8715 8.52613 14.9579 8.52156 15.0412C8.49066 15.6054 8.69236 16.147 9.0889 16.5658C9.5026 17.0027 10.0857 17.2533 10.6888 17.2533H12.6429V19.208C12.6429 19.2803 12.6183 19.3399 12.5676 19.3899C12.4978 19.4592 12.4025 19.486 12.2518 19.4978C11.41 19.4978 10.6167 19.868 10.0754 20.5132C9.53407 21.1583 9.30862 22.0089 9.45654 22.8469C9.6571 23.9876 10.556 24.9028 11.6919 25.1237C11.929 25.17 12.1691 25.1872 12.4083 25.174C12.4552 25.1706 12.499 25.1906 12.5413 25.2307C12.6048 25.2908 12.6429 25.38 12.6429 25.469V27.4351ZM24.7001 25.3843C24.7001 26.5153 23.78 27.4351 22.6487 27.4351H14.518V25.469C14.518 24.8659 14.2674 24.2826 13.8302 23.8688C13.411 23.4717 12.8649 23.2712 12.3055 23.3018C12.2246 23.3058 12.1373 23.3004 12.0509 23.2832C11.6827 23.2117 11.3683 22.8915 11.303 22.5216C11.251 22.2261 11.3251 21.9408 11.5116 21.7185C11.6959 21.4988 11.9657 21.3729 12.2598 21.3729C12.8569 21.3669 13.4657 21.1403 13.8883 20.7212C14.2943 20.3183 14.518 19.781 14.518 19.208V17.2533H16.4718C16.561 17.2533 16.6497 17.2914 16.7104 17.3549C16.7504 17.3972 16.7693 17.4421 16.767 17.4848C16.7533 17.7211 16.7699 17.9626 16.8168 18.2043C17.0388 19.3401 17.9538 20.2385 19.093 20.4396C19.2619 20.4694 19.4312 20.484 19.5989 20.484C20.2655 20.484 20.9121 20.2531 21.4276 19.8208C22.0151 19.3278 22.3706 18.6259 22.4304 17.8517C22.433 17.8517 22.4356 17.8524 22.4382 17.8524C23.0678 17.8524 23.6752 17.6398 24.1753 17.2533H24.7001L24.7001 25.3843ZM27.5393 12.7466H25.6528C25.052 12.7466 24.4872 12.9815 24.0626 13.4084C23.6375 13.835 23.4046 14.4003 23.4075 15.0128C23.4075 15.2989 23.2816 15.5684 23.0618 15.7527C22.8393 15.9395 22.5543 16.0139 22.259 15.9616C21.8888 15.8963 21.5684 15.5819 21.4969 15.212C21.4803 15.1279 21.474 15.0426 21.4786 14.9591C21.5095 14.3949 21.308 13.8535 20.9115 13.4347C20.4978 12.9975 19.9147 12.7466 19.311 12.7466H17.357V10.7925C17.357 10.7038 17.3953 10.6149 17.4588 10.5548C17.5017 10.5142 17.5544 10.491 17.5921 10.4979C17.8296 10.5102 18.0688 10.4938 18.3063 10.4481C19.4421 10.2272 20.341 9.31311 20.543 8.17328C20.6918 7.33471 20.4669 6.48327 19.9256 5.83783C19.3843 5.19209 18.5906 4.82159 17.7295 4.82159C17.5881 4.83417 17.5086 4.75378 17.4668 4.71287C17.4262 4.67196 17.357 4.58355 17.357 4.45137V2.56481H25.4909C26.6204 2.56481 27.5393 3.48348 27.5393 4.61273V12.7466Z" fill="currentColor"/>
</svg>
