<svg width="24" height="24" viewBox="0 0 24 24" fill="none" xmlns="http://www.w3.org/2000/svg">
	<path d="M17.3013 13.3499C17.039 13.3488 16.7876 13.2447 16.6013 13.0599C16.4151 12.8726 16.3105 12.6191 16.3105 12.3549C16.3105 12.0907 16.4151 11.8373 16.6013 11.6499L18.7213 9.52992C18.9073 9.34417 19.0548 9.12359 19.1554 8.8808C19.2561 8.638 19.3079 8.37775 19.3079 8.11492C19.3079 7.85209 19.2561 7.59183 19.1554 7.34904C19.0548 7.10624 18.9073 6.88566 18.7213 6.69992L17.3013 5.27992C16.9188 4.91844 16.4126 4.71704 15.8863 4.71704C15.3601 4.71704 14.8538 4.91844 14.4713 5.27992L12.3513 7.39992C12.1596 7.55329 11.9182 7.63079 11.6731 7.61765C11.4279 7.60452 11.1962 7.50168 11.022 7.3287C10.8478 7.15573 10.7433 6.92473 10.7284 6.67969C10.7135 6.43464 10.7893 6.19269 10.9413 5.99992L13.0613 3.87992C13.8239 3.15244 14.8374 2.74658 15.8913 2.74658C16.9452 2.74658 17.9587 3.15244 18.7213 3.87992L20.1313 5.28992C20.5032 5.66141 20.7982 6.10256 20.9995 6.58816C21.2008 7.07375 21.3045 7.59425 21.3045 8.11992C21.3045 8.64558 21.2008 9.16609 20.9995 9.65168C20.7982 10.1373 20.5032 10.5784 20.1313 10.9499L18.0013 13.0599C17.815 13.2447 17.5636 13.3488 17.3013 13.3499Z" fill="#47506D" />
	<path d="M8.10846 21.3003C7.58302 21.3007 7.06264 21.1976 6.57706 20.9969C6.09148 20.7961 5.65021 20.5017 5.27846 20.1303L3.86846 18.7203C3.49655 18.3488 3.20152 17.9077 3.00022 17.4221C2.79892 16.9365 2.69531 16.416 2.69531 15.8903C2.69531 15.3647 2.79892 14.8442 3.00022 14.3586C3.20152 13.873 3.49655 13.4318 3.86846 13.0603L5.99846 10.9403C6.19123 10.7883 6.43319 10.7125 6.67823 10.7274C6.92327 10.7423 7.15428 10.8468 7.32725 11.021C7.50022 11.1952 7.60306 11.427 7.6162 11.6721C7.62933 11.9172 7.55183 12.1586 7.39846 12.3503L5.27846 14.4703C5.09251 14.6561 4.94499 14.8767 4.84434 15.1194C4.74369 15.3622 4.69189 15.6225 4.69189 15.8853C4.69189 16.1482 4.74369 16.4084 4.84434 16.6512C4.94499 16.894 5.09251 17.1146 5.27846 17.3003L6.69846 18.7203C7.08091 19.0818 7.58721 19.2832 8.11346 19.2832C8.63971 19.2832 9.146 19.0818 9.52846 18.7203L11.6485 16.6003C11.7357 16.4897 11.8454 16.3987 11.9703 16.3334C12.0952 16.2681 12.2324 16.2299 12.3731 16.2213C12.5138 16.2128 12.6547 16.2341 12.7866 16.2838C12.9184 16.3335 13.0383 16.4106 13.1383 16.5099C13.2383 16.6092 13.3162 16.7285 13.3669 16.86C13.4175 16.9915 13.4398 17.1323 13.4323 17.273C13.4247 17.4137 13.3875 17.5513 13.3231 17.6766C13.2587 17.802 13.1685 17.9123 13.0585 18.0003L10.9385 20.1203C10.5675 20.4935 10.1266 20.7898 9.64101 20.9923C9.15539 21.1947 8.6346 21.2994 8.10846 21.3003Z" fill="#47506D" />
	<path d="M8.8183 16.1801C8.68669 16.1809 8.55623 16.1557 8.43439 16.1059C8.31255 16.0561 8.20174 15.9828 8.1083 15.8901C8.01457 15.7972 7.94018 15.6866 7.88941 15.5647C7.83864 15.4428 7.8125 15.3121 7.8125 15.1801C7.8125 15.0481 7.83864 14.9174 7.88941 14.7956C7.94018 14.6737 8.01457 14.5631 8.1083 14.4701L14.4783 8.11013C14.6657 7.92388 14.9191 7.81934 15.1833 7.81934C15.4475 7.81934 15.7009 7.92388 15.8883 8.11013C15.982 8.20309 16.0564 8.31369 16.1072 8.43555C16.158 8.55741 16.1841 8.68812 16.1841 8.82013C16.1841 8.95214 16.158 9.08285 16.1072 9.20471C16.0564 9.32656 15.982 9.43717 15.8883 9.53013L9.5183 15.8901C9.33204 16.0749 9.08064 16.179 8.8183 16.1801Z" fill="#47506D" />
</svg>
