<svg width="41" height="41" viewBox="0 0 41 41" fill="none" xmlns="http://www.w3.org/2000/svg">
<path d="M22.2418 9.57784L21.9651 9.66749V9.95837V23.0625C21.9651 23.753 21.3433 24.3708 20.5014 24.3708C19.6596 24.3708 19.0378 23.753 19.0378 23.0625V9.95837V9.6675L18.7611 9.57784C16.731 8.92011 15.3105 7.15948 15.3105 5.125C15.3105 2.54751 17.6011 0.4 20.5014 0.4C23.4018 0.4 25.6923 2.54751 25.6923 5.125C25.6923 7.15948 24.2719 8.92011 22.2418 9.57784ZM20.5014 3.01667C19.2847 3.01667 18.2378 3.92856 18.2378 5.125C18.2378 6.32144 19.2847 7.23333 20.5014 7.23333C21.7182 7.23333 22.7651 6.32144 22.7651 5.125C22.7651 3.92856 21.7182 3.01667 20.5014 3.01667Z" fill="white" stroke="#0E2443" stroke-width="0.8"/>
<path d="M7.33127 18.1199L7.05454 18.2095V18.5004V24.9352V25.2057L7.30566 25.3064L13.6435 27.8481C13.6435 27.8481 13.6435 27.8481 13.6436 27.8481C14.1855 28.0655 14.5091 28.5425 14.5091 29.042V39.292C14.5091 39.9825 13.8873 40.6003 13.0455 40.6003C12.2036 40.6003 11.5818 39.9825 11.5818 39.292V30.1592V29.8887L11.3307 29.788L4.99286 27.2463C4.99284 27.2463 4.99283 27.2463 4.99281 27.2463C4.45091 27.0289 4.12727 26.5519 4.12727 26.0524V18.5004V18.2095L3.85055 18.1199C1.82047 17.4622 0.4 15.7015 0.4 13.667C0.4 11.0895 2.69058 8.94199 5.59091 8.94199C8.49123 8.94199 10.7818 11.0895 10.7818 13.667C10.7818 15.7015 9.36134 17.4622 7.33127 18.1199ZM5.59091 11.5587C4.37422 11.5587 3.32727 12.4705 3.32727 13.667C3.32727 14.8634 4.37422 15.7753 5.59091 15.7753C6.8076 15.7753 7.85454 14.8634 7.85454 13.667C7.85454 12.4705 6.8076 11.5587 5.59091 11.5587Z" fill="white" stroke="#0E2443" stroke-width="0.8"/>
<path d="M37.148 18.1196L36.8713 18.2093V18.5001V26.0522C36.8713 26.5516 36.5476 27.0287 36.0057 27.2461C36.0057 27.2461 36.0057 27.2461 36.0057 27.2461L29.6679 29.7877L29.4167 29.8884V30.159V39.2917C29.4167 39.9823 28.795 40.6001 27.9531 40.6001C27.1113 40.6001 26.4895 39.9823 26.4895 39.2917V29.0417C26.4895 28.5423 26.8131 28.0653 27.3551 27.8478C27.3551 27.8478 27.3551 27.8478 27.3551 27.8478L33.6929 25.3062L33.944 25.2055V24.9349V18.5001V18.2093L33.6673 18.1196C31.6372 17.4619 30.2168 15.7012 30.2168 13.6667C30.2168 11.0893 32.5072 8.94175 35.4077 8.94175C38.3081 8.94175 40.5986 11.0893 40.5986 13.6667C40.5986 15.7012 39.1781 17.4619 37.148 18.1196ZM37.6713 13.6667C37.6713 12.4703 36.6244 11.5584 35.4077 11.5584C34.1909 11.5584 33.144 12.4703 33.144 13.6667C33.144 14.8632 34.1909 15.7751 35.4077 15.7751C36.6244 15.7751 37.6713 14.8632 37.6713 13.6667Z" fill="white" stroke="#0E2443" stroke-width="0.8"/>
</svg>
