<svg width="49" height="49" viewBox="0 0 49 49" fill="none" xmlns="http://www.w3.org/2000/svg">
	<g clip-path="url(#clip0_3655_7537)">
		<path d="M42.144 42.6146C40.9219 42.6146 39.8797 43.3984 39.4927 44.4896H28.6908L25.898 38.2045C25.6879 37.7313 25.1336 37.5183 24.6606 37.7284C24.1874 37.9387 23.9743 38.4926 24.1845 38.9658L27.2248 45.8077C27.3753 46.1462 27.7111 46.3645 28.0816 46.3645H39.4928C39.8798 47.4556 40.9219 48.2395 42.1441 48.2395C43.6949 48.2395 44.9566 46.9778 44.9566 45.427C44.9566 43.8761 43.6948 42.6146 42.144 42.6146ZM42.144 46.3646C41.6271 46.3646 41.2065 45.944 41.2065 45.4271C41.2065 44.9101 41.6271 44.4896 42.144 44.4896C42.6609 44.4896 43.0815 44.9101 43.0815 45.4271C43.0815 45.944 42.6609 46.3646 42.144 46.3646Z" fill="currentColor" />
		<path d="M23.9857 30.9727C23.5105 30.7672 22.9587 30.9862 22.7533 31.4615C22.548 31.9367 22.7668 32.4885 23.2421 32.6939C25.0986 33.496 26.207 34.5762 26.207 35.5833C26.207 36.5806 25.161 37.397 24.5368 37.7953C22.5716 39.0518 19.3409 39.802 15.8945 39.802C9.81728 39.802 5.58203 37.5787 5.58203 35.5833C5.58203 34.5762 6.69044 33.496 8.54697 32.6939C9.02228 32.4886 9.24109 31.9368 9.03578 31.4615C8.83056 30.9862 8.27875 30.7673 7.80334 30.9727C5.16184 32.114 3.70703 33.7514 3.70703 35.5833C3.70703 40.0582 11.3381 41.6713 15.8945 41.677C19.4997 41.6816 23.1186 40.9276 25.546 39.3754C27.6421 38.038 28.082 36.5751 28.082 35.5833C28.082 33.7514 26.6272 32.114 23.9857 30.9727Z" fill="currentColor" />
		<path d="M42.1446 13.552C40.9225 13.552 39.8803 14.3358 39.4933 15.427H30.8946C30.6268 15.427 30.3718 15.5416 30.1939 15.7416L26.4439 19.9604C26.0998 20.3474 26.1347 20.9399 26.5217 21.2838C26.9105 21.6296 27.503 21.591 27.8452 21.206L31.3155 17.302H39.4933C39.8803 18.3932 40.9224 19.177 42.1446 19.177C43.6954 19.177 44.9571 17.9153 44.9571 16.3645C44.9571 14.8137 43.6954 13.552 42.1446 13.552ZM42.1446 17.302C41.6277 17.302 41.2071 16.8814 41.2071 16.3645C41.2071 15.8476 41.6277 15.427 42.1446 15.427C42.6615 15.427 43.0821 15.8476 43.0821 16.3645C43.0821 16.8814 42.6615 17.302 42.1446 17.302Z" fill="currentColor" />
		<path d="M42.1445 29.4895C40.9224 29.4895 39.8803 30.2734 39.4933 31.3645H31.3155L28.06 27.7022C27.872 26.025 26.4425 24.5342 23.9856 23.4727C23.5104 23.2672 22.9586 23.4862 22.7532 23.9616C22.5479 24.4368 22.7667 24.9886 23.242 25.194C25.0986 25.996 26.207 27.0762 26.207 28.0833C26.207 29.0903 25.0986 30.1705 23.2413 30.9729C19.1442 32.7469 12.6409 32.7451 8.54697 30.9727C6.69044 30.1705 5.58203 29.0903 5.58203 28.0833C5.58203 27.0762 6.69044 25.996 8.54697 25.1939C9.02228 24.9886 9.24109 24.4368 9.03578 23.9615C8.83056 23.4862 8.27875 23.2672 7.80334 23.4727C5.16184 24.614 3.70703 26.2514 3.70703 28.0833C3.70703 29.9152 5.16184 31.5526 7.80269 32.6936C12.3747 34.6732 19.4218 34.6701 23.9857 32.6939C25.6908 31.9572 26.9006 31.0135 27.5447 29.9445L30.1939 32.9249C30.3718 33.1251 30.6268 33.2395 30.8946 33.2395H39.4934C39.8804 34.3307 40.9224 35.1145 42.1446 35.1145C43.6954 35.1145 44.9571 33.8528 44.9571 32.302C44.9571 30.7512 43.6953 29.4895 42.1445 29.4895ZM42.1445 33.2395C41.6276 33.2395 41.207 32.819 41.207 32.302C41.207 31.7851 41.6276 31.3645 42.1445 31.3645C42.6615 31.3645 43.082 31.7851 43.082 32.302C43.082 32.819 42.6615 33.2395 42.1445 33.2395Z" fill="currentColor" />
		<path d="M7.80269 25.1936C12.3747 27.1732 19.4218 27.1701 23.9857 25.1939C26.6272 24.0526 28.082 22.4152 28.082 20.5833C28.082 18.7514 26.6272 17.114 23.9857 15.9727C23.5105 15.7672 22.9587 15.9862 22.7533 16.4615C22.548 16.9367 22.7668 17.4885 23.2421 17.6939C25.0986 18.496 26.207 19.5762 26.207 20.5833C26.207 21.5903 25.0986 22.6705 23.2413 23.4729C19.1442 25.2469 12.6409 25.2451 8.54697 23.4727C6.69044 22.6705 5.58203 21.5903 5.58203 20.5833C5.58203 19.5762 6.69044 18.496 8.54697 17.6939C9.02228 17.4886 9.24109 16.9368 9.03578 16.4615C8.83056 15.9862 8.27875 15.7673 7.80334 15.9727C5.16184 17.114 3.70703 18.7514 3.70703 20.5833C3.70703 22.4152 5.16184 24.0526 7.80269 25.1936Z" fill="currentColor" />
		<path d="M7.80269 17.6936C12.3747 19.6731 19.4218 19.67 23.9857 17.6939C26.6272 16.5526 28.082 14.9151 28.082 13.0833C28.082 12.2066 27.7373 10.9619 26.21 9.76103L28.6913 4.177H39.4933C39.8803 5.26816 40.9223 6.052 42.1445 6.052C43.6953 6.052 44.957 4.79031 44.957 3.2395C44.957 1.68869 43.6953 0.427002 42.1445 0.427002C40.9224 0.427002 39.8803 1.21085 39.4933 2.302H28.082C27.7115 2.302 27.3758 2.52025 27.2253 2.85878L24.6037 8.75828C22.3473 7.62672 19.2456 6.9895 15.8945 6.9895C11.3584 6.9895 3.70703 8.60556 3.70703 13.0833C3.70703 14.9151 5.16184 16.5526 7.80269 17.6936ZM42.1445 2.302C42.6615 2.302 43.082 2.72256 43.082 3.2395C43.082 3.75644 42.6615 4.177 42.1445 4.177C41.6276 4.177 41.207 3.75644 41.207 3.2395C41.207 2.72256 41.6276 2.302 42.1445 2.302ZM15.8945 8.8645C19.3409 8.8645 22.5716 9.61469 24.5368 10.8712C24.537 10.8714 24.5372 10.8716 24.5375 10.8717C25.161 11.2696 26.207 12.0859 26.207 13.0833C26.207 14.0903 25.0986 15.1705 23.2413 15.9729C19.1442 17.7468 12.6409 17.7451 8.54697 15.9726C6.69044 15.1705 5.58203 14.0903 5.58203 13.0833C5.58203 11.0879 9.81728 8.8645 15.8945 8.8645Z" fill="currentColor" />
	</g>
	<defs>
		<clipPath id="clip0_3655_7537">
			<rect width="48" height="48" fill="currentColor" transform="translate(0.332031 0.333252)" />
		</clipPath>
	</defs>
</svg>
