<svg width="54" height="56" viewBox="0 0 54 56" fill="none" xmlns="http://www.w3.org/2000/svg">
	<g clip-path="url(#clip0_3655_7514)">
		<path d="M27.1654 39.1041C31.7677 39.1041 35.4987 35.2799 35.4987 30.5624C35.4987 25.845 31.7677 22.0208 27.1654 22.0208C22.563 22.0208 18.832 25.845 18.832 30.5624C18.832 35.2799 22.563 39.1041 27.1654 39.1041Z" stroke="white" stroke-width="2" stroke-linecap="round" stroke-linejoin="round" />
		<path d="M41.332 25.4373C43.2732 25.4339 45.1882 25.8956 46.9244 26.7854C48.6606 27.6752 50.1699 28.9685 51.332 30.5623" stroke="white" stroke-width="2" stroke-linecap="round" stroke-linejoin="round" />
		<path d="M2.99805 30.5623C4.16013 28.9685 5.66946 27.6752 7.40567 26.7854C9.14187 25.8956 11.0569 25.4339 12.998 25.4373" stroke="white" stroke-width="2" stroke-linecap="round" stroke-linejoin="round" />
		<path d="M15.1641 46.7914C16.2616 44.4875 17.9684 42.5458 20.09 41.1877C22.2116 39.8295 24.6627 39.1094 27.1641 39.1094C29.6654 39.1094 32.1165 39.8295 34.2381 41.1877C36.3597 42.5458 38.0665 44.4875 39.1641 46.7914" stroke="white" stroke-width="2" stroke-linecap="round" stroke-linejoin="round" />
		<path d="M12.9977 25.4374C11.7323 25.4387 10.4928 25.0709 9.42379 24.377C8.35483 23.683 7.50061 22.6916 6.96096 21.5185C6.4213 20.3454 6.21849 19.0391 6.37623 17.7522C6.53396 16.4654 7.04572 15.2511 7.85172 14.2513C8.65772 13.2515 9.72466 12.5075 10.9279 12.1062C12.1311 11.7048 13.4209 11.6627 14.6466 11.9848C15.8723 12.307 16.9832 12.9799 17.8496 13.9252C18.716 14.8704 19.3021 16.0489 19.5393 17.3228" stroke="white" stroke-width="2" stroke-linecap="round" stroke-linejoin="round" />
		<path d="M34.7891 17.3228C35.0263 16.0489 35.6124 14.8704 36.4788 13.9252C37.3452 12.9799 38.4561 12.307 39.6818 11.9848C40.9075 11.6627 42.1973 11.7048 43.4005 12.1062C44.6037 12.5075 45.6707 13.2515 46.4767 14.2513C47.2827 15.2511 47.7944 16.4654 47.9522 17.7522C48.1099 19.0391 47.9071 20.3454 47.3674 21.5185C46.8278 22.6916 45.9736 23.683 44.9046 24.377C43.8356 25.0709 42.5961 25.4387 41.3307 25.4374" stroke="white" stroke-width="2" stroke-linecap="round" stroke-linejoin="round" />
	</g>
	<defs>
		<clipPath id="clip0_3655_7514">
			<rect width="53.3333" height="54.6667" fill="white" transform="translate(0.498047 0.666504)" />
		</clipPath>
	</defs>
</svg>
