<svg width="13" height="16" viewBox="0 0 13 16" fill="none" xmlns="http://www.w3.org/2000/svg">
<path d="M12.444 8.0082C12.444 11.0579 10.0864 13.5676 7.09679 13.8153V15.2926C7.09679 15.5606 6.87901 15.7782 6.61068 15.7782C6.34234 15.7782 6.12457 15.5606 6.12457 15.2926V13.8153C3.13498 13.5676 0.777344 11.0579 0.777344 8.0082C0.777344 7.74014 0.995122 7.52258 1.26345 7.52258C1.53179 7.52258 1.74957 7.74014 1.74957 8.0082C1.74957 10.6859 3.93026 12.8645 6.61068 12.8645C9.29109 12.8645 11.4718 10.6859 11.4718 8.0082C11.4718 7.74014 11.6896 7.52258 11.9579 7.52258C12.2262 7.52258 12.444 7.74014 12.444 8.0082ZM6.61554 10.9064C8.22359 10.9064 9.53221 9.59911 9.53221 7.99266V3.13641C9.53221 1.52996 8.22359 0.222656 6.61554 0.222656C5.00748 0.222656 3.69887 1.52996 3.69887 3.13641V7.99266C3.69887 9.59911 5.00748 10.9064 6.61554 10.9064ZM4.67109 3.13641C4.67109 2.06512 5.54318 1.19391 6.61554 1.19391C7.6879 1.19391 8.55998 2.06512 8.55998 3.13641V7.99266C8.55998 9.06395 7.6879 9.93517 6.61554 9.93517C5.54318 9.93517 4.67109 9.06395 4.67109 7.99266V3.13641Z" fill="#5072EB"/>
</svg>
