<svg width="30" height="26" viewBox="0 0 30 26" fill="none" xmlns="http://www.w3.org/2000/svg">
<path d="M25.3125 9.3125V5.5625C25.3125 4.53125 24.4688 3.6875 23.4375 3.6875H21.5625" stroke="currentColor" stroke-width="2" stroke-miterlimit="10" stroke-linecap="round" stroke-linejoin="round"/>
<path d="M27.375 7.90625L25.3125 9.96875L23.25 7.90625" stroke="currentColor" stroke-width="2" stroke-miterlimit="10" stroke-linecap="round" stroke-linejoin="round"/>
<path d="M4.6875 18.6875V22.4375C4.6875 23.4688 5.53125 24.3125 6.5625 24.3125H8.4375" stroke="currentColor" stroke-width="2" stroke-miterlimit="10" stroke-linecap="round" stroke-linejoin="round"/>
<path d="M2.625 20.0938L4.6875 18.0312L6.75 20.0938" stroke="currentColor" stroke-width="2" stroke-miterlimit="10" stroke-linecap="round" stroke-linejoin="round"/>
<path d="M24.4694 15.9688C24.1882 13.3438 22.0319 11.375 19.3132 11.375C16.5944 11.375 14.4382 13.4375 14.1569 15.9688C11.6257 16.1563 9.75067 18.5 10.3132 21.125C10.7819 23.0938 12.5632 24.4063 14.5319 24.4063H23.9069C25.8757 24.4063 27.7507 23.0938 28.1257 21.125C28.8757 18.4063 27.0007 16.0625 24.4694 15.9688Z" stroke="currentColor" stroke-width="2" stroke-miterlimit="10" stroke-linecap="round" stroke-linejoin="round"/>
<path d="M19.5007 8.75C18.8444 7.53125 17.5319 6.59375 16.1257 6.5C15.8444 3.875 13.6882 1.90625 10.9694 1.90625C8.25067 1.90625 6.00067 3.96875 5.81317 6.59375C3.28192 6.78125 1.40692 9.125 1.96942 11.75C2.43817 13.625 4.21942 14.9375 6.18817 14.9375H9.84442" stroke="currentColor" stroke-width="2" stroke-miterlimit="10" stroke-linecap="round" stroke-linejoin="round"/>
</svg>
