<svg width="16" height="16" viewBox="0 0 16 16" fill="none" xmlns="http://www.w3.org/2000/svg">
<g clip-path="url(#clip0_10828_16058)">
<mask id="path-1-inside-1_10828_16058" fill="white">
<path d="M6.15285 7.7579C6.01797 7.6203 5.79712 7.61825 5.65952 7.75313L4.12012 9.26365C4.05336 9.32932 4.01562 9.41896 4.01562 9.5127C4.01562 9.6063 4.05336 9.69608 4.12012 9.76161L5.65952 11.2721C5.79712 11.4071 6.01797 11.405 6.15285 11.2675C6.28773 11.13 6.28569 10.9092 6.14822 10.7743L4.8625 9.5127L6.14822 8.2511C6.28569 8.11622 6.28773 7.89537 6.15285 7.7579Z"/>
</mask>
<path d="M6.15285 7.7579C6.01797 7.6203 5.79712 7.61825 5.65952 7.75313L4.12012 9.26365C4.05336 9.32932 4.01562 9.41896 4.01562 9.5127C4.01562 9.6063 4.05336 9.69608 4.12012 9.76161L5.65952 11.2721C5.79712 11.4071 6.01797 11.405 6.15285 11.2675C6.28773 11.13 6.28569 10.9092 6.14822 10.7743L4.8625 9.5127L6.14822 8.2511C6.28569 8.11622 6.28773 7.89537 6.15285 7.7579Z" fill="currentColor"/>
<path d="M6.15285 7.7579L5.20066 8.69124L5.20112 8.69171L6.15285 7.7579ZM5.65952 7.75313L4.72619 6.80094L4.72568 6.80144L5.65952 7.75313ZM4.12012 9.26365L3.18628 8.31195L3.1851 8.31311L4.12012 9.26365ZM4.12012 9.76161L3.18609 10.7131L3.18628 10.7133L4.12012 9.76161ZM5.65952 11.2721L4.72568 12.2238L4.72571 12.2238L5.65952 11.2721ZM6.15285 11.2675L5.20112 10.3337H5.20112L6.15285 11.2675ZM6.14822 10.7743L5.21438 11.726L5.21441 11.726L6.14822 10.7743ZM4.8625 9.5127L3.92866 8.56101L2.95878 9.5127L3.92866 10.4644L4.8625 9.5127ZM6.14822 8.2511L5.21441 7.29937L5.21438 7.29941L6.14822 8.2511ZM7.10504 6.82457C6.45388 6.16025 5.38884 6.15141 4.72619 6.80094L6.59285 8.70532C6.20541 9.0851 5.58206 9.08034 5.20066 8.69124L7.10504 6.82457ZM4.72568 6.80144L3.18628 8.31195L5.05396 10.2153L6.59336 8.70483L4.72568 6.80144ZM3.1851 8.31311C2.8646 8.62838 2.68229 9.06005 2.68229 9.5127H5.34896C5.34896 9.77788 5.24213 10.0302 5.05514 10.2142L3.1851 8.31311ZM2.68229 9.5127C2.68229 9.96469 2.86427 10.3972 3.18609 10.7131L5.05415 8.8101C5.24246 8.99495 5.34896 9.2479 5.34896 9.5127H2.68229ZM3.18628 10.7133L4.72568 12.2238L6.59336 10.3204L5.05396 8.80992L3.18628 10.7133ZM4.72571 12.2238C5.389 12.8747 6.45404 12.8643 7.10458 12.2013L5.20112 10.3337C5.58191 9.9456 6.20525 9.93962 6.59333 10.3204L4.72571 12.2238ZM7.10458 12.2013C7.75491 11.5385 7.7454 10.4734 7.08203 9.82257L5.21441 11.726C4.82598 11.3449 4.82055 10.7216 5.20112 10.3337L7.10458 12.2013ZM7.08206 9.82261L5.79635 8.56101L3.92866 10.4644L5.21438 11.726L7.08206 9.82261ZM5.79635 10.4644L7.08206 9.20279L5.21438 7.29941L3.92866 8.56101L5.79635 10.4644ZM7.08203 9.20282C7.7454 8.55195 7.75491 7.48691 7.10458 6.8241L5.20112 8.69171C4.82055 8.30383 4.82598 7.68049 5.21441 7.29937L7.08203 9.20282Z" fill="currentColor" fill-opacity="0.6" mask="url(#path-1-inside-1_10828_16058)"/>
<path d="M10.1243 7.75315C9.98688 7.61827 9.76603 7.62031 9.63101 7.75778C9.49613 7.89539 9.49831 8.11623 9.63578 8.25111L10.9214 9.51271L9.63578 10.7743C9.49831 10.9092 9.49613 11.13 9.63101 11.2675C9.76603 11.405 9.98688 11.4072 10.1243 11.2721L11.6637 9.76163C11.7306 9.6961 11.7682 9.60631 11.7682 9.51271C11.7682 9.41898 11.7306 9.32933 11.6637 9.26366L10.1243 7.75315Z" fill="currentColor"/>
<path d="M8.56603 6.56844C8.37938 6.52103 8.18946 6.63383 8.14205 6.82049L6.8077 12.0696C6.76028 12.2564 6.87309 12.4462 7.05988 12.4936C7.24653 12.5411 7.43632 12.4282 7.48386 12.2415L8.81808 6.99242C8.86563 6.80577 8.75268 6.61585 8.56603 6.56844Z" fill="currentColor"/>
<path d="M14.0382 0.675781H1.97046C1.00777 0.676871 0.227652 1.45699 0.226562 2.41968V13.5558C0.227652 14.5185 1.00777 15.2986 1.97046 15.2997H14.0382C15.0009 15.2986 15.781 14.5185 15.7821 13.5558V2.41968C15.781 1.45699 15.0009 0.676871 14.0382 0.675781ZM1.97046 1.37334H14.0382C14.6159 1.37402 15.0839 1.84201 15.0846 2.41968V4.2039H0.924121V2.41968C0.924802 1.84201 1.39279 1.37402 1.97046 1.37334ZM14.0382 14.6022H1.97046C1.39279 14.6015 0.924802 14.1335 0.924121 13.5558V4.90146H15.0846V13.5558C15.0839 14.1335 14.6159 14.6015 14.0382 14.6022Z" fill="currentColor"/>
</g>
<defs>
<clipPath id="clip0_10828_16058">
<rect width="15.5556" height="15.5556" fill="white" transform="translate(0.226562 0.222656)"/>
</clipPath>
</defs>
</svg>
