<svg width="66" height="65" viewBox="0 0 66 65" fill="none" xmlns="http://www.w3.org/2000/svg">
	<path d="M60.8468 26.5987C61.5736 24.4101 61.8249 22.0915 61.5841 19.7979C61.3432 17.5044 60.6157 15.2886 59.4501 13.2987C57.7221 10.2909 55.0836 7.9095 51.9149 6.49792C48.7463 5.08635 45.2112 4.71748 41.8194 5.4445C39.8925 3.30102 37.4354 1.70231 34.695 0.808945C31.9547 -0.0844233 29.0275 -0.241001 26.2075 0.354938C23.3874 0.950877 20.7739 2.27835 18.6292 4.20403C16.4846 6.12972 14.8844 8.58581 13.9894 11.3256C11.7298 11.789 9.59503 12.7293 7.72789 14.0838C5.86076 15.4382 4.30422 17.1756 3.16231 19.1798C1.41553 22.1826 0.668964 25.6631 1.03055 29.1181C1.39214 32.5732 2.84315 35.8237 5.17379 38.3998C4.44434 40.5874 4.19046 42.9055 4.42913 45.1992C4.6678 47.4928 5.39352 49.709 6.55774 51.6996C8.28794 54.7085 10.9288 57.0904 14.0997 58.502C17.2706 59.9135 20.8077 60.2819 24.2015 59.554C25.7324 61.278 27.6135 62.6556 29.7192 63.5947C31.8248 64.5338 34.1067 65.0129 36.4122 64.9999C39.8888 65.0031 43.2764 63.9015 46.0861 61.8542C48.8958 59.8068 50.9822 56.9196 52.0442 53.6092C54.3036 53.1451 56.438 52.2044 58.305 50.8499C60.1721 49.4955 61.7288 47.7585 62.8713 45.7548C64.5974 42.7564 65.3312 39.289 64.9675 35.8484C64.6039 32.4078 63.1616 29.1701 60.8468 26.5987ZM36.4122 60.7457C33.565 60.7502 30.8071 59.7522 28.622 57.9268L29.0063 57.7091L41.9475 50.239C42.2696 50.0501 42.537 49.7806 42.7235 49.4571C42.91 49.1336 43.0091 48.7672 43.0111 48.3938V30.148L48.4819 33.313C48.509 33.3267 48.5324 33.3466 48.5503 33.371C48.5682 33.3955 48.58 33.4239 48.5848 33.4538V48.5733C48.578 51.7996 47.2933 54.8917 45.012 57.173C42.7306 59.4543 39.6385 60.7389 36.4122 60.7457ZM10.2478 49.5727C8.81994 47.1071 8.30725 44.2169 8.79997 41.4106L9.18456 41.6414L22.1385 49.1115C22.459 49.2996 22.8239 49.3987 23.1956 49.3987C23.5672 49.3987 23.9321 49.2996 24.2526 49.1115L40.0769 39.9885V46.3054C40.0754 46.3381 40.0665 46.3701 40.051 46.3989C40.0354 46.4278 40.0135 46.4527 39.987 46.4719L26.8792 54.0317C24.0818 55.6432 20.7593 56.0788 17.6411 55.2427C14.5229 54.4067 11.8639 52.3675 10.2478 49.5727ZM6.83968 21.3838C8.27749 18.9024 10.5469 17.0097 13.2462 16.0408V31.4166C13.2414 31.7881 13.3363 32.154 13.5211 32.4763C13.7059 32.7986 13.9738 33.0653 14.2968 33.2488L30.0441 42.3333L24.573 45.498C24.5434 45.5138 24.5104 45.522 24.4769 45.522C24.4434 45.522 24.4104 45.5138 24.3807 45.498L11.2987 37.9513C8.50656 36.3328 6.46959 33.6738 5.63384 30.5566C4.79809 27.4394 5.23169 24.1181 6.83968 21.3199V21.3838ZM51.788 31.8266L35.9895 22.6524L41.4478 19.4999C41.4775 19.4842 41.5105 19.476 41.544 19.476C41.5775 19.476 41.6105 19.4842 41.6401 19.4999L54.7222 27.0597C56.7224 28.2139 58.3531 29.9132 59.4238 31.9594C60.4944 34.0055 60.9609 36.314 60.7688 38.6154C60.5767 40.9167 59.7339 43.1159 58.3388 44.9562C56.9437 46.7965 55.0539 48.202 52.89 49.0086V33.6328C52.8787 33.262 52.7711 32.9005 52.5778 32.5838C52.3846 32.2671 52.1126 32.0063 51.788 31.8266ZM57.2336 23.6391L56.8491 23.4083L43.9208 15.8743C43.5983 15.685 43.2312 15.5853 42.8573 15.5853C42.4833 15.5853 42.1162 15.685 41.7937 15.8743L25.9827 24.997V18.6804C25.9794 18.6483 25.9847 18.6158 25.9983 18.5865C26.0118 18.5572 26.033 18.5321 26.0596 18.5138L39.1417 10.9668C41.1467 9.81173 43.4392 9.25143 45.7509 9.35142C48.0627 9.45141 50.2982 10.2076 52.196 11.5314C54.0938 12.8553 55.5754 14.6922 56.4675 16.8272C57.3597 18.9622 57.6255 21.3071 57.2339 23.5876L57.2336 23.6391ZM22.9968 34.8372L17.526 31.6853C17.4986 31.6688 17.4752 31.6465 17.4574 31.6199C17.4396 31.5934 17.4279 31.5633 17.423 31.5317V16.4509C17.426 14.1374 18.0876 11.8725 19.3304 9.9211C20.5732 7.9697 22.3458 6.41242 24.441 5.43133C26.5362 4.45024 28.8674 4.08589 31.162 4.38088C33.4567 4.67586 35.6199 5.61799 37.3989 7.09712L37.0143 7.31514L24.0733 14.7847C23.7513 14.9736 23.4838 15.2431 23.2974 15.5666C23.1109 15.8901 23.0118 16.2565 23.0098 16.6299L22.9968 34.8372ZM25.9695 28.4309L33.0165 24.369L40.0769 28.4309V36.5543L33.0423 40.616L25.9825 36.5543L25.9695 28.4309Z" fill="currentColor" />
</svg>
