<svg width="51" height="51" viewBox="0 0 51 51" fill="none" xmlns="http://www.w3.org/2000/svg">
<g clip-path="url(#clip0_5266_12265)">
<path d="M46.8101 9.53646C46.8015 8.53056 45.2354 8.52743 45.2425 9.549L45.2558 11.2278C40.7418 4.94411 33.5376 1.21429 25.7826 1.21429C18.3057 1.21429 11.3866 4.61743 6.80055 10.551C6.53576 10.8925 6.59843 11.3853 6.94157 11.6493C7.2847 11.9141 7.77747 11.8499 8.04069 11.5083C12.3283 5.96176 18.7946 2.78111 25.7826 2.78111C33.062 2.78111 39.8221 6.29863 44.0376 12.2181H42.365C41.3568 12.2181 41.3544 13.7849 42.365 13.7849H46.0533C46.4787 13.7849 46.8399 13.4214 46.8367 12.9952L46.8101 9.53646Z" fill="#5072EB" stroke="#5072EB" stroke-width="0.9"/>
<path d="M49.786 25.2853C49.786 22.3099 49.2509 19.405 48.1949 16.6529C48.0406 16.2479 47.5854 16.0481 47.1835 16.2016C46.7785 16.356 46.5764 16.8088 46.7323 17.213C47.7186 19.7865 48.2192 22.5026 48.2192 25.2861C48.2192 34.8476 42.317 43.2066 33.4386 46.4287L34.2909 45.1032C34.8362 44.2556 33.5185 43.4048 32.9732 44.2556L31.1048 47.1628C30.851 47.5561 31.0147 48.1092 31.4432 48.3011L34.5925 49.7128C35.5115 50.1249 36.1554 48.6967 35.2341 48.2839L34.1993 47.8201C43.5712 44.3135 49.786 35.4312 49.786 25.2853Z" fill="#5072EB" stroke="#5072EB" stroke-width="0.9"/>
<path d="M26.7109 47.7716C26.4022 47.7841 26.0935 47.7904 25.7817 47.7904C13.4101 47.7904 3.34566 37.6946 3.34566 25.2846C3.34566 23.0863 4.25285 20.346 5.11773 18.0271L5.80557 19.5751C6.21294 20.4893 7.65128 19.8712 7.23842 18.939L5.77736 15.6525C5.63948 15.2397 5.06368 15.0916 4.70487 15.2734L1.62999 16.8402C0.731418 17.2969 1.44119 18.6945 2.34133 18.2354L3.60888 17.5899C2.7111 20.0052 1.77805 22.867 1.77805 25.2854C1.77805 38.5595 12.546 49.3572 25.7817 49.3572C26.1147 49.3572 26.4453 49.3501 26.7751 49.3368C27.2075 49.3196 27.5436 48.9545 27.5256 48.5221C27.5084 48.0896 27.1323 47.7395 26.7109 47.7716C27.1323 47.7395 26.4022 47.7841 26.7109 47.7716Z" fill="#5072EB"/>
<path d="M26.7109 47.7716C26.4022 47.7841 26.0935 47.7904 25.7817 47.7904C13.4101 47.7904 3.34566 37.6946 3.34566 25.2846C3.34566 23.0863 4.25285 20.346 5.11773 18.0271L5.80557 19.5751C6.21294 20.4893 7.65128 19.8712 7.23842 18.939L5.77736 15.6525C5.63948 15.2397 5.06368 15.0916 4.70487 15.2734L1.62999 16.8402C0.731418 17.2969 1.44119 18.6945 2.34133 18.2354L3.60888 17.5899C2.7111 20.0052 1.77805 22.867 1.77805 25.2854C1.77805 38.5595 12.546 49.3572 25.7817 49.3572C26.1147 49.3572 26.4453 49.3501 26.7751 49.3368C27.2075 49.3196 27.5436 48.9545 27.5256 48.5221C27.5084 48.0896 27.1323 47.7395 26.7109 47.7716ZM26.7109 47.7716C26.4022 47.7841 27.1323 47.7395 26.7109 47.7716Z" stroke="#5072EB" stroke-width="0.9"/>
<path d="M28.3662 40.7295H23.0477C22.0895 40.7295 21.3398 39.9758 21.3398 39.0146V36.6103C21.3539 36.6158 20.9959 36.4858 20.9512 36.4411L19.2371 38.1685C18.6081 38.8532 17.4792 38.814 16.8399 38.1685L13.0889 34.3893C12.4136 33.7587 12.4528 32.6322 13.0897 31.9913L14.7553 30.271C14.6981 30.1354 14.6471 29.9975 14.6025 29.8581H12.2076C11.2675 29.8581 10.506 29.0371 10.5507 28.1048L10.5499 22.7855C10.5499 21.8242 11.3004 21.0706 12.2585 21.0706H14.6377C14.6848 20.9492 14.7474 20.7917 14.8093 20.6687L13.0897 18.9358C12.4136 18.3075 12.4544 17.177 13.0905 16.5386L16.8407 12.7594C17.4627 12.0817 18.601 12.1178 19.2371 12.7586L20.9552 14.4899C21.0891 14.4351 21.2027 14.3795 21.3406 14.334V11.9133C21.3406 10.9521 22.0903 10.1984 23.0484 10.1984H28.3419C29.3 10.1984 30.0498 10.9521 30.0498 11.9133V14.3176C30.0357 14.3121 30.3937 14.4422 30.4383 14.4868L32.1524 12.7594C32.7729 12.0841 33.9151 12.1186 34.5497 12.7594L38.2764 16.5409C38.9524 17.1684 38.9094 18.2989 38.274 18.9366L36.5521 20.6718C36.6085 20.8105 36.6657 20.9272 36.7103 21.0706H39.1052C39.9811 21.0706 40.7183 21.7428 40.8569 22.6703C40.8624 22.7087 40.8655 22.7471 40.8655 22.7855V28.1432C40.8655 29.1045 40.115 29.8581 39.1569 29.8581H36.7777C36.744 29.9435 36.6085 30.2553 36.6061 30.26L38.3257 31.9929C39.001 32.622 38.9618 33.7501 38.3257 34.3901L34.5755 38.1693C33.9527 38.847 32.8144 38.8117 32.1783 38.1693L30.4689 36.4474C30.3396 36.5014 30.208 36.55 30.0756 36.5946V39.0154C30.0748 39.9758 29.3243 40.7295 28.3662 40.7295ZM20.7875 34.7105C21.2184 34.7105 21.6869 35.074 22.0942 35.2158C22.5087 35.3608 22.9074 35.5159 22.9074 36.0376V39.0138C22.9074 39.1125 22.9552 39.1619 23.0484 39.1619H28.367C28.461 39.1619 28.5088 39.1125 28.5088 39.0138V36.0376C28.5088 35.729 28.6898 35.4501 28.971 35.3232C29.3768 35.1414 29.8304 35.0693 30.2112 34.8304C30.5214 34.6346 30.9256 34.6808 31.1849 34.9424L33.2915 37.0655C33.3409 37.1148 33.4169 37.1125 33.4639 37.0655L37.2141 33.2863C37.2642 33.2354 37.265 33.1461 37.2141 33.0952L35.1075 30.9721C34.8521 30.7152 34.8066 30.3156 34.9978 30.0077C35.1952 29.6889 35.3535 29.2463 35.4428 28.8867C35.5289 28.5373 35.8431 28.2913 36.2035 28.2913H39.1577C39.2517 28.2913 39.2995 28.2419 39.2995 28.1432V22.8583C39.2713 22.7447 39.2 22.6374 39.1068 22.6374H36.1525C35.8415 22.6374 35.5603 22.4541 35.4349 22.1689C35.2571 21.7631 35.1842 21.3001 34.9477 20.9202C34.7565 20.6115 34.8012 20.2128 35.0573 19.9558L37.1639 17.8328C37.2164 17.7803 37.2133 17.6917 37.1624 17.6408L33.4372 13.8609C33.3895 13.8115 33.3127 13.8162 33.2665 13.8624L31.1599 15.9855C30.9006 16.2464 30.4947 16.2918 30.1861 16.0967C29.8719 15.9001 29.4309 15.7403 29.076 15.6502C28.7282 15.5624 28.4845 15.2491 28.4845 14.8903V11.9141C28.4845 11.8154 28.4367 11.766 28.3435 11.766H23.0477C22.9544 11.766 22.9066 11.8154 22.9066 11.9141V14.8903C22.9066 15.1989 22.7249 15.4786 22.4436 15.6047C22.0418 15.7857 21.5819 15.8593 21.2051 16.0967C20.8948 16.2918 20.4898 16.2464 20.2313 15.9855L18.1247 13.8624C18.0754 13.8131 18.0001 13.8154 17.9524 13.8624L14.2014 17.6424C14.1505 17.6933 14.1505 17.7818 14.2014 17.8328L16.308 19.9558C16.5634 20.2128 16.6088 20.6123 16.4177 20.9202C16.2202 21.239 16.0628 21.6817 15.9727 22.0412C15.8865 22.3906 15.5724 22.6366 15.212 22.6366H12.2577C12.1637 22.6366 12.116 22.686 12.116 22.7847V28.1424C12.1144 28.1926 12.1128 28.2286 12.1434 28.2615L15.1611 28.2905C15.4721 28.2905 15.7533 28.4738 15.8787 28.759C16.0565 29.1679 16.1286 29.6239 16.3659 30.0077C16.5555 30.3133 16.5132 30.7073 16.2633 30.9658L14.2077 33.0889C14.1544 33.1429 14.1458 33.2322 14.2006 33.2871L17.9516 37.0663C18.0009 37.1156 18.0769 37.1133 18.1239 37.0663L20.2305 34.9432C20.3825 34.7897 20.5838 34.7105 20.7875 34.7105Z" fill="#5072EB" stroke="#5072EB" stroke-width="0.9"/>
<path d="M19.0656 25.3989C19.0656 28.9913 22.0798 32.0684 25.6944 32.0684C29.3097 32.0684 32.3239 28.9913 32.3239 25.3989C32.3239 22.053 29.7795 18.7302 25.6944 18.7302C22.0799 18.7302 19.0656 21.8065 19.0656 25.3989ZM21.5332 25.3989C21.5332 23.1464 23.4411 21.1971 25.6944 21.1971C27.9409 21.1971 29.8563 23.1506 29.8563 25.3989C29.8563 27.6515 27.9484 29.6016 25.6944 29.6016C23.4405 29.6016 21.5332 27.6509 21.5332 25.3989Z" fill="#5072EB" stroke="#5072EB" stroke-width="0.9"/>
</g>
<defs>
<clipPath id="clip0_5266_12265">
<rect width="51" height="51" fill="white"/>
</clipPath>
</defs>
</svg>
