<svg width="29" height="28" viewBox="0 0 29 28" fill="none" xmlns="http://www.w3.org/2000/svg">
<g clip-path="url(#clip0_9597_4313)">
<path d="M0.988281 15.6406C0.53525 15.6406 0.167969 16.0079 0.167969 16.4609V24.6641C0.167969 25.1171 0.53525 25.4844 0.988281 25.4844H5.96484C6.41787 25.4844 6.78516 25.1171 6.78516 24.6641V24.0644C12.9313 25.4844 17.479 25.4844 19.0272 25.4844C19.2115 25.4844 19.3905 25.4223 19.5352 25.3082L27.8556 18.7457C28.0471 18.5947 28.1615 18.3663 28.1677 18.1226C28.1739 17.8788 28.0714 17.6449 27.888 17.4844C26.0404 15.8671 23.2238 15.8324 21.3362 17.4035L20.1961 18.3524C20.0607 18.4652 19.914 18.5622 19.7593 18.6428C19.2774 16.9135 17.6894 15.6406 15.8086 15.6406C14.2759 15.6406 12.726 15.2604 11.3264 14.541C10.6279 14.1821 9.92805 14 9.24609 14C7.57052 14 6.18923 15.1104 5.62512 15.6406H0.988281ZM5.14453 23.8438H1.80859V17.2812H5.14453V23.8438ZM6.78516 16.803C7.19941 16.4215 8.17783 15.6406 9.24609 15.6406C9.66462 15.6406 10.1122 15.7616 10.5764 16.0002C12.207 16.8383 14.0162 17.2812 15.8086 17.2812C16.8781 17.2812 17.7904 17.967 18.129 18.9219C17.6411 18.9219 13.2325 18.9219 12.5273 18.9219C12.0743 18.9219 11.707 19.2892 11.707 19.7422C11.707 20.1952 12.0743 20.5625 12.5273 20.5625H19.0898C19.3275 20.5625 20.4459 20.2792 21.2457 19.6134L22.3858 18.6645C23.3895 17.8291 24.7824 17.6663 25.938 18.1687L18.743 23.8435C16.9822 23.8392 12.5934 23.7622 6.78516 22.3793V16.803Z" fill="currentColor"/>
<path d="M20.7305 10.7188C22.0874 10.7188 23.1914 9.61477 23.1914 8.25781C23.1914 6.90085 22.0874 5.79688 20.7305 5.79688C19.3735 5.79688 18.2695 6.90085 18.2695 8.25781C18.2695 9.61477 19.3735 10.7188 20.7305 10.7188ZM20.7305 7.4375C21.1828 7.4375 21.5508 7.80549 21.5508 8.25781C21.5508 8.71013 21.1828 9.07812 20.7305 9.07812C20.2781 9.07812 19.9102 8.71013 19.9102 8.25781C19.9102 7.80549 20.2781 7.4375 20.7305 7.4375Z" fill="currentColor"/>
<path d="M12.5273 4.15625H9.24609C8.79306 4.15625 8.42578 4.52353 8.42578 4.97656V5.79688H7.60547C7.15244 5.79688 6.78516 6.16416 6.78516 6.61719V9.89844C6.78516 10.3515 7.15244 10.7188 7.60547 10.7188H15.5644C16.5095 12.7031 18.5178 14 20.7305 14C23.8967 14 26.4727 11.4241 26.4727 8.25781C26.4727 5.09157 23.8967 2.51562 20.7305 2.51562C18.5178 2.51562 16.5095 3.81248 15.5644 5.79688H13.3477V4.97656C13.3477 4.52353 12.9804 4.15625 12.5273 4.15625ZM16.1109 7.4375C16.4577 7.4375 16.7671 7.21935 16.8836 6.8927C17.4672 5.25591 19.0131 4.15625 20.7305 4.15625C22.9921 4.15625 24.832 5.99621 24.832 8.25781C24.832 10.5194 22.9921 12.3594 20.7305 12.3594C19.0131 12.3594 17.4672 11.2597 16.8836 9.62292C16.7671 9.29622 16.4577 9.07812 16.1109 9.07812H8.42578V7.4375H9.24609C9.69913 7.4375 10.0664 7.07022 10.0664 6.61719V5.79688H11.707V6.61719C11.707 7.07022 12.0743 7.4375 12.5273 7.4375H16.1109Z" fill="currentColor"/>
</g>
<defs>
<clipPath id="clip0_9597_4313">
<rect width="28" height="28" fill="white" transform="translate(0.167969)"/>
</clipPath>
</defs>
</svg>
