<svg width="63" height="70" viewBox="0 0 63 70" fill="none" xmlns="http://www.w3.org/2000/svg">
	<path d="M26.8097 61.8422C29.0088 61.8422 30.7916 63.6313 30.7916 65.8383C30.7916 68.0453 29.0088 69.8344 26.8097 69.8344C24.6106 69.8344 22.8278 68.0453 22.8278 65.8383C22.8278 63.6313 24.6106 61.8422 26.8097 61.8422ZM48.9011 54.551L52.836 55.7211L49.7125 66.3007C49.4395 67.2252 48.5641 67.8358 47.6056 67.7703L46.6408 67.7038L46.6172 67.7234L36.593 67.0174L36.8719 62.9082L43.6067 63.3669L39.1976 56.9838L42.5703 54.637L46.9852 61.0281L48.9011 54.551ZM6.07338 47.2372L10.1671 47.5283L9.6876 54.2861L16.0364 49.8556L18.38 53.2366L12.023 57.6718L18.5117 59.5907L17.3518 63.5415L6.76019 60.4098C5.8355 60.1364 5.22511 59.2539 5.29323 58.2889L6.07338 47.2372ZM32.5054 41.4826L39.8939 50.4349L36.564 53.2029L32.1668 47.8752L30.7412 56.0666L26.4819 55.3193L27.9089 47.1152L21.9892 50.618L19.7945 46.8792L29.7431 40.9972C30.6577 40.4565 31.8282 40.6622 32.5054 41.4826ZM53.1769 35.4764L56.8677 33.4612L62.2444 43.379C62.7155 44.2478 62.5214 45.3284 61.7777 45.9775L61.017 46.6371L53.2548 53.4166L50.4974 50.2349L55.716 45.6785L47.943 44.2732L48.6886 40.1234L56.4562 41.5279L53.1769 35.4764ZM9.65037 25.1075L12.4307 28.269L7.28382 32.8247L15.0717 34.1892L14.3498 38.3433L6.55341 36.9777L9.90223 43.0535L6.22558 45.0947L0.762627 35.184C0.285658 34.3187 0.472016 33.237 1.21079 32.5826L9.65037 25.1075ZM35.9747 21.8458L43.3382 30.774L40.0073 33.5408L35.6112 28.2108L34.1856 36.4046L29.9264 35.6574L31.3484 27.4851L25.4514 30.9543L23.2651 27.2106L32.3232 21.8807L32.3321 21.8461L32.372 21.8513L33.2161 21.3573C34.1306 20.8194 35.2988 21.0263 35.9747 21.8458ZM45.4635 17.4549L47.074 13.5601L57.4911 17.8986C58.4004 18.2773 58.9257 19.2388 58.7549 20.2117L58.5815 21.1795L56.8026 31.3346L52.6646 30.6031L53.857 23.8052L46.9458 27.6386L44.9148 23.9471L51.8392 20.1106L45.4635 17.4549ZM25.6189 9.77992L25.7981 13.9929L18.9167 14.288L24.1068 20.2404L20.9446 23.0172L15.7459 17.0559L14.5347 23.8617L10.3986 23.1192L12.3808 11.9973C12.554 11.0253 13.3763 10.3041 14.3593 10.2621L15.3331 10.2183L15.3549 10.2025L25.6189 9.77992ZM39.6952 0.795265L47.0254 9.77982L43.6799 12.5289L39.3293 7.1955L37.8619 15.3785L33.6064 14.61L35.0763 6.40853L29.1363 9.89389L26.9548 6.14728L36.9317 0.296497C37.8497 -0.24187 39.0216 -0.0303717 39.6952 0.795265Z" fill="currentColor" />
</svg>
