<svg width="22" height="22" viewBox="0 0 22 22" fill="none" xmlns="http://www.w3.org/2000/svg">
<g clip-path="url(#clip0_6400_43012)">
<path d="M7.0722 13.7146H5.00458C4.33958 13.7146 3.79883 14.2553 3.79883 14.9203V15.9537C3.79883 16.6187 4.33958 17.1595 5.00458 17.1595H7.0722C8.02245 17.1595 8.79508 16.3868 8.79508 15.4366C8.79508 14.4863 8.02245 13.7146 7.0722 13.7146Z" fill="#5072EB"/>
<path d="M17.0023 3.20239H14.9207C13.9634 3.20239 13.1855 3.98114 13.1855 4.93752C13.1855 5.89389 13.9634 6.67264 14.9207 6.67264H17.0023C17.6717 6.67264 18.2168 6.12752 18.2168 5.45814V4.41689C18.2168 3.74752 17.6717 3.20239 17.0023 3.20239Z" fill="#5072EB"/>
<path d="M20.8438 5.59375H18.2188C17.8565 5.59375 17.5625 5.29975 17.5625 4.9375C17.5625 4.57525 17.8565 4.28125 18.2188 4.28125H20.8438C21.206 4.28125 21.5 4.57525 21.5 4.9375C21.5 5.29975 21.206 5.59375 20.8438 5.59375Z" fill="#5072EB"/>
<path d="M3.78125 16.0938H1.15625C0.794 16.0938 0.5 15.7997 0.5 15.4375C0.5 15.0752 0.794 14.7812 1.15625 14.7812H3.78125C4.1435 14.7812 4.4375 15.0752 4.4375 15.4375C4.4375 15.7997 4.1435 16.0938 3.78125 16.0938Z" fill="#5072EB"/>
<path d="M7.28125 17.625H4.65625C3.81188 17.625 3.125 16.9381 3.125 16.0938V14.7813C3.125 13.9369 3.81188 13.25 4.65625 13.25H7.28125C8.48788 13.25 9.46875 14.2318 9.46875 15.4375C9.46875 16.6433 8.48788 17.625 7.28125 17.625ZM4.65625 14.5625C4.5355 14.5625 4.4375 14.6605 4.4375 14.7813V16.0938C4.4375 16.2145 4.5355 16.3125 4.65625 16.3125H7.28125C7.76425 16.3125 8.15625 15.9196 8.15625 15.4375C8.15625 14.9554 7.76425 14.5625 7.28125 14.5625H4.65625Z" fill="#5072EB"/>
<path d="M17.3418 7.125H14.7168C13.5102 7.125 12.5293 6.14325 12.5293 4.9375C12.5293 3.73175 13.5102 2.75 14.7168 2.75H17.3418C18.1862 2.75 18.873 3.43688 18.873 4.28125V5.59375C18.873 6.43813 18.1862 7.125 17.3418 7.125ZM14.7168 4.0625C14.2338 4.0625 13.8418 4.45538 13.8418 4.9375C13.8418 5.41963 14.2338 5.8125 14.7168 5.8125H17.3418C17.4625 5.8125 17.5605 5.7145 17.5605 5.59375V4.28125C17.5605 4.1605 17.4625 4.0625 17.3418 4.0625H14.7168Z" fill="#5072EB"/>
<path d="M15.5938 16.0938H8.8125C8.45025 16.0938 8.15625 15.7998 8.15625 15.4375C8.15625 15.0752 8.45025 14.7812 8.8125 14.7812H15.5938C16.6788 14.7812 17.5625 13.8984 17.5625 12.8125C17.5625 11.7266 16.6788 10.8438 15.5938 10.8438H6.40625C4.59763 10.8438 3.125 9.372 3.125 7.5625C3.125 5.753 4.59763 4.28125 6.40625 4.28125H13.1875C13.5498 4.28125 13.8438 4.57525 13.8438 4.9375C13.8438 5.29975 13.5498 5.59375 13.1875 5.59375H6.40625C5.32125 5.59375 4.4375 6.47662 4.4375 7.5625C4.4375 8.64838 5.32125 9.53125 6.40625 9.53125H15.5938C17.4024 9.53125 18.875 11.003 18.875 12.8125C18.875 14.622 17.4024 16.0938 15.5938 16.0938Z" fill="#5072EB"/>
</g>
<defs>
<clipPath id="clip0_6400_43012">
<rect width="21" height="21" fill="white" transform="translate(0.5 0.125)"/>
</clipPath>
</defs>
</svg>
