<svg width="46" height="45" viewBox="0 0 46 45" fill="none" xmlns="http://www.w3.org/2000/svg">
<path d="M35.75 8.24987C35.0555 8.24887 34.3632 8.32943 33.6875 8.48987C32.9477 6.23911 31.5162 4.27935 29.5971 2.89001C27.678 1.50068 25.3692 0.752686 23 0.752686C20.6308 0.752686 18.322 1.50068 16.4029 2.89001C14.4838 4.27935 13.0523 6.23911 12.3125 8.48987C11.6368 8.32943 10.9445 8.24887 10.25 8.24987C7.86305 8.24987 5.57387 9.19809 3.88604 10.8859C2.19821 12.5737 1.25 14.8629 1.25 17.2499C1.25 19.6368 2.19821 21.926 3.88604 23.6138C5.57387 25.3017 7.86305 26.2499 10.25 26.2499H11.75V24.7499C11.75 23.9542 12.0661 23.1912 12.6287 22.6286C13.1913 22.0659 13.9544 21.7499 14.75 21.7499H15.5V17.2499C15.5 15.2608 16.2902 13.3531 17.6967 11.9466C19.1032 10.5401 21.0109 9.74988 23 9.74987C24.9891 9.74987 26.8968 10.5401 28.3033 11.9466C29.7098 13.3531 30.5 15.2608 30.5 17.2499V21.7499H31.25C32.0456 21.7499 32.8087 22.0659 33.3713 22.6286C33.9339 23.1912 34.25 23.9542 34.25 24.7499V26.2499H35.75C38.1369 26.2499 40.4261 25.3017 42.114 23.6138C43.8018 21.926 44.75 19.6368 44.75 17.2499C44.75 14.8629 43.8018 12.5737 42.114 10.8859C40.4261 9.19809 38.1369 8.24987 35.75 8.24987Z" fill="#B8C7F7"/>
<path d="M31.25 21.7498H14.75C13.9544 21.7498 13.1913 22.0658 12.6287 22.6284C12.0661 23.191 11.75 23.9541 11.75 24.7498V41.2498C11.75 42.0454 12.0661 42.8085 12.6287 43.3711C13.1913 43.9337 13.9544 44.2498 14.75 44.2498H31.25C32.0456 44.2498 32.8087 43.9337 33.3713 43.3711C33.9339 42.8085 34.25 42.0454 34.25 41.2498V24.7498C34.25 23.9541 33.9339 23.191 33.3713 22.6284C32.8087 22.0658 32.0456 21.7498 31.25 21.7498ZM24.5 32.5948V37.4998C24.5 37.8976 24.342 38.2791 24.0607 38.5604C23.7794 38.8417 23.3978 38.9998 23 38.9998C22.6022 38.9998 22.2206 38.8417 21.9393 38.5604C21.658 38.2791 21.5 37.8976 21.5 37.4998V32.5948C20.9281 32.2646 20.4811 31.7549 20.2284 31.1447C19.9756 30.5346 19.9313 29.8581 20.1022 29.2202C20.2731 28.5823 20.6498 28.0186 21.1737 27.6166C21.6976 27.2146 22.3396 26.9967 23 26.9967C23.6604 26.9967 24.3024 27.2146 24.8263 27.6166C25.3502 28.0186 25.7269 28.5823 25.8978 29.2202C26.0687 29.8581 26.0244 30.5346 25.7716 31.1447C25.5189 31.7549 25.0719 32.2646 24.5 32.5948Z" fill="#B8C7F7"/>
<path d="M23 12.7498C21.8069 12.7509 20.663 13.2254 19.8193 14.0691C18.9757 14.9127 18.5012 16.0566 18.5 17.2498V21.7498H27.5V17.2498C27.4988 16.0566 27.0243 14.9127 26.1807 14.0691C25.337 13.2254 24.1931 12.7509 23 12.7498Z" fill="#B8C7F7"/>
<path d="M35.0132 29.9999H41.1257C41.3026 30.5003 41.6507 30.9221 42.1086 31.1907C42.5664 31.4592 43.1044 31.5573 43.6275 31.4675C44.1506 31.3778 44.6252 31.106 44.9673 30.7002C45.3094 30.2944 45.497 29.7807 45.497 29.2499C45.497 28.7192 45.3094 28.2055 44.9673 27.7997C44.6252 27.3939 44.1506 27.1221 43.6275 27.0323C43.1044 26.9426 42.5664 27.0406 42.1086 27.3092C41.6507 27.5778 41.3026 27.9995 41.1257 28.4999H35.0132C35.0057 28.4999 34.9982 28.5074 34.9907 28.5074V26.9999H35.7407C38.3266 26.9999 40.8065 25.9727 42.635 24.1442C44.4635 22.3157 45.4907 19.8358 45.4907 17.2499C45.4907 14.6641 44.4635 12.1841 42.635 10.3556C40.8065 8.52716 38.3266 7.49993 35.7407 7.49993C35.2132 7.50078 34.6865 7.54341 34.1657 7.62743C33.2862 5.37965 31.7493 3.44935 29.7556 2.08862C27.762 0.727896 25.4044 0 22.9907 0C20.577 0 18.2194 0.727896 16.2257 2.08862C14.2321 3.44935 12.6952 5.37965 11.8157 7.62743C11.2949 7.54341 10.7682 7.50078 10.2407 7.49993C7.65483 7.49993 5.17488 8.52716 3.3464 10.3556C1.51792 12.1841 0.490695 14.6641 0.490695 17.2499C0.490695 19.8358 1.51792 22.3157 3.3464 24.1442C5.17488 25.9727 7.65483 26.9999 10.2407 26.9999H10.9907V28.5074C10.9832 28.5074 10.9757 28.4999 10.9682 28.4999H4.8557C4.67877 27.9995 4.33064 27.5778 3.87284 27.3092C3.41503 27.0406 2.87702 26.9426 2.3539 27.0323C1.83077 27.1221 1.35622 27.3939 1.01412 27.7997C0.67201 28.2055 0.484375 28.7192 0.484375 29.2499C0.484375 29.7807 0.67201 30.2944 1.01412 30.7002C1.35622 31.106 1.83077 31.3778 2.3539 31.4675C2.87702 31.5573 3.41503 31.4592 3.87284 31.1907C4.33064 30.9221 4.67877 30.5003 4.8557 29.9999H10.9682C10.9757 29.9999 10.9832 29.9924 10.9907 29.9924V34.5074C10.9832 34.5074 10.9757 34.4999 10.9682 34.4999H7.8557C7.67877 33.9995 7.33064 33.5778 6.87284 33.3092C6.41503 33.0406 5.87702 32.9426 5.3539 33.0323C4.83077 33.1221 4.35622 33.3939 4.01412 33.7997C3.67201 34.2055 3.48438 34.7192 3.48438 35.2499C3.48438 35.7807 3.67201 36.2944 4.01412 36.7002C4.35622 37.106 4.83077 37.3778 5.3539 37.4675C5.87702 37.5573 6.41503 37.4592 6.87284 37.1907C7.33064 36.9221 7.67877 36.5003 7.8557 35.9999H10.9682C10.9757 35.9999 10.9832 35.9924 10.9907 35.9924V40.5074C10.9832 40.5074 10.9757 40.4999 10.9682 40.4999H4.8557C4.67877 39.9995 4.33064 39.5778 3.87284 39.3092C3.41503 39.0406 2.87702 38.9426 2.3539 39.0323C1.83077 39.1221 1.35622 39.3939 1.01412 39.7997C0.67201 40.2055 0.484375 40.7192 0.484375 41.2499C0.484375 41.7807 0.67201 42.2944 1.01412 42.7002C1.35622 43.106 1.83077 43.3778 2.3539 43.4675C2.87702 43.5573 3.41503 43.4592 3.87284 43.1907C4.33064 42.9221 4.67877 42.5003 4.8557 41.9999H10.9682C11.0014 41.996 11.0341 41.9885 11.0657 41.9774C11.234 42.8286 11.6923 43.5951 12.3624 44.1462C13.0325 44.6973 13.873 44.9991 14.7407 44.9999H31.2407C32.1084 44.9991 32.9489 44.6973 33.619 44.1462C34.2891 43.5951 34.7474 42.8286 34.9157 41.9774C34.9473 41.9885 34.98 41.996 35.0132 41.9999H41.1257C41.3026 42.5003 41.6507 42.9221 42.1086 43.1907C42.5664 43.4592 43.1044 43.5573 43.6275 43.4675C44.1506 43.3778 44.6252 43.106 44.9673 42.7002C45.3094 42.2944 45.497 41.7807 45.497 41.2499C45.497 40.7192 45.3094 40.2055 44.9673 39.7997C44.6252 39.3939 44.1506 39.1221 43.6275 39.0323C43.1044 38.9426 42.5664 39.0406 42.1086 39.3092C41.6507 39.5778 41.3026 39.9995 41.1257 40.4999H35.0132C35.0057 40.4999 34.9982 40.5074 34.9907 40.5074V35.9924C34.9982 35.9924 35.0057 35.9999 35.0132 35.9999H38.1257C38.3026 36.5003 38.6507 36.9221 39.1086 37.1907C39.5664 37.4592 40.1044 37.5573 40.6275 37.4675C41.1506 37.3778 41.6252 37.106 41.9673 36.7002C42.3094 36.2944 42.497 35.7807 42.497 35.2499C42.497 34.7192 42.3094 34.2055 41.9673 33.7997C41.6252 33.3939 41.1506 33.1221 40.6275 33.0323C40.1044 32.9426 39.5664 33.0406 39.1086 33.3092C38.6507 33.5778 38.3026 33.9995 38.1257 34.4999H35.0132C35.0057 34.4999 34.9982 34.5074 34.9907 34.5074V29.9924C34.9982 29.9924 35.0057 29.9999 35.0132 29.9999ZM43.2407 28.4999C43.389 28.4999 43.534 28.5439 43.6574 28.6263C43.7807 28.7087 43.8768 28.8259 43.9336 28.9629C43.9904 29.1 44.0052 29.2508 43.9763 29.3962C43.9473 29.5417 43.8759 29.6754 43.771 29.7803C43.6661 29.8852 43.5325 29.9566 43.387 29.9855C43.2415 30.0145 43.0907 29.9996 42.9537 29.9428C42.8166 29.8861 42.6995 29.7899 42.6171 29.6666C42.5347 29.5433 42.4907 29.3983 42.4907 29.2499C42.4907 29.051 42.5697 28.8603 42.7104 28.7196C42.851 28.5789 43.0418 28.4999 43.2407 28.4999ZM2.7407 29.9999C2.59236 29.9999 2.44735 29.9559 2.32402 29.8735C2.20068 29.7911 2.10455 29.674 2.04779 29.5369C1.99102 29.3999 1.97617 29.2491 2.00511 29.1036C2.03405 28.9581 2.10548 28.8245 2.21037 28.7196C2.31525 28.6147 2.44889 28.5433 2.59438 28.5143C2.73986 28.4854 2.89066 28.5003 3.02771 28.557C3.16475 28.6138 3.28189 28.7099 3.3643 28.8333C3.44671 28.9566 3.4907 29.1016 3.4907 29.2499C3.4907 29.4488 3.41168 29.6396 3.27103 29.7803C3.13037 29.9209 2.93961 29.9999 2.7407 29.9999ZM5.7407 35.9999C5.59236 35.9999 5.44735 35.9559 5.32402 35.8735C5.20068 35.7911 5.10455 35.674 5.04779 35.5369C4.99102 35.3999 4.97617 35.2491 5.00511 35.1036C5.03405 34.9581 5.10548 34.8245 5.21037 34.7196C5.31526 34.6147 5.44889 34.5433 5.59438 34.5143C5.73986 34.4854 5.89066 34.5003 6.02771 34.557C6.16475 34.6138 6.28189 34.7099 6.3643 34.8333C6.44671 34.9566 6.4907 35.1016 6.4907 35.2499C6.4907 35.4488 6.41168 35.6396 6.27103 35.7803C6.13037 35.9209 5.93961 35.9999 5.7407 35.9999ZM2.7407 41.9999C2.59236 41.9999 2.44735 41.9559 2.32402 41.8735C2.20068 41.7911 2.10455 41.674 2.04779 41.5369C1.99102 41.3999 1.97617 41.2491 2.00511 41.1036C2.03405 40.9581 2.10548 40.8245 2.21037 40.7196C2.31525 40.6147 2.44889 40.5433 2.59438 40.5143C2.73986 40.4854 2.89066 40.5003 3.02771 40.557C3.16475 40.6138 3.28189 40.7099 3.3643 40.8333C3.44671 40.9566 3.4907 41.1016 3.4907 41.2499C3.4907 41.4488 3.41168 41.6396 3.27103 41.7803C3.13037 41.9209 2.93961 41.9999 2.7407 41.9999ZM43.2407 40.4999C43.389 40.4999 43.534 40.5439 43.6574 40.6263C43.7807 40.7087 43.8768 40.8259 43.9336 40.9629C43.9904 41.1 44.0052 41.2508 43.9763 41.3963C43.9473 41.5417 43.8759 41.6754 43.771 41.7803C43.6661 41.8852 43.5325 41.9566 43.387 41.9855C43.2415 42.0145 43.0907 41.9996 42.9537 41.9428C42.8166 41.8861 42.6995 41.7899 42.6171 41.6666C42.5347 41.5433 42.4907 41.3983 42.4907 41.2499C42.4907 41.051 42.5697 40.8603 42.7104 40.7196C42.851 40.5789 43.0418 40.4999 43.2407 40.4999ZM40.2407 34.4999C40.389 34.4999 40.534 34.5439 40.6574 34.6263C40.7807 34.7087 40.8768 34.8259 40.9336 34.9629C40.9904 35.1 41.0052 35.2508 40.9763 35.3962C40.9473 35.5417 40.8759 35.6754 40.771 35.7803C40.6661 35.8852 40.5325 35.9566 40.387 35.9855C40.2415 36.0145 40.0907 35.9996 39.9537 35.9428C39.8166 35.8861 39.6995 35.7899 39.6171 35.6666C39.5347 35.5433 39.4907 35.3983 39.4907 35.2499C39.4907 35.051 39.5697 34.8603 39.7104 34.7196C39.851 34.5789 40.0418 34.4999 40.2407 34.4999ZM33.4907 41.2499C33.4889 41.8461 33.2513 42.4174 32.8297 42.839C32.4081 43.2605 31.8369 43.4981 31.2407 43.4999H14.7407C14.1445 43.4981 13.5732 43.2605 13.1517 42.839C12.7301 42.4174 12.4925 41.8461 12.4907 41.2499V24.7499C12.4925 24.1537 12.7301 23.5825 13.1517 23.1609C13.5732 22.7393 14.1445 22.5017 14.7407 22.4999H31.2407C31.8369 22.5017 32.4081 22.7393 32.8297 23.1609C33.2513 23.5825 33.4889 24.1537 33.4907 24.7499V41.2499ZM22.9907 11.9999C21.5988 12.0015 20.2644 12.5552 19.2801 13.5394C18.2959 14.5236 17.7423 15.858 17.7407 17.2499V20.9999H16.2407V17.2499C16.2407 15.4597 16.9519 13.7428 18.2177 12.477C19.4836 11.2111 21.2005 10.4999 22.9907 10.4999C24.7809 10.4999 26.4978 11.2111 27.7637 12.477C29.0295 13.7428 29.7407 15.4597 29.7407 17.2499V20.9999H28.2407V17.2499C28.2391 15.858 27.6855 14.5236 26.7013 13.5394C25.717 12.5552 24.3826 12.0015 22.9907 11.9999ZM26.7407 17.2499V20.9999H19.2407V17.2499C19.2407 16.2554 19.6358 15.3015 20.339 14.5983C21.0423 13.895 21.9961 13.4999 22.9907 13.4999C23.9853 13.4999 24.9391 13.895 25.6423 14.5983C26.3456 15.3015 26.7407 16.2554 26.7407 17.2499ZM31.2407 20.9999V17.2499C31.2407 15.0619 30.3715 12.9635 28.8243 11.4163C27.2772 9.86912 25.1787 8.99993 22.9907 8.99993C20.8027 8.99993 18.7042 9.86912 17.1571 11.4163C15.6099 12.9635 14.7407 15.0619 14.7407 17.2499V20.9999C13.7461 20.9999 12.7923 21.395 12.089 22.0983C11.3858 22.8015 10.9907 23.7554 10.9907 24.7499V25.4999H10.2407C8.05266 25.4999 5.95424 24.6307 4.40706 23.0836C2.85989 21.5364 1.9907 19.438 1.9907 17.2499C1.9907 15.0619 2.85989 12.9635 4.40706 11.4163C5.95424 9.86912 8.05266 8.99993 10.2407 8.99993C10.8769 9.00017 11.511 9.07314 12.1307 9.21743C12.3134 9.26067 12.5057 9.23381 12.6695 9.14216C12.8334 9.05051 12.9569 8.90074 13.0157 8.72243C13.7062 6.62171 15.0422 4.79261 16.8334 3.49589C18.6246 2.19918 20.7794 1.50105 22.9907 1.50105C25.202 1.50105 27.3568 2.19918 29.148 3.49589C30.9392 4.79261 32.2752 6.62171 32.9657 8.72243C33.0245 8.90074 33.148 9.05051 33.3119 9.14216C33.4757 9.23381 33.668 9.26067 33.8507 9.21743C34.4703 9.07314 35.1045 9.00017 35.7407 8.99993C37.9287 8.99993 40.0272 9.86912 41.5743 11.4163C43.1215 12.9635 43.9907 15.0619 43.9907 17.2499C43.9907 19.438 43.1215 21.5364 41.5743 23.0836C40.0272 24.6307 37.9287 25.4999 35.7407 25.4999H34.9907V24.7499C34.9907 24.2575 34.8937 23.7698 34.7052 23.3149C34.5168 22.8599 34.2406 22.4465 33.8923 22.0983C33.5441 21.7501 33.1307 21.4738 32.6758 21.2854C32.2208 21.0969 31.7332 20.9999 31.2407 20.9999Z" fill="#5072EB"/>
<path d="M23.9098 26.3579C23.3531 26.2212 22.7725 26.2131 22.2122 26.3342C21.6518 26.4553 21.1264 26.7025 20.6758 27.0569C20.2252 27.4129 19.8623 27.8675 19.6151 28.3859C19.3679 28.9043 19.2431 29.4725 19.2503 30.0467C19.2575 30.6209 19.3964 31.1859 19.6565 31.6979C19.9165 32.2099 20.2907 32.6554 20.7501 32.9999V37.4999C20.7501 38.0967 20.9872 38.669 21.4091 39.0909C21.8311 39.5129 22.4034 39.7499 23.0001 39.7499C23.5968 39.7499 24.1691 39.5129 24.5911 39.0909C25.013 38.669 25.2501 38.0967 25.2501 37.4999V32.9999C25.8436 32.5546 26.292 31.9435 26.5388 31.2438C26.7856 30.544 26.8197 29.7868 26.6368 29.0677C26.4732 28.41 26.1325 27.8097 25.6518 27.332C25.171 26.8543 24.5686 26.5174 23.9098 26.3579ZM24.1258 31.9447C24.0117 32.0106 23.917 32.1054 23.8511 32.2195C23.7853 32.3337 23.7507 32.4632 23.7508 32.5949V37.4999C23.7508 37.6988 23.6718 37.8896 23.5312 38.0303C23.3905 38.1709 23.1998 38.2499 23.0008 38.2499C22.8019 38.2499 22.6112 38.1709 22.4705 38.0303C22.3299 37.8896 22.2508 37.6988 22.2508 37.4999V32.5949C22.251 32.4632 22.2164 32.3337 22.1506 32.2195C22.0847 32.1054 21.99 32.0106 21.8758 31.9447C21.5584 31.7608 21.2908 31.502 21.0963 31.191C20.9017 30.88 20.7862 30.5261 20.7597 30.1602C20.7332 29.7943 20.7966 29.4275 20.9444 29.0917C21.0921 28.7559 21.3197 28.4614 21.6073 28.2337C22.0016 27.9192 22.4913 27.7485 22.9956 27.7499C23.1869 27.7503 23.3774 27.7732 23.5633 27.8182C23.9521 27.9151 24.3074 28.1152 24.5919 28.3973C24.8764 28.6794 25.0794 29.033 25.1796 29.4209C25.3031 29.899 25.2669 30.4044 25.0765 30.86C24.8861 31.3156 24.5528 31.6965 24.1258 31.9447Z" fill="#5072EB"/>
</svg>
