<svg width="33" height="33" viewBox="0 0 33 33" fill="none" xmlns="http://www.w3.org/2000/svg">
<path d="M25 6.99996C24.537 6.99929 24.0755 7.05299 23.625 7.15996C23.1318 5.65944 22.1775 4.35294 20.8981 3.42672C19.6187 2.50049 18.0795 2.00183 16.5 2.00183C14.9205 2.00183 13.3813 2.50049 12.1019 3.42672C10.8225 4.35294 9.86819 5.65944 9.375 7.15996C8.92451 7.05299 8.46302 6.99929 8 6.99996C6.4087 6.99996 4.88258 7.6321 3.75736 8.75732C2.63214 9.88253 2 11.4087 2 13C2 14.5913 2.63214 16.1174 3.75736 17.2426C4.88258 18.3678 6.4087 19 8 19H9V18C9 17.4695 9.21071 16.9608 9.58579 16.5857C9.96086 16.2107 10.4696 16 11 16H11.5V13C11.5 11.6739 12.0268 10.4021 12.9645 9.46442C13.9021 8.52674 15.1739 7.99996 16.5 7.99996C17.8261 7.99996 19.0979 8.52674 20.0355 9.46442C20.9732 10.4021 21.5 11.6739 21.5 13V16H22C22.5304 16 23.0391 16.2107 23.4142 16.5857C23.7893 16.9608 24 17.4695 24 18V19H25C26.5913 19 28.1174 18.3678 29.2426 17.2426C30.3679 16.1174 31 14.5913 31 13C31 11.4087 30.3679 9.88253 29.2426 8.75732C28.1174 7.6321 26.5913 6.99996 25 6.99996Z" fill="#B8C7F7"/>
<path d="M22 16H11C10.4696 16 9.96086 16.2107 9.58579 16.5858C9.21071 16.9608 9 17.4695 9 18V29C9 29.5304 9.21071 30.0391 9.58579 30.4142C9.96086 30.7893 10.4696 31 11 31H22C22.5304 31 23.0391 30.7893 23.4142 30.4142C23.7893 30.0391 24 29.5304 24 29V18C24 17.4695 23.7893 16.9608 23.4142 16.5858C23.0391 16.2107 22.5304 16 22 16ZM17.5 23.23V26.5C17.5 26.7652 17.3946 27.0195 17.2071 27.2071C17.0196 27.3946 16.7652 27.5 16.5 27.5C16.2348 27.5 15.9804 27.3946 15.7929 27.2071C15.6054 27.0195 15.5 26.7652 15.5 26.5V23.23C15.1187 23.0098 14.8207 22.67 14.6522 22.2633C14.4838 21.8565 14.4542 21.4055 14.5681 20.9803C14.6821 20.555 14.9332 20.1792 15.2825 19.9112C15.6318 19.6432 16.0597 19.4979 16.5 19.4979C16.9403 19.4979 17.3682 19.6432 17.7175 19.9112C18.0668 20.1792 18.3179 20.555 18.4319 20.9803C18.5458 21.4055 18.5162 21.8565 18.3478 22.2633C18.1793 22.67 17.8813 23.0098 17.5 23.23Z" fill="#B8C7F7"/>
<path d="M16.5 9.99997C15.7046 10.0008 14.942 10.3171 14.3796 10.8795C13.8171 11.442 13.5008 12.2046 13.5 13V16H19.5V13C19.4992 12.2046 19.1829 11.442 18.6204 10.8795C18.058 10.3171 17.2954 10.0008 16.5 9.99997Z" fill="#B8C7F7"/>
<path d="M24.5114 21.5H28.5864C28.7043 21.8336 28.9364 22.1147 29.2416 22.2938C29.5468 22.4728 29.9055 22.5382 30.2543 22.4783C30.603 22.4185 30.9194 22.2373 31.1475 21.9668C31.3755 21.6962 31.5006 21.3538 31.5006 21C31.5006 20.6461 31.3755 20.3037 31.1475 20.0331C30.9194 19.7626 30.603 19.5814 30.2543 19.5216C29.9055 19.4617 29.5468 19.5271 29.2416 19.7061C28.9364 19.8852 28.7043 20.1663 28.5864 20.5H24.5114C24.5064 20.5 24.5014 20.505 24.4964 20.505V19.5H24.9964C26.7203 19.5 28.3736 18.8151 29.5926 17.5961C30.8116 16.3772 31.4964 14.7239 31.4964 13C31.4964 11.276 30.8116 9.62275 29.5926 8.40376C28.3736 7.18477 26.7203 6.49995 24.9964 6.49995C24.6447 6.50052 24.2936 6.52894 23.9464 6.58495C23.3601 5.08643 22.3354 3.79956 21.0064 2.89241C19.6773 1.98526 18.1055 1.5 16.4964 1.5C14.8873 1.5 13.3155 1.98526 11.9864 2.89241C10.6574 3.79956 9.63274 5.08643 9.0464 6.58495C8.69919 6.52894 8.3481 6.50052 7.9964 6.49995C6.27249 6.49995 4.61919 7.18477 3.40021 8.40376C2.18122 9.62275 1.4964 11.276 1.4964 13C1.4964 14.7239 2.18122 16.3772 3.40021 17.5961C4.61919 18.8151 6.27249 19.5 7.9964 19.5H8.4964V20.505C8.4914 20.505 8.4864 20.5 8.4814 20.5H4.4064C4.28845 20.1663 4.05637 19.8852 3.75116 19.7061C3.44596 19.5271 3.08728 19.4617 2.73853 19.5216C2.38979 19.5814 2.07342 19.7626 1.84535 20.0331C1.61728 20.3037 1.49219 20.6461 1.49219 21C1.49219 21.3538 1.61728 21.6962 1.84535 21.9668C2.07342 22.2373 2.38979 22.4185 2.73853 22.4783C3.08728 22.5382 3.44596 22.4728 3.75116 22.2938C4.05637 22.1147 4.28845 21.8336 4.4064 21.5H8.4814C8.4864 21.5 8.4914 21.495 8.4964 21.495V24.505C8.4914 24.505 8.4864 24.5 8.4814 24.5H6.4064C6.28845 24.1663 6.05637 23.8852 5.75116 23.7061C5.44596 23.5271 5.08728 23.4617 4.73853 23.5216C4.38979 23.5814 4.07342 23.7626 3.84535 24.0331C3.61728 24.3037 3.49219 24.6461 3.49219 25C3.49219 25.3538 3.61728 25.6962 3.84535 25.9668C4.07342 26.2373 4.38979 26.4185 4.73853 26.4783C5.08728 26.5382 5.44596 26.4728 5.75116 26.2938C6.05637 26.1147 6.28845 25.8336 6.4064 25.5H8.4814C8.4864 25.5 8.4914 25.495 8.4964 25.495V28.505C8.4914 28.505 8.4864 28.5 8.4814 28.5H4.4064C4.28845 28.1663 4.05637 27.8852 3.75116 27.7061C3.44596 27.5271 3.08728 27.4617 2.73853 27.5216C2.38979 27.5814 2.07342 27.7626 1.84535 28.0331C1.61728 28.3037 1.49219 28.6461 1.49219 29C1.49219 29.3538 1.61728 29.6962 1.84535 29.9668C2.07342 30.2373 2.38979 30.4185 2.73853 30.4783C3.08728 30.5382 3.44596 30.4728 3.75116 30.2938C4.05637 30.1147 4.28845 29.8336 4.4064 29.5H8.4814C8.50355 29.4973 8.52535 29.4923 8.5464 29.485C8.65862 30.0524 8.96413 30.5634 9.41088 30.9308C9.85763 31.2982 10.418 31.4994 10.9964 31.5H21.9964C22.5748 31.4994 23.1352 31.2982 23.5819 30.9308C24.0287 30.5634 24.3342 30.0524 24.4464 29.485C24.4675 29.4923 24.4893 29.4973 24.5114 29.5H28.5864C28.7043 29.8336 28.9364 30.1147 29.2416 30.2938C29.5468 30.4728 29.9055 30.5382 30.2543 30.4783C30.603 30.4185 30.9194 30.2373 31.1475 29.9668C31.3755 29.6962 31.5006 29.3538 31.5006 29C31.5006 28.6461 31.3755 28.3037 31.1475 28.0331C30.9194 27.7626 30.603 27.5814 30.2543 27.5216C29.9055 27.4617 29.5468 27.5271 29.2416 27.7061C28.9364 27.8852 28.7043 28.1663 28.5864 28.5H24.5114C24.5064 28.5 24.5014 28.505 24.4964 28.505V25.495C24.5014 25.495 24.5064 25.5 24.5114 25.5H26.5864C26.7043 25.8336 26.9364 26.1147 27.2416 26.2938C27.5468 26.4728 27.9055 26.5382 28.2543 26.4783C28.603 26.4185 28.9194 26.2373 29.1475 25.9668C29.3755 25.6962 29.5006 25.3538 29.5006 25C29.5006 24.6461 29.3755 24.3037 29.1475 24.0331C28.9194 23.7626 28.603 23.5814 28.2543 23.5216C27.9055 23.4617 27.5468 23.5271 27.2416 23.7061C26.9364 23.8852 26.7043 24.1663 26.5864 24.5H24.5114C24.5064 24.5 24.5014 24.505 24.4964 24.505V21.495C24.5014 21.495 24.5064 21.5 24.5114 21.5ZM29.9964 20.5C30.0953 20.5 30.192 20.5293 30.2742 20.5842C30.3564 20.6392 30.4205 20.7172 30.4583 20.8086C30.4962 20.9 30.5061 21.0005 30.4868 21.0975C30.4675 21.1945 30.4199 21.2836 30.35 21.3535C30.28 21.4234 30.1909 21.4711 30.0939 21.4903C29.997 21.5096 29.8964 21.4997 29.8051 21.4619C29.7137 21.424 29.6356 21.36 29.5807 21.2777C29.5257 21.1955 29.4964 21.0988 29.4964 21C29.4964 20.8673 29.5491 20.7402 29.6428 20.6464C29.7366 20.5526 29.8638 20.5 29.9964 20.5ZM2.9964 21.5C2.89751 21.5 2.80084 21.4706 2.71862 21.4157C2.63639 21.3607 2.57231 21.2827 2.53446 21.1913C2.49662 21.0999 2.48672 20.9994 2.50601 20.9024C2.5253 20.8054 2.57292 20.7163 2.64285 20.6464C2.71277 20.5765 2.80187 20.5289 2.89886 20.5096C2.99585 20.4903 3.09638 20.5002 3.18774 20.538C3.27911 20.5759 3.3572 20.6399 3.41214 20.7222C3.46708 20.8044 3.4964 20.9011 3.4964 21C3.4964 21.1326 3.44372 21.2597 3.34995 21.3535C3.25619 21.4473 3.12901 21.5 2.9964 21.5ZM4.9964 25.5C4.89751 25.5 4.80084 25.4706 4.71862 25.4157C4.63639 25.3607 4.5723 25.2827 4.53446 25.1913C4.49662 25.0999 4.48672 24.9994 4.50601 24.9024C4.5253 24.8054 4.57292 24.7163 4.64285 24.6464C4.71277 24.5765 4.80187 24.5289 4.89886 24.5096C4.99585 24.4903 5.09638 24.5002 5.18774 24.538C5.27911 24.5759 5.3572 24.6399 5.41214 24.7222C5.46708 24.8044 5.4964 24.9011 5.4964 25C5.4964 25.1326 5.44372 25.2597 5.34995 25.3535C5.25619 25.4473 5.12901 25.5 4.9964 25.5ZM2.9964 29.5C2.89751 29.5 2.80084 29.4706 2.71862 29.4157C2.63639 29.3607 2.57231 29.2827 2.53446 29.1913C2.49662 29.0999 2.48672 28.9994 2.50601 28.9024C2.5253 28.8054 2.57292 28.7163 2.64285 28.6464C2.71277 28.5765 2.80187 28.5289 2.89886 28.5096C2.99585 28.4903 3.09638 28.5002 3.18774 28.538C3.27911 28.5759 3.3572 28.6399 3.41214 28.7222C3.46708 28.8044 3.4964 28.9011 3.4964 29C3.4964 29.1326 3.44372 29.2597 3.34995 29.3535C3.25619 29.4473 3.12901 29.5 2.9964 29.5ZM29.9964 28.5C30.0953 28.5 30.192 28.5293 30.2742 28.5842C30.3564 28.6392 30.4205 28.7172 30.4583 28.8086C30.4962 28.9 30.5061 29.0005 30.4868 29.0975C30.4675 29.1945 30.4199 29.2836 30.35 29.3535C30.28 29.4234 30.1909 29.4711 30.0939 29.4903C29.997 29.5096 29.8964 29.4997 29.8051 29.4619C29.7137 29.424 29.6356 29.36 29.5807 29.2777C29.5257 29.1955 29.4964 29.0988 29.4964 29C29.4964 28.8673 29.5491 28.7402 29.6428 28.6464C29.7366 28.5526 29.8638 28.5 29.9964 28.5ZM27.9964 24.5C28.0953 24.5 28.192 24.5293 28.2742 24.5842C28.3564 24.6392 28.4205 24.7172 28.4583 24.8086C28.4962 24.9 28.5061 25.0005 28.4868 25.0975C28.4675 25.1945 28.4199 25.2836 28.35 25.3535C28.28 25.4234 28.1909 25.4711 28.0939 25.4903C27.997 25.5096 27.8964 25.4997 27.8051 25.4619C27.7137 25.424 27.6356 25.36 27.5807 25.2777C27.5257 25.1955 27.4964 25.0988 27.4964 25C27.4964 24.8673 27.5491 24.7402 27.6428 24.6464C27.7366 24.5526 27.8638 24.5 27.9964 24.5ZM23.4964 29C23.4952 29.3974 23.3368 29.7783 23.0557 30.0593C22.7747 30.3403 22.3939 30.4988 21.9964 30.5H10.9964C10.5989 30.4988 10.2181 30.3403 9.93705 30.0593C9.656 29.7783 9.49759 29.3974 9.4964 29V18C9.49759 17.6025 9.656 17.2217 9.93705 16.9406C10.2181 16.6596 10.5989 16.5011 10.9964 16.5H21.9964C22.3939 16.5011 22.7747 16.6596 23.0557 16.9406C23.3368 17.2217 23.4952 17.6025 23.4964 18V29ZM16.4964 9.49995C15.5685 9.50101 14.6788 9.8701 14.0227 10.5262C13.3665 11.1824 12.9975 12.072 12.9964 13V15.5H11.9964V13C11.9964 11.8065 12.4705 10.6619 13.3144 9.81797C14.1583 8.97406 15.3029 8.49995 16.4964 8.49995C17.6899 8.49995 18.8345 8.97406 19.6784 9.81797C20.5223 10.6619 20.9964 11.8065 20.9964 13V15.5H19.9964V13C19.9953 12.072 19.6263 11.1824 18.9701 10.5262C18.314 9.8701 17.4243 9.50101 16.4964 9.49995ZM18.9964 13V15.5H13.9964V13C13.9964 12.3369 14.2598 11.701 14.7286 11.2322C15.1975 10.7633 15.8334 10.5 16.4964 10.5C17.1594 10.5 17.7953 10.7633 18.2642 11.2322C18.733 11.701 18.9964 12.3369 18.9964 13ZM21.9964 15.5V13C21.9964 11.5413 21.4169 10.1423 20.3855 9.11087C19.354 8.07942 17.9551 7.49995 16.4964 7.49995C15.0377 7.49995 13.6388 8.07942 12.6073 9.11087C11.5759 10.1423 10.9964 11.5413 10.9964 13V15.5C10.3334 15.5 9.69747 15.7633 9.22863 16.2322C8.75979 16.701 8.4964 17.3369 8.4964 18V18.5H7.9964C6.53771 18.5 5.13876 17.9205 4.10731 16.889C3.07586 15.8576 2.4964 14.4586 2.4964 13C2.4964 11.5413 3.07586 10.1423 4.10731 9.11087C5.13876 8.07942 6.53771 7.49995 7.9964 7.49995C8.42055 7.50011 8.8433 7.54876 9.2564 7.64495C9.3782 7.67378 9.50638 7.65587 9.61562 7.59477C9.72486 7.53367 9.80721 7.43382 9.8464 7.31495C10.3067 5.91447 11.1974 4.69507 12.3915 3.83059C13.5857 2.96612 15.0222 2.5007 16.4964 2.5007C17.9706 2.5007 19.4071 2.96612 20.6013 3.83059C21.7954 4.69507 22.6861 5.91447 23.1464 7.31495C23.1856 7.43382 23.2679 7.53367 23.3772 7.59477C23.4864 7.65587 23.6146 7.67378 23.7364 7.64495C24.1495 7.54876 24.5722 7.50011 24.9964 7.49995C26.4551 7.49995 27.854 8.07942 28.8855 9.11087C29.9169 10.1423 30.4964 11.5413 30.4964 13C30.4964 14.4586 29.9169 15.8576 28.8855 16.889C27.854 17.9205 26.4551 18.5 24.9964 18.5H24.4964V18C24.4964 17.6716 24.4317 17.3466 24.3061 17.0432C24.1805 16.7399 23.9963 16.4643 23.7642 16.2322C23.532 16 23.2564 15.8159 22.9531 15.6903C22.6498 15.5646 22.3247 15.5 21.9964 15.5Z" fill="#5072EB"/>
<path d="M17.1066 19.072C16.7354 18.9809 16.3484 18.9754 15.9748 19.0562C15.6012 19.1369 15.251 19.3017 14.9506 19.538C14.6501 19.7753 14.4082 20.0784 14.2434 20.424C14.0786 20.7696 13.9954 21.1484 14.0002 21.5312C14.005 21.914 14.0976 22.2906 14.271 22.632C14.4443 22.9733 14.6938 23.2703 15.0001 23.5V26.5C15.0001 26.8978 15.1581 27.2794 15.4394 27.5607C15.7207 27.842 16.1022 28 16.5001 28C16.8979 28 17.2794 27.842 17.5607 27.5607C17.842 27.2794 18.0001 26.8978 18.0001 26.5V23.5C18.3957 23.2031 18.6947 22.7957 18.8592 22.3292C19.0237 21.8627 19.0465 21.3579 18.9246 20.8785C18.8155 20.44 18.5883 20.0398 18.2678 19.7214C17.9473 19.4029 17.5457 19.1783 17.1066 19.072ZM17.2506 22.7965C17.1745 22.8404 17.1113 22.9036 17.0674 22.9797C17.0235 23.0558 17.0005 23.1421 17.0006 23.23V26.5C17.0006 26.6326 16.9479 26.7598 16.8541 26.8536C16.7604 26.9473 16.6332 27 16.5006 27C16.368 27 16.2408 26.9473 16.147 26.8536C16.0532 26.7598 16.0006 26.6326 16.0006 26.5V23.23C16.0007 23.1421 15.9776 23.0558 15.9337 22.9797C15.8898 22.9036 15.8266 22.8404 15.7506 22.7965C15.539 22.6739 15.3605 22.5014 15.2308 22.294C15.1011 22.0867 15.0241 21.8508 15.0065 21.6069C14.9888 21.3629 15.0311 21.1184 15.1296 20.8945C15.2281 20.6707 15.3798 20.4743 15.5716 20.3225C15.8344 20.1128 16.1609 19.9991 16.4971 20C16.6246 20.0003 16.7516 20.0155 16.8756 20.0455C17.1347 20.1101 17.3716 20.2435 17.5613 20.4316C17.7509 20.6196 17.8863 20.8554 17.9531 21.114C18.0354 21.4327 18.0112 21.7696 17.8843 22.0734C17.7574 22.3771 17.5352 22.6311 17.2506 22.7965Z" fill="#5072EB"/>
</svg>
