<svg width="32" height="30" viewBox="0 0 32 30" fill="none" xmlns="http://www.w3.org/2000/svg">
<path fill-rule="evenodd" clip-rule="evenodd" d="M2.0625 24.1364H14.3361V25.8578H12.6298C12.1097 25.8588 11.6113 26.0659 11.2437 26.4337C10.876 26.8016 10.6693 27.3002 10.6687 27.8203V28.4159C10.6686 28.5172 10.6885 28.6175 10.7272 28.7111C10.7659 28.8047 10.8226 28.8897 10.8942 28.9614C10.9658 29.033 11.0507 29.0899 11.1443 29.1287C11.2378 29.1675 11.3381 29.1875 11.4394 29.1876H20.5606C20.6619 29.1875 20.7621 29.1675 20.8557 29.1287C20.9492 29.0899 21.0342 29.033 21.1057 28.9614C21.1773 28.8898 21.234 28.8047 21.2727 28.7112C21.3114 28.6176 21.3313 28.5173 21.3312 28.4161V27.8204C21.3307 27.3004 21.1239 26.8017 20.7563 26.4339C20.3887 26.066 19.8902 25.8589 19.3701 25.8579H17.6645V24.1364H29.9375C30.4514 24.1357 30.944 23.9311 31.3072 23.5676C31.6704 23.2041 31.8746 22.7113 31.875 22.1974V2.75718C31.8747 2.24328 31.6705 1.75051 31.3072 1.38699C30.944 1.02346 30.4514 0.818877 29.9375 0.818115H2.0625C1.54861 0.818877 1.056 1.02346 0.692769 1.38699C0.329538 1.75051 0.125347 2.24328 0.125 2.75718V22.1974C0.125364 22.7113 0.329561 23.2041 0.692791 23.5676C1.05602 23.9311 1.54862 24.1357 2.0625 24.1364Z" fill="#B8C7F7"/>
<path fill-rule="evenodd" clip-rule="evenodd" d="M11.4718 16.1852C11.0245 16.9931 10.2357 17.4206 9.31756 17.3705C9.26569 16.4506 9.69169 15.6632 10.5005 15.2151C10.9906 14.9644 11.4099 14.7521 11.7531 14.587L12.0999 14.932C11.9339 15.277 11.723 15.6957 11.4718 16.1852ZM10.2151 10.9779C10.0913 11.0074 9.95737 11.0369 9.85569 11.0546C9.83387 10.8953 9.81763 10.6417 9.8005 10.3941C9.77987 10.0756 9.7545 9.68643 9.70763 9.19693C10.2018 8.30318 11.5319 7.69905 13.6683 7.38943C13.6355 7.44843 13.6025 7.50443 13.5706 7.56043C13.5686 7.56343 13.5662 7.5693 13.5644 7.57224C12.9631 8.73993 12.4398 9.7778 11.9987 10.6742C11.3988 10.7409 10.8032 10.8423 10.2151 10.9779H10.2151ZM22.5858 4.10168C19.1233 3.58574 16.1006 5.03918 14.4508 8.03518C13.5367 9.81318 12.8042 11.2816 12.2706 12.408L14.2786 14.416C15.4061 13.8823 16.8742 13.1511 18.6505 12.2369C21.6475 10.5857 23.1011 7.56343 22.5858 4.10168ZM17.4882 16.9784C17.0007 16.9312 16.6112 16.9076 16.2931 16.8869C16.0445 16.8692 15.7901 16.8516 15.6311 16.8307C15.6494 16.7307 15.6795 16.5947 15.7075 16.4709C15.8452 15.8832 15.9472 15.2876 16.013 14.6876C16.9094 14.2453 17.943 13.7234 19.1138 13.1219C19.1184 13.1212 19.1228 13.1191 19.1262 13.1159C19.1838 13.0836 19.2395 13.0511 19.2964 13.0187C18.9883 15.1534 18.382 16.4862 17.4883 16.9787L17.4882 16.9784ZM11.6458 13.5284C11.2444 13.7171 10.7031 13.9854 10.0367 14.3304C10.0323 14.3312 10.0282 14.3333 10.0249 14.3363C8.73256 15.0469 8.10125 16.4151 8.3775 17.9071C8.39552 18.0068 8.44355 18.0986 8.51517 18.1703C8.58678 18.2419 8.67857 18.29 8.77825 18.3081C9.00442 18.3512 9.23414 18.3729 9.46437 18.373C10.0561 18.3797 10.6382 18.2238 11.1474 17.9222C11.6565 17.6206 12.073 17.1849 12.3514 16.6628C12.3531 16.6566 12.3555 16.6539 12.3576 16.648C12.7 15.9846 12.9689 15.4417 13.157 15.0411C13.1994 14.95 13.213 14.8482 13.1962 14.7491L13.8201 15.3713C13.8663 15.4181 13.9214 15.4552 13.9821 15.4805C14.0428 15.5058 14.1079 15.5188 14.1737 15.5187C14.247 15.519 14.3194 15.5029 14.3857 15.4716C14.5594 15.389 14.7436 15.3035 14.9357 15.2121C14.8682 15.6455 14.7927 15.9787 14.7313 16.2529C14.6108 16.7925 14.5303 17.1493 14.7676 17.4677C15.0194 17.8039 15.4234 17.8302 16.2274 17.8835C16.5689 17.9071 16.9938 17.9335 17.5331 17.9897H17.5838C17.6561 17.9899 17.7277 17.9749 17.7938 17.9456C19.2271 17.2821 20.0784 15.4274 20.3927 12.2783C21.4237 11.477 22.2575 10.4502 22.8302 9.27662C23.6529 7.58112 23.8879 5.60855 23.5114 3.57693C23.493 3.47743 23.4448 3.38587 23.3732 3.31429C23.3017 3.24271 23.2102 3.19447 23.1107 3.17593C21.0776 2.79849 19.1056 3.03436 17.4101 3.85718C16.2358 4.42952 15.2086 5.26378 14.4076 6.29568C11.2593 6.60818 9.40438 7.46037 8.74206 8.89343C8.70415 8.97432 8.68903 9.06402 8.69831 9.15287C8.75288 9.69249 8.78094 10.1171 8.80331 10.4591C8.85637 11.2641 8.88294 11.6681 9.21906 11.9187C9.35983 12.0239 9.53228 12.078 9.70794 12.0721C9.91288 12.0721 10.1479 12.0189 10.4339 11.9541C10.7072 11.8951 11.0428 11.8184 11.4759 11.7506C11.3839 11.9423 11.2972 12.1281 11.2159 12.302C11.1723 12.3947 11.1585 12.4985 11.1763 12.5994C11.1941 12.7002 11.2426 12.7931 11.3153 12.8652L11.9389 13.4902C11.8396 13.475 11.7381 13.4883 11.6461 13.5286L11.6458 13.5284ZM15.3357 11.3494C15.2893 11.3032 15.2525 11.2482 15.2274 11.1878C15.2022 11.1273 15.1893 11.0625 15.1893 10.997C15.1893 10.9315 15.2022 10.8667 15.2274 10.8062C15.2525 10.7457 15.2893 10.6908 15.3357 10.6446L17.7763 8.20318C17.8701 8.10945 17.9973 8.05684 18.13 8.05692C18.2626 8.057 18.3898 8.10977 18.4835 8.20362C18.5772 8.29746 18.6298 8.4247 18.6298 8.55733C18.6297 8.68997 18.5769 8.81714 18.4831 8.91086L16.0424 11.3494C15.9962 11.3961 15.9412 11.4332 15.8805 11.4585C15.8199 11.4838 15.7548 11.4968 15.6891 11.4968C15.6233 11.4968 15.5583 11.4838 15.4976 11.4585C15.437 11.4332 15.3819 11.3961 15.3357 11.3494ZM19.6625 6.2483C19.7392 6.17169 19.8368 6.11954 19.9432 6.09842C20.0495 6.07731 20.1597 6.0882 20.2598 6.1297C20.3599 6.1712 20.4455 6.24145 20.5057 6.33158C20.5659 6.42171 20.598 6.52766 20.598 6.63605C20.598 6.74444 20.5659 6.8504 20.5057 6.94053C20.4455 7.03065 20.3599 7.10091 20.2598 7.14241C20.1597 7.18391 20.0495 7.19479 19.9432 7.17368C19.8368 7.15257 19.7392 7.10041 19.6625 7.0238C19.6115 6.97295 19.571 6.91253 19.5433 6.84599C19.5157 6.77945 19.5015 6.7081 19.5015 6.63605C19.5015 6.564 19.5157 6.49266 19.5433 6.42612C19.571 6.35958 19.6115 6.29915 19.6625 6.2483ZM20.05 8.18262C19.6922 8.18197 19.3457 8.05729 19.0695 7.82982C18.7933 7.60234 18.6046 7.28614 18.5354 6.9351C18.4662 6.58405 18.5209 6.21987 18.6901 5.90462C18.8593 5.58937 19.1326 5.34254 19.4634 5.20619C19.7942 5.06984 20.1621 5.05241 20.5043 5.15687C20.8465 5.26132 21.1419 5.4812 21.3402 5.77904C21.5384 6.07688 21.6273 6.43425 21.5916 6.79027C21.5559 7.14629 21.3979 7.47892 21.1445 7.73149C20.8539 8.02105 20.4602 8.18332 20.05 8.18262ZM2.0625 1.69568C1.78088 1.69568 1.51078 1.80748 1.31155 2.00652C1.11232 2.20556 1.00027 2.47556 1 2.75718V19.6793H31V2.75718C30.9997 2.47556 30.8877 2.20556 30.6884 2.00652C30.4892 1.80748 30.2191 1.69568 29.9375 1.69568H2.0625ZM29.9375 23.2619H2.0625C1.78057 23.2612 1.51039 23.1488 1.31121 22.9493C1.11203 22.7497 1.00012 22.4794 1 22.1974V20.6787H31V22.1974C30.9999 22.4794 30.888 22.7497 30.6888 22.9493C30.4896 23.1488 30.2194 23.2612 29.9375 23.2619ZM16.7894 25.7328H15.2113V24.2614H16.7894V25.7328ZM20.4562 27.8203V28.3126H11.5437V27.8202C11.5442 27.5323 11.6588 27.2564 11.8625 27.053C12.0661 26.8495 12.3421 26.7352 12.63 26.7351H19.37C19.6579 26.7352 19.9339 26.8495 20.1375 27.053C20.3412 27.2564 20.4558 27.5323 20.4562 27.8202V27.8203ZM2.0625 24.2614H14.2111V25.7328H12.6298C12.0766 25.7338 11.5463 25.9541 11.1553 26.3454C10.7642 26.7367 10.5443 27.2671 10.5437 27.8203V28.4159C10.5436 28.6536 10.6379 28.8816 10.8058 29.0497C10.9738 29.2179 11.2017 29.3124 11.4394 29.3126H20.5606C20.7983 29.3124 21.0261 29.2179 21.1941 29.0498C21.362 28.8816 21.4563 28.6537 21.4562 28.4161V27.8204C21.4556 27.2672 21.2357 26.7368 20.8446 26.3455C20.4536 25.9542 19.9233 25.7339 19.3701 25.7329H17.7895V24.2614H29.9375C30.4845 24.2607 31.0089 24.0429 31.3956 23.6559C31.7822 23.269 31.9996 22.7445 32 22.1974V2.75718C31.9996 2.21014 31.7823 1.68558 31.3956 1.29862C31.0089 0.911656 30.4845 0.693893 29.9375 0.693115H2.0625C1.51546 0.693893 0.991069 0.911656 0.604399 1.29862C0.217729 1.68558 0.000363623 2.21014 0 2.75718L0 22.1974C0.000380168 22.7445 0.217753 23.269 0.604421 23.6559C0.99109 24.0429 1.51547 24.2607 2.0625 24.2614Z" fill="#5072EB"/>
</svg>
