<svg width="54" height="54" viewBox="0 0 54 54" fill="none" xmlns="http://www.w3.org/2000/svg">
<g clip-path="url(#clip0_3999_8485)">
<path d="M52.0988 26C51.5945 26 51.1109 26.1977 50.7544 26.5497C50.3978 26.9016 50.1975 27.379 50.1975 27.8767C50.2179 32.851 48.5692 37.6919 45.509 41.6439C42.4487 45.596 38.149 48.4366 33.2811 49.7226C28.4131 51.0086 23.2508 50.6674 18.5999 48.7525C13.949 46.8375 10.0713 43.4564 7.57197 39.137L14.7776 40.6384C15.0298 40.7135 15.2951 40.7361 15.5565 40.7047C15.818 40.6733 16.07 40.5886 16.2966 40.456C16.5232 40.3233 16.7194 40.1457 16.8727 39.9343C17.0261 39.7229 17.1332 39.4823 17.1874 39.2279C17.2416 38.9734 17.2417 38.7106 17.1876 38.4561C17.1334 38.2017 17.0264 37.9611 16.8731 37.7496C16.7198 37.5382 16.5237 37.3605 16.2971 37.2278C16.0706 37.0951 15.8186 37.0103 15.5571 36.9788L4.56803 34.5954H4.09272H3.71248H3.56038L3.38927 34.6892L3.06606 34.8956C2.96365 34.9686 2.87378 35.0573 2.79989 35.1584C2.72596 35.238 2.66211 35.3263 2.60976 35.4211C2.53364 35.5369 2.47594 35.6635 2.43865 35.7965C2.4354 35.8527 2.4354 35.9091 2.43865 35.9654L0.0431038 46.8316C-0.00991155 47.0731 -0.0140655 47.3227 0.0308807 47.5658C0.0758268 47.809 0.168988 48.041 0.305014 48.2485C0.44104 48.456 0.617253 48.6349 0.823533 48.775C1.02981 48.9151 1.2621 49.0136 1.50705 49.0649H1.90631C2.34843 49.0746 2.78016 48.9319 3.12717 48.6613C3.47419 48.3906 3.71478 48.0091 3.80754 47.5823L5.00531 41.9521C8.11092 46.7121 12.6911 50.3545 18.0638 52.3369C23.4364 54.3192 29.314 54.5354 34.8212 52.9533C40.3284 51.3712 45.1705 48.0754 48.6264 43.5567C52.0823 39.0381 53.9671 33.5384 54 27.8767C54 27.379 53.7997 26.9016 53.4431 26.5497C53.0866 26.1977 52.603 26 52.0988 26Z" fill="#5072EB"/>
<path d="M52.493 5.01344C52.2482 4.96129 51.9955 4.9572 51.7491 5.00142C51.5028 5.04563 51.2678 5.13728 51.0576 5.2711C50.8473 5.40491 50.6661 5.57826 50.5241 5.78119C50.3822 5.98412 50.2824 6.21263 50.2305 6.45361L49.0327 12.0646C45.9321 7.30104 41.3468 3.65326 35.9629 1.66716C30.5791 -0.318944 24.6863 -0.536568 19.1662 1.04685C13.6462 2.63027 8.79579 5.92959 5.34083 10.4511C1.88586 14.9726 0.0121218 20.4732 0 26.1297C0 26.6257 0.200307 27.1014 0.556857 27.4522C0.913407 27.8029 1.39699 28 1.90123 28C2.40547 28 2.88905 27.8029 3.2456 27.4522C3.60215 27.1014 3.80246 26.6257 3.80246 26.1297C3.8032 21.1803 5.46691 16.37 8.5347 12.4472C11.6025 8.52448 15.9023 5.7093 20.765 4.43975C25.6278 3.1702 30.7807 3.51748 35.422 5.42757C40.0633 7.33765 43.9327 10.7034 46.428 15.0011L39.2224 13.5048C38.7498 13.4481 38.2729 13.5678 37.8858 13.8403C37.4986 14.1128 37.2295 14.5183 37.1316 14.9766C37.0336 15.4348 37.114 15.9126 37.3568 16.3154C37.5996 16.7182 37.9871 17.0167 38.4429 17.152L49.432 19.4338C49.5324 19.4535 49.6357 19.4535 49.7362 19.4338H49.8312C50.0592 19.4298 50.2846 19.3854 50.4967 19.3029C50.6987 19.2226 50.8852 19.1087 51.048 18.9662L51.2001 18.7979C51.2995 18.6918 51.3827 18.5721 51.4473 18.4425C51.4934 18.3524 51.5316 18.2585 51.5613 18.162C51.5966 18.0951 51.6283 18.0264 51.6564 17.9562L53.9569 7.23915C54.0099 6.99841 54.0141 6.74974 53.9691 6.50742C53.9242 6.26509 53.831 6.03389 53.695 5.82708C53.559 5.62027 53.3827 5.44193 53.1765 5.30231C52.9702 5.16268 52.7379 5.06451 52.493 5.01344Z" fill="#5072EB"/>
<path d="M27.2864 37.8226C27.1371 37.8226 26.9869 37.8226 26.8385 37.8177C24.3143 37.7478 21.8358 37.1602 19.5727 36.095C19.4283 36.0268 19.3068 35.9215 19.2222 35.791C19.1375 35.6605 19.093 35.5101 19.0938 35.3568V18.1302C19.0938 17.9126 19.1847 17.704 19.3465 17.5501C19.5083 17.3963 19.7278 17.3099 19.9567 17.3099C20.1855 17.3099 20.405 17.3963 20.5669 17.5501C20.7287 17.704 20.8196 17.9126 20.8196 18.1302V34.8391C22.7273 35.6637 24.7887 36.1186 26.8834 36.1771C28.7448 36.2232 30.5996 35.9495 32.3587 35.3691C32.4889 35.33 32.6269 35.3201 32.7619 35.3402C32.8968 35.3603 33.025 35.4099 33.1364 35.4849C33.2479 35.56 33.3395 35.6586 33.4041 35.773C33.4687 35.8874 33.5046 36.0145 33.5089 36.1442C33.5092 36.3259 33.4461 36.5025 33.3294 36.6463C33.2128 36.7902 33.0492 36.8932 32.8643 36.9391C31.0693 37.5251 29.1843 37.8236 27.2864 37.8226Z" fill="#5072EB" stroke="#5072EB"/>
<path d="M34.6266 25.636C34.3977 25.636 34.1782 25.5496 34.0164 25.3958C33.8546 25.2419 33.7637 25.0333 33.7637 24.8157V18.1302C33.7637 17.9126 33.8546 17.704 34.0164 17.5501C34.1782 17.3963 34.3977 17.3099 34.6266 17.3099C34.8555 17.3099 35.0749 17.3963 35.2368 17.5501C35.3986 17.704 35.4895 17.9126 35.4895 18.1302V24.8157C35.4895 25.0333 35.3986 25.2419 35.2368 25.3958C35.0749 25.5496 34.8555 25.636 34.6266 25.636Z" fill="#5072EB" stroke="#5072EB"/>
<path d="M34.6266 31.4694C34.3977 31.4694 34.1782 31.383 34.0164 31.2291C33.8546 31.0753 33.7637 30.8666 33.7637 30.6491V23.9635C33.7637 23.746 33.8546 23.5373 34.0164 23.3835C34.1782 23.2296 34.3977 23.1432 34.6266 23.1432C34.8555 23.1432 35.0749 23.2296 35.2368 23.3835C35.3986 23.5373 35.4895 23.746 35.4895 23.9635V30.6491C35.4895 30.8666 35.3986 31.0753 35.2368 31.2291C35.0749 31.383 34.8555 31.4694 34.6266 31.4694Z" fill="#5072EB" stroke="#5072EB"/>
<path d="M34.6266 35.8444C34.3977 35.8444 34.1782 35.758 34.0164 35.6041C33.8546 35.4503 33.7637 35.2416 33.7637 35.0241V28.3385C33.7637 28.121 33.8546 27.9123 34.0164 27.7585C34.1782 27.6046 34.3977 27.5182 34.6266 27.5182C34.8555 27.5182 35.0749 27.6046 35.2368 27.7585C35.3986 27.9123 35.4895 28.121 35.4895 28.3385V35.0241C35.4895 35.2416 35.3986 35.4503 35.2368 35.6041C35.0749 35.758 34.8555 35.8444 34.6266 35.8444Z" fill="#5072EB" stroke="#5072EB"/>
<path d="M27.2915 21.4114C23.3437 21.4114 19.0938 20.3844 19.0938 18.1302C19.0938 15.876 23.3437 14.8489 27.2915 14.8489C31.2394 14.8489 35.4893 15.876 35.4893 18.1302C35.4893 20.3844 31.2394 21.4114 27.2915 21.4114ZM27.2915 16.4896C23.0874 16.4896 20.8196 17.6536 20.8196 18.1302C20.8196 18.6068 23.0874 19.7708 27.2915 19.7708C31.4957 19.7708 33.7635 18.6068 33.7635 18.1302C33.7635 17.6536 31.4957 16.4896 27.2915 16.4896Z" fill="#5072EB" stroke="#5072EB"/>
<path d="M27.2912 27.1536C24.6109 27.1488 21.968 26.5562 19.568 25.4219C19.4657 25.3744 19.3743 25.3081 19.299 25.2268C19.2238 25.1455 19.1663 25.0509 19.1297 24.9484C19.0931 24.8458 19.0783 24.7374 19.086 24.6294C19.0937 24.5214 19.1238 24.4159 19.1746 24.3191C19.2254 24.2222 19.2958 24.1358 19.3819 24.0649C19.468 23.994 19.568 23.94 19.6761 23.9061C19.7842 23.8721 19.8983 23.8588 20.0119 23.8669C20.1254 23.8751 20.2362 23.9045 20.3377 23.9536C22.622 25.0346 25.1492 25.5699 27.7002 25.513C29.9733 25.4517 32.2052 24.9213 34.2412 23.9585C34.343 23.9064 34.4547 23.8744 34.5698 23.8642C34.6848 23.854 34.8009 23.8658 34.911 23.8991C35.0212 23.9323 35.1232 23.9863 35.211 24.0577C35.2988 24.1291 35.3706 24.2166 35.4221 24.3149C35.4737 24.4132 35.504 24.5204 35.5112 24.63C35.5183 24.7397 35.5023 24.8496 35.4639 24.9532C35.4255 25.0568 35.3657 25.1521 35.2879 25.2333C35.2101 25.3145 35.1159 25.3801 35.0109 25.426C32.7492 26.4948 30.2698 27.0826 27.7451 27.1487C27.5941 27.1536 27.443 27.1536 27.2912 27.1536Z" fill="#5072EB" stroke="#5072EB"/>
<path d="M27.2912 32.5008C24.6109 32.4961 21.968 31.9035 19.568 30.7691C19.4657 30.7216 19.3743 30.6553 19.299 30.574C19.2238 30.4927 19.1663 30.3981 19.1297 30.2956C19.0931 30.1931 19.0783 30.0847 19.086 29.9767C19.0937 29.8687 19.1238 29.7632 19.1746 29.6663C19.2254 29.5694 19.2958 29.483 19.3819 29.4121C19.468 29.3412 19.568 29.2873 19.6761 29.2533C19.7842 29.2193 19.8983 29.206 20.0119 29.2142C20.1254 29.2223 20.2362 29.2518 20.3377 29.3008C22.622 30.3819 25.1492 30.9171 27.7002 30.8602C29.9733 30.7989 32.2052 30.2685 34.2412 29.3057C34.343 29.2537 34.4547 29.2216 34.5698 29.2114C34.6848 29.2012 34.8009 29.2131 34.911 29.2463C35.0212 29.2796 35.1232 29.3335 35.211 29.4049C35.2988 29.4764 35.3706 29.5638 35.4221 29.6621C35.4737 29.7604 35.504 29.8676 35.5112 29.9773C35.5183 30.0869 35.5023 30.1968 35.4639 30.3004C35.4255 30.4041 35.3657 30.4993 35.2879 30.5805C35.2101 30.6617 35.1159 30.7273 35.0109 30.7732C32.7492 31.842 30.2698 32.4299 27.7451 32.4959C27.5941 32.5008 27.443 32.5008 27.2912 32.5008Z" fill="#5072EB" stroke="#5072EB"/>
<path d="M27.2912 37.848C24.6109 37.8433 21.968 37.2507 19.568 36.1164C19.4657 36.0688 19.3743 36.0025 19.299 35.9212C19.2238 35.84 19.1663 35.7453 19.1297 35.6428C19.0931 35.5403 19.0783 35.4319 19.086 35.3239C19.0937 35.2159 19.1238 35.1104 19.1746 35.0135C19.2254 34.9166 19.2958 34.8302 19.3819 34.7594C19.468 34.6885 19.568 34.6345 19.6761 34.6005C19.7842 34.5665 19.8983 34.5532 20.0119 34.5614C20.1254 34.5695 20.2362 34.599 20.3377 34.648C22.622 35.7291 25.1492 36.2644 27.7002 36.2074C29.9733 36.1462 32.2052 35.6157 34.2412 34.6529C34.343 34.6009 34.4547 34.5688 34.5698 34.5586C34.6848 34.5484 34.8009 34.5603 34.911 34.5935C35.0212 34.6268 35.1232 34.6807 35.211 34.7522C35.2988 34.8236 35.3706 34.911 35.4221 35.0094C35.4737 35.1077 35.504 35.2148 35.5112 35.3245C35.5183 35.4341 35.5023 35.544 35.4639 35.6477C35.4255 35.7513 35.3657 35.8465 35.2879 35.9278C35.2101 36.009 35.1159 36.0745 35.0109 36.1205C32.7492 37.1893 30.2698 37.7771 27.7451 37.8431C27.5941 37.848 27.443 37.848 27.2912 37.848Z" fill="#5072EB" stroke="#5072EB"/>
</g>
<defs>
<clipPath id="clip0_3999_8485">
<rect width="54" height="54" fill="white"/>
</clipPath>
</defs>
</svg>
