<svg width="26" height="26" viewBox="0 0 26 26" fill="none" xmlns="http://www.w3.org/2000/svg">
<path d="M13 11.9843C12.872 11.9843 12.7439 11.9601 12.6228 11.9117L2.46655 7.84917C2.08096 7.69495 1.82812 7.3215 1.82812 6.90621C1.82812 6.49092 2.08096 6.11748 2.46655 5.96325L12.6228 1.90075C12.8649 1.80392 13.1351 1.80392 13.3772 1.90075L23.5334 5.96325C23.919 6.11748 24.1719 6.49092 24.1719 6.90621C24.1719 7.3215 23.919 7.69495 23.5335 7.84917L13.3772 11.9117C13.2561 11.9601 13.128 11.9843 13 11.9843ZM5.57842 6.90621L13 9.87483L20.4216 6.90621L13 3.93759L5.57842 6.90621Z" fill="#47506D"/>
<path d="M13 18.078C12.872 18.078 12.7439 18.0538 12.6228 18.0054L2.46655 13.9429C2.08096 13.7886 1.82812 13.4152 1.82812 12.9999C1.82812 12.5846 2.08096 12.2112 2.46655 12.057L4.61404 11.1979C5.1347 10.9896 5.72589 11.2429 5.9342 11.7637C6.1165 12.2195 5.94532 12.729 5.55064 12.9888L13 15.9685L20.4493 12.9888C20.0547 12.729 19.8834 12.2195 20.0658 11.7637C20.2741 11.2428 20.8652 10.9896 21.3859 11.1979L23.5334 12.0569C23.919 12.2112 24.1719 12.5846 24.1719 12.9999C24.1719 13.4152 23.919 13.7886 23.5335 13.9429L13.3772 18.0054C13.2561 18.0538 13.128 18.078 13 18.078Z" fill="#47506D"/>
<path d="M13 24.1718C12.872 24.1718 12.7439 24.1476 12.6228 24.0991L2.46655 20.0366C2.08096 19.8824 1.82812 19.5089 1.82812 19.0937C1.82812 18.6784 2.08096 18.3049 2.46655 18.1507L4.61404 17.2917C5.1347 17.0834 5.72589 17.3367 5.9342 17.8575C6.1165 18.3133 5.94532 18.8228 5.55064 19.0826L13 22.0623L20.4493 19.0825C20.0547 18.8227 19.8834 18.3132 20.0658 17.8574C20.2741 17.3366 20.8652 17.0834 21.3859 17.2916L23.5334 18.1506C23.919 18.3049 24.1719 18.6784 24.1719 19.0937C24.1719 19.5089 23.919 19.8824 23.5335 20.0366L13.3772 24.0991C13.2561 24.1476 13.128 24.1718 13 24.1718Z" fill="#47506D"/>
<path d="M1.01562 4.0625C0.454695 4.0625 0 3.6078 0 3.04688V1.01562C0 0.454695 0.454695 0 1.01562 0H3.04688C3.6078 0 4.0625 0.454695 4.0625 1.01562C4.0625 1.57655 3.6078 2.03125 3.04688 2.03125H2.03125V3.04688C2.03125 3.6078 1.57655 4.0625 1.01562 4.0625Z" fill="#47506D"/>
<path d="M24.9844 4.0625C24.4234 4.0625 23.9688 3.6078 23.9688 3.04688V2.03125H22.9531C22.3922 2.03125 21.9375 1.57655 21.9375 1.01562C21.9375 0.454695 22.3922 0 22.9531 0H24.9844C25.5453 0 26 0.454695 26 1.01562V3.04688C26 3.6078 25.5453 4.0625 24.9844 4.0625Z" fill="#47506D"/>
<path d="M3.04688 26H1.01562C0.454695 26 0 25.5453 0 24.9844V22.9531C0 22.3922 0.454695 21.9375 1.01562 21.9375C1.57655 21.9375 2.03125 22.3922 2.03125 22.9531V23.9688H3.04688C3.6078 23.9688 4.0625 24.4234 4.0625 24.9844C4.0625 25.5453 3.6078 26 3.04688 26Z" fill="#47506D"/>
<path d="M24.9844 26H22.9531C22.3922 26 21.9375 25.5453 21.9375 24.9844C21.9375 24.4234 22.3922 23.9688 22.9531 23.9688H23.9688V22.9531C23.9688 22.3922 24.4234 21.9375 24.9844 21.9375C25.5453 21.9375 26 22.3922 26 22.9531V24.9844C26 25.5453 25.5453 26 24.9844 26Z" fill="#47506D"/>
</svg>
