<svg width="45" height="32" viewBox="0 0 45 32" fill="none" xmlns="http://www.w3.org/2000/svg">
<path d="M32.4913 21.3367L31.7626 20.9617V21.7813V23.7001C31.7626 27.6587 28.4697 30.9001 24.4054 30.9001H8.69113C4.62684 30.9001 1.33398 27.6587 1.33398 23.7001V8.3001C1.33398 4.34147 4.62684 1.1001 8.69113 1.1001H24.4054C28.4697 1.1001 31.7626 4.34147 31.7626 8.3001V10.2189V11.0385L32.4913 10.6635L44.334 4.57049V27.4297L32.4913 21.3367ZM41.4624 23.5995L42.1911 23.9745V23.1549V9.15339V8.84834V8.84526H41.6911H41.6895L41.4624 8.40373L32.0338 13.2547L31.7626 13.3943V13.6993V18.3039V18.609L32.0338 18.7485L41.4624 23.5995ZM24.4054 28.8201C27.2711 28.8201 29.6197 26.5329 29.6197 23.7001V8.3001C29.6197 5.46732 27.2711 3.1801 24.4054 3.1801H8.69113C5.82541 3.1801 3.47684 5.46732 3.47684 8.3001V23.7001C3.47684 26.5329 5.82541 28.8201 8.69113 28.8201H24.4054Z" fill="currentColor" stroke="currentColor"/>
</svg>
