<svg width="30" height="30" viewBox="0 0 30 30" fill="none" xmlns="http://www.w3.org/2000/svg">
<g clip-path="url(#clip0_5961_9693)">
<path fill-rule="evenodd" clip-rule="evenodd" d="M19.7523 13.304L14.4441 10.2397C12.9895 9.40003 11.1777 10.4488 11.1777 12.1264V18.2568C11.1777 19.9344 12.9895 20.9814 14.4441 20.14L19.7523 17.0756C21.2017 16.2394 21.2017 14.1402 19.7523 13.304ZM13.7909 17.5007L17.7924 15.1907L13.7909 12.8807V17.5007Z" fill="currentColor"/>
<path d="M29.1516 4.63503C28.8971 4.51488 28.6143 4.47222 28.3368 4.5121C28.0594 4.55199 27.7989 4.67275 27.5865 4.86003L26.2553 6.00003C24.9145 4.13537 23.1644 2.62059 21.1467 1.57823C19.129 0.53588 16.9004 -0.00476872 14.6411 3.16895e-05C11.9586 -0.0025174 9.32708 0.751409 7.03433 2.17936C4.74157 3.6073 2.87588 5.65428 1.64129 8.09642C0.406703 10.5386 -0.149237 13.2818 0.0342736 16.0262C0.217784 18.7705 1.13368 21.4103 2.68179 23.6567C4.22989 25.9032 6.3506 27.6699 8.81197 28.7635C11.2733 29.8572 13.9806 30.2357 16.6376 29.8577C19.2947 29.4797 21.7992 28.3597 23.8773 26.6202C25.9553 24.8808 27.527 22.5888 28.4202 19.995C28.5482 19.6191 28.5254 19.2064 28.3567 18.8477C28.188 18.489 27.8872 18.2138 27.5206 18.0825C27.154 17.9512 26.7516 17.9747 26.4018 18.1477C26.0521 18.3207 25.7836 18.6291 25.6556 19.005C24.9394 21.0793 23.6809 22.9117 22.0175 24.3019C20.3541 25.6921 18.35 26.5865 16.2243 26.8873C14.0986 27.1881 11.9332 26.8838 9.96483 26.0076C7.99646 25.1313 6.30093 23.717 5.06365 21.9191C3.82638 20.1213 3.095 18.0091 2.94949 15.8137C2.80398 13.6183 3.24994 11.4241 4.23861 9.47114C5.22728 7.51814 6.72059 5.88151 8.55524 4.74022C10.3899 3.59893 12.4953 2.99692 14.6411 3.00003C16.4805 3.00036 18.2931 3.4527 19.927 4.31916C21.5609 5.18561 22.9685 6.44095 24.032 7.98002L22.4668 9.36002C22.2396 9.55931 22.0773 9.82525 22.002 10.122C21.9266 10.4187 21.9417 10.732 22.0453 11.0197C22.1489 11.3073 22.336 11.5555 22.5814 11.7308C22.8267 11.9061 23.1186 12 23.4176 12H28.5372C28.9252 12 29.2972 11.842 29.5716 11.5607C29.8459 11.2794 30 10.8978 30 10.5V6.00003C30.0007 5.71312 29.9211 5.43204 29.7708 5.1901C29.6204 4.94816 29.4055 4.75552 29.1516 4.63503Z" fill="currentColor"/>
</g>
<defs>
<clipPath id="clip0_5961_9693">
<rect width="30" height="30" fill="currentColor"/>
</clipPath>
</defs>
</svg>
