<svg width="30" height="31" viewBox="0 0 30 31" fill="none" xmlns="http://www.w3.org/2000/svg">
	<path d="M11.6667 16.2667H1.66667C1.46333 16.2667 1.26833 16.1859 1.12455 16.0421C0.980773 15.8983 0.9 15.7033 0.9 15.5V2.16667C0.9 1.96333 0.980774 1.76833 1.12455 1.62455C1.26833 1.48077 1.46333 1.4 1.66667 1.4H11.6667C11.87 1.4 12.065 1.48077 12.2088 1.62455C12.3526 1.76833 12.4333 1.96333 12.4333 2.16667V15.5C12.4333 15.7033 12.3526 15.8983 12.2088 16.0421C12.065 16.1859 11.87 16.2667 11.6667 16.2667ZM28.8755 29.3754L29.5118 30.0118L28.8754 29.3755C28.7317 29.5192 28.5367 29.6 28.3333 29.6H18.3333C18.13 29.6 17.935 29.5192 17.7912 29.3754C17.6474 29.2317 17.5667 29.0367 17.5667 28.8333V17.1667C17.5667 16.9633 17.6474 16.7683 17.7912 16.6246C17.935 16.4808 18.13 16.4 18.3333 16.4H28.3333C28.5367 16.4 28.7317 16.4808 28.8754 16.6245C29.0192 16.7683 29.1 16.9633 29.1 17.1667V28.8333C29.1 29.0367 29.0192 29.2317 28.8755 29.3754ZM1.12455 29.3754C0.980775 29.2317 0.9 29.0367 0.9 28.8333V22.1667C0.9 21.9633 0.980773 21.7683 1.12455 21.6246C1.26833 21.4808 1.46333 21.4 1.66667 21.4H11.6667C11.87 21.4 12.065 21.4808 12.2088 21.6245C12.3526 21.7683 12.4333 21.9633 12.4333 22.1667V28.8333C12.4333 29.0367 12.3526 29.2317 12.2088 29.3754C12.065 29.5192 11.87 29.6 11.6667 29.6H1.66667C1.46333 29.6 1.26833 29.5192 1.12455 29.3754ZM28.3333 11.2667H18.3333C18.13 11.2667 17.935 11.1859 17.7912 11.0421C17.6474 10.8983 17.5667 10.7033 17.5667 10.5V2.16667C17.5667 1.96334 17.6474 1.76833 17.7912 1.62455C17.935 1.48077 18.13 1.4 18.3333 1.4H28.3333C28.5367 1.4 28.7317 1.48077 28.8754 1.62455C29.0192 1.76833 29.1 1.96333 29.1 2.16667V10.5C29.1 10.7033 29.0192 10.8983 28.8754 11.0421C28.7317 11.1859 28.5367 11.2667 28.3333 11.2667Z" stroke="currentColor" stroke-width="1.8" />
</svg>
