<svg width="30" height="30" viewBox="0 0 30 30" fill="none" xmlns="http://www.w3.org/2000/svg">
<g clip-path="url(#clip0_5961_13280)">
<path fill-rule="evenodd" clip-rule="evenodd" d="M3.74889 0.9375C2.48569 0.9375 1.26888 1.80162 1.05883 3.16825C0.896582 4.22397 0.897238 5.14556 1.05971 6.20362C1.26962 7.57059 2.48603 8.4375 3.75163 8.4375H6.09375V22.0312C6.09375 24.1023 7.77267 25.7812 9.84375 25.7812H12.2392C12.2812 26.1714 12.3491 26.571 12.4425 26.9912C12.7274 28.272 13.8919 29.0625 15.1033 29.0625H26.1369C27.3352 29.0625 28.4915 28.2886 28.7884 27.0236C29.1532 25.4688 29.154 24.1994 28.79 22.657C28.4918 21.3938 27.3359 20.625 26.1418 20.625H15.1001C13.8915 20.625 12.7271 21.4124 12.4416 22.692C12.3475 23.1136 12.2796 23.5145 12.2377 23.9062H9.84375C8.80823 23.9062 7.96875 23.0668 7.96875 22.0312V15.4688H12.2392C12.2812 15.8589 12.3491 16.2585 12.4425 16.6787C12.7274 17.9595 13.8919 18.75 15.1033 18.75H26.1369C27.3352 18.75 28.4915 17.9761 28.7884 16.7111C29.1532 15.1563 29.154 13.8869 28.79 12.3445C28.4918 11.0813 27.3359 10.3125 26.1418 10.3125H15.1001C13.8915 10.3125 12.7271 11.0999 12.4416 12.3795C12.3475 12.8011 12.2796 13.202 12.2377 13.5938H7.96875V8.4375H10.3074C11.5616 8.4375 12.7725 7.58564 12.9929 6.23006C13.1685 5.14941 13.1691 4.21301 12.9943 3.13992C12.7736 1.78492 11.5621 0.9375 10.3117 0.9375H3.74889ZM3.75163 6.5625C3.29183 6.5625 2.96496 6.25744 2.91299 5.91905C2.77932 5.04853 2.77899 4.31897 2.91208 3.45308C2.96375 3.11685 3.28924 2.8125 3.74889 2.8125H10.3117C10.768 2.8125 11.09 3.11174 11.1437 3.44135C11.2857 4.31329 11.2856 5.04628 11.1421 5.92927C11.088 6.26222 10.7639 6.5625 10.3074 6.5625H3.75163ZM15.1001 12.1875C14.6651 12.1875 14.344 12.4633 14.2716 12.7879C13.9924 14.039 13.9928 15.0131 14.2728 16.2716C14.3455 16.5983 14.668 16.875 15.1033 16.875H26.1369C26.5679 16.875 26.8876 16.6038 26.963 16.2827C27.2621 15.0078 27.2618 14.0325 26.9651 12.7752C26.8901 12.4573 26.5723 12.1875 26.1418 12.1875H15.1001ZM15.1001 22.5C14.6651 22.5 14.344 22.7758 14.2716 23.1004C13.9924 24.3515 13.9928 25.3256 14.2728 26.5841C14.3455 26.9108 14.668 27.1875 15.1033 27.1875H26.1369C26.5679 27.1875 26.8876 26.9163 26.963 26.5952C27.2621 25.3203 27.2618 24.345 26.9651 23.0877C26.8901 22.7698 26.5723 22.5 26.1418 22.5H15.1001Z" fill="currentColor"/>
</g>
<defs>
<clipPath id="clip0_5961_13280">
<rect width="30" height="30" fill="currentColor"/>
</clipPath>
</defs>
</svg>
