<svg width="54" height="52" viewBox="0 0 54 52" fill="none" xmlns="http://www.w3.org/2000/svg">
<path d="M53.4198 12.7517C53.0526 12.4512 52.5696 12.3315 52.1048 12.4254C48.8268 13.0875 45.2918 12.4534 42.1511 10.6401C41.0824 10.023 40.1001 9.28821 39.2239 8.45469C39.2052 6.73819 38.0794 4.32296 32.882 2.47208C29.304 1.19802 24.5914 0.496338 19.6122 0.496338C14.6331 0.496338 9.9205 1.19802 6.34236 2.47208C1.10036 4.33878 0 6.77974 0 8.49878C0 8.61743 0.0100195 43.4996 0.0100195 43.4996C0.0100195 48.7534 9.8762 51.5022 19.6222 51.5022C29.0947 51.5022 38.6796 48.9052 39.2101 43.9356C39.5554 43.699 39.899 43.464 40.2388 43.2322C43.8747 40.7511 47.309 38.4075 49.8194 35.3149C52.6716 31.8015 54 27.7643 54 22.6101V13.9761C54 13.5016 53.7871 13.0522 53.4198 12.7517ZM7.4038 5.45274C10.6498 4.2969 14.9855 3.6603 19.6121 3.6603C24.2387 3.6603 28.5745 4.2968 31.8204 5.45274C32.6869 5.76123 33.5416 6.12594 34.331 6.60097C35.2595 7.15964 35.8879 7.6872 36.0871 8.78312C35.3036 9.48175 34.4427 10.1052 33.5163 10.64C30.3755 12.4533 26.8405 13.0873 23.5626 12.4253C23.0977 12.3313 22.6148 12.4511 22.2476 12.7516C22.068 12.8986 21.9258 13.0816 21.8269 13.2855C21.0938 13.3187 20.3531 13.3373 19.6121 13.3373C14.9854 13.3373 10.6497 12.7007 7.4038 11.5448C4.47504 10.5018 3.16406 9.26343 3.16406 8.49878C3.16406 7.73413 4.47504 6.49572 7.4038 5.45274ZM6.34236 14.5256C9.92039 15.7996 14.633 16.5013 19.6121 16.5013C20.2988 16.5013 20.9855 16.4862 21.6674 16.4593V22.6101C21.6674 23.4109 21.6996 24.1845 21.7644 24.9337C21.0554 24.9646 20.3398 24.9818 19.6222 24.9818C14.9824 24.9818 10.6431 24.3465 7.4037 23.1929C4.48189 22.1526 3.17408 20.9115 3.17408 20.1433V13.0589C4.00876 13.5697 5.04942 14.0651 6.34236 14.5256ZM3.17408 31.846V24.7071C6.86275 26.9768 13.2675 28.1458 19.6222 28.1458C20.508 28.1458 21.3914 28.1211 22.2646 28.0769C22.9102 30.7815 24.089 33.1481 25.848 35.3151C26.085 35.607 26.3327 35.8903 26.5855 36.1697C24.4093 36.5081 22.0478 36.6845 19.6222 36.6845C14.9824 36.6845 10.6431 36.0492 7.4037 34.8956C4.48189 33.855 3.17408 32.6142 3.17408 31.846ZM31.8407 46.5493C28.6012 47.7029 24.262 48.3381 19.6222 48.3381C14.9824 48.3381 10.6431 47.7029 7.4037 46.5493C4.48189 45.5089 3.17408 44.2679 3.17408 43.4996V36.4098C6.86275 38.6795 13.2675 39.8484 19.6222 39.8484C23.0989 39.8484 26.4704 39.5065 29.4212 38.8576C31.2605 40.3859 33.3096 41.7863 35.4289 43.2324C35.6355 43.3734 35.8439 43.5157 36.0526 43.6584C35.8896 44.4315 34.5691 45.5778 31.8407 46.5493ZM50.8359 22.6101C50.8359 32.1703 45.6429 35.7139 38.4553 40.6187C38.2492 40.7593 38.0419 40.9008 37.8336 41.0431C37.6255 40.9007 37.4183 40.7595 37.2122 40.6188C35.3485 39.3462 33.4715 38.0822 31.7173 36.6595C30.1635 35.3992 28.7053 33.9969 27.5632 32.3457C26.263 30.4659 25.419 28.203 25.0718 25.9471C24.9138 24.9202 24.8315 23.8128 24.8315 22.6101V15.7926C28.2979 16.0703 31.8806 15.238 35.0984 13.3802C36.072 12.8181 36.9878 12.1746 37.834 11.4588C38.6801 12.1748 39.5957 12.8183 40.5691 13.3802C43.7871 15.238 47.3691 16.0705 50.836 15.7926V22.6101H50.8359Z" fill="currentColor"/>
<path d="M43.8806 20.0253L37.0513 26.8546L34.271 24.0742C33.6533 23.4563 32.6516 23.4565 32.0337 24.0742C31.4159 24.692 31.4159 25.6936 32.0337 26.3116L35.9327 30.2106C36.2293 30.5073 36.6317 30.6741 37.0513 30.6741C37.4708 30.6741 37.8732 30.5074 38.1699 30.2106L46.1178 22.2627C46.7356 21.645 46.7356 20.6432 46.1178 20.0254C45.5 19.4076 44.4983 19.4076 43.8806 20.0253Z" fill="currentColor"/>
</svg>
