<svg width="29" height="28" viewBox="0 0 29 28" fill="none" xmlns="http://www.w3.org/2000/svg">
<g clip-path="url(#clip0_9208_34066)">
<path d="M9.98933 26.8353H4.66406" stroke="currentColor" stroke-width="1.5" stroke-miterlimit="10" stroke-linecap="round" stroke-linejoin="round"/>
<path d="M3.06505 15.1199H11.5855C12.1737 15.1199 12.6505 15.5968 12.6505 16.185V22.5753C12.6505 23.1636 12.1737 23.6404 11.5855 23.6404H3.06505C2.47682 23.6404 2 23.1636 2 22.5753V16.185C2 15.5968 2.47682 15.1199 3.06505 15.1199Z" stroke="currentColor" stroke-width="1.5" stroke-miterlimit="10" stroke-linecap="round" stroke-linejoin="round"/>
<path d="M5.72656 26.8353V23.6402" stroke="currentColor" stroke-width="1.5" stroke-miterlimit="10" stroke-linecap="round" stroke-linejoin="round"/>
<path d="M8.92188 23.6402V26.8353" stroke="currentColor" stroke-width="1.5" stroke-miterlimit="10" stroke-linecap="round" stroke-linejoin="round"/>
<path d="M23.9453 26.8353V23.6402" stroke="currentColor" stroke-width="1.5" stroke-miterlimit="10" stroke-linecap="round" stroke-linejoin="round"/>
<path d="M20.7422 23.6402V26.8353" stroke="currentColor" stroke-width="1.5" stroke-miterlimit="10" stroke-linecap="round" stroke-linejoin="round"/>
<path d="M19.6797 26.8353H25.005" stroke="currentColor" stroke-width="1.5" stroke-miterlimit="10" stroke-linecap="round" stroke-linejoin="round"/>
<path d="M26.6011 15.1199H18.0807C17.4924 15.1199 17.0156 15.5968 17.0156 16.185V22.5753C17.0156 23.1636 17.4924 23.6404 18.0807 23.6404H26.6011C27.1893 23.6404 27.6662 23.1636 27.6662 22.5753V16.185C27.6662 15.5968 27.1893 15.1199 26.6011 15.1199Z" stroke="currentColor" stroke-width="1.5" stroke-miterlimit="10" stroke-linecap="round" stroke-linejoin="round"/>
<path d="M4.17969 11.2841V8.0889H7.37485" stroke="currentColor" stroke-width="1.5" stroke-miterlimit="10" stroke-linecap="round" stroke-linejoin="round"/>
<path d="M25.4842 11.2841V8.0889H22.2891" stroke="currentColor" stroke-width="1.5" stroke-miterlimit="10" stroke-linecap="round" stroke-linejoin="round"/>
<path d="M17.0156 20.9769H27.6662" stroke="currentColor" stroke-width="1.5" stroke-miterlimit="10" stroke-linecap="round" stroke-linejoin="round"/>
<path d="M2 20.9769H12.6505" stroke="currentColor" stroke-width="1.5" stroke-miterlimit="10" stroke-linecap="round" stroke-linejoin="round"/>
<path d="M10.0391 2.23166C13.2342 0.811575 16.4294 0.811575 19.6245 2.23166V5.50734C19.6245 8.69665 17.7463 11.5869 14.8318 12.8822C11.9173 11.5869 10.0391 8.69665 10.0391 5.50734V2.23166Z" stroke="currentColor" stroke-width="1.5" stroke-miterlimit="10" stroke-linecap="round" stroke-linejoin="round"/>
<path d="M13.1406 7.02489L14.2703 8.15454L16.5296 5.89524" stroke="currentColor" stroke-width="1.5" stroke-miterlimit="10" stroke-linecap="round" stroke-linejoin="round"/>
</g>
<defs>
<clipPath id="clip0_9208_34066">
<rect width="28" height="28" fill="white" transform="translate(0.835938)"/>
</clipPath>
</defs>
</svg>
