<svg width="24" height="24" viewBox="0 0 24 24" fill="none" xmlns="http://www.w3.org/2000/svg">
	<path fill-rule="evenodd" clip-rule="evenodd" d="M11.25 9.75C11.25 9.35218 11.092 8.97064 10.8107 8.68934C10.5294 8.40804 10.1478 8.25 9.75 8.25H5.25C4.85218 8.25 4.47064 8.40804 4.18934 8.68934C3.90804 8.97064 3.75 9.35218 3.75 9.75C3.75 10.1478 3.90804 10.5294 4.18934 10.8107C4.47064 11.092 4.85217 11.25 5.25 11.25H11.25V9.75ZM11.8713 7.62868C12.4339 8.19129 12.75 8.95435 12.75 9.75V12C12.75 12.4142 12.4142 12.75 12 12.75H5.25C4.45435 12.75 3.69129 12.4339 3.12868 11.8713C2.56607 11.3087 2.25 10.5456 2.25 9.75C2.25 8.95435 2.56607 8.19129 3.12868 7.62868C3.69129 7.06607 4.45435 6.75 5.25 6.75L9.75 6.75C10.5456 6.75 11.3087 7.06607 11.8713 7.62868Z" fill="currentColor" />
	<path fill-rule="evenodd" clip-rule="evenodd" d="M9.74688 3.75001C9.55007 3.74919 9.35506 3.78734 9.17308 3.86227C8.9911 3.93721 8.82576 4.04743 8.68659 4.18659C8.54743 4.32576 8.43721 4.4911 8.36227 4.67308C8.28734 4.85506 8.24919 5.05007 8.25001 5.24688V5.25316C8.24919 5.44997 8.28734 5.64498 8.36227 5.82696C8.43721 6.00894 8.54743 6.17428 8.68659 6.31345C8.82576 6.45261 8.9911 6.56283 9.17308 6.63777C9.35506 6.7127 9.55007 6.75085 9.74688 6.75003L9.75002 6.75002H11.25V5.25002L11.25 5.24688C11.2509 5.05007 11.2127 4.85506 11.1378 4.67308C11.0628 4.4911 10.9526 4.32576 10.8134 4.18659C10.6743 4.04743 10.5089 3.93721 10.327 3.86227C10.145 3.78734 9.94997 3.74919 9.75316 3.75001H9.74688ZM9.75002 2.25001C9.35625 2.24878 8.96609 2.32532 8.60196 2.47525C8.23685 2.62559 7.90513 2.84674 7.62593 3.12593C7.34674 3.40513 7.12559 3.73685 6.97525 4.10196C6.82532 4.46609 6.74878 4.85625 6.75001 5.25002C6.74878 5.64379 6.82532 6.03395 6.97525 6.39808C7.12559 6.76319 7.34674 7.09491 7.62593 7.37411C7.90513 7.6533 8.23685 7.87445 8.60196 8.02479C8.96656 8.17491 9.35724 8.25146 9.75152 8.25002H12C12.4142 8.25002 12.75 7.91423 12.75 7.50002V5.25152C12.7515 4.85724 12.6749 4.46656 12.5248 4.10196C12.3744 3.73685 12.1533 3.40513 11.8741 3.12593C11.5949 2.84674 11.2632 2.62559 10.8981 2.47525C10.5339 2.32532 10.1438 2.24878 9.75002 2.25001Z" fill="currentColor" />
	<path fill-rule="evenodd" clip-rule="evenodd" d="M14.25 11.25C14.6478 11.25 15.0294 11.092 15.3107 10.8107C15.592 10.5294 15.75 10.1478 15.75 9.75V5.25C15.75 4.85217 15.592 4.47064 15.3107 4.18934C15.0294 3.90804 14.6478 3.75 14.25 3.75C13.8522 3.75 13.4706 3.90804 13.1893 4.18934C12.908 4.47064 12.75 4.85217 12.75 5.25V11.25H14.25ZM16.3713 11.8713C15.8087 12.4339 15.0456 12.75 14.25 12.75H12C11.5858 12.75 11.25 12.4142 11.25 12V5.25C11.25 4.45435 11.5661 3.69129 12.1287 3.12868C12.6913 2.56607 13.4544 2.25 14.25 2.25C15.0456 2.25 15.8087 2.56607 16.3713 3.12868C16.9339 3.69129 17.25 4.45435 17.25 5.25V9.75C17.25 10.5456 16.9339 11.3087 16.3713 11.8713Z" fill="currentColor" />
	<path fill-rule="evenodd" clip-rule="evenodd" d="M18.7469 8.25001C18.5501 8.24919 18.3551 8.28734 18.1731 8.36227C17.9911 8.43721 17.8258 8.54743 17.6866 8.68659C17.5474 8.82576 17.4372 8.9911 17.3623 9.17308C17.2873 9.35506 17.2492 9.55007 17.25 9.74688L17.25 9.75002V11.25H18.75L18.7532 11.25C18.95 11.2509 19.145 11.2127 19.327 11.1378C19.5089 11.0628 19.6743 10.9526 19.8134 10.8134C19.9526 10.6743 20.0628 10.5089 20.1378 10.327C20.2127 10.145 20.2509 9.94997 20.25 9.75316V9.74688C20.2509 9.55007 20.2127 9.35506 20.1378 9.17308C20.0628 8.9911 19.9526 8.82576 19.8134 8.68659C19.6743 8.54743 19.5089 8.43721 19.327 8.36227C19.145 8.28734 18.95 8.24919 18.7532 8.25001H18.7469ZM18.75 6.75001C18.3562 6.74878 17.9661 6.82532 17.602 6.97525C17.2369 7.12559 16.9051 7.34674 16.6259 7.62593C16.3467 7.90513 16.1256 8.23685 15.9753 8.60196C15.8251 8.96654 15.7486 9.35721 15.75 9.75148V12C15.75 12.4142 16.0858 12.75 16.5 12.75H18.7485C19.1428 12.7515 19.5335 12.6749 19.8981 12.5248C20.2632 12.3744 20.5949 12.1533 20.8741 11.8741C21.1533 11.5949 21.3744 11.2632 21.5248 10.8981C21.6747 10.5339 21.7513 10.1438 21.75 9.75002C21.7513 9.35625 21.6747 8.96609 21.5248 8.60196C21.3744 8.23685 21.1533 7.90513 20.8741 7.62593C20.5949 7.34674 20.2632 7.12559 19.8981 6.97525C19.5339 6.82532 19.1438 6.74878 18.75 6.75001Z" fill="currentColor" />
	<path fill-rule="evenodd" clip-rule="evenodd" d="M12.75 14.25C12.75 14.6478 12.908 15.0294 13.1893 15.3107C13.4706 15.592 13.8522 15.75 14.25 15.75H18.75C19.1478 15.75 19.5294 15.592 19.8107 15.3107C20.092 15.0294 20.25 14.6478 20.25 14.25C20.25 13.8522 20.092 13.4706 19.8107 13.1893C19.5294 12.908 19.1478 12.75 18.75 12.75H12.75V14.25ZM12.1287 16.3713C11.5661 15.8087 11.25 15.0456 11.25 14.25V12C11.25 11.5858 11.5858 11.25 12 11.25H18.75C19.5456 11.25 20.3087 11.5661 20.8713 12.1287C21.4339 12.6913 21.75 13.4544 21.75 14.25C21.75 15.0456 21.4339 15.8087 20.8713 16.3713C20.3087 16.9339 19.5456 17.25 18.75 17.25H14.25C13.4544 17.25 12.6913 16.9339 12.1287 16.3713Z" fill="currentColor" />
	<path fill-rule="evenodd" clip-rule="evenodd" d="M14.827 17.3623C14.645 17.2873 14.45 17.2492 14.2532 17.25L14.25 17.25H12.75V18.75L12.75 18.7532C12.7492 18.95 12.7873 19.145 12.8623 19.327C12.9372 19.5089 13.0474 19.6743 13.1866 19.8134C13.3258 19.9526 13.4911 20.0628 13.6731 20.1378C13.8551 20.2127 14.0501 20.2509 14.2469 20.25H14.2532C14.45 20.2509 14.645 20.2127 14.827 20.1378C15.0089 20.0628 15.1743 19.9526 15.3134 19.8134C15.4526 19.6743 15.5628 19.5089 15.6378 19.327C15.7127 19.145 15.7509 18.95 15.75 18.7532V18.7469C15.7509 18.5501 15.7127 18.3551 15.6378 18.1731C15.5628 17.9911 15.4526 17.8258 15.3134 17.6866C15.1743 17.5474 15.0089 17.4372 14.827 17.3623ZM14.2486 15.75C14.6428 15.7486 15.0335 15.8251 15.3981 15.9753C15.7632 16.1256 16.0949 16.3467 16.3741 16.6259C16.6533 16.9051 16.8744 17.2369 17.0248 17.602C17.1747 17.9661 17.2513 18.3562 17.25 18.75C17.2513 19.1438 17.1747 19.5339 17.0248 19.8981C16.8744 20.2632 16.6533 20.5949 16.3741 20.8741C16.0949 21.1533 15.7632 21.3744 15.3981 21.5248C15.0339 21.6747 14.6438 21.7513 14.25 21.75C13.8562 21.7513 13.4661 21.6747 13.102 21.5248C12.7369 21.3744 12.4051 21.1533 12.1259 20.8741C11.8467 20.5949 11.6256 20.2632 11.4753 19.8981C11.3251 19.5335 11.2486 19.1428 11.25 18.7486V16.5C11.25 16.0858 11.5858 15.75 12 15.75H14.2486Z" fill="currentColor" />
	<path fill-rule="evenodd" clip-rule="evenodd" d="M9.75 12.75C9.35217 12.75 8.97064 12.908 8.68934 13.1893C8.40804 13.4706 8.25 13.8522 8.25 14.25V18.75C8.25 19.1478 8.40804 19.5294 8.68934 19.8107C8.97064 20.092 9.35217 20.25 9.75 20.25C10.1478 20.25 10.5294 20.092 10.8107 19.8107C11.092 19.5294 11.25 19.1478 11.25 18.75V12.75H9.75ZM7.62868 12.1287C8.19129 11.5661 8.95435 11.25 9.75 11.25H12C12.4142 11.25 12.75 11.5858 12.75 12V18.75C12.75 19.5456 12.4339 20.3087 11.8713 20.8713C11.3087 21.4339 10.5456 21.75 9.75 21.75C8.95435 21.75 8.19129 21.4339 7.62868 20.8713C7.06607 20.3087 6.75 19.5456 6.75 18.75V14.25C6.75 13.4544 7.06607 12.6913 7.62868 12.1287Z" fill="currentColor" />
	<path fill-rule="evenodd" clip-rule="evenodd" d="M5.24688 12.75C5.05007 12.7492 4.85506 12.7873 4.67308 12.8623C4.4911 12.9372 4.32576 13.0474 4.18659 13.1866C4.04743 13.3258 3.93721 13.4911 3.86227 13.6731C3.78734 13.8551 3.74919 14.0501 3.75001 14.2469V14.2532C3.74919 14.45 3.78734 14.645 3.86227 14.827C3.93721 15.0089 4.04743 15.1743 4.18659 15.3134C4.32576 15.4526 4.4911 15.5628 4.67308 15.6378C4.85506 15.7127 5.05007 15.7509 5.24688 15.75H5.25316C5.44997 15.7509 5.64498 15.7127 5.82696 15.6378C6.00894 15.5628 6.17428 15.4526 6.31345 15.3134C6.45261 15.1743 6.56283 15.0089 6.63777 14.827C6.7127 14.645 6.75085 14.45 6.75003 14.2532L6.75002 14.25V12.75H5.25002L5.24688 12.75ZM5.25148 11.25C4.85721 11.2486 4.46654 11.3251 4.10196 11.4753C3.73685 11.6256 3.40513 11.8467 3.12593 12.1259C2.84674 12.4051 2.62559 12.7369 2.47525 13.102C2.32532 13.4661 2.24878 13.8562 2.25001 14.25C2.24878 14.6438 2.32532 15.0339 2.47525 15.3981C2.62559 15.7632 2.84674 16.0949 3.12593 16.3741C3.40513 16.6533 3.73685 16.8744 4.10196 17.0248C4.46609 17.1747 4.85625 17.2513 5.25002 17.25C5.64379 17.2513 6.03395 17.1747 6.39808 17.0248C6.76319 16.8744 7.09491 16.6533 7.37411 16.3741C7.6533 16.0949 7.87445 15.7632 8.02479 15.3981C8.17491 15.0335 8.25146 14.6428 8.25002 14.2485V12C8.25002 11.5858 7.91423 11.25 7.50002 11.25H5.25148Z" fill="currentColor" />
</svg>
