<svg width="29" height="28" viewBox="0 0 29 28" fill="none" xmlns="http://www.w3.org/2000/svg">
<path fill-rule="evenodd" clip-rule="evenodd" d="M13.293 11.375C13.293 10.9109 13.1086 10.4658 12.7804 10.1376C12.4522 9.80937 12.0071 9.625 11.543 9.625H6.29297C5.82884 9.625 5.38372 9.80937 5.05553 10.1376C4.72734 10.4658 4.54297 10.9109 4.54297 11.375C4.54297 11.8391 4.72734 12.2842 5.05553 12.6124C5.38372 12.9406 5.82884 13.125 6.29297 13.125H13.293V11.375ZM14.0178 8.90013C14.6742 9.5565 15.043 10.4467 15.043 11.375V14C15.043 14.4832 14.6512 14.875 14.168 14.875H6.29297C5.36471 14.875 4.47447 14.5063 3.8181 13.8499C3.16172 13.1935 2.79297 12.3033 2.79297 11.375C2.79297 10.4467 3.16172 9.5565 3.8181 8.90013C4.47447 8.24375 5.36471 7.875 6.29297 7.875L11.543 7.875C12.4712 7.875 13.3615 8.24375 14.0178 8.90013Z" fill="currentColor"/>
<path fill-rule="evenodd" clip-rule="evenodd" d="M11.5393 4.375C11.3097 4.37404 11.0822 4.41855 10.8699 4.50597C10.6576 4.59339 10.4647 4.72199 10.3023 4.88434C10.14 5.0467 10.0114 5.2396 9.92396 5.45191C9.83653 5.66422 9.79202 5.89174 9.79298 6.12134V6.12868C9.79202 6.35828 9.83653 6.5858 9.92396 6.79811C10.0114 7.01042 10.14 7.20332 10.3023 7.36567C10.4647 7.52803 10.6576 7.65662 10.8699 7.74404C11.0822 7.83146 11.3097 7.87598 11.5393 7.87502L11.543 7.87501H13.293V6.12501L13.293 6.12134C13.294 5.89174 13.2494 5.66422 13.162 5.45191C13.0746 5.2396 12.946 5.0467 12.7837 4.88434C12.6213 4.72199 12.4284 4.59339 12.2161 4.50597C12.0038 4.41855 11.7763 4.37404 11.5467 4.375H11.5393ZM11.543 2.625C11.0836 2.62356 10.6284 2.71286 10.2036 2.88778C9.77763 3.06317 9.39062 3.32118 9.06489 3.64691C8.73916 3.97264 8.48116 4.35965 8.30577 4.7856C8.13084 5.21043 8.04154 5.66561 8.04299 6.12501C8.04154 6.58441 8.13084 7.03959 8.30577 7.46441C8.48116 7.89037 8.73916 8.27738 9.06489 8.60311C9.39062 8.92884 9.77763 9.18684 10.2036 9.36223C10.629 9.53738 11.0847 9.62668 11.5447 9.62501H14.168C14.6512 9.62501 15.043 9.23326 15.043 8.75001V6.12676C15.0447 5.66676 14.9554 5.21097 14.7802 4.7856C14.6048 4.35965 14.3468 3.97264 14.0211 3.64691C13.6954 3.32118 13.3084 3.06317 12.8824 2.88778C12.4576 2.71286 12.0024 2.62356 11.543 2.625Z" fill="currentColor"/>
<path fill-rule="evenodd" clip-rule="evenodd" d="M16.793 13.125C17.2571 13.125 17.7022 12.9406 18.0304 12.6124C18.3586 12.2842 18.543 11.8391 18.543 11.375V6.125C18.543 5.66087 18.3586 5.21575 18.0304 4.88756C17.7022 4.55937 17.2571 4.375 16.793 4.375C16.3288 4.375 15.8837 4.55937 15.5555 4.88756C15.2273 5.21575 15.043 5.66087 15.043 6.125V13.125H16.793ZM19.2678 13.8499C18.6115 14.5063 17.7212 14.875 16.793 14.875H14.168C13.6847 14.875 13.293 14.4832 13.293 14V6.125C13.293 5.19674 13.6617 4.3065 14.3181 3.65013C14.9745 2.99375 15.8647 2.625 16.793 2.625C17.7212 2.625 18.6115 2.99375 19.2678 3.65013C19.9242 4.3065 20.293 5.19674 20.293 6.125V11.375C20.293 12.3033 19.9242 13.1935 19.2678 13.8499Z" fill="currentColor"/>
<path fill-rule="evenodd" clip-rule="evenodd" d="M22.0393 9.62499C21.8097 9.62402 21.5822 9.66854 21.3699 9.75596C21.1576 9.84338 20.9647 9.97197 20.8023 10.1343C20.64 10.2967 20.5114 10.4896 20.424 10.7019C20.3365 10.9142 20.292 11.1417 20.293 11.3713L20.293 11.375V13.125H22.043L22.0467 13.125C22.2763 13.126 22.5038 13.0814 22.7161 12.994C22.9284 12.9066 23.1213 12.778 23.2837 12.6157C23.446 12.4533 23.5746 12.2604 23.662 12.0481C23.7494 11.8358 23.794 11.6083 23.793 11.3787V11.3713C23.794 11.1417 23.7494 10.9142 23.662 10.7019C23.5746 10.4896 23.446 10.2967 23.2837 10.1343C23.1213 9.97197 22.9284 9.84338 22.7161 9.75596C22.5038 9.66854 22.2763 9.62402 22.0467 9.62499H22.0393ZM22.043 7.87499C21.5836 7.87354 21.1284 7.96284 20.7036 8.13777C20.2776 8.31316 19.8906 8.57116 19.5649 8.89689C19.2392 9.22262 18.9812 9.60963 18.8058 10.0356C18.6306 10.4609 18.5413 10.9167 18.543 11.3767V14C18.543 14.4832 18.9347 14.875 19.418 14.875H22.0412C22.5012 14.8767 22.957 14.7874 23.3824 14.6122C23.8084 14.4368 24.1954 14.1788 24.5211 13.8531C24.8468 13.5274 25.1048 13.1404 25.2802 12.7144C25.4551 12.2896 25.5444 11.8344 25.543 11.375C25.5444 10.9156 25.4551 10.4604 25.2802 10.0356C25.1048 9.60963 24.8468 9.22262 24.5211 8.89689C24.1954 8.57116 23.8084 8.31316 23.3824 8.13777C22.9576 7.96284 22.5024 7.87354 22.043 7.87499Z" fill="currentColor"/>
<path fill-rule="evenodd" clip-rule="evenodd" d="M15.043 16.625C15.043 17.0891 15.2273 17.5342 15.5555 17.8624C15.8837 18.1906 16.3288 18.375 16.793 18.375H22.043C22.5071 18.375 22.9522 18.1906 23.2804 17.8624C23.6086 17.5342 23.793 17.0891 23.793 16.625C23.793 16.1609 23.6086 15.7158 23.2804 15.3876C22.9522 15.0594 22.5071 14.875 22.043 14.875H15.043V16.625ZM14.3181 19.0999C13.6617 18.4435 13.293 17.5533 13.293 16.625V14C13.293 13.5168 13.6847 13.125 14.168 13.125H22.043C22.9712 13.125 23.8615 13.4937 24.5178 14.1501C25.1742 14.8065 25.543 15.6967 25.543 16.625C25.543 17.5533 25.1742 18.4435 24.5178 19.0999C23.8615 19.7563 22.9712 20.125 22.043 20.125H16.793C15.8647 20.125 14.9745 19.7563 14.3181 19.0999Z" fill="currentColor"/>
<path fill-rule="evenodd" clip-rule="evenodd" d="M17.4661 20.256C17.2538 20.1685 17.0263 20.124 16.7967 20.125L16.793 20.125H15.043V21.875L15.043 21.8787C15.042 22.1083 15.0865 22.3358 15.174 22.5481C15.2614 22.7604 15.39 22.9533 15.5523 23.1157C15.7147 23.278 15.9076 23.4066 16.1199 23.494C16.3322 23.5814 16.5597 23.626 16.7893 23.625H16.7967C17.0263 23.626 17.2538 23.5814 17.4661 23.494C17.6784 23.4066 17.8713 23.278 18.0337 23.1157C18.196 22.9533 18.3246 22.7604 18.412 22.5481C18.4994 22.3358 18.544 22.1083 18.543 21.8787V21.8713C18.544 21.6417 18.4994 21.4142 18.412 21.2019C18.3246 20.9896 18.196 20.7967 18.0337 20.6343C17.8713 20.472 17.6784 20.3434 17.4661 20.256ZM16.7913 18.375C17.2513 18.3733 17.707 18.4626 18.1324 18.6378C18.5584 18.8132 18.9454 19.0712 19.2711 19.3969C19.5968 19.7226 19.8548 20.1096 20.0302 20.5356C20.2051 20.9604 20.2944 21.4156 20.293 21.875C20.2944 22.3344 20.2051 22.7896 20.0302 23.2144C19.8548 23.6404 19.5968 24.0274 19.2711 24.3531C18.9454 24.6788 18.5584 24.9368 18.1324 25.1122C17.7076 25.2871 17.2524 25.3764 16.793 25.375C16.3336 25.3764 15.8784 25.2871 15.4536 25.1122C15.0276 24.9368 14.6406 24.6788 14.3149 24.3531C13.9892 24.0274 13.7312 23.6404 13.5558 23.2144C13.3806 22.789 13.2913 22.3333 13.293 21.8733V19.25C13.293 18.7667 13.6847 18.375 14.168 18.375H16.7913Z" fill="currentColor"/>
<path fill-rule="evenodd" clip-rule="evenodd" d="M11.543 14.875C11.0788 14.875 10.6337 15.0594 10.3055 15.3876C9.97734 15.7158 9.79297 16.1609 9.79297 16.625V21.875C9.79297 22.3391 9.97734 22.7842 10.3055 23.1124C10.6337 23.4406 11.0788 23.625 11.543 23.625C12.0071 23.625 12.4522 23.4406 12.7804 23.1124C13.1086 22.7842 13.293 22.3391 13.293 21.875V14.875H11.543ZM9.06809 14.1501C9.72447 13.4937 10.6147 13.125 11.543 13.125H14.168C14.6512 13.125 15.043 13.5168 15.043 14V21.875C15.043 22.8033 14.6742 23.6935 14.0178 24.3499C13.3615 25.0063 12.4712 25.375 11.543 25.375C10.6147 25.375 9.72447 25.0063 9.06809 24.3499C8.41172 23.6935 8.04297 22.8033 8.04297 21.875V16.625C8.04297 15.6967 8.41172 14.8065 9.06809 14.1501Z" fill="currentColor"/>
<path fill-rule="evenodd" clip-rule="evenodd" d="M6.28932 14.875C6.05972 14.874 5.8322 14.9185 5.61989 15.006C5.40758 15.0934 5.21468 15.222 5.05233 15.3843C4.88997 15.5467 4.76138 15.7396 4.67395 15.9519C4.58653 16.1642 4.54202 16.3917 4.54298 16.6213V16.6287C4.54202 16.8583 4.58653 17.0858 4.67395 17.2981C4.76138 17.5104 4.88997 17.7033 5.05233 17.8657C5.21468 18.028 5.40758 18.1566 5.61989 18.244C5.8322 18.3314 6.05972 18.376 6.28932 18.375H6.29666C6.52626 18.376 6.75378 18.3314 6.96609 18.244C7.1784 18.1566 7.3713 18.028 7.53365 17.8657C7.69601 17.7033 7.82461 17.5104 7.91203 17.2981C7.99945 17.0858 8.04396 16.8583 8.043 16.6287L8.04299 16.625V14.875H6.29299L6.28932 14.875ZM6.2947 13.125C5.83472 13.1233 5.37894 13.2126 4.95359 13.3878C4.52763 13.5632 4.14062 13.8212 3.81489 14.1469C3.48916 14.4726 3.23116 14.8596 3.05577 15.2856C2.88084 15.7104 2.79154 16.1656 2.79299 16.625C2.79154 17.0844 2.88084 17.5396 3.05577 17.9644C3.23116 18.3904 3.48916 18.7774 3.81489 19.1031C4.14062 19.4288 4.52763 19.6868 4.95359 19.8622C5.37841 20.0371 5.83359 20.1264 6.29299 20.125C6.75239 20.1264 7.20757 20.0371 7.6324 19.8622C8.05835 19.6868 8.44536 19.4288 8.77109 19.1031C9.09682 18.7774 9.35483 18.3904 9.53022 17.9644C9.70536 17.539 9.79467 17.0832 9.79299 16.6232V14C9.79299 13.5167 9.40124 13.125 8.91799 13.125H6.2947Z" fill="currentColor"/>
</svg>
