<svg width="30" height="30" viewBox="0 0 30 30" fill="none" xmlns="http://www.w3.org/2000/svg">
<path d="M8.51768 6.5625C8.29431 6.56285 8.08022 6.64696 7.92252 6.79636C7.76482 6.94575 7.67642 7.1482 7.67674 7.35915V14.5178H1.78038C1.55723 14.5177 1.34314 14.6011 1.18511 14.7499C1.02707 14.8987 0.938023 15.1006 0.9375 15.3114C0.937413 15.4159 0.959132 15.5195 1.00146 15.6161C1.04379 15.7127 1.10588 15.8005 1.18417 15.8745C1.26246 15.9484 1.35543 16.007 1.45774 16.047C1.56004 16.087 1.66966 16.1075 1.78038 16.1074H7.67674V23.2661C7.67642 23.4771 7.76482 23.6795 7.92252 23.8289C8.08022 23.9783 8.29431 24.0624 8.51768 24.0628H18.6246C18.7353 24.0628 18.845 24.0423 18.9474 24.0023C19.0497 23.9622 19.1427 23.9036 19.221 23.8296C19.2993 23.7556 19.3614 23.6677 19.4037 23.571C19.4459 23.4743 19.4676 23.3707 19.4675 23.2661V21.3708L24.9861 23.9783C25.1033 24.0338 25.2327 24.0628 25.3638 24.0628H28.7315C28.8423 24.0629 28.9519 24.0423 29.0543 24.0023C29.1566 23.9623 29.2496 23.9036 29.3279 23.8296C29.4062 23.7556 29.4683 23.6677 29.5106 23.5711C29.5528 23.4744 29.5745 23.3708 29.5744 23.2662C29.5744 23.1616 29.5527 23.058 29.5104 22.9614C29.4681 22.8648 29.406 22.777 29.3277 22.7031C29.2494 22.6291 29.1564 22.5705 29.0541 22.5305C28.9518 22.4906 28.8422 22.47 28.7315 22.4701H25.5606L19.4675 19.5942V16.1075H27.0476C27.2708 16.1076 27.4849 16.0241 27.6429 15.8754C27.801 15.7266 27.89 15.5246 27.8905 15.3139C27.8906 15.2093 27.8689 15.1058 27.8265 15.0092C27.7842 14.9126 27.7222 14.8248 27.6439 14.7508C27.5656 14.6769 27.4726 14.6183 27.3703 14.5783C27.268 14.5383 27.1583 14.5178 27.0476 14.5179H19.4675V11.0311L25.5606 8.1552L28.7315 8.1528C28.9546 8.15296 29.1687 8.06949 29.3268 7.9207C29.4848 7.77192 29.5738 7.56998 29.5744 7.35924C29.5745 7.25463 29.5528 7.15103 29.5106 7.05434C29.4683 6.95765 29.4062 6.86979 29.3279 6.79579C29.2496 6.72179 29.1566 6.6631 29.0543 6.62309C28.9519 6.58307 28.8423 6.56251 28.7315 6.56259H25.3638C25.2327 6.56262 25.1033 6.59158 24.9861 6.64714L19.4675 9.25459V7.35928C19.4676 7.25467 19.4459 7.15106 19.4037 7.05438C19.3614 6.9577 19.2993 6.86984 19.221 6.79584C19.1427 6.72184 19.0497 6.66316 18.9474 6.62314C18.845 6.58312 18.7353 6.56256 18.6246 6.56263L8.51768 6.5625ZM9.36055 8.15269H17.7836V15.3139V22.4726L9.36055 22.4702V8.15269Z" fill="currentColor" stroke="currentColor" stroke-width="0.7"/>
</svg>
