<svg width="20" height="22" viewBox="0 0 20 22" fill="none" xmlns="http://www.w3.org/2000/svg">
<path d="M2.14661 4.00385C4.05832 1.81985 6.84112 0.4375 9.9961 0.4375C14.1444 0.4375 17.7327 2.82911 19.4602 6.30508C19.6599 6.70692 19.496 7.19458 19.0942 7.39428C18.6923 7.59397 18.2046 7.4301 18.005 7.02825C16.5415 4.08341 13.504 2.0625 9.9961 2.0625C6.98198 2.0625 4.36395 3.55554 2.75812 5.85417H5.00684C5.45557 5.85417 5.81934 6.21794 5.81934 6.66667C5.81934 7.11539 5.45557 7.47917 5.00684 7.47917H1.35059C1.28534 7.48054 1.21944 7.47404 1.15428 7.4592C1.05185 7.43605 0.956757 7.39356 0.873048 7.33577C0.784409 7.27485 0.710916 7.1984 0.654442 7.11203C0.58435 7.00528 0.538731 6.88103 0.525558 6.74726C0.522373 6.71553 0.52104 6.68352 0.521614 6.65141V2.33333C0.521614 1.88461 0.885387 1.52083 1.33411 1.52083C1.78285 1.52083 2.14661 1.88461 2.14661 2.33333V4.00385Z" fill="#47506D"/>
<path d="M7.10808 10.4052L7.10809 10.4052L9.40618 8.10711L9.40618 8.1071C9.75601 7.75727 10.3233 7.75727 10.6731 8.1071L10.6731 8.10711L12.9712 10.4052L12.9712 10.4052C13.321 10.755 13.321 11.3222 12.9712 11.6721C12.9712 11.6722 12.9711 11.6722 12.9711 11.6722L10.6731 13.9702C10.3233 14.32 9.756 14.32 9.40617 13.9702L8.69907 14.6773L9.40617 13.9702L7.10813 11.6722C7.10812 11.6722 7.1081 11.6722 7.10809 11.6721C6.7582 11.3222 6.75829 10.755 7.10808 10.4052Z" stroke="#47506D" stroke-width="2"/>
<path d="M2.06177 14.9719C1.86207 14.57 1.37443 14.4062 0.972573 14.6058C0.570733 14.8055 0.406857 15.2932 0.606559 15.695C2.33396 19.171 5.92227 21.5626 10.0707 21.5626C13.2255 21.5626 16.0083 20.1803 17.92 17.9963V19.6667C17.92 20.1154 18.2838 20.4792 18.7325 20.4792C19.1812 20.4792 19.545 20.1154 19.545 19.6667V15.3528C19.546 15.3076 19.5433 15.2626 19.5369 15.2182C19.5359 15.2117 19.535 15.2051 19.5339 15.1986C19.5175 15.101 19.4838 15.0093 19.4361 14.9267C19.3762 14.823 19.2931 14.7317 19.1895 14.6615C19.135 14.6243 19.0758 14.5937 19.013 14.5706C18.9753 14.5567 18.9363 14.5456 18.8961 14.5374C18.8371 14.5252 18.7776 14.5198 18.7186 14.5209H15.0598C14.6111 14.5209 14.2473 14.8847 14.2473 15.3334C14.2473 15.7821 14.6111 16.1459 15.0598 16.1459H17.3086C15.7028 18.4445 13.0848 19.9376 10.0707 19.9376C6.56268 19.9376 3.52522 17.9167 2.06177 14.9719Z" fill="#47506D"/>
</svg>
