<svg width="32" height="32" viewBox="0 0 32 32" fill="none" xmlns="http://www.w3.org/2000/svg">
<path d="M27.875 2.5H25.6875V0.9375C25.6875 0.41975 25.2677 0 24.75 0H7.25C6.73225 0 6.3125 0.41975 6.3125 0.9375V2.5H4.125C2.57419 2.5 1.3125 3.76169 1.3125 5.3125V10.2435C1.3125 12.9137 3.11169 15.2692 5.68775 15.9718L8.26481 16.6746C9.36025 18.2479 10.8349 19.4909 12.5625 20.3019V25.7591C10.0933 25.903 8.07156 27.7411 7.64531 30.1249H6C5.48225 30.1249 5.0625 30.5447 5.0625 31.0624C5.0625 31.5802 5.48225 31.9999 6 31.9999H26C26.5177 31.9999 26.9375 31.5802 26.9375 31.0624C26.9375 30.5447 26.5177 30.1249 26 30.1249H24.3547C23.9285 27.741 21.9067 25.9029 19.4375 25.7591V20.3019C21.1651 19.4909 22.6397 18.2479 23.7352 16.6746L26.3123 15.9718C28.8883 15.2692 30.6875 12.9137 30.6875 10.2435V5.3125C30.6875 3.76169 29.4258 2.5 27.875 2.5ZM3.1875 10.2435V5.3125C3.1875 4.79556 3.60806 4.375 4.125 4.375H6.3125V10.4561C6.3125 11.8178 6.56425 13.1509 7.05075 14.4001L6.18106 14.1629C4.4185 13.6821 3.1875 12.0705 3.1875 10.2435ZM17.5625 25.75H14.4375V20.625H17.5625V25.75ZM22.4326 30.125H9.56744C9.9765 28.6838 11.3044 27.625 12.875 27.625H19.125C20.6956 27.625 22.0235 28.6838 22.4326 30.125ZM18.3149 18.75H13.6851C10.3395 17.3371 8.1875 14.1007 8.1875 10.4561V1.875H23.8125V10.4561C23.8125 14.1007 21.6605 17.3371 18.3149 18.75ZM28.8125 10.2435C28.8125 12.0704 27.5815 13.6821 25.8189 14.1628L24.9492 14.4C25.4357 13.1509 25.6875 11.8178 25.6875 10.4561V4.375H27.875C28.3919 4.375 28.8125 4.79556 28.8125 5.3125V10.2435ZM21.1348 7.39244L18.1676 6.96131L16.8407 4.27262C16.4968 3.57581 15.5032 3.57581 15.1593 4.27262L13.8324 6.96131L10.8652 7.39244C10.0963 7.50419 9.78919 8.44913 10.3456 8.9915L12.4927 11.0844L11.9858 14.0395C11.8544 14.8054 12.6583 15.3894 13.3461 15.0278L16 13.6326L18.6539 15.0279C19.3417 15.3894 20.1456 14.8054 20.0142 14.0396L19.5073 11.0844L21.6544 8.99156C22.2108 8.44913 21.9038 7.50419 21.1348 7.39244ZM17.8456 10.0857C17.6247 10.3011 17.5239 10.6114 17.576 10.9156L17.8451 12.4843L16.4363 11.7437C16.1631 11.6001 15.8369 11.6001 15.5638 11.7437L14.1549 12.4843L14.424 10.9156C14.4762 10.6114 14.3753 10.3011 14.1544 10.0857L13.0146 8.97475L14.5897 8.74588C14.8951 8.7015 15.159 8.50969 15.2956 8.233L16 6.80587L16.7044 8.23312C16.8409 8.50981 17.1049 8.70162 17.4102 8.746L18.9853 8.97488L17.8456 10.0857Z" fill="#5072EB"/>
</svg>
