<svg width="20" height="20" viewBox="0 0 20 20" fill="none" xmlns="http://www.w3.org/2000/svg">
<g clip-path="url(#clip0_1584_5579)">
<path d="M10 0C8.02219 0 6.08879 0.58649 4.4443 1.6853C2.79981 2.78412 1.51809 4.3459 0.761209 6.17317C0.00433286 8.00043 -0.193701 10.0111 0.192152 11.9509C0.578004 13.8907 1.53041 15.6725 2.92894 17.0711C4.32746 18.4696 6.10929 19.422 8.0491 19.8079C9.98891 20.1937 11.9996 19.9957 13.8268 19.2388C15.6541 18.4819 17.2159 17.2002 18.3147 15.5557C19.4135 13.9112 20 11.9778 20 10C19.9971 7.34872 18.9426 4.80684 17.0679 2.9321C15.1932 1.05736 12.6513 0.00286757 10 0ZM10 18.3333C8.35183 18.3333 6.74066 17.8446 5.37025 16.9289C3.99984 16.0132 2.93174 14.7117 2.30101 13.189C1.67028 11.6663 1.50525 9.99076 1.82679 8.37425C2.14834 6.75774 2.94201 5.27288 4.10745 4.10744C5.27289 2.94201 6.75774 2.14833 8.37425 1.82679C9.99076 1.50525 11.6663 1.67027 13.189 2.301C14.7118 2.93173 16.0132 3.99984 16.9289 5.37025C17.8446 6.74066 18.3333 8.35182 18.3333 10C18.3309 12.2094 17.4522 14.3276 15.8899 15.8899C14.3276 17.4522 12.2094 18.3309 10 18.3333Z" fill="currentColor"/>
<path d="M10.8346 9.65533V5.00033C10.8346 4.77931 10.7468 4.56735 10.5906 4.41107C10.4343 4.25479 10.2223 4.16699 10.0013 4.16699C9.78029 4.16699 9.56833 4.25479 9.41205 4.41107C9.25577 4.56735 9.16797 4.77931 9.16797 5.00033V10.0003C9.16802 10.2213 9.25584 10.4332 9.41214 10.5895L11.9121 13.0895C12.0693 13.2413 12.2798 13.3253 12.4983 13.3234C12.7168 13.3215 12.9258 13.2338 13.0803 13.0793C13.2348 12.9248 13.3225 12.7158 13.3244 12.4973C13.3263 12.2788 13.2423 12.0683 13.0905 11.9112L10.8346 9.65533Z" fill="currentColor"/>
</g>
<defs>
<clipPath id="clip0_1584_5579">
<rect width="20" height="20" fill="white"/>
</clipPath>
</defs>
</svg>
