<svg width="27" height="28" viewBox="0 0 27 28" fill="none" xmlns="http://www.w3.org/2000/svg">
<path d="M23.8906 2.1875H21.9766V0.820312C21.9766 0.367281 21.6093 0 21.1562 0H5.84375C5.39072 0 5.02344 0.367281 5.02344 0.820312V2.1875H3.10938C1.75241 2.1875 0.648438 3.29148 0.648438 4.64844V8.96306C0.648438 11.2995 2.22273 13.3605 4.47678 13.9753L6.73171 14.5902C7.69022 15.9669 8.98057 17.0546 10.4922 17.7642V22.5392C8.33165 22.6651 6.56262 24.2734 6.18965 26.3593H4.75C4.29697 26.3593 3.92969 26.7266 3.92969 27.1796C3.92969 27.6327 4.29697 27.9999 4.75 27.9999H22.25C22.703 27.9999 23.0703 27.6327 23.0703 27.1796C23.0703 26.7266 22.703 26.3593 22.25 26.3593H20.8104C20.4374 24.2734 18.6684 22.6651 16.5078 22.5392V17.7642C18.0194 17.0546 19.3098 15.9669 20.2683 14.5902L22.5232 13.9753C24.7773 13.3606 26.3516 11.2995 26.3516 8.96306V4.64844C26.3516 3.29148 25.2476 2.1875 23.8906 2.1875ZM2.28906 8.96306V4.64844C2.28906 4.19612 2.65705 3.82812 3.10938 3.82812H5.02344V9.14905C5.02344 10.3406 5.24372 11.5071 5.66941 12.6001L4.90843 12.3925C3.36619 11.9719 2.28906 10.5617 2.28906 8.96306ZM14.8672 22.5312H12.1328V18.0469H14.8672V22.5312ZM19.1285 26.3594H7.87151C8.22944 25.0983 9.39138 24.1719 10.7656 24.1719H16.2344C17.6086 24.1719 18.7706 25.0983 19.1285 26.3594ZM15.5256 16.4062H11.4744C8.54706 15.1699 6.66406 12.3381 6.66406 9.14905V1.64062H20.3359V9.14905C20.3359 12.3381 18.4529 15.1699 15.5256 16.4062ZM24.7109 8.96306C24.7109 10.5616 23.6338 11.9719 22.0916 12.3925L21.3306 12.6C21.7563 11.5071 21.9766 10.3406 21.9766 9.14905V3.82812H23.8906C24.3429 3.82812 24.7109 4.19612 24.7109 4.64844V8.96306ZM17.993 6.46838L15.3967 6.09115L14.2356 3.73855C13.9347 3.12884 13.0653 3.12884 12.7644 3.73855L11.6033 6.09115L9.00704 6.46838C8.33422 6.56616 8.06554 7.39298 8.55242 7.86756L10.4311 9.69883L9.98759 12.2846C9.87263 12.9547 10.576 13.4657 11.1778 13.1493L13.5 11.9285L15.8222 13.1494C16.424 13.4658 17.1274 12.9548 17.0124 12.2846L16.5689 9.69888L18.4476 7.86762C18.9345 7.39298 18.6658 6.56616 17.993 6.46838ZM15.1149 8.82503C14.9216 9.01348 14.8334 9.28501 14.879 9.55112L15.1144 10.9238L13.8817 10.2757C13.6427 10.1501 13.3573 10.1501 13.1183 10.2757L11.8856 10.9238L12.121 9.55112C12.1667 9.28501 12.0784 9.01348 11.8851 8.82503L10.8878 7.85291L12.266 7.65264C12.5332 7.61381 12.7641 7.44598 12.8836 7.20387L13.5 5.95514L14.1163 7.20398C14.2358 7.44609 14.4668 7.61392 14.734 7.65275L16.1121 7.85302L15.1149 8.82503Z" fill="currentColor"/>
</svg>
