<svg width="36" height="37" viewBox="0 0 36 37" fill="none" xmlns="http://www.w3.org/2000/svg">
<g clip-path="url(#clip0_8928_23610)">
<path d="M29.367 36.5049H6.63298C5.24167 36.5048 3.8856 36.0672 2.75665 35.2541C1.6277 34.4409 0.783024 33.2933 0.34215 31.9737C0.122191 31.3138 1.71079 30.654 1.71079 29.9159L0 28.2882V24.2214C0 24.2214 14.1165 0.5 16.189 0.5H29.3866C30.7779 0.500072 32.1339 0.937639 33.2629 1.7508C34.3918 2.56396 35.2365 3.71154 35.6774 5.03116C35.8973 5.69103 34.1768 6.44378 34.1768 7.17697L36.0195 8.7167V12.7835L34.5189 14.5921L36.0195 16.469V20.5358L34.3772 22.3786L36.0098 24.2214V28.2784L34.2892 29.7888C34.2892 30.522 35.8876 31.3041 35.6676 31.9639C35.2279 33.287 34.3825 34.4378 33.2514 35.253C32.1203 36.0681 30.7612 36.5062 29.367 36.5049Z" fill="#F4002F"/>
<path d="M0.347043 31.9738H35.6529C35.8808 31.298 35.998 30.5899 36 29.8768V28.2784H0V29.8621C0.000888969 30.5801 0.118085 31.2932 0.347043 31.9738Z" fill="white"/>
<path d="M36 24.2214H0V20.5309H4.84888H36V24.2214Z" fill="white"/>
<path d="M35.9997 16.469H3.01562V12.7834H35.9997V16.469Z" fill="white"/>
<path d="M12.1999 5.03101C11.413 6.14547 10.5624 7.39679 9.6875 8.71655H36.0093V7.13283C36.0073 6.41812 35.8902 5.70841 35.6622 5.03101H12.1999Z" fill="white"/>
<path d="M0 20.5358V7.13298C0.00129465 5.3742 0.700538 3.68783 1.94418 2.44418C3.18783 1.20054 4.8742 0.501295 6.63298 0.5H21.3312V20.5407L0 20.5358Z" fill="#004CBA"/>
<path d="M19.8368 13.5853L19.2894 13.5022L19.0401 13.0134C18.9179 12.769 18.7175 12.769 18.5953 13.0134L18.3509 13.5022L17.7985 13.5853C17.5395 13.6195 17.471 13.7955 17.6372 13.9812L18.0625 14.3918L17.9696 14.9441C17.9256 15.2032 18.0674 15.3205 18.2873 15.2228L18.8201 14.9441L19.348 15.2228C19.5729 15.3205 19.7146 15.2228 19.6706 14.9441L19.5778 14.3918L20.003 13.9812C20.1692 13.7955 20.1008 13.6146 19.8368 13.5853Z" fill="white"/>
<path d="M15.7636 13.5853L15.2112 13.5022L14.9668 13.0134C14.8398 12.769 14.6442 12.769 14.522 13.0134L14.2727 13.5022L13.7204 13.5853C13.4613 13.6195 13.3929 13.7955 13.5591 13.9812L13.9844 14.3918L13.8915 14.9441C13.8475 15.2032 13.9892 15.3205 14.2141 15.2228L14.742 14.9441L15.2748 15.2228C15.4947 15.3205 15.6414 15.2228 15.5925 14.9441L15.4996 14.3918L15.9249 13.9812C16.0911 13.7955 16.0226 13.6146 15.7636 13.5853Z" fill="white"/>
<path d="M11.6909 13.6829L11.1385 13.5998L10.8941 13.111C10.7719 12.8666 10.5715 12.8666 10.4493 13.111L10.2 13.5998L9.65258 13.6829C9.38863 13.722 9.32509 13.8931 9.48639 14.0789L9.91164 14.4943L9.81877 15.0418C9.77478 15.3009 9.91653 15.4182 10.1414 15.3204L10.6693 15.0418L11.2021 15.3204C11.4269 15.4182 11.5687 15.3204 11.5247 15.0418L11.4269 14.4943L11.8522 14.0789C12.0184 13.8931 11.9499 13.722 11.6909 13.6829Z" fill="white"/>
<path d="M17.7948 17.1876L17.2425 17.1045L16.9932 16.6157C16.871 16.3713 16.6755 16.3713 16.5484 16.6157L16.304 17.1045L15.7517 17.1876C15.4926 17.2267 15.4242 17.4026 15.5903 17.5835L16.0156 17.999L15.9227 18.5464C15.8739 18.8055 16.0205 18.9228 16.2405 18.825L16.7732 18.5464L17.306 18.825C17.526 18.9228 17.6677 18.825 17.6237 18.5464L17.5309 17.999L17.9561 17.5835C18.1223 17.3977 18.0539 17.2267 17.7948 17.1876Z" fill="white"/>
<path d="M13.7321 17.1876L13.1797 17.1045L12.9354 16.6157C12.8132 16.3713 12.6127 16.3713 12.4905 16.6157L12.2413 17.1045L11.6938 17.1876C11.4298 17.2267 11.3614 17.4026 11.5276 17.5835L11.9529 17.999L11.86 18.5464C11.816 18.8055 11.9577 18.9228 12.1826 18.825L12.7105 18.5464L13.2433 18.825C13.4633 18.9228 13.6099 18.825 13.5659 18.5464L13.4681 17.999L13.8934 17.5835C14.0596 17.3977 13.9912 17.2267 13.7321 17.1876Z" fill="white"/>
<path d="M9.64932 17.1876L9.09697 17.1045L8.85257 16.6157C8.73037 16.3713 8.52996 16.3713 8.40777 16.6157L8.16337 17.1045L7.61102 17.1876C7.35196 17.2267 7.28353 17.4026 7.44972 17.5835L7.87008 17.999L7.77721 18.5464C7.73322 18.8055 7.87497 18.9228 8.09982 18.825L8.62773 18.5464L9.16052 18.825C9.38537 18.9228 9.52712 18.825 9.48313 18.5464L9.39025 17.999L9.81061 17.5835C9.97681 17.3977 9.90838 17.2267 9.64932 17.1876Z" fill="white"/>
<path d="M7.61025 13.6829L7.05791 13.5998L6.81351 13.111C6.69131 12.8666 6.49091 12.8666 6.36871 13.111L6.12431 13.5998L5.57197 13.6829C5.31291 13.722 5.24447 13.8931 5.41066 14.0789L5.83103 14.4943L5.73816 15.0418C5.69417 15.3009 5.83592 15.4182 6.06077 15.3204L6.59356 15.0418L7.12145 15.3204C7.3463 15.4182 7.48805 15.3204 7.44406 15.0418L7.35119 14.4943L7.77156 14.0789C7.93775 13.8931 7.86931 13.722 7.61025 13.6829Z" fill="white"/>
<path d="M3.53994 13.6829L2.99249 13.5998L2.74319 13.111C2.62099 12.8666 2.42059 12.8666 2.29839 13.111L2.05399 13.5998L1.50166 13.6829C1.24259 13.722 1.17415 13.8931 1.34035 14.0789L1.7656 14.4943L1.66785 15.0418C1.62385 15.3009 1.7705 15.4182 1.99046 15.3204L2.52324 15.0418L3.05114 15.3204C3.27599 15.4182 3.41774 15.3204 3.37375 15.0418L3.28088 14.4943L3.70613 14.0789C3.87232 13.8931 3.80389 13.722 3.53994 13.6829Z" fill="white"/>
<path d="M5.57119 17.1876L5.01885 17.1045L4.77445 16.6157C4.65225 16.3713 4.45184 16.3713 4.32964 16.6157L4.08524 17.1045L3.5329 17.1876C3.27383 17.2267 3.20541 17.4026 3.3716 17.5835L3.79196 17.999L3.69909 18.5464C3.65509 18.8055 3.79685 18.9228 4.0217 18.825L4.55448 18.5464L5.08239 18.825C5.30724 18.9228 5.44899 18.825 5.405 18.5464L5.31213 17.999L5.73249 17.5835C5.89868 17.3977 5.83514 17.2267 5.57119 17.1876Z" fill="white"/>
<path d="M19.8368 6.46345L19.2894 6.38524L19.0401 5.89644C18.9179 5.64715 18.7175 5.64715 18.5953 5.89644L18.3509 6.38524L17.7985 6.46345C17.5395 6.50255 17.471 6.67852 17.6372 6.85937L18.0625 7.27485L17.9696 7.8272C17.9256 8.08137 18.0674 8.20358 18.2873 8.10582L18.8201 7.8272L19.348 8.10582C19.5729 8.20358 19.7146 8.08137 19.6706 7.8272L19.5778 7.27485L20.003 6.85937C20.1692 6.67852 20.1008 6.50255 19.8368 6.46345Z" fill="white"/>
<path d="M15.7636 6.46345L15.2112 6.38524L14.9668 5.89644C14.8398 5.64715 14.6442 5.64715 14.522 5.89644L14.2727 6.38524L13.7204 6.46345C13.4613 6.50255 13.3929 6.67852 13.5591 6.85937L13.9844 7.27485L13.8915 7.8272C13.8475 8.08137 13.9892 8.20358 14.2141 8.10582L14.742 7.8272L15.2748 8.10582C15.4947 8.20358 15.6414 8.08137 15.5925 7.8272L15.4996 7.27485L15.9249 6.85937C16.0911 6.67852 16.0226 6.50255 15.7636 6.46345Z" fill="white"/>
<path d="M11.693 6.56598L11.1407 6.48289L10.8963 5.99409C10.7741 5.74969 10.5737 5.74969 10.4515 5.99409L10.2022 6.48289L9.65474 6.56598C9.39078 6.60019 9.32235 6.77617 9.48855 6.96192L9.9138 7.37251L9.82093 7.92483C9.77693 8.1839 9.91869 8.30121 10.1435 8.20345L10.6714 7.92483L11.2042 8.20345C11.4291 8.30121 11.5708 8.20345 11.5268 7.92483L11.4291 7.37251L11.8543 6.96192C12.0205 6.77129 11.9521 6.60019 11.693 6.56598Z" fill="white"/>
<path d="M17.7948 10.0706L17.2425 9.98753L16.9932 9.49873C16.871 9.25433 16.6755 9.25433 16.5484 9.49873L16.304 9.98753L15.7517 10.0706C15.4926 10.1097 15.4242 10.2808 15.5903 10.4666L16.0156 10.8771L15.9227 11.4295C15.8739 11.6886 16.0205 11.8059 16.2405 11.7081L16.7732 11.4295L17.306 11.7081C17.526 11.8059 17.6677 11.7081 17.6237 11.4295L17.5309 10.8771L17.9561 10.4666C18.1223 10.2808 18.0539 10.1048 17.7948 10.0706Z" fill="white"/>
<path d="M13.7321 10.0706L13.1797 9.98753L12.9354 9.49873C12.8132 9.25433 12.6127 9.25433 12.4905 9.49873L12.2413 9.98753L11.6938 10.0706C11.4298 10.1097 11.3614 10.2808 11.5276 10.4666L11.9529 10.8771L11.86 11.4295C11.816 11.6886 11.9577 11.8059 12.1826 11.7081L12.7105 11.4295L13.2433 11.7081C13.4633 11.8059 13.6099 11.7081 13.5659 11.4295L13.4681 10.8771L13.8934 10.4666C14.0596 10.2808 13.9912 10.1048 13.7321 10.0706Z" fill="white"/>
<path d="M9.64932 10.0706L9.09697 9.98753L8.85257 9.49873C8.73037 9.25433 8.52996 9.25433 8.40777 9.49873L8.16337 9.98753L7.61102 10.0706C7.35196 10.1097 7.28353 10.2808 7.44972 10.4666L7.87008 10.8771L7.77721 11.4295C7.73322 11.6886 7.87497 11.8059 8.09982 11.7081L8.62773 11.4295L9.16052 11.7081C9.38537 11.8059 9.52712 11.7081 9.48313 11.4295L9.39025 10.8771L9.81061 10.4666C9.97681 10.2808 9.90838 10.1048 9.64932 10.0706Z" fill="white"/>
<path d="M7.61025 6.56598L7.05791 6.48289L6.81351 5.99409C6.69131 5.74481 6.49091 5.74481 6.36871 5.99409L6.12431 6.48289L5.57197 6.56598C5.31291 6.60508 5.24447 6.77618 5.41066 6.96192L5.83103 7.37251L5.73816 7.92484C5.69417 8.1839 5.83592 8.30122 6.06077 8.20346L6.59356 7.92484L7.12145 8.20346C7.3463 8.30122 7.48805 8.20345 7.44406 7.92484L7.35119 7.37251L7.77156 6.96192C7.93775 6.77129 7.86931 6.6002 7.61025 6.56598Z" fill="white"/>
<path d="M3.53994 6.56598L2.99249 6.48289L2.74319 5.99409C2.62099 5.74481 2.42059 5.74481 2.29839 5.99409L2.05399 6.48289L1.50166 6.56598C1.24259 6.60508 1.17415 6.77618 1.34035 6.96192L1.7656 7.37251L1.66785 7.92484C1.62385 8.1839 1.7705 8.30122 1.99046 8.20346L2.52324 7.92484L3.05114 8.20346C3.27599 8.30122 3.41774 8.20345 3.37375 7.92484L3.28088 7.37251L3.70613 6.96192C3.87232 6.77129 3.80389 6.6002 3.53994 6.56598Z" fill="white"/>
<path d="M5.57119 10.0706L5.01885 9.98753L4.77445 9.49873C4.65225 9.25433 4.45184 9.25433 4.32964 9.49873L4.08524 9.98753L3.5329 10.0706C3.27383 10.1097 3.20541 10.2808 3.3716 10.4666L3.79196 10.8771L3.69909 11.4295C3.65509 11.6886 3.79685 11.8059 4.0217 11.7081L4.55448 11.4295L5.08239 11.7081C5.30724 11.8059 5.44899 11.7081 5.405 11.4295L5.31213 10.8771L5.73249 10.4666C5.89868 10.2808 5.83514 10.1048 5.57119 10.0706Z" fill="white"/>
<path d="M17.8065 2.94392L17.2737 2.86082L17.0244 2.37202C16.9022 2.12274 16.7067 2.12274 16.5796 2.37202L16.3352 2.86082L15.7829 2.94392C15.5238 2.97814 15.4554 3.15411 15.6216 3.33985L16.0468 3.75044L15.954 4.30278C15.9051 4.56185 16.0517 4.67915 16.2717 4.58139L16.7849 4.32722L17.3177 4.60584C17.5377 4.7036 17.6794 4.60583 17.6354 4.32722L17.5426 3.77487L17.9678 3.36428C18.134 3.1541 18.0656 2.97814 17.8065 2.94392Z" fill="white"/>
<path d="M13.7321 2.94392L13.1797 2.86082L12.9354 2.37202C12.8132 2.12274 12.6127 2.12274 12.4905 2.37202L12.2413 2.86082L11.6938 2.94392C11.4298 2.97814 11.3614 3.15411 11.5276 3.33985L11.9529 3.75044L11.86 4.30278C11.816 4.56185 11.9577 4.67915 12.1826 4.58139L12.7105 4.30278L13.2433 4.58139C13.4633 4.67915 13.6099 4.5814 13.5659 4.30278L13.4681 3.75044L13.8934 3.33985C14.0596 3.15411 13.9912 2.97814 13.7321 2.94392Z" fill="white"/>
<path d="M9.64932 2.94392L9.09697 2.86082L8.85257 2.37202C8.73037 2.12274 8.52996 2.12274 8.40777 2.37202L8.16337 2.86082L7.61102 2.94392C7.35196 2.97814 7.28353 3.15411 7.44972 3.33985L7.87008 3.75044L7.77721 4.30278C7.73322 4.56185 7.87497 4.67915 8.09982 4.58139L8.62773 4.30278L9.16052 4.58139C9.38537 4.67915 9.52712 4.5814 9.48313 4.30278L9.39025 3.75044L9.81061 3.33985C9.97681 3.15411 9.90838 2.97814 9.64932 2.94392Z" fill="white"/>
<path d="M5.57119 2.94392L5.01885 2.86082L4.77445 2.37202C4.65225 2.12274 4.45184 2.12274 4.32964 2.37202L4.08524 2.86082L3.5329 2.94392C3.27383 2.97814 3.20541 3.15411 3.3716 3.33985L3.79196 3.75044L3.69909 4.30278C3.65509 4.56185 3.79685 4.67915 4.0217 4.58139L4.55938 4.32722L5.08727 4.60584C5.31212 4.7036 5.45387 4.60583 5.40988 4.32722L5.31701 3.77487L5.73738 3.36428C5.89869 3.1541 5.83514 2.97814 5.57119 2.94392Z" fill="white"/>
</g>
<defs>
<clipPath id="clip0_8928_23610">
<rect width="36" height="36" fill="white" transform="translate(0 0.5)"/>
</clipPath>
</defs>
</svg>
