<svg width="20" height="21" viewBox="0 0 20 21" fill="none" xmlns="http://www.w3.org/2000/svg">
<path d="M6.25 3.5H5C3.96447 3.5 3.125 4.33947 3.125 5.375V6.625M13.75 3.5H15C16.0355 3.5 16.875 4.33947 16.875 5.375V6.625M16.875 14.125V15.375C16.875 16.4105 16.0355 17.25 15 17.25H13.75M6.25 17.25H5C3.96447 17.25 3.125 16.4105 3.125 15.375V14.125M12.5 10.375C12.5 11.7557 11.3807 12.875 10 12.875C8.61929 12.875 7.5 11.7557 7.5 10.375C7.5 8.99429 8.61929 7.875 10 7.875C11.3807 7.875 12.5 8.99429 12.5 10.375Z" stroke="#5072EB" stroke-width="2" stroke-linecap="round" stroke-linejoin="round"/>
</svg>
