<svg width="31" height="31" viewBox="0 0 31 31" fill="none" xmlns="http://www.w3.org/2000/svg">
<path d="M28.7503 23H23.7503C23.4853 23.0008 23.2314 23.1064 23.044 23.2938C22.8567 23.4811 22.7511 23.735 22.7503 24V29C22.7493 29.0334 22.751 29.0668 22.7553 29.1C22.7807 29.3464 22.8964 29.5747 23.0801 29.7409C23.2638 29.907 23.5025 29.9993 23.7503 30H28.7503C29.0152 29.9992 29.2691 29.8936 29.4565 29.7062C29.6439 29.5189 29.7495 29.265 29.7503 29V24C29.7495 23.735 29.6439 23.4811 29.4565 23.2938C29.2691 23.1064 29.0152 23.0008 28.7503 23ZM26.2503 28.5C26.0525 28.5 25.8591 28.4414 25.6947 28.3315C25.5302 28.2216 25.4021 28.0654 25.3264 27.8827C25.2507 27.7 25.2309 27.4989 25.2695 27.3049C25.3081 27.1109 25.4033 26.9327 25.5432 26.7929C25.683 26.653 25.8612 26.5578 26.0552 26.5192C26.2492 26.4806 26.4502 26.5004 26.6329 26.5761C26.8157 26.6518 26.9719 26.78 27.0817 26.9444C27.1916 27.1089 27.2503 27.3022 27.2503 27.5C27.2495 27.765 27.1439 28.0189 26.9565 28.2062C26.7691 28.3936 26.5152 28.4992 26.2503 28.5Z" fill="#B8C7F7"/>
<path d="M24.1388 6.06493C24.0007 5.48414 23.7339 4.94177 23.3582 4.47785C22.9825 4.01392 22.5074 3.64028 21.968 3.3845C21.4286 3.12871 20.8386 2.9973 20.2416 2.99997C19.6447 3.00264 19.0559 3.13932 18.5188 3.39993C17.6948 2.45306 16.6308 1.74569 15.4389 1.35219C14.2469 0.958679 12.9709 0.893569 11.7451 1.1637C10.5193 1.43383 9.3889 2.02923 8.47275 2.88729C7.55659 3.74536 6.88854 4.8344 6.5388 6.03993C4.97538 6.21585 3.52883 6.95285 2.46748 8.11421C1.40613 9.27557 0.802021 10.7825 0.767217 12.3554C0.732413 13.9283 1.26928 15.4604 2.27822 16.6676C3.28716 17.8748 4.6997 18.675 6.2538 18.9199V15.9999C6.2538 14.8949 10.2838 13.9999 15.2538 13.9999C20.2238 13.9999 24.2538 14.8949 24.2538 15.9999V18.9199C25.7955 18.6806 27.1995 17.8944 28.2092 16.7051C29.2189 15.5158 29.7669 14.0028 29.753 12.4427C29.739 10.8827 29.164 9.37971 28.1332 8.20866C27.1024 7.0376 25.6845 6.27666 24.1388 6.06493Z" fill="#B8C7F7"/>
<path d="M14.25 20.5H16.25V21.5H14.25V20.5Z" fill="#5072EB"/>
<path d="M14.25 26.5H16.25V27.5H14.25V26.5Z" fill="#5072EB"/>
<path d="M28.7511 22.4999V21.9999C28.7511 21.3369 28.4877 20.701 28.0189 20.2322C27.55 19.7633 26.9141 19.4999 26.2511 19.4999C25.708 19.5015 25.1806 19.6825 24.7511 20.0149V19.3299C26.3285 18.9858 27.7382 18.1063 28.7408 16.8408C29.7434 15.5752 30.277 14.0017 30.2511 12.3874C30.2252 10.7731 29.6413 9.21748 28.5986 7.98478C27.556 6.75208 26.1188 5.91827 24.5311 5.62495C24.2431 4.71638 23.6728 3.92339 22.903 3.36135C22.1332 2.79931 21.2042 2.49754 20.2511 2.49995C19.702 2.49838 19.1575 2.60015 18.6461 2.79995C17.7553 1.87263 16.6407 1.19038 15.4097 0.818931C14.1787 0.447483 12.8727 0.399361 11.6177 0.679204C10.3627 0.959046 9.20091 1.55742 8.24431 2.41666C7.28771 3.2759 6.56854 4.36705 6.1561 5.58495C4.54488 5.83906 3.0731 6.64818 1.99521 7.87242C0.917315 9.09665 0.301078 10.659 0.253037 12.2895C0.204996 13.9199 0.728171 15.5159 1.73211 16.8015C2.73605 18.087 4.15764 18.9814 5.7511 19.3299V27.9999C5.7511 29.9749 11.7211 30.4999 15.2511 30.4999C17.6714 30.5456 20.0877 30.2818 22.4411 29.7149C22.5689 29.9513 22.758 30.1489 22.9885 30.2871C23.219 30.4252 23.4824 30.4987 23.7511 30.4999H28.7511C29.1486 30.4988 29.5294 30.3403 29.8104 30.0593C30.0915 29.7782 30.2499 29.3974 30.2511 28.9999V23.9999C30.2499 23.6025 30.0915 23.2216 29.8104 22.9406C29.5294 22.6595 29.1486 22.5011 28.7511 22.4999ZM26.2511 20.4999C26.6486 20.5011 27.0294 20.6595 27.3104 20.9406C27.5915 21.2216 27.7499 21.6025 27.7511 21.9999V22.4999H24.7511V21.9999C24.7523 21.6025 24.9107 21.2216 25.1918 20.9406C25.4728 20.6595 25.8536 20.5011 26.2511 20.4999ZM5.7511 15.9999V18.3049C4.39409 17.9525 3.20335 17.136 2.38561 15.9971C1.56788 14.8582 1.17479 13.469 1.2746 12.0705C1.3744 10.672 1.9608 9.35265 2.93198 8.34146C3.90316 7.33026 5.19779 6.6911 6.5911 6.53495C6.68937 6.5252 6.78243 6.48614 6.85822 6.42284C6.93401 6.35953 6.98901 6.27491 7.0161 6.17995C7.34082 5.06038 7.96123 4.04901 8.81206 3.25217C9.6629 2.45534 10.7127 1.9025 11.8512 1.65179C12.9896 1.40108 14.1745 1.46177 15.2814 1.82747C16.3883 2.19317 17.3761 2.85036 18.1411 3.72995C18.213 3.81302 18.3104 3.86987 18.4181 3.89159C18.5258 3.91331 18.6376 3.89866 18.7361 3.84995C19.2079 3.61952 19.726 3.49981 20.2511 3.49995C21.0368 3.49849 21.8 3.76233 22.4171 4.24873C23.0342 4.73513 23.469 5.41561 23.6511 6.17995C23.6742 6.27762 23.7261 6.36609 23.8001 6.43387C23.8741 6.50164 23.9668 6.54557 24.0661 6.55995C25.443 6.74749 26.7121 7.40761 27.6561 8.4274C28.6001 9.44718 29.1605 10.7633 29.2414 12.1506C29.3223 13.5379 28.9187 14.9102 28.0997 16.0328C27.2806 17.1554 26.0969 17.9586 24.7511 18.3049V15.9999C24.7511 14.0249 18.7811 13.4999 15.2511 13.4999C11.7211 13.4999 5.7511 14.0249 5.7511 15.9999ZM23.7511 15.9949C23.5811 16.5249 20.5361 17.4999 15.2511 17.4999C9.9661 17.4999 6.9111 16.5199 6.7511 16.0049C6.9211 15.4749 9.9661 14.4999 15.2511 14.4999C20.5361 14.4999 23.5911 15.4749 23.7511 15.9949ZM22.2511 23.9999V28.7299C19.9609 29.2886 17.6079 29.5474 15.2511 29.4999C9.9461 29.4999 6.8961 28.5199 6.7511 27.9999V23.2299C8.6011 24.2049 12.6111 24.4999 15.2511 24.4999C17.6132 24.53 19.9707 24.285 22.2761 23.7699C22.2601 23.8456 22.2517 23.9226 22.2511 23.9999ZM15.2511 23.4999C9.9461 23.4999 6.8961 22.5199 6.7511 21.9999V17.2299C8.6011 18.2049 12.6111 18.4999 15.2511 18.4999C17.8911 18.4999 21.9011 18.2049 23.7511 17.2299V21.9949C23.5961 22.5199 20.5461 23.4999 15.2511 23.4999ZM29.2511 28.9999C29.2511 29.1326 29.1984 29.2597 29.1047 29.3535C29.0109 29.4473 28.8837 29.4999 28.7511 29.4999H23.7511C23.6185 29.4999 23.4913 29.4473 23.3975 29.3535C23.3038 29.2597 23.2511 29.1326 23.2511 28.9999V23.9999C23.2511 23.8673 23.3038 23.7402 23.3975 23.6464C23.4913 23.5526 23.6185 23.4999 23.7511 23.4999H28.7511C28.8837 23.4999 29.0109 23.5526 29.1047 23.6464C29.1984 23.7402 29.2511 23.8673 29.2511 23.9999V28.9999Z" fill="#5072EB"/>
<path d="M26.25 26C25.9533 26 25.6633 26.088 25.4166 26.2528C25.17 26.4176 24.9777 26.6519 24.8642 26.926C24.7507 27.2001 24.7209 27.5017 24.7788 27.7926C24.8367 28.0836 24.9796 28.3509 25.1893 28.5607C25.3991 28.7704 25.6664 28.9133 25.9574 28.9712C26.2483 29.0291 26.5499 28.9993 26.824 28.8858C27.0981 28.7723 27.3324 28.58 27.4972 28.3334C27.662 28.0867 27.75 27.7967 27.75 27.5C27.75 27.1022 27.592 26.7206 27.3107 26.4393C27.0294 26.158 26.6478 26 26.25 26ZM26.25 28C26.1511 28 26.0544 27.9707 25.9722 27.9157C25.89 27.8608 25.8259 27.7827 25.7881 27.6913C25.7502 27.6 25.7403 27.4994 25.7596 27.4025C25.7789 27.3055 25.8265 27.2164 25.8964 27.1464C25.9664 27.0765 26.0555 27.0289 26.1525 27.0096C26.2494 26.9903 26.35 27.0002 26.4413 27.0381C26.5327 27.0759 26.6108 27.14 26.6657 27.2222C26.7207 27.3044 26.75 27.4011 26.75 27.5C26.75 27.6326 26.6973 27.7598 26.6036 27.8536C26.5098 27.9473 26.3826 28 26.25 28Z" fill="#5072EB"/>
<path d="M9.25 6.5H11.25V7.5H9.25V6.5Z" fill="#5072EB"/>
<path d="M12.25 6.5H21.25V7.5H12.25V6.5Z" fill="#5072EB"/>
<path d="M9.25 8.5H11.25V9.5H9.25V8.5Z" fill="#5072EB"/>
<path d="M12.25 8.5H21.25V9.5H12.25V8.5Z" fill="#5072EB"/>
<path d="M9.25 10.5H11.25V11.5H9.25V10.5Z" fill="#5072EB"/>
<path d="M12.25 10.5H21.25V11.5H12.25V10.5Z" fill="#5072EB"/>
</svg>
