<svg width="16" height="12" viewBox="0 0 16 12" fill="none" xmlns="http://www.w3.org/2000/svg">
<path d="M11.3338 3.27837C11.3338 1.77789 10.0871 0.556152 8.55599 0.556152H3.00043C1.46932 0.556152 0.222656 1.77789 0.222656 3.27837V8.72282C0.222656 10.2233 1.46932 11.445 3.00043 11.445H8.55599C10.0871 11.445 11.3338 10.2233 11.3338 8.72282V8.04444L15.7782 10.3311V1.67009L11.3338 3.95675V3.27837ZM10.2227 8.72282C10.2227 9.62333 9.47488 10.3562 8.55599 10.3562H3.00043C2.08154 10.3562 1.33377 9.62333 1.33377 8.72282V3.27837C1.33377 2.37786 2.08154 1.64504 3.00043 1.64504H8.55599C9.47488 1.64504 10.2227 2.37786 10.2227 3.27837V8.72282ZM14.6671 3.47111V8.53009L11.3338 6.81509V5.1872L14.6671 3.4722V3.47111Z" fill="#5072EB"/>
<path d="M11.5625 7.59984L10.8338 7.2249V8.04444V8.72282C10.8338 9.93769 9.82053 10.945 8.55599 10.945H3.00043C1.73589 10.945 0.722656 9.93769 0.722656 8.72282V3.27837C0.722656 2.0635 1.73589 1.05615 3.00043 1.05615H8.55599C9.82053 1.05615 10.8338 2.0635 10.8338 3.27837V3.95675V4.7763L11.5625 4.40136L15.2782 2.48963V9.51156L11.5625 7.59984ZM14.4384 8.97469L15.1671 9.34963V8.53009V3.77724V3.4722V3.47111H14.6671H14.6665L14.4384 3.02759L11.105 4.74259L10.8338 4.88215V5.1872V6.81509V7.12013L11.105 7.25969L14.4384 8.97469ZM8.55599 10.8562C9.74145 10.8562 10.7227 9.90895 10.7227 8.72282V3.27837C10.7227 2.09225 9.74145 1.14504 8.55599 1.14504H3.00043C1.81497 1.14504 0.833767 2.09225 0.833767 3.27837V8.72282C0.833767 9.90895 1.81497 10.8562 3.00043 10.8562H8.55599Z" stroke="#5072EB" stroke-opacity="0.6"/>
</svg>
