<svg width="16" height="12" viewBox="0 0 16 12" fill="none" xmlns="http://www.w3.org/2000/svg">
<path d="M15.6178 2.68407C15.6178 2.68407 15.4661 1.54025 14.9999 1.03664C14.4084 0.376504 13.7458 0.372615 13.442 0.335185C11.2656 0.166504 8.00141 0.166504 8.00141 0.166504H7.99411C7.99411 0.166504 4.72988 0.166504 2.55405 0.335185C2.25023 0.372615 1.58814 0.376504 0.996059 1.03664C0.530365 1.54025 0.378212 2.68407 0.378212 2.68407C0.378212 2.68407 0.222656 4.02623 0.222656 5.36838V6.62643C0.222656 7.96956 0.378212 9.31123 0.378212 9.31123C0.378212 9.31123 0.529878 10.4546 0.996059 10.9572C1.58814 11.6173 2.36446 11.5974 2.71057 11.6664C3.95453 11.7938 7.998 11.8332 7.998 11.8332C7.998 11.8332 11.2656 11.8273 13.442 11.6606C13.7458 11.6217 14.4084 11.6178 14.9999 10.9577C15.4656 10.455 15.6178 9.31171 15.6178 9.31171C15.6178 9.31171 15.7734 7.96956 15.7734 6.62692V5.36886C15.7734 4.02623 15.6178 2.68407 15.6178 2.68407Z" fill="#E72B2B"/>
<path d="M6.05664 3.08301V8.91634L10.9178 5.99967L6.05664 3.08301Z" fill="white"/>
</svg>
