<svg width="53" height="61" viewBox="0 0 53 61" fill="none" xmlns="http://www.w3.org/2000/svg">
<path d="M48.3915 52.9706C46.8894 52.9706 45.6084 53.9341 45.1327 55.2753H31.8553L28.4225 47.5499C28.1642 46.9683 27.483 46.7065 26.9015 46.9647C26.3199 47.2232 26.058 47.9041 26.3163 48.4857L30.0534 56.8955C30.2383 57.3116 30.6511 57.5799 31.1065 57.5799H45.1328C45.6085 58.9211 46.8894 59.8846 48.3917 59.8846C50.2979 59.8846 51.8487 58.3337 51.8487 56.4275C51.8487 54.5213 50.2978 52.9706 48.3915 52.9706ZM48.3915 57.58C47.7561 57.58 47.2392 57.0631 47.2392 56.4276C47.2392 55.7922 47.7561 55.2753 48.3915 55.2753C49.027 55.2753 49.5439 55.7922 49.5439 56.4276C49.5439 57.0631 49.027 57.58 48.3915 57.58Z" fill="#5072EB" stroke="#5072EB"/>
<path d="M26.0743 38.6609C25.4902 38.4084 24.8119 38.6775 24.5595 39.2617C24.3071 39.8458 24.576 40.5241 25.1603 40.7766C27.4423 41.7625 28.8047 43.0902 28.8047 44.3281C28.8047 45.554 27.5189 46.5574 26.7517 47.047C24.3361 48.5915 20.365 49.5136 16.1289 49.5136C8.65895 49.5136 3.45312 46.7807 3.45312 44.3281C3.45312 43.0902 4.81554 41.7625 7.09753 40.7766C7.68177 40.5242 7.95072 39.8459 7.69836 39.2617C7.44611 38.6775 6.76784 38.4085 6.18349 38.6609C2.93664 40.0637 1.14844 42.0764 1.14844 44.3281C1.14844 49.8286 10.5283 51.8113 16.1289 51.8183C20.5602 51.824 25.0085 50.8971 27.9922 48.9892C30.5686 47.3454 31.1094 45.5472 31.1094 44.3281C31.1094 42.0764 29.3212 40.0637 26.0743 38.6609Z" fill="#5072EB" stroke="#5072EB"/>
<path d="M48.3946 17.248C46.8924 17.248 45.6115 18.2115 45.1358 19.5527H34.5665C34.2374 19.5527 33.9239 19.6936 33.7052 19.9395L29.0958 25.125C28.6729 25.6007 28.7158 26.329 29.1915 26.7518C29.6694 27.1768 30.3976 27.1293 30.8182 26.6561L35.0839 21.8574H45.1358C45.6115 23.1986 46.8923 24.1621 48.3946 24.1621C50.3008 24.1621 51.8516 22.6113 51.8516 20.7051C51.8516 18.7989 50.3008 17.248 48.3946 17.248ZM48.3946 21.8574C47.7592 21.8574 47.2423 21.3405 47.2423 20.7051C47.2423 20.0697 47.7592 19.5527 48.3946 19.5527C49.03 19.5527 49.5469 20.0697 49.5469 20.7051C49.5469 21.3405 49.03 21.8574 48.3946 21.8574Z" fill="#5072EB" stroke="#5072EB"/>
<path d="M48.3945 36.8379C46.8923 36.8379 45.6114 37.8013 45.1357 39.1425H35.0838L31.0823 34.6409C30.8513 32.5794 29.0942 30.7469 26.0742 29.4422C25.4901 29.1896 24.8118 29.4588 24.5593 30.0431C24.307 30.6272 24.5759 31.3055 25.1602 31.5579C27.4423 32.5438 28.8047 33.8715 28.8047 35.1093C28.8047 36.3472 27.4423 37.6749 25.1594 38.6612C20.1233 40.8417 12.1297 40.8395 7.09753 38.6609C4.81554 37.6749 3.45313 36.3472 3.45313 35.1093C3.45313 33.8715 4.81554 32.5438 7.09753 31.5578C7.68177 31.3055 7.95072 30.6272 7.69836 30.0429C7.44611 29.4587 6.76784 29.1896 6.18349 29.4421C2.93664 30.845 1.14844 32.8577 1.14844 35.1093C1.14844 37.361 2.93664 39.3737 6.18268 40.7762C11.8024 43.2094 20.4645 43.2056 26.0743 40.7766C28.1702 39.8711 29.6572 38.7111 30.4489 37.3971L33.7053 41.0605C33.9239 41.3065 34.2373 41.4472 34.5665 41.4472H45.1358C45.6115 42.7884 46.8923 43.7519 48.3946 43.7519C50.3009 43.7519 51.8517 42.2011 51.8517 40.2949C51.8517 38.3887 50.3007 36.8379 48.3945 36.8379ZM48.3945 41.4472C47.7591 41.4472 47.2422 40.9303 47.2422 40.2949C47.2422 39.6595 47.7591 39.1425 48.3945 39.1425C49.0299 39.1425 49.5469 39.6595 49.5469 40.2949C49.5469 40.9303 49.0299 41.4472 48.3945 41.4472Z" fill="#5072EB" stroke="#5072EB"/>
<path d="M6.18268 31.5575C11.8024 33.9906 20.4645 33.9868 26.0743 31.5578C29.3212 30.155 31.1094 28.1423 31.1094 25.8906C31.1094 23.6389 29.3212 21.6262 26.0743 20.2234C25.4902 19.9709 24.8119 20.24 24.5595 20.8242C24.3071 21.4083 24.576 22.0866 25.1603 22.3391C27.4423 23.325 28.8047 24.6527 28.8047 25.8906C28.8047 27.1284 27.4423 28.4562 25.1594 29.4425C20.1233 31.6229 12.1297 31.6207 7.09753 29.4421C4.81554 28.4562 3.45312 27.1284 3.45312 25.8906C3.45312 24.6527 4.81554 23.325 7.09753 22.3391C7.68177 22.0867 7.95072 21.4084 7.69836 20.8242C7.44611 20.2401 6.76784 19.971 6.18349 20.2234C2.93664 21.6262 1.14844 23.6389 1.14844 25.8906C1.14844 28.1423 2.93664 30.155 6.18268 31.5575Z" fill="#5072EB" stroke="#5072EB"/>
<path d="M6.18268 22.3388C11.8024 24.7719 20.4645 24.7681 26.0743 22.3391C29.3212 20.9362 31.1094 18.9236 31.1094 16.6719C31.1094 15.5943 30.6857 14.0644 28.8084 12.5883L31.8583 5.72461H45.1357C45.6114 7.06582 46.8922 8.0293 48.3945 8.0293C50.3007 8.0293 51.8516 6.47847 51.8516 4.57227C51.8516 2.66606 50.3007 1.11523 48.3945 1.11523C46.8923 1.11523 45.6114 2.07871 45.1357 3.41992H31.1094C30.654 3.41992 30.2413 3.68819 30.0562 4.1043L26.834 11.3558C24.0605 9.96489 20.248 9.18164 16.1289 9.18164C10.5533 9.18164 1.14844 11.168 1.14844 16.6719C1.14844 18.9236 2.93664 20.9362 6.18268 22.3388ZM48.3945 3.41992C49.0299 3.41992 49.5469 3.93686 49.5469 4.57227C49.5469 5.20767 49.0299 5.72461 48.3945 5.72461C47.7591 5.72461 47.2422 5.20767 47.2422 4.57227C47.2422 3.93686 47.7591 3.41992 48.3945 3.41992ZM16.1289 11.4863C20.365 11.4863 24.3361 12.4084 26.7517 13.9529C26.7519 13.9531 26.7522 13.9534 26.7526 13.9535C27.5189 14.4426 28.8047 15.446 28.8047 16.6719C28.8047 17.9097 27.4423 19.2375 25.1594 20.2237C20.1233 22.4042 12.1297 22.402 7.09753 20.2234C4.81554 19.2375 3.45312 17.9097 3.45312 16.6719C3.45312 14.2192 8.65895 11.4863 16.1289 11.4863Z" fill="#5072EB" stroke="#5072EB"/>
</svg>
